999
dxfrw 0.6.3
  0
SECTION
  2
HEADER
  9
$ACADVER
  1
AC1021
  9
$DWGCODEPAGE
  3
ANSI_1252
  9
$INSBASE
 10
0
 20
0
 30
0
  9
$EXTMIN
 10
-72.44648055162725
 20
-169.9500004147374
 30
0
  9
$EXTMAX
 10
1499.820741691835
 20
862.0937708838777
 30
0
  9
$LIMMIN
 10
0
 20
0
  9
$LIMMAX
 10
420
 20
297
  9
$ORTHOMODE
 70
    0
  9
$REGENMODE
 70
    1
  9
$FILLMODE
 70
    1
  9
$QTEXTMODE
 70
    0
  9
$MIRRTEXT
 70
    0
  9
$LTSCALE
 40
1
  9
$ATTMODE
 70
    0
  9
$TEXTSIZE
 40
2.5
  9
$TRACEWID
 40
15.68
  9
$TEXTSTYLE
  7
STANDARD
  9
$CLAYER
  8
Poikittaistuki
  9
$CELTYPE
  6
BYLAYER
  9
$CECOLOR
 62
  256
  9
$CELTSCALE
 40
1
  9
$DISPSILH
 70
    0
  9
$DIMSCALE
 40
1
  9
$DIMASZ
 40
20
  9
$DIMEXO
 40
9
  9
$DIMDLI
 40
3.75
  9
$DIMRND
 40
0
  9
$DIMDLE
 40
0
  9
$DIMEXE
 40
15
  9
$DIMTP
 40
0
  9
$DIMTM
 40
0
  9
$DIMTXT
 40
20
  9
$DIMCEN
 40
2.5
  9
$DIMTSZ
 40
0
  9
$DIMTOL
 70
    0
  9
$DIMLIM
 70
    0
  9
$DIMTIH
 70
    0
  9
$DIMTOH
 70
    0
  9
$DIMSE1
 70
    0
  9
$DIMSE2
 70
    0
  9
$DIMTAD
 70
    1
  9
$DIMZIN
 70
    1
  9
$DIMBLK
  1

  9
$DIMASO
 70
    1
  9
$DIMSHO
 70
    1
  9
$DIMPOST
  1

  9
$DIMAPOST
  1

  9
$DIMALT
 70
    0
  9
$DIMALTD
 70
    3
  9
$DIMALTF
 40
0.03937
  9
$DIMLFAC
 40
1
  9
$DIMTOFL
 70
    1
  9
$DIMTVP
 40
0
  9
$DIMTIX
 70
    0
  9
$DIMSOXD
 70
    0
  9
$DIMSAH
 70
    0
  9
$DIMBLK1
  1

  9
$DIMBLK2
  1

  9
$DIMSTYLE
  2
Standard
  9
$DIMCLRD
 70
    0
  9
$DIMCLRE
 70
    0
  9
$DIMCLRT
 70
    0
  9
$DIMTFAC
 40
1
  9
$DIMGAP
 40
9
  9
$DIMJUST
 70
    0
  9
$DIMSD1
 70
    0
  9
$DIMSD2
 70
    0
  9
$DIMTOLJ
 70
    0
  9
$DIMTZIN
 70
    8
  9
$DIMALTZ
 70
    0
  9
$DIMALTTZ
 70
    0
  9
$DIMUPT
 70
    0
  9
$DIMDEC
 70
    1
  9
$DIMTDEC
 70
    2
  9
$DIMALTU
 70
    2
  9
$DIMALTTD
 70
    3
  9
$DIMTXSTY
  7
standard
  9
$DIMAUNIT
 70
    0
  9
$DIMADEC
 70
    1
  9
$DIMALTRND
 40
0
  9
$DIMAZIN
 70
    0
  9
$DIMDSEP
 70
    0
  9
$DIMATFIT
 70
    3
  9
$DIMFRAC
 70
    0
  9
$DIMLDRBLK
  1
STANDARD
  9
$DIMLUNIT
 70
    2
  9
$DIMLWD
 70
   -2
  9
$DIMLWE
 70
   -2
  9
$DIMTMOVE
 70
    0
  9
$DIMFXL
 40
1
  9
$DIMFXLON
 70
    0
  9
$DIMJOGANG
 40
0.7854
  9
$DIMTFILL
 70
    0
  9
$DIMTFILLCLR
 70
    0
  9
$DIMARCSYM
 70
    0
  9
$DIMLTYPE
  6

  9
$DIMLTEX1
  6

  9
$DIMLTEX2
  6

  9
$LUNITS
 70
    2
  9
$LUPREC
 70
    4
  9
$SKETCHINC
 40
1
  9
$FILLETRAD
 40
0
  9
$AUNITS
 70
    0
  9
$AUPREC
 70
    2
  9
$MENU
  1
.
  9
$ELEVATION
 40
0
  9
$PELEVATION
 40
0
  9
$THICKNESS
 40
0
  9
$LIMCHECK
 70
    0
  9
$CHAMFERA
 40
0
  9
$CHAMFERB
 40
0
  9
$CHAMFERC
 40
0
  9
$CHAMFERD
 40
0
  9
$SKPOLY
 70
    0
  9
$USRTIMER
 70
    1
  9
$ANGBASE
 50
0
  9
$ANGDIR
 70
    0
  9
$PDMODE
 70
   34
  9
$PDSIZE
 40
0
  9
$PLINEWID
 40
0
  9
$SPLFRAME
 70
    0
  9
$SPLINETYPE
 70
    2
  9
$SPLINESEGS
 70
    8
  9
$HANDSEED
  5
20000
  9
$SURFTAB1
 70
    6
  9
$SURFTAB2
 70
    6
  9
$SURFTYPE
 70
    6
  9
$SURFU
 70
    6
  9
$SURFV
 70
    6
  9
$UCSBASE
  2

  9
$UCSNAME
  2

  9
$UCSORG
 10
0
 20
0
 30
0
  9
$UCSXDIR
 10
1
 20
0
 30
0
  9
$UCSYDIR
 10
0
 20
1
 30
0
  9
$UCSORTHOREF
  2

  9
$UCSORTHOVIEW
 70
    0
  9
$UCSORGTOP
 10
0
 20
0
 30
0
  9
$UCSORGBOTTOM
 10
0
 20
0
 30
0
  9
$UCSORGLEFT
 10
0
 20
0
 30
0
  9
$UCSORGRIGHT
 10
0
 20
0
 30
0
  9
$UCSORGFRONT
 10
0
 20
0
 30
0
  9
$UCSORGBACK
 10
0
 20
0
 30
0
  9
$PUCSBASE
  2

  9
$PUCSNAME
  2

  9
$PUCSORG
 10
0
 20
0
 30
0
  9
$PUCSXDIR
 10
1
 20
0
 30
0
  9
$PUCSYDIR
 10
0
 20
1
 30
0
  9
$PUCSORTHOREF
  2

  9
$PUCSORTHOVIEW
 70
    0
  9
$PUCSORGTOP
 10
0
 20
0
 30
0
  9
$PUCSORGBOTTOM
 10
0
 20
0
 30
0
  9
$PUCSORGLEFT
 10
0
 20
0
 30
0
  9
$PUCSORGRIGHT
 10
0
 20
0
 30
0
  9
$PUCSORGFRONT
 10
0
 20
0
 30
0
  9
$PUCSORGBACK
 10
0
 20
0
 30
0
  9
$USERI1
 70
    0
  9
$USERI2
 70
    0
  9
$USERI3
 70
    0
  9
$USERI4
 70
    0
  9
$USERI5
 70
    0
  9
$USERR1
 40
0
  9
$USERR2
 40
0
  9
$USERR3
 40
0
  9
$USERR4
 40
0
  9
$USERR5
 40
0
  9
$WORLDVIEW
 70
    1
  9
$SHADEDGE
 70
    3
  9
$SHADEDIF
 70
   70
  9
$TILEMODE
 70
    1
  9
$MAXACTVP
 70
   64
  9
$PINSBASE
 10
25.03313840755707
 20
45.1300545784532
 30
0
  9
$PLIMCHECK
 70
    0
  9
$PEXTMIN
 10
0
 20
0
 30
0
  9
$PEXTMAX
 10
0
 20
0
 30
0
  9
$GRIDMODE
 70
    1
  9
$SNAPSTYLE
 70
    0
  9
$GRIDUNIT
 10
0
 20
0
  9
$PLIMMIN
 10
0
 20
0
  9
$PLIMMAX
 10
297
 20
210
  9
$UNITMODE
 70
    0
  9
$VISRETAIN
 70
    1
  9
$PLINEGEN
 70
    0
  9
$PSLTSCALE
 70
    1
  9
$TREEDEPTH
 70
 3020
  9
$CMLSTYLE
  2
Standard
  9
$CMLJUST
 70
    0
  9
$CMLSCALE
 40
20
  9
$PROXYGRAPHICS
 70
    1
  9
$MEASUREMENT
 70
    1
  9
$CELWEIGHT
370
   -1
  9
$ENDCAPS
280
    0
  9
$JOINSTYLE
280
    0
  9
$LWDISPLAY
290
    0
  9
$INSUNITS
 70
    4
  9
$HYPERLINKBASE
  1

  9
$STYLESHEET
  1

  9
$XEDIT
290
    1
  9
$CEPSNTYPE
380
    0
  9
$PSTYLEMODE
290
    1
  9
$EXTNAMES
290
    1
  9
$PSVPSCALE
 40
0.1729987076996535
  9
$OLESTARTUP
290
    0
  9
$SORTENTS
280
  127
  9
$INDEXCTL
280
    0
  9
$HIDETEXT
280
    1
  9
$XCLIPFRAME
290
    0
  9
$HALOGAP
280
    0
  9
$OBSCOLOR
 70
  257
  9
$OBSLTYPE
280
    0
  9
$INTERSECTIONDISPLAY
280
    0
  9
$INTERSECTIONCOLOR
 70
  257
  9
$DIMASSOC
280
    1
  9
$PROJECTNAME
  1

  9
$CAMERADISPLAY
290
    0
  9
$LENSLENGTH
 40
50
  9
$CAMERAHEIGHT
 40
0
  9
$STEPSPERSEC
 40
2
  9
$STEPSIZE
 40
50
  9
$3DDWFPREC
 40
2
  9
$PSOLWIDTH
 40
5
  9
$PSOLHEIGHT
 40
80
  9
$LOFTANG1
 40
1.570796326794897
  9
$LOFTANG2
 40
1.570796326794897
  9
$LOFTMAG1
 40
0
  9
$LOFTMAG2
 40
0
  9
$LOFTPARAM
 70
    7
  9
$LOFTNORMALS
280
    1
  9
$LATITUDE
 40
1
  9
$LONGITUDE
 40
1
  9
$NORTHDIRECTION
 40
0
  9
$TIMEZONE
 70
-8000
  9
$LIGHTGLYPHDISPLAY
280
    1
  9
$TILEMODELIGHTSYNCH
280
    1
  9
$SOLIDHIST
280
    1
  9
$SHOWHIST
280
    1
  9
$DWFFRAME
280
    2
  9
$DGNFRAME
280
    0
  9
$REALWORLDSCALE
290
    1
  9
$INTERFERECOLOR
 62
    1
  9
$CSHADOW
280
    0
  9
$SHADOWPLANELOCATION
 40
0
  0
ENDSEC
  0
SECTION
  2
CLASSES
  0
ENDSEC
  0
SECTION
  2
TABLES
  0
TABLE
  2
VPORT
  5
8
330
0
100
AcDbSymbolTable
 70
    1
  0
VPORT
  5
31
330
2
100
AcDbSymbolTableRecord
100
AcDbViewportTableRecord
  2
*ACTIVE
 70
    0
 10
0
 20
0
 11
1
 21
1
 12
854.211527837798
 22
442.0107785442276
 13
0
 23
0
 14
10
 24
10
 15
10
 25
10
 16
0
 26
0
 36
1
 17
0
 27
0
 37
0
 40
1073.16105302366
 41
1.852490421455939
 42
50
 43
0
 44
0
 50
0
 51
0
 71
    0
 72
  100
 73
    1
 74
    3
 75
    0
 76
    1
 77
    0
 78
    0
281
    0
 65
    1
110
0
120
0
130
0
111
1
121
0
131
0
112
0
122
1
132
0
 79
    0
146
0
348
10020
 60
    7
 61
    5
292
1
282
    1
141
0
142
0
 63
  250
421
3358443
  0
ENDTAB
  0
TABLE
  2
LTYPE
  5
5
330
0
100
AcDbSymbolTable
 70
    4
  0
LTYPE
  5
14
330
5
100
AcDbSymbolTableRecord
100
AcDbLinetypeTableRecord
  2
ByBlock
 70
    0
  3

 72
   65
 73
    0
 40
0
  0
LTYPE
  5
15
330
5
100
AcDbSymbolTableRecord
100
AcDbLinetypeTableRecord
  2
ByLayer
 70
    0
  3

 72
   65
 73
    0
 40
0
  0
LTYPE
  5
16
330
5
100
AcDbSymbolTableRecord
100
AcDbLinetypeTableRecord
  2
Continuous
 70
    0
  3
Solid line
 72
   65
 73
    0
 40
0
  0
LTYPE
  5
32
330
5
100
AcDbSymbolTableRecord
100
AcDbLinetypeTableRecord
  2
DOT
 70
    0
  3
Dot . . . . . . . . . . . . . . . . . . . . . .
 72
   65
 73
    2
 40
6.35
 49
0
 74
    0
 49
-6.35
 74
    0
  0
LTYPE
  5
33
330
5
100
AcDbSymbolTableRecord
100
AcDbLinetypeTableRecord
  2
DOTTINY
 70
    0
  3
Dot (.15x) .....................................
 72
   65
 73
    2
 40
0.9525
 49
0
 74
    0
 49
-0.9525
 74
    0
  0
LTYPE
  5
34
330
5
100
AcDbSymbolTableRecord
100
AcDbLinetypeTableRecord
  2
DOT2
 70
    0
  3
Dot (.5x) .....................................
 72
   65
 73
    2
 40
3.175
 49
0
 74
    0
 49
-3.175
 74
    0
  0
LTYPE
  5
35
330
5
100
AcDbSymbolTableRecord
100
AcDbLinetypeTableRecord
  2
DOTX2
 70
    0
  3
Dot (2x) .  .  .  .  .  .  .  .  .  .  .  .  .
 72
   65
 73
    2
 40
12.7
 49
0
 74
    0
 49
-12.7
 74
    0
  0
LTYPE
  5
36
330
5
100
AcDbSymbolTableRecord
100
AcDbLinetypeTableRecord
  2
DASHED
 70
    0
  3
Dashed _ _ _ _ _ _ _ _ _ _ _ _ _ _ _ _ _
 72
   65
 73
    2
 40
19.05
 49
12.7
 74
    0
 49
-6.35
 74
    0
  0
LTYPE
  5
37
330
5
100
AcDbSymbolTableRecord
100
AcDbLinetypeTableRecord
  2
DASHEDTINY
 70
    0
  3
Dashed (.15x) _ _ _ _ _ _ _ _ _ _ _ _ _ _ _ _ _
 72
   65
 73
    2
 40
2.8575
 49
1.905
 74
    0
 49
-0.9525
 74
    0
  0
LTYPE
  5
38
330
5
100
AcDbSymbolTableRecord
100
AcDbLinetypeTableRecord
  2
DASHED2
 70
    0
  3
Dashed (.5x) _ _ _ _ _ _ _ _ _ _ _ _ _ _ _ _ _
 72
   65
 73
    2
 40
9.524999999999999
 49
6.35
 74
    0
 49
-3.175
 74
    0
  0
LTYPE
  5
39
330
5
100
AcDbSymbolTableRecord
100
AcDbLinetypeTableRecord
  2
DASHEDX2
 70
    0
  3
Dashed (2x) ____  ____  ____  ____  ____  ___
 72
   65
 73
    2
 40
38.09999999999999
 49
25.4
 74
    0
 49
-12.7
 74
    0
  0
LTYPE
  5
3A
330
5
100
AcDbSymbolTableRecord
100
AcDbLinetypeTableRecord
  2
DASHDOT
 70
    0
  3
Dash dot __ . __ . __ . __ . __ . __ . __ . __
 72
   65
 73
    4
 40
25.4
 49
12.7
 74
    0
 49
-6.35
 74
    0
 49
0
 74
    0
 49
-6.35
 74
    0
  0
LTYPE
  5
3B
330
5
100
AcDbSymbolTableRecord
100
AcDbLinetypeTableRecord
  2
DASHDOTTINY
 70
    0
  3
Dash dot (.15x) _._._._._._._._._._._._._._._.
 72
   65
 73
    4
 40
3.81
 49
1.905
 74
    0
 49
-0.9525
 74
    0
 49
0
 74
    0
 49
-0.9525
 74
    0
  0
LTYPE
  5
3C
330
5
100
AcDbSymbolTableRecord
100
AcDbLinetypeTableRecord
  2
DASHDOT2
 70
    0
  3
Dash dot (.5x) _._._._._._._._._._._._._._._.
 72
   65
 73
    4
 40
12.7
 49
6.35
 74
    0
 49
-3.175
 74
    0
 49
0
 74
    0
 49
-3.175
 74
    0
  0
LTYPE
  5
3D
330
5
100
AcDbSymbolTableRecord
100
AcDbLinetypeTableRecord
  2
DASHDOTX2
 70
    0
  3
Dash dot (2x) ____  .  ____  .  ____  .  ___
 72
   65
 73
    4
 40
50.8
 49
25.4
 74
    0
 49
-12.7
 74
    0
 49
0
 74
    0
 49
-12.7
 74
    0
  0
LTYPE
  5
3E
330
5
100
AcDbSymbolTableRecord
100
AcDbLinetypeTableRecord
  2
DIVIDE
 70
    0
  3
Divide ____ . . ____ . . ____ . . ____ . . ____
 72
   65
 73
    6
 40
31.75
 49
12.7
 74
    0
 49
-6.35
 74
    0
 49
0
 74
    0
 49
-6.35
 74
    0
 49
0
 74
    0
 49
-6.35
 74
    0
  0
LTYPE
  5
3F
330
5
100
AcDbSymbolTableRecord
100
AcDbLinetypeTableRecord
  2
DIVIDETINY
 70
    0
  3
Divide (.15x) __..__..__..__..__..__..__..__.._
 72
   65
 73
    6
 40
4.7625
 49
1.905
 74
    0
 49
-0.9525
 74
    0
 49
0
 74
    0
 49
-0.9525
 74
    0
 49
0
 74
    0
 49
-0.9525
 74
    0
  0
LTYPE
  5
40
330
5
100
AcDbSymbolTableRecord
100
AcDbLinetypeTableRecord
  2
DIVIDE2
 70
    0
  3
Divide (.5x) __..__..__..__..__..__..__..__.._
 72
   65
 73
    6
 40
15.875
 49
6.35
 74
    0
 49
-3.175
 74
    0
 49
0
 74
    0
 49
-3.175
 74
    0
 49
0
 74
    0
 49
-3.175
 74
    0
  0
LTYPE
  5
41
330
5
100
AcDbSymbolTableRecord
100
AcDbLinetypeTableRecord
  2
DIVIDEX2
 70
    0
  3
Divide (2x) ________  .  .  ________  .  .  _
 72
   65
 73
    6
 40
63.5
 49
25.4
 74
    0
 49
-12.7
 74
    0
 49
0
 74
    0
 49
-12.7
 74
    0
 49
0
 74
    0
 49
-12.7
 74
    0
  0
LTYPE
  5
42
330
5
100
AcDbSymbolTableRecord
100
AcDbLinetypeTableRecord
  2
BORDER
 70
    0
  3
Border __ __ . __ __ . __ __ . __ __ . __ __ .
 72
   65
 73
    6
 40
44.45
 49
12.7
 74
    0
 49
-6.35
 74
    0
 49
12.7
 74
    0
 49
-6.35
 74
    0
 49
0
 74
    0
 49
-6.35
 74
    0
  0
LTYPE
  5
43
330
5
100
AcDbSymbolTableRecord
100
AcDbLinetypeTableRecord
  2
BORDERTINY
 70
    0
  3
Border (.15x) __.__.__.__.__.__.__.__.__.__.__.
 72
   65
 73
    6
 40
6.6675
 49
1.905
 74
    0
 49
-0.9525
 74
    0
 49
1.905
 74
    0
 49
-0.9525
 74
    0
 49
0
 74
    0
 49
-0.9525
 74
    0
  0
LTYPE
  5
44
330
5
100
AcDbSymbolTableRecord
100
AcDbLinetypeTableRecord
  2
BORDER2
 70
    0
  3
Border (.5x) __.__.__.__.__.__.__.__.__.__.__.
 72
   65
 73
    6
 40
22.225
 49
6.35
 74
    0
 49
-3.175
 74
    0
 49
6.35
 74
    0
 49
-3.175
 74
    0
 49
0
 74
    0
 49
-3.175
 74
    0
  0
LTYPE
  5
45
330
5
100
AcDbSymbolTableRecord
100
AcDbLinetypeTableRecord
  2
BORDERX2
 70
    0
  3
Border (2x) ____  ____  .  ____  ____  .  ___
 72
   65
 73
    6
 40
88.89999999999999
 49
25.4
 74
    0
 49
-12.7
 74
    0
 49
25.4
 74
    0
 49
-12.7
 74
    0
 49
0
 74
    0
 49
-12.7
 74
    0
  0
LTYPE
  5
46
330
5
100
AcDbSymbolTableRecord
100
AcDbLinetypeTableRecord
  2
CENTER
 70
    0
  3
Center ____ _ ____ _ ____ _ ____ _ ____ _ ____
 72
   65
 73
    4
 40
50.8
 49
31.75
 74
    0
 49
-6.35
 74
    0
 49
6.35
 74
    0
 49
-6.35
 74
    0
  0
LTYPE
  5
47
330
5
100
AcDbSymbolTableRecord
100
AcDbLinetypeTableRecord
  2
CENTERTINY
 70
    0
  3
Center (.15x) ___ _ ___ _ ___ _ ___ _ ___ _ ___
 72
   65
 73
    4
 40
7.62
 49
4.7625
 74
    0
 49
-0.9525
 74
    0
 49
0.9525
 74
    0
 49
-0.9525
 74
    0
  0
LTYPE
  5
48
330
5
100
AcDbSymbolTableRecord
100
AcDbLinetypeTableRecord
  2
CENTER2
 70
    0
  3
Center (.5x) ___ _ ___ _ ___ _ ___ _ ___ _ ___
 72
   65
 73
    4
 40
28.575
 49
19.05
 74
    0
 49
-3.175
 74
    0
 49
3.175
 74
    0
 49
-3.175
 74
    0
  0
LTYPE
  5
49
330
5
100
AcDbSymbolTableRecord
100
AcDbLinetypeTableRecord
  2
CENTERX2
 70
    0
  3
Center (2x) ________  __  ________  __  _____
 72
   65
 73
    4
 40
101.6
 49
63.5
 74
    0
 49
-12.7
 74
    0
 49
12.7
 74
    0
 49
-12.7
 74
    0
  0
ENDTAB
  0
TABLE
  2
LAYER
  5
2
330
0
100
AcDbSymbolTable
 70
    1
  0
LAYER
  5
10
330
2
100
AcDbSymbolTableRecord
100
AcDbLayerTableRecord
  2
0
 70
    0
 62
    7
  6
CONTINUOUS
370
    0
390
F
  0
LAYER
  5
4A
330
2
100
AcDbSymbolTableRecord
100
AcDbLayerTableRecord
  2
Askelmat
 70
    0
 62
    3
  6
CONTINUOUS
370
   13
390
F
  0
LAYER
  5
4B
330
2
100
AcDbSymbolTableRecord
100
AcDbLayerTableRecord
  2
Mitat
 70
    0
 62
    7
  6
CONTINUOUS
370
   25
390
F
  0
LAYER
  5
4C
330
2
100
AcDbSymbolTableRecord
100
AcDbLayerTableRecord
  2
Poikittaistuki
 70
    0
 62
    2
  6
CONTINUOUS
370
   13
390
F
  0
LAYER
  5
4D
330
2
100
AcDbSymbolTableRecord
100
AcDbLayerTableRecord
  2
Runko
 70
    0
 62
    7
  6
CONTINUOUS
370
   13
390
F
  0
LAYER
  5
4E
330
2
100
AcDbSymbolTableRecord
100
AcDbLayerTableRecord
  2
Selkänoja
 70
    0
 62
    6
  6
CONTINUOUS
370
   13
390
F
  0
LAYER
  5
4F
330
2
100
AcDbSymbolTableRecord
100
AcDbLayerTableRecord
  2
Vaakatuet
 70
    0
 62
    4
  6
CONTINUOUS
370
   13
390
F
  0
ENDTAB
  0
TABLE
  2
STYLE
  5
3
330
0
100
AcDbSymbolTable
 70
    3
  0
STYLE
  5
50
330
2
100
AcDbSymbolTableRecord
100
AcDbTextStyleTableRecord
  2
Standard
 70
    0
 40
0
 41
1
 50
0
 71
    0
 42
1
  3
txt
  4

  0
ENDTAB
  0
TABLE
  2
VIEW
  5
6
330
0
100
AcDbSymbolTable
 70
    0
  0
ENDTAB
  0
TABLE
  2
UCS
  5
7
330
0
100
AcDbSymbolTable
 70
    0
  0
ENDTAB
  0
TABLE
  2
APPID
  5
9
330
0
100
AcDbSymbolTable
 70
    1
  0
APPID
  5
12
330
9
100
AcDbSymbolTableRecord
100
AcDbRegAppTableRecord
  2
ACAD
 70
    0
  0
APPID
  5
51
330
9
100
AcDbSymbolTableRecord
100
AcDbRegAppTableRecord
  2
LibreCad
 70
    0
  0
ENDTAB
  0
TABLE
  2
DIMSTYLE
  5
A
330
0
100
AcDbSymbolTable
 70
    1
100
AcDbDimStyleTable
 71
    1
  0
DIMSTYLE
105
52
330
A
100
AcDbSymbolTableRecord
100
AcDbDimStyleTableRecord
  2
Standard
 70
    0
 40
1
 41
20
 42
9
 43
0.38
 44
15
 45
0
 46
0
 47
0
 48
0
 49
1
140
20
141
0.09
142
0
143
25.4
144
1
145
0
146
1
147
9
148
0
 71
    0
 72
    0
 73
    0
 74
    1
 75
    0
 76
    0
 77
    0
 78
    1
 79
    0
170
    0
171
    2
172
    0
173
    0
174
    0
175
    0
176
    0
177
    0
178
    0
179
    1
271
    1
272
    4
273
    2
274
    2
275
    0
276
    0
277
    2
278
    0
279
    0
280
    0
281
    0
282
    0
283
    1
284
    0
285
    0
286
    0
288
    0
289
    3
340
standard
341

371
   -2
372
   -2
  0
ENDTAB
  0
TABLE
  2
BLOCK_RECORD
  5
1
330
0
100
AcDbSymbolTable
 70
    2
  0
BLOCK_RECORD
  5
1F
330
1
100
AcDbSymbolTableRecord
100
AcDbBlockTableRecord
  2
*Model_Space
 70
    0
280
    1
281
    0
  0
BLOCK_RECORD
  5
1E
330
1
100
AcDbSymbolTableRecord
100
AcDbBlockTableRecord
  2
*Paper_Space
 70
    0
280
    1
281
    0
  0
BLOCK_RECORD
  5
53
330
1
100
AcDbSymbolTableRecord
100
AcDbBlockTableRecord
  2
*D9
 70
    0
280
    1
281
    0
  0
BLOCK_RECORD
  5
56
330
1
100
AcDbSymbolTableRecord
100
AcDbBlockTableRecord
  2
*D2
 70
    0
280
    1
281
    0
  0
BLOCK_RECORD
  5
59
330
1
100
AcDbSymbolTableRecord
100
AcDbBlockTableRecord
  2
*D7
 70
    0
280
    1
281
    0
  0
BLOCK_RECORD
  5
5C
330
1
100
AcDbSymbolTableRecord
100
AcDbBlockTableRecord
  2
*D4
 70
    0
280
    1
281
    0
  0
BLOCK_RECORD
  5
5F
330
1
100
AcDbSymbolTableRecord
100
AcDbBlockTableRecord
  2
*D5
 70
    0
280
    1
281
    0
  0
BLOCK_RECORD
  5
62
330
1
100
AcDbSymbolTableRecord
100
AcDbBlockTableRecord
  2
*D1
 70
    0
280
    1
281
    0
  0
BLOCK_RECORD
  5
65
330
1
100
AcDbSymbolTableRecord
100
AcDbBlockTableRecord
  2
*D6
 70
    0
280
    1
281
    0
  0
BLOCK_RECORD
  5
68
330
1
100
AcDbSymbolTableRecord
100
AcDbBlockTableRecord
  2
*D8
 70
    0
280
    1
281
    0
  0
BLOCK_RECORD
  5
6B
330
1
100
AcDbSymbolTableRecord
100
AcDbBlockTableRecord
  2
*D3
 70
    0
280
    1
281
    0
  0
BLOCK_RECORD
  5
6E
330
1
100
AcDbSymbolTableRecord
100
AcDbBlockTableRecord
  2
*D10
 70
    0
280
    1
281
    0
  0
ENDTAB
  0
ENDSEC
  0
SECTION
  2
BLOCKS
  0
BLOCK
  5
20
330
1F
100
AcDbEntity
  8
0
100
AcDbBlockBegin
  2
*Model_Space
 70
    0
 10
0
 20
0
 30
0
  3
*Model_Space
  1

  0
ENDBLK
  5
21
330
1F
100
AcDbEntity
  8
0
100
AcDbBlockEnd
  0
BLOCK
  5
1C
330
1B
100
AcDbEntity
  8
0
100
AcDbBlockBegin
  2
*Paper_Space
 70
    0
 10
0
 20
0
 30
0
  3
*Paper_Space
  1

  0
ENDBLK
  5
1D
330
1F
100
AcDbEntity
  8
0
100
AcDbBlockEnd
  0
BLOCK
  5
54
330
53
100
AcDbEntity
  8
0
100
AcDbBlockBegin
  2
*D9
 70
    1
 10
0
 20
0
  3
*D9
  1

  0
SOLID
  5
71
100
AcDbEntity
  8
Mitat
  6
ByBlock
 62
    0
370
   -2
100
AcDbTrace
 10
755.1826832892972
 20
391.9641718284988
 30
0
 11
768.9415063520712
 21
406.8566375266391
 31
0
 12
773.0249121888885
 22
401.5946242860732
 32
0
 13
773.0249121888885
 23
401.5946242860732
 33
0
  0
LINE
  5
72
100
AcDbEntity
  8
Mitat
  6
ByBlock
 62
    0
370
   -2
100
AcDbLine
 10
925.8572098815619
 20
524.4103148199418
 11
755.1826832892972
 21
391.9641718284988
  0
MTEXT
  5
73
100
AcDbEntity
  8
Mitat
  6
CONTINUOUS
 62
    0
370
   -2
100
AcDbMText
 10
828.871560461465
 20
473.1977430063438
 30
0
 40
20
 41
57.77777777777902
 71
    5
 72
    1
  1
216.0
  7
standard
210
0
220
0
230
1
 50
37.8120307504744
 73
    2
 44
1
  0
ENDBLK
  5
55
330
53
100
AcDbEntity
  8
0
100
AcDbBlockEnd
  0
BLOCK
  5
57
330
56
100
AcDbEntity
  8
0
100
AcDbBlockBegin
  2
*D2
 70
    1
 10
0
 20
0
  3
*D2
  1

  0
LINE
  5
74
100
AcDbEntity
  8
Mitat
  6
ByBlock
 62
    0
370
   -2
100
AcDbLine
 10
74.0416566661977
 20
0.8914502712542146
 11
-72.44648055162725
 21
15.47280917156257
  0
LINE
  5
75
100
AcDbEntity
  8
Mitat
  6
ByBlock
 62
    0
370
   -2
100
AcDbLine
 10
142.142214865471
 20
685.047432049792
 11
-4.345922352353904
 21
699.6287909501002
  0
LINE
  5
76
100
AcDbEntity
  8
Mitat
  6
ByBlock
 62
    0
370
   -2
100
AcDbLine
 10
-57.52024373204966
 20
13.98705871947221
 11
10.58031446722367
 21
698.1430404980099
  0
SOLID
  5
77
100
AcDbEntity
  8
Mitat
  6
ByBlock
 62
    0
370
   -2
100
AcDbTrace
 10
-57.52024373204966
 20
13.98705871947221
 30
0
 11
-58.85314360194211
 21
34.21857187543392
 31
0
 12
-52.22534265658293
 22
33.55884374905069
 32
0
 13
-52.22534265658293
 23
33.55884374905069
 33
0
  0
SOLID
  5
78
100
AcDbEntity
  8
Mitat
  6
ByBlock
 62
    0
370
   -2
100
AcDbTrace
 10
10.58031446722367
 20
698.1430404980099
 30
0
 11
11.91321433711612
 21
677.9115273420482
 31
0
 12
5.285413391756954
 22
678.5712554684314
 32
0
 13
5.285413391756954
 23
678.5712554684314
 33
0
  0
MTEXT
  5
79
100
AcDbEntity
  8
Mitat
  6
CONTINUOUS
 62
    0
370
   -2
100
AcDbMText
 10
-42.37653127054459
 20
357.9470001813888
 30
0
 40
20
 41
62.2222222222247
 71
    5
 72
    1
  1
687.5
  7
standard
210
0
220
0
230
1
 50
84.31553037497066
 73
    2
 44
1
  0
ENDBLK
  5
58
330
56
100
AcDbEntity
  8
0
100
AcDbBlockEnd
  0
BLOCK
  5
5A
330
59
100
AcDbEntity
  8
0
100
AcDbBlockBegin
  2
*D7
 70
    1
 10
0
 20
0
  3
*D7
  1

  0
LINE
  5
7A
100
AcDbEntity
  8
Mitat
  6
ByBlock
 62
    0
370
   -2
100
AcDbLine
 10
1431.72922149411
 20
666.3933736230359
 11
1273.6907124172
 21
666.3933736230359
  0
LINE
  5
7B
100
AcDbEntity
  8
Mitat
  6
ByBlock
 62
    0
370
   -2
100
AcDbLine
 10
1080.509034735748
 20
704.1216336395996
 11
1094.067949388869
 21
862.0937708838777
  0
ARC
  5
7C
100
AcDbEntity
  8
Mitat
  6
ByBlock
 62
    0
370
   -2
100
AcDbCircle
 10
1077.27077850589
 20
666.3933736230359
 40
181.4199339113098
100
AcDbArc
 50
0
 51
85.09426621735294
  0
SOLID
  5
7D
100
AcDbEntity
  8
Mitat
  6
ByBlock
 62
    0
370
   -2
100
AcDbTrace
 10
1258.6907124172
 20
666.3933736230359
 30
0
 11
1254.263636527083
 21
686.1795239738788
 31
0
 12
1260.914075247099
 22
686.5464727487197
 32
0
 13
1260.914075247099
 23
686.5464727487197
 33
0
  0
SOLID
  5
7E
100
AcDbEntity
  8
Mitat
  6
ByBlock
 62
    0
370
   -2
100
AcDbTrace
 10
1092.785199933518
 20
847.1487197352601
 30
0
 11
1113.054607579892
 21
847.6405126877725
 31
0
 12
1112.120279922901
 22
841.0458164550846
 32
0
 13
1112.120279922901
 23
841.0458164550846
 33
0
  0
MTEXT
  5
7F
100
AcDbEntity
  8
Mitat
  6
CONTINUOUS
 62
    0
370
   -2
100
AcDbMText
 10
1217.557205100939
 20
795.1546633959307
 30
0
 40
20
 41
55.55555555555681
 71
    8
 72
    1
  1
85.1%%D
  7
standard
210
0
220
0
230
1
 50
312.5471331086765
 73
    2
 44
1
  0
ENDBLK
  5
5B
330
59
100
AcDbEntity
  8
0
100
AcDbBlockEnd
  0
BLOCK
  5
5D
330
5C
100
AcDbEntity
  8
0
100
AcDbBlockBegin
  2
*D4
 70
    1
 10
0
 20
0
  3
*D4
  1

  0
LINE
  5
80
100
AcDbEntity
  8
Mitat
  6
ByBlock
 62
    0
370
   -2
100
AcDbLine
 10
58.410613445271
 20
396.3306272928926
 11
58.41061344527091
 21
-65.00000000000006
  0
LINE
  5
81
100
AcDbEntity
  8
Mitat
  6
ByBlock
 62
    0
370
   -2
100
AcDbLine
 10
323.3166363451463
 20
396.3306272928926
 11
323.3166363451463
 21
-65.00000000000006
  0
LINE
  5
82
100
AcDbEntity
  8
Mitat
  6
ByBlock
 62
    0
370
   -2
100
AcDbLine
 10
58.41061344527091
 20
-50.00000000000006
 11
323.3166363451463
 21
-50.00000000000006
  0
SOLID
  5
83
100
AcDbEntity
  8
Mitat
  6
ByBlock
 62
    0
370
   -2
100
AcDbTrace
 10
58.41061344527091
 20
-50.00000000000006
 30
0
 11
78.41061344527091
 21
-46.66972273781734
 31
0
 12
78.41061344527091
 22
-53.33027726218278
 32
0
 13
78.41061344527091
 23
-53.33027726218278
 33
0
  0
SOLID
  5
84
100
AcDbEntity
  8
Mitat
  6
ByBlock
 62
    0
370
   -2
100
AcDbTrace
 10
323.3166363451463
 20
-50.00000000000006
 30
0
 11
303.3166363451463
 21
-53.33027726218278
 31
0
 12
303.3166363451463
 22
-46.66972273781733
 32
0
 13
303.3166363451463
 23
-46.66972273781733
 33
0
  0
MTEXT
  5
85
100
AcDbEntity
  8
Mitat
  6
CONTINUOUS
 62
    0
370
   -2
100
AcDbMText
 10
190.8636248952086
 20
-31.00000000000006
 30
0
 40
20
 41
64.44444444444571
 71
    5
 72
    1
  1
264.9
  7
standard
210
0
220
0
230
1
 50
0
 73
    2
 44
1
  0
ENDBLK
  5
5E
330
5C
100
AcDbEntity
  8
0
100
AcDbBlockEnd
  0
BLOCK
  5
60
330
5F
100
AcDbEntity
  8
0
100
AcDbBlockBegin
  2
*D5
 70
    1
 10
0
 20
0
  3
*D5
  1

  0
LINE
  5
86
100
AcDbEntity
  8
Mitat
  6
ByBlock
 62
    0
370
   -2
100
AcDbLine
 10
1056.588431325455
 20
300
 11
1443.411568674545
 21
300
  0
SOLID
  5
87
100
AcDbEntity
  8
Mitat
  6
ByBlock
 62
    0
370
   -2
100
AcDbTrace
 10
1056.588431325455
 20
300
 30
0
 11
1076.588431325455
 21
303.3302772621827
 31
0
 12
1076.588431325455
 22
296.6697227378173
 32
0
 13
1076.588431325455
 23
296.6697227378173
 33
0
  0
SOLID
  5
88
100
AcDbEntity
  8
Mitat
  6
ByBlock
 62
    0
370
   -2
100
AcDbTrace
 10
1443.411568674545
 20
300
 30
0
 11
1423.411568674545
 21
296.6697227378173
 31
0
 12
1423.411568674545
 22
303.3302772621827
 32
0
 13
1423.411568674545
 23
303.3302772621827
 33
0
  0
MTEXT
  5
89
100
AcDbEntity
  8
Mitat
  6
CONTINUOUS
 62
    0
370
   -2
100
AcDbMText
 10
1250
 20
319
 30
0
 40
20
 41
62.2222222222247
 71
    5
 72
    1
  1
386.8
  7
standard
210
0
220
0
230
1
 50
0
 73
    2
 44
1
  0
LINE
  5
8A
100
AcDbEntity
  8
Mitat
  6
ByBlock
 62
    0
370
   -2
100
AcDbLine
 10
1056.588431325455
 20
416.4275831517834
 11
1056.588431325455
 21
285
  0
LINE
  5
8B
100
AcDbEntity
  8
Mitat
  6
ByBlock
 62
    0
370
   -2
100
AcDbLine
 10
1443.411568674545
 20
416.4275831517834
 11
1443.411568674545
 21
285
  0
ENDBLK
  5
61
330
5F
100
AcDbEntity
  8
0
100
AcDbBlockEnd
  0
BLOCK
  5
63
330
62
100
AcDbEntity
  8
0
100
AcDbBlockBegin
  2
*D1
 70
    1
 10
0
 20
0
  3
*D1
  1

  0
LINE
  5
8C
100
AcDbEntity
  8
Mitat
  6
ByBlock
 62
    0
370
   -2
100
AcDbLine
 10
397.780270850902
 20
3.692099997067835
 11
607.3331548071984
 21
97.95460749439505
  0
LINE
  5
8D
100
AcDbEntity
  8
Mitat
  6
ByBlock
 62
    0
370
   -2
100
AcDbLine
 10
183.5658349643258
 20
479.9074481446442
 11
393.1187189206224
 21
574.1699556419715
  0
LINE
  5
8E
100
AcDbEntity
  8
Mitat
  6
ByBlock
 62
    0
370
   -2
100
AcDbLine
 10
593.6534458260051
 20
91.801107499282
 11
379.439009939429
 21
568.0164556468584
  0
SOLID
  5
8F
100
AcDbEntity
  8
Mitat
  6
ByBlock
 62
    0
370
   -2
100
AcDbTrace
 10
593.6534458260051
 20
91.801107499282
 30
0
 11
582.4116309142979
 21
108.6745287331021
 31
0
 12
588.4859274174106
 22
111.406910215311
 32
0
 13
588.4859274174106
 23
111.406910215311
 33
0
  0
SOLID
  5
90
100
AcDbEntity
  8
Mitat
  6
ByBlock
 62
    0
370
   -2
100
AcDbTrace
 10
379.439009939429
 20
568.0164556468584
 30
0
 11
390.680824851136
 21
551.1430344130383
 31
0
 12
384.6065283480233
 22
548.4106529308294
 32
0
 13
384.6065283480233
 23
548.4106529308294
 33
0
  0
MTEXT
  5
91
100
AcDbEntity
  8
Mitat
  6
CONTINUOUS
 62
    0
370
   -2
100
AcDbMText
 10
503.8738592588953
 20
337.7032149002134
 30
0
 40
20
 41
62.22222222222346
 71
    5
 72
    1
  1
522.2
  7
standard
210
0
220
0
230
1
 50
294.2194932574494
 73
    2
 44
1
  0
ENDBLK
  5
64
330
62
100
AcDbEntity
  8
0
100
AcDbBlockEnd
  0
BLOCK
  5
66
330
65
100
AcDbEntity
  8
0
100
AcDbBlockBegin
  2
*D6
 70
    1
 10
0
 20
0
  3
*D6
  1

  0
LINE
  5
92
100
AcDbEntity
  8
Mitat
  6
ByBlock
 62
    0
370
   -2
100
AcDbLine
 10
1037.705599987459
 20
80.00000000000001
 11
1462.294400012541
 21
80.00000000000001
  0
SOLID
  5
93
100
AcDbEntity
  8
Mitat
  6
ByBlock
 62
    0
370
   -2
100
AcDbTrace
 10
1037.705599987459
 20
80.00000000000001
 30
0
 11
1057.705599987459
 21
83.33027726218273
 31
0
 12
1057.705599987459
 22
76.66972273781728
 32
0
 13
1057.705599987459
 23
76.66972273781728
 33
0
  0
SOLID
  5
94
100
AcDbEntity
  8
Mitat
  6
ByBlock
 62
    0
370
   -2
100
AcDbTrace
 10
1462.294400012541
 20
80.00000000000001
 30
0
 11
1442.294400012541
 21
76.6697227378173
 31
0
 12
1442.294400012541
 22
83.33027726218273
 32
0
 13
1442.294400012541
 23
83.33027726218273
 33
0
  0
MTEXT
  5
95
100
AcDbEntity
  8
Mitat
  6
CONTINUOUS
 62
    0
370
   -2
100
AcDbMText
 10
1250
 20
99.00000000000001
 30
0
 40
20
 41
66.66666666666791
 71
    5
 72
    1
  1
424.6
  7
standard
210
0
220
0
230
1
 50
0
 73
    2
 44
1
  0
LINE
  5
96
100
AcDbEntity
  8
Mitat
  6
ByBlock
 62
    0
370
   -2
100
AcDbLine
 10
1037.705599987459
 20
196.4275831517834
 11
1037.705599987459
 21
65.00000000000001
  0
LINE
  5
97
100
AcDbEntity
  8
Mitat
  6
ByBlock
 62
    0
370
   -2
100
AcDbLine
 10
1462.294400012541
 20
196.4275831517834
 11
1462.294400012541
 21
65.00000000000001
  0
ENDBLK
  5
67
330
65
100
AcDbEntity
  8
0
100
AcDbBlockEnd
  0
BLOCK
  5
69
330
68
100
AcDbEntity
  8
0
100
AcDbBlockBegin
  2
*D8
 70
    1
 10
0
 20
0
  3
*D8
  1

  0
LINE
  5
98
100
AcDbEntity
  8
Mitat
  6
ByBlock
 62
    0
370
   -2
100
AcDbLine
 10
654.1777674414534
 20
348.8206296398837
 11
654.1777674414534
 21
700
  0
SOLID
  5
99
100
AcDbEntity
  8
Mitat
  6
ByBlock
 62
    0
370
   -2
100
AcDbTrace
 10
654.1777674414534
 20
348.8206296398837
 30
0
 11
650.8474901792707
 21
368.8206296398837
 31
0
 12
657.5080447036361
 22
368.8206296398837
 32
0
 13
657.5080447036361
 23
368.8206296398837
 33
0
  0
SOLID
  5
9A
100
AcDbEntity
  8
Mitat
  6
ByBlock
 62
    0
370
   -2
100
AcDbTrace
 10
654.1777674414534
 20
700
 30
0
 11
657.5080447036361
 21
680
 31
0
 12
650.8474901792707
 22
680
 32
0
 13
650.8474901792707
 23
680
 33
0
  0
MTEXT
  5
9B
100
AcDbEntity
  8
Mitat
  6
CONTINUOUS
 62
    0
370
   -2
100
AcDbMText
 10
635.1777674414534
 20
524.4103148199418
 30
0
 40
20
 41
57.77777777778026
 71
    5
 72
    1
  1
351.2
  7
standard
210
0
220
0
230
1
 50
90
 73
    2
 44
1
  0
LINE
  5
9C
100
AcDbEntity
  8
Mitat
  6
ByBlock
 62
    0
370
   -2
100
AcDbLine
 10
720.820697178724
 20
348.8206296398837
 11
639.1777674414534
 21
348.8206296398837
  0
LINE
  5
9D
100
AcDbEntity
  8
Mitat
  6
ByBlock
 62
    0
370
   -2
100
AcDbLine
 10
720.820697178724
 20
700
 11
639.1777674414534
 21
700
  0
ENDBLK
  5
6A
330
68
100
AcDbEntity
  8
0
100
AcDbBlockEnd
  0
BLOCK
  5
6C
330
6B
100
AcDbEntity
  8
0
100
AcDbBlockBegin
  2
*D3
 70
    1
 10
0
 20
0
  3
*D3
  1

  0
LINE
  5
9E
100
AcDbEntity
  8
Mitat
  6
ByBlock
 62
    0
370
   -2
100
AcDbLine
 10
24.65154929124913
 20
124.5425066712585
 11
61.47490204401096
 21
-169.9500004147374
  0
LINE
  5
9F
100
AcDbEntity
  8
Mitat
  6
ByBlock
 62
    0
370
   -2
100
AcDbLine
 10
420.1726277605359
 20
173.9984753060544
 11
456.9959805132977
 21
-120.4940317799415
  0
LINE
  5
A0
100
AcDbEntity
  8
Mitat
  6
ByBlock
 62
    0
370
   -2
100
AcDbLine
 10
59.61379434121442
 20
-155.0659056112705
 11
455.1348728105012
 21
-105.6099369764746
  0
SOLID
  5
A1
100
AcDbEntity
  8
Mitat
  6
ByBlock
 62
    0
370
   -2
100
AcDbTrace
 10
59.61379434121442
 20
-155.0659056112705
 30
0
 11
79.0460537681639
 21
-149.2798845080645
 31
0
 12
79.87245439017676
 22
-155.8889728403523
 32
0
 13
79.87245439017676
 23
-155.8889728403523
 33
0
  0
SOLID
  5
A2
100
AcDbEntity
  8
Mitat
  6
ByBlock
 62
    0
370
   -2
100
AcDbTrace
 10
455.1348728105012
 20
-105.6099369764746
 30
0
 11
435.7026133835517
 21
-111.3959580796805
 31
0
 12
434.8762127615389
 22
-104.7868697473928
 32
0
 13
434.8762127615389
 23
-104.7868697473928
 33
0
  0
MTEXT
  5
A3
100
AcDbEntity
  8
Mitat
  6
CONTINUOUS
 62
    0
370
   -2
100
AcDbMText
 10
255.0169304856488
 20
-111.4847345428144
 30
0
 40
20
 41
62.2222222222247
 71
    5
 72
    1
  1
398.6
  7
standard
210
0
220
0
230
1
 50
7.127274761814451
 73
    2
 44
1
  0
ENDBLK
  5
6D
330
6B
100
AcDbEntity
  8
0
100
AcDbBlockEnd
  0
BLOCK
  5
6F
330
6E
100
AcDbEntity
  8
0
100
AcDbBlockBegin
  2
*D10
 70
    1
 10
0
 20
0
  3
*D10
  1

  0
LINE
  5
A4
100
AcDbEntity
  8
Mitat
  6
ByBlock
 62
    0
370
   -2
100
AcDbLine
 10
800
 20
750
 11
709.8210939106463
 21
750
  0
SOLID
  5
A5
100
AcDbEntity
  8
Mitat
  6
ByBlock
 62
    0
370
   -2
100
AcDbTrace
 10
800
 20
750
 30
0
 11
780
 21
746.6697227378173
 31
0
 12
780
 22
753.3302772621827
 32
0
 13
780
 23
753.3302772621827
 33
0
  0
SOLID
  5
A6
100
AcDbEntity
  8
Mitat
  6
ByBlock
 62
    0
370
   -2
100
AcDbTrace
 10
709.8210939106463
 20
750
 30
0
 11
729.8210939106463
 21
753.3302772621827
 31
0
 12
729.8210939106463
 22
746.6697227378173
 32
0
 13
729.8210939106463
 23
746.6697227378173
 33
0
  0
MTEXT
  5
A7
100
AcDbEntity
  8
Mitat
  6
CONTINUOUS
 62
    0
370
   -2
100
AcDbMText
 10
754.9105469553231
 20
769
 30
0
 40
20
 41
46.66666666666791
 71
    5
 72
    1
  1
90.2
  7
standard
210
0
220
0
230
1
 50
360
 73
    2
 44
1
  0
LINE
  5
A8
100
AcDbEntity
  8
Mitat
  6
ByBlock
 62
    0
370
   -2
100
AcDbLine
 10
800
 20
709
 11
800
 21
765
  0
LINE
  5
A9
100
AcDbEntity
  8
Mitat
  6
ByBlock
 62
    0
370
   -2
100
AcDbLine
 10
709.8210939106463
 20
532.9962894529059
 11
709.8210939106463
 21
765
  0
ENDBLK
  5
70
330
6E
100
AcDbEntity
  8
0
100
AcDbBlockEnd
  0
ENDSEC
  0
SECTION
  2
ENTITIES
  0
ARC
  5
AA
100
AcDbEntity
  8
Runko
  6
ByLayer
 62
  256
370
   -1
100
AcDbCircle
 10
82.99739875794424
 20
10
 40
10
100
AcDbArc
 50
270
 51
350
  0
LINE
  5
AB
100
AcDbEntity
  8
Runko
  6
ByLayer
 62
  256
370
   -1
100
AcDbLine
 10
11.9175359259421
 20
0
 11
82.99739875794424
 21
0
  0
ARC
  5
AC
100
AcDbEntity
  8
Runko
  6
ByLayer
 62
  256
370
   -1
100
AcDbCircle
 10
11.9175359259421
 20
10
 40
10
100
AcDbArc
 50
170
 51
270
  0
LINE
  5
AD
100
AcDbEntity
  8
Runko
  6
ByLayer
 62
  256
370
   -1
100
AcDbLine
 10
92.84547628806632
 20
8.263518223330694
 11
204.9769768079421
 21
644.1928585281556
  0
ARC
  5
AE
100
AcDbEntity
  8
Runko
  6
ByLayer
 62
  256
370
   -1
100
AcDbCircle
 10
175.4327442175759
 20
649.4023038581636
 40
30
100
AcDbArc
 50
349.9999999999999
 51
80.00000000000001
  0
ARC
  5
AF
100
AcDbEntity
  8
Runko
  6
ByLayer
 62
  256
370
   -1
100
AcDbCircle
 10
301.3022119451865
 20
5
 40
5
100
AcDbArc
 50
205.0000000000001
 51
270
  0
LINE
  5
B0
100
AcDbEntity
  8
Runko
  6
ByLayer
 62
  256
370
   -1
100
AcDbLine
 10
301.3022119451865
 20
0
 11
389.5724454621859
 21
0
  0
ARC
  5
B1
100
AcDbEntity
  8
Runko
  6
ByLayer
 62
  256
370
   -1
100
AcDbCircle
 10
389.5724454621859
 20
5
 40
5
100
AcDbArc
 50
270
 51
25.00000000000005
  0
LINE
  5
B2
100
AcDbEntity
  8
Runko
  6
ByLayer
 62
  256
370
   -1
100
AcDbLine
 10
2.06945839582002
 20
11.7364817766693
 11
116.3442790368434
 21
659.8211945181793
  0
LINE
  5
B3
100
AcDbEntity
  8
Runko
  6
ByLayer
 62
  256
370
   -1
100
AcDbLine
 10
151.0979569572176
 20
684.1559817785377
 11
180.6421895475838
 21
678.9465364485297
  0
ARC
  5
B4
100
AcDbEntity
  8
Runko
  6
ByLayer
 62
  256
370
   -1
100
AcDbCircle
 10
145.8885116272096
 20
654.6117491881714
 40
30
100
AcDbArc
 50
79.99999999999993
 51
170.0000000000001
  0
LINE
  5
B5
100
AcDbEntity
  8
Runko
  6
ByLayer
 62
  256
370
   -1
100
AcDbLine
 10
394.1039843973691
 20
7.113091308703488
 11
175.3580095756097
 21
476.2153481475764
  0
LINE
  5
B6
100
AcDbEntity
  8
Runko
  6
ByLayer
 62
  256
370
   -1
100
AcDbLine
 10
296.7706730100033
 20
2.886908691296508
 11
148.1108372729129
 21
321.688955231301
  0
ARC
  5
B7
100
AcDbEntity
  8
Vaakatuet
  6
ByLayer
 62
  256
370
   -1
100
AcDbCircle
 10
52.04738876523862
 20
180
 40
20
100
AcDbArc
 50
90
 51
170
  0
LINE
  5
B8
100
AcDbEntity
  8
Vaakatuet
  6
ByLayer
 62
  256
370
   -1
100
AcDbLine
 10
23.5348846695712
 20
133.4729635533386
 11
32.35123370499446
 21
183.4729635533386
  0
ARC
  5
B9
100
AcDbEntity
  8
Vaakatuet
  6
ByLayer
 62
  256
370
   -1
100
AcDbCircle
 10
43.23103972981536
 20
130
 40
20
100
AcDbArc
 50
170
 51
270
  0
ARC
  5
BA
100
AcDbEntity
  8
Askelmat
  6
ByLayer
 62
  256
370
   -1
100
AcDbCircle
 10
261.1270309507236
 20
215.000000000001
 40
5
100
AcDbArc
 50
90
 51
179.9999999999997
  0
LINE
  5
BB
100
AcDbEntity
  8
Askelmat
  6
ByLayer
 62
  256
370
   -1
100
AcDbLine
 10
256.1270309507236
 20
205.000000000001
 11
256.1270309507236
 21
215.000000000001
  0
ARC
  5
BC
100
AcDbEntity
  8
Askelmat
  6
ByLayer
 62
  256
370
   -1
100
AcDbCircle
 10
261.1270309507236
 20
205.000000000001
 40
5
100
AcDbArc
 50
179.9999999999997
 51
270
  0
LINE
  5
BD
100
AcDbEntity
  8
Askelmat
  6
ByLayer
 62
  256
370
   -1
100
AcDbLine
 10
261.1270309507236
 20
200.000000000001
 11
341.1270309507236
 21
200.0000000000009
  0
ARC
  5
BE
100
AcDbEntity
  8
Askelmat
  6
ByLayer
 62
  256
370
   -1
100
AcDbCircle
 10
341.1270309507236
 20
205.000000000001
 40
5
100
AcDbArc
 50
270
 51
0
  0
LINE
  5
BF
100
AcDbEntity
  8
Askelmat
  6
ByLayer
 62
  256
370
   -1
100
AcDbLine
 10
346.1270309507236
 20
205.000000000001
 11
346.1270309507236
 21
215.0000000000009
  0
LINE
  5
C0
100
AcDbEntity
  8
Askelmat
  6
ByLayer
 62
  256
370
   -1
100
AcDbLine
 10
261.1270309507236
 20
220.000000000001
 11
341.1270309507236
 21
220.0000000000009
  0
ARC
  5
C1
100
AcDbEntity
  8
Askelmat
  6
ByLayer
 62
  256
370
   -1
100
AcDbCircle
 10
341.1270309507236
 20
215.000000000001
 40
5
100
AcDbArc
 50
359.9999999999997
 51
90
  0
ARC
  5
C2
100
AcDbEntity
  8
Askelmat
  6
ByLayer
 62
  256
370
   -1
100
AcDbCircle
 10
436.1270309507236
 20
215
 40
5
100
AcDbArc
 50
359.9999999999997
 51
89.99999999999936
  0
LINE
  5
C3
100
AcDbEntity
  8
Askelmat
  6
ByLayer
 62
  256
370
   -1
100
AcDbLine
 10
441.1270309507235
 20
205
 11
441.1270309507236
 21
215
  0
ARC
  5
C4
100
AcDbEntity
  8
Askelmat
  6
ByLayer
 62
  256
370
   -1
100
AcDbCircle
 10
436.1270309507235
 20
205
 40
5
100
AcDbArc
 50
269.9999999999994
 51
359.9999999999997
  0
LINE
  5
C5
100
AcDbEntity
  8
Askelmat
  6
ByLayer
 62
  256
370
   -1
100
AcDbLine
 10
436.1270309507235
 20
200
 11
356.1270309507235
 21
200.0000000000009
  0
ARC
  5
C6
100
AcDbEntity
  8
Askelmat
  6
ByLayer
 62
  256
370
   -1
100
AcDbCircle
 10
356.1270309507235
 20
205.0000000000009
 40
5
100
AcDbArc
 50
179.9999999999994
 51
269.9999999999994
  0
LINE
  5
C7
100
AcDbEntity
  8
Askelmat
  6
ByLayer
 62
  256
370
   -1
100
AcDbLine
 10
351.1270309507235
 20
205.0000000000009
 11
351.1270309507236
 21
215.0000000000009
  0
LINE
  5
C8
100
AcDbEntity
  8
Askelmat
  6
ByLayer
 62
  256
370
   -1
100
AcDbLine
 10
436.1270309507236
 20
220
 11
356.1270309507237
 21
220.0000000000009
  0
ARC
  5
C9
100
AcDbEntity
  8
Askelmat
  6
ByLayer
 62
  256
370
   -1
100
AcDbCircle
 10
356.1270309507236
 20
215.0000000000009
 40
5
100
AcDbArc
 50
89.99999999999936
 51
179.9999999999997
  0
LINE
  5
CA
100
AcDbEntity
  8
Vaakatuet
  6
ByLayer
 62
  256
370
   -1
100
AcDbLine
 10
43.23103972981536
 20
110
 11
337.8427597032615
 21
110
  0
ARC
  5
CB
100
AcDbEntity
  8
Vaakatuet
  6
ByLayer
 62
  256
370
   -1
100
AcDbCircle
 10
337.8427597032615
 20
130
 40
20
100
AcDbArc
 50
270
 51
315
  0
LINE
  5
CC
100
AcDbEntity
  8
Vaakatuet
  6
ByLayer
 62
  256
370
   -1
100
AcDbLine
 10
52.04738876523862
 20
200
 11
411.9848953269925
 21
200
  0
LINE
  5
CD
100
AcDbEntity
  8
Vaakatuet
  6
ByLayer
 62
  256
370
   -1
100
AcDbLine
 10
351.9848953269925
 20
115.857864376269
 11
419.055963138858
 21
182.9289321881345
  0
ARC
  5
CE
100
AcDbEntity
  8
Vaakatuet
  6
ByLayer
 62
  256
370
   -1
100
AcDbCircle
 10
411.9848953269925
 20
190
 40
10
100
AcDbArc
 50
315
 51
90
  0
ARC
  5
CF
100
AcDbEntity
  8
Selkänoja
  6
ByLayer
 62
  256
370
   -1
100
AcDbCircle
 10
129.9346554744259
 20
660.5408427051007
 40
5
100
AcDbArc
 50
94.99999999999979
 51
185.0000000000001
  0
LINE
  5
D0
100
AcDbEntity
  8
Selkänoja
  6
ByLayer
 62
  256
370
   -1
100
AcDbLine
 10
129.4988767606876
 20
665.5218161955594
 11
139.4608237416051
 21
666.3933736230359
  0
ARC
  5
D1
100
AcDbEntity
  8
Selkänoja
  6
ByLayer
 62
  256
370
   -1
100
AcDbCircle
 10
139.8966024553434
 20
661.4124001325772
 40
5
100
AcDbArc
 50
5.000000000000096
 51
95.00000000000011
  0
LINE
  5
D2
100
AcDbEntity
  8
Selkänoja
  6
ByLayer
 62
  256
370
   -1
100
AcDbLine
 10
151.8500353656146
 20
582.1526029989758
 11
144.8775759458021
 21
661.8481788463156
  0
ARC
  5
D3
100
AcDbEntity
  8
Selkänoja
  6
ByLayer
 62
  256
370
   -1
100
AcDbCircle
 10
146.8690618751559
 20
581.7168242852375
 40
5
100
AcDbArc
 50
275
 51
5.000000000000096
  0
LINE
  5
D4
100
AcDbEntity
  8
Selkänoja
  6
ByLayer
 62
  256
370
   -1
100
AcDbLine
 10
137.3428936079767
 20
575.8642933673021
 11
147.3048405888942
 21
576.7358507947787
  0
LINE
  5
D5
100
AcDbEntity
  8
Selkänoja
  6
ByLayer
 62
  256
370
   -1
100
AcDbLine
 10
131.9261414037797
 20
580.4094881440225
 11
124.9536819839672
 21
660.1050639913623
  0
ARC
  5
D6
100
AcDbEntity
  8
Selkänoja
  6
ByLayer
 62
  256
370
   -1
100
AcDbCircle
 10
136.9071148942384
 20
580.8452668577607
 40
5
100
AcDbArc
 50
185.0000000000001
 51
274.9999999999995
  0
LINE
  5
D7
100
AcDbEntity
  8
Askelmat
  6
ByLayer
 62
  256
370
   -1
100
AcDbLine
 10
50.86362489520869
 20
425
 11
50.86362489520869
 21
435.0000000000001
  0
ARC
  5
D8
100
AcDbEntity
  8
Askelmat
  6
ByLayer
 62
  256
370
   -1
100
AcDbCircle
 10
55.86362489520869
 20
435.0000000000001
 40
5
100
AcDbArc
 50
90
 51
180
  0
ARC
  5
D9
100
AcDbEntity
  8
Askelmat
  6
ByLayer
 62
  256
370
   -1
100
AcDbCircle
 10
55.86362489520869
 20
425
 40
5
100
AcDbArc
 50
180
 51
270
  0
LINE
  5
DA
100
AcDbEntity
  8
Askelmat
  6
ByLayer
 62
  256
370
   -1
100
AcDbLine
 10
55.86362489520869
 20
440.0000000000001
 11
135.8636248952087
 21
440.0000000000001
  0
ARC
  5
DB
100
AcDbEntity
  8
Askelmat
  6
ByLayer
 62
  256
370
   -1
100
AcDbCircle
 10
135.8636248952087
 20
435
 40
5
100
AcDbArc
 50
0
 51
90
  0
LINE
  5
DC
100
AcDbEntity
  8
Askelmat
  6
ByLayer
 62
  256
370
   -1
100
AcDbLine
 10
55.86362489520869
 20
420
 11
135.8636248952087
 21
420
  0
LINE
  5
DD
100
AcDbEntity
  8
Askelmat
  6
ByLayer
 62
  256
370
   -1
100
AcDbLine
 10
140.8636248952087
 20
425
 11
140.8636248952087
 21
435
  0
ARC
  5
DE
100
AcDbEntity
  8
Askelmat
  6
ByLayer
 62
  256
370
   -1
100
AcDbCircle
 10
135.8636248952087
 20
425
 40
5
100
AcDbArc
 50
270
 51
0
  0
ARC
  5
DF
100
AcDbEntity
  8
Askelmat
  6
ByLayer
 62
  256
370
   -1
100
AcDbCircle
 10
150.8636248952087
 20
435
 40
5
100
AcDbArc
 50
90
 51
180
  0
LINE
  5
E0
100
AcDbEntity
  8
Askelmat
  6
ByLayer
 62
  256
370
   -1
100
AcDbLine
 10
145.8636248952087
 20
425
 11
145.8636248952087
 21
435
  0
ARC
  5
E1
100
AcDbEntity
  8
Askelmat
  6
ByLayer
 62
  256
370
   -1
100
AcDbCircle
 10
150.8636248952087
 20
425
 40
5
100
AcDbArc
 50
180
 51
270
  0
LINE
  5
E2
100
AcDbEntity
  8
Askelmat
  6
ByLayer
 62
  256
370
   -1
100
AcDbLine
 10
150.8636248952087
 20
420
 11
230.8636248952087
 21
420
  0
ARC
  5
E3
100
AcDbEntity
  8
Askelmat
  6
ByLayer
 62
  256
370
   -1
100
AcDbCircle
 10
230.8636248952087
 20
425
 40
5
100
AcDbArc
 50
270
 51
0
  0
LINE
  5
E4
100
AcDbEntity
  8
Askelmat
  6
ByLayer
 62
  256
370
   -1
100
AcDbLine
 10
235.8636248952087
 20
425
 11
235.8636248952087
 21
435
  0
LINE
  5
E5
100
AcDbEntity
  8
Askelmat
  6
ByLayer
 62
  256
370
   -1
100
AcDbLine
 10
150.8636248952087
 20
440
 11
230.8636248952087
 21
440
  0
ARC
  5
E6
100
AcDbEntity
  8
Askelmat
  6
ByLayer
 62
  256
370
   -1
100
AcDbCircle
 10
230.8636248952087
 20
435
 40
5
100
AcDbArc
 50
0
 51
90
  0
ARC
  5
E7
100
AcDbEntity
  8
Askelmat
  6
ByLayer
 62
  256
370
   -1
100
AcDbCircle
 10
245.8636248952087
 20
435
 40
5
100
AcDbArc
 50
90
 51
180
  0
LINE
  5
E8
100
AcDbEntity
  8
Askelmat
  6
ByLayer
 62
  256
370
   -1
100
AcDbLine
 10
240.8636248952087
 20
425
 11
240.8636248952087
 21
435
  0
ARC
  5
E9
100
AcDbEntity
  8
Askelmat
  6
ByLayer
 62
  256
370
   -1
100
AcDbCircle
 10
245.8636248952087
 20
425
 40
5
100
AcDbArc
 50
180
 51
270
  0
LINE
  5
EA
100
AcDbEntity
  8
Askelmat
  6
ByLayer
 62
  256
370
   -1
100
AcDbLine
 10
245.8636248952087
 20
420
 11
325.8636248952087
 21
420
  0
ARC
  5
EB
100
AcDbEntity
  8
Askelmat
  6
ByLayer
 62
  256
370
   -1
100
AcDbCircle
 10
325.8636248952087
 20
425
 40
5
100
AcDbArc
 50
270
 51
0
  0
LINE
  5
EC
100
AcDbEntity
  8
Askelmat
  6
ByLayer
 62
  256
370
   -1
100
AcDbLine
 10
330.8636248952087
 20
425
 11
330.8636248952087
 21
435
  0
LINE
  5
ED
100
AcDbEntity
  8
Askelmat
  6
ByLayer
 62
  256
370
   -1
100
AcDbLine
 10
245.8636248952087
 20
440
 11
325.8636248952087
 21
440
  0
ARC
  5
EE
100
AcDbEntity
  8
Askelmat
  6
ByLayer
 62
  256
370
   -1
100
AcDbCircle
 10
325.8636248952087
 20
435
 40
5
100
AcDbArc
 50
0
 51
90
  0
LINE
  5
EF
100
AcDbEntity
  8
Vaakatuet
  6
ByLayer
 62
  256
370
   -1
100
AcDbLine
 10
108.1879036337935
 20
420
 11
314.4737319284899
 21
420
  0
ARC
  5
F0
100
AcDbEntity
  8
Vaakatuet
  6
ByLayer
 62
  256
370
   -1
100
AcDbCircle
 10
314.4737319284899
 20
409.9999999999999
 40
10
100
AcDbArc
 50
332.1643288992055
 51
90.00000000000033
  0
ARC
  5
F1
100
AcDbEntity
  8
Vaakatuet
  6
ByLayer
 62
  256
370
   -1
100
AcDbCircle
 10
67.25351786192738
 20
409.9999999999999
 40
10
100
AcDbArc
 50
89.99999999999969
 51
207.8356711007945
  0
LINE
  5
F2
100
AcDbEntity
  8
Vaakatuet
  6
ByLayer
 62
  256
370
   -1
100
AcDbLine
 10
95.37314001989412
 20
335.3306272928926
 11
58.410613445271
 21
405.3306272928926
  0
ARC
  5
F3
100
AcDbEntity
  8
Vaakatuet
  6
ByLayer
 62
  256
370
   -1
100
AcDbCircle
 10
104.2160444365505
 20
340
 40
10
100
AcDbArc
 50
207.8356711007945
 51
270
  0
LINE
  5
F4
100
AcDbEntity
  8
Vaakatuet
  6
ByLayer
 62
  256
370
   -1
100
AcDbLine
 10
104.2160444365505
 20
330
 11
277.5112053538668
 21
330
  0
LINE
  5
F5
100
AcDbEntity
  8
Vaakatuet
  6
ByLayer
 62
  256
370
   -1
100
AcDbLine
 10
286.3541097705232
 20
335.3306272928926
 11
323.3166363451463
 21
405.3306272928926
  0
ARC
  5
F6
100
AcDbEntity
  8
Vaakatuet
  6
ByLayer
 62
  256
370
   -1
100
AcDbCircle
 10
277.5112053538668
 20
340
 40
10
100
AcDbArc
 50
270
 51
332.1643288992055
  0
ARC
  5
F7
100
AcDbEntity
  8
Runko
  6
ByLayer
 62
  256
370
   -1
100
AcDbCircle
 10
1002.17901555417
 20
2
 40
2
100
AcDbArc
 50
175.0942662173546
 51
270
  0
LINE
  5
F8
100
AcDbEntity
  8
Runko
  6
ByLayer
 62
  256
370
   -1
100
AcDbLine
 10
1002.17901555417
 20
0
 11
1018.237843162946
 21
0
  0
ARC
  5
F9
100
AcDbEntity
  8
Runko
  6
ByLayer
 62
  256
370
   -1
100
AcDbCircle
 10
1018.237843162946
 20
2
 40
2
100
AcDbArc
 50
270
 51
355.0942662173543
  0
ARC
  5
FA
100
AcDbEntity
  8
Runko
  6
ByLayer
 62
  256
370
   -1
100
AcDbCircle
 10
1481.760126107994
 20
2.023659608304949
 40
2
100
AcDbArc
 50
184.905733782647
 51
269.9256848726776
  0
LINE
  5
FB
100
AcDbEntity
  8
Runko
  6
ByLayer
 62
  256
370
   -1
100
AcDbLine
 10
1481.75753202141
 20
0.02366129062695832
 11
1497.818147605251
 21
0.00282995939353552
  0
ARC
  5
FC
100
AcDbEntity
  8
Runko
  6
ByLayer
 62
  256
370
   -1
100
AcDbCircle
 10
1497.820741691835
 20
2.002828277071526
 40
2
100
AcDbArc
 50
269.9256848726776
 51
4.905733782646955
  0
LINE
  5
FD
100
AcDbEntity
  8
Runko
  6
ByLayer
 62
  256
370
   -1
100
AcDbLine
 10
1499.813415178317
 20
2.173861537784899
 11
1440.187349802286
 21
696.8649355575626
  0
ARC
  5
FE
100
AcDbEntity
  8
Runko
  6
ByLayer
 62
  256
370
   -1
100
AcDbCircle
 10
1438.194676315803
 20
696.6939022968493
 40
2
100
AcDbArc
 50
4.905733782645991
 51
94.90573378264571
  0
LINE
  5
FF
100
AcDbEntity
  8
Runko
  6
ByLayer
 62
  256
370
   -1
100
AcDbLine
 10
1422.082255163231
 20
697.3183096976245
 11
1438.02364305509
 21
698.6865757833316
  0
LINE
  5
100
100
AcDbEntity
  8
Runko
  6
ByLayer
 62
  256
370
   -1
100
AcDbLine
 10
1479.767452621511
 20
1.852626347591583
 11
1420.260614937462
 21
695.1546029504287
  0
ARC
  5
101
100
AcDbEntity
  8
Runko
  6
ByLayer
 62
  256
370
   -1
100
AcDbCircle
 10
1422.253288423944
 20
695.3256362111422
 40
2
100
AcDbArc
 50
94.90573378264571
 51
184.9057337826492
  0
LINE
  5
102
100
AcDbEntity
  8
Runko
  6
ByLayer
 62
  256
370
   -1
100
AcDbLine
 10
1079.739385062538
 20
695.154602950429
 11
1020.230516649429
 21
1.82896673928667
  0
ARC
  5
103
100
AcDbEntity
  8
Runko
  6
ByLayer
 62
  256
370
   -1
100
AcDbCircle
 10
1077.746711576056
 20
695.3256362111423
 40
2
100
AcDbArc
 50
355.0942662173543
 51
85.09426621735402
  0
LINE
  5
104
100
AcDbEntity
  8
Runko
  6
ByLayer
 62
  256
370
   -1
100
AcDbLine
 10
1061.97635694491
 20
698.6865757833316
 11
1077.917744836769
 21
697.3183096976245
  0
LINE
  5
105
100
AcDbEntity
  8
Runko
  6
ByLayer
 62
  256
370
   -1
100
AcDbLine
 10
1059.812650197714
 20
696.8649355575626
 11
1000.186342067687
 21
2.17103326071333
  0
ARC
  5
106
100
AcDbEntity
  8
Runko
  6
ByLayer
 62
  256
370
   -1
100
AcDbCircle
 10
1061.805323684197
 20
696.6939022968493
 40
2
100
AcDbArc
 50
85.0942662173543
 51
175.0942662173543
  0
LINE
  5
107
100
AcDbEntity
  8
Vaakatuet
  6
ByLayer
 62
  256
370
   -1
100
AcDbLine
 10
1423.803889332793
 20
420
 11
1443.877423843764
 21
420
  0
LINE
  5
108
100
AcDbEntity
  8
Vaakatuet
  6
ByLayer
 62
  256
370
   -1
100
AcDbLine
 10
1431.528683971064
 20
330
 11
1451.602218482035
 21
330
  0
LINE
  5
109
100
AcDbEntity
  8
Vaakatuet
  6
ByLayer
 62
  256
370
   -1
100
AcDbLine
 10
1431.528683971064
 20
330
 11
1423.803889332793
 21
420
  0
LINE
  5
10A
100
AcDbEntity
  8
Vaakatuet
  6
ByLayer
 62
  256
370
   -1
100
AcDbLine
 10
1037.23974481824
 20
200.0000000000004
 11
1057.313279329211
 21
200.0000000000004
  0
LINE
  5
10B
100
AcDbEntity
  8
Vaakatuet
  6
ByLayer
 62
  256
370
   -1
100
AcDbLine
 10
1029.514950179969
 20
110
 11
1049.58848469094
 21
110
  0
LINE
  5
10C
100
AcDbEntity
  8
Vaakatuet
  6
ByLayer
 62
  256
370
   -1
100
AcDbLine
 10
1057.313279329211
 20
200.0000000000004
 11
1049.58848469094
 21
110
  0
LINE
  5
10D
100
AcDbEntity
  8
Vaakatuet
  6
ByLayer
 62
  256
370
   -1
100
AcDbLine
 10
1076.196110667207
 20
420
 11
1068.471316028936
 21
330
  0
LINE
  5
10E
100
AcDbEntity
  8
Vaakatuet
  6
ByLayer
 62
  256
370
   -1
100
AcDbLine
 10
1450.411515309061
 20
110
 11
1442.686720670789
 21
200.0000000000004
  0
LINE
  5
10F
100
AcDbEntity
  8
Vaakatuet
  6
ByLayer
 62
  256
370
   -1
100
AcDbLine
 10
1056.122576156236
 20
420
 11
1076.196110667207
 21
420
  0
LINE
  5
110
100
AcDbEntity
  8
Vaakatuet
  6
ByLayer
 62
  256
370
   -1
100
AcDbLine
 10
1048.397781517965
 20
330
 11
1068.471316028936
 21
330
  0
LINE
  5
111
100
AcDbEntity
  8
Vaakatuet
  6
ByLayer
 62
  256
370
   -1
100
AcDbLine
 10
1442.686720670789
 20
200.0000000000004
 11
1462.76025518176
 21
200.0000000000004
  0
LINE
  5
112
100
AcDbEntity
  8
Vaakatuet
  6
ByLayer
 62
  256
370
   -1
100
AcDbLine
 10
1450.411515309061
 20
110
 11
1470.485049820031
 21
110
  0
ARC
  5
113
100
AcDbEntity
  8
Askelmat
  6
ByLayer
 62
  256
370
   -1
100
AcDbCircle
 10
1043.545594219028
 20
215
 40
5
100
AcDbArc
 50
90
 51
175.0942662173529
  0
LINE
  5
114
100
AcDbEntity
  8
Askelmat
  6
ByLayer
 62
  256
370
   -1
100
AcDbLine
 10
1037.705599987459
 20
205.4275831517834
 11
1038.563910502822
 21
215.4275831517835
  0
ARC
  5
115
100
AcDbEntity
  8
Askelmat
  6
ByLayer
 62
  256
370
   -1
100
AcDbCircle
 10
1042.687283703664
 20
205
 40
5
100
AcDbArc
 50
175.0942662173531
 51
270
  0
LINE
  5
116
100
AcDbEntity
  8
Askelmat
  6
ByLayer
 62
  256
370
   -1
100
AcDbLine
 10
1043.545594219028
 20
220
 11
1456.454405780972
 21
220
  0
ARC
  5
117
100
AcDbEntity
  8
Askelmat
  6
ByLayer
 62
  256
370
   -1
100
AcDbCircle
 10
1456.454405780972
 20
215.0000000000001
 40
5
100
AcDbArc
 50
4.905733782646899
 51
90
  0
LINE
  5
118
100
AcDbEntity
  8
Askelmat
  6
ByLayer
 62
  256
370
   -1
100
AcDbLine
 10
1461.436089497178
 20
215.4275831517835
 11
1462.294400012541
 21
205.4275831517834
  0
LINE
  5
119
100
AcDbEntity
  8
Askelmat
  6
ByLayer
 62
  256
370
   -1
100
AcDbLine
 10
1042.687283703664
 20
200
 11
1457.312716296336
 21
200
  0
ARC
  5
11A
100
AcDbEntity
  8
Askelmat
  6
ByLayer
 62
  256
370
   -1
100
AcDbCircle
 10
1457.312716296336
 20
205
 40
5
100
AcDbArc
 50
270
 51
4.905733782646575
  0
ARC
  5
11B
100
AcDbEntity
  8
Askelmat
  6
ByLayer
 62
  256
370
   -1
100
AcDbCircle
 10
1438.429884958339
 20
425
 40
5
100
AcDbArc
 50
270
 51
4.905733782646899
  0
LINE
  5
11C
100
AcDbEntity
  8
Askelmat
  6
ByLayer
 62
  256
370
   -1
100
AcDbLine
 10
1442.553258159181
 20
435.4275831517835
 11
1443.411568674545
 21
425.4275831517834
  0
ARC
  5
11D
100
AcDbEntity
  8
Askelmat
  6
ByLayer
 62
  256
370
   -1
100
AcDbCircle
 10
1437.571574442976
 20
435.0000000000001
 40
5
100
AcDbArc
 50
4.905733782646899
 51
90
  0
LINE
  5
11E
100
AcDbEntity
  8
Askelmat
  6
ByLayer
 62
  256
370
   -1
100
AcDbLine
 10
1062.428425557024
 20
440
 11
1437.571574442976
 21
440
  0
ARC
  5
11F
100
AcDbEntity
  8
Askelmat
  6
ByLayer
 62
  256
370
   -1
100
AcDbCircle
 10
1062.428425557024
 20
434.9999999999999
 40
5
100
AcDbArc
 50
90
 51
175.0942662173531
  0
LINE
  5
120
100
AcDbEntity
  8
Askelmat
  6
ByLayer
 62
  256
370
   -1
100
AcDbLine
 10
1056.588431325455
 20
425.4275831517834
 11
1057.446741840819
 21
435.4275831517834
  0
LINE
  5
121
100
AcDbEntity
  8
Askelmat
  6
ByLayer
 62
  256
370
   -1
100
AcDbLine
 10
1061.570115041661
 20
420
 11
1438.429884958339
 21
420
  0
ARC
  5
122
100
AcDbEntity
  8
Askelmat
  6
ByLayer
 62
  256
370
   -1
100
AcDbCircle
 10
1061.570115041661
 20
425
 40
5
100
AcDbArc
 50
175.0942662173531
 51
270
  0
LINE
  5
123
100
AcDbEntity
  8
Selkänoja
  6
ByLayer
 62
  256
370
   -1
100
AcDbLine
 10
1077.27077850589
 20
666.3933736230359
 11
1422.72922149411
 21
666.3933736230359
  0
LINE
  5
124
100
AcDbEntity
  8
Selkänoja
  6
ByLayer
 62
  256
370
   -1
100
AcDbLine
 10
1069.500572352922
 20
575.864293367302
 11
1430.499427647078
 21
575.864293367302
  0
DIMENSION
  5
125
100
AcDbEntity
  8
Mitat
  6
ByLayer
 62
  256
370
   -1
100
AcDbDimension
  2
*D1
 10
379.439009939429
 20
568.0164556468584
 30
0
 11
503.8738592588953
 21
337.7032149002134
 31
0
 70
   33
 71
    5
  3
Standard
 53
0
210
0
220
0
230
1
100
AcDbAlignedDimension
 13
389.5724454621859
 23
0
 33
0
 14
175.3580095756097
 24
476.2153481475764
 34
0
  0
DIMENSION
  5
126
100
AcDbEntity
  8
Mitat
  6
ByLayer
 62
  256
370
   -1
100
AcDbDimension
  2
*D2
 10
10.58031446722367
 20
698.1430404980099
 30
0
 11
-42.37653127054459
 21
357.9470001813888
 31
0
 70
   33
 71
    5
  3
Standard
 53
0
210
0
220
0
230
1
100
AcDbAlignedDimension
 13
82.99739875794424
 23
0
 33
0
 14
151.0979569572176
 24
684.1559817785377
 34
0
  0
DIMENSION
  5
127
100
AcDbEntity
  8
Mitat
  6
ByLayer
 62
  256
370
   -1
100
AcDbDimension
  2
*D3
 10
455.1348728105013
 20
-105.6099369764746
 30
0
 11
255.0169304856488
 21
-111.4847345428144
 31
0
 70
   33
 71
    5
  3
Standard
 53
0
210
0
220
0
230
1
100
AcDbAlignedDimension
 13
23.5348846695712
 23
133.4729635533386
 33
0
 14
419.055963138858
 24
182.9289321881345
 34
0
  0
DIMENSION
  5
128
100
AcDbEntity
  8
Mitat
  6
ByLayer
 62
  256
370
   -1
100
AcDbDimension
  2
*D4
 10
323.3166363451463
 20
-50.00000000000006
 30
0
 11
190.8636248952086
 21
-31.00000000000006
 31
0
 70
   33
 71
    5
  3
Standard
 53
0
210
0
220
0
230
1
100
AcDbAlignedDimension
 13
58.410613445271
 23
405.3306272928926
 33
0
 14
323.3166363451463
 24
405.3306272928926
 34
0
  0
DIMENSION
  5
129
100
AcDbEntity
  8
Mitat
  6
ByLayer
 62
  256
370
   -1
100
AcDbDimension
  2
*D5
 10
1443.411568674545
 20
300
 30
0
 11
1250
 21
319
 31
0
 70
   32
 71
    5
  3
Standard
 53
0
210
0
220
0
230
1
100
AcDbAlignedDimension
 13
1056.588431325455
 23
425.4275831517834
 33
0
 14
1443.411568674545
 24
425.4275831517834
 34
0
100
AcDbRotatedDimension
  0
DIMENSION
  5
12A
100
AcDbEntity
  8
Mitat
  6
ByLayer
 62
  256
370
   -1
100
AcDbDimension
  2
*D6
 10
1462.294400012541
 20
80.00000000000001
 30
0
 11
1250
 21
99.00000000000001
 31
0
 70
   32
 71
    5
  3
Standard
 53
0
210
0
220
0
230
1
100
AcDbAlignedDimension
 13
1037.705599987459
 23
205.4275831517834
 33
0
 14
1462.294400012541
 24
205.4275831517834
 34
0
100
AcDbRotatedDimension
  0
DIMENSION
  5
12B
100
AcDbEntity
  8
Mitat
  6
ByLayer
 62
  256
370
   -1
100
AcDbDimension
  2
*D7
 10
1020.230516649429
 20
1.82896673928667
 30
0
 11
0
 21
0
 31
0
 70
   34
 71
    5
  3
Standard
 53
0
210
0
220
0
230
1
100
AcDb2LineAngularDimension
 13
1077.27077850589
 23
666.3933736230359
 33
0
 14
1422.72922149411
 24
666.3933736230359
 34
0
 15
1079.739385062538
 25
695.154602950429
 35
0
 16
1200
 26
800
 36
0
  0
ARC
  5
12C
100
AcDbEntity
  8
Selkänoja
  6
ByLayer
 62
  256
370
   -1
100
AcDbCircle
 10
925.8572098815619
 20
524.4103148199418
 40
216.0365127028379
100
AcDbArc
 50
125.6317736476924
 51
234.3682263523076
  0
LINE
  5
12D
100
AcDbEntity
  8
Selkänoja
  6
ByLayer
 62
  256
370
   -1
100
AcDbLine
 10
800
 20
700
 11
729.820697178724
 21
700
  0
ARC
  5
12E
100
AcDbEntity
  8
Selkänoja
  6
ByLayer
 62
  256
370
   -1
100
AcDbCircle
 10
729.820697178724
 20
695
 40
5
100
AcDbArc
 50
90
 51
179.9999999999997
  0
LINE
  5
12F
100
AcDbEntity
  8
Selkänoja
  6
ByLayer
 62
  256
370
   -1
100
AcDbLine
 10
800
 20
348.8206296398837
 11
729.820697178724
 21
348.8206296398837
  0
ARC
  5
130
100
AcDbEntity
  8
Selkänoja
  6
ByLayer
 62
  256
370
   -1
100
AcDbCircle
 10
729.820697178724
 20
353.8206296398837
 40
5
100
AcDbArc
 50
180
 51
270
  0
LINE
  5
131
100
AcDbEntity
  8
Selkänoja
  6
ByLayer
 62
  256
370
   -1
100
AcDbLine
 10
724.820697178724
 20
353.8206296398837
 11
724.820697178724
 21
400.7270261783528
  0
LINE
  5
132
100
AcDbEntity
  8
Selkänoja
  6
ByLayer
 62
  256
370
   -1
100
AcDbLine
 10
724.820697178724
 20
648.093603461531
 11
724.820697178724
 21
695
  0
ARC
  5
133
100
AcDbEntity
  8
Selkänoja
  6
ByLayer
 62
  256
370
   -1
100
AcDbCircle
 10
925.8572098815619
 20
524.4103148199418
 40
236.0365127028379
100
AcDbArc
 50
131.9345246564278
 51
228.0654753435722
  0
DIMENSION
  5
134
100
AcDbEntity
  8
Mitat
  6
ByLayer
 62
  256
370
   -1
100
AcDbDimension
  2
*D8
 10
654.1777674414534
 20
700
 30
0
 11
635.1777674414534
 21
524.4103148199418
 31
0
 70
   32
 71
    5
  3
Standard
 53
0
210
0
220
0
230
1
100
AcDbAlignedDimension
 13
729.820697178724
 23
348.8206296398837
 33
0
 14
729.820697178724
 24
700
 34
0
 50
90
100
AcDbRotatedDimension
  0
DIMENSION
  5
135
100
AcDbEntity
  8
Mitat
  6
ByLayer
 62
  256
370
   -1
100
AcDbDimension
  2
*D9
 10
925.8572098815619
 20
524.4103148199418
 30
0
 11
828.871560461465
 21
473.1977430063438
 31
0
 70
   36
 71
    5
  3
Standard
 53
0
210
0
220
0
230
1
100
AcDbRadialDimension
 15
755.1826832892972
 25
391.9641718284988
 35
0
 40
0
  0
DIMENSION
  5
136
100
AcDbEntity
  8
Mitat
  6
ByLayer
 62
  256
370
   -1
100
AcDbDimension
  2
*D10
 10
709.8210939106463
 20
750
 30
0
 11
754.9105469553231
 21
769
 31
0
 70
   32
 71
    5
  3
Standard
 53
0
210
0
220
0
230
1
100
AcDbAlignedDimension
 13
800
 23
700
 33
0
 14
709.8210939106463
 24
523.9962894529059
 34
0
100
AcDbRotatedDimension
  0
LINE
  5
137
100
AcDbEntity
  8
Poikittaistuki
  6
ByLayer
 62
  256
370
   -1
100
AcDbLine
 10
1061.805323684197
 20
696.6939022968493
 11
1002.17901555417
 21
1.99999999999995
  0
LINE
  5
138
100
AcDbEntity
  8
Poikittaistuki
  6
ByLayer
 62
  256
370
   -1
100
AcDbLine
 10
1033.029413181591
 20
211.1556414641867
 11
1372.075094127711
 21
437.9999999999999
  0
LINE
  5
139
100
AcDbEntity
  8
Poikittaistuki
  6
ByLayer
 62
  256
370
   -1
100
AcDbLine
 10
1035.809816753221
 20
202
 11
1107.668777709711
 21
202
  0
ARC
  5
13A
100
AcDbEntity
  8
Poikittaistuki
  6
ByLayer
 62
  256
370
   -1
100
AcDbCircle
 10
1035.809816753221
 20
207
 40
5
100
AcDbArc
 50
123.7851840013345
 51
270
  0
LINE
  5
13B
100
AcDbEntity
  8
Poikittaistuki
  6
ByLayer
 62
  256
370
   -1
100
AcDbLine
 10
1448.633008826266
 20
428.8370884621129
 11
1107.668777709711
 21
202
  0
LINE
  5
13C
100
AcDbEntity
  8
Poikittaistuki
  6
ByLayer
 62
  256
370
   -1
100
AcDbLine
 10
1372.075094127711
 20
437.9999999999999
 11
1445.863502096228
 21
438
  0
ARC
  5
13D
100
AcDbEntity
  8
Poikittaistuki
  6
ByLayer
 62
  256
370
   -1
100
AcDbCircle
 10
1445.863502096228
 20
432.9999999999999
 40
5
100
AcDbArc
 50
303.6350755207002
 51
90
  0
ENDSEC
  0
SECTION
  2
OBJECTS
  0
DICTIONARY
  5
C
330
0
100
AcDbDictionary
281
    1
  3
ACAD_GROUP
350
D
  0
DICTIONARY
  5
D
330
C
100
AcDbDictionary
281
    1
  0
ENDSEC
  0
EOF
