999
dxfrw 0.5.11
0
SECTION
2
HEADER
9
$ACADVER
1
AC1021
9
$HANDSEED
5
20000
9
$DWGCODEPAGE
3
ANSI_1252
9
$INSBASE
10
0
20
0
30
0
9
$EXTMIN
10
882.316523365
20
674.628902487
30
0
9
$EXTMAX
10
1112.96731651
20
757.631793384
30
0
9
$LIMMIN
10
0
20
0
9
$LIMMAX
10
420
20
297
9
$ORTHOMODE
70
0
9
$LTSCALE
40
1
9
$TEXTSTYLE
7
STANDARD
9
$CLAYER
8
Clefs
9
$DIMASZ
40
2.5
9
$DIMLFAC
40
1
9
$DIMSCALE
40
2.5
9
$DIMEXO
40
0.625
9
$DIMEXE
40
1.25
9
$DIMTXT
40
2.5
9
$DIMTSZ
40
0
9
$DIMAUNIT
70
0
9
$DIMADEC
70
3
9
$DIMLUNIT
70
2
9
$DIMSTYLE
2
STANDARD
9
$DIMGAP
40
0.625
9
$DIMTIH
70
0
9
$LUNITS
70
2
9
$LUPREC
70
4
9
$AUNITS
70
0
9
$AUPREC
70
2
9
$SPLINESEGS
70
8
9
$GRIDMODE
70
1
9
$SNAPSTYLE
70
0
9
$GRIDUNIT
10
0
20
0
9
$PINSBASE
10
-1498.50727629
20
-1077.90587345
30
0
9
$PLIMMIN
10
0
20
0
9
$PLIMMAX
10
420
20
297
9
$INSUNITS
70
4
9
$PSVPSCALE
40
1.71255
0
ENDSEC
0
SECTION
2
CLASSES
0
ENDSEC
0
SECTION
2
TABLES
0
TABLE
2
VPORT
5
8
330
0
100
AcDbSymbolTable
70
1
0
VPORT
5
31
330
2
100
AcDbSymbolTableRecord
100
AcDbViewportTableRecord
2
*ACTIVE
70
0
10
0
20
0
11
1
21
1
12
548.057819982
22
372.118385737
13
0
23
0
14
10
24
10
15
10
25
10
16
0
26
0
36
1
17
0
27
0
37
0
40
6.00108763074
41
1.90943396226
42
50
43
0
44
0
50
0
51
0
71
0
72
100
73
1
74
3
75
0
76
1
77
0
78
0
281
0
65
1
110
0
120
0
130
0
111
1
121
0
131
0
112
0
122
1
132
0
79
0
146
0
348
10020
60
7
61
5
292
1
282
1
141
0
142
0
63
250
421
3358443
0
ENDTAB
0
TABLE
2
LTYPE
5
5
330
0
100
AcDbSymbolTable
70
4
0
LTYPE
5
14
330
5
100
AcDbSymbolTableRecord
100
AcDbLinetypeTableRecord
2
ByBlock
70
0
3

72
65
73
0
40
0
0
LTYPE
5
15
330
5
100
AcDbSymbolTableRecord
100
AcDbLinetypeTableRecord
2
ByLayer
70
0
3

72
65
73
0
40
0
0
LTYPE
5
16
330
5
100
AcDbSymbolTableRecord
100
AcDbLinetypeTableRecord
2
Continuous
70
0
3
Solid line
72
65
73
0
40
0
0
LTYPE
5
32
330
5
100
AcDbSymbolTableRecord
100
AcDbLinetypeTableRecord
2
DOT
70
0
3
Dot . . . . . . . . . . . . . . . . . . . . . .
72
65
73
2
40
6.35
49
0
74
0
49
-6.35
74
0
0
LTYPE
5
33
330
5
100
AcDbSymbolTableRecord
100
AcDbLinetypeTableRecord
2
DOT2
70
0
3
Dot (.5x) .....................................
72
65
73
2
40
3.175
49
0
74
0
49
-3.175
74
0
0
LTYPE
5
34
330
5
100
AcDbSymbolTableRecord
100
AcDbLinetypeTableRecord
2
DOTX2
70
0
3
Dot (2x) .  .  .  .  .  .  .  .  .  .  .  .  .
72
65
73
2
40
12.7
49
0
74
0
49
-12.7
74
0
0
LTYPE
5
35
330
5
100
AcDbSymbolTableRecord
100
AcDbLinetypeTableRecord
2
DASHED
70
0
3
Dot . . . . . . . . . . . . . . . . . . . . . .
72
65
73
2
40
19.05
49
12.7
74
0
49
-6.35
74
0
0
LTYPE
5
36
330
5
100
AcDbSymbolTableRecord
100
AcDbLinetypeTableRecord
2
DASHED2
70
0
3
Dashed (.5x) _ _ _ _ _ _ _ _ _ _ _ _ _ _ _ _ _
72
65
73
2
40
9.525
49
6.35
74
0
49
-3.175
74
0
0
LTYPE
5
37
330
5
100
AcDbSymbolTableRecord
100
AcDbLinetypeTableRecord
2
DASHEDX2
70
0
3
Dashed (2x) ____  ____  ____  ____  ____  ___
72
65
73
2
40
38.1
49
25.4
74
0
49
-12.7
74
0
0
LTYPE
5
38
330
5
100
AcDbSymbolTableRecord
100
AcDbLinetypeTableRecord
2
DASHDOT
70
0
3
Dash dot __ . __ . __ . __ . __ . __ . __ . __
72
65
73
4
40
25.4
49
12.7
74
0
49
-6.35
74
0
49
0
74
0
49
-6.35
74
0
0
LTYPE
5
39
330
5
100
AcDbSymbolTableRecord
100
AcDbLinetypeTableRecord
2
DASHDOT2
70
0
3
Dash dot (.5x) _._._._._._._._._._._._._._._.
72
65
73
4
40
12.7
49
6.35
74
0
49
-3.175
74
0
49
0
74
0
49
-3.175
74
0
0
LTYPE
5
3A
330
5
100
AcDbSymbolTableRecord
100
AcDbLinetypeTableRecord
2
DASHDOTX2
70
0
3
Dash dot (2x) ____  .  ____  .  ____  .  ___
72
65
73
4
40
50.8
49
25.4
74
0
49
-12.7
74
0
49
0
74
0
49
-12.7
74
0
0
LTYPE
5
3B
330
5
100
AcDbSymbolTableRecord
100
AcDbLinetypeTableRecord
2
DIVIDE
70
0
3
Divide ____ . . ____ . . ____ . . ____ . . ____
72
65
73
6
40
31.75
49
12.7
74
0
49
-6.35
74
0
49
0
74
0
49
-6.35
74
0
49
0
74
0
49
-6.35
74
0
0
LTYPE
5
3C
330
5
100
AcDbSymbolTableRecord
100
AcDbLinetypeTableRecord
2
DIVIDE2
70
0
3
Divide (.5x) __..__..__..__..__..__..__..__.._
72
65
73
6
40
15.875
49
6.35
74
0
49
-3.175
74
0
49
0
74
0
49
-3.175
74
0
49
0
74
0
49
-3.175
74
0
0
LTYPE
5
3D
330
5
100
AcDbSymbolTableRecord
100
AcDbLinetypeTableRecord
2
DIVIDEX2
70
0
3
Divide (2x) ________  .  .  ________  .  .  _
72
65
73
6
40
63.5
49
25.4
74
0
49
-12.7
74
0
49
0
74
0
49
-12.7
74
0
49
0
74
0
49
-12.7
74
0
0
LTYPE
5
3E
330
5
100
AcDbSymbolTableRecord
100
AcDbLinetypeTableRecord
2
BORDER
70
0
3
Border __ __ . __ __ . __ __ . __ __ . __ __ .
72
65
73
6
40
44.45
49
12.7
74
0
49
-6.35
74
0
49
12.7
74
0
49
-6.35
74
0
49
0
74
0
49
-6.35
74
0
0
LTYPE
5
3F
330
5
100
AcDbSymbolTableRecord
100
AcDbLinetypeTableRecord
2
BORDER2
70
0
3
Border (.5x) __.__.__.__.__.__.__.__.__.__.__.
72
65
73
6
40
22.225
49
6.35
74
0
49
-3.175
74
0
49
6.35
74
0
49
-3.175
74
0
49
0
74
0
49
-3.175
74
0
0
LTYPE
5
40
330
5
100
AcDbSymbolTableRecord
100
AcDbLinetypeTableRecord
2
BORDERX2
70
0
3
Border (2x) ____  ____  .  ____  ____  .  ___
72
65
73
6
40
88.9
49
25.4
74
0
49
-12.7
74
0
49
25.4
74
0
49
-12.7
74
0
49
0
74
0
49
-12.7
74
0
0
LTYPE
5
41
330
5
100
AcDbSymbolTableRecord
100
AcDbLinetypeTableRecord
2
CENTER
70
0
3
Center ____ _ ____ _ ____ _ ____ _ ____ _ ____
72
65
73
4
40
50.8
49
31.75
74
0
49
-6.35
74
0
49
6.35
74
0
49
-6.35
74
0
0
LTYPE
5
42
330
5
100
AcDbSymbolTableRecord
100
AcDbLinetypeTableRecord
2
CENTER2
70
0
3
Center (.5x) ___ _ ___ _ ___ _ ___ _ ___ _ ___
72
65
73
4
40
28.575
49
19.05
74
0
49
-3.175
74
0
49
3.175
74
0
49
-3.175
74
0
0
LTYPE
5
43
330
5
100
AcDbSymbolTableRecord
100
AcDbLinetypeTableRecord
2
CENTERX2
70
0
3
Center (2x) ________  __  ________  __  _____
72
65
73
4
40
101.6
49
63.5
74
0
49
-12.7
74
0
49
12.7
74
0
49
-12.7
74
0
0
ENDTAB
0
TABLE
2
LAYER
5
2
330
0
100
AcDbSymbolTable
70
1
0
LAYER
5
10
330
2
100
AcDbSymbolTableRecord
100
AcDbLayerTableRecord
2
0
70
0
62
7
6
CONTINUOUS
370
0
390
F
0
LAYER
5
44
330
2
100
AcDbSymbolTableRecord
100
AcDbLayerTableRecord
2
Body from top
70
0
62
8
6
CONTINUOUS
370
50
390
F
0
LAYER
5
45
330
2
100
AcDbSymbolTableRecord
100
AcDbLayerTableRecord
2
Clefs
70
0
62
5
6
CONTINUOUS
370
0
390
F
0
ENDTAB
0
TABLE
2
STYLE
5
3
330
0
100
AcDbSymbolTable
70
3
0
STYLE
5
46
330
2
100
AcDbSymbolTableRecord
100
AcDbTextStyleTableRecord
2
Standard
70
0
40
0
41
1
50
0
71
0
42
1
3
txt
4

0
ENDTAB
0
TABLE
2
VIEW
5
6
330
0
100
AcDbSymbolTable
70
0
0
ENDTAB
0
TABLE
2
UCS
5
7
330
0
100
AcDbSymbolTable
70
0
0
ENDTAB
0
TABLE
2
APPID
5
9
330
0
100
AcDbSymbolTable
70
1
0
APPID
5
12
330
9
100
AcDbSymbolTableRecord
100
AcDbRegAppTableRecord
2
ACAD
70
0
0
ENDTAB
0
TABLE
2
DIMSTYLE
5
A
330
0
100
AcDbSymbolTable
70
1
100
AcDbDimStyleTable
71
1
0
DIMSTYLE
105
47
330
A
100
AcDbSymbolTableRecord
100
AcDbDimStyleTableRecord
2
Standard
70
0
40
1
41
2.5
42
0.625
43
0.38
44
1.25
45
0
46
0
47
0
48
0
140
2.5
141
0.09
142
0
143
25.4
144
1
145
0
146
1
147
0.625
148
0
71
0
72
0
73
0
74
1
75
0
76
0
77
0
78
0
79
0
170
0
171
2
172
0
173
0
174
0
175
0
176
0
177
0
178
0
179
0
271
4
272
4
273
2
274
2
275
0
276
0
277
2
278
46
279
0
280
0
281
0
282
0
283
1
284
0
285
0
286
0
288
0
289
3
340
Standard
341

371
-2
372
-2
0
ENDTAB
0
TABLE
2
BLOCK_RECORD
5
1
330
0
100
AcDbSymbolTable
70
2
0
BLOCK_RECORD
5
1F
330
1
100
AcDbSymbolTableRecord
100
AcDbBlockTableRecord
2
*Model_Space
70
0
280
1
281
0
0
BLOCK_RECORD
5
1E
330
1
100
AcDbSymbolTableRecord
100
AcDbBlockTableRecord
2
*Paper_Space
70
0
280
1
281
0
0
BLOCK_RECORD
5
48
330
1
100
AcDbSymbolTableRecord
100
AcDbBlockTableRecord
2
2019-02-16 Clefs
70
0
280
1
281
0
0
BLOCK_RECORD
5
4B
330
1
100
AcDbSymbolTableRecord
100
AcDbBlockTableRecord
2
2019-02-16 Clefs-0
70
0
280
1
281
0
0
BLOCK_RECORD
5
4E
330
1
100
AcDbSymbolTableRecord
100
AcDbBlockTableRecord
2
2019-02-16 Clefs-1
70
0
280
1
281
0
0
ENDTAB
0
ENDSEC
0
SECTION
2
BLOCKS
0
BLOCK
5
20
330
1F
100
AcDbEntity
8
0
100
AcDbBlockBegin
2
*Model_Space
70
0
10
0
20
0
30
0
3
*Model_Space
1

0
ENDBLK
5
21
330
1F
100
AcDbEntity
8
0
100
AcDbBlockEnd
0
BLOCK
5
1C
330
1B
100
AcDbEntity
8
0
100
AcDbBlockBegin
2
*Paper_Space
70
0
10
0
20
0
30
0
3
*Paper_Space
1

0
ENDBLK
5
1D
330
1F
100
AcDbEntity
8
0
100
AcDbBlockEnd
0
BLOCK
5
49
330
48
100
AcDbEntity
8
0
100
AcDbBlockBegin
2
2019-02-16 Clefs
70
0
10
0
20
0
3
2019-02-16 Clefs
1

0
ARC
5
51
100
AcDbEntity
8
Clefs
6
ByLayer
62
256
370
-1
100
AcDbCircle
10
1159.76476354
20
-541.250196246
40
20.5643972408
100
AcDbArc
50
272.846616916
51
87.1533830842
0
ARC
5
52
100
AcDbEntity
8
Clefs
6
ByLayer
62
256
370
-1
100
AcDbCircle
10
1161.51739287
20
-536.66736316
40
25.1324984993
100
AcDbArc
50
163.578201048
51
268.332465883
0
ARC
5
53
100
AcDbEntity
8
Clefs
6
ByLayer
62
256
370
-1
100
AcDbCircle
10
1157.63940259
20
-544.565513974
40
55.3626157484
100
AcDbArc
50
354.615338746
51
12.8152394652
0
ARC
5
54
100
AcDbEntity
8
Clefs
6
ByLayer
62
256
370
-1
100
AcDbCircle
10
1261.16922562
20
-764.167153251
40
64.2379929381
100
AcDbArc
50
176.603098548
51
229.717226985
0
ARC
5
55
100
AcDbEntity
8
Clefs
6
ByLayer
62
256
370
-1
100
AcDbCircle
10
1223.45845574
20
-805.917407432
40
8.20019389616
100
AcDbArc
50
242.211734945
51
342.061037593
0
ARC
5
56
100
AcDbEntity
8
Clefs
6
ByLayer
62
256
370
-1
100
AcDbCircle
10
1191.29599051
20
-801.569886335
40
40.5507456402
100
AcDbArc
50
350.241452324
51
35.492755956
0
ARC
5
57
100
AcDbEntity
8
Clefs
6
ByLayer
62
256
370
-1
100
AcDbCircle
10
1120.44539208
20
-851.357046116
40
127.144358987
100
AcDbArc
50
35.2225067463
51
50.7775086556
0
ARC
5
58
100
AcDbEntity
8
Clefs
6
ByLayer
62
256
370
-1
100
AcDbCircle
10
1196.95131635
20
-654.642269501
40
74.1620869719
100
AcDbArc
50
105.925582105
51
220.21348529
0
ARC
5
59
100
AcDbEntity
8
Clefs
6
ByLayer
62
256
370
-1
100
AcDbCircle
10
1193.37845869
20
-634.810627947
40
54.5807100522
100
AcDbArc
50
315.548891111
51
38.5797619961
0
ARC
5
5A
100
AcDbEntity
8
Clefs
6
ByLayer
62
256
370
-1
100
AcDbCircle
10
1202.74631197
20
-639.926407176
40
43.1592323101
100
AcDbArc
50
150.516203418
51
230.09348952
0
ARC
5
5B
100
AcDbEntity
8
Clefs
6
ByLayer
62
256
370
-1
100
AcDbCircle
10
1202.71955488
20
-628.397427258
40
26.42062834
100
AcDbArc
50
307.731322519
51
8.24611108468
0
ARC
5
5C
100
AcDbEntity
8
Clefs
6
ByLayer
62
256
370
-1
100
AcDbCircle
10
1201.98008842
20
-622.750248006
40
26.9510419751
100
AcDbArc
50
356.047353866
51
48.2156560848
0
ARC
5
5D
100
AcDbEntity
8
Clefs
6
ByLayer
62
256
370
-1
100
AcDbCircle
10
1189.96899097
20
-640.866124416
40
50.7897269309
100
AcDbArc
50
153.495632892
51
222.110449627
0
ARC
5
5E
100
AcDbEntity
8
Clefs
6
ByLayer
62
256
370
-1
100
AcDbCircle
10
1282.99365845
20
-561.916888784
40
172.782771631
100
AcDbArc
50
220.846919162
51
237.089769199
0
ARC
5
5F
100
AcDbEntity
8
Clefs
6
ByLayer
62
256
370
-1
100
AcDbCircle
10
1162.541755
20
-786.160816515
40
78.5823418239
100
AcDbArc
50
11.6791989156
51
42.9304826619
0
ARC
5
60
100
AcDbEntity
8
Clefs
6
ByLayer
62
256
370
-1
100
AcDbCircle
10
1126.64980657
20
-798.863982813
40
116.417774912
100
AcDbArc
50
340.277124088
51
14.226699552
0
LINE
5
61
100
AcDbEntity
8
Clefs
6
ByLayer
62
256
370
-1
100
AcDbLine
10
1186.80802434
20
-787.499438504
11
1189.47339754
21
-744.887410973
0
LINE
5
62
100
AcDbEntity
8
Clefs
6
ByLayer
62
256
370
-1
100
AcDbLine
10
1197.76072661
20
-750.756340843
11
1197.04409667
21
-760.360898717
0
LINE
5
63
100
AcDbEntity
8
Clefs
6
ByLayer
62
256
370
-1
100
AcDbLine
10
1191.70770415
20
-709.166959209
11
1193.35697627
21
-682.799608718
0
LINE
5
64
100
AcDbEntity
8
Clefs
6
ByLayer
62
256
370
-1
100
AcDbLine
10
1202.73710779
20
-684.060912632
11
1200.32393007
21
-716.403274567
0
LINE
5
65
100
AcDbEntity
8
Clefs
6
ByLayer
62
256
370
-1
100
AcDbLine
10
1199.65385638
20
-582.129717987
11
1201.93556757
21
-545.651396777
0
LINE
5
66
100
AcDbEntity
8
Clefs
6
ByLayer
62
256
370
-1
100
AcDbLine
10
1195.00165514
20
-656.505691981
11
1198.99566942
21
-592.652327324
0
LINE
5
67
100
AcDbEntity
8
Clefs
6
ByLayer
62
256
370
-1
100
AcDbLine
10
1212.75770992
20
-549.760840738
11
1210.16434955
21
-584.518081834
0
LINE
5
68
100
AcDbEntity
8
Clefs
6
ByLayer
62
256
370
-1
100
AcDbLine
10
1209.37033789
20
-595.159740005
11
1204.77171179
21
-656.79234532
0
ARC
5
69
100
AcDbEntity
8
Clefs
6
ByLayer
62
256
370
-1
100
AcDbCircle
10
1421.80251506
20
-425.60846045
40
394.861832921
100
AcDbArc
50
224.531198103
51
233.957811791
0
ARC
5
6A
100
AcDbEntity
8
Clefs
6
ByLayer
62
256
370
-1
100
AcDbCircle
10
1421.80251506
20
-425.60846045
40
394.861832921
100
AcDbArc
50
235.431378016
51
235.972769226
0
ARC
5
6B
100
AcDbEntity
8
Clefs
6
ByLayer
62
256
370
-1
100
AcDbCircle
10
2305.56941234
20
608.351950715
40
1725.26635132
100
AcDbArc
50
229.675253602
51
229.788029852
0
ARC
5
6C
100
AcDbEntity
8
Clefs
6
ByLayer
62
256
370
-1
100
AcDbCircle
10
2305.56941234
20
608.351950715
40
1725.26635132
100
AcDbArc
50
230.161701626
51
231.010857915
0
ARC
5
6D
100
AcDbEntity
8
Clefs
6
ByLayer
62
256
370
-1
100
AcDbCircle
10
1203.69944051
20
-641.394205341
40
42.6775584514
100
AcDbArc
50
227.847156118
51
255.975330826
0
ARC
5
6E
100
AcDbEntity
8
Clefs
6
ByLayer
62
256
370
-1
100
AcDbCircle
10
1203.69944051
20
-641.394205341
40
42.6775584514
100
AcDbArc
50
268.707932713
51
312.152843882
0
ARC
5
6F
100
AcDbEntity
8
Clefs
6
ByLayer
62
256
370
-1
100
AcDbCircle
10
1200.61203625
20
-631.926690834
40
25.2111815193
100
AcDbArc
50
226.234296269
51
257.142005235
0
ARC
5
70
100
AcDbEntity
8
Clefs
6
ByLayer
62
256
370
-1
100
AcDbCircle
10
1200.61203625
20
-631.926690834
40
25.2111815193
100
AcDbArc
50
279.496844111
51
316.461478291
0
ARC
5
71
100
AcDbEntity
8
Clefs
6
ByLayer
62
256
370
-1
100
AcDbCircle
10
1197.63255991
20
-622.910113719
40
30.1306932076
100
AcDbArc
50
42.2429371535
51
67.0727414319
0
ARC
5
72
100
AcDbEntity
8
Clefs
6
ByLayer
62
256
370
-1
100
AcDbCircle
10
1192.41787032
20
-649.48453315
40
57.2115989993
100
AcDbArc
50
83.3979222579
51
146.851244789
0
ARC
5
73
100
AcDbEntity
8
Clefs
6
ByLayer
62
256
370
-1
100
AcDbCircle
10
1191.2743411
20
-643.326512838
40
61.7678231472
100
AcDbArc
50
82.2031272834
51
103.741325144
0
ARC
5
74
100
AcDbEntity
8
Clefs
6
ByLayer
62
256
370
-1
100
AcDbCircle
10
1191.2743411
20
-643.326512838
40
61.7678231472
100
AcDbArc
50
43.5440620057
51
72.1923278071
0
ARC
5
75
100
AcDbEntity
8
Clefs
6
ByLayer
62
256
370
-1
100
AcDbCircle
10
1231.06134351
20
-643.149727121
40
98.337912903
100
AcDbArc
50
324.864191713
51
356.710464652
0
ARC
5
76
100
AcDbEntity
8
Clefs
6
ByLayer
62
256
370
-1
100
AcDbCircle
10
1165.04857624
20
-609.359788034
40
172.08121407
100
AcDbArc
50
310.268912819
51
328.315172244
0
ARC
5
77
100
AcDbEntity
8
Clefs
6
ByLayer
62
256
370
-1
100
AcDbCircle
10
994.928782842
20
-428.622145483
40
420.149382313
100
AcDbArc
50
305.598283899
51
312.039305612
0
ARC
5
78
100
AcDbEntity
8
Clefs
6
ByLayer
62
256
370
-1
100
AcDbCircle
10
1118.0755805
20
-802.100848845
40
125.528755878
100
AcDbArc
50
10.4115243407
51
14.6970160337
0
ARC
5
79
100
AcDbEntity
8
Clefs
6
ByLayer
62
256
370
-1
100
AcDbCircle
10
492.389075636
20
409.934041916
40
1405.62304266
100
AcDbArc
50
302.206034804
51
305.364135827
0
ARC
5
7A
100
AcDbEntity
8
Clefs
6
ByLayer
62
256
370
-1
100
AcDbCircle
10
1150.20247444
20
-546.161593534
40
245.796227052
100
AcDbArc
50
309.311323913
51
324.532588005
0
ARC
5
7B
100
AcDbEntity
8
Clefs
6
ByLayer
62
256
370
-1
100
AcDbCircle
10
1266.60462224
20
-635.88852596
40
99.0846662981
100
AcDbArc
50
327.735770693
51
359.055828957
0
ARC
5
7C
100
AcDbEntity
8
Clefs
6
ByLayer
62
256
370
-1
100
AcDbCircle
10
1308.80940043
20
-636.51603768
40
56.8753188719
100
AcDbArc
50
358.987295973
51
51.3022752884
0
ARC
5
7D
100
AcDbEntity
8
Clefs
6
ByLayer
62
256
370
-1
100
AcDbCircle
10
1301.18110429
20
-644.994382326
40
68.2647082691
100
AcDbArc
50
50.7543740113
51
100.726680692
0
ARC
5
7E
100
AcDbEntity
8
Clefs
6
ByLayer
62
256
370
-1
100
AcDbCircle
10
1301.658938
20
-637.766895488
40
61.27932486
100
AcDbArc
50
102.423656236
51
158.944288724
0
ARC
5
7F
100
AcDbEntity
8
Clefs
6
ByLayer
62
256
370
-1
100
AcDbCircle
10
1192.88798096
20
-635.594418276
40
55.2683829393
100
AcDbArc
50
351.569501984
51
21.0413899705
0
ARC
5
80
100
AcDbEntity
8
Clefs
6
ByLayer
62
256
370
-1
100
AcDbCircle
10
1270.96176921
20
-633.170668362
40
25.6610999879
100
AcDbArc
50
204.218480189
51
318.476436229
0
ARC
5
81
100
AcDbEntity
8
Clefs
6
ByLayer
62
256
370
-1
100
AcDbCircle
10
1276.73347945
20
-633.766651402
40
21.2158013327
100
AcDbArc
50
309.309214046
51
54.3690676011
0
ARC
5
82
100
AcDbEntity
8
Clefs
6
ByLayer
62
256
370
-1
100
AcDbCircle
10
1275.90530758
20
-642.221529483
40
28.8849969675
100
AcDbArc
50
62.834749629
51
111.178986359
0
CIRCLE
5
83
100
AcDbEntity
8
Clefs
6
ByLayer
62
256
370
-1
100
AcDbCircle
10
1381.96512889
20
-605.097071685
40
14.206769428
0
CIRCLE
5
84
100
AcDbEntity
8
Clefs
6
ByLayer
62
256
370
-1
100
AcDbCircle
10
1386.44275458
20
-654.968557817
40
14.9866322976
0
ARC
5
85
100
AcDbEntity
8
Clefs
6
ByLayer
62
256
370
-1
100
AcDbCircle
10
1294.05350771
20
-630.470908409
40
40.3836582645
100
AcDbArc
50
69.4460130795
51
127.198395574
0
ARC
5
86
100
AcDbEntity
8
Clefs
6
ByLayer
62
256
370
-1
100
AcDbCircle
10
1256.51620229
20
-640.274897475
40
73.2181485473
100
AcDbArc
50
353.319532407
51
32.8786163139
0
ARC
5
87
100
AcDbEntity
8
Clefs
6
ByLayer
62
256
370
-1
100
AcDbCircle
10
1301.2100023
20
-611.384837327
40
20
100
AcDbArc
50
32.8786163139
51
69.4460130795
0
ARC
5
88
100
AcDbEntity
8
Clefs
6
ByLayer
62
256
370
-1
100
AcDbCircle
10
1277.17897263
20
-613.066065721
40
16.5769205793
100
AcDbArc
50
117.057130325
51
174.327293985
0
ARC
5
89
100
AcDbEntity
8
Clefs
6
ByLayer
62
256
370
-1
100
AcDbCircle
10
1264.42528973
20
-611.68495382
40
3.75090209833
100
AcDbArc
50
176.064369532
51
286.166637601
0
ARC
5
8A
100
AcDbEntity
8
Clefs
6
ByLayer
62
256
370
-1
100
AcDbCircle
10
1170.65838849
20
-537.026506483
40
34.0758185814
100
AcDbArc
50
98.6902633427
51
167.346838299
0
ARC
5
8B
100
AcDbEntity
8
Clefs
6
ByLayer
62
256
370
-1
100
AcDbCircle
10
1179.2603387
20
-536.555342113
40
32.6430597352
100
AcDbArc
50
7.51578684114
51
73.9085332977
0
ARC
5
8C
100
AcDbEntity
8
Clefs
6
ByLayer
62
256
370
-1
100
AcDbCircle
10
1171.24461242
20
-574.095383949
40
70.9855257617
100
AcDbArc
50
76.0910694872
51
94.6339078775
0
ARC
5
8D
100
AcDbEntity
8
Clefs
6
ByLayer
62
256
370
-1
100
AcDbCircle
10
1177.65868512
20
-547.084427295
40
31.308698506
100
AcDbArc
50
75.5555081504
51
122.609628339
0
ARC
5
8E
100
AcDbEntity
8
Clefs
6
ByLayer
62
256
370
-1
100
AcDbCircle
10
1171.11892295
20
-543.640128599
40
30.8822082272
100
AcDbArc
50
356.265850005
51
55.4092858887
0
ARC
5
8F
100
AcDbEntity
8
Clefs
6
ByLayer
62
256
370
-1
100
AcDbCircle
10
1182.97396833
20
-526.449301987
40
10
100
AcDbArc
50
55.4092858887
51
75.5555081504
0
ARC
5
90
100
AcDbEntity
8
Clefs
6
ByLayer
62
256
370
-1
100
AcDbCircle
10
1183.60745968
20
-608.87957996
40
4.56936422214
100
AcDbArc
50
291.177442137
51
14.6756560844
0
ARC
5
91
100
AcDbEntity
8
Clefs
6
ByLayer
62
256
370
-1
100
AcDbCircle
10
1195.94333498
20
-632.189366177
40
22.0243245266
100
AcDbArc
50
126.028646966
51
234.562094637
0
ARC
5
92
100
AcDbEntity
8
Clefs
6
ByLayer
62
256
370
-1
100
AcDbCircle
10
1188.87075145
20
-622.465018251
40
10
100
AcDbArc
50
111.177442137
51
126.028646966
0
ARC
5
93
100
AcDbEntity
8
Clefs
6
ByLayer
62
256
370
-1
100
AcDbCircle
10
1183.71078529
20
-610.186100161
40
4.97073915586
100
AcDbArc
50
29.7180336905
51
118.472709307
0
ARC
5
94
100
AcDbEntity
8
Clefs
6
ByLayer
62
256
370
-1
100
AcDbCircle
10
1188.50784864
20
-631.800958004
40
26.7656395443
100
AcDbArc
50
108.941488949
51
150.656014224
0
ARC
5
95
100
AcDbEntity
8
Clefs
6
ByLayer
62
256
370
-1
100
AcDbCircle
10
1176.57363339
20
-597.026157395
40
10
100
AcDbArc
50
288.941488949
51
298.472709307
0
ARC
5
96
100
AcDbEntity
8
Clefs
6
ByLayer
62
256
370
-1
100
AcDbCircle
10
1262.00864917
20
-785.517931451
40
75.2267262647
100
AcDbArc
50
181.509372126
51
234.119905605
0
ARC
5
97
100
AcDbEntity
8
Clefs
6
ByLayer
62
256
370
-1
100
AcDbCircle
10
1222.76054851
20
-834.551263155
40
13.9500974819
100
AcDbArc
50
284.954198701
51
345.043341365
0
ARC
5
98
100
AcDbEntity
8
Clefs
6
ByLayer
62
256
370
-1
100
AcDbCircle
10
1223.77985859
20
-838.367580368
40
10
100
AcDbArc
50
234.119905605
51
284.954198701
0
ENDBLK
5
4A
330
48
100
AcDbEntity
8
0
100
AcDbBlockEnd
0
BLOCK
5
4C
330
4B
100
AcDbEntity
8
0
100
AcDbBlockBegin
2
2019-02-16 Clefs-0
70
0
10
0
20
0
3
2019-02-16 Clefs-0
1

0
ARC
5
99
100
AcDbEntity
8
Clefs
6
ByLayer
62
256
370
-1
100
AcDbCircle
10
1159.76476354
20
-541.250196246
40
20.5643972408
100
AcDbArc
50
272.846616916
51
87.1533830842
0
ARC
5
9A
100
AcDbEntity
8
Clefs
6
ByLayer
62
256
370
-1
100
AcDbCircle
10
1161.51739287
20
-536.66736316
40
25.1324984993
100
AcDbArc
50
163.578201048
51
268.332465883
0
ARC
5
9B
100
AcDbEntity
8
Clefs
6
ByLayer
62
256
370
-1
100
AcDbCircle
10
1157.63940259
20
-544.565513974
40
55.3626157484
100
AcDbArc
50
354.615338746
51
12.8152394652
0
ARC
5
9C
100
AcDbEntity
8
Clefs
6
ByLayer
62
256
370
-1
100
AcDbCircle
10
1261.16922562
20
-764.167153251
40
64.2379929381
100
AcDbArc
50
176.603098548
51
229.717226985
0
ARC
5
9D
100
AcDbEntity
8
Clefs
6
ByLayer
62
256
370
-1
100
AcDbCircle
10
1223.45845574
20
-805.917407432
40
8.20019389616
100
AcDbArc
50
242.211734945
51
342.061037593
0
ARC
5
9E
100
AcDbEntity
8
Clefs
6
ByLayer
62
256
370
-1
100
AcDbCircle
10
1191.29599051
20
-801.569886335
40
40.5507456402
100
AcDbArc
50
350.241452324
51
35.492755956
0
ARC
5
9F
100
AcDbEntity
8
Clefs
6
ByLayer
62
256
370
-1
100
AcDbCircle
10
1120.44539208
20
-851.357046116
40
127.144358987
100
AcDbArc
50
35.2225067463
51
50.7775086556
0
ARC
5
A0
100
AcDbEntity
8
Clefs
6
ByLayer
62
256
370
-1
100
AcDbCircle
10
1196.95131635
20
-654.642269501
40
74.1620869719
100
AcDbArc
50
105.925582105
51
220.21348529
0
ARC
5
A1
100
AcDbEntity
8
Clefs
6
ByLayer
62
256
370
-1
100
AcDbCircle
10
1193.37845869
20
-634.810627947
40
54.5807100522
100
AcDbArc
50
315.548891111
51
38.5797619961
0
ARC
5
A2
100
AcDbEntity
8
Clefs
6
ByLayer
62
256
370
-1
100
AcDbCircle
10
1202.74631197
20
-639.926407176
40
43.1592323101
100
AcDbArc
50
150.516203418
51
230.09348952
0
ARC
5
A3
100
AcDbEntity
8
Clefs
6
ByLayer
62
256
370
-1
100
AcDbCircle
10
1202.71955488
20
-628.397427258
40
26.42062834
100
AcDbArc
50
307.731322519
51
8.24611108468
0
ARC
5
A4
100
AcDbEntity
8
Clefs
6
ByLayer
62
256
370
-1
100
AcDbCircle
10
1201.98008842
20
-622.750248006
40
26.9510419751
100
AcDbArc
50
356.047353866
51
48.2156560848
0
ARC
5
A5
100
AcDbEntity
8
Clefs
6
ByLayer
62
256
370
-1
100
AcDbCircle
10
1189.96899097
20
-640.866124416
40
50.7897269309
100
AcDbArc
50
153.495632892
51
222.110449627
0
ARC
5
A6
100
AcDbEntity
8
Clefs
6
ByLayer
62
256
370
-1
100
AcDbCircle
10
1282.99365845
20
-561.916888784
40
172.782771631
100
AcDbArc
50
220.846919162
51
237.089769199
0
ARC
5
A7
100
AcDbEntity
8
Clefs
6
ByLayer
62
256
370
-1
100
AcDbCircle
10
1162.541755
20
-786.160816515
40
78.5823418239
100
AcDbArc
50
11.6791989156
51
42.9304826619
0
ARC
5
A8
100
AcDbEntity
8
Clefs
6
ByLayer
62
256
370
-1
100
AcDbCircle
10
1126.64980657
20
-798.863982813
40
116.417774912
100
AcDbArc
50
340.277124088
51
14.226699552
0
LINE
5
A9
100
AcDbEntity
8
Clefs
6
ByLayer
62
256
370
-1
100
AcDbLine
10
1186.80802434
20
-787.499438504
11
1189.47339754
21
-744.887410973
0
LINE
5
AA
100
AcDbEntity
8
Clefs
6
ByLayer
62
256
370
-1
100
AcDbLine
10
1197.76072661
20
-750.756340843
11
1197.04409667
21
-760.360898717
0
LINE
5
AB
100
AcDbEntity
8
Clefs
6
ByLayer
62
256
370
-1
100
AcDbLine
10
1191.70770415
20
-709.166959209
11
1193.35697627
21
-682.799608718
0
LINE
5
AC
100
AcDbEntity
8
Clefs
6
ByLayer
62
256
370
-1
100
AcDbLine
10
1202.73710779
20
-684.060912632
11
1200.32393007
21
-716.403274567
0
LINE
5
AD
100
AcDbEntity
8
Clefs
6
ByLayer
62
256
370
-1
100
AcDbLine
10
1199.65385638
20
-582.129717987
11
1201.93556757
21
-545.651396777
0
LINE
5
AE
100
AcDbEntity
8
Clefs
6
ByLayer
62
256
370
-1
100
AcDbLine
10
1195.00165514
20
-656.505691981
11
1198.99566942
21
-592.652327324
0
LINE
5
AF
100
AcDbEntity
8
Clefs
6
ByLayer
62
256
370
-1
100
AcDbLine
10
1212.75770992
20
-549.760840738
11
1210.16434955
21
-584.518081834
0
LINE
5
B0
100
AcDbEntity
8
Clefs
6
ByLayer
62
256
370
-1
100
AcDbLine
10
1209.37033789
20
-595.159740005
11
1204.77171179
21
-656.79234532
0
ARC
5
B1
100
AcDbEntity
8
Clefs
6
ByLayer
62
256
370
-1
100
AcDbCircle
10
1421.80251506
20
-425.60846045
40
394.861832921
100
AcDbArc
50
224.531198103
51
233.957811791
0
ARC
5
B2
100
AcDbEntity
8
Clefs
6
ByLayer
62
256
370
-1
100
AcDbCircle
10
1421.80251506
20
-425.60846045
40
394.861832921
100
AcDbArc
50
235.431378016
51
235.972769226
0
ARC
5
B3
100
AcDbEntity
8
Clefs
6
ByLayer
62
256
370
-1
100
AcDbCircle
10
2305.56941234
20
608.351950715
40
1725.26635132
100
AcDbArc
50
229.675253602
51
229.788029852
0
ARC
5
B4
100
AcDbEntity
8
Clefs
6
ByLayer
62
256
370
-1
100
AcDbCircle
10
2305.56941234
20
608.351950715
40
1725.26635132
100
AcDbArc
50
230.161701626
51
231.010857915
0
ARC
5
B5
100
AcDbEntity
8
Clefs
6
ByLayer
62
256
370
-1
100
AcDbCircle
10
1203.69944051
20
-641.394205341
40
42.6775584514
100
AcDbArc
50
227.847156118
51
255.975330826
0
ARC
5
B6
100
AcDbEntity
8
Clefs
6
ByLayer
62
256
370
-1
100
AcDbCircle
10
1203.69944051
20
-641.394205341
40
42.6775584514
100
AcDbArc
50
268.707932713
51
312.152843882
0
ARC
5
B7
100
AcDbEntity
8
Clefs
6
ByLayer
62
256
370
-1
100
AcDbCircle
10
1200.61203625
20
-631.926690834
40
25.2111815193
100
AcDbArc
50
226.234296269
51
257.142005235
0
ARC
5
B8
100
AcDbEntity
8
Clefs
6
ByLayer
62
256
370
-1
100
AcDbCircle
10
1200.61203625
20
-631.926690834
40
25.2111815193
100
AcDbArc
50
279.496844111
51
316.461478291
0
ARC
5
B9
100
AcDbEntity
8
Clefs
6
ByLayer
62
256
370
-1
100
AcDbCircle
10
1197.63255991
20
-622.910113719
40
30.1306932076
100
AcDbArc
50
42.2429371535
51
67.0727414319
0
ARC
5
BA
100
AcDbEntity
8
Clefs
6
ByLayer
62
256
370
-1
100
AcDbCircle
10
1192.41787032
20
-649.48453315
40
57.2115989993
100
AcDbArc
50
83.3979222579
51
146.851244789
0
ARC
5
BB
100
AcDbEntity
8
Clefs
6
ByLayer
62
256
370
-1
100
AcDbCircle
10
1191.2743411
20
-643.326512838
40
61.7678231472
100
AcDbArc
50
82.2031272834
51
103.741325144
0
ARC
5
BC
100
AcDbEntity
8
Clefs
6
ByLayer
62
256
370
-1
100
AcDbCircle
10
1191.2743411
20
-643.326512838
40
61.7678231472
100
AcDbArc
50
43.5440620057
51
72.1923278071
0
ARC
5
BD
100
AcDbEntity
8
Clefs
6
ByLayer
62
256
370
-1
100
AcDbCircle
10
1231.06134351
20
-643.149727121
40
98.337912903
100
AcDbArc
50
324.864191713
51
356.710464652
0
ARC
5
BE
100
AcDbEntity
8
Clefs
6
ByLayer
62
256
370
-1
100
AcDbCircle
10
1165.04857624
20
-609.359788034
40
172.08121407
100
AcDbArc
50
310.268912819
51
328.315172244
0
ARC
5
BF
100
AcDbEntity
8
Clefs
6
ByLayer
62
256
370
-1
100
AcDbCircle
10
994.928782842
20
-428.622145483
40
420.149382313
100
AcDbArc
50
305.598283899
51
312.039305612
0
ARC
5
C0
100
AcDbEntity
8
Clefs
6
ByLayer
62
256
370
-1
100
AcDbCircle
10
1118.0755805
20
-802.100848845
40
125.528755878
100
AcDbArc
50
10.4115243407
51
14.6970160337
0
ARC
5
C1
100
AcDbEntity
8
Clefs
6
ByLayer
62
256
370
-1
100
AcDbCircle
10
492.389075636
20
409.934041916
40
1405.62304266
100
AcDbArc
50
302.206034804
51
305.364135827
0
ARC
5
C2
100
AcDbEntity
8
Clefs
6
ByLayer
62
256
370
-1
100
AcDbCircle
10
1150.20247444
20
-546.161593534
40
245.796227052
100
AcDbArc
50
309.311323913
51
324.532588005
0
ARC
5
C3
100
AcDbEntity
8
Clefs
6
ByLayer
62
256
370
-1
100
AcDbCircle
10
1266.60462224
20
-635.88852596
40
99.0846662981
100
AcDbArc
50
327.735770693
51
359.055828957
0
ARC
5
C4
100
AcDbEntity
8
Clefs
6
ByLayer
62
256
370
-1
100
AcDbCircle
10
1308.80940043
20
-636.51603768
40
56.8753188719
100
AcDbArc
50
358.987295973
51
51.3022752884
0
ARC
5
C5
100
AcDbEntity
8
Clefs
6
ByLayer
62
256
370
-1
100
AcDbCircle
10
1301.18110429
20
-644.994382326
40
68.2647082691
100
AcDbArc
50
50.7543740113
51
100.726680692
0
ARC
5
C6
100
AcDbEntity
8
Clefs
6
ByLayer
62
256
370
-1
100
AcDbCircle
10
1301.658938
20
-637.766895488
40
61.27932486
100
AcDbArc
50
102.423656236
51
158.944288724
0
ARC
5
C7
100
AcDbEntity
8
Clefs
6
ByLayer
62
256
370
-1
100
AcDbCircle
10
1192.88798096
20
-635.594418276
40
55.2683829393
100
AcDbArc
50
351.569501984
51
21.0413899705
0
ARC
5
C8
100
AcDbEntity
8
Clefs
6
ByLayer
62
256
370
-1
100
AcDbCircle
10
1270.96176921
20
-633.170668362
40
25.6610999879
100
AcDbArc
50
204.218480189
51
318.476436229
0
ARC
5
C9
100
AcDbEntity
8
Clefs
6
ByLayer
62
256
370
-1
100
AcDbCircle
10
1276.73347945
20
-633.766651402
40
21.2158013327
100
AcDbArc
50
309.309214046
51
54.3690676011
0
ARC
5
CA
100
AcDbEntity
8
Clefs
6
ByLayer
62
256
370
-1
100
AcDbCircle
10
1275.90530758
20
-642.221529483
40
28.8849969675
100
AcDbArc
50
62.834749629
51
111.178986359
0
CIRCLE
5
CB
100
AcDbEntity
8
Clefs
6
ByLayer
62
256
370
-1
100
AcDbCircle
10
1381.96512889
20
-605.097071685
40
14.206769428
0
CIRCLE
5
CC
100
AcDbEntity
8
Clefs
6
ByLayer
62
256
370
-1
100
AcDbCircle
10
1386.44275458
20
-654.968557817
40
14.9866322976
0
ARC
5
CD
100
AcDbEntity
8
Clefs
6
ByLayer
62
256
370
-1
100
AcDbCircle
10
1294.05350771
20
-630.470908409
40
40.3836582645
100
AcDbArc
50
69.4460130795
51
127.198395574
0
ARC
5
CE
100
AcDbEntity
8
Clefs
6
ByLayer
62
256
370
-1
100
AcDbCircle
10
1256.51620229
20
-640.274897475
40
73.2181485473
100
AcDbArc
50
353.319532407
51
32.8786163139
0
ARC
5
CF
100
AcDbEntity
8
Clefs
6
ByLayer
62
256
370
-1
100
AcDbCircle
10
1301.2100023
20
-611.384837327
40
20
100
AcDbArc
50
32.8786163139
51
69.4460130795
0
ARC
5
D0
100
AcDbEntity
8
Clefs
6
ByLayer
62
256
370
-1
100
AcDbCircle
10
1277.17897263
20
-613.066065721
40
16.5769205793
100
AcDbArc
50
117.057130325
51
174.327293985
0
ARC
5
D1
100
AcDbEntity
8
Clefs
6
ByLayer
62
256
370
-1
100
AcDbCircle
10
1264.42528973
20
-611.68495382
40
3.75090209833
100
AcDbArc
50
176.064369532
51
286.166637601
0
ARC
5
D2
100
AcDbEntity
8
Clefs
6
ByLayer
62
256
370
-1
100
AcDbCircle
10
1170.65838849
20
-537.026506483
40
34.0758185814
100
AcDbArc
50
98.6902633427
51
167.346838299
0
ARC
5
D3
100
AcDbEntity
8
Clefs
6
ByLayer
62
256
370
-1
100
AcDbCircle
10
1179.2603387
20
-536.555342113
40
32.6430597352
100
AcDbArc
50
7.51578684114
51
73.9085332977
0
ARC
5
D4
100
AcDbEntity
8
Clefs
6
ByLayer
62
256
370
-1
100
AcDbCircle
10
1171.24461242
20
-574.095383949
40
70.9855257617
100
AcDbArc
50
76.0910694872
51
94.6339078775
0
ARC
5
D5
100
AcDbEntity
8
Clefs
6
ByLayer
62
256
370
-1
100
AcDbCircle
10
1177.65868512
20
-547.084427295
40
31.308698506
100
AcDbArc
50
75.5555081504
51
122.609628339
0
ARC
5
D6
100
AcDbEntity
8
Clefs
6
ByLayer
62
256
370
-1
100
AcDbCircle
10
1171.11892295
20
-543.640128599
40
30.8822082272
100
AcDbArc
50
356.265850005
51
55.4092858887
0
ARC
5
D7
100
AcDbEntity
8
Clefs
6
ByLayer
62
256
370
-1
100
AcDbCircle
10
1182.97396833
20
-526.449301987
40
10
100
AcDbArc
50
55.4092858887
51
75.5555081504
0
ARC
5
D8
100
AcDbEntity
8
Clefs
6
ByLayer
62
256
370
-1
100
AcDbCircle
10
1183.60745968
20
-608.87957996
40
4.56936422214
100
AcDbArc
50
291.177442137
51
14.6756560844
0
ARC
5
D9
100
AcDbEntity
8
Clefs
6
ByLayer
62
256
370
-1
100
AcDbCircle
10
1195.94333498
20
-632.189366177
40
22.0243245266
100
AcDbArc
50
126.028646966
51
234.562094637
0
ARC
5
DA
100
AcDbEntity
8
Clefs
6
ByLayer
62
256
370
-1
100
AcDbCircle
10
1188.87075145
20
-622.465018251
40
10
100
AcDbArc
50
111.177442137
51
126.028646966
0
ARC
5
DB
100
AcDbEntity
8
Clefs
6
ByLayer
62
256
370
-1
100
AcDbCircle
10
1183.71078529
20
-610.186100161
40
4.97073915586
100
AcDbArc
50
29.7180336905
51
118.472709307
0
ARC
5
DC
100
AcDbEntity
8
Clefs
6
ByLayer
62
256
370
-1
100
AcDbCircle
10
1188.50784864
20
-631.800958004
40
26.7656395443
100
AcDbArc
50
108.941488949
51
150.656014224
0
ARC
5
DD
100
AcDbEntity
8
Clefs
6
ByLayer
62
256
370
-1
100
AcDbCircle
10
1176.57363339
20
-597.026157395
40
10
100
AcDbArc
50
288.941488949
51
298.472709307
0
ARC
5
DE
100
AcDbEntity
8
Clefs
6
ByLayer
62
256
370
-1
100
AcDbCircle
10
1262.00864917
20
-785.517931451
40
75.2267262647
100
AcDbArc
50
181.509372126
51
234.119905605
0
ARC
5
DF
100
AcDbEntity
8
Clefs
6
ByLayer
62
256
370
-1
100
AcDbCircle
10
1222.76054851
20
-834.551263155
40
13.9500974819
100
AcDbArc
50
284.954198701
51
345.043341365
0
ARC
5
E0
100
AcDbEntity
8
Clefs
6
ByLayer
62
256
370
-1
100
AcDbCircle
10
1223.77985859
20
-838.367580368
40
10
100
AcDbArc
50
234.119905605
51
284.954198701
0
ENDBLK
5
4D
330
4B
100
AcDbEntity
8
0
100
AcDbBlockEnd
0
BLOCK
5
4F
330
4E
100
AcDbEntity
8
0
100
AcDbBlockBegin
2
2019-02-16 Clefs-1
70
0
10
0
20
0
3
2019-02-16 Clefs-1
1

0
ARC
5
E1
100
AcDbEntity
8
Clefs
6
ByLayer
62
256
370
-1
100
AcDbCircle
10
1159.76476354
20
-541.250196246
40
20.5643972408
100
AcDbArc
50
272.846616916
51
87.1533830842
0
ARC
5
E2
100
AcDbEntity
8
Clefs
6
ByLayer
62
256
370
-1
100
AcDbCircle
10
1161.51739287
20
-536.66736316
40
25.1324984993
100
AcDbArc
50
163.578201048
51
268.332465883
0
ARC
5
E3
100
AcDbEntity
8
Clefs
6
ByLayer
62
256
370
-1
100
AcDbCircle
10
1157.63940259
20
-544.565513974
40
55.3626157484
100
AcDbArc
50
354.615338746
51
12.8152394652
0
ARC
5
E4
100
AcDbEntity
8
Clefs
6
ByLayer
62
256
370
-1
100
AcDbCircle
10
1261.16922562
20
-764.167153251
40
64.2379929381
100
AcDbArc
50
176.603098548
51
229.717226985
0
ARC
5
E5
100
AcDbEntity
8
Clefs
6
ByLayer
62
256
370
-1
100
AcDbCircle
10
1223.45845574
20
-805.917407432
40
8.20019389616
100
AcDbArc
50
242.211734945
51
342.061037593
0
ARC
5
E6
100
AcDbEntity
8
Clefs
6
ByLayer
62
256
370
-1
100
AcDbCircle
10
1191.29599051
20
-801.569886335
40
40.5507456402
100
AcDbArc
50
350.241452324
51
35.492755956
0
ARC
5
E7
100
AcDbEntity
8
Clefs
6
ByLayer
62
256
370
-1
100
AcDbCircle
10
1120.44539208
20
-851.357046116
40
127.144358987
100
AcDbArc
50
35.2225067463
51
50.7775086556
0
ARC
5
E8
100
AcDbEntity
8
Clefs
6
ByLayer
62
256
370
-1
100
AcDbCircle
10
1196.95131635
20
-654.642269501
40
74.1620869719
100
AcDbArc
50
105.925582105
51
220.21348529
0
ARC
5
E9
100
AcDbEntity
8
Clefs
6
ByLayer
62
256
370
-1
100
AcDbCircle
10
1193.37845869
20
-634.810627947
40
54.5807100522
100
AcDbArc
50
315.548891111
51
38.5797619961
0
ARC
5
EA
100
AcDbEntity
8
Clefs
6
ByLayer
62
256
370
-1
100
AcDbCircle
10
1202.74631197
20
-639.926407176
40
43.1592323101
100
AcDbArc
50
150.516203418
51
230.09348952
0
ARC
5
EB
100
AcDbEntity
8
Clefs
6
ByLayer
62
256
370
-1
100
AcDbCircle
10
1202.71955488
20
-628.397427258
40
26.42062834
100
AcDbArc
50
307.731322519
51
8.24611108468
0
ARC
5
EC
100
AcDbEntity
8
Clefs
6
ByLayer
62
256
370
-1
100
AcDbCircle
10
1201.98008842
20
-622.750248006
40
26.9510419751
100
AcDbArc
50
356.047353866
51
48.2156560848
0
ARC
5
ED
100
AcDbEntity
8
Clefs
6
ByLayer
62
256
370
-1
100
AcDbCircle
10
1189.96899097
20
-640.866124416
40
50.7897269309
100
AcDbArc
50
153.495632892
51
222.110449627
0
ARC
5
EE
100
AcDbEntity
8
Clefs
6
ByLayer
62
256
370
-1
100
AcDbCircle
10
1282.99365845
20
-561.916888784
40
172.782771631
100
AcDbArc
50
220.846919162
51
237.089769199
0
ARC
5
EF
100
AcDbEntity
8
Clefs
6
ByLayer
62
256
370
-1
100
AcDbCircle
10
1162.541755
20
-786.160816515
40
78.5823418239
100
AcDbArc
50
11.6791989156
51
42.9304826619
0
ARC
5
F0
100
AcDbEntity
8
Clefs
6
ByLayer
62
256
370
-1
100
AcDbCircle
10
1126.64980657
20
-798.863982813
40
116.417774912
100
AcDbArc
50
340.277124088
51
14.226699552
0
LINE
5
F1
100
AcDbEntity
8
Clefs
6
ByLayer
62
256
370
-1
100
AcDbLine
10
1186.80802434
20
-787.499438504
11
1189.47339754
21
-744.887410973
0
LINE
5
F2
100
AcDbEntity
8
Clefs
6
ByLayer
62
256
370
-1
100
AcDbLine
10
1197.76072661
20
-750.756340843
11
1197.04409667
21
-760.360898717
0
LINE
5
F3
100
AcDbEntity
8
Clefs
6
ByLayer
62
256
370
-1
100
AcDbLine
10
1191.70770415
20
-709.166959209
11
1193.35697627
21
-682.799608718
0
LINE
5
F4
100
AcDbEntity
8
Clefs
6
ByLayer
62
256
370
-1
100
AcDbLine
10
1202.73710779
20
-684.060912632
11
1200.32393007
21
-716.403274567
0
LINE
5
F5
100
AcDbEntity
8
Clefs
6
ByLayer
62
256
370
-1
100
AcDbLine
10
1199.65385638
20
-582.129717987
11
1201.93556757
21
-545.651396777
0
LINE
5
F6
100
AcDbEntity
8
Clefs
6
ByLayer
62
256
370
-1
100
AcDbLine
10
1195.00165514
20
-656.505691981
11
1198.99566942
21
-592.652327324
0
LINE
5
F7
100
AcDbEntity
8
Clefs
6
ByLayer
62
256
370
-1
100
AcDbLine
10
1212.75770992
20
-549.760840738
11
1210.16434955
21
-584.518081834
0
LINE
5
F8
100
AcDbEntity
8
Clefs
6
ByLayer
62
256
370
-1
100
AcDbLine
10
1209.37033789
20
-595.159740005
11
1204.77171179
21
-656.79234532
0
ARC
5
F9
100
AcDbEntity
8
Clefs
6
ByLayer
62
256
370
-1
100
AcDbCircle
10
1421.80251506
20
-425.60846045
40
394.861832921
100
AcDbArc
50
224.531198103
51
233.957811791
0
ARC
5
FA
100
AcDbEntity
8
Clefs
6
ByLayer
62
256
370
-1
100
AcDbCircle
10
1421.80251506
20
-425.60846045
40
394.861832921
100
AcDbArc
50
235.431378016
51
235.972769226
0
ARC
5
FB
100
AcDbEntity
8
Clefs
6
ByLayer
62
256
370
-1
100
AcDbCircle
10
2305.56941234
20
608.351950715
40
1725.26635132
100
AcDbArc
50
229.675253602
51
229.788029852
0
ARC
5
FC
100
AcDbEntity
8
Clefs
6
ByLayer
62
256
370
-1
100
AcDbCircle
10
2305.56941234
20
608.351950715
40
1725.26635132
100
AcDbArc
50
230.161701626
51
231.010857915
0
ARC
5
FD
100
AcDbEntity
8
Clefs
6
ByLayer
62
256
370
-1
100
AcDbCircle
10
1203.69944051
20
-641.394205341
40
42.6775584514
100
AcDbArc
50
227.847156118
51
255.975330826
0
ARC
5
FE
100
AcDbEntity
8
Clefs
6
ByLayer
62
256
370
-1
100
AcDbCircle
10
1203.69944051
20
-641.394205341
40
42.6775584514
100
AcDbArc
50
268.707932713
51
312.152843882
0
ARC
5
FF
100
AcDbEntity
8
Clefs
6
ByLayer
62
256
370
-1
100
AcDbCircle
10
1200.61203625
20
-631.926690834
40
25.2111815193
100
AcDbArc
50
226.234296269
51
257.142005235
0
ARC
5
100
100
AcDbEntity
8
Clefs
6
ByLayer
62
256
370
-1
100
AcDbCircle
10
1200.61203625
20
-631.926690834
40
25.2111815193
100
AcDbArc
50
279.496844111
51
316.461478291
0
ARC
5
101
100
AcDbEntity
8
Clefs
6
ByLayer
62
256
370
-1
100
AcDbCircle
10
1197.63255991
20
-622.910113719
40
30.1306932076
100
AcDbArc
50
42.2429371535
51
67.0727414319
0
ARC
5
102
100
AcDbEntity
8
Clefs
6
ByLayer
62
256
370
-1
100
AcDbCircle
10
1192.41787032
20
-649.48453315
40
57.2115989993
100
AcDbArc
50
83.3979222579
51
146.851244789
0
ARC
5
103
100
AcDbEntity
8
Clefs
6
ByLayer
62
256
370
-1
100
AcDbCircle
10
1191.2743411
20
-643.326512838
40
61.7678231472
100
AcDbArc
50
82.2031272834
51
103.741325144
0
ARC
5
104
100
AcDbEntity
8
Clefs
6
ByLayer
62
256
370
-1
100
AcDbCircle
10
1191.2743411
20
-643.326512838
40
61.7678231472
100
AcDbArc
50
43.5440620057
51
72.1923278071
0
ARC
5
105
100
AcDbEntity
8
Clefs
6
ByLayer
62
256
370
-1
100
AcDbCircle
10
1231.06134351
20
-643.149727121
40
98.337912903
100
AcDbArc
50
324.864191713
51
356.710464652
0
ARC
5
106
100
AcDbEntity
8
Clefs
6
ByLayer
62
256
370
-1
100
AcDbCircle
10
1165.04857624
20
-609.359788034
40
172.08121407
100
AcDbArc
50
310.268912819
51
328.315172244
0
ARC
5
107
100
AcDbEntity
8
Clefs
6
ByLayer
62
256
370
-1
100
AcDbCircle
10
994.928782842
20
-428.622145483
40
420.149382313
100
AcDbArc
50
305.598283899
51
312.039305612
0
ARC
5
108
100
AcDbEntity
8
Clefs
6
ByLayer
62
256
370
-1
100
AcDbCircle
10
1118.0755805
20
-802.100848845
40
125.528755878
100
AcDbArc
50
10.4115243407
51
14.6970160337
0
ARC
5
109
100
AcDbEntity
8
Clefs
6
ByLayer
62
256
370
-1
100
AcDbCircle
10
492.389075636
20
409.934041916
40
1405.62304266
100
AcDbArc
50
302.206034804
51
305.364135827
0
ARC
5
10A
100
AcDbEntity
8
Clefs
6
ByLayer
62
256
370
-1
100
AcDbCircle
10
1150.20247444
20
-546.161593534
40
245.796227052
100
AcDbArc
50
309.311323913
51
324.532588005
0
ARC
5
10B
100
AcDbEntity
8
Clefs
6
ByLayer
62
256
370
-1
100
AcDbCircle
10
1266.60462224
20
-635.88852596
40
99.0846662981
100
AcDbArc
50
327.735770693
51
359.055828957
0
ARC
5
10C
100
AcDbEntity
8
Clefs
6
ByLayer
62
256
370
-1
100
AcDbCircle
10
1308.80940043
20
-636.51603768
40
56.8753188719
100
AcDbArc
50
358.987295973
51
51.3022752884
0
ARC
5
10D
100
AcDbEntity
8
Clefs
6
ByLayer
62
256
370
-1
100
AcDbCircle
10
1301.18110429
20
-644.994382326
40
68.2647082691
100
AcDbArc
50
50.7543740113
51
100.726680692
0
ARC
5
10E
100
AcDbEntity
8
Clefs
6
ByLayer
62
256
370
-1
100
AcDbCircle
10
1301.658938
20
-637.766895488
40
61.27932486
100
AcDbArc
50
102.423656236
51
158.944288724
0
ARC
5
10F
100
AcDbEntity
8
Clefs
6
ByLayer
62
256
370
-1
100
AcDbCircle
10
1192.88798096
20
-635.594418276
40
55.2683829393
100
AcDbArc
50
351.569501984
51
21.0413899705
0
ARC
5
110
100
AcDbEntity
8
Clefs
6
ByLayer
62
256
370
-1
100
AcDbCircle
10
1270.96176921
20
-633.170668362
40
25.6610999879
100
AcDbArc
50
204.218480189
51
318.476436229
0
ARC
5
111
100
AcDbEntity
8
Clefs
6
ByLayer
62
256
370
-1
100
AcDbCircle
10
1276.73347945
20
-633.766651402
40
21.2158013327
100
AcDbArc
50
309.309214046
51
54.3690676011
0
ARC
5
112
100
AcDbEntity
8
Clefs
6
ByLayer
62
256
370
-1
100
AcDbCircle
10
1275.90530758
20
-642.221529483
40
28.8849969675
100
AcDbArc
50
62.834749629
51
111.178986359
0
CIRCLE
5
113
100
AcDbEntity
8
Clefs
6
ByLayer
62
256
370
-1
100
AcDbCircle
10
1381.96512889
20
-605.097071685
40
14.206769428
0
CIRCLE
5
114
100
AcDbEntity
8
Clefs
6
ByLayer
62
256
370
-1
100
AcDbCircle
10
1386.44275458
20
-654.968557817
40
14.9866322976
0
ARC
5
115
100
AcDbEntity
8
Clefs
6
ByLayer
62
256
370
-1
100
AcDbCircle
10
1294.05350771
20
-630.470908409
40
40.3836582645
100
AcDbArc
50
69.4460130795
51
127.198395574
0
ARC
5
116
100
AcDbEntity
8
Clefs
6
ByLayer
62
256
370
-1
100
AcDbCircle
10
1256.51620229
20
-640.274897475
40
73.2181485473
100
AcDbArc
50
353.319532407
51
32.8786163139
0
ARC
5
117
100
AcDbEntity
8
Clefs
6
ByLayer
62
256
370
-1
100
AcDbCircle
10
1301.2100023
20
-611.384837327
40
20
100
AcDbArc
50
32.8786163139
51
69.4460130795
0
ARC
5
118
100
AcDbEntity
8
Clefs
6
ByLayer
62
256
370
-1
100
AcDbCircle
10
1277.17897263
20
-613.066065721
40
16.5769205793
100
AcDbArc
50
117.057130325
51
174.327293985
0
ARC
5
119
100
AcDbEntity
8
Clefs
6
ByLayer
62
256
370
-1
100
AcDbCircle
10
1264.42528973
20
-611.68495382
40
3.75090209833
100
AcDbArc
50
176.064369532
51
286.166637601
0
ARC
5
11A
100
AcDbEntity
8
Clefs
6
ByLayer
62
256
370
-1
100
AcDbCircle
10
1170.65838849
20
-537.026506483
40
34.0758185814
100
AcDbArc
50
98.6902633427
51
167.346838299
0
ARC
5
11B
100
AcDbEntity
8
Clefs
6
ByLayer
62
256
370
-1
100
AcDbCircle
10
1179.2603387
20
-536.555342113
40
32.6430597352
100
AcDbArc
50
7.51578684114
51
73.9085332977
0
ARC
5
11C
100
AcDbEntity
8
Clefs
6
ByLayer
62
256
370
-1
100
AcDbCircle
10
1171.24461242
20
-574.095383949
40
70.9855257617
100
AcDbArc
50
76.0910694872
51
94.6339078775
0
ARC
5
11D
100
AcDbEntity
8
Clefs
6
ByLayer
62
256
370
-1
100
AcDbCircle
10
1177.65868512
20
-547.084427295
40
31.308698506
100
AcDbArc
50
75.5555081504
51
122.609628339
0
ARC
5
11E
100
AcDbEntity
8
Clefs
6
ByLayer
62
256
370
-1
100
AcDbCircle
10
1171.11892295
20
-543.640128599
40
30.8822082272
100
AcDbArc
50
356.265850005
51
55.4092858887
0
ARC
5
11F
100
AcDbEntity
8
Clefs
6
ByLayer
62
256
370
-1
100
AcDbCircle
10
1182.97396833
20
-526.449301987
40
10
100
AcDbArc
50
55.4092858887
51
75.5555081504
0
ARC
5
120
100
AcDbEntity
8
Clefs
6
ByLayer
62
256
370
-1
100
AcDbCircle
10
1183.60745968
20
-608.87957996
40
4.56936422214
100
AcDbArc
50
291.177442137
51
14.6756560844
0
ARC
5
121
100
AcDbEntity
8
Clefs
6
ByLayer
62
256
370
-1
100
AcDbCircle
10
1195.94333498
20
-632.189366177
40
22.0243245266
100
AcDbArc
50
126.028646966
51
234.562094637
0
ARC
5
122
100
AcDbEntity
8
Clefs
6
ByLayer
62
256
370
-1
100
AcDbCircle
10
1188.87075145
20
-622.465018251
40
10
100
AcDbArc
50
111.177442137
51
126.028646966
0
ARC
5
123
100
AcDbEntity
8
Clefs
6
ByLayer
62
256
370
-1
100
AcDbCircle
10
1183.71078529
20
-610.186100161
40
4.97073915586
100
AcDbArc
50
29.7180336905
51
118.472709307
0
ARC
5
124
100
AcDbEntity
8
Clefs
6
ByLayer
62
256
370
-1
100
AcDbCircle
10
1188.50784864
20
-631.800958004
40
26.7656395443
100
AcDbArc
50
108.941488949
51
150.656014224
0
ARC
5
125
100
AcDbEntity
8
Clefs
6
ByLayer
62
256
370
-1
100
AcDbCircle
10
1176.57363339
20
-597.026157395
40
10
100
AcDbArc
50
288.941488949
51
298.472709307
0
ARC
5
126
100
AcDbEntity
8
Clefs
6
ByLayer
62
256
370
-1
100
AcDbCircle
10
1262.00864917
20
-785.517931451
40
75.2267262647
100
AcDbArc
50
181.509372126
51
234.119905605
0
ARC
5
127
100
AcDbEntity
8
Clefs
6
ByLayer
62
256
370
-1
100
AcDbCircle
10
1222.76054851
20
-834.551263155
40
13.9500974819
100
AcDbArc
50
284.954198701
51
345.043341365
0
ARC
5
128
100
AcDbEntity
8
Clefs
6
ByLayer
62
256
370
-1
100
AcDbCircle
10
1223.77985859
20
-838.367580368
40
10
100
AcDbArc
50
234.119905605
51
284.954198701
0
ENDBLK
5
50
330
4E
100
AcDbEntity
8
0
100
AcDbBlockEnd
0
ENDSEC
0
SECTION
2
ENTITIES
0
LINE
5
129
100
AcDbEntity
8
Body from top
6
ByLayer
62
256
370
-1
100
AcDbLine
10
896.96164127
20
751.608404547
11
894.754350968
21
741.777463939
0
LINE
5
12A
100
AcDbEntity
8
Body from top
6
ByLayer
62
256
370
-1
100
AcDbLine
10
885.353066915
20
729.51412124
11
894.657274549
21
692.341723558
0
LINE
5
12B
100
AcDbEntity
8
Body from top
6
ByLayer
62
256
370
-1
100
AcDbLine
10
891.557683547
20
691.62452328
11
892.941953333
21
692.018829194
0
LINE
5
12C
100
AcDbEntity
8
Body from top
6
ByLayer
62
256
370
-1
100
AcDbLine
10
915.781459185
20
693.501466141
11
910.022101999
21
693.704472781
0
LINE
5
12D
100
AcDbEntity
8
Body from top
6
ByLayer
62
256
370
-1
100
AcDbLine
10
910.022101999
20
693.704472781
11
904.356858662
21
693.540720749
0
LINE
5
12E
100
AcDbEntity
8
Body from top
6
ByLayer
62
256
370
-1
100
AcDbLine
10
904.356858662
20
693.540720749
11
898.602349561
21
692.963154202
0
LINE
5
12F
100
AcDbEntity
8
Body from top
6
ByLayer
62
256
370
-1
100
AcDbLine
10
898.602349561
20
692.963154202
11
892.941953333
21
692.018829194
0
LINE
5
130
100
AcDbEntity
8
Body from top
6
ByLayer
62
256
370
-1
100
AcDbLine
10
945.87442773
20
676.009980528
11
943.743753873
21
678.981407758
0
LINE
5
131
100
AcDbEntity
8
Body from top
6
ByLayer
62
256
370
-1
100
AcDbLine
10
943.743753873
20
678.981407758
11
941.376142857
21
681.65748982
0
LINE
5
132
100
AcDbEntity
8
Body from top
6
ByLayer
62
256
370
-1
100
AcDbLine
10
941.376142857
20
681.65748982
11
938.706682458
21
684.13884269
0
LINE
5
133
100
AcDbEntity
8
Body from top
6
ByLayer
62
256
370
-1
100
AcDbLine
10
938.706682458
20
684.13884269
11
935.900900031
21
686.389758704
0
LINE
5
134
100
AcDbEntity
8
Body from top
6
ByLayer
62
256
370
-1
100
AcDbLine
10
935.900900031
20
686.389758704
11
932.858178489
21
688.345329973
0
LINE
5
135
100
AcDbEntity
8
Body from top
6
ByLayer
62
256
370
-1
100
AcDbLine
10
932.858178489
20
688.345329973
11
929.661282103
21
689.987703047
0
LINE
5
136
100
AcDbEntity
8
Body from top
6
ByLayer
62
256
370
-1
100
AcDbLine
10
929.661282103
20
689.987703047
11
926.328062712
21
691.399639478
0
LINE
5
137
100
AcDbEntity
8
Body from top
6
ByLayer
62
256
370
-1
100
AcDbLine
10
926.328062712
20
691.399639478
11
922.905577556
21
692.397761394
0
LINE
5
138
100
AcDbEntity
8
Body from top
6
ByLayer
62
256
370
-1
100
AcDbLine
10
922.905577556
20
692.397761394
11
919.346769606
21
693.165447643
0
LINE
5
139
100
AcDbEntity
8
Body from top
6
ByLayer
62
256
370
-1
100
AcDbLine
10
919.346769606
20
693.165447643
11
915.781459185
21
693.501466141
0
LINE
5
13A
100
AcDbEntity
8
Body from top
6
ByLayer
62
256
370
-1
100
AcDbLine
10
945.87442773
20
676.009980528
11
946.512175441
21
675.352724218
0
LINE
5
13B
100
AcDbEntity
8
Body from top
6
ByLayer
62
256
370
-1
100
AcDbLine
10
946.512175441
20
675.352724218
11
947.351155025
21
674.825287254
0
LINE
5
13C
100
AcDbEntity
8
Body from top
6
ByLayer
62
256
370
-1
100
AcDbLine
10
947.351155025
20
674.825287254
11
948.261547347
21
674.628902487
0
LINE
5
13D
100
AcDbEntity
8
Body from top
6
ByLayer
62
256
370
-1
100
AcDbLine
10
948.261547347
20
674.628902487
11
949.225500148
21
674.680806414
0
LINE
5
13E
100
AcDbEntity
8
Body from top
6
ByLayer
62
256
370
-1
100
AcDbLine
10
949.225500148
20
674.680806414
11
955.625915004
21
676.245026106
0
LINE
5
13F
100
AcDbEntity
8
Body from top
6
ByLayer
62
256
370
-1
100
AcDbLine
10
955.625915004
20
676.245026106
11
961.932217754
21
678.176003072
0
LINE
5
140
100
AcDbEntity
8
Body from top
6
ByLayer
62
256
370
-1
100
AcDbLine
10
961.932217754
20
678.176003072
11
968.191462708
21
680.290360073
0
LINE
5
141
100
AcDbEntity
8
Body from top
6
ByLayer
62
256
370
-1
100
AcDbLine
10
968.191462708
20
680.290360073
11
974.320889292
21
682.605948736
0
LINE
5
142
100
AcDbEntity
8
Body from top
6
ByLayer
62
256
370
-1
100
AcDbLine
10
974.320889292
20
682.605948736
11
980.356202027
21
685.288296073
0
LINE
5
143
100
AcDbEntity
8
Body from top
6
ByLayer
62
256
370
-1
100
AcDbLine
10
980.356202027
20
685.288296073
11
986.261694438
21
688.171875494
0
LINE
5
144
100
AcDbEntity
8
Body from top
6
ByLayer
62
256
370
-1
100
AcDbLine
10
986.261694438
20
688.171875494
11
993.712136114
21
692.19462733
0
LINE
5
145
100
AcDbEntity
8
Body from top
6
ByLayer
62
256
370
-1
100
AcDbLine
10
993.712136114
20
692.19462733
11
1000.96784839
21
696.519227571
0
LINE
5
146
100
AcDbEntity
8
Body from top
6
ByLayer
62
256
370
-1
100
AcDbLine
10
1000.96784839
20
696.519227571
11
1008.09374055
21
701.045060874
0
LINE
5
147
100
AcDbEntity
8
Body from top
6
ByLayer
62
256
370
-1
100
AcDbLine
10
1031.9024027
20
715.05091641
11
1023.84826421
21
710.638705768
0
LINE
5
148
100
AcDbEntity
8
Body from top
6
ByLayer
62
256
370
-1
100
AcDbLine
10
1023.84826421
20
710.638705768
11
1015.90609281
21
705.942499747
0
LINE
5
149
100
AcDbEntity
8
Body from top
6
ByLayer
62
256
370
-1
100
AcDbLine
10
1015.90609281
20
705.942499747
11
1008.09374055
21
701.045060874
0
LINE
5
14A
100
AcDbEntity
8
Body from top
6
ByLayer
62
256
370
-1
100
AcDbLine
10
1042.00125923
20
718.502367952
11
1038.53490977
21
717.691054801
0
LINE
5
14B
100
AcDbEntity
8
Body from top
6
ByLayer
62
256
370
-1
100
AcDbLine
10
1038.53490977
20
717.691054801
11
1035.16267318
21
716.51298319
0
LINE
5
14C
100
AcDbEntity
8
Body from top
6
ByLayer
62
256
370
-1
100
AcDbLine
10
1035.16267318
20
716.51298319
11
1031.9024027
21
715.05091641
0
LINE
5
14D
100
AcDbEntity
8
Body from top
6
ByLayer
62
256
370
-1
100
AcDbLine
10
1054.71105016
20
715.587453583
11
1052.88541743
21
716.760796302
0
LINE
5
14E
100
AcDbEntity
8
Body from top
6
ByLayer
62
256
370
-1
100
AcDbLine
10
1052.88541743
20
716.760796302
11
1050.84069861
21
717.721556591
0
LINE
5
14F
100
AcDbEntity
8
Body from top
6
ByLayer
62
256
370
-1
100
AcDbLine
10
1050.84069861
20
717.721556591
11
1048.72456824
21
718.351265449
0
LINE
5
150
100
AcDbEntity
8
Body from top
6
ByLayer
62
256
370
-1
100
AcDbLine
10
1048.72456824
20
718.351265449
11
1046.47211487
21
718.750537663
0
LINE
5
151
100
AcDbEntity
8
Body from top
6
ByLayer
62
256
370
-1
100
AcDbLine
10
1046.47211487
20
718.750537663
11
1044.23101226
21
718.80090542
0
LINE
5
152
100
AcDbEntity
8
Body from top
6
ByLayer
62
256
370
-1
100
AcDbLine
10
1044.23101226
20
718.80090542
11
1042.00125923
21
718.502367952
0
LINE
5
153
100
AcDbEntity
8
Body from top
6
ByLayer
62
256
370
-1
100
AcDbLine
10
1054.71105016
20
715.587453583
11
1059.57290098
21
712.026872054
0
LINE
5
154
100
AcDbEntity
8
Body from top
6
ByLayer
62
256
370
-1
100
AcDbLine
10
1059.57290098
20
712.026872054
11
1064.58892763
21
708.779488509
0
LINE
5
155
100
AcDbEntity
8
Body from top
6
ByLayer
62
256
370
-1
100
AcDbLine
10
1064.58892763
20
708.779488509
11
1067.53753532
21
707.190675913
0
LINE
5
156
100
AcDbEntity
8
Body from top
6
ByLayer
62
256
370
-1
100
AcDbLine
10
1067.53753532
20
707.190675913
11
1070.64031883
21
705.9150613
0
LINE
5
157
100
AcDbEntity
8
Body from top
6
ByLayer
62
256
370
-1
100
AcDbLine
10
1070.64031883
20
705.9150613
11
1073.89727838
21
704.952645648
0
LINE
5
158
100
AcDbEntity
8
Body from top
6
ByLayer
62
256
370
-1
100
AcDbLine
10
1073.89727838
20
704.952645648
11
1077.14288737
21
704.33913543
0
LINE
5
159
100
AcDbEntity
8
Body from top
6
ByLayer
62
256
370
-1
100
AcDbLine
10
1077.14288737
20
704.33913543
11
1080.47776212
21
704.139439727
0
LINE
5
15A
100
AcDbEntity
8
Body from top
6
ByLayer
62
256
370
-1
100
AcDbLine
10
1080.47776212
20
704.139439727
11
1083.86619638
21
704.188032928
0
LINE
5
15B
100
AcDbEntity
8
Body from top
6
ByLayer
62
256
370
-1
100
AcDbLine
10
1083.86619638
20
704.188032928
11
1087.17837079
21
704.686146907
0
LINE
5
15C
100
AcDbEntity
8
Body from top
6
ByLayer
62
256
370
-1
100
AcDbLine
10
1087.17837079
20
704.686146907
11
1090.37857832
21
705.468257242
0
LINE
5
15D
100
AcDbEntity
8
Body from top
6
ByLayer
62
256
370
-1
100
AcDbLine
10
1090.37857832
20
705.468257242
11
1093.56743607
21
706.599271823
0
LINE
5
15E
100
AcDbEntity
8
Body from top
6
ByLayer
62
256
370
-1
100
AcDbLine
10
1093.56743607
20
706.599271823
11
1096.56156343
21
708.03213502
0
LINE
5
15F
100
AcDbEntity
8
Body from top
6
ByLayer
62
256
370
-1
100
AcDbLine
10
1096.56156343
20
708.03213502
11
1099.46157869
21
709.831755491
0
LINE
5
160
100
AcDbEntity
8
Body from top
6
ByLayer
62
256
370
-1
100
AcDbLine
10
1099.46157869
20
709.831755491
11
1102.06624724
21
711.868315498
0
LINE
5
161
100
AcDbEntity
8
Body from top
6
ByLayer
62
256
370
-1
100
AcDbLine
10
1102.06624724
20
711.868315498
11
1104.47618738
21
714.206723699
0
LINE
5
162
100
AcDbEntity
8
Body from top
6
ByLayer
62
256
370
-1
100
AcDbLine
10
1104.47618738
20
714.206723699
11
1106.59078178
21
716.782071226
0
LINE
5
163
100
AcDbEntity
8
Body from top
6
ByLayer
62
256
370
-1
100
AcDbLine
10
1106.59078178
20
716.782071226
11
1108.49279334
21
719.576502886
0
LINE
5
164
100
AcDbEntity
8
Body from top
6
ByLayer
62
256
370
-1
100
AcDbLine
10
1108.49279334
20
719.576502886
11
1110.08160615
21
722.525111556
0
LINE
5
165
100
AcDbEntity
8
Body from top
6
ByLayer
62
256
370
-1
100
AcDbLine
10
1110.08160615
20
722.525111556
11
1111.27445747
21
725.645748307
0
LINE
5
166
100
AcDbEntity
8
Body from top
6
ByLayer
62
256
370
-1
100
AcDbLine
10
1111.27445747
20
725.645748307
11
1112.21901988
21
728.819944559
0
LINE
5
167
100
AcDbEntity
8
Body from top
6
ByLayer
62
256
370
-1
100
AcDbLine
10
1112.21901988
20
728.819944559
11
1112.76762081
21
732.166168891
0
LINE
5
168
100
AcDbEntity
8
Body from top
6
ByLayer
62
256
370
-1
100
AcDbLine
10
1112.76762081
20
732.166168891
11
1112.96731651
21
735.501043645
0
LINE
5
169
100
AcDbEntity
8
Body from top
6
ByLayer
62
256
370
-1
100
AcDbLine
10
1112.96731651
20
735.501043645
11
1112.81810699
21
738.824568821
0
LINE
5
16A
100
AcDbEntity
8
Body from top
6
ByLayer
62
256
370
-1
100
AcDbLine
10
1112.81810699
20
738.824568821
11
1112.3199928
21
742.136742253
0
LINE
5
16B
100
AcDbEntity
8
Body from top
6
ByLayer
62
256
370
-1
100
AcDbLine
10
1112.3199928
20
742.136742253
11
1111.55573668
21
745.419712869
0
LINE
5
16C
100
AcDbEntity
8
Body from top
6
ByLayer
62
256
370
-1
100
AcDbLine
10
889.798029695
20
732.452915525
11
891.53936296
21
734.502481451
0
LINE
5
16D
100
AcDbEntity
8
Body from top
6
ByLayer
62
256
370
-1
100
AcDbLine
10
891.53936296
20
734.502481451
11
892.902587975
21
736.806838751
0
LINE
5
16E
100
AcDbEntity
8
Body from top
6
ByLayer
62
256
370
-1
100
AcDbLine
10
892.902587975
20
736.806838751
11
894.017524085
21
739.164755553
0
LINE
5
16F
100
AcDbEntity
8
Body from top
6
ByLayer
62
256
370
-1
100
AcDbLine
10
894.017524085
20
739.164755553
11
894.754350968
21
741.777463939
0
LINE
5
170
100
AcDbEntity
8
Body from top
6
ByLayer
62
256
370
-1
100
AcDbLine
10
885.435830209
20
729.496268003
11
886.992128286
21
730.286536382
0
LINE
5
171
100
AcDbEntity
8
Body from top
6
ByLayer
62
256
370
-1
100
AcDbLine
10
886.992128286
20
730.286536382
11
888.501370311
21
731.260183398
0
LINE
5
172
100
AcDbEntity
8
Body from top
6
ByLayer
62
256
370
-1
100
AcDbLine
10
888.501370311
20
731.260183398
11
889.798029695
21
732.452915525
0
LINE
5
173
100
AcDbEntity
8
Body from top
6
ByLayer
62
256
370
-1
100
AcDbLine
10
882.316523365
20
728.549645115
11
891.557683547
21
691.62452328
0
LINE
5
174
100
AcDbEntity
8
Body from top
6
ByLayer
62
256
370
-1
100
AcDbLine
10
882.316523365
20
728.549645115
11
885.435830209
21
729.496268003
0
LINE
5
175
100
AcDbEntity
8
Body from top
6
ByLayer
62
256
370
-1
100
AcDbLine
10
1111.55573668
20
745.419712869
11
1111.73468861
21
744.965813612
0
ARC
5
176
100
AcDbEntity
8
Body from top
6
ByLayer
62
256
370
-1
100
AcDbCircle
10
1093.12852218
20
737.630244727
40
20
100
AcDbArc
50
21.5170722583
51
89.9995251549
0
LINE
5
177
100
AcDbEntity
8
Body from top
6
ByLayer
62
256
370
-1
100
AcDbLine
10
1093.12868793
20
757.630244726
11
906.264543842
21
757.631793383
0
LINE
5
178
100
AcDbEntity
8
Body from top
6
ByLayer
62
256
370
-1
100
AcDbLine
10
896.579443194
20
750.1218598
11
896.96164127
21
751.608404547
0
ARC
5
179
100
AcDbEntity
8
Body from top
6
ByLayer
62
256
370
-1
100
AcDbCircle
10
906.264460966
20
747.631793384
40
10
100
AcDbArc
50
89.9995251549
51
165.58126185
0
CIRCLE
5
17A
100
AcDbEntity
8
Body from top
6
ByLayer
62
256
370
-1
100
AcDbCircle
10
922.311225555
20
742.261943858
40
7
0
CIRCLE
5
17B
100
AcDbEntity
8
Body from top
6
ByLayer
62
256
370
-1
100
AcDbCircle
10
969.929201525
20
742.225931739
40
7
0
CIRCLE
5
17C
100
AcDbEntity
8
Body from top
6
ByLayer
62
256
370
-1
100
AcDbCircle
10
1017.57334634
20
742.233250459
40
7
0
CIRCLE
5
17D
100
AcDbEntity
8
Body from top
6
ByLayer
62
256
370
-1
100
AcDbCircle
10
1065.15991465
20
742.246740275
40
7
0
ARC
5
17E
100
AcDbEntity
8
Clefs
6
ByLayer
62
256
370
-1
100
AcDbCircle
10
1087.84975024
20
744.294541736
40
1.97418213511
100
AcDbArc
50
252.846616916
51
67.1533830842
0
ARC
5
17F
100
AcDbEntity
8
Clefs
6
ByLayer
62
256
370
-1
100
AcDbCircle
10
1088.15832824
20
744.650415646
40
2.41271985593
100
AcDbArc
50
143.578201048
51
248.332465883
0
ARC
5
180
100
AcDbEntity
8
Clefs
6
ByLayer
62
256
370
-1
100
AcDbCircle
10
1089.67825602
20
720.855586069
40
6.16684732206
100
AcDbArc
50
156.603098548
51
209.717226985
0
ARC
5
181
100
AcDbEntity
8
Clefs
6
ByLayer
62
256
370
-1
100
AcDbCircle
10
1084.90552385
20
718.327468036
40
0.787218614031
100
AcDbArc
50
222.211734945
51
322.061037593
0
ARC
5
182
100
AcDbEntity
8
Clefs
6
ByLayer
62
256
370
-1
100
AcDbCircle
10
1082.14687827
20
719.775680304
40
3.89287158145
100
AcDbArc
50
330.241452324
51
15.492755956
0
ARC
5
183
100
AcDbEntity
8
Clefs
6
ByLayer
62
256
370
-1
100
AcDbCircle
10
1074.12070265
20
717.61066
40
12.2058584627
100
AcDbArc
50
15.2225067463
51
30.7775086556
0
ARC
5
184
100
AcDbEntity
8
Clefs
6
ByLayer
62
256
370
-1
100
AcDbCircle
10
1087.48125963
20
732.844406253
40
7.1195603493
100
AcDbArc
50
85.9255821046
51
200.21348529
0
ARC
5
185
100
AcDbEntity
8
Clefs
6
ByLayer
62
256
370
-1
100
AcDbCircle
10
1087.81010119
20
734.750739359
40
5.23974816501
100
AcDbArc
50
295.548891111
51
18.5797619961
0
ARC
5
186
100
AcDbEntity
8
Clefs
6
ByLayer
62
256
370
-1
100
AcDbCircle
10
1088.48720868
20
733.981658926
40
4.14328630177
100
AcDbArc
50
130.516203418
51
210.09348952
0
ARC
5
187
100
AcDbEntity
8
Clefs
6
ByLayer
62
256
370
-1
100
AcDbCircle
10
1088.86333668
20
735.022572412
40
2.53638032064
100
AcDbArc
50
287.731322519
51
348.246111085
0
ARC
5
188
100
AcDbEntity
8
Clefs
6
ByLayer
62
256
370
-1
100
AcDbCircle
10
1088.98204815
20
735.556286821
40
2.58730002961
100
AcDbArc
50
336.047353866
51
28.2156560848
0
ARC
5
189
100
AcDbEntity
8
Clefs
6
ByLayer
62
256
370
-1
100
AcDbCircle
10
1087.30370566
20
734.316416283
40
4.87581378536
100
AcDbArc
50
133.495632892
51
202.110449627
0
ARC
5
18A
100
AcDbEntity
8
Clefs
6
ByLayer
62
256
370
-1
100
AcDbCircle
10
1098.28772062
20
738.38409987
40
16.5871460766
100
AcDbArc
50
200.846919162
51
217.089769199
0
ARC
5
18B
100
AcDbEntity
8
Clefs
6
ByLayer
62
256
370
-1
100
AcDbCircle
10
1080.05888493
20
722.109854732
40
7.5439048151
100
AcDbArc
50
351.679198916
51
22.9304826619
0
ARC
5
18C
100
AcDbEntity
8
Clefs
6
ByLayer
62
256
370
-1
100
AcDbCircle
10
1076.40395969
20
722.142369712
40
11.1761063915
100
AcDbArc
50
320.277124088
51
354.226699552
0
LINE
5
18D
100
AcDbEntity
8
Clefs
6
ByLayer
62
256
370
-1
100
AcDbLine
10
1082.20400479
20
721.192339904
11
1083.8435699
21
724.948877168
0
LINE
5
18E
100
AcDbEntity
8
Clefs
6
ByLayer
62
256
370
-1
100
AcDbLine
10
1084.39847388
20
724.147332505
11
1084.01847092
21
723.304430398
0
LINE
5
18F
100
AcDbEntity
8
Clefs
6
ByLayer
62
256
370
-1
100
AcDbLine
10
1085.21797075
20
728.097875606
11
1086.23249624
21
730.422335165
0
LINE
5
190
100
AcDbEntity
8
Clefs
6
ByLayer
62
256
370
-1
100
AcDbLine
10
1087.03726894
20
730.000565702
11
1085.75764802
21
727.162179449
0
LINE
5
191
100
AcDbEntity
8
Clefs
6
ByLayer
62
256
370
-1
100
AcDbLine
10
1090.10592941
20
739.297064152
11
1091.50949048
21
742.512873887
0
LINE
5
192
100
AcDbEntity
8
Clefs
6
ByLayer
62
256
370
-1
100
AcDbLine
10
1087.24419624
20
732.740321043
11
1089.70105538
21
738.369425258
0
LINE
5
193
100
AcDbEntity
8
Clefs
6
ByLayer
62
256
370
-1
100
AcDbLine
10
1090.5546311
20
737.80258915
11
1088.1161459
21
732.393672511
0
ARC
5
194
100
AcDbEntity
8
Clefs
6
ByLayer
62
256
370
-1
100
AcDbCircle
10
1115.28527772
20
746.122909396
40
37.9067359604
100
AcDbArc
50
204.531198103
51
213.957811791
0
ARC
5
195
100
AcDbEntity
8
Clefs
6
ByLayer
62
256
370
-1
100
AcDbCircle
10
1115.28527772
20
746.122909396
40
37.9067359604
100
AcDbArc
50
215.431378016
51
215.972769226
0
ARC
5
196
100
AcDbEntity
8
Clefs
6
ByLayer
62
256
370
-1
100
AcDbCircle
10
1228.95931163
20
810.379442613
40
165.625569726
100
AcDbArc
50
209.675253602
51
209.788029852
0
ARC
5
197
100
AcDbEntity
8
Clefs
6
ByLayer
62
256
370
-1
100
AcDbCircle
10
1228.95931163
20
810.379442613
40
165.625569726
100
AcDbArc
50
210.161701626
51
211.010857915
0
ARC
5
198
100
AcDbEntity
8
Clefs
6
ByLayer
62
256
370
-1
100
AcDbCircle
10
1088.52499729
20
733.817953172
40
4.09704561133
100
AcDbArc
50
207.847156118
51
235.975330826
0
ARC
5
199
100
AcDbEntity
8
Clefs
6
ByLayer
62
256
370
-1
100
AcDbCircle
10
1088.52499729
20
733.817953172
40
4.09704561133
100
AcDbArc
50
248.707932713
51
292.152843882
0
ARC
5
19A
100
AcDbEntity
8
Clefs
6
ByLayer
62
256
370
-1
100
AcDbCircle
10
1088.55733678
20
734.773393937
40
2.42027342585
100
AcDbArc
50
206.234296269
51
237.142005235
0
ARC
5
19B
100
AcDbEntity
8
Clefs
6
ByLayer
62
256
370
-1
100
AcDbCircle
10
1088.55733678
20
734.773393937
40
2.42027342585
100
AcDbArc
50
259.496844111
51
296.461478291
0
ARC
5
19C
100
AcDbEntity
8
Clefs
6
ByLayer
62
256
370
-1
100
AcDbCircle
10
1088.58460645
20
735.68461172
40
2.89254654793
100
AcDbArc
50
22.2429371535
51
47.0727414319
0
ARC
5
19D
100
AcDbEntity
8
Clefs
6
ByLayer
62
256
370
-1
100
AcDbCircle
10
1087.24164401
20
733.458539052
40
5.49231350394
100
AcDbArc
50
63.3979222579
51
126.851244789
0
ARC
5
19E
100
AcDbEntity
8
Clefs
6
ByLayer
62
256
370
-1
100
AcDbCircle
10
1087.34067771
20
734.051603654
40
5.92971102213
100
AcDbArc
50
62.2031272834
51
83.7413251445
0
ARC
5
19F
100
AcDbEntity
8
Clefs
6
ByLayer
62
256
370
-1
100
AcDbCircle
10
1087.34067771
20
734.051603654
40
5.92971102213
100
AcDbArc
50
23.5440620057
51
52.1923278071
0
ARC
5
1A0
100
AcDbEntity
8
Clefs
6
ByLayer
62
256
370
-1
100
AcDbCircle
10
1090.93568732
20
732.761187779
40
9.44043963868
100
AcDbArc
50
304.864191713
51
336.710464652
0
ARC
5
1A1
100
AcDbEntity
8
Clefs
6
ByLayer
62
256
370
-1
100
AcDbCircle
10
1086.09009976
20
737.976853623
40
16.5197965507
100
AcDbArc
50
290.268912819
51
308.315172244
0
ARC
5
1A2
100
AcDbEntity
8
Clefs
6
ByLayer
62
256
370
-1
100
AcDbCircle
10
1076.67783735
20
759.866987235
40
40.334340702
100
AcDbArc
50
285.598283899
51
292.039305612
0
ARC
5
1A3
100
AcDbEntity
8
Clefs
6
ByLayer
62
256
370
-1
100
AcDbCircle
10
1075.5241955
20
722.131896007
40
12.0507605643
100
AcDbArc
50
350.411524341
51
354.697016034
0
ARC
5
1A4
100
AcDbEntity
8
Clefs
6
ByLayer
62
256
370
-1
100
AcDbCircle
10
1058.87658163
20
852.013908588
40
134.939812095
100
AcDbArc
50
282.206034804
51
285.364135827
0
ARC
5
1A5
100
AcDbEntity
8
Clefs
6
ByLayer
62
256
370
-1
100
AcDbCircle
10
1086.82587095
20
744.16544974
40
23.596437797
100
AcDbArc
50
289.311323913
51
304.532588005
0
ARC
5
1A6
100
AcDbEntity
8
Clefs
6
ByLayer
62
256
370
-1
100
AcDbCircle
10
1094.38047777
20
732.249198646
40
9.51212796462
100
AcDbArc
50
307.735770693
51
339.055828957
0
ARC
5
1A7
100
AcDbEntity
8
Clefs
6
ByLayer
62
256
370
-1
100
AcDbCircle
10
1098.16718788
20
730.806841614
40
5.4600306117
100
AcDbArc
50
338.987295973
51
31.3022752884
0
ARC
5
1A8
100
AcDbEntity
8
Clefs
6
ByLayer
62
256
370
-1
100
AcDbCircle
10
1097.20065813
20
730.292472945
40
6.55341199383
100
AcDbArc
50
30.7543740113
51
80.7266806923
0
ARC
5
1A9
100
AcDbEntity
8
Clefs
6
ByLayer
62
256
370
-1
100
AcDbCircle
10
1097.48107057
20
730.928778926
40
5.88281518656
100
AcDbArc
50
82.4236562363
51
138.944288724
0
ARC
5
1AA
100
AcDbEntity
8
Clefs
6
ByLayer
62
256
370
-1
100
AcDbCircle
10
1087.74012003
20
734.696137561
40
5.30576476217
100
AcDbArc
50
331.569501984
51
1.04138997048
0
ARC
5
1AB
100
AcDbEntity
8
Clefs
6
ByLayer
62
256
370
-1
100
AcDbCircle
10
1094.8627761
20
732.351315641
40
2.46346559884
100
AcDbArc
50
184.218480189
51
298.476436229
0
ARC
5
1AC
100
AcDbEntity
8
Clefs
6
ByLayer
62
256
370
-1
100
AcDbCircle
10
1095.36387645
20
732.108043766
40
2.03671692794
100
AcDbArc
50
289.309214046
51
34.3690676011
0
ARC
5
1AD
100
AcDbEntity
8
Clefs
6
ByLayer
62
256
370
-1
100
AcDbCircle
10
1095.01155975
20
731.372517198
40
2.77295970888
100
AcDbArc
50
42.834749629
51
91.1789863591
0
ARC
5
1AE
100
AcDbEntity
8
Clefs
6
ByLayer
62
256
370
-1
100
AcDbCircle
10
1097.03453692
20
731.836669701
40
3.87683119339
100
AcDbArc
50
49.4460130795
51
107.198395574
0
ARC
5
1AF
100
AcDbEntity
8
Clefs
6
ByLayer
62
256
370
-1
100
AcDbCircle
10
1093.32637462
20
732.184744427
40
7.02894226054
100
AcDbArc
50
333.319532407
51
12.8786163139
0
ARC
5
1B0
100
AcDbEntity
8
Clefs
6
ByLayer
62
256
370
-1
100
AcDbCircle
10
1098.30679861
20
733.323457686
40
1.92
100
AcDbArc
50
12.8786163139
51
49.4460130795
0
ARC
5
1B1
100
AcDbEntity
8
Clefs
6
ByLayer
62
256
370
-1
100
AcDbCircle
10
1096.08374627
20
733.960826483
40
1.59138437561
100
AcDbArc
50
97.0571303252
51
154.327293985
0
ARC
5
1B2
100
AcDbEntity
8
Clefs
6
ByLayer
62
256
370
-1
100
AcDbCircle
10
1094.9785776
20
734.504170846
40
0.36008660144
100
AcDbArc
50
156.064369532
51
266.166637601
0
ARC
5
1B3
100
AcDbEntity
8
Clefs
6
ByLayer
62
256
370
-1
100
AcDbCircle
10
1088.97114986
20
744.317882306
40
3.27127858381
100
AcDbArc
50
78.6902633427
51
147.346838299
0
ARC
5
1B4
100
AcDbEntity
8
Clefs
6
ByLayer
62
256
370
-1
100
AcDbCircle
10
1089.76260619
20
744.077950412
40
3.13373373458
100
AcDbArc
50
347.515786841
51
53.9085332977
0
ARC
5
1B5
100
AcDbEntity
8
Clefs
6
ByLayer
62
256
370
-1
100
AcDbCircle
10
1087.80691634
20
740.954632609
40
6.81461047312
100
AcDbArc
50
56.0910694872
51
74.6339078775
0
ARC
5
1B6
100
AcDbEntity
8
Clefs
6
ByLayer
62
256
370
-1
100
AcDbCircle
10
1089.27240895
20
743.18070505
40
3.00563505658
100
AcDbArc
50
55.5555081504
51
102.609628339
0
ARC
5
1B7
100
AcDbEntity
8
Clefs
6
ByLayer
62
256
370
-1
100
AcDbCircle
10
1088.79554367
20
743.706143046
40
2.96469198981
100
AcDbArc
50
336.265850005
51
35.4092858887
0
ARC
5
1B8
100
AcDbEntity
8
Clefs
6
ByLayer
62
256
370
-1
100
AcDbCircle
10
1090.4294356
20
744.867688191
40
0.96
100
AcDbArc
50
35.4092858887
51
55.5555081504
0
ARC
5
1B9
100
AcDbEntity
8
Clefs
6
ByLayer
62
256
370
-1
100
AcDbCircle
10
1087.78007288
20
737.41081228
40
0.438658965325
100
AcDbArc
50
271.177442137
51
354.675656084
0
ARC
5
1BA
100
AcDbEntity
8
Clefs
6
ByLayer
62
256
370
-1
100
AcDbCircle
10
1088.12754628
20
734.902989694
40
2.11433515455
100
AcDbArc
50
106.028646966
51
214.562094637
0
ARC
5
1BB
100
AcDbEntity
8
Clefs
6
ByLayer
62
256
370
-1
100
AcDbCircle
10
1087.80881364
20
736.012448639
40
0.96
100
AcDbArc
50
91.1774421371
51
106.028646966
0
ARC
5
1BC
100
AcDbEntity
8
Clefs
6
ByLayer
62
256
370
-1
100
AcDbCircle
10
1087.74649573
20
737.289557864
40
0.477190958962
100
AcDbArc
50
9.71803369045
51
98.472709307
0
ARC
5
1BD
100
AcDbEntity
8
Clefs
6
ByLayer
62
256
370
-1
100
AcDbCircle
10
1087.46954037
20
735.182164452
40
2.56950139625
100
AcDbArc
50
88.9414889486
51
130.656014224
0
ARC
5
1BE
100
AcDbEntity
8
Clefs
6
ByLayer
62
256
370
-1
100
AcDbCircle
10
1087.53474244
20
738.711063543
40
0.96
100
AcDbArc
50
268.941488949
51
278.472709307
0
ARC
5
1BF
100
AcDbEntity
8
Clefs
6
ByLayer
62
256
370
-1
100
AcDbCircle
10
1089.05295079
20
718.901960295
40
7.22176572141
100
AcDbArc
50
161.509372126
51
214.119905605
0
ARC
5
1C0
100
AcDbEntity
8
Clefs
6
ByLayer
62
256
370
-1
100
AcDbCircle
10
1083.90240317
20
715.767308874
40
1.33920935826
100
AcDbArc
50
264.954198701
51
325.043341365
0
ARC
5
1C1
100
AcDbEntity
8
Clefs
6
ByLayer
62
256
370
-1
100
AcDbCircle
10
1083.86905093
20
715.389569063
40
0.96
100
AcDbArc
50
214.119905605
51
264.954198701
0
CIRCLE
5
1C2
100
AcDbEntity
8
Clefs
6
ByLayer
62
256
370
-1
100
AcDbCircle
10
1106.22078528
20
731.028384253
40
1.36384986508
0
CIRCLE
5
1C3
100
AcDbEntity
8
Clefs
6
ByLayer
62
256
370
-1
100
AcDbCircle
10
1104.51068457
20
726.329921149
40
1.36384986508
0
ARC
5
1C4
100
AcDbEntity
8
Clefs
6
ByLayer
62
256
370
-1
100
AcDbCircle
10
1088.15832824
20
744.650415646
40
2.41271985593
100
AcDbArc
50
143.578201048
51
248.312647651
0
ARC
5
1C5
100
AcDbEntity
8
Clefs
6
ByLayer
62
256
370
-1
100
AcDbCircle
10
1087.80691634
20
740.954632609
40
6.81461047312
100
AcDbArc
50
59.8035027043
51
74.6322229305
0
LINE
5
1C6
100
AcDbEntity
8
Clefs
6
ByLayer
62
256
370
-1
100
AcDbLine
10
1091.60866696
20
746.610211607
11
1091.23444127
21
746.844538275
0
ARC
5
1C7
100
AcDbEntity
8
Clefs
6
ByLayer
62
256
370
-1
100
AcDbCircle
10
1087.80691634
20
740.954632609
40
6.81461047312
100
AcDbArc
50
59.8035027043
51
74.6316386384
0
LINE
5
1C8
100
AcDbEntity
8
Clefs
6
ByLayer
62
256
370
-1
100
AcDbLine
10
1091.60866696
20
746.610211607
11
1091.23444127
21
746.844538275
0
ARC
5
1C9
100
AcDbEntity
8
Clefs
6
ByLayer
62
256
370
-1
100
AcDbCircle
10
1089.76260619
20
744.077950412
40
3.13373373458
100
AcDbArc
50
347.515786841
51
61.9868579773
0
LINE
5
1CA
100
AcDbEntity
8
Clefs
6
ByLayer
62
256
370
-1
100
AcDbLine
10
1092.35083205
20
741.786825422
11
1090.97566678
21
738.736507839
0
LINE
5
1CB
100
AcDbEntity
8
Clefs
6
ByLayer
62
256
370
-1
100
AcDbLine
10
1092.35083205
20
741.786825422
11
1092.82224469
21
743.400529296
0
ENDSEC
0
SECTION
2
OBJECTS
0
DICTIONARY
5
C
330
0
100
AcDbDictionary
281
1
3
ACAD_GROUP
350
D
0
DICTIONARY
5
D
330
C
100
AcDbDictionary
281
1
0
ENDSEC
0
EOF
