999
dxfrw 0.6.3
  0
SECTION
  2
HEADER
  9
$ACADVER
  1
AC1015
  9
$DWGCODEPAGE
  3
ANSI_1252
  9
$INSBASE
 10
0
 20
0
 30
0
  9
$EXTMIN
 10
882.3165233648074
 20
674.6289024872974
 30
0
  9
$EXTMAX
 10
1112.96731651354
 20
757.6317933836912
 30
0
  9
$LIMMIN
 10
0
 20
0
  9
$LIMMAX
 10
420
 20
297
  9
$ORTHOMODE
 70
    0
  9
$REGENMODE
 70
    1
  9
$FILLMODE
 70
    1
  9
$QTEXTMODE
 70
    0
  9
$MIRRTEXT
 70
    0
  9
$LTSCALE
 40
1
  9
$ATTMODE
 70
    0
  9
$TEXTSIZE
 40
2.5
  9
$TRACEWID
 40
15.68
  9
$TEXTSTYLE
  7
STANDARD
  9
$CLAYER
  8
Body from top
  9
$CELTYPE
  6
BYLAYER
  9
$CECOLOR
 62
  256
  9
$CELTSCALE
 40
1
  9
$DISPSILH
 70
    0
  9
$DIMSCALE
 40
2.5
  9
$DIMASZ
 40
2.5
  9
$DIMEXO
 40
0.625
  9
$DIMDLI
 40
3.75
  9
$DIMRND
 40
0
  9
$DIMDLE
 40
0
  9
$DIMEXE
 40
1.25
  9
$DIMTP
 40
0
  9
$DIMTM
 40
0
  9
$DIMTXT
 40
2.5
  9
$DIMCEN
 40
2.5
  9
$DIMTSZ
 40
0
  9
$DIMTOL
 70
    0
  9
$DIMLIM
 70
    0
  9
$DIMTIH
 70
    0
  9
$DIMTOH
 70
    0
  9
$DIMSE1
 70
    0
  9
$DIMSE2
 70
    0
  9
$DIMTAD
 70
    1
  9
$DIMZIN
 70
    8
  9
$DIMBLK
  1

  9
$DIMASO
 70
    1
  9
$DIMSHO
 70
    1
  9
$DIMPOST
  1

  9
$DIMAPOST
  1

  9
$DIMALT
 70
    0
  9
$DIMALTD
 70
    3
  9
$DIMALTF
 40
0.03937
  9
$DIMLFAC
 40
1
  9
$DIMTOFL
 70
    1
  9
$DIMTVP
 40
0
  9
$DIMTIX
 70
    0
  9
$DIMSOXD
 70
    0
  9
$DIMSAH
 70
    0
  9
$DIMBLK1
  1

  9
$DIMBLK2
  1

  9
$DIMSTYLE
  2
STANDARD
  9
$DIMCLRD
 70
    0
  9
$DIMCLRE
 70
    0
  9
$DIMCLRT
 70
    0
  9
$DIMTFAC
 40
1
  9
$DIMGAP
 40
0.625
  9
$DIMJUST
 70
    0
  9
$DIMSD1
 70
    0
  9
$DIMSD2
 70
    0
  9
$DIMTOLJ
 70
    0
  9
$DIMTZIN
 70
    8
  9
$DIMALTZ
 70
    0
  9
$DIMALTTZ
 70
    0
  9
$DIMUPT
 70
    0
  9
$DIMDEC
 70
    2
  9
$DIMTDEC
 70
    2
  9
$DIMALTU
 70
    2
  9
$DIMALTTD
 70
    3
  9
$DIMTXSTY
  7
standard
  9
$DIMAUNIT
 70
    0
  9
$DIMADEC
 70
    3
  9
$DIMALTRND
 40
0
  9
$DIMAZIN
 70
    0
  9
$DIMDSEP
 70
   44
  9
$DIMATFIT
 70
    3
  9
$DIMFRAC
 70
    0
  9
$DIMLDRBLK
  1
STANDARD
  9
$DIMLUNIT
 70
    2
  9
$DIMLWD
 70
   -2
  9
$DIMLWE
 70
   -2
  9
$DIMTMOVE
 70
    0
  9
$LUNITS
 70
    2
  9
$LUPREC
 70
    4
  9
$SKETCHINC
 40
1
  9
$FILLETRAD
 40
0
  9
$AUNITS
 70
    0
  9
$AUPREC
 70
    2
  9
$MENU
  1
.
  9
$ELEVATION
 40
0
  9
$PELEVATION
 40
0
  9
$THICKNESS
 40
0
  9
$LIMCHECK
 70
    0
  9
$CHAMFERA
 40
0
  9
$CHAMFERB
 40
0
  9
$CHAMFERC
 40
0
  9
$CHAMFERD
 40
0
  9
$SKPOLY
 70
    0
  9
$USRTIMER
 70
    1
  9
$ANGBASE
 50
0
  9
$ANGDIR
 70
    0
  9
$PDMODE
 70
   34
  9
$PDSIZE
 40
0
  9
$PLINEWID
 40
0
  9
$SPLFRAME
 70
    0
  9
$SPLINETYPE
 70
    2
  9
$SPLINESEGS
 70
    8
  9
$HANDSEED
  5
20000
  9
$SURFTAB1
 70
    6
  9
$SURFTAB2
 70
    6
  9
$SURFTYPE
 70
    6
  9
$SURFU
 70
    6
  9
$SURFV
 70
    6
  9
$UCSBASE
  2

  9
$UCSNAME
  2

  9
$UCSORG
 10
0
 20
0
 30
0
  9
$UCSXDIR
 10
1
 20
0
 30
0
  9
$UCSYDIR
 10
0
 20
1
 30
0
  9
$UCSORTHOREF
  2

  9
$UCSORTHOVIEW
 70
    0
  9
$UCSORGTOP
 10
0
 20
0
 30
0
  9
$UCSORGBOTTOM
 10
0
 20
0
 30
0
  9
$UCSORGLEFT
 10
0
 20
0
 30
0
  9
$UCSORGRIGHT
 10
0
 20
0
 30
0
  9
$UCSORGFRONT
 10
0
 20
0
 30
0
  9
$UCSORGBACK
 10
0
 20
0
 30
0
  9
$PUCSBASE
  2

  9
$PUCSNAME
  2

  9
$PUCSORG
 10
0
 20
0
 30
0
  9
$PUCSXDIR
 10
1
 20
0
 30
0
  9
$PUCSYDIR
 10
0
 20
1
 30
0
  9
$PUCSORTHOREF
  2

  9
$PUCSORTHOVIEW
 70
    0
  9
$PUCSORGTOP
 10
0
 20
0
 30
0
  9
$PUCSORGBOTTOM
 10
0
 20
0
 30
0
  9
$PUCSORGLEFT
 10
0
 20
0
 30
0
  9
$PUCSORGRIGHT
 10
0
 20
0
 30
0
  9
$PUCSORGFRONT
 10
0
 20
0
 30
0
  9
$PUCSORGBACK
 10
0
 20
0
 30
0
  9
$USERI1
 70
    0
  9
$USERI2
 70
    0
  9
$USERI3
 70
    0
  9
$USERI4
 70
    0
  9
$USERI5
 70
    0
  9
$USERR1
 40
0
  9
$USERR2
 40
0
  9
$USERR3
 40
0
  9
$USERR4
 40
0
  9
$USERR5
 40
0
  9
$WORLDVIEW
 70
    1
  9
$SHADEDGE
 70
    3
  9
$SHADEDIF
 70
   70
  9
$TILEMODE
 70
    1
  9
$MAXACTVP
 70
   64
  9
$PINSBASE
 10
-1498.507276286983
 20
-1077.905873454394
 30
0
  9
$PLIMCHECK
 70
    0
  9
$PEXTMIN
 10
0
 20
0
 30
0
  9
$PEXTMAX
 10
0
 20
0
 30
0
  9
$GRIDMODE
 70
    1
  9
$SNAPSTYLE
 70
    0
  9
$GRIDUNIT
 10
0
 20
0
  9
$PLIMMIN
 10
0
 20
0
  9
$PLIMMAX
 10
420
 20
297
  9
$UNITMODE
 70
    0
  9
$VISRETAIN
 70
    1
  9
$PLINEGEN
 70
    0
  9
$PSLTSCALE
 70
    1
  9
$TREEDEPTH
 70
 3020
  9
$CMLSTYLE
  2
Standard
  9
$CMLJUST
 70
    0
  9
$CMLSCALE
 40
20
  9
$PROXYGRAPHICS
 70
    1
  9
$MEASUREMENT
 70
    1
  9
$CELWEIGHT
370
   -1
  9
$ENDCAPS
280
    0
  9
$JOINSTYLE
280
    0
  9
$LWDISPLAY
290
    0
  9
$INSUNITS
 70
    4
  9
$HYPERLINKBASE
  1

  9
$STYLESHEET
  1

  9
$XEDIT
290
    1
  9
$CEPSNTYPE
380
    0
  9
$PSTYLEMODE
290
    1
  9
$EXTNAMES
290
    1
  9
$PSVPSCALE
 40
1.71255
  9
$OLESTARTUP
290
    0
  0
ENDSEC
  0
SECTION
  2
CLASSES
  0
ENDSEC
  0
SECTION
  2
TABLES
  0
TABLE
  2
VPORT
  5
8
330
0
100
AcDbSymbolTable
 70
    1
  0
VPORT
  5
31
330
2
100
AcDbSymbolTableRecord
100
AcDbViewportTableRecord
  2
*ACTIVE
 70
    0
 10
0
 20
0
 11
1
 21
1
 12
582.8857042875686
 22
404.7282839849043
 13
0
 23
0
 14
10
 24
10
 15
10
 25
10
 16
0
 26
0
 36
1
 17
0
 27
0
 37
0
 40
173.3971026481872
 41
1.742990654205608
 42
50
 43
0
 44
0
 50
0
 51
0
 71
    0
 72
  100
 73
    1
 74
    3
 75
    0
 76
    1
 77
    0
 78
    0
281
    0
 65
    1
110
0
120
0
130
0
111
1
121
0
131
0
112
0
122
1
132
0
 79
    0
146
0
  0
ENDTAB
  0
TABLE
  2
LTYPE
  5
5
330
0
100
AcDbSymbolTable
 70
    4
  0
LTYPE
  5
14
330
5
100
AcDbSymbolTableRecord
100
AcDbLinetypeTableRecord
  2
ByBlock
 70
    0
  3

 72
   65
 73
    0
 40
0
  0
LTYPE
  5
15
330
5
100
AcDbSymbolTableRecord
100
AcDbLinetypeTableRecord
  2
ByLayer
 70
    0
  3

 72
   65
 73
    0
 40
0
  0
LTYPE
  5
16
330
5
100
AcDbSymbolTableRecord
100
AcDbLinetypeTableRecord
  2
Continuous
 70
    0
  3
Solid line
 72
   65
 73
    0
 40
0
  0
LTYPE
  5
32
330
5
100
AcDbSymbolTableRecord
100
AcDbLinetypeTableRecord
  2
DOT
 70
    0
  3
Dot . . . . . . . . . . . . . . . . . . . . . .
 72
   65
 73
    2
 40
6.35
 49
0
 74
    0
 49
-6.35
 74
    0
  0
LTYPE
  5
33
330
5
100
AcDbSymbolTableRecord
100
AcDbLinetypeTableRecord
  2
DOTTINY
 70
    0
  3
Dot (.15x) .....................................
 72
   65
 73
    2
 40
0.9525
 49
0
 74
    0
 49
-0.9525
 74
    0
  0
LTYPE
  5
34
330
5
100
AcDbSymbolTableRecord
100
AcDbLinetypeTableRecord
  2
DOT2
 70
    0
  3
Dot (.5x) .....................................
 72
   65
 73
    2
 40
3.175
 49
0
 74
    0
 49
-3.175
 74
    0
  0
LTYPE
  5
35
330
5
100
AcDbSymbolTableRecord
100
AcDbLinetypeTableRecord
  2
DOTX2
 70
    0
  3
Dot (2x) .  .  .  .  .  .  .  .  .  .  .  .  .
 72
   65
 73
    2
 40
12.7
 49
0
 74
    0
 49
-12.7
 74
    0
  0
LTYPE
  5
36
330
5
100
AcDbSymbolTableRecord
100
AcDbLinetypeTableRecord
  2
DASHED
 70
    0
  3
Dashed _ _ _ _ _ _ _ _ _ _ _ _ _ _ _ _ _
 72
   65
 73
    2
 40
19.05
 49
12.7
 74
    0
 49
-6.35
 74
    0
  0
LTYPE
  5
37
330
5
100
AcDbSymbolTableRecord
100
AcDbLinetypeTableRecord
  2
DASHEDTINY
 70
    0
  3
Dashed (.15x) _ _ _ _ _ _ _ _ _ _ _ _ _ _ _ _ _
 72
   65
 73
    2
 40
2.8575
 49
1.905
 74
    0
 49
-0.9525
 74
    0
  0
LTYPE
  5
38
330
5
100
AcDbSymbolTableRecord
100
AcDbLinetypeTableRecord
  2
DASHED2
 70
    0
  3
Dashed (.5x) _ _ _ _ _ _ _ _ _ _ _ _ _ _ _ _ _
 72
   65
 73
    2
 40
9.524999999999999
 49
6.35
 74
    0
 49
-3.175
 74
    0
  0
LTYPE
  5
39
330
5
100
AcDbSymbolTableRecord
100
AcDbLinetypeTableRecord
  2
DASHEDX2
 70
    0
  3
Dashed (2x) ____  ____  ____  ____  ____  ___
 72
   65
 73
    2
 40
38.09999999999999
 49
25.4
 74
    0
 49
-12.7
 74
    0
  0
LTYPE
  5
3A
330
5
100
AcDbSymbolTableRecord
100
AcDbLinetypeTableRecord
  2
DASHDOT
 70
    0
  3
Dash dot __ . __ . __ . __ . __ . __ . __ . __
 72
   65
 73
    4
 40
25.4
 49
12.7
 74
    0
 49
-6.35
 74
    0
 49
0
 74
    0
 49
-6.35
 74
    0
  0
LTYPE
  5
3B
330
5
100
AcDbSymbolTableRecord
100
AcDbLinetypeTableRecord
  2
DASHDOTTINY
 70
    0
  3
Dash dot (.15x) _._._._._._._._._._._._._._._.
 72
   65
 73
    4
 40
3.81
 49
1.905
 74
    0
 49
-0.9525
 74
    0
 49
0
 74
    0
 49
-0.9525
 74
    0
  0
LTYPE
  5
3C
330
5
100
AcDbSymbolTableRecord
100
AcDbLinetypeTableRecord
  2
DASHDOT2
 70
    0
  3
Dash dot (.5x) _._._._._._._._._._._._._._._.
 72
   65
 73
    4
 40
12.7
 49
6.35
 74
    0
 49
-3.175
 74
    0
 49
0
 74
    0
 49
-3.175
 74
    0
  0
LTYPE
  5
3D
330
5
100
AcDbSymbolTableRecord
100
AcDbLinetypeTableRecord
  2
DASHDOTX2
 70
    0
  3
Dash dot (2x) ____  .  ____  .  ____  .  ___
 72
   65
 73
    4
 40
50.8
 49
25.4
 74
    0
 49
-12.7
 74
    0
 49
0
 74
    0
 49
-12.7
 74
    0
  0
LTYPE
  5
3E
330
5
100
AcDbSymbolTableRecord
100
AcDbLinetypeTableRecord
  2
DIVIDE
 70
    0
  3
Divide ____ . . ____ . . ____ . . ____ . . ____
 72
   65
 73
    6
 40
31.75
 49
12.7
 74
    0
 49
-6.35
 74
    0
 49
0
 74
    0
 49
-6.35
 74
    0
 49
0
 74
    0
 49
-6.35
 74
    0
  0
LTYPE
  5
3F
330
5
100
AcDbSymbolTableRecord
100
AcDbLinetypeTableRecord
  2
DIVIDETINY
 70
    0
  3
Divide (.15x) __..__..__..__..__..__..__..__.._
 72
   65
 73
    6
 40
4.7625
 49
1.905
 74
    0
 49
-0.9525
 74
    0
 49
0
 74
    0
 49
-0.9525
 74
    0
 49
0
 74
    0
 49
-0.9525
 74
    0
  0
LTYPE
  5
40
330
5
100
AcDbSymbolTableRecord
100
AcDbLinetypeTableRecord
  2
DIVIDE2
 70
    0
  3
Divide (.5x) __..__..__..__..__..__..__..__.._
 72
   65
 73
    6
 40
15.875
 49
6.35
 74
    0
 49
-3.175
 74
    0
 49
0
 74
    0
 49
-3.175
 74
    0
 49
0
 74
    0
 49
-3.175
 74
    0
  0
LTYPE
  5
41
330
5
100
AcDbSymbolTableRecord
100
AcDbLinetypeTableRecord
  2
DIVIDEX2
 70
    0
  3
Divide (2x) ________  .  .  ________  .  .  _
 72
   65
 73
    6
 40
63.5
 49
25.4
 74
    0
 49
-12.7
 74
    0
 49
0
 74
    0
 49
-12.7
 74
    0
 49
0
 74
    0
 49
-12.7
 74
    0
  0
LTYPE
  5
42
330
5
100
AcDbSymbolTableRecord
100
AcDbLinetypeTableRecord
  2
BORDER
 70
    0
  3
Border __ __ . __ __ . __ __ . __ __ . __ __ .
 72
   65
 73
    6
 40
44.45
 49
12.7
 74
    0
 49
-6.35
 74
    0
 49
12.7
 74
    0
 49
-6.35
 74
    0
 49
0
 74
    0
 49
-6.35
 74
    0
  0
LTYPE
  5
43
330
5
100
AcDbSymbolTableRecord
100
AcDbLinetypeTableRecord
  2
BORDERTINY
 70
    0
  3
Border (.15x) __.__.__.__.__.__.__.__.__.__.__.
 72
   65
 73
    6
 40
6.6675
 49
1.905
 74
    0
 49
-0.9525
 74
    0
 49
1.905
 74
    0
 49
-0.9525
 74
    0
 49
0
 74
    0
 49
-0.9525
 74
    0
  0
LTYPE
  5
44
330
5
100
AcDbSymbolTableRecord
100
AcDbLinetypeTableRecord
  2
BORDER2
 70
    0
  3
Border (.5x) __.__.__.__.__.__.__.__.__.__.__.
 72
   65
 73
    6
 40
22.225
 49
6.35
 74
    0
 49
-3.175
 74
    0
 49
6.35
 74
    0
 49
-3.175
 74
    0
 49
0
 74
    0
 49
-3.175
 74
    0
  0
LTYPE
  5
45
330
5
100
AcDbSymbolTableRecord
100
AcDbLinetypeTableRecord
  2
BORDERX2
 70
    0
  3
Border (2x) ____  ____  .  ____  ____  .  ___
 72
   65
 73
    6
 40
88.89999999999999
 49
25.4
 74
    0
 49
-12.7
 74
    0
 49
25.4
 74
    0
 49
-12.7
 74
    0
 49
0
 74
    0
 49
-12.7
 74
    0
  0
LTYPE
  5
46
330
5
100
AcDbSymbolTableRecord
100
AcDbLinetypeTableRecord
  2
CENTER
 70
    0
  3
Center ____ _ ____ _ ____ _ ____ _ ____ _ ____
 72
   65
 73
    4
 40
50.8
 49
31.75
 74
    0
 49
-6.35
 74
    0
 49
6.35
 74
    0
 49
-6.35
 74
    0
  0
LTYPE
  5
47
330
5
100
AcDbSymbolTableRecord
100
AcDbLinetypeTableRecord
  2
CENTERTINY
 70
    0
  3
Center (.15x) ___ _ ___ _ ___ _ ___ _ ___ _ ___
 72
   65
 73
    4
 40
7.619999999999999
 49
4.7625
 74
    0
 49
-0.9525
 74
    0
 49
0.9525
 74
    0
 49
-0.9525
 74
    0
  0
LTYPE
  5
48
330
5
100
AcDbSymbolTableRecord
100
AcDbLinetypeTableRecord
  2
CENTER2
 70
    0
  3
Center (.5x) ___ _ ___ _ ___ _ ___ _ ___ _ ___
 72
   65
 73
    4
 40
28.575
 49
19.05
 74
    0
 49
-3.175
 74
    0
 49
3.175
 74
    0
 49
-3.175
 74
    0
  0
LTYPE
  5
49
330
5
100
AcDbSymbolTableRecord
100
AcDbLinetypeTableRecord
  2
CENTERX2
 70
    0
  3
Center (2x) ________  __  ________  __  _____
 72
   65
 73
    4
 40
101.6
 49
63.5
 74
    0
 49
-12.7
 74
    0
 49
12.7
 74
    0
 49
-12.7
 74
    0
  0
ENDTAB
  0
TABLE
  2
LAYER
  5
2
330
0
100
AcDbSymbolTable
 70
    1
  0
LAYER
  5
10
330
2
100
AcDbSymbolTableRecord
100
AcDbLayerTableRecord
  2
0
 70
    0
 62
    7
  6
CONTINUOUS
370
    0
390
F
  0
LAYER
  5
4A
330
2
100
AcDbSymbolTableRecord
100
AcDbLayerTableRecord
  2
Body from top
 70
    0
 62
    8
  6
CONTINUOUS
370
   50
390
F
  0
LAYER
  5
4B
330
2
100
AcDbSymbolTableRecord
100
AcDbLayerTableRecord
  2
Clefs
 70
    0
 62
    5
  6
CONTINUOUS
370
    0
390
F
  0
ENDTAB
  0
TABLE
  2
STYLE
  5
3
330
0
100
AcDbSymbolTable
 70
    3
  0
STYLE
  5
4C
330
2
100
AcDbSymbolTableRecord
100
AcDbTextStyleTableRecord
  2
Standard
 70
    0
 40
0
 41
1
 50
0
 71
    0
 42
1
  3
txt
  4

  0
ENDTAB
  0
TABLE
  2
VIEW
  5
6
330
0
100
AcDbSymbolTable
 70
    0
  0
ENDTAB
  0
TABLE
  2
UCS
  5
7
330
0
100
AcDbSymbolTable
 70
    0
  0
ENDTAB
  0
TABLE
  2
APPID
  5
9
330
0
100
AcDbSymbolTable
 70
    1
  0
APPID
  5
12
330
9
100
AcDbSymbolTableRecord
100
AcDbRegAppTableRecord
  2
ACAD
 70
    0
  0
APPID
  5
4D
330
9
100
AcDbSymbolTableRecord
100
AcDbRegAppTableRecord
  2
LibreCad
 70
    0
  0
ENDTAB
  0
TABLE
  2
DIMSTYLE
  5
A
330
0
100
AcDbSymbolTable
 70
    1
100
AcDbDimStyleTable
 71
    1
  0
DIMSTYLE
105
4E
330
A
100
AcDbSymbolTableRecord
100
AcDbDimStyleTableRecord
  2
Standard
 70
    0
 40
2.5
 41
2.5
 42
0.625
 43
0.38
 44
1.25
 45
0
 46
0
 47
0
 48
0
 49
1
140
2.5
141
0.09
142
0
143
25.4
144
1
145
0
146
1
147
0.625
148
0
 71
    0
 72
    0
 73
    0
 74
    1
 75
    0
 76
    0
 77
    0
 78
    8
 79
    0
170
    0
171
    2
172
    0
173
    0
174
    0
175
    0
176
    0
177
    0
178
    0
179
    3
271
    2
272
    4
273
    2
274
    2
275
    0
276
    0
277
    2
278
   44
279
    0
280
    0
281
    0
282
    0
283
    1
284
    0
285
    0
286
    0
288
    0
289
    3
340
standard
341

371
   -2
372
   -2
  0
ENDTAB
  0
TABLE
  2
BLOCK_RECORD
  5
1
330
0
100
AcDbSymbolTable
 70
    2
  0
BLOCK_RECORD
  5
1F
330
1
100
AcDbSymbolTableRecord
100
AcDbBlockTableRecord
  2
*Model_Space
  0
BLOCK_RECORD
  5
1E
330
1
100
AcDbSymbolTableRecord
100
AcDbBlockTableRecord
  2
*Paper_Space
  0
BLOCK_RECORD
  5
4F
330
1
100
AcDbSymbolTableRecord
100
AcDbBlockTableRecord
  2
2019-02-16 Clefs
  0
BLOCK_RECORD
  5
52
330
1
100
AcDbSymbolTableRecord
100
AcDbBlockTableRecord
  2
2019-02-16 Clefs-0
  0
BLOCK_RECORD
  5
55
330
1
100
AcDbSymbolTableRecord
100
AcDbBlockTableRecord
  2
2019-02-16 Clefs-1
  0
ENDTAB
  0
ENDSEC
  0
SECTION
  2
BLOCKS
  0
BLOCK
  5
20
330
1F
100
AcDbEntity
  8
0
100
AcDbBlockBegin
  2
*Model_Space
 70
    0
 10
0
 20
0
 30
0
  3
*Model_Space
  1

  0
ENDBLK
  5
21
330
1F
100
AcDbEntity
  8
0
100
AcDbBlockEnd
  0
BLOCK
  5
1C
330
1B
100
AcDbEntity
  8
0
100
AcDbBlockBegin
  2
*Paper_Space
 70
    0
 10
0
 20
0
 30
0
  3
*Paper_Space
  1

  0
ENDBLK
  5
1D
330
1F
100
AcDbEntity
  8
0
100
AcDbBlockEnd
  0
BLOCK
  5
50
330
4F
100
AcDbEntity
  8
0
100
AcDbBlockBegin
  2
2019-02-16 Clefs
 70
    0
 10
0
 20
0
  3
2019-02-16 Clefs
  1

  0
ARC
  5
58
100
AcDbEntity
  8
Clefs
  6
ByLayer
 62
  256
370
   -1
100
AcDbCircle
 10
1159.764763543792
 20
-541.2501962455697
 40
20.56439724076726
100
AcDbArc
 50
272.8466169158161
 51
87.15338308418391
  0
ARC
  5
59
100
AcDbEntity
  8
Clefs
  6
ByLayer
 62
  256
370
   -1
100
AcDbCircle
 10
1161.517392874743
 20
-536.6673631601254
 40
25.13249849931315
100
AcDbArc
 50
163.5782010483629
 51
268.3324658828161
  0
ARC
  5
5A
100
AcDbEntity
  8
Clefs
  6
ByLayer
 62
  256
370
   -1
100
AcDbCircle
 10
1157.639402594765
 20
-544.5655139741368
 40
55.36261574842981
100
AcDbArc
 50
354.6153387456451
 51
12.81523946521248
  0
ARC
  5
5B
100
AcDbEntity
  8
Clefs
  6
ByLayer
 62
  256
370
   -1
100
AcDbCircle
 10
1261.169225617845
 20
-764.1671532511732
 40
64.23799293814383
100
AcDbArc
 50
176.6030985481378
 51
229.7172269849641
  0
ARC
  5
5C
100
AcDbEntity
  8
Clefs
  6
ByLayer
 62
  256
370
   -1
100
AcDbCircle
 10
1223.45845573813
 20
-805.9174074324883
 40
8.200193896159371
100
AcDbArc
 50
242.2117349453048
 51
342.0610375925268
  0
ARC
  5
5D
100
AcDbEntity
  8
Clefs
  6
ByLayer
 62
  256
370
   -1
100
AcDbCircle
 10
1191.295990509982
 20
-801.5698863349642
 40
40.55074564015025
100
AcDbArc
 50
350.2414523240544
 51
35.49275595598386
  0
ARC
  5
5E
100
AcDbEntity
  8
Clefs
  6
ByLayer
 62
  256
370
   -1
100
AcDbCircle
 10
1120.445392083898
 20
-851.3570461164011
 40
127.1443589865797
100
AcDbArc
 50
35.22250674634513
 51
50.77750865558638
  0
ARC
  5
5F
100
AcDbEntity
  8
Clefs
  6
ByLayer
 62
  256
370
   -1
100
AcDbCircle
 10
1196.951316345706
 20
-654.6422695007777
 40
74.16208697187983
100
AcDbArc
 50
105.9255821046178
 51
220.2134852901577
  0
ARC
  5
60
100
AcDbEntity
  8
Clefs
  6
ByLayer
 62
  256
370
   -1
100
AcDbCircle
 10
1193.378458690038
 20
-634.8106279470051
 40
54.5807100522211
100
AcDbArc
 50
315.5488911110288
 51
38.57976199612872
  0
ARC
  5
61
100
AcDbEntity
  8
Clefs
  6
ByLayer
 62
  256
370
   -1
100
AcDbCircle
 10
1202.746311967739
 20
-639.9264071755908
 40
43.15923231007343
100
AcDbArc
 50
150.5162034180153
 51
230.0934895195167
  0
ARC
  5
62
100
AcDbEntity
  8
Clefs
  6
ByLayer
 62
  256
370
   -1
100
AcDbCircle
 10
1202.719554876376
 20
-628.3974272579046
 40
26.42062833998115
100
AcDbArc
 50
307.7313225194825
 51
8.246111084678464
  0
ARC
  5
63
100
AcDbEntity
  8
Clefs
  6
ByLayer
 62
  256
370
   -1
100
AcDbCircle
 10
1201.980088415473
 20
-622.750248005925
 40
26.95104197512345
100
AcDbArc
 50
356.0473538659427
 51
48.21565608475805
  0
ARC
  5
64
100
AcDbEntity
  8
Clefs
  6
ByLayer
 62
  256
370
   -1
100
AcDbCircle
 10
1189.968990968263
 20
-640.8661244163736
 40
50.78972693088518
100
AcDbArc
 50
153.495632892369
 51
222.1104496269374
  0
ARC
  5
65
100
AcDbEntity
  8
Clefs
  6
ByLayer
 62
  256
370
   -1
100
AcDbCircle
 10
1282.993658449387
 20
-561.9168887841204
 40
172.7827716314661
100
AcDbArc
 50
220.8469191615908
 51
237.0897691992129
  0
ARC
  5
66
100
AcDbEntity
  8
Clefs
  6
ByLayer
 62
  256
370
   -1
100
AcDbCircle
 10
1162.541754995806
 20
-786.160816514576
 40
78.58234182393842
100
AcDbArc
 50
11.67919891563858
 51
42.93048266185173
  0
ARC
  5
67
100
AcDbEntity
  8
Clefs
  6
ByLayer
 62
  256
370
   -1
100
AcDbCircle
 10
1126.649806566019
 20
-798.8639828129546
 40
116.417774911755
100
AcDbArc
 50
340.277124087908
 51
14.22669955198456
  0
LINE
  5
68
100
AcDbEntity
  8
Clefs
  6
ByLayer
 62
  256
370
   -1
100
AcDbLine
 10
1186.808024339096
 20
-787.4994385037382
 11
1189.473397537155
 21
-744.8874109726009
  0
LINE
  5
69
100
AcDbEntity
  8
Clefs
  6
ByLayer
 62
  256
370
   -1
100
AcDbLine
 10
1197.760726610306
 20
-750.7563408430478
 11
1197.044096665594
 21
-760.3608987170935
  0
LINE
  5
6A
100
AcDbEntity
  8
Clefs
  6
ByLayer
 62
  256
370
   -1
100
AcDbLine
 10
1191.707704146591
 20
-709.1669592085977
 11
1193.356976274058
 21
-682.7996087178003
  0
LINE
  5
6B
100
AcDbEntity
  8
Clefs
  6
ByLayer
 62
  256
370
   -1
100
AcDbLine
 10
1202.737107788717
 20
-684.0609126320319
 11
1200.323930071537
 21
-716.4032745666163
  0
LINE
  5
6C
100
AcDbEntity
  8
Clefs
  6
ByLayer
 62
  256
370
   -1
100
AcDbLine
 10
1199.653856383974
 20
-582.1297179874889
 11
1201.935567565039
 21
-545.6513967766068
  0
LINE
  5
6D
100
AcDbEntity
  8
Clefs
  6
ByLayer
 62
  256
370
   -1
100
AcDbLine
 10
1195.001655135958
 20
-656.5056919806505
 11
1198.995669423058
 21
-592.6523273240152
  0
LINE
  5
6E
100
AcDbEntity
  8
Clefs
  6
ByLayer
 62
  256
370
   -1
100
AcDbLine
 10
1212.757709919288
 20
-549.7608407384225
 11
1210.16434954903
 21
-584.5180818336623
  0
LINE
  5
6F
100
AcDbEntity
  8
Clefs
  6
ByLayer
 62
  256
370
   -1
100
AcDbLine
 10
1209.370337892601
 20
-595.1597400048295
 11
1204.771711790442
 21
-656.7923453197875
  0
ARC
  5
70
100
AcDbEntity
  8
Clefs
  6
ByLayer
 62
  256
370
   -1
100
AcDbCircle
 10
1421.802515064495
 20
-425.6084604497746
 40
394.8618329213272
100
AcDbArc
 50
224.5311981032364
 51
233.9578117910517
  0
ARC
  5
71
100
AcDbEntity
  8
Clefs
  6
ByLayer
 62
  256
370
   -1
100
AcDbCircle
 10
1421.802515064495
 20
-425.6084604497746
 40
394.8618329213272
100
AcDbArc
 50
235.4313780160147
 51
235.972769225526
  0
ARC
  5
72
100
AcDbEntity
  8
Clefs
  6
ByLayer
 62
  256
370
   -1
100
AcDbCircle
 10
2305.569412339008
 20
608.3519507146018
 40
1725.266351315804
100
AcDbArc
 50
229.6752536022253
 51
229.7880298524064
  0
ARC
  5
73
100
AcDbEntity
  8
Clefs
  6
ByLayer
 62
  256
370
   -1
100
AcDbCircle
 10
2305.569412339008
 20
608.3519507146018
 40
1725.266351315804
100
AcDbArc
 50
230.161701625846
 51
231.0108579149249
  0
ARC
  5
74
100
AcDbEntity
  8
Clefs
  6
ByLayer
 62
  256
370
   -1
100
AcDbCircle
 10
1203.699440513143
 20
-641.3942053405274
 40
42.67755845138732
100
AcDbArc
 50
227.8471561181946
 51
255.9753308255024
  0
ARC
  5
75
100
AcDbEntity
  8
Clefs
  6
ByLayer
 62
  256
370
   -1
100
AcDbCircle
 10
1203.699440513143
 20
-641.3942053405274
 40
42.67755845138732
100
AcDbArc
 50
268.7079327132739
 51
312.1528438818054
  0
ARC
  5
76
100
AcDbEntity
  8
Clefs
  6
ByLayer
 62
  256
370
   -1
100
AcDbCircle
 10
1200.612036249806
 20
-631.926690834224
 40
25.21118151929366
100
AcDbArc
 50
226.2342962693309
 51
257.1420052346525
  0
ARC
  5
77
100
AcDbEntity
  8
Clefs
  6
ByLayer
 62
  256
370
   -1
100
AcDbCircle
 10
1200.612036249806
 20
-631.926690834224
 40
25.21118151929366
100
AcDbArc
 50
279.4968441113584
 51
316.4614782910665
  0
ARC
  5
78
100
AcDbEntity
  8
Clefs
  6
ByLayer
 62
  256
370
   -1
100
AcDbCircle
 10
1197.632559914136
 20
-622.9101137193934
 40
30.13069320758727
100
AcDbArc
 50
42.2429371534739
 51
67.07274143192042
  0
ARC
  5
79
100
AcDbEntity
  8
Clefs
  6
ByLayer
 62
  256
370
   -1
100
AcDbCircle
 10
1192.417870323334
 20
-649.4845331501599
 40
57.21159899934281
100
AcDbArc
 50
83.3979222579496
 51
146.8512447885381
  0
ARC
  5
7A
100
AcDbEntity
  8
Clefs
  6
ByLayer
 62
  256
370
   -1
100
AcDbCircle
 10
1191.274341101274
 20
-643.3265128379264
 40
61.767823147167
100
AcDbArc
 50
82.20312728337623
 51
103.7413251444572
  0
ARC
  5
7B
100
AcDbEntity
  8
Clefs
  6
ByLayer
 62
  256
370
   -1
100
AcDbCircle
 10
1191.274341101274
 20
-643.3265128379264
 40
61.767823147167
100
AcDbArc
 50
43.54406200572176
 51
72.19232780709416
  0
ARC
  5
7C
100
AcDbEntity
  8
Clefs
  6
ByLayer
 62
  256
370
   -1
100
AcDbCircle
 10
1231.061343505333
 20
-643.1497271214878
 40
98.33791290296394
100
AcDbArc
 50
324.8641917133723
 51
356.7104646522566
  0
ARC
  5
7D
100
AcDbEntity
  8
Clefs
  6
ByLayer
 62
  256
370
   -1
100
AcDbCircle
 10
1165.048576243111
 20
-609.3597880335303
 40
172.0812140695403
100
AcDbArc
 50
310.2689128186651
 51
328.3151722444454
  0
ARC
  5
7E
100
AcDbEntity
  8
Clefs
  6
ByLayer
 62
  256
370
   -1
100
AcDbCircle
 10
994.9287828422241
 20
-428.6221454827012
 40
420.149382312744
100
AcDbArc
 50
305.5982838993229
 51
312.0393056121243
  0
ARC
  5
7F
100
AcDbEntity
  8
Clefs
  6
ByLayer
 62
  256
370
   -1
100
AcDbCircle
 10
1118.075580497119
 20
-802.1008488446939
 40
125.5287558782627
100
AcDbArc
 50
10.41152434074614
 51
14.6970160336903
  0
ARC
  5
80
100
AcDbEntity
  8
Clefs
  6
ByLayer
 62
  256
370
   -1
100
AcDbCircle
 10
492.3890756363833
 20
409.9340419155801
 40
1405.623042657448
100
AcDbArc
 50
302.2060348041109
 51
305.3641358265819
  0
ARC
  5
81
100
AcDbEntity
  8
Clefs
  6
ByLayer
 62
  256
370
   -1
100
AcDbCircle
 10
1150.202474435985
 20
-546.1615935342379
 40
245.7962270523627
100
AcDbArc
 50
309.3113239126145
 51
324.532588005248
  0
ARC
  5
82
100
AcDbEntity
  8
Clefs
  6
ByLayer
 62
  256
370
   -1
100
AcDbCircle
 10
1266.604622242899
 20
-635.8885259596016
 40
99.08466629814497
100
AcDbArc
 50
327.7357706932597
 51
359.0558289569469
  0
ARC
  5
83
100
AcDbEntity
  8
Clefs
  6
ByLayer
 62
  256
370
   -1
100
AcDbCircle
 10
1308.809400431679
 20
-636.5160376798055
 40
56.87531887185408
100
AcDbArc
 50
358.9872959730013
 51
51.30227528835675
  0
ARC
  5
84
100
AcDbEntity
  8
Clefs
  6
ByLayer
 62
  256
370
   -1
100
AcDbCircle
 10
1301.181104294361
 20
-644.9943823261722
 40
68.26470826909147
100
AcDbArc
 50
50.75437401131401
 51
100.7266806922652
  0
ARC
  5
85
100
AcDbEntity
  8
Clefs
  6
ByLayer
 62
  256
370
   -1
100
AcDbCircle
 10
1301.658937996155
 20
-637.7668954882581
 40
61.27932485997879
100
AcDbArc
 50
102.4236562363298
 51
158.9442887239391
  0
ARC
  5
86
100
AcDbEntity
  8
Clefs
  6
ByLayer
 62
  256
370
   -1
100
AcDbCircle
 10
1192.887980958486
 20
-635.59441827556
 40
55.26838293931171
100
AcDbArc
 50
351.5695019840563
 51
21.04138997048098
  0
ARC
  5
87
100
AcDbEntity
  8
Clefs
  6
ByLayer
 62
  256
370
   -1
100
AcDbCircle
 10
1270.961769207868
 20
-633.1706683618115
 40
25.66109998787412
100
AcDbArc
 50
204.2184801890887
 51
318.4764362286821
  0
ARC
  5
88
100
AcDbEntity
  8
Clefs
  6
ByLayer
 62
  256
370
   -1
100
AcDbCircle
 10
1276.733479447057
 20
-633.7666514020418
 40
21.21580133274878
100
AcDbArc
 50
309.3092140457214
 51
54.36906760109558
  0
ARC
  5
89
100
AcDbEntity
  8
Clefs
  6
ByLayer
 62
  256
370
   -1
100
AcDbCircle
 10
1275.905307580782
 20
-642.221529482644
 40
28.88499696752012
100
AcDbArc
 50
62.83474962899009
 51
111.1789863590518
  0
CIRCLE
  5
8A
100
AcDbEntity
  8
Clefs
  6
ByLayer
 62
  256
370
   -1
100
AcDbCircle
 10
1381.96512888854
 20
-605.0970716847316
 40
14.20676942795694
  0
CIRCLE
  5
8B
100
AcDbEntity
  8
Clefs
  6
ByLayer
 62
  256
370
   -1
100
AcDbCircle
 10
1386.442754578476
 20
-654.9685578174615
 40
14.9866322976009
  0
ARC
  5
8C
100
AcDbEntity
  8
Clefs
  6
ByLayer
 62
  256
370
   -1
100
AcDbCircle
 10
1294.053507706306
 20
-630.4709084086423
 40
40.38365826450703
100
AcDbArc
 50
69.44601307950211
 51
127.1983955737653
  0
ARC
  5
8D
100
AcDbEntity
  8
Clefs
  6
ByLayer
 62
  256
370
   -1
100
AcDbCircle
 10
1256.516202291741
 20
-640.2748974749145
 40
73.21814854726246
100
AcDbArc
 50
353.3195324071692
 51
32.878616313889
  0
ARC
  5
8E
100
AcDbEntity
  8
Clefs
  6
ByLayer
 62
  256
370
   -1
100
AcDbCircle
 10
1301.210002303069
 20
-611.3848373270732
 40
20
100
AcDbArc
 50
32.87861631388903
 51
69.44601307950204
  0
ARC
  5
8F
100
AcDbEntity
  8
Clefs
  6
ByLayer
 62
  256
370
   -1
100
AcDbCircle
 10
1277.17897263213
 20
-613.0660657206547
 40
16.57692057932177
100
AcDbArc
 50
117.0571303251647
 51
174.3272939854029
  0
ARC
  5
90
100
AcDbEntity
  8
Clefs
  6
ByLayer
 62
  256
370
   -1
100
AcDbCircle
 10
1264.425289726599
 20
-611.6849538200588
 40
3.750902098332535
100
AcDbArc
 50
176.064369532067
 51
286.1666376005045
  0
ARC
  5
91
100
AcDbEntity
  8
Clefs
  6
ByLayer
 62
  256
370
   -1
100
AcDbCircle
 10
1170.658388494643
 20
-537.026506483099
 40
34.07581858138524
100
AcDbArc
 50
98.69026334270559
 51
167.3468382992717
  0
ARC
  5
92
100
AcDbEntity
  8
Clefs
  6
ByLayer
 62
  256
370
   -1
100
AcDbCircle
 10
1179.260338695899
 20
-536.5553421132752
 40
32.64305973522304
100
AcDbArc
 50
7.515786841136484
 51
73.90853329774072
  0
ARC
  5
93
100
AcDbEntity
  8
Clefs
  6
ByLayer
 62
  256
370
   -1
100
AcDbCircle
 10
1171.244612421473
 20
-574.0953839488329
 40
70.98552576165442
100
AcDbArc
 50
76.09106948722851
 51
94.63390787750244
  0
ARC
  5
94
100
AcDbEntity
  8
Clefs
  6
ByLayer
 62
  256
370
   -1
100
AcDbCircle
 10
1177.658685118266
 20
-547.0844272947068
 40
31.30869850602059
100
AcDbArc
 50
75.55550815039597
 51
122.6096283391517
  0
ARC
  5
95
100
AcDbEntity
  8
Clefs
  6
ByLayer
 62
  256
370
   -1
100
AcDbCircle
 10
1171.118922950392
 20
-543.64012859943
 40
30.88220822716534
100
AcDbArc
 50
356.2658500049518
 51
55.4092858887109
  0
ARC
  5
96
100
AcDbEntity
  8
Clefs
  6
ByLayer
 62
  256
370
   -1
100
AcDbCircle
 10
1182.973968325006
 20
-526.4493019872941
 40
10
100
AcDbArc
 50
55.4092858887107
 51
75.55550815039631
  0
ARC
  5
97
100
AcDbEntity
  8
Clefs
  6
ByLayer
 62
  256
370
   -1
100
AcDbCircle
 10
1183.607459679188
 20
-608.8795799604577
 40
4.569364222135668
100
AcDbArc
 50
291.177442137083
 51
14.67565608435816
  0
ARC
  5
98
100
AcDbEntity
  8
Clefs
  6
ByLayer
 62
  256
370
   -1
100
AcDbCircle
 10
1195.943334977951
 20
-632.1893661771596
 40
22.02432452658864
100
AcDbArc
 50
126.0286469663219
 51
234.5620946371574
  0
ARC
  5
99
100
AcDbEntity
  8
Clefs
  6
ByLayer
 62
  256
370
   -1
100
AcDbCircle
 10
1188.870751451394
 20
-622.4650182514322
 40
10
100
AcDbArc
 50
111.1774421370823
 51
126.0286469663219
  0
ARC
  5
9A
100
AcDbEntity
  8
Clefs
  6
ByLayer
 62
  256
370
   -1
100
AcDbCircle
 10
1183.710785289666
 20
-610.1861001609782
 40
4.970739155855022
100
AcDbArc
 50
29.71803369045116
 51
118.47270930696
  0
ARC
  5
9B
100
AcDbEntity
  8
Clefs
  6
ByLayer
 62
  256
370
   -1
100
AcDbCircle
 10
1188.507848640166
 20
-631.8009580041128
 40
26.76563954428798
100
AcDbArc
 50
108.9414889485508
 51
150.656014223849
  0
ARC
  5
9C
100
AcDbEntity
  8
Clefs
  6
ByLayer
 62
  256
370
   -1
100
AcDbCircle
 10
1176.573633388599
 20
-597.0261573946225
 40
10
100
AcDbArc
 50
288.9414889485504
 51
298.4727093069588
  0
ARC
  5
9D
100
AcDbEntity
  8
Clefs
  6
ByLayer
 62
  256
370
   -1
100
AcDbCircle
 10
1262.008649165602
 20
-785.517931450793
 40
75.22672626465742
100
AcDbArc
 50
181.509372126265
 51
234.119905605184
  0
ARC
  5
9E
100
AcDbEntity
  8
Clefs
  6
ByLayer
 62
  256
370
   -1
100
AcDbCircle
 10
1222.760548510568
 20
-834.5512631546428
 40
13.95009748191014
100
AcDbArc
 50
284.9541987008338
 51
345.0433413647002
  0
ARC
  5
9F
100
AcDbEntity
  8
Clefs
  6
ByLayer
 62
  256
370
   -1
100
AcDbCircle
 10
1223.779858593995
 20
-838.3675803676663
 40
10
100
AcDbArc
 50
234.1199056051838
 51
284.9541987008339
  0
ENDBLK
  5
51
330
4F
100
AcDbEntity
  8
0
100
AcDbBlockEnd
  0
BLOCK
  5
53
330
52
100
AcDbEntity
  8
0
100
AcDbBlockBegin
  2
2019-02-16 Clefs-0
 70
    0
 10
0
 20
0
  3
2019-02-16 Clefs-0
  1

  0
ARC
  5
A0
100
AcDbEntity
  8
Clefs
  6
ByLayer
 62
  256
370
   -1
100
AcDbCircle
 10
1159.764763543792
 20
-541.2501962455698
 40
20.56439724076726
100
AcDbArc
 50
272.8466169158161
 51
87.15338308418391
  0
ARC
  5
A1
100
AcDbEntity
  8
Clefs
  6
ByLayer
 62
  256
370
   -1
100
AcDbCircle
 10
1161.517392874743
 20
-536.6673631601253
 40
25.13249849931315
100
AcDbArc
 50
163.5782010483629
 51
268.3324658828161
  0
ARC
  5
A2
100
AcDbEntity
  8
Clefs
  6
ByLayer
 62
  256
370
   -1
100
AcDbCircle
 10
1157.639402594765
 20
-544.5655139741369
 40
55.36261574842981
100
AcDbArc
 50
354.6153387456451
 51
12.81523946521248
  0
ARC
  5
A3
100
AcDbEntity
  8
Clefs
  6
ByLayer
 62
  256
370
   -1
100
AcDbCircle
 10
1261.169225617845
 20
-764.1671532511731
 40
64.23799293814383
100
AcDbArc
 50
176.6030985481378
 51
229.7172269849641
  0
ARC
  5
A4
100
AcDbEntity
  8
Clefs
  6
ByLayer
 62
  256
370
   -1
100
AcDbCircle
 10
1223.45845573813
 20
-805.9174074324882
 40
8.200193896159371
100
AcDbArc
 50
242.2117349453048
 51
342.0610375925268
  0
ARC
  5
A5
100
AcDbEntity
  8
Clefs
  6
ByLayer
 62
  256
370
   -1
100
AcDbCircle
 10
1191.295990509982
 20
-801.5698863349643
 40
40.55074564015025
100
AcDbArc
 50
350.2414523240544
 51
35.49275595598386
  0
ARC
  5
A6
100
AcDbEntity
  8
Clefs
  6
ByLayer
 62
  256
370
   -1
100
AcDbCircle
 10
1120.445392083898
 20
-851.3570461164012
 40
127.1443589865797
100
AcDbArc
 50
35.22250674634513
 51
50.77750865558638
  0
ARC
  5
A7
100
AcDbEntity
  8
Clefs
  6
ByLayer
 62
  256
370
   -1
100
AcDbCircle
 10
1196.951316345706
 20
-654.6422695007776
 40
74.16208697187983
100
AcDbArc
 50
105.9255821046178
 51
220.2134852901577
  0
ARC
  5
A8
100
AcDbEntity
  8
Clefs
  6
ByLayer
 62
  256
370
   -1
100
AcDbCircle
 10
1193.378458690038
 20
-634.8106279470052
 40
54.5807100522211
100
AcDbArc
 50
315.5488911110288
 51
38.57976199612872
  0
ARC
  5
A9
100
AcDbEntity
  8
Clefs
  6
ByLayer
 62
  256
370
   -1
100
AcDbCircle
 10
1202.746311967739
 20
-639.926407175591
 40
43.15923231007343
100
AcDbArc
 50
150.5162034180153
 51
230.0934895195167
  0
ARC
  5
AA
100
AcDbEntity
  8
Clefs
  6
ByLayer
 62
  256
370
   -1
100
AcDbCircle
 10
1202.719554876376
 20
-628.3974272579047
 40
26.42062833998115
100
AcDbArc
 50
307.7313225194825
 51
8.246111084678464
  0
ARC
  5
AB
100
AcDbEntity
  8
Clefs
  6
ByLayer
 62
  256
370
   -1
100
AcDbCircle
 10
1201.980088415473
 20
-622.7502480059251
 40
26.95104197512345
100
AcDbArc
 50
356.0473538659427
 51
48.21565608475805
  0
ARC
  5
AC
100
AcDbEntity
  8
Clefs
  6
ByLayer
 62
  256
370
   -1
100
AcDbCircle
 10
1189.968990968263
 20
-640.8661244163735
 40
50.78972693088518
100
AcDbArc
 50
153.495632892369
 51
222.1104496269374
  0
ARC
  5
AD
100
AcDbEntity
  8
Clefs
  6
ByLayer
 62
  256
370
   -1
100
AcDbCircle
 10
1282.993658449387
 20
-561.9168887841205
 40
172.7827716314661
100
AcDbArc
 50
220.8469191615908
 51
237.0897691992129
  0
ARC
  5
AE
100
AcDbEntity
  8
Clefs
  6
ByLayer
 62
  256
370
   -1
100
AcDbCircle
 10
1162.541754995806
 20
-786.1608165145761
 40
78.58234182393842
100
AcDbArc
 50
11.67919891563858
 51
42.93048266185173
  0
ARC
  5
AF
100
AcDbEntity
  8
Clefs
  6
ByLayer
 62
  256
370
   -1
100
AcDbCircle
 10
1126.649806566019
 20
-798.8639828129548
 40
116.417774911755
100
AcDbArc
 50
340.277124087908
 51
14.22669955198456
  0
LINE
  5
B0
100
AcDbEntity
  8
Clefs
  6
ByLayer
 62
  256
370
   -1
100
AcDbLine
 10
1186.808024339096
 20
-787.4994385037384
 11
1189.473397537155
 21
-744.8874109726011
  0
LINE
  5
B1
100
AcDbEntity
  8
Clefs
  6
ByLayer
 62
  256
370
   -1
100
AcDbLine
 10
1197.760726610306
 20
-750.7563408430477
 11
1197.044096665594
 21
-760.3608987170934
  0
LINE
  5
B2
100
AcDbEntity
  8
Clefs
  6
ByLayer
 62
  256
370
   -1
100
AcDbLine
 10
1191.707704146591
 20
-709.1669592085976
 11
1193.356976274058
 21
-682.7996087178002
  0
LINE
  5
B3
100
AcDbEntity
  8
Clefs
  6
ByLayer
 62
  256
370
   -1
100
AcDbLine
 10
1202.737107788717
 20
-684.0609126320318
 11
1200.323930071537
 21
-716.4032745666162
  0
LINE
  5
B4
100
AcDbEntity
  8
Clefs
  6
ByLayer
 62
  256
370
   -1
100
AcDbLine
 10
1199.653856383974
 20
-582.1297179874888
 11
1201.935567565039
 21
-545.6513967766067
  0
LINE
  5
B5
100
AcDbEntity
  8
Clefs
  6
ByLayer
 62
  256
370
   -1
100
AcDbLine
 10
1195.001655135958
 20
-656.5056919806503
 11
1198.995669423058
 21
-592.6523273240153
  0
LINE
  5
B6
100
AcDbEntity
  8
Clefs
  6
ByLayer
 62
  256
370
   -1
100
AcDbLine
 10
1212.757709919288
 20
-549.7608407384226
 11
1210.16434954903
 21
-584.5180818336624
  0
LINE
  5
B7
100
AcDbEntity
  8
Clefs
  6
ByLayer
 62
  256
370
   -1
100
AcDbLine
 10
1209.370337892601
 20
-595.1597400048294
 11
1204.771711790442
 21
-656.7923453197874
  0
ARC
  5
B8
100
AcDbEntity
  8
Clefs
  6
ByLayer
 62
  256
370
   -1
100
AcDbCircle
 10
1421.802515064495
 20
-425.6084604497745
 40
394.8618329213272
100
AcDbArc
 50
224.5311981032364
 51
233.9578117910517
  0
ARC
  5
B9
100
AcDbEntity
  8
Clefs
  6
ByLayer
 62
  256
370
   -1
100
AcDbCircle
 10
1421.802515064495
 20
-425.6084604497745
 40
394.8618329213272
100
AcDbArc
 50
235.4313780160147
 51
235.972769225526
  0
ARC
  5
BA
100
AcDbEntity
  8
Clefs
  6
ByLayer
 62
  256
370
   -1
100
AcDbCircle
 10
2305.569412339008
 20
608.3519507146018
 40
1725.266351315804
100
AcDbArc
 50
229.6752536022253
 51
229.7880298524064
  0
ARC
  5
BB
100
AcDbEntity
  8
Clefs
  6
ByLayer
 62
  256
370
   -1
100
AcDbCircle
 10
2305.569412339008
 20
608.3519507146018
 40
1725.266351315804
100
AcDbArc
 50
230.161701625846
 51
231.0108579149249
  0
ARC
  5
BC
100
AcDbEntity
  8
Clefs
  6
ByLayer
 62
  256
370
   -1
100
AcDbCircle
 10
1203.699440513143
 20
-641.3942053405275
 40
42.67755845138732
100
AcDbArc
 50
227.8471561181946
 51
255.9753308255024
  0
ARC
  5
BD
100
AcDbEntity
  8
Clefs
  6
ByLayer
 62
  256
370
   -1
100
AcDbCircle
 10
1203.699440513143
 20
-641.3942053405275
 40
42.67755845138732
100
AcDbArc
 50
268.7079327132739
 51
312.1528438818054
  0
ARC
  5
BE
100
AcDbEntity
  8
Clefs
  6
ByLayer
 62
  256
370
   -1
100
AcDbCircle
 10
1200.612036249806
 20
-631.9266908342239
 40
25.21118151929366
100
AcDbArc
 50
226.2342962693309
 51
257.1420052346525
  0
ARC
  5
BF
100
AcDbEntity
  8
Clefs
  6
ByLayer
 62
  256
370
   -1
100
AcDbCircle
 10
1200.612036249806
 20
-631.9266908342239
 40
25.21118151929366
100
AcDbArc
 50
279.4968441113584
 51
316.4614782910665
  0
ARC
  5
C0
100
AcDbEntity
  8
Clefs
  6
ByLayer
 62
  256
370
   -1
100
AcDbCircle
 10
1197.632559914136
 20
-622.9101137193933
 40
30.13069320758727
100
AcDbArc
 50
42.2429371534739
 51
67.07274143192042
  0
ARC
  5
C1
100
AcDbEntity
  8
Clefs
  6
ByLayer
 62
  256
370
   -1
100
AcDbCircle
 10
1192.417870323334
 20
-649.4845331501598
 40
57.21159899934281
100
AcDbArc
 50
83.3979222579496
 51
146.8512447885381
  0
ARC
  5
C2
100
AcDbEntity
  8
Clefs
  6
ByLayer
 62
  256
370
   -1
100
AcDbCircle
 10
1191.274341101274
 20
-643.3265128379265
 40
61.767823147167
100
AcDbArc
 50
82.20312728337623
 51
103.7413251444572
  0
ARC
  5
C3
100
AcDbEntity
  8
Clefs
  6
ByLayer
 62
  256
370
   -1
100
AcDbCircle
 10
1191.274341101274
 20
-643.3265128379265
 40
61.767823147167
100
AcDbArc
 50
43.54406200572176
 51
72.19232780709416
  0
ARC
  5
C4
100
AcDbEntity
  8
Clefs
  6
ByLayer
 62
  256
370
   -1
100
AcDbCircle
 10
1231.061343505333
 20
-643.1497271214879
 40
98.33791290296394
100
AcDbArc
 50
324.8641917133723
 51
356.7104646522566
  0
ARC
  5
C5
100
AcDbEntity
  8
Clefs
  6
ByLayer
 62
  256
370
   -1
100
AcDbCircle
 10
1165.048576243111
 20
-609.3597880335304
 40
172.0812140695403
100
AcDbArc
 50
310.2689128186651
 51
328.3151722444454
  0
ARC
  5
C6
100
AcDbEntity
  8
Clefs
  6
ByLayer
 62
  256
370
   -1
100
AcDbCircle
 10
994.9287828422241
 20
-428.6221454827011
 40
420.149382312744
100
AcDbArc
 50
305.5982838993229
 51
312.0393056121243
  0
ARC
  5
C7
100
AcDbEntity
  8
Clefs
  6
ByLayer
 62
  256
370
   -1
100
AcDbCircle
 10
1118.075580497119
 20
-802.100848844694
 40
125.5287558782627
100
AcDbArc
 50
10.41152434074614
 51
14.6970160336903
  0
ARC
  5
C8
100
AcDbEntity
  8
Clefs
  6
ByLayer
 62
  256
370
   -1
100
AcDbCircle
 10
492.3890756363833
 20
409.9340419155801
 40
1405.623042657448
100
AcDbArc
 50
302.2060348041109
 51
305.3641358265819
  0
ARC
  5
C9
100
AcDbEntity
  8
Clefs
  6
ByLayer
 62
  256
370
   -1
100
AcDbCircle
 10
1150.202474435985
 20
-546.1615935342378
 40
245.7962270523627
100
AcDbArc
 50
309.3113239126145
 51
324.532588005248
  0
ARC
  5
CA
100
AcDbEntity
  8
Clefs
  6
ByLayer
 62
  256
370
   -1
100
AcDbCircle
 10
1266.604622242899
 20
-635.8885259596015
 40
99.08466629814497
100
AcDbArc
 50
327.7357706932597
 51
359.0558289569469
  0
ARC
  5
CB
100
AcDbEntity
  8
Clefs
  6
ByLayer
 62
  256
370
   -1
100
AcDbCircle
 10
1308.809400431679
 20
-636.5160376798057
 40
56.87531887185408
100
AcDbArc
 50
358.9872959730013
 51
51.30227528835675
  0
ARC
  5
CC
100
AcDbEntity
  8
Clefs
  6
ByLayer
 62
  256
370
   -1
100
AcDbCircle
 10
1301.181104294361
 20
-644.9943823261723
 40
68.26470826909147
100
AcDbArc
 50
50.75437401131401
 51
100.7266806922652
  0
ARC
  5
CD
100
AcDbEntity
  8
Clefs
  6
ByLayer
 62
  256
370
   -1
100
AcDbCircle
 10
1301.658937996155
 20
-637.766895488258
 40
61.27932485997879
100
AcDbArc
 50
102.4236562363298
 51
158.9442887239391
  0
ARC
  5
CE
100
AcDbEntity
  8
Clefs
  6
ByLayer
 62
  256
370
   -1
100
AcDbCircle
 10
1192.887980958486
 20
-635.5944182755601
 40
55.26838293931171
100
AcDbArc
 50
351.5695019840563
 51
21.04138997048098
  0
ARC
  5
CF
100
AcDbEntity
  8
Clefs
  6
ByLayer
 62
  256
370
   -1
100
AcDbCircle
 10
1270.961769207868
 20
-633.1706683618114
 40
25.66109998787412
100
AcDbArc
 50
204.2184801890887
 51
318.4764362286821
  0
ARC
  5
D0
100
AcDbEntity
  8
Clefs
  6
ByLayer
 62
  256
370
   -1
100
AcDbCircle
 10
1276.733479447057
 20
-633.7666514020419
 40
21.21580133274878
100
AcDbArc
 50
309.3092140457214
 51
54.36906760109558
  0
ARC
  5
D1
100
AcDbEntity
  8
Clefs
  6
ByLayer
 62
  256
370
   -1
100
AcDbCircle
 10
1275.905307580782
 20
-642.2215294826441
 40
28.88499696752012
100
AcDbArc
 50
62.83474962899009
 51
111.1789863590518
  0
CIRCLE
  5
D2
100
AcDbEntity
  8
Clefs
  6
ByLayer
 62
  256
370
   -1
100
AcDbCircle
 10
1381.96512888854
 20
-605.0970716847315
 40
14.20676942795694
  0
CIRCLE
  5
D3
100
AcDbEntity
  8
Clefs
  6
ByLayer
 62
  256
370
   -1
100
AcDbCircle
 10
1386.442754578476
 20
-654.9685578174614
 40
14.9866322976009
  0
ARC
  5
D4
100
AcDbEntity
  8
Clefs
  6
ByLayer
 62
  256
370
   -1
100
AcDbCircle
 10
1294.053507706306
 20
-630.4709084086425
 40
40.38365826450703
100
AcDbArc
 50
69.44601307950211
 51
127.1983955737653
  0
ARC
  5
D5
100
AcDbEntity
  8
Clefs
  6
ByLayer
 62
  256
370
   -1
100
AcDbCircle
 10
1256.516202291741
 20
-640.2748974749146
 40
73.21814854726246
100
AcDbArc
 50
353.3195324071692
 51
32.878616313889
  0
ARC
  5
D6
100
AcDbEntity
  8
Clefs
  6
ByLayer
 62
  256
370
   -1
100
AcDbCircle
 10
1301.210002303069
 20
-611.3848373270733
 40
20
100
AcDbArc
 50
32.87861631388903
 51
69.44601307950204
  0
ARC
  5
D7
100
AcDbEntity
  8
Clefs
  6
ByLayer
 62
  256
370
   -1
100
AcDbCircle
 10
1277.17897263213
 20
-613.0660657206548
 40
16.57692057932177
100
AcDbArc
 50
117.0571303251647
 51
174.3272939854029
  0
ARC
  5
D8
100
AcDbEntity
  8
Clefs
  6
ByLayer
 62
  256
370
   -1
100
AcDbCircle
 10
1264.425289726599
 20
-611.6849538200589
 40
3.750902098332535
100
AcDbArc
 50
176.064369532067
 51
286.1666376005045
  0
ARC
  5
D9
100
AcDbEntity
  8
Clefs
  6
ByLayer
 62
  256
370
   -1
100
AcDbCircle
 10
1170.658388494643
 20
-537.0265064830991
 40
34.07581858138524
100
AcDbArc
 50
98.69026334270559
 51
167.3468382992717
  0
ARC
  5
DA
100
AcDbEntity
  8
Clefs
  6
ByLayer
 62
  256
370
   -1
100
AcDbCircle
 10
1179.260338695899
 20
-536.5553421132753
 40
32.64305973522304
100
AcDbArc
 50
7.515786841136484
 51
73.90853329774072
  0
ARC
  5
DB
100
AcDbEntity
  8
Clefs
  6
ByLayer
 62
  256
370
   -1
100
AcDbCircle
 10
1171.244612421473
 20
-574.0953839488328
 40
70.98552576165442
100
AcDbArc
 50
76.09106948722851
 51
94.63390787750244
  0
ARC
  5
DC
100
AcDbEntity
  8
Clefs
  6
ByLayer
 62
  256
370
   -1
100
AcDbCircle
 10
1177.658685118266
 20
-547.0844272947069
 40
31.30869850602059
100
AcDbArc
 50
75.55550815039597
 51
122.6096283391517
  0
ARC
  5
DD
100
AcDbEntity
  8
Clefs
  6
ByLayer
 62
  256
370
   -1
100
AcDbCircle
 10
1171.118922950392
 20
-543.6401285994301
 40
30.88220822716534
100
AcDbArc
 50
356.2658500049518
 51
55.4092858887109
  0
ARC
  5
DE
100
AcDbEntity
  8
Clefs
  6
ByLayer
 62
  256
370
   -1
100
AcDbCircle
 10
1182.973968325006
 20
-526.449301987294
 40
10
100
AcDbArc
 50
55.4092858887107
 51
75.55550815039631
  0
ARC
  5
DF
100
AcDbEntity
  8
Clefs
  6
ByLayer
 62
  256
370
   -1
100
AcDbCircle
 10
1183.607459679188
 20
-608.8795799604576
 40
4.569364222135668
100
AcDbArc
 50
291.177442137083
 51
14.67565608435816
  0
ARC
  5
E0
100
AcDbEntity
  8
Clefs
  6
ByLayer
 62
  256
370
   -1
100
AcDbCircle
 10
1195.943334977951
 20
-632.1893661771595
 40
22.02432452658864
100
AcDbArc
 50
126.0286469663219
 51
234.5620946371574
  0
ARC
  5
E1
100
AcDbEntity
  8
Clefs
  6
ByLayer
 62
  256
370
   -1
100
AcDbCircle
 10
1188.870751451394
 20
-622.4650182514321
 40
10
100
AcDbArc
 50
111.1774421370823
 51
126.0286469663219
  0
ARC
  5
E2
100
AcDbEntity
  8
Clefs
  6
ByLayer
 62
  256
370
   -1
100
AcDbCircle
 10
1183.710785289666
 20
-610.1861001609781
 40
4.970739155855022
100
AcDbArc
 50
29.71803369045116
 51
118.47270930696
  0
ARC
  5
E3
100
AcDbEntity
  8
Clefs
  6
ByLayer
 62
  256
370
   -1
100
AcDbCircle
 10
1188.507848640166
 20
-631.8009580041127
 40
26.76563954428798
100
AcDbArc
 50
108.9414889485508
 51
150.656014223849
  0
ARC
  5
E4
100
AcDbEntity
  8
Clefs
  6
ByLayer
 62
  256
370
   -1
100
AcDbCircle
 10
1176.573633388599
 20
-597.0261573946226
 40
10
100
AcDbArc
 50
288.9414889485504
 51
298.4727093069588
  0
ARC
  5
E5
100
AcDbEntity
  8
Clefs
  6
ByLayer
 62
  256
370
   -1
100
AcDbCircle
 10
1262.008649165602
 20
-785.5179314507928
 40
75.22672626465742
100
AcDbArc
 50
181.509372126265
 51
234.119905605184
  0
ARC
  5
E6
100
AcDbEntity
  8
Clefs
  6
ByLayer
 62
  256
370
   -1
100
AcDbCircle
 10
1222.760548510568
 20
-834.5512631546429
 40
13.95009748191014
100
AcDbArc
 50
284.9541987008338
 51
345.0433413647002
  0
ARC
  5
E7
100
AcDbEntity
  8
Clefs
  6
ByLayer
 62
  256
370
   -1
100
AcDbCircle
 10
1223.779858593995
 20
-838.3675803676664
 40
10
100
AcDbArc
 50
234.1199056051838
 51
284.9541987008339
  0
ENDBLK
  5
54
330
52
100
AcDbEntity
  8
0
100
AcDbBlockEnd
  0
BLOCK
  5
56
330
55
100
AcDbEntity
  8
0
100
AcDbBlockBegin
  2
2019-02-16 Clefs-1
 70
    0
 10
0
 20
0
  3
2019-02-16 Clefs-1
  1

  0
ARC
  5
E8
100
AcDbEntity
  8
Clefs
  6
ByLayer
 62
  256
370
   -1
100
AcDbCircle
 10
1159.764763543792
 20
-541.2501962455697
 40
20.56439724076726
100
AcDbArc
 50
272.8466169158161
 51
87.15338308418391
  0
ARC
  5
E9
100
AcDbEntity
  8
Clefs
  6
ByLayer
 62
  256
370
   -1
100
AcDbCircle
 10
1161.517392874743
 20
-536.6673631601252
 40
25.13249849931315
100
AcDbArc
 50
163.5782010483629
 51
268.3324658828161
  0
ARC
  5
EA
100
AcDbEntity
  8
Clefs
  6
ByLayer
 62
  256
370
   -1
100
AcDbCircle
 10
1157.639402594765
 20
-544.565513974137
 40
55.36261574842981
100
AcDbArc
 50
354.6153387456451
 51
12.81523946521248
  0
ARC
  5
EB
100
AcDbEntity
  8
Clefs
  6
ByLayer
 62
  256
370
   -1
100
AcDbCircle
 10
1261.169225617845
 20
-764.1671532511732
 40
64.23799293814383
100
AcDbArc
 50
176.6030985481378
 51
229.7172269849641
  0
ARC
  5
EC
100
AcDbEntity
  8
Clefs
  6
ByLayer
 62
  256
370
   -1
100
AcDbCircle
 10
1223.45845573813
 20
-805.9174074324883
 40
8.200193896159371
100
AcDbArc
 50
242.2117349453048
 51
342.0610375925268
  0
ARC
  5
ED
100
AcDbEntity
  8
Clefs
  6
ByLayer
 62
  256
370
   -1
100
AcDbCircle
 10
1191.295990509982
 20
-801.5698863349644
 40
40.55074564015025
100
AcDbArc
 50
350.2414523240544
 51
35.49275595598386
  0
ARC
  5
EE
100
AcDbEntity
  8
Clefs
  6
ByLayer
 62
  256
370
   -1
100
AcDbCircle
 10
1120.445392083898
 20
-851.3570461164011
 40
127.1443589865797
100
AcDbArc
 50
35.22250674634513
 51
50.77750865558638
  0
ARC
  5
EF
100
AcDbEntity
  8
Clefs
  6
ByLayer
 62
  256
370
   -1
100
AcDbCircle
 10
1196.951316345706
 20
-654.6422695007777
 40
74.16208697187983
100
AcDbArc
 50
105.9255821046178
 51
220.2134852901577
  0
ARC
  5
F0
100
AcDbEntity
  8
Clefs
  6
ByLayer
 62
  256
370
   -1
100
AcDbCircle
 10
1193.378458690038
 20
-634.8106279470053
 40
54.5807100522211
100
AcDbArc
 50
315.5488911110288
 51
38.57976199612872
  0
ARC
  5
F1
100
AcDbEntity
  8
Clefs
  6
ByLayer
 62
  256
370
   -1
100
AcDbCircle
 10
1202.746311967739
 20
-639.9264071755908
 40
43.15923231007343
100
AcDbArc
 50
150.5162034180153
 51
230.0934895195167
  0
ARC
  5
F2
100
AcDbEntity
  8
Clefs
  6
ByLayer
 62
  256
370
   -1
100
AcDbCircle
 10
1202.719554876376
 20
-628.3974272579046
 40
26.42062833998115
100
AcDbArc
 50
307.7313225194825
 51
8.246111084678464
  0
ARC
  5
F3
100
AcDbEntity
  8
Clefs
  6
ByLayer
 62
  256
370
   -1
100
AcDbCircle
 10
1201.980088415473
 20
-622.750248005925
 40
26.95104197512345
100
AcDbArc
 50
356.0473538659427
 51
48.21565608475805
  0
ARC
  5
F4
100
AcDbEntity
  8
Clefs
  6
ByLayer
 62
  256
370
   -1
100
AcDbCircle
 10
1189.968990968263
 20
-640.8661244163736
 40
50.78972693088518
100
AcDbArc
 50
153.495632892369
 51
222.1104496269374
  0
ARC
  5
F5
100
AcDbEntity
  8
Clefs
  6
ByLayer
 62
  256
370
   -1
100
AcDbCircle
 10
1282.993658449387
 20
-561.9168887841204
 40
172.7827716314661
100
AcDbArc
 50
220.8469191615908
 51
237.0897691992129
  0
ARC
  5
F6
100
AcDbEntity
  8
Clefs
  6
ByLayer
 62
  256
370
   -1
100
AcDbCircle
 10
1162.541754995806
 20
-786.160816514576
 40
78.58234182393842
100
AcDbArc
 50
11.67919891563858
 51
42.93048266185173
  0
ARC
  5
F7
100
AcDbEntity
  8
Clefs
  6
ByLayer
 62
  256
370
   -1
100
AcDbCircle
 10
1126.649806566019
 20
-798.8639828129549
 40
116.417774911755
100
AcDbArc
 50
340.277124087908
 51
14.22669955198456
  0
LINE
  5
F8
100
AcDbEntity
  8
Clefs
  6
ByLayer
 62
  256
370
   -1
100
AcDbLine
 10
1186.808024339096
 20
-787.4994385037382
 11
1189.473397537155
 21
-744.8874109726009
  0
LINE
  5
F9
100
AcDbEntity
  8
Clefs
  6
ByLayer
 62
  256
370
   -1
100
AcDbLine
 10
1197.760726610306
 20
-750.7563408430478
 11
1197.044096665594
 21
-760.3608987170933
  0
LINE
  5
FA
100
AcDbEntity
  8
Clefs
  6
ByLayer
 62
  256
370
   -1
100
AcDbLine
 10
1191.707704146591
 20
-709.1669592085977
 11
1193.356976274058
 21
-682.7996087178003
  0
LINE
  5
FB
100
AcDbEntity
  8
Clefs
  6
ByLayer
 62
  256
370
   -1
100
AcDbLine
 10
1202.737107788717
 20
-684.0609126320319
 11
1200.323930071537
 21
-716.4032745666163
  0
LINE
  5
FC
100
AcDbEntity
  8
Clefs
  6
ByLayer
 62
  256
370
   -1
100
AcDbLine
 10
1199.653856383974
 20
-582.1297179874887
 11
1201.935567565039
 21
-545.6513967766068
  0
LINE
  5
FD
100
AcDbEntity
  8
Clefs
  6
ByLayer
 62
  256
370
   -1
100
AcDbLine
 10
1195.001655135958
 20
-656.5056919806502
 11
1198.995669423058
 21
-592.6523273240152
  0
LINE
  5
FE
100
AcDbEntity
  8
Clefs
  6
ByLayer
 62
  256
370
   -1
100
AcDbLine
 10
1212.757709919288
 20
-549.7608407384225
 11
1210.16434954903
 21
-584.5180818336623
  0
LINE
  5
FF
100
AcDbEntity
  8
Clefs
  6
ByLayer
 62
  256
370
   -1
100
AcDbLine
 10
1209.370337892601
 20
-595.1597400048295
 11
1204.771711790442
 21
-656.7923453197873
  0
ARC
  5
100
100
AcDbEntity
  8
Clefs
  6
ByLayer
 62
  256
370
   -1
100
AcDbCircle
 10
1421.802515064495
 20
-425.6084604497746
 40
394.8618329213272
100
AcDbArc
 50
224.5311981032364
 51
233.9578117910517
  0
ARC
  5
101
100
AcDbEntity
  8
Clefs
  6
ByLayer
 62
  256
370
   -1
100
AcDbCircle
 10
1421.802515064495
 20
-425.6084604497746
 40
394.8618329213272
100
AcDbArc
 50
235.4313780160147
 51
235.972769225526
  0
ARC
  5
102
100
AcDbEntity
  8
Clefs
  6
ByLayer
 62
  256
370
   -1
100
AcDbCircle
 10
2305.569412339008
 20
608.3519507146018
 40
1725.266351315804
100
AcDbArc
 50
229.6752536022253
 51
229.7880298524064
  0
ARC
  5
103
100
AcDbEntity
  8
Clefs
  6
ByLayer
 62
  256
370
   -1
100
AcDbCircle
 10
2305.569412339008
 20
608.3519507146018
 40
1725.266351315804
100
AcDbArc
 50
230.161701625846
 51
231.0108579149249
  0
ARC
  5
104
100
AcDbEntity
  8
Clefs
  6
ByLayer
 62
  256
370
   -1
100
AcDbCircle
 10
1203.699440513143
 20
-641.3942053405274
 40
42.67755845138732
100
AcDbArc
 50
227.8471561181946
 51
255.9753308255024
  0
ARC
  5
105
100
AcDbEntity
  8
Clefs
  6
ByLayer
 62
  256
370
   -1
100
AcDbCircle
 10
1203.699440513143
 20
-641.3942053405274
 40
42.67755845138732
100
AcDbArc
 50
268.7079327132739
 51
312.1528438818054
  0
ARC
  5
106
100
AcDbEntity
  8
Clefs
  6
ByLayer
 62
  256
370
   -1
100
AcDbCircle
 10
1200.612036249806
 20
-631.9266908342238
 40
25.21118151929366
100
AcDbArc
 50
226.2342962693309
 51
257.1420052346525
  0
ARC
  5
107
100
AcDbEntity
  8
Clefs
  6
ByLayer
 62
  256
370
   -1
100
AcDbCircle
 10
1200.612036249806
 20
-631.9266908342238
 40
25.21118151929366
100
AcDbArc
 50
279.4968441113584
 51
316.4614782910665
  0
ARC
  5
108
100
AcDbEntity
  8
Clefs
  6
ByLayer
 62
  256
370
   -1
100
AcDbCircle
 10
1197.632559914136
 20
-622.9101137193934
 40
30.13069320758727
100
AcDbArc
 50
42.2429371534739
 51
67.07274143192042
  0
ARC
  5
109
100
AcDbEntity
  8
Clefs
  6
ByLayer
 62
  256
370
   -1
100
AcDbCircle
 10
1192.417870323334
 20
-649.4845331501597
 40
57.21159899934281
100
AcDbArc
 50
83.3979222579496
 51
146.8512447885381
  0
ARC
  5
10A
100
AcDbEntity
  8
Clefs
  6
ByLayer
 62
  256
370
   -1
100
AcDbCircle
 10
1191.274341101274
 20
-643.3265128379264
 40
61.767823147167
100
AcDbArc
 50
82.20312728337623
 51
103.7413251444572
  0
ARC
  5
10B
100
AcDbEntity
  8
Clefs
  6
ByLayer
 62
  256
370
   -1
100
AcDbCircle
 10
1191.274341101274
 20
-643.3265128379264
 40
61.767823147167
100
AcDbArc
 50
43.54406200572176
 51
72.19232780709416
  0
ARC
  5
10C
100
AcDbEntity
  8
Clefs
  6
ByLayer
 62
  256
370
   -1
100
AcDbCircle
 10
1231.061343505333
 20
-643.149727121488
 40
98.33791290296394
100
AcDbArc
 50
324.8641917133723
 51
356.7104646522566
  0
ARC
  5
10D
100
AcDbEntity
  8
Clefs
  6
ByLayer
 62
  256
370
   -1
100
AcDbCircle
 10
1165.048576243111
 20
-609.3597880335303
 40
172.0812140695403
100
AcDbArc
 50
310.2689128186651
 51
328.3151722444454
  0
ARC
  5
10E
100
AcDbEntity
  8
Clefs
  6
ByLayer
 62
  256
370
   -1
100
AcDbCircle
 10
994.9287828422241
 20
-428.6221454827012
 40
420.149382312744
100
AcDbArc
 50
305.5982838993229
 51
312.0393056121243
  0
ARC
  5
10F
100
AcDbEntity
  8
Clefs
  6
ByLayer
 62
  256
370
   -1
100
AcDbCircle
 10
1118.075580497119
 20
-802.1008488446942
 40
125.5287558782627
100
AcDbArc
 50
10.41152434074614
 51
14.6970160336903
  0
ARC
  5
110
100
AcDbEntity
  8
Clefs
  6
ByLayer
 62
  256
370
   -1
100
AcDbCircle
 10
492.3890756363833
 20
409.9340419155801
 40
1405.623042657448
100
AcDbArc
 50
302.2060348041109
 51
305.3641358265819
  0
ARC
  5
111
100
AcDbEntity
  8
Clefs
  6
ByLayer
 62
  256
370
   -1
100
AcDbCircle
 10
1150.202474435985
 20
-546.1615935342379
 40
245.7962270523627
100
AcDbArc
 50
309.3113239126145
 51
324.532588005248
  0
ARC
  5
112
100
AcDbEntity
  8
Clefs
  6
ByLayer
 62
  256
370
   -1
100
AcDbCircle
 10
1266.604622242899
 20
-635.8885259596013
 40
99.08466629814497
100
AcDbArc
 50
327.7357706932597
 51
359.0558289569469
  0
ARC
  5
113
100
AcDbEntity
  8
Clefs
  6
ByLayer
 62
  256
370
   -1
100
AcDbCircle
 10
1308.809400431679
 20
-636.5160376798058
 40
56.87531887185408
100
AcDbArc
 50
358.9872959730013
 51
51.30227528835675
  0
ARC
  5
114
100
AcDbEntity
  8
Clefs
  6
ByLayer
 62
  256
370
   -1
100
AcDbCircle
 10
1301.181104294361
 20
-644.9943823261722
 40
68.26470826909147
100
AcDbArc
 50
50.75437401131401
 51
100.7266806922652
  0
ARC
  5
115
100
AcDbEntity
  8
Clefs
  6
ByLayer
 62
  256
370
   -1
100
AcDbCircle
 10
1301.658937996155
 20
-637.7668954882579
 40
61.27932485997879
100
AcDbArc
 50
102.4236562363298
 51
158.9442887239391
  0
ARC
  5
116
100
AcDbEntity
  8
Clefs
  6
ByLayer
 62
  256
370
   -1
100
AcDbCircle
 10
1192.887980958486
 20
-635.59441827556
 40
55.26838293931171
100
AcDbArc
 50
351.5695019840563
 51
21.04138997048098
  0
ARC
  5
117
100
AcDbEntity
  8
Clefs
  6
ByLayer
 62
  256
370
   -1
100
AcDbCircle
 10
1270.961769207868
 20
-633.1706683618113
 40
25.66109998787412
100
AcDbArc
 50
204.2184801890887
 51
318.4764362286821
  0
ARC
  5
118
100
AcDbEntity
  8
Clefs
  6
ByLayer
 62
  256
370
   -1
100
AcDbCircle
 10
1276.733479447057
 20
-633.7666514020418
 40
21.21580133274878
100
AcDbArc
 50
309.3092140457214
 51
54.36906760109558
  0
ARC
  5
119
100
AcDbEntity
  8
Clefs
  6
ByLayer
 62
  256
370
   -1
100
AcDbCircle
 10
1275.905307580782
 20
-642.2215294826442
 40
28.88499696752012
100
AcDbArc
 50
62.83474962899009
 51
111.1789863590518
  0
CIRCLE
  5
11A
100
AcDbEntity
  8
Clefs
  6
ByLayer
 62
  256
370
   -1
100
AcDbCircle
 10
1381.96512888854
 20
-605.0970716847314
 40
14.20676942795694
  0
CIRCLE
  5
11B
100
AcDbEntity
  8
Clefs
  6
ByLayer
 62
  256
370
   -1
100
AcDbCircle
 10
1386.442754578476
 20
-654.9685578174613
 40
14.9866322976009
  0
ARC
  5
11C
100
AcDbEntity
  8
Clefs
  6
ByLayer
 62
  256
370
   -1
100
AcDbCircle
 10
1294.053507706306
 20
-630.4709084086426
 40
40.38365826450703
100
AcDbArc
 50
69.44601307950211
 51
127.1983955737653
  0
ARC
  5
11D
100
AcDbEntity
  8
Clefs
  6
ByLayer
 62
  256
370
   -1
100
AcDbCircle
 10
1256.516202291741
 20
-640.2748974749147
 40
73.21814854726246
100
AcDbArc
 50
353.3195324071692
 51
32.878616313889
  0
ARC
  5
11E
100
AcDbEntity
  8
Clefs
  6
ByLayer
 62
  256
370
   -1
100
AcDbCircle
 10
1301.210002303069
 20
-611.3848373270732
 40
20
100
AcDbArc
 50
32.87861631388903
 51
69.44601307950204
  0
ARC
  5
11F
100
AcDbEntity
  8
Clefs
  6
ByLayer
 62
  256
370
   -1
100
AcDbCircle
 10
1277.17897263213
 20
-613.0660657206549
 40
16.57692057932177
100
AcDbArc
 50
117.0571303251647
 51
174.3272939854029
  0
ARC
  5
120
100
AcDbEntity
  8
Clefs
  6
ByLayer
 62
  256
370
   -1
100
AcDbCircle
 10
1264.425289726599
 20
-611.684953820059
 40
3.750902098332535
100
AcDbArc
 50
176.064369532067
 51
286.1666376005045
  0
ARC
  5
121
100
AcDbEntity
  8
Clefs
  6
ByLayer
 62
  256
370
   -1
100
AcDbCircle
 10
1170.658388494643
 20
-537.0265064830992
 40
34.07581858138524
100
AcDbArc
 50
98.69026334270559
 51
167.3468382992717
  0
ARC
  5
122
100
AcDbEntity
  8
Clefs
  6
ByLayer
 62
  256
370
   -1
100
AcDbCircle
 10
1179.260338695899
 20
-536.5553421132754
 40
32.64305973522304
100
AcDbArc
 50
7.515786841136484
 51
73.90853329774072
  0
ARC
  5
123
100
AcDbEntity
  8
Clefs
  6
ByLayer
 62
  256
370
   -1
100
AcDbCircle
 10
1171.244612421473
 20
-574.0953839488329
 40
70.98552576165442
100
AcDbArc
 50
76.09106948722851
 51
94.63390787750244
  0
ARC
  5
124
100
AcDbEntity
  8
Clefs
  6
ByLayer
 62
  256
370
   -1
100
AcDbCircle
 10
1177.658685118266
 20
-547.084427294707
 40
31.30869850602059
100
AcDbArc
 50
75.55550815039597
 51
122.6096283391517
  0
ARC
  5
125
100
AcDbEntity
  8
Clefs
  6
ByLayer
 62
  256
370
   -1
100
AcDbCircle
 10
1171.118922950392
 20
-543.6401285994302
 40
30.88220822716534
100
AcDbArc
 50
356.2658500049518
 51
55.4092858887109
  0
ARC
  5
126
100
AcDbEntity
  8
Clefs
  6
ByLayer
 62
  256
370
   -1
100
AcDbCircle
 10
1182.973968325006
 20
-526.4493019872939
 40
10
100
AcDbArc
 50
55.4092858887107
 51
75.55550815039631
  0
ARC
  5
127
100
AcDbEntity
  8
Clefs
  6
ByLayer
 62
  256
370
   -1
100
AcDbCircle
 10
1183.607459679188
 20
-608.8795799604577
 40
4.569364222135668
100
AcDbArc
 50
291.177442137083
 51
14.67565608435816
  0
ARC
  5
128
100
AcDbEntity
  8
Clefs
  6
ByLayer
 62
  256
370
   -1
100
AcDbCircle
 10
1195.943334977951
 20
-632.1893661771596
 40
22.02432452658864
100
AcDbArc
 50
126.0286469663219
 51
234.5620946371574
  0
ARC
  5
129
100
AcDbEntity
  8
Clefs
  6
ByLayer
 62
  256
370
   -1
100
AcDbCircle
 10
1188.870751451394
 20
-622.465018251432
 40
10
100
AcDbArc
 50
111.1774421370823
 51
126.0286469663219
  0
ARC
  5
12A
100
AcDbEntity
  8
Clefs
  6
ByLayer
 62
  256
370
   -1
100
AcDbCircle
 10
1183.710785289666
 20
-610.1861001609782
 40
4.970739155855022
100
AcDbArc
 50
29.71803369045116
 51
118.47270930696
  0
ARC
  5
12B
100
AcDbEntity
  8
Clefs
  6
ByLayer
 62
  256
370
   -1
100
AcDbCircle
 10
1188.507848640166
 20
-631.8009580041125
 40
26.76563954428798
100
AcDbArc
 50
108.9414889485508
 51
150.656014223849
  0
ARC
  5
12C
100
AcDbEntity
  8
Clefs
  6
ByLayer
 62
  256
370
   -1
100
AcDbCircle
 10
1176.573633388599
 20
-597.0261573946225
 40
10
100
AcDbArc
 50
288.9414889485504
 51
298.4727093069588
  0
ARC
  5
12D
100
AcDbEntity
  8
Clefs
  6
ByLayer
 62
  256
370
   -1
100
AcDbCircle
 10
1262.008649165602
 20
-785.5179314507927
 40
75.22672626465742
100
AcDbArc
 50
181.509372126265
 51
234.119905605184
  0
ARC
  5
12E
100
AcDbEntity
  8
Clefs
  6
ByLayer
 62
  256
370
   -1
100
AcDbCircle
 10
1222.760548510568
 20
-834.5512631546428
 40
13.95009748191014
100
AcDbArc
 50
284.9541987008338
 51
345.0433413647002
  0
ARC
  5
12F
100
AcDbEntity
  8
Clefs
  6
ByLayer
 62
  256
370
   -1
100
AcDbCircle
 10
1223.779858593995
 20
-838.3675803676663
 40
10
100
AcDbArc
 50
234.1199056051838
 51
284.9541987008339
  0
ENDBLK
  5
57
330
55
100
AcDbEntity
  8
0
100
AcDbBlockEnd
  0
ENDSEC
  0
SECTION
  2
ENTITIES
  0
LINE
  5
130
100
AcDbEntity
  8
Body from top
  6
ByLayer
 62
  256
370
   -1
100
AcDbLine
 10
896.9616412696697
 20
751.6084045473378
 11
894.7543509677432
 21
741.7774639394679
  0
LINE
  5
131
100
AcDbEntity
  8
Body from top
  6
ByLayer
 62
  256
370
   -1
100
AcDbLine
 10
885.3530669154289
 20
729.5141212398731
 11
894.6572745493435
 21
692.3417235581867
  0
LINE
  5
132
100
AcDbEntity
  8
Body from top
  6
ByLayer
 62
  256
370
   -1
100
AcDbLine
 10
891.5576835470619
 20
691.6245232800077
 11
892.9419533325848
 21
692.0188291939589
  0
LINE
  5
133
100
AcDbEntity
  8
Body from top
  6
ByLayer
 62
  256
370
   -1
100
AcDbLine
 10
915.7814591850373
 20
693.5014661408334
 11
910.0221019989457
 21
693.7044727808801
  0
LINE
  5
134
100
AcDbEntity
  8
Body from top
  6
ByLayer
 62
  256
370
   -1
100
AcDbLine
 10
910.0221019989457
 20
693.7044727808801
 11
904.3568586624518
 21
693.5407207485563
  0
LINE
  5
135
100
AcDbEntity
  8
Body from top
  6
ByLayer
 62
  256
370
   -1
100
AcDbLine
 10
904.3568586624518
 20
693.5407207485563
 11
898.6023495614771
 21
692.9631542020107
  0
LINE
  5
136
100
AcDbEntity
  8
Body from top
  6
ByLayer
 62
  256
370
   -1
100
AcDbLine
 10
898.6023495614771
 20
692.9631542020107
 11
892.9419533325848
 21
692.0188291939589
  0
LINE
  5
137
100
AcDbEntity
  8
Body from top
  6
ByLayer
 62
  256
370
   -1
100
AcDbLine
 10
945.8744277301723
 20
676.0099805282475
 11
943.7437538734811
 21
678.9814077578559
  0
LINE
  5
138
100
AcDbEntity
  8
Body from top
  6
ByLayer
 62
  256
370
   -1
100
AcDbLine
 10
943.7437538734811
 20
678.9814077578559
 11
941.3761428568806
 21
681.6574898198481
  0
LINE
  5
139
100
AcDbEntity
  8
Body from top
  6
ByLayer
 62
  256
370
   -1
100
AcDbLine
 10
941.3761428568806
 20
681.6574898198481
 11
938.7066824578671
 21
684.1388426895298
  0
LINE
  5
13A
100
AcDbEntity
  8
Body from top
  6
ByLayer
 62
  256
370
   -1
100
AcDbLine
 10
938.7066824578671
 20
684.1388426895298
 11
935.9009000307932
 21
686.3897587040375
  0
LINE
  5
13B
100
AcDbEntity
  8
Body from top
  6
ByLayer
 62
  256
370
   -1
100
AcDbLine
 10
935.9009000307932
 20
686.3897587040375
 11
932.858178488779
 21
688.3453299726577
  0
LINE
  5
13C
100
AcDbEntity
  8
Body from top
  6
ByLayer
 62
  256
370
   -1
100
AcDbLine
 10
932.858178488779
 20
688.3453299726577
 11
929.6612821031908
 21
689.9877030472841
  0
LINE
  5
13D
100
AcDbEntity
  8
Body from top
  6
ByLayer
 62
  256
370
   -1
100
AcDbLine
 10
929.6612821031908
 20
689.9877030472841
 11
926.3280627120266
 21
691.399639477601
  0
LINE
  5
13E
100
AcDbEntity
  8
Body from top
  6
ByLayer
 62
  256
370
   -1
100
AcDbLine
 10
926.3280627120266
 20
691.399639477601
 11
922.9055775563816
 21
692.397761393696
  0
LINE
  5
13F
100
AcDbEntity
  8
Body from top
  6
ByLayer
 62
  256
370
   -1
100
AcDbLine
 10
922.9055775563816
 20
692.397761393696
 11
919.3467696060246
 21
693.1654476429965
  0
LINE
  5
140
100
AcDbEntity
  8
Body from top
  6
ByLayer
 62
  256
370
   -1
100
AcDbLine
 10
919.3467696060246
 20
693.1654476429965
 11
915.7814591850373
 21
693.5014661408334
  0
LINE
  5
141
100
AcDbEntity
  8
Body from top
  6
ByLayer
 62
  256
370
   -1
100
AcDbLine
 10
945.8744277301723
 20
676.0099805282475
 11
946.5121754405581
 21
675.3527242175911
  0
LINE
  5
142
100
AcDbEntity
  8
Body from top
  6
ByLayer
 62
  256
370
   -1
100
AcDbLine
 10
946.5121754405581
 20
675.3527242175911
 11
947.351155024749
 21
674.825287253501
  0
LINE
  5
143
100
AcDbEntity
  8
Body from top
  6
ByLayer
 62
  256
370
   -1
100
AcDbLine
 10
947.351155024749
 20
674.825287253501
 11
948.2615473470432
 21
674.6289024872974
  0
LINE
  5
144
100
AcDbEntity
  8
Body from top
  6
ByLayer
 62
  256
370
   -1
100
AcDbLine
 10
948.2615473470432
 20
674.6289024872974
 11
949.2255001477141
 21
674.680806414266
  0
LINE
  5
145
100
AcDbEntity
  8
Body from top
  6
ByLayer
 62
  256
370
   -1
100
AcDbLine
 10
949.2255001477141
 20
674.680806414266
 11
955.6259150035979
 21
676.2450261063258
  0
LINE
  5
146
100
AcDbEntity
  8
Body from top
  6
ByLayer
 62
  256
370
   -1
100
AcDbLine
 10
955.6259150035979
 20
676.2450261063258
 11
961.9322177540503
 21
678.1760030715124
  0
LINE
  5
147
100
AcDbEntity
  8
Body from top
  6
ByLayer
 62
  256
370
   -1
100
AcDbLine
 10
961.9322177540503
 20
678.1760030715124
 11
968.1914627076205
 21
680.290360072506
  0
LINE
  5
148
100
AcDbEntity
  8
Body from top
  6
ByLayer
 62
  256
370
   -1
100
AcDbLine
 10
968.1914627076205
 20
680.290360072506
 11
974.3208892921399
 21
682.6059487364405
  0
LINE
  5
149
100
AcDbEntity
  8
Body from top
  6
ByLayer
 62
  256
370
   -1
100
AcDbLine
 10
974.3208892921399
 20
682.6059487364405
 11
980.3562020270615
 21
685.2882960727455
  0
LINE
  5
14A
100
AcDbEntity
  8
Body from top
  6
ByLayer
 62
  256
370
   -1
100
AcDbLine
 10
980.3562020270615
 20
685.2882960727455
 11
986.2616944379017
 21
688.1718754937199
  0
LINE
  5
14B
100
AcDbEntity
  8
Body from top
  6
ByLayer
 62
  256
370
   -1
100
AcDbLine
 10
986.2616944379017
 20
688.1718754937199
 11
993.7121361143642
 21
692.19462732989
  0
LINE
  5
14C
100
AcDbEntity
  8
Body from top
  6
ByLayer
 62
  256
370
   -1
100
AcDbLine
 10
993.7121361143642
 20
692.19462732989
 11
1000.967848387652
 21
696.5192275709572
  0
LINE
  5
14D
100
AcDbEntity
  8
Body from top
  6
ByLayer
 62
  256
370
   -1
100
AcDbLine
 10
1000.967848387652
 20
696.5192275709572
 11
1008.093740547722
 21
701.0450608742094
  0
LINE
  5
14E
100
AcDbEntity
  8
Body from top
  6
ByLayer
 62
  256
370
   -1
100
AcDbLine
 10
1031.902402697113
 20
715.0509164101286
 11
1023.848264210856
 21
710.6387057676088
  0
LINE
  5
14F
100
AcDbEntity
  8
Body from top
  6
ByLayer
 62
  256
370
   -1
100
AcDbLine
 10
1023.848264210856
 20
710.6387057676088
 11
1015.906092811438
 21
705.9424997465695
  0
LINE
  5
150
100
AcDbEntity
  8
Body from top
  6
ByLayer
 62
  256
370
   -1
100
AcDbLine
 10
1015.906092811438
 20
705.9424997465695
 11
1008.093740547722
 21
701.0450608742094
  0
LINE
  5
151
100
AcDbEntity
  8
Body from top
  6
ByLayer
 62
  256
370
   -1
100
AcDbLine
 10
1042.001259234987
 20
718.5023679515809
 11
1038.534909771199
 21
717.6910548013194
  0
LINE
  5
152
100
AcDbEntity
  8
Body from top
  6
ByLayer
 62
  256
370
   -1
100
AcDbLine
 10
1038.534909771199
 20
717.6910548013194
 11
1035.162673179494
 21
716.5129831895518
  0
LINE
  5
153
100
AcDbEntity
  8
Body from top
  6
ByLayer
 62
  256
370
   -1
100
AcDbLine
 10
1035.162673179494
 20
716.5129831895518
 11
1031.902402697113
 21
715.0509164101286
  0
LINE
  5
154
100
AcDbEntity
  8
Body from top
  6
ByLayer
 62
  256
370
   -1
100
AcDbLine
 10
1054.711050160199
 20
715.5874535827097
 11
1052.885417430494
 21
716.7607963017089
  0
LINE
  5
155
100
AcDbEntity
  8
Body from top
  6
ByLayer
 62
  256
370
   -1
100
AcDbLine
 10
1052.885417430494
 20
716.7607963017089
 11
1050.840698612226
 21
717.7215565911557
  0
LINE
  5
156
100
AcDbEntity
  8
Body from top
  6
ByLayer
 62
  256
370
   -1
100
AcDbLine
 10
1050.840698612226
 20
717.7215565911557
 11
1048.724568244234
 21
718.3512654493668
  0
LINE
  5
157
100
AcDbEntity
  8
Body from top
  6
ByLayer
 62
  256
370
   -1
100
AcDbLine
 10
1048.724568244234
 20
718.3512654493668
 11
1046.472114870667
 21
718.7505376632685
  0
LINE
  5
158
100
AcDbEntity
  8
Body from top
  6
ByLayer
 62
  256
370
   -1
100
AcDbLine
 10
1046.472114870667
 20
718.7505376632685
 11
1044.231012263711
 21
718.8009054195569
  0
LINE
  5
159
100
AcDbEntity
  8
Body from top
  6
ByLayer
 62
  256
370
   -1
100
AcDbLine
 10
1044.231012263711
 20
718.8009054195569
 11
1042.001259234987
 21
718.5023679515809
  0
LINE
  5
15A
100
AcDbEntity
  8
Body from top
  6
ByLayer
 62
  256
370
   -1
100
AcDbLine
 10
1054.711050160199
 20
715.5874535827097
 11
1059.572900983773
 21
712.0268720544908
  0
LINE
  5
15B
100
AcDbEntity
  8
Body from top
  6
ByLayer
 62
  256
370
   -1
100
AcDbLine
 10
1059.572900983773
 20
712.0268720544908
 11
1064.588927628436
 21
708.7794885094014
  0
LINE
  5
15C
100
AcDbEntity
  8
Body from top
  6
ByLayer
 62
  256
370
   -1
100
AcDbLine
 10
1064.588927628436
 20
708.7794885094014
 11
1067.537535320852
 21
707.1906759131518
  0
LINE
  5
15D
100
AcDbEntity
  8
Body from top
  6
ByLayer
 62
  256
370
   -1
100
AcDbLine
 10
1067.537535320852
 20
707.1906759131518
 11
1070.640318834358
 21
705.9150613000313
  0
LINE
  5
15E
100
AcDbEntity
  8
Body from top
  6
ByLayer
 62
  256
370
   -1
100
AcDbLine
 10
1070.640318834358
 20
705.9150613000313
 11
1073.897278379817
 21
704.9526456475559
  0
LINE
  5
15F
100
AcDbEntity
  8
Body from top
  6
ByLayer
 62
  256
370
   -1
100
AcDbLine
 10
1073.897278379817
 20
704.9526456475559
 11
1077.142887369529
 21
704.339135430209
  0
LINE
  5
160
100
AcDbEntity
  8
Body from top
  6
ByLayer
 62
  256
370
   -1
100
AcDbLine
 10
1077.142887369529
 20
704.339135430209
 11
1080.477762123722
 21
704.139439727084
  0
LINE
  5
161
100
AcDbEntity
  8
Body from top
  6
ByLayer
 62
  256
370
   -1
100
AcDbLine
 10
1080.477762123722
 20
704.139439727084
 11
1083.866196378777
 21
704.1880329279951
  0
LINE
  5
162
100
AcDbEntity
  8
Body from top
  6
ByLayer
 62
  256
370
   -1
100
AcDbLine
 10
1083.866196378777
 20
704.1880329279951
 11
1087.178370788126
 21
704.6861469067474
  0
LINE
  5
163
100
AcDbEntity
  8
Body from top
  6
ByLayer
 62
  256
370
   -1
100
AcDbLine
 10
1087.178370788126
 20
704.6861469067474
 11
1090.3785783215
 21
705.4682572415351
  0
LINE
  5
164
100
AcDbEntity
  8
Body from top
  6
ByLayer
 62
  256
370
   -1
100
AcDbLine
 10
1090.3785783215
 20
705.4682572415351
 11
1093.567436065778
 21
706.5992718230717
  0
LINE
  5
165
100
AcDbEntity
  8
Body from top
  6
ByLayer
 62
  256
370
   -1
100
AcDbLine
 10
1093.567436065778
 20
706.5992718230717
 11
1096.561563429365
 21
708.03213502037
  0
LINE
  5
166
100
AcDbEntity
  8
Body from top
  6
ByLayer
 62
  256
370
   -1
100
AcDbLine
 10
1096.561563429365
 20
708.03213502037
 11
1099.461578687522
 21
709.831755490795
  0
LINE
  5
167
100
AcDbEntity
  8
Body from top
  6
ByLayer
 62
  256
370
   -1
100
AcDbLine
 10
1099.461578687522
 20
709.831755490795
 11
1102.06624724476
 21
711.8683154978884
  0
LINE
  5
168
100
AcDbEntity
  8
Body from top
  6
ByLayer
 62
  256
370
   -1
100
AcDbLine
 10
1102.06624724476
 20
711.8683154978884
 11
1104.476187376338
 21
714.206723699015
  0
LINE
  5
169
100
AcDbEntity
  8
Body from top
  6
ByLayer
 62
  256
370
   -1
100
AcDbLine
 10
1104.476187376338
 20
714.206723699015
 11
1106.590781784514
 21
716.7820712259459
  0
LINE
  5
16A
100
AcDbEntity
  8
Body from top
  6
ByLayer
 62
  256
370
   -1
100
AcDbLine
 10
1106.590781784514
 20
716.7820712259459
 11
1108.492793341408
 21
719.5765028864084
  0
LINE
  5
16B
100
AcDbEntity
  8
Body from top
  6
ByLayer
 62
  256
370
   -1
100
AcDbLine
 10
1108.492793341408
 20
719.5765028864084
 11
1110.081606148522
 21
722.52511155634
  0
LINE
  5
16C
100
AcDbEntity
  8
Body from top
  6
ByLayer
 62
  256
370
   -1
100
AcDbLine
 10
1110.081606148522
 20
722.52511155634
 11
1111.274457467792
 21
725.6457483070877
  0
LINE
  5
16D
100
AcDbEntity
  8
Body from top
  6
ByLayer
 62
  256
370
   -1
100
AcDbLine
 10
1111.274457467792
 20
725.6457483070877
 11
1112.219019883025
 21
728.8199445586966
  0
LINE
  5
16E
100
AcDbEntity
  8
Body from top
  6
ByLayer
 62
  256
370
   -1
100
AcDbLine
 10
1112.219019883025
 20
728.8199445586966
 11
1112.767620810415
 21
732.1661688911215
  0
LINE
  5
16F
100
AcDbEntity
  8
Body from top
  6
ByLayer
 62
  256
370
   -1
100
AcDbLine
 10
1112.767620810415
 20
732.1661688911215
 11
1112.96731651354
 21
735.5010436453144
  0
LINE
  5
170
100
AcDbEntity
  8
Body from top
  6
ByLayer
 62
  256
370
   -1
100
AcDbLine
 10
1112.96731651354
 20
735.5010436453144
 11
1112.818106992401
 21
738.8245688212753
  0
LINE
  5
171
100
AcDbEntity
  8
Body from top
  6
ByLayer
 62
  256
370
   -1
100
AcDbLine
 10
1112.818106992401
 20
738.8245688212753
 11
1112.319992802784
 21
742.1367422531093
  0
LINE
  5
172
100
AcDbEntity
  8
Body from top
  6
ByLayer
 62
  256
370
   -1
100
AcDbLine
 10
1112.319992802784
 20
742.1367422531093
 11
1111.555736682754
 21
745.4197128694695
  0
LINE
  5
173
100
AcDbEntity
  8
Body from top
  6
ByLayer
 62
  256
370
   -1
100
AcDbLine
 10
889.7980296950411
 20
732.4529155247376
 11
891.539362960216
 21
734.5024814506069
  0
LINE
  5
174
100
AcDbEntity
  8
Body from top
  6
ByLayer
 62
  256
370
   -1
100
AcDbLine
 10
891.539362960216
 20
734.5024814506069
 11
892.9025879747884
 21
736.8068387511428
  0
LINE
  5
175
100
AcDbEntity
  8
Body from top
  6
ByLayer
 62
  256
370
   -1
100
AcDbLine
 10
892.9025879747884
 20
736.8068387511428
 11
894.0175240853247
 21
739.16475555254
  0
LINE
  5
176
100
AcDbEntity
  8
Body from top
  6
ByLayer
 62
  256
370
   -1
100
AcDbLine
 10
894.0175240853247
 20
739.16475555254
 11
894.7543509677432
 21
741.7774639394679
  0
LINE
  5
177
100
AcDbEntity
  8
Body from top
  6
ByLayer
 62
  256
370
   -1
100
AcDbLine
 10
885.4358302092795
 20
729.4962680026314
 11
886.9921282864827
 21
730.2865363819421
  0
LINE
  5
178
100
AcDbEntity
  8
Body from top
  6
ByLayer
 62
  256
370
   -1
100
AcDbLine
 10
886.9921282864827
 20
730.2865363819421
 11
888.5013703109703
 21
731.2601833978164
  0
LINE
  5
179
100
AcDbEntity
  8
Body from top
  6
ByLayer
 62
  256
370
   -1
100
AcDbLine
 10
888.5013703109703
 20
731.2601833978164
 11
889.7980296950411
 21
732.4529155247376
  0
LINE
  5
17A
100
AcDbEntity
  8
Body from top
  6
ByLayer
 62
  256
370
   -1
100
AcDbLine
 10
882.3165233648074
 20
728.5496451149662
 11
891.5576835470619
 21
691.6245232800077
  0
LINE
  5
17B
100
AcDbEntity
  8
Body from top
  6
ByLayer
 62
  256
370
   -1
100
AcDbLine
 10
882.3165233648074
 20
728.5496451149662
 11
885.4358302092795
 21
729.4962680026314
  0
LINE
  5
17C
100
AcDbEntity
  8
Body from top
  6
ByLayer
 62
  256
370
   -1
100
AcDbLine
 10
1111.555736682754
 20
745.4197128694695
 11
1111.734688606022
 21
744.9658136124876
  0
ARC
  5
17D
100
AcDbEntity
  8
Body from top
  6
ByLayer
 62
  256
370
   -1
100
AcDbCircle
 10
1093.128522178701
 20
737.6302447266535
 40
20
100
AcDbArc
 50
21.51707225829769
 51
89.9995251548537
  0
LINE
  5
17E
100
AcDbEntity
  8
Body from top
  6
ByLayer
 62
  256
370
   -1
100
AcDbLine
 10
1093.128687930926
 20
757.6302447259666
 11
906.2645438424029
 21
757.6317933833476
  0
LINE
  5
17F
100
AcDbEntity
  8
Body from top
  6
ByLayer
 62
  256
370
   -1
100
AcDbLine
 10
896.5794431943661
 20
750.1218597999763
 11
896.9616412696697
 21
751.6084045473378
  0
ARC
  5
180
100
AcDbEntity
  8
Body from top
  6
ByLayer
 62
  256
370
   -1
100
AcDbCircle
 10
906.2644609662905
 20
747.6317933836912
 40
10
100
AcDbArc
 50
89.9995251548537
 51
165.5812618503313
  0
CIRCLE
  5
181
100
AcDbEntity
  8
Body from top
  6
ByLayer
 62
  256
370
   -1
100
AcDbCircle
 10
922.311225554791
 20
742.26194385753
 40
7
  0
CIRCLE
  5
182
100
AcDbEntity
  8
Body from top
  6
ByLayer
 62
  256
370
   -1
100
AcDbCircle
 10
969.929201525036
 20
742.2259317385827
 40
7
  0
CIRCLE
  5
183
100
AcDbEntity
  8
Body from top
  6
ByLayer
 62
  256
370
   -1
100
AcDbCircle
 10
1017.57334633844
 20
742.2332504589582
 40
7
  0
CIRCLE
  5
184
100
AcDbEntity
  8
Body from top
  6
ByLayer
 62
  256
370
   -1
100
AcDbCircle
 10
1065.159914654243
 20
742.2467402748955
 40
7
  0
ARC
  5
185
100
AcDbEntity
  8
Clefs
  6
ByLayer
 62
  256
370
   -1
100
AcDbCircle
 10
1087.849750244165
 20
744.294541736312
 40
1.974182135113657
100
AcDbArc
 50
252.8466169158161
 51
67.15338308418391
  0
ARC
  5
186
100
AcDbEntity
  8
Clefs
  6
ByLayer
 62
  256
370
   -1
100
AcDbCircle
 10
1088.158328235652
 20
744.6504156464929
 40
2.412719855934063
100
AcDbArc
 50
143.5782010483629
 51
248.3324658828162
  0
ARC
  5
187
100
AcDbEntity
  8
Clefs
  6
ByLayer
 62
  256
370
   -1
100
AcDbCircle
 10
1087.549165465445
 20
744.0652492548377
 40
5.314811111849263
100
AcDbArc
 50
334.6153387456451
 51
352.8152394652125
  0
ARC
  5
188
100
AcDbEntity
  8
Clefs
  6
ByLayer
 62
  256
370
   -1
100
AcDbCircle
 10
1089.678256017699
 20
720.855586069242
 40
6.166847322061809
100
AcDbArc
 50
156.6030985481378
 51
209.7172269849641
  0
ARC
  5
189
100
AcDbEntity
  8
Clefs
  6
ByLayer
 62
  256
370
   -1
100
AcDbCircle
 10
1084.905523848185
 20
718.3274680355521
 40
0.7872186140312998
100
AcDbArc
 50
222.2117349453048
 51
322.0610375925268
  0
ARC
  5
18A
100
AcDbEntity
  8
Clefs
  6
ByLayer
 62
  256
370
   -1
100
AcDbCircle
 10
1082.146878268765
 20
719.775680303817
 40
3.892871581454424
100
AcDbArc
 50
330.2414523240545
 51
15.49275595598386
  0
ARC
  5
18B
100
AcDbEntity
  8
Clefs
  6
ByLayer
 62
  256
370
   -1
100
AcDbCircle
 10
1074.120702648591
 20
717.6106600003187
 40
12.20585846271165
100
AcDbArc
 50
15.22250674634513
 51
30.77750865558638
  0
ARC
  5
18C
100
AcDbEntity
  8
Clefs
  6
ByLayer
 62
  256
370
   -1
100
AcDbCircle
 10
1087.481259631079
 20
732.8444062534993
 40
7.119560349300465
100
AcDbArc
 50
85.9255821046178
 51
200.2134852901577
  0
ARC
  5
18D
100
AcDbEntity
  8
Clefs
  6
ByLayer
 62
  256
370
   -1
100
AcDbCircle
 10
1087.810101190675
 20
734.7507393588072
 40
5.239748165013227
100
AcDbArc
 50
295.5488911110289
 51
18.57976199612872
  0
ARC
  5
18E
100
AcDbEntity
  8
Clefs
  6
ByLayer
 62
  256
370
   -1
100
AcDbCircle
 10
1088.487208683732
 20
733.9816589257163
 40
4.143286301767049
100
AcDbArc
 50
130.5162034180153
 51
210.0934895195167
  0
ARC
  5
18F
100
AcDbEntity
  8
Clefs
  6
ByLayer
 62
  256
370
   -1
100
AcDbCircle
 10
1088.863336676295
 20
735.0225724122502
 40
2.536380320638191
100
AcDbArc
 50
287.7313225194825
 51
348.2461110846784
  0
ARC
  5
190
100
AcDbEntity
  8
Clefs
  6
ByLayer
 62
  256
370
   -1
100
AcDbCircle
 10
1088.982048152825
 20
735.5562868214934
 40
2.587300029611852
100
AcDbArc
 50
336.0473538659427
 51
28.21565608475804
  0
ARC
  5
191
100
AcDbEntity
  8
Clefs
  6
ByLayer
 62
  256
370
   -1
100
AcDbCircle
 10
1087.30370566146
 20
734.3164162827823
 40
4.875813785364978
100
AcDbArc
 50
133.495632892369
 51
202.1104496269374
  0
ARC
  5
192
100
AcDbEntity
  8
Clefs
  6
ByLayer
 62
  256
370
   -1
100
AcDbCircle
 10
1098.287720618529
 20
738.3840998701996
 40
16.58714607662075
100
AcDbArc
 50
200.8469191615908
 51
217.0897691992129
  0
ARC
  5
193
100
AcDbEntity
  8
Clefs
  6
ByLayer
 62
  256
370
   -1
100
AcDbCircle
 10
1080.058884925355
 20
722.1098547315135
 40
7.54390481509809
100
AcDbArc
 50
351.6791989156386
 51
22.93048266185172
  0
ARC
  5
194
100
AcDbEntity
  8
Clefs
  6
ByLayer
 62
  256
370
   -1
100
AcDbCircle
 10
1076.403959692411
 20
722.1423697121527
 40
11.17610639152848
100
AcDbArc
 50
320.277124087908
 51
354.2266995519846
  0
LINE
  5
195
100
AcDbEntity
  8
Clefs
  6
ByLayer
 62
  256
370
   -1
100
AcDbLine
 10
1082.204004786279
 20
721.1923399036087
 11
1083.843569902067
 21
724.9488771680426
  0
LINE
  5
196
100
AcDbEntity
  8
Clefs
  6
ByLayer
 62
  256
370
   -1
100
AcDbLine
 10
1084.398473877166
 20
724.1473325054612
 11
1084.018470920537
 21
723.3044303982213
  0
LINE
  5
197
100
AcDbEntity
  8
Clefs
  6
ByLayer
 62
  256
370
   -1
100
AcDbLine
 10
1085.21797074675
 20
728.0978756064725
 11
1086.232496235566
 21
730.4223351645327
  0
LINE
  5
198
100
AcDbEntity
  8
Clefs
  6
ByLayer
 62
  256
370
   -1
100
AcDbLine
 10
1087.037268941563
 20
730.0005657015731
 11
1085.75764802401
 21
727.1621794494115
  0
LINE
  5
199
100
AcDbEntity
  8
Clefs
  6
ByLayer
 62
  256
370
   -1
100
AcDbLine
 10
1090.10592940959
 20
739.2970641517551
 11
1091.509490479199
 21
742.5128738869885
  0
LINE
  5
19A
100
AcDbEntity
  8
Clefs
  6
ByLayer
 62
  256
370
   -1
100
AcDbLine
 10
1087.244196244633
 20
732.7403210425538
 11
1089.701055382354
 21
738.369425257716
  0
LINE
  5
19B
100
AcDbEntity
  8
Clefs
  6
ByLayer
 62
  256
370
   -1
100
AcDbLine
 10
1092.350832050263
 20
741.7868254218163
 11
1090.975666784602
 21
738.7365078387243
  0
LINE
  5
19C
100
AcDbEntity
  8
Clefs
  6
ByLayer
 62
  256
370
   -1
100
AcDbLine
 10
1090.554631103261
 20
737.8025891498439
 11
1088.1161459016
 21
732.3936725108952
  0
ARC
  5
19D
100
AcDbEntity
  8
Clefs
  6
ByLayer
 62
  256
370
   -1
100
AcDbCircle
 10
1115.285277718339
 20
746.1229093955443
 40
37.90673596044742
100
AcDbArc
 50
204.5311981032364
 51
213.9578117910517
  0
ARC
  5
19E
100
AcDbEntity
  8
Clefs
  6
ByLayer
 62
  256
370
   -1
100
AcDbCircle
 10
1115.285277718339
 20
746.1229093955443
 40
37.90673596044742
100
AcDbArc
 50
215.4313780160147
 51
215.972769225526
  0
ARC
  5
19F
100
AcDbEntity
  8
Clefs
  6
ByLayer
 62
  256
370
   -1
100
AcDbCircle
 10
1228.959311627128
 20
810.3794426131715
 40
165.6255697263172
100
AcDbArc
 50
209.6752536022253
 51
209.7880298524064
  0
ARC
  5
1A0
100
AcDbEntity
  8
Clefs
  6
ByLayer
 62
  256
370
   -1
100
AcDbCircle
 10
1228.959311627128
 20
810.3794426131715
 40
165.6255697263172
100
AcDbArc
 50
210.161701625846
 51
211.0108579149249
  0
ARC
  5
1A1
100
AcDbEntity
  8
Clefs
  6
ByLayer
 62
  256
370
   -1
100
AcDbCircle
 10
1088.524997290647
 20
733.8179531721705
 40
4.097045611333184
100
AcDbArc
 50
207.8471561181946
 51
235.9753308255024
  0
ARC
  5
1A2
100
AcDbEntity
  8
Clefs
  6
ByLayer
 62
  256
370
   -1
100
AcDbCircle
 10
1088.524997290647
 20
733.8179531721705
 40
4.097045611333184
100
AcDbArc
 50
248.7079327132739
 51
292.1528438818054
  0
ARC
  5
1A3
100
AcDbEntity
  8
Clefs
  6
ByLayer
 62
  256
370
   -1
100
AcDbCircle
 10
1088.557336778462
 20
734.7733939370418
 40
2.420273425852192
100
AcDbArc
 50
206.2342962693309
 51
237.1420052346525
  0
ARC
  5
1A4
100
AcDbEntity
  8
Clefs
  6
ByLayer
 62
  256
370
   -1
100
AcDbCircle
 10
1088.557336778462
 20
734.7733939370418
 40
2.420273425852192
100
AcDbArc
 50
259.4968441113584
 51
296.4614782910665
  0
ARC
  5
1A5
100
AcDbEntity
  8
Clefs
  6
ByLayer
 62
  256
370
   -1
100
AcDbCircle
 10
1088.584606449248
 20
735.6846117197215
 40
2.892546547928379
100
AcDbArc
 50
22.2429371534739
 51
47.07274143192042
  0
ARC
  5
1A6
100
AcDbEntity
  8
Clefs
  6
ByLayer
 62
  256
370
   -1
100
AcDbCircle
 10
1087.241644010463
 20
733.458539051608
 40
5.492313503936911
100
AcDbArc
 50
63.3979222579496
 51
126.8512447885381
  0
ARC
  5
1A7
100
AcDbEntity
  8
Clefs
  6
ByLayer
 62
  256
370
   -1
100
AcDbCircle
 10
1087.340677708208
 20
734.0516036539582
 40
5.929711022128033
100
AcDbArc
 50
62.20312728337625
 51
83.74132514445719
  0
ARC
  5
1A8
100
AcDbEntity
  8
Clefs
  6
ByLayer
 62
  256
370
   -1
100
AcDbCircle
 10
1087.340677708208
 20
734.0516036539582
 40
5.929711022128033
100
AcDbArc
 50
23.54406200572176
 51
52.19232780709417
  0
ARC
  5
1A9
100
AcDbEntity
  8
Clefs
  6
ByLayer
 62
  256
370
   -1
100
AcDbCircle
 10
1090.93568732469
 20
732.7611877789305
 40
9.44043963868454
100
AcDbArc
 50
304.8641917133723
 51
336.7104646522566
  0
ARC
  5
1AA
100
AcDbEntity
  8
Clefs
  6
ByLayer
 62
  256
370
   -1
100
AcDbCircle
 10
1086.090099760132
 20
737.976853622589
 40
16.51979655067587
100
AcDbArc
 50
290.2689128186651
 51
308.3151722444454
  0
ARC
  5
1AB
100
AcDbEntity
  8
Clefs
  6
ByLayer
 62
  256
370
   -1
100
AcDbCircle
 10
1076.677837350642
 20
759.866987234566
 40
40.33434070202343
100
AcDbArc
 50
285.5982838993229
 51
292.0393056121243
  0
ARC
  5
1AC
100
AcDbEntity
  8
Clefs
  6
ByLayer
 62
  256
370
   -1
100
AcDbCircle
 10
1075.524195498812
 20
722.131896006984
 40
12.05076056431322
100
AcDbArc
 50
350.4115243407462
 51
354.6970160336903
  0
ARC
  5
1AD
100
AcDbEntity
  8
Clefs
  6
ByLayer
 62
  256
370
   -1
100
AcDbCircle
 10
1058.876581627828
 20
852.0139085879655
 40
134.939812095115
100
AcDbArc
 50
282.2060348041109
 51
285.364135826582
  0
ARC
  5
1AE
100
AcDbEntity
  8
Clefs
  6
ByLayer
 62
  256
370
   -1
100
AcDbCircle
 10
1086.825870949731
 20
744.1654497396333
 40
23.59643779702682
100
AcDbArc
 50
289.3113239126146
 51
304.532588005248
  0
ARC
  5
1AF
100
AcDbEntity
  8
Clefs
  6
ByLayer
 62
  256
370
   -1
100
AcDbCircle
 10
1094.380477770482
 20
732.2491986456615
 40
9.512127964621918
100
AcDbArc
 50
307.7357706932598
 51
339.0558289569469
  0
ARC
  5
1B0
100
AcDbEntity
  8
Clefs
  6
ByLayer
 62
  256
370
   -1
100
AcDbCircle
 10
1098.167187880314
 20
730.8068416135252
 40
5.460030611697992
100
AcDbArc
 50
338.9872959730013
 51
31.30227528835675
  0
ARC
  5
1B1
100
AcDbEntity
  8
Clefs
  6
ByLayer
 62
  256
370
   -1
100
AcDbCircle
 10
1097.200658129223
 20
730.2924729451296
 40
6.553411993832782
100
AcDbArc
 50
30.75437401131401
 51
80.72668069226521
  0
ARC
  5
1B2
100
AcDbEntity
  8
Clefs
  6
ByLayer
 62
  256
370
   -1
100
AcDbCircle
 10
1097.481070566446
 20
730.9287789256648
 40
5.882815186557965
100
AcDbArc
 50
82.42365623632979
 51
138.9442887239391
  0
ARC
  5
1B3
100
AcDbEntity
  8
Clefs
  6
ByLayer
 62
  256
370
   -1
100
AcDbCircle
 10
1087.740120033666
 20
734.6961375613088
 40
5.305764762173925
100
AcDbArc
 50
331.5695019840563
 51
1.041389970480978
  0
ARC
  5
1B4
100
AcDbEntity
  8
Clefs
  6
ByLayer
 62
  256
370
   -1
100
AcDbCircle
 10
1094.862776096478
 20
732.3513156408175
 40
2.463465598835916
100
AcDbArc
 50
184.2184801890887
 51
298.4764362286821
  0
ARC
  5
1B5
100
AcDbEntity
  8
Clefs
  6
ByLayer
 62
  256
370
   -1
100
AcDbCircle
 10
1095.363876446838
 20
732.1080437661044
 40
2.036716927943883
100
AcDbArc
 50
289.3092140457214
 51
34.36906760109557
  0
ARC
  5
1B6
100
AcDbEntity
  8
Clefs
  6
ByLayer
 62
  256
370
   -1
100
AcDbCircle
 10
1095.011559748814
 20
731.3725171982722
 40
2.772959708881932
100
AcDbArc
 50
42.83474962899009
 51
91.17898635905181
  0
ARC
  5
1B7
100
AcDbEntity
  8
Clefs
  6
ByLayer
 62
  256
370
   -1
100
AcDbCircle
 10
1097.034536917684
 20
731.8366697011385
 40
3.876831193392675
100
AcDbArc
 50
49.4460130795021
 51
107.1983955737653
  0
ARC
  5
1B8
100
AcDbEntity
  8
Clefs
  6
ByLayer
 62
  256
370
   -1
100
AcDbCircle
 10
1093.32637461549
 20
732.1847444273568
 40
7.028942260537197
100
AcDbArc
 50
333.3195324071692
 51
12.878616313889
  0
ARC
  5
1B9
100
AcDbEntity
  8
Clefs
  6
ByLayer
 62
  256
370
   -1
100
AcDbCircle
 10
1098.306798606975
 20
733.3234576864938
 40
1.92
100
AcDbArc
 50
12.87861631388903
 51
49.44601307950202
  0
ARC
  5
1BA
100
AcDbEntity
  8
Clefs
  6
ByLayer
 62
  256
370
   -1
100
AcDbCircle
 10
1096.083746265106
 20
733.9608264830071
 40
1.59138437561489
100
AcDbArc
 50
97.05713032516471
 51
154.3272939854029
  0
ARC
  5
1BB
100
AcDbEntity
  8
Clefs
  6
ByLayer
 62
  256
370
   -1
100
AcDbCircle
 10
1094.978577597204
 20
734.5041708462152
 40
0.3600866014399234
100
AcDbArc
 50
156.064369532067
 51
266.1666376005045
  0
ARC
  5
1BC
100
AcDbEntity
  8
Clefs
  6
ByLayer
 62
  256
370
   -1
100
AcDbCircle
 10
1088.971149856119
 20
744.3178823060965
 40
3.271278583812984
100
AcDbArc
 50
78.69026334270559
 51
147.3468382992717
  0
ARC
  5
1BD
100
AcDbEntity
  8
Clefs
  6
ByLayer
 62
  256
370
   -1
100
AcDbCircle
 10
1089.762606192162
 20
744.0779504124121
 40
3.133733734581412
100
AcDbArc
 50
347.5157868411364
 51
53.90853329774071
  0
ARC
  5
1BE
100
AcDbEntity
  8
Clefs
  6
ByLayer
 62
  256
370
   -1
100
AcDbCircle
 10
1087.806916337503
 20
740.9546326094397
 40
6.814610473118825
100
AcDbArc
 50
56.09106948722851
 51
74.63390787750244
  0
ARC
  5
1BF
100
AcDbEntity
  8
Clefs
  6
ByLayer
 62
  256
370
   -1
100
AcDbCircle
 10
1089.272408950165
 20
743.180705049618
 40
3.005635056577977
100
AcDbArc
 50
55.55550815039597
 51
102.6096283391517
  0
ARC
  5
1C0
100
AcDbEntity
  8
Clefs
  6
ByLayer
 62
  256
370
   -1
100
AcDbCircle
 10
1088.795543665292
 20
743.706143045942
 40
2.964691989807873
100
AcDbArc
 50
336.2658500049518
 51
35.4092858887109
  0
ARC
  5
1C1
100
AcDbEntity
  8
Clefs
  6
ByLayer
 62
  256
370
   -1
100
AcDbCircle
 10
1090.429435598671
 20
744.8676881910117
 40
0.9600000000000002
100
AcDbArc
 50
35.4092858887107
 51
55.55550815039632
  0
ARC
  5
1C2
100
AcDbEntity
  8
Clefs
  6
ByLayer
 62
  256
370
   -1
100
AcDbCircle
 10
1087.780072878426
 20
737.4108122795429
 40
0.4386589653250242
100
AcDbArc
 50
271.177442137083
 51
354.6756560843581
  0
ARC
  5
1C3
100
AcDbEntity
  8
Clefs
  6
ByLayer
 62
  256
370
   -1
100
AcDbCircle
 10
1088.127546276806
 20
734.9029896935274
 40
2.11433515455251
100
AcDbArc
 50
106.0286469663219
 51
214.5620946371574
  0
ARC
  5
1C4
100
AcDbEntity
  8
Clefs
  6
ByLayer
 62
  256
370
   -1
100
AcDbCircle
 10
1087.80881363567
 20
736.0124486393702
 40
0.9600000000000002
100
AcDbArc
 50
91.17744213708229
 51
106.0286469663219
  0
ARC
  5
1C5
100
AcDbEntity
  8
Clefs
  6
ByLayer
 62
  256
370
   -1
100
AcDbCircle
 10
1087.746495734822
 20
737.2895578637246
 40
0.4771909589620822
100
AcDbArc
 50
9.71803369045116
 51
98.47270930696
  0
ARC
  5
1C6
100
AcDbEntity
  8
Clefs
  6
ByLayer
 62
  256
370
   -1
100
AcDbCircle
 10
1087.469540367248
 20
735.1821644516403
 40
2.569501396251646
100
AcDbArc
 50
88.9414889485508
 51
130.656014223849
  0
ARC
  5
1C7
100
AcDbEntity
  8
Clefs
  6
ByLayer
 62
  256
370
   -1
100
AcDbCircle
 10
1087.534742442302
 20
738.7110635427949
 40
0.9600000000000002
100
AcDbArc
 50
268.9414889485504
 51
278.4727093069588
  0
ARC
  5
1C8
100
AcDbEntity
  8
Clefs
  6
ByLayer
 62
  256
370
   -1
100
AcDbCircle
 10
1089.052950791484
 20
718.9019602947459
 40
7.221765721407113
100
AcDbArc
 50
161.509372126265
 51
214.119905605184
  0
ARC
  5
1C9
100
AcDbEntity
  8
Clefs
  6
ByLayer
 62
  256
370
   -1
100
AcDbCircle
 10
1083.902403172045
 20
715.7673088742633
 40
1.339209358263374
100
AcDbArc
 50
264.9541987008338
 51
325.0433413647003
  0
ARC
  5
1CA
100
AcDbEntity
  8
Clefs
  6
ByLayer
 62
  256
370
   -1
100
AcDbCircle
 10
1083.869050929183
 20
715.389569062633
 40
0.9600000000000002
100
AcDbArc
 50
214.1199056051838
 51
264.9541987008339
  0
CIRCLE
  5
1CB
100
AcDbEntity
  8
Clefs
  6
ByLayer
 62
  256
370
   -1
100
AcDbCircle
 10
1106.220785284855
 20
731.0283842525571
 40
1.363849865083866
  0
CIRCLE
  5
1CC
100
AcDbEntity
  8
Clefs
  6
ByLayer
 62
  256
370
   -1
100
AcDbCircle
 10
1104.510684568226
 20
726.3299211486275
 40
1.363849865083866
  0
ENDSEC
  0
SECTION
  2
OBJECTS
  0
DICTIONARY
  5
C
330
0
100
AcDbDictionary
281
    1
  3
ACAD_GROUP
350
D
  0
DICTIONARY
  5
D
330
C
100
AcDbDictionary
281
    1
  0
ENDSEC
  0
EOF
