999
dxfrw 0.6.3
  0
SECTION
  2
HEADER
  9
$ACADVER
  1
AC1021
  9
$DWGCODEPAGE
  3
ANSI_1252
  9
$INSBASE
 10
0
 20
0
 30
0
  9
$EXTMIN
 10
1122.789229373826
 20
-848.3675803676663
 30
0
  9
$EXTMAX
 10
1401.429386876077
 20
-503.1098581871785
 30
0
  9
$LIMMIN
 10
0
 20
0
  9
$LIMMAX
 10
420
 20
297
  9
$ORTHOMODE
 70
    0
  9
$REGENMODE
 70
    1
  9
$FILLMODE
 70
    1
  9
$QTEXTMODE
 70
    0
  9
$MIRRTEXT
 70
    0
  9
$LTSCALE
 40
1
  9
$ATTMODE
 70
    0
  9
$TEXTSIZE
 40
2.5
  9
$TRACEWID
 40
15.68
  9
$TEXTSTYLE
  7
STANDARD
  9
$CLAYER
  8
0
  9
$CELTYPE
  6
BYLAYER
  9
$CECOLOR
 62
  256
  9
$CELTSCALE
 40
1
  9
$DISPSILH
 70
    0
  9
$DIMSCALE
 40
2.5
  9
$DIMASZ
 40
2.5
  9
$DIMEXO
 40
0.625
  9
$DIMDLI
 40
3.75
  9
$DIMRND
 40
0
  9
$DIMDLE
 40
0
  9
$DIMEXE
 40
1.25
  9
$DIMTP
 40
0
  9
$DIMTM
 40
0
  9
$DIMTXT
 40
2.5
  9
$DIMCEN
 40
2.5
  9
$DIMTSZ
 40
0
  9
$DIMTOL
 70
    0
  9
$DIMLIM
 70
    0
  9
$DIMTIH
 70
    0
  9
$DIMTOH
 70
    0
  9
$DIMSE1
 70
    0
  9
$DIMSE2
 70
    0
  9
$DIMTAD
 70
    1
  9
$DIMZIN
 70
    8
  9
$DIMBLK
  1

  9
$DIMASO
 70
    1
  9
$DIMSHO
 70
    1
  9
$DIMPOST
  1

  9
$DIMAPOST
  1

  9
$DIMALT
 70
    0
  9
$DIMALTD
 70
    3
  9
$DIMALTF
 40
0.03937
  9
$DIMLFAC
 40
1
  9
$DIMTOFL
 70
    1
  9
$DIMTVP
 40
0
  9
$DIMTIX
 70
    0
  9
$DIMSOXD
 70
    0
  9
$DIMSAH
 70
    0
  9
$DIMBLK1
  1

  9
$DIMBLK2
  1

  9
$DIMSTYLE
  2
Standard
  9
$DIMCLRD
 70
    0
  9
$DIMCLRE
 70
    0
  9
$DIMCLRT
 70
    0
  9
$DIMTFAC
 40
1
  9
$DIMGAP
 40
0.625
  9
$DIMJUST
 70
    0
  9
$DIMSD1
 70
    0
  9
$DIMSD2
 70
    0
  9
$DIMTOLJ
 70
    0
  9
$DIMTZIN
 70
    8
  9
$DIMALTZ
 70
    0
  9
$DIMALTTZ
 70
    0
  9
$DIMUPT
 70
    0
  9
$DIMDEC
 70
    2
  9
$DIMTDEC
 70
    2
  9
$DIMALTU
 70
    2
  9
$DIMALTTD
 70
    3
  9
$DIMTXSTY
  7
STANDARD
  9
$DIMAUNIT
 70
    0
  9
$DIMADEC
 70
    0
  9
$DIMALTRND
 40
0
  9
$DIMAZIN
 70
    0
  9
$DIMDSEP
 70
   44
  9
$DIMATFIT
 70
    3
  9
$DIMFRAC
 70
    0
  9
$DIMLDRBLK
  1
STANDARD
  9
$DIMLUNIT
 70
    2
  9
$DIMLWD
 70
   -2
  9
$DIMLWE
 70
   -2
  9
$DIMTMOVE
 70
    0
  9
$DIMFXL
 40
1
  9
$DIMFXLON
 70
    0
  9
$DIMJOGANG
 40
0.7854
  9
$DIMTFILL
 70
    0
  9
$DIMTFILLCLR
 70
    0
  9
$DIMARCSYM
 70
    0
  9
$DIMLTYPE
  6

  9
$DIMLTEX1
  6

  9
$DIMLTEX2
  6

  9
$LUNITS
 70
    2
  9
$LUPREC
 70
    4
  9
$SKETCHINC
 40
1
  9
$FILLETRAD
 40
0
  9
$AUNITS
 70
    0
  9
$AUPREC
 70
    2
  9
$MENU
  1
.
  9
$ELEVATION
 40
0
  9
$PELEVATION
 40
0
  9
$THICKNESS
 40
0
  9
$LIMCHECK
 70
    0
  9
$CHAMFERA
 40
0
  9
$CHAMFERB
 40
0
  9
$CHAMFERC
 40
0
  9
$CHAMFERD
 40
0
  9
$SKPOLY
 70
    0
  9
$USRTIMER
 70
    1
  9
$ANGBASE
 50
0
  9
$ANGDIR
 70
    0
  9
$PDMODE
 70
   34
  9
$PDSIZE
 40
0
  9
$PLINEWID
 40
0
  9
$SPLFRAME
 70
    0
  9
$SPLINETYPE
 70
    2
  9
$SPLINESEGS
 70
    8
  9
$HANDSEED
  5
20000
  9
$SURFTAB1
 70
    6
  9
$SURFTAB2
 70
    6
  9
$SURFTYPE
 70
    6
  9
$SURFU
 70
    6
  9
$SURFV
 70
    6
  9
$UCSBASE
  2

  9
$UCSNAME
  2

  9
$UCSORG
 10
0
 20
0
 30
0
  9
$UCSXDIR
 10
1
 20
0
 30
0
  9
$UCSYDIR
 10
0
 20
1
 30
0
  9
$UCSORTHOREF
  2

  9
$UCSORTHOVIEW
 70
    0
  9
$UCSORGTOP
 10
0
 20
0
 30
0
  9
$UCSORGBOTTOM
 10
0
 20
0
 30
0
  9
$UCSORGLEFT
 10
0
 20
0
 30
0
  9
$UCSORGRIGHT
 10
0
 20
0
 30
0
  9
$UCSORGFRONT
 10
0
 20
0
 30
0
  9
$UCSORGBACK
 10
0
 20
0
 30
0
  9
$PUCSBASE
  2

  9
$PUCSNAME
  2

  9
$PUCSORG
 10
0
 20
0
 30
0
  9
$PUCSXDIR
 10
1
 20
0
 30
0
  9
$PUCSYDIR
 10
0
 20
1
 30
0
  9
$PUCSORTHOREF
  2

  9
$PUCSORTHOVIEW
 70
    0
  9
$PUCSORGTOP
 10
0
 20
0
 30
0
  9
$PUCSORGBOTTOM
 10
0
 20
0
 30
0
  9
$PUCSORGLEFT
 10
0
 20
0
 30
0
  9
$PUCSORGRIGHT
 10
0
 20
0
 30
0
  9
$PUCSORGFRONT
 10
0
 20
0
 30
0
  9
$PUCSORGBACK
 10
0
 20
0
 30
0
  9
$USERI1
 70
    0
  9
$USERI2
 70
    0
  9
$USERI3
 70
    0
  9
$USERI4
 70
    0
  9
$USERI5
 70
    0
  9
$USERR1
 40
0
  9
$USERR2
 40
0
  9
$USERR3
 40
0
  9
$USERR4
 40
0
  9
$USERR5
 40
0
  9
$WORLDVIEW
 70
    1
  9
$SHADEDGE
 70
    3
  9
$SHADEDIF
 70
   70
  9
$TILEMODE
 70
    1
  9
$MAXACTVP
 70
   64
  9
$PINSBASE
 10
0
 20
0
 30
0
  9
$PLIMCHECK
 70
    0
  9
$PEXTMIN
 10
0
 20
0
 30
0
  9
$PEXTMAX
 10
0
 20
0
 30
0
  9
$GRIDMODE
 70
    0
  9
$SNAPSTYLE
 70
    0
  9
$PLIMMIN
 10
0
 20
0
  9
$PLIMMAX
 10
200000000
 20
150000000
  9
$UNITMODE
 70
    0
  9
$VISRETAIN
 70
    1
  9
$PLINEGEN
 70
    0
  9
$PSLTSCALE
 70
    1
  9
$TREEDEPTH
 70
 3020
  9
$CMLSTYLE
  2
Standard
  9
$CMLJUST
 70
    0
  9
$CMLSCALE
 40
20
  9
$PROXYGRAPHICS
 70
    1
  9
$MEASUREMENT
 70
    1
  9
$CELWEIGHT
370
   -1
  9
$ENDCAPS
280
    0
  9
$JOINSTYLE
280
    0
  9
$LWDISPLAY
290
    0
  9
$INSUNITS
 70
    4
  9
$HYPERLINKBASE
  1

  9
$STYLESHEET
  1

  9
$XEDIT
290
    1
  9
$CEPSNTYPE
380
    0
  9
$PSTYLEMODE
290
    1
  9
$EXTNAMES
290
    1
  9
$PSVPSCALE
 40
1
  9
$OLESTARTUP
290
    0
  9
$SORTENTS
280
  127
  9
$INDEXCTL
280
    0
  9
$HIDETEXT
280
    1
  9
$XCLIPFRAME
290
    0
  9
$HALOGAP
280
    0
  9
$OBSCOLOR
 70
  257
  9
$OBSLTYPE
280
    0
  9
$INTERSECTIONDISPLAY
280
    0
  9
$INTERSECTIONCOLOR
 70
  257
  9
$DIMASSOC
280
    1
  9
$PROJECTNAME
  1

  9
$CAMERADISPLAY
290
    0
  9
$LENSLENGTH
 40
50
  9
$CAMERAHEIGHT
 40
0
  9
$STEPSPERSEC
 40
2
  9
$STEPSIZE
 40
50
  9
$3DDWFPREC
 40
2
  9
$PSOLWIDTH
 40
5
  9
$PSOLHEIGHT
 40
80
  9
$LOFTANG1
 40
1.570796326794897
  9
$LOFTANG2
 40
1.570796326794897
  9
$LOFTMAG1
 40
0
  9
$LOFTMAG2
 40
0
  9
$LOFTPARAM
 70
    7
  9
$LOFTNORMALS
280
    1
  9
$LATITUDE
 40
1
  9
$LONGITUDE
 40
1
  9
$NORTHDIRECTION
 40
0
  9
$TIMEZONE
 70
-8000
  9
$LIGHTGLYPHDISPLAY
280
    1
  9
$TILEMODELIGHTSYNCH
280
    1
  9
$SOLIDHIST
280
    1
  9
$SHOWHIST
280
    1
  9
$DWFFRAME
280
    2
  9
$DGNFRAME
280
    0
  9
$REALWORLDSCALE
290
    1
  9
$INTERFERECOLOR
 62
    1
  9
$CSHADOW
280
    0
  9
$SHADOWPLANELOCATION
 40
0
  0
ENDSEC
  0
SECTION
  2
CLASSES
  0
ENDSEC
  0
SECTION
  2
TABLES
  0
TABLE
  2
VPORT
  5
8
330
0
100
AcDbSymbolTable
 70
    1
  0
VPORT
  5
31
330
2
100
AcDbSymbolTableRecord
100
AcDbViewportTableRecord
  2
*ACTIVE
 70
    0
 10
0
 20
0
 11
1
 21
1
 12
787.5404246817695
 22
-246.3426448404575
 13
0
 23
0
 14
10
 24
10
 15
10
 25
10
 16
0
 26
0
 36
1
 17
0
 27
0
 37
0
 40
359.5384552147172
 41
1.742990654205608
 42
50
 43
0
 44
0
 50
0
 51
0
 71
    0
 72
  100
 73
    1
 74
    3
 75
    0
 76
    0
 77
    0
 78
    0
281
    0
 65
    1
110
0
120
0
130
0
111
1
121
0
131
0
112
0
122
1
132
0
 79
    0
146
0
348
10020
 60
    7
 61
    5
292
1
282
    1
141
0
142
0
 63
  250
421
3358443
  0
ENDTAB
  0
TABLE
  2
LTYPE
  5
5
330
0
100
AcDbSymbolTable
 70
    4
  0
LTYPE
  5
14
330
5
100
AcDbSymbolTableRecord
100
AcDbLinetypeTableRecord
  2
ByBlock
 70
    0
  3

 72
   65
 73
    0
 40
0
  0
LTYPE
  5
15
330
5
100
AcDbSymbolTableRecord
100
AcDbLinetypeTableRecord
  2
ByLayer
 70
    0
  3

 72
   65
 73
    0
 40
0
  0
LTYPE
  5
16
330
5
100
AcDbSymbolTableRecord
100
AcDbLinetypeTableRecord
  2
Continuous
 70
    0
  3
Solid line
 72
   65
 73
    0
 40
0
  0
LTYPE
  5
32
330
5
100
AcDbSymbolTableRecord
100
AcDbLinetypeTableRecord
  2
DOT
 70
    0
  3
Dot . . . . . . . . . . . . . . . . . . . . . .
 72
   65
 73
    2
 40
6.35
 49
0
 74
    0
 49
-6.35
 74
    0
  0
LTYPE
  5
33
330
5
100
AcDbSymbolTableRecord
100
AcDbLinetypeTableRecord
  2
DOTTINY
 70
    0
  3
Dot (.15x) .....................................
 72
   65
 73
    2
 40
0.9525
 49
0
 74
    0
 49
-0.9525
 74
    0
  0
LTYPE
  5
34
330
5
100
AcDbSymbolTableRecord
100
AcDbLinetypeTableRecord
  2
DOT2
 70
    0
  3
Dot (.5x) .....................................
 72
   65
 73
    2
 40
3.175
 49
0
 74
    0
 49
-3.175
 74
    0
  0
LTYPE
  5
35
330
5
100
AcDbSymbolTableRecord
100
AcDbLinetypeTableRecord
  2
DOTX2
 70
    0
  3
Dot (2x) .  .  .  .  .  .  .  .  .  .  .  .  .
 72
   65
 73
    2
 40
12.7
 49
0
 74
    0
 49
-12.7
 74
    0
  0
LTYPE
  5
36
330
5
100
AcDbSymbolTableRecord
100
AcDbLinetypeTableRecord
  2
DASHED
 70
    0
  3
Dashed _ _ _ _ _ _ _ _ _ _ _ _ _ _ _ _ _
 72
   65
 73
    2
 40
19.05
 49
12.7
 74
    0
 49
-6.35
 74
    0
  0
LTYPE
  5
37
330
5
100
AcDbSymbolTableRecord
100
AcDbLinetypeTableRecord
  2
DASHEDTINY
 70
    0
  3
Dashed (.15x) _ _ _ _ _ _ _ _ _ _ _ _ _ _ _ _ _
 72
   65
 73
    2
 40
2.8575
 49
1.905
 74
    0
 49
-0.9525
 74
    0
  0
LTYPE
  5
38
330
5
100
AcDbSymbolTableRecord
100
AcDbLinetypeTableRecord
  2
DASHED2
 70
    0
  3
Dashed (.5x) _ _ _ _ _ _ _ _ _ _ _ _ _ _ _ _ _
 72
   65
 73
    2
 40
9.524999999999999
 49
6.35
 74
    0
 49
-3.175
 74
    0
  0
LTYPE
  5
39
330
5
100
AcDbSymbolTableRecord
100
AcDbLinetypeTableRecord
  2
DASHEDX2
 70
    0
  3
Dashed (2x) ____  ____  ____  ____  ____  ___
 72
   65
 73
    2
 40
38.09999999999999
 49
25.4
 74
    0
 49
-12.7
 74
    0
  0
LTYPE
  5
3A
330
5
100
AcDbSymbolTableRecord
100
AcDbLinetypeTableRecord
  2
DASHDOT
 70
    0
  3
Dash dot __ . __ . __ . __ . __ . __ . __ . __
 72
   65
 73
    4
 40
25.4
 49
12.7
 74
    0
 49
-6.35
 74
    0
 49
0
 74
    0
 49
-6.35
 74
    0
  0
LTYPE
  5
3B
330
5
100
AcDbSymbolTableRecord
100
AcDbLinetypeTableRecord
  2
DASHDOTTINY
 70
    0
  3
Dash dot (.15x) _._._._._._._._._._._._._._._.
 72
   65
 73
    4
 40
3.81
 49
1.905
 74
    0
 49
-0.9525
 74
    0
 49
0
 74
    0
 49
-0.9525
 74
    0
  0
LTYPE
  5
3C
330
5
100
AcDbSymbolTableRecord
100
AcDbLinetypeTableRecord
  2
DASHDOT2
 70
    0
  3
Dash dot (.5x) _._._._._._._._._._._._._._._.
 72
   65
 73
    4
 40
12.7
 49
6.35
 74
    0
 49
-3.175
 74
    0
 49
0
 74
    0
 49
-3.175
 74
    0
  0
LTYPE
  5
3D
330
5
100
AcDbSymbolTableRecord
100
AcDbLinetypeTableRecord
  2
DASHDOTX2
 70
    0
  3
Dash dot (2x) ____  .  ____  .  ____  .  ___
 72
   65
 73
    4
 40
50.8
 49
25.4
 74
    0
 49
-12.7
 74
    0
 49
0
 74
    0
 49
-12.7
 74
    0
  0
LTYPE
  5
3E
330
5
100
AcDbSymbolTableRecord
100
AcDbLinetypeTableRecord
  2
DIVIDE
 70
    0
  3
Divide ____ . . ____ . . ____ . . ____ . . ____
 72
   65
 73
    6
 40
31.75
 49
12.7
 74
    0
 49
-6.35
 74
    0
 49
0
 74
    0
 49
-6.35
 74
    0
 49
0
 74
    0
 49
-6.35
 74
    0
  0
LTYPE
  5
3F
330
5
100
AcDbSymbolTableRecord
100
AcDbLinetypeTableRecord
  2
DIVIDETINY
 70
    0
  3
Divide (.15x) __..__..__..__..__..__..__..__.._
 72
   65
 73
    6
 40
4.7625
 49
1.905
 74
    0
 49
-0.9525
 74
    0
 49
0
 74
    0
 49
-0.9525
 74
    0
 49
0
 74
    0
 49
-0.9525
 74
    0
  0
LTYPE
  5
40
330
5
100
AcDbSymbolTableRecord
100
AcDbLinetypeTableRecord
  2
DIVIDE2
 70
    0
  3
Divide (.5x) __..__..__..__..__..__..__..__.._
 72
   65
 73
    6
 40
15.875
 49
6.35
 74
    0
 49
-3.175
 74
    0
 49
0
 74
    0
 49
-3.175
 74
    0
 49
0
 74
    0
 49
-3.175
 74
    0
  0
LTYPE
  5
41
330
5
100
AcDbSymbolTableRecord
100
AcDbLinetypeTableRecord
  2
DIVIDEX2
 70
    0
  3
Divide (2x) ________  .  .  ________  .  .  _
 72
   65
 73
    6
 40
63.5
 49
25.4
 74
    0
 49
-12.7
 74
    0
 49
0
 74
    0
 49
-12.7
 74
    0
 49
0
 74
    0
 49
-12.7
 74
    0
  0
LTYPE
  5
42
330
5
100
AcDbSymbolTableRecord
100
AcDbLinetypeTableRecord
  2
BORDER
 70
    0
  3
Border __ __ . __ __ . __ __ . __ __ . __ __ .
 72
   65
 73
    6
 40
44.45
 49
12.7
 74
    0
 49
-6.35
 74
    0
 49
12.7
 74
    0
 49
-6.35
 74
    0
 49
0
 74
    0
 49
-6.35
 74
    0
  0
LTYPE
  5
43
330
5
100
AcDbSymbolTableRecord
100
AcDbLinetypeTableRecord
  2
BORDERTINY
 70
    0
  3
Border (.15x) __.__.__.__.__.__.__.__.__.__.__.
 72
   65
 73
    6
 40
6.6675
 49
1.905
 74
    0
 49
-0.9525
 74
    0
 49
1.905
 74
    0
 49
-0.9525
 74
    0
 49
0
 74
    0
 49
-0.9525
 74
    0
  0
LTYPE
  5
44
330
5
100
AcDbSymbolTableRecord
100
AcDbLinetypeTableRecord
  2
BORDER2
 70
    0
  3
Border (.5x) __.__.__.__.__.__.__.__.__.__.__.
 72
   65
 73
    6
 40
22.225
 49
6.35
 74
    0
 49
-3.175
 74
    0
 49
6.35
 74
    0
 49
-3.175
 74
    0
 49
0
 74
    0
 49
-3.175
 74
    0
  0
LTYPE
  5
45
330
5
100
AcDbSymbolTableRecord
100
AcDbLinetypeTableRecord
  2
BORDERX2
 70
    0
  3
Border (2x) ____  ____  .  ____  ____  .  ___
 72
   65
 73
    6
 40
88.89999999999999
 49
25.4
 74
    0
 49
-12.7
 74
    0
 49
25.4
 74
    0
 49
-12.7
 74
    0
 49
0
 74
    0
 49
-12.7
 74
    0
  0
LTYPE
  5
46
330
5
100
AcDbSymbolTableRecord
100
AcDbLinetypeTableRecord
  2
CENTER
 70
    0
  3
Center ____ _ ____ _ ____ _ ____ _ ____ _ ____
 72
   65
 73
    4
 40
50.8
 49
31.75
 74
    0
 49
-6.35
 74
    0
 49
6.35
 74
    0
 49
-6.35
 74
    0
  0
LTYPE
  5
47
330
5
100
AcDbSymbolTableRecord
100
AcDbLinetypeTableRecord
  2
CENTERTINY
 70
    0
  3
Center (.15x) ___ _ ___ _ ___ _ ___ _ ___ _ ___
 72
   65
 73
    4
 40
7.619999999999999
 49
4.7625
 74
    0
 49
-0.9525
 74
    0
 49
0.9525
 74
    0
 49
-0.9525
 74
    0
  0
LTYPE
  5
48
330
5
100
AcDbSymbolTableRecord
100
AcDbLinetypeTableRecord
  2
CENTER2
 70
    0
  3
Center (.5x) ___ _ ___ _ ___ _ ___ _ ___ _ ___
 72
   65
 73
    4
 40
28.575
 49
19.05
 74
    0
 49
-3.175
 74
    0
 49
3.175
 74
    0
 49
-3.175
 74
    0
  0
LTYPE
  5
49
330
5
100
AcDbSymbolTableRecord
100
AcDbLinetypeTableRecord
  2
CENTERX2
 70
    0
  3
Center (2x) ________  __  ________  __  _____
 72
   65
 73
    4
 40
101.6
 49
63.5
 74
    0
 49
-12.7
 74
    0
 49
12.7
 74
    0
 49
-12.7
 74
    0
  0
ENDTAB
  0
TABLE
  2
LAYER
  5
2
330
0
100
AcDbSymbolTable
 70
    1
  0
LAYER
  5
10
330
2
100
AcDbSymbolTableRecord
100
AcDbLayerTableRecord
  2
0
 70
    0
 62
    7
  6
CONTINUOUS
370
   -3
390
F
  0
LAYER
  5
4A
330
2
100
AcDbSymbolTableRecord
100
AcDbLayerTableRecord
  2
Clefs
 70
    0
 62
    7
  6
CONTINUOUS
370
   50
390
F
  0
ENDTAB
  0
TABLE
  2
STYLE
  5
3
330
0
100
AcDbSymbolTable
 70
    3
  0
STYLE
  5
4B
330
2
100
AcDbSymbolTableRecord
100
AcDbTextStyleTableRecord
  2
Standard
 70
    0
 40
0
 41
1
 50
0
 71
    0
 42
1
  3
txt
  4

  0
ENDTAB
  0
TABLE
  2
VIEW
  5
6
330
0
100
AcDbSymbolTable
 70
    0
  0
ENDTAB
  0
TABLE
  2
UCS
  5
7
330
0
100
AcDbSymbolTable
 70
    0
  0
ENDTAB
  0
TABLE
  2
APPID
  5
9
330
0
100
AcDbSymbolTable
 70
    1
  0
APPID
  5
12
330
9
100
AcDbSymbolTableRecord
100
AcDbRegAppTableRecord
  2
ACAD
 70
    0
  0
APPID
  5
4C
330
9
100
AcDbSymbolTableRecord
100
AcDbRegAppTableRecord
  2
LibreCad
 70
    0
  0
ENDTAB
  0
TABLE
  2
DIMSTYLE
  5
A
330
0
100
AcDbSymbolTable
 70
    1
100
AcDbDimStyleTable
 71
    1
  0
DIMSTYLE
105
4D
330
A
100
AcDbSymbolTableRecord
100
AcDbDimStyleTableRecord
  2
Standard
 70
    0
 40
1
 41
2.5
 42
0.625
 43
0.38
 44
1.25
 45
0
 46
0
 47
0
 48
0
 49
1
140
2.5
141
0.09
142
2.5
143
25.4
144
1
145
0
146
1
147
0.625
148
0
 71
    0
 72
    0
 73
    0
 74
    1
 75
    0
 76
    0
 77
    0
 78
    1
 79
    0
170
    0
171
    2
172
    0
173
    0
174
    0
175
    0
176
    0
177
    0
178
    0
179
    0
271
    2
272
    4
273
    2
274
    2
275
    0
276
    0
277
    2
278
    0
279
    0
280
    0
281
    0
282
    0
283
    1
284
    0
285
    0
286
    0
288
    0
289
    3
340
standard
341

371
   -2
372
   -2
  0
ENDTAB
  0
TABLE
  2
BLOCK_RECORD
  5
1
330
0
100
AcDbSymbolTable
 70
    2
  0
BLOCK_RECORD
  5
1F
330
1
100
AcDbSymbolTableRecord
100
AcDbBlockTableRecord
  2
*Model_Space
 70
    0
280
    1
281
    0
  0
BLOCK_RECORD
  5
1E
330
1
100
AcDbSymbolTableRecord
100
AcDbBlockTableRecord
  2
*Paper_Space
 70
    0
280
    1
281
    0
  0
ENDTAB
  0
ENDSEC
  0
SECTION
  2
BLOCKS
  0
BLOCK
  5
20
330
1F
100
AcDbEntity
  8
0
100
AcDbBlockBegin
  2
*Model_Space
 70
    0
 10
0
 20
0
 30
0
  3
*Model_Space
  1

  0
ENDBLK
  5
21
330
1F
100
AcDbEntity
  8
0
100
AcDbBlockEnd
  0
BLOCK
  5
1C
330
1B
100
AcDbEntity
  8
0
100
AcDbBlockBegin
  2
*Paper_Space
 70
    0
 10
0
 20
0
 30
0
  3
*Paper_Space
  1

  0
ENDBLK
  5
1D
330
1F
100
AcDbEntity
  8
0
100
AcDbBlockEnd
  0
ENDSEC
  0
SECTION
  2
ENTITIES
  0
ARC
  5
4E
100
AcDbEntity
  8
Clefs
  6
ByLayer
 62
  256
370
   -1
100
AcDbCircle
 10
1159.764763543792
 20
-541.2501962455697
 40
20.56439724076726
100
AcDbArc
 50
272.8466169158161
 51
87.15338308418391
  0
ARC
  5
4F
100
AcDbEntity
  8
Clefs
  6
ByLayer
 62
  256
370
   -1
100
AcDbCircle
 10
1161.517392874743
 20
-536.6673631601253
 40
25.13249849931315
100
AcDbArc
 50
163.5782010483629
 51
268.3324658828161
  0
ARC
  5
50
100
AcDbEntity
  8
Clefs
  6
ByLayer
 62
  256
370
   -1
100
AcDbCircle
 10
1157.639402594765
 20
-544.5655139741369
 40
55.36261574842981
100
AcDbArc
 50
354.6153387456451
 51
12.81523946521248
  0
ARC
  5
51
100
AcDbEntity
  8
Clefs
  6
ByLayer
 62
  256
370
   -1
100
AcDbCircle
 10
1261.169225617845
 20
-764.1671532511732
 40
64.23799293814383
100
AcDbArc
 50
176.6030985481378
 51
229.7172269849641
  0
ARC
  5
52
100
AcDbEntity
  8
Clefs
  6
ByLayer
 62
  256
370
   -1
100
AcDbCircle
 10
1223.45845573813
 20
-805.9174074324883
 40
8.200193896159371
100
AcDbArc
 50
242.2117349453048
 51
342.0610375925268
  0
ARC
  5
53
100
AcDbEntity
  8
Clefs
  6
ByLayer
 62
  256
370
   -1
100
AcDbCircle
 10
1191.295990509982
 20
-801.5698863349643
 40
40.55074564015025
100
AcDbArc
 50
350.2414523240544
 51
35.49275595598386
  0
ARC
  5
54
100
AcDbEntity
  8
Clefs
  6
ByLayer
 62
  256
370
   -1
100
AcDbCircle
 10
1120.445392083898
 20
-851.3570461164011
 40
127.1443589865797
100
AcDbArc
 50
35.22250674634513
 51
50.77750865558638
  0
ARC
  5
55
100
AcDbEntity
  8
Clefs
  6
ByLayer
 62
  256
370
   -1
100
AcDbCircle
 10
1196.951316345706
 20
-654.6422695007777
 40
74.16208697187983
100
AcDbArc
 50
105.9255821046178
 51
220.2134852901577
  0
ARC
  5
56
100
AcDbEntity
  8
Clefs
  6
ByLayer
 62
  256
370
   -1
100
AcDbCircle
 10
1193.378458690038
 20
-634.8106279470052
 40
54.5807100522211
100
AcDbArc
 50
315.5488911110288
 51
38.57976199612872
  0
ARC
  5
57
100
AcDbEntity
  8
Clefs
  6
ByLayer
 62
  256
370
   -1
100
AcDbCircle
 10
1202.746311967739
 20
-639.9264071755908
 40
43.15923231007343
100
AcDbArc
 50
150.5162034180153
 51
230.0934895195167
  0
ARC
  5
58
100
AcDbEntity
  8
Clefs
  6
ByLayer
 62
  256
370
   -1
100
AcDbCircle
 10
1202.719554876376
 20
-628.3974272579046
 40
26.42062833998115
100
AcDbArc
 50
307.7313225194825
 51
8.246111084678464
  0
ARC
  5
59
100
AcDbEntity
  8
Clefs
  6
ByLayer
 62
  256
370
   -1
100
AcDbCircle
 10
1201.980088415473
 20
-622.750248005925
 40
26.95104197512345
100
AcDbArc
 50
356.0473538659427
 51
48.21565608475805
  0
ARC
  5
5A
100
AcDbEntity
  8
Clefs
  6
ByLayer
 62
  256
370
   -1
100
AcDbCircle
 10
1189.968990968263
 20
-640.8661244163736
 40
50.78972693088518
100
AcDbArc
 50
153.495632892369
 51
222.1104496269374
  0
ARC
  5
5B
100
AcDbEntity
  8
Clefs
  6
ByLayer
 62
  256
370
   -1
100
AcDbCircle
 10
1282.993658449387
 20
-561.9168887841204
 40
172.7827716314661
100
AcDbArc
 50
220.8469191615908
 51
237.0897691992129
  0
ARC
  5
5C
100
AcDbEntity
  8
Clefs
  6
ByLayer
 62
  256
370
   -1
100
AcDbCircle
 10
1162.541754995806
 20
-786.160816514576
 40
78.58234182393842
100
AcDbArc
 50
11.67919891563858
 51
42.93048266185173
  0
ARC
  5
5D
100
AcDbEntity
  8
Clefs
  6
ByLayer
 62
  256
370
   -1
100
AcDbCircle
 10
1126.649806566019
 20
-798.8639828129548
 40
116.417774911755
100
AcDbArc
 50
340.277124087908
 51
14.22669955198456
  0
LINE
  5
5E
100
AcDbEntity
  8
Clefs
  6
ByLayer
 62
  256
370
   -1
100
AcDbLine
 10
1186.808024339096
 20
-787.4994385037382
 11
1189.473397537155
 21
-744.8874109726009
  0
LINE
  5
5F
100
AcDbEntity
  8
Clefs
  6
ByLayer
 62
  256
370
   -1
100
AcDbLine
 10
1197.760726610306
 20
-750.7563408430478
 11
1197.044096665594
 21
-760.3608987170934
  0
LINE
  5
60
100
AcDbEntity
  8
Clefs
  6
ByLayer
 62
  256
370
   -1
100
AcDbLine
 10
1191.707704146591
 20
-709.1669592085977
 11
1193.356976274058
 21
-682.7996087178003
  0
LINE
  5
61
100
AcDbEntity
  8
Clefs
  6
ByLayer
 62
  256
370
   -1
100
AcDbLine
 10
1202.737107788717
 20
-684.0609126320319
 11
1200.323930071537
 21
-716.4032745666163
  0
LINE
  5
62
100
AcDbEntity
  8
Clefs
  6
ByLayer
 62
  256
370
   -1
100
AcDbLine
 10
1199.653856383974
 20
-582.1297179874888
 11
1201.935567565039
 21
-545.6513967766068
  0
LINE
  5
63
100
AcDbEntity
  8
Clefs
  6
ByLayer
 62
  256
370
   -1
100
AcDbLine
 10
1195.001655135958
 20
-656.5056919806503
 11
1198.995669423058
 21
-592.6523273240152
  0
LINE
  5
64
100
AcDbEntity
  8
Clefs
  6
ByLayer
 62
  256
370
   -1
100
AcDbLine
 10
1212.757709919288
 20
-549.7608407384225
 11
1210.16434954903
 21
-584.5180818336623
  0
LINE
  5
65
100
AcDbEntity
  8
Clefs
  6
ByLayer
 62
  256
370
   -1
100
AcDbLine
 10
1209.370337892601
 20
-595.1597400048295
 11
1204.771711790442
 21
-656.7923453197874
  0
ARC
  5
66
100
AcDbEntity
  8
Clefs
  6
ByLayer
 62
  256
370
   -1
100
AcDbCircle
 10
1421.802515064495
 20
-425.6084604497746
 40
394.8618329213272
100
AcDbArc
 50
224.5311981032364
 51
233.9578117910517
  0
ARC
  5
67
100
AcDbEntity
  8
Clefs
  6
ByLayer
 62
  256
370
   -1
100
AcDbCircle
 10
1421.802515064495
 20
-425.6084604497746
 40
394.8618329213272
100
AcDbArc
 50
235.4313780160147
 51
235.972769225526
  0
ARC
  5
68
100
AcDbEntity
  8
Clefs
  6
ByLayer
 62
  256
370
   -1
100
AcDbCircle
 10
2305.569412339008
 20
608.3519507146018
 40
1725.266351315804
100
AcDbArc
 50
229.6752536022253
 51
229.7880298524064
  0
ARC
  5
69
100
AcDbEntity
  8
Clefs
  6
ByLayer
 62
  256
370
   -1
100
AcDbCircle
 10
2305.569412339008
 20
608.3519507146018
 40
1725.266351315804
100
AcDbArc
 50
230.161701625846
 51
231.0108579149249
  0
ARC
  5
6A
100
AcDbEntity
  8
Clefs
  6
ByLayer
 62
  256
370
   -1
100
AcDbCircle
 10
1203.699440513143
 20
-641.3942053405274
 40
42.67755845138732
100
AcDbArc
 50
227.8471561181946
 51
255.9753308255024
  0
ARC
  5
6B
100
AcDbEntity
  8
Clefs
  6
ByLayer
 62
  256
370
   -1
100
AcDbCircle
 10
1203.699440513143
 20
-641.3942053405274
 40
42.67755845138732
100
AcDbArc
 50
268.7079327132739
 51
312.1528438818054
  0
ARC
  5
6C
100
AcDbEntity
  8
Clefs
  6
ByLayer
 62
  256
370
   -1
100
AcDbCircle
 10
1200.612036249806
 20
-631.9266908342239
 40
25.21118151929366
100
AcDbArc
 50
226.2342962693309
 51
257.1420052346525
  0
ARC
  5
6D
100
AcDbEntity
  8
Clefs
  6
ByLayer
 62
  256
370
   -1
100
AcDbCircle
 10
1200.612036249806
 20
-631.9266908342239
 40
25.21118151929366
100
AcDbArc
 50
279.4968441113584
 51
316.4614782910665
  0
ARC
  5
6E
100
AcDbEntity
  8
Clefs
  6
ByLayer
 62
  256
370
   -1
100
AcDbCircle
 10
1197.632559914136
 20
-622.9101137193934
 40
30.13069320758727
100
AcDbArc
 50
42.2429371534739
 51
67.07274143192042
  0
ARC
  5
6F
100
AcDbEntity
  8
Clefs
  6
ByLayer
 62
  256
370
   -1
100
AcDbCircle
 10
1192.417870323334
 20
-649.4845331501598
 40
57.21159899934281
100
AcDbArc
 50
83.3979222579496
 51
146.8512447885381
  0
ARC
  5
70
100
AcDbEntity
  8
Clefs
  6
ByLayer
 62
  256
370
   -1
100
AcDbCircle
 10
1191.274341101274
 20
-643.3265128379264
 40
61.767823147167
100
AcDbArc
 50
82.20312728337623
 51
103.7413251444572
  0
ARC
  5
71
100
AcDbEntity
  8
Clefs
  6
ByLayer
 62
  256
370
   -1
100
AcDbCircle
 10
1191.274341101274
 20
-643.3265128379264
 40
61.767823147167
100
AcDbArc
 50
43.54406200572176
 51
72.19232780709416
  0
ARC
  5
72
100
AcDbEntity
  8
Clefs
  6
ByLayer
 62
  256
370
   -1
100
AcDbCircle
 10
1231.061343505333
 20
-643.1497271214879
 40
98.33791290296394
100
AcDbArc
 50
324.8641917133723
 51
356.7104646522566
  0
ARC
  5
73
100
AcDbEntity
  8
Clefs
  6
ByLayer
 62
  256
370
   -1
100
AcDbCircle
 10
1165.048576243111
 20
-609.3597880335303
 40
172.0812140695403
100
AcDbArc
 50
310.2689128186651
 51
328.3151722444454
  0
ARC
  5
74
100
AcDbEntity
  8
Clefs
  6
ByLayer
 62
  256
370
   -1
100
AcDbCircle
 10
994.9287828422241
 20
-428.6221454827011
 40
420.149382312744
100
AcDbArc
 50
305.5982838993229
 51
312.0393056121243
  0
ARC
  5
75
100
AcDbEntity
  8
Clefs
  6
ByLayer
 62
  256
370
   -1
100
AcDbCircle
 10
1118.075580497119
 20
-802.100848844694
 40
125.5287558782627
100
AcDbArc
 50
10.41152434074614
 51
14.6970160336903
  0
ARC
  5
76
100
AcDbEntity
  8
Clefs
  6
ByLayer
 62
  256
370
   -1
100
AcDbCircle
 10
492.3890756363833
 20
409.9340419155801
 40
1405.623042657448
100
AcDbArc
 50
302.2060348041109
 51
305.3641358265819
  0
ARC
  5
77
100
AcDbEntity
  8
Clefs
  6
ByLayer
 62
  256
370
   -1
100
AcDbCircle
 10
1150.202474435985
 20
-546.1615935342379
 40
245.7962270523627
100
AcDbArc
 50
309.3113239126145
 51
324.532588005248
  0
ARC
  5
78
100
AcDbEntity
  8
Clefs
  6
ByLayer
 62
  256
370
   -1
100
AcDbCircle
 10
1266.604622242899
 20
-635.8885259596015
 40
99.08466629814497
100
AcDbArc
 50
327.7357706932597
 51
359.0558289569469
  0
ARC
  5
79
100
AcDbEntity
  8
Clefs
  6
ByLayer
 62
  256
370
   -1
100
AcDbCircle
 10
1308.809400431679
 20
-636.5160376798057
 40
56.87531887185408
100
AcDbArc
 50
358.9872959730013
 51
51.30227528835675
  0
ARC
  5
7A
100
AcDbEntity
  8
Clefs
  6
ByLayer
 62
  256
370
   -1
100
AcDbCircle
 10
1301.181104294361
 20
-644.9943823261722
 40
68.26470826909147
100
AcDbArc
 50
50.75437401131401
 51
100.7266806922652
  0
ARC
  5
7B
100
AcDbEntity
  8
Clefs
  6
ByLayer
 62
  256
370
   -1
100
AcDbCircle
 10
1301.658937996155
 20
-637.766895488258
 40
61.27932485997879
100
AcDbArc
 50
102.4236562363298
 51
158.9442887239391
  0
ARC
  5
7C
100
AcDbEntity
  8
Clefs
  6
ByLayer
 62
  256
370
   -1
100
AcDbCircle
 10
1192.887980958486
 20
-635.59441827556
 40
55.26838293931171
100
AcDbArc
 50
351.5695019840563
 51
21.04138997048098
  0
ARC
  5
7D
100
AcDbEntity
  8
Clefs
  6
ByLayer
 62
  256
370
   -1
100
AcDbCircle
 10
1270.961769207868
 20
-633.1706683618114
 40
25.66109998787412
100
AcDbArc
 50
204.2184801890887
 51
318.4764362286821
  0
ARC
  5
7E
100
AcDbEntity
  8
Clefs
  6
ByLayer
 62
  256
370
   -1
100
AcDbCircle
 10
1276.733479447057
 20
-633.7666514020418
 40
21.21580133274878
100
AcDbArc
 50
309.3092140457214
 51
54.36906760109558
  0
ARC
  5
7F
100
AcDbEntity
  8
Clefs
  6
ByLayer
 62
  256
370
   -1
100
AcDbCircle
 10
1275.905307580782
 20
-642.2215294826441
 40
28.88499696752012
100
AcDbArc
 50
62.83474962899009
 51
111.1789863590518
  0
CIRCLE
  5
80
100
AcDbEntity
  8
Clefs
  6
ByLayer
 62
  256
370
   -1
100
AcDbCircle
 10
1381.96512888854
 20
-605.0970716847315
 40
14.20676942795694
  0
CIRCLE
  5
81
100
AcDbEntity
  8
Clefs
  6
ByLayer
 62
  256
370
   -1
100
AcDbCircle
 10
1386.442754578476
 20
-654.9685578174614
 40
14.9866322976009
  0
ARC
  5
82
100
AcDbEntity
  8
Clefs
  6
ByLayer
 62
  256
370
   -1
100
AcDbCircle
 10
1294.053507706306
 20
-630.4709084086425
 40
40.38365826450703
100
AcDbArc
 50
69.44601307950211
 51
127.1983955737653
  0
ARC
  5
83
100
AcDbEntity
  8
Clefs
  6
ByLayer
 62
  256
370
   -1
100
AcDbCircle
 10
1256.516202291741
 20
-640.2748974749146
 40
73.21814854726246
100
AcDbArc
 50
353.3195324071692
 51
32.878616313889
  0
ARC
  5
84
100
AcDbEntity
  8
Clefs
  6
ByLayer
 62
  256
370
   -1
100
AcDbCircle
 10
1301.210002303069
 20
-611.3848373270732
 40
20
100
AcDbArc
 50
32.87861631388903
 51
69.44601307950204
  0
ARC
  5
85
100
AcDbEntity
  8
Clefs
  6
ByLayer
 62
  256
370
   -1
100
AcDbCircle
 10
1277.17897263213
 20
-613.0660657206548
 40
16.57692057932177
100
AcDbArc
 50
117.0571303251647
 51
174.3272939854029
  0
ARC
  5
86
100
AcDbEntity
  8
Clefs
  6
ByLayer
 62
  256
370
   -1
100
AcDbCircle
 10
1264.425289726599
 20
-611.6849538200589
 40
3.750902098332535
100
AcDbArc
 50
176.064369532067
 51
286.1666376005045
  0
ARC
  5
87
100
AcDbEntity
  8
Clefs
  6
ByLayer
 62
  256
370
   -1
100
AcDbCircle
 10
1170.658388494643
 20
-537.0265064830991
 40
34.07581858138524
100
AcDbArc
 50
98.69026334270559
 51
167.3468382992717
  0
ARC
  5
88
100
AcDbEntity
  8
Clefs
  6
ByLayer
 62
  256
370
   -1
100
AcDbCircle
 10
1179.260338695899
 20
-536.5553421132753
 40
32.64305973522304
100
AcDbArc
 50
7.515786841136483
 51
73.90853329774072
  0
ARC
  5
89
100
AcDbEntity
  8
Clefs
  6
ByLayer
 62
  256
370
   -1
100
AcDbCircle
 10
1171.244612421473
 20
-574.0953839488329
 40
70.98552576165442
100
AcDbArc
 50
76.09106948722851
 51
94.63390787750244
  0
ARC
  5
8A
100
AcDbEntity
  8
Clefs
  6
ByLayer
 62
  256
370
   -1
100
AcDbCircle
 10
1177.658685118266
 20
-547.0844272947069
 40
31.30869850602059
100
AcDbArc
 50
75.55550815039597
 51
122.6096283391517
  0
ARC
  5
8B
100
AcDbEntity
  8
Clefs
  6
ByLayer
 62
  256
370
   -1
100
AcDbCircle
 10
1171.118922950392
 20
-543.6401285994301
 40
30.88220822716534
100
AcDbArc
 50
356.2658500049518
 51
55.4092858887109
  0
ARC
  5
8C
100
AcDbEntity
  8
Clefs
  6
ByLayer
 62
  256
370
   -1
100
AcDbCircle
 10
1182.973968325006
 20
-526.449301987294
 40
10
100
AcDbArc
 50
55.4092858887107
 51
75.55550815039631
  0
ARC
  5
8D
100
AcDbEntity
  8
Clefs
  6
ByLayer
 62
  256
370
   -1
100
AcDbCircle
 10
1183.607459679188
 20
-608.8795799604577
 40
4.569364222135668
100
AcDbArc
 50
291.177442137083
 51
14.67565608435816
  0
ARC
  5
8E
100
AcDbEntity
  8
Clefs
  6
ByLayer
 62
  256
370
   -1
100
AcDbCircle
 10
1195.943334977951
 20
-632.1893661771596
 40
22.02432452658864
100
AcDbArc
 50
126.0286469663219
 51
234.5620946371574
  0
ARC
  5
8F
100
AcDbEntity
  8
Clefs
  6
ByLayer
 62
  256
370
   -1
100
AcDbCircle
 10
1188.870751451394
 20
-622.4650182514321
 40
10
100
AcDbArc
 50
111.1774421370823
 51
126.0286469663219
  0
ARC
  5
90
100
AcDbEntity
  8
Clefs
  6
ByLayer
 62
  256
370
   -1
100
AcDbCircle
 10
1183.710785289666
 20
-610.1861001609782
 40
4.970739155855022
100
AcDbArc
 50
29.71803369045116
 51
118.47270930696
  0
ARC
  5
91
100
AcDbEntity
  8
Clefs
  6
ByLayer
 62
  256
370
   -1
100
AcDbCircle
 10
1188.507848640166
 20
-631.8009580041127
 40
26.76563954428798
100
AcDbArc
 50
108.9414889485508
 51
150.656014223849
  0
ARC
  5
92
100
AcDbEntity
  8
Clefs
  6
ByLayer
 62
  256
370
   -1
100
AcDbCircle
 10
1176.573633388599
 20
-597.0261573946225
 40
10
100
AcDbArc
 50
288.9414889485504
 51
298.4727093069588
  0
ARC
  5
93
100
AcDbEntity
  8
Clefs
  6
ByLayer
 62
  256
370
   -1
100
AcDbCircle
 10
1262.008649165602
 20
-785.5179314507928
 40
75.22672626465742
100
AcDbArc
 50
181.509372126265
 51
234.119905605184
  0
ARC
  5
94
100
AcDbEntity
  8
Clefs
  6
ByLayer
 62
  256
370
   -1
100
AcDbCircle
 10
1222.760548510568
 20
-834.5512631546428
 40
13.95009748191014
100
AcDbArc
 50
284.9541987008338
 51
345.0433413647002
  0
ARC
  5
95
100
AcDbEntity
  8
Clefs
  6
ByLayer
 62
  256
370
   -1
100
AcDbCircle
 10
1223.779858593995
 20
-838.3675803676663
 40
10
100
AcDbArc
 50
234.1199056051838
 51
284.9541987008339
  0
ENDSEC
  0
SECTION
  2
OBJECTS
  0
DICTIONARY
  5
C
330
0
100
AcDbDictionary
281
    1
  3
ACAD_GROUP
350
D
  0
DICTIONARY
  5
D
330
C
100
AcDbDictionary
281
    1
  0
ENDSEC
  0
EOF
