999
dxfrw 0.5.11
0
SECTION
2
HEADER
9
$ACADVER
1
AC1021
9
$HANDSEED
5
20000
9
$DWGCODEPAGE
3
ANSI_1252
9
$INSBASE
10
0
20
0
30
0
9
$EXTMIN
10
-163.149061996
20
-103.510376977
30
0
9
$EXTMAX
10
470.833369333
20
247.877645739
30
0
9
$LIMMIN
10
0
20
0
9
$LIMMAX
10
420
20
297
9
$ORTHOMODE
70
0
9
$LTSCALE
40
1
9
$TEXTSTYLE
7
STANDARD
9
$CLAYER
8
Neck plate
9
$DIMASZ
40
2.5
9
$DIMLFAC
40
1
9
$DIMSCALE
40
1
9
$DIMEXO
40
0.625
9
$DIMEXE
40
1.25
9
$DIMTXT
40
2.5
9
$DIMTSZ
40
0
9
$DIMAUNIT
70
0
9
$DIMADEC
70
2
9
$DIMLUNIT
70
2
9
$DIMSTYLE
2
STANDARD
9
$DIMGAP
40
0.625
9
$DIMTIH
70
0
9
$LUNITS
70
2
9
$LUPREC
70
4
9
$AUNITS
70
0
9
$AUPREC
70
2
9
$SPLINESEGS
70
8
9
$GRIDMODE
70
1
9
$SNAPSTYLE
70
0
9
$GRIDUNIT
10
0
20
0
9
$PINSBASE
10
109.40396477
20
66.9965067186
30
0
9
$PLIMMIN
10
0
20
0
9
$PLIMMAX
10
297
20
210
9
$INSUNITS
70
4
9
$PSVPSCALE
40
0.526483511219
0
ENDSEC
0
SECTION
2
CLASSES
0
ENDSEC
0
SECTION
2
TABLES
0
TABLE
2
VPORT
5
8
330
0
100
AcDbSymbolTable
70
1
0
VPORT
5
31
330
2
100
AcDbSymbolTableRecord
100
AcDbViewportTableRecord
2
*ACTIVE
70
0
10
0
20
0
11
1
21
1
12
251.483584885
22
127.46428275
13
0
23
0
14
10
24
10
15
10
25
10
16
0
26
0
36
1
17
0
27
0
37
0
40
365.167945176
41
1.90943396226
42
50
43
0
44
0
50
0
51
0
71
0
72
100
73
1
74
3
75
0
76
1
77
0
78
0
281
0
65
1
110
0
120
0
130
0
111
1
121
0
131
0
112
0
122
1
132
0
79
0
146
0
348
10020
60
7
61
5
292
1
282
1
141
0
142
0
63
250
421
3358443
0
ENDTAB
0
TABLE
2
LTYPE
5
5
330
0
100
AcDbSymbolTable
70
4
0
LTYPE
5
14
330
5
100
AcDbSymbolTableRecord
100
AcDbLinetypeTableRecord
2
ByBlock
70
0
3

72
65
73
0
40
0
0
LTYPE
5
15
330
5
100
AcDbSymbolTableRecord
100
AcDbLinetypeTableRecord
2
ByLayer
70
0
3

72
65
73
0
40
0
0
LTYPE
5
16
330
5
100
AcDbSymbolTableRecord
100
AcDbLinetypeTableRecord
2
Continuous
70
0
3
Solid line
72
65
73
0
40
0
0
LTYPE
5
32
330
5
100
AcDbSymbolTableRecord
100
AcDbLinetypeTableRecord
2
DOT
70
0
3
Dot . . . . . . . . . . . . . . . . . . . . . .
72
65
73
2
40
6.35
49
0
74
0
49
-6.35
74
0
0
LTYPE
5
33
330
5
100
AcDbSymbolTableRecord
100
AcDbLinetypeTableRecord
2
DOT2
70
0
3
Dot (.5x) .....................................
72
65
73
2
40
3.175
49
0
74
0
49
-3.175
74
0
0
LTYPE
5
34
330
5
100
AcDbSymbolTableRecord
100
AcDbLinetypeTableRecord
2
DOTX2
70
0
3
Dot (2x) .  .  .  .  .  .  .  .  .  .  .  .  .
72
65
73
2
40
12.7
49
0
74
0
49
-12.7
74
0
0
LTYPE
5
35
330
5
100
AcDbSymbolTableRecord
100
AcDbLinetypeTableRecord
2
DASHED
70
0
3
Dot . . . . . . . . . . . . . . . . . . . . . .
72
65
73
2
40
19.05
49
12.7
74
0
49
-6.35
74
0
0
LTYPE
5
36
330
5
100
AcDbSymbolTableRecord
100
AcDbLinetypeTableRecord
2
DASHED2
70
0
3
Dashed (.5x) _ _ _ _ _ _ _ _ _ _ _ _ _ _ _ _ _
72
65
73
2
40
9.525
49
6.35
74
0
49
-3.175
74
0
0
LTYPE
5
37
330
5
100
AcDbSymbolTableRecord
100
AcDbLinetypeTableRecord
2
DASHEDX2
70
0
3
Dashed (2x) ____  ____  ____  ____  ____  ___
72
65
73
2
40
38.1
49
25.4
74
0
49
-12.7
74
0
0
LTYPE
5
38
330
5
100
AcDbSymbolTableRecord
100
AcDbLinetypeTableRecord
2
DASHDOT
70
0
3
Dash dot __ . __ . __ . __ . __ . __ . __ . __
72
65
73
4
40
25.4
49
12.7
74
0
49
-6.35
74
0
49
0
74
0
49
-6.35
74
0
0
LTYPE
5
39
330
5
100
AcDbSymbolTableRecord
100
AcDbLinetypeTableRecord
2
DASHDOT2
70
0
3
Dash dot (.5x) _._._._._._._._._._._._._._._.
72
65
73
4
40
12.7
49
6.35
74
0
49
-3.175
74
0
49
0
74
0
49
-3.175
74
0
0
LTYPE
5
3A
330
5
100
AcDbSymbolTableRecord
100
AcDbLinetypeTableRecord
2
DASHDOTX2
70
0
3
Dash dot (2x) ____  .  ____  .  ____  .  ___
72
65
73
4
40
50.8
49
25.4
74
0
49
-12.7
74
0
49
0
74
0
49
-12.7
74
0
0
LTYPE
5
3B
330
5
100
AcDbSymbolTableRecord
100
AcDbLinetypeTableRecord
2
DIVIDE
70
0
3
Divide ____ . . ____ . . ____ . . ____ . . ____
72
65
73
6
40
31.75
49
12.7
74
0
49
-6.35
74
0
49
0
74
0
49
-6.35
74
0
49
0
74
0
49
-6.35
74
0
0
LTYPE
5
3C
330
5
100
AcDbSymbolTableRecord
100
AcDbLinetypeTableRecord
2
DIVIDE2
70
0
3
Divide (.5x) __..__..__..__..__..__..__..__.._
72
65
73
6
40
15.875
49
6.35
74
0
49
-3.175
74
0
49
0
74
0
49
-3.175
74
0
49
0
74
0
49
-3.175
74
0
0
LTYPE
5
3D
330
5
100
AcDbSymbolTableRecord
100
AcDbLinetypeTableRecord
2
DIVIDEX2
70
0
3
Divide (2x) ________  .  .  ________  .  .  _
72
65
73
6
40
63.5
49
25.4
74
0
49
-12.7
74
0
49
0
74
0
49
-12.7
74
0
49
0
74
0
49
-12.7
74
0
0
LTYPE
5
3E
330
5
100
AcDbSymbolTableRecord
100
AcDbLinetypeTableRecord
2
BORDER
70
0
3
Border __ __ . __ __ . __ __ . __ __ . __ __ .
72
65
73
6
40
44.45
49
12.7
74
0
49
-6.35
74
0
49
12.7
74
0
49
-6.35
74
0
49
0
74
0
49
-6.35
74
0
0
LTYPE
5
3F
330
5
100
AcDbSymbolTableRecord
100
AcDbLinetypeTableRecord
2
BORDER2
70
0
3
Border (.5x) __.__.__.__.__.__.__.__.__.__.__.
72
65
73
6
40
22.225
49
6.35
74
0
49
-3.175
74
0
49
6.35
74
0
49
-3.175
74
0
49
0
74
0
49
-3.175
74
0
0
LTYPE
5
40
330
5
100
AcDbSymbolTableRecord
100
AcDbLinetypeTableRecord
2
BORDERX2
70
0
3
Border (2x) ____  ____  .  ____  ____  .  ___
72
65
73
6
40
88.9
49
25.4
74
0
49
-12.7
74
0
49
25.4
74
0
49
-12.7
74
0
49
0
74
0
49
-12.7
74
0
0
LTYPE
5
41
330
5
100
AcDbSymbolTableRecord
100
AcDbLinetypeTableRecord
2
CENTER
70
0
3
Center ____ _ ____ _ ____ _ ____ _ ____ _ ____
72
65
73
4
40
50.8
49
31.75
74
0
49
-6.35
74
0
49
6.35
74
0
49
-6.35
74
0
0
LTYPE
5
42
330
5
100
AcDbSymbolTableRecord
100
AcDbLinetypeTableRecord
2
CENTER2
70
0
3
Center (.5x) ___ _ ___ _ ___ _ ___ _ ___ _ ___
72
65
73
4
40
28.575
49
19.05
74
0
49
-3.175
74
0
49
3.175
74
0
49
-3.175
74
0
0
LTYPE
5
43
330
5
100
AcDbSymbolTableRecord
100
AcDbLinetypeTableRecord
2
CENTERX2
70
0
3
Center (2x) ________  __  ________  __  _____
72
65
73
4
40
101.6
49
63.5
74
0
49
-12.7
74
0
49
12.7
74
0
49
-12.7
74
0
0
ENDTAB
0
TABLE
2
LAYER
5
2
330
0
100
AcDbSymbolTable
70
1
0
LAYER
5
10
330
2
100
AcDbSymbolTableRecord
100
AcDbLayerTableRecord
2
0
70
0
62
7
6
CONTINUOUS
370
0
390
F
0
LAYER
5
44
330
2
100
AcDbSymbolTableRecord
100
AcDbLayerTableRecord
2
Neck plate
70
0
62
6
6
CONTINUOUS
370
13
390
F
0
LAYER
5
45
330
2
100
AcDbSymbolTableRecord
100
AcDbLayerTableRecord
2
Scratch plate big
70
0
62
4
6
CONTINUOUS
370
13
390
F
0
LAYER
5
46
330
2
100
AcDbSymbolTableRecord
100
AcDbLayerTableRecord
2
Scratch plate pickup only
70
0
62
96
420
32768
6
CONTINUOUS
370
13
390
F
0
LAYER
5
47
330
2
100
AcDbSymbolTableRecord
100
AcDbLayerTableRecord
2
Scratch plate small
70
0
62
1
6
CONTINUOUS
370
13
390
F
0
ENDTAB
0
TABLE
2
STYLE
5
3
330
0
100
AcDbSymbolTable
70
3
0
STYLE
5
48
330
2
100
AcDbSymbolTableRecord
100
AcDbTextStyleTableRecord
2
iso
70
0
40
0
41
1
50
0
71
0
42
1
3
iso
4

0
STYLE
5
49
330
2
100
AcDbSymbolTableRecord
100
AcDbTextStyleTableRecord
2
Standard
70
0
40
0
41
1
50
0
71
0
42
1
3
txt
4

0
ENDTAB
0
TABLE
2
VIEW
5
6
330
0
100
AcDbSymbolTable
70
0
0
ENDTAB
0
TABLE
2
UCS
5
7
330
0
100
AcDbSymbolTable
70
0
0
ENDTAB
0
TABLE
2
APPID
5
9
330
0
100
AcDbSymbolTable
70
1
0
APPID
5
12
330
9
100
AcDbSymbolTableRecord
100
AcDbRegAppTableRecord
2
ACAD
70
0
0
ENDTAB
0
TABLE
2
DIMSTYLE
5
A
330
0
100
AcDbSymbolTable
70
1
100
AcDbDimStyleTable
71
1
0
DIMSTYLE
105
4A
330
A
100
AcDbSymbolTableRecord
100
AcDbDimStyleTableRecord
2
Standard
70
0
40
1
41
2.5
42
0.625
43
0.38
44
1.25
45
0
46
0
47
0
48
0
140
2.5
141
0.09
142
0
143
25.4
144
1
145
0
146
1
147
0.625
148
0
71
0
72
0
73
0
74
1
75
0
76
0
77
0
78
0
79
0
170
0
171
2
172
0
173
0
174
0
175
0
176
0
177
0
178
0
179
0
271
4
272
4
273
2
274
2
275
0
276
0
277
2
278
46
279
0
280
0
281
0
282
0
283
1
284
0
285
0
286
0
288
0
289
3
340
Standard
341

371
-2
372
-2
0
ENDTAB
0
TABLE
2
BLOCK_RECORD
5
1
330
0
100
AcDbSymbolTable
70
2
0
BLOCK_RECORD
5
1F
330
1
100
AcDbSymbolTableRecord
100
AcDbBlockTableRecord
2
*Model_Space
70
0
280
1
281
0
0
BLOCK_RECORD
5
1E
330
1
100
AcDbSymbolTableRecord
100
AcDbBlockTableRecord
2
*Paper_Space
70
0
280
1
281
0
0
BLOCK_RECORD
5
4B
330
1
100
AcDbSymbolTableRecord
100
AcDbBlockTableRecord
2
*D1
70
0
280
1
281
0
0
ENDTAB
0
ENDSEC
0
SECTION
2
BLOCKS
0
BLOCK
5
20
330
1F
100
AcDbEntity
8
0
100
AcDbBlockBegin
2
*Model_Space
70
0
10
0
20
0
30
0
3
*Model_Space
1

0
ENDBLK
5
21
330
1F
100
AcDbEntity
8
0
100
AcDbBlockEnd
0
BLOCK
5
1C
330
1B
100
AcDbEntity
8
0
100
AcDbBlockBegin
2
*Paper_Space
70
0
10
0
20
0
30
0
3
*Paper_Space
1

0
ENDBLK
5
1D
330
1F
100
AcDbEntity
8
0
100
AcDbBlockEnd
0
BLOCK
5
4C
330
4B
100
AcDbEntity
8
0
100
AcDbBlockBegin
2
*D1
70
1
10
0
20
0
3
*D1
1

0
LINE
5
4E
100
AcDbEntity
8
0
6
CONTINUOUS
62
7
370
0
100
AcDbLine
10
120.29930697
20
44.9767679212
11
171.959369723
21
28.178216047
0
LINE
5
4F
100
AcDbEntity
8
0
6
CONTINUOUS
62
7
370
0
100
AcDbLine
10
171.959369723
20
28.178216047
11
220.909988625
21
28.178216047
0
SOLID
5
50
100
AcDbEntity
8
0
6
CONTINUOUS
62
7
370
0
100
AcDbTrace
10
120.29930697
20
44.9767679212
30
0
11
122.80550032
21
44.5995573601
31
0
12
122.548039548
22
43.807796275
32
0
13
122.548039548
23
43.807796275
33
0
0
ENDBLK
5
4D
330
4B
100
AcDbEntity
8
0
100
AcDbBlockEnd
0
ENDSEC
0
SECTION
2
ENTITIES
0
LWPOLYLINE
5
51
100
AcDbEntity
8
Scratch plate small
6
ByLayer
62
256
370
-1
100
AcDbPolyline
90
9
70
0
43
0
10
-47.1352870683
20
-42.6712435835
10
-43.6509943084
20
-45.2896551418
10
-39.9115436075
20
-47.6698271282
10
-36.1471325713
20
-49.7457514417
10
-32.1275640788
20
-51.5834353087
10
-28.083035251
20
-53.1168715027
10
-23.8984477698
20
-54.3790631997
10
-19.5738006656
20
-55.3700121489
10
-15.2982451377
20
-56.0977599265
0
LWPOLYLINE
5
52
100
AcDbEntity
8
Scratch plate small
6
ByLayer
62
256
370
-1
100
AcDbPolyline
90
11
70
0
43
0
10
-46.9730621261
20
-27.7703122345
10
-48.2488486277
20
-28.9615117476
10
-49.2533910221
20
-30.2927712736
10
-50.060740831
20
-31.8051359544
10
-50.4817490892
20
-33.4905643089
10
-50.6725602265
20
-35.24199989
10
-50.5261191553
20
-36.9032978782
10
-50.0754299263
20
-38.5895570764
10
-49.3285372244
20
-40.111626865
10
-48.3594911169
20
-41.5105550101
10
-47.1352870683
20
-42.6712435835
0
LWPOLYLINE
5
53
100
AcDbEntity
8
Scratch plate small
6
ByLayer
62
256
370
-1
100
AcDbPolyline
90
9
70
0
43
0
10
-15.0450892477
20
-14.8157431641
10
-19.3794409748
20
-15.3790376003
10
-23.6236551091
20
-16.2795842451
10
-27.8517822026
20
-17.5584299896
10
-31.9567681373
20
-19.0594282651
10
-35.9386119437
20
-20.7825808208
10
-39.830318642
20
-22.8429847104
10
-43.4837848939
20
-25.1585460563
10
-46.9730621261
20
-27.7703122345
0
LWPOLYLINE
5
54
100
AcDbEntity
8
Scratch plate small
6
ByLayer
62
256
370
-1
100
AcDbPolyline
90
5
70
0
43
0
10
32.6214114068
20
-11.9171369927
10
20.6559036399
20
-12.1606637218
10
8.70648155428
20
-12.782489161
10
-3.19384895509
20
-13.6675157717
10
-15.0450892477
20
-14.8157431641
0
LWPOLYLINE
5
55
100
AcDbEntity
8
Scratch plate small
6
ByLayer
62
256
370
-1
100
AcDbPolyline
90
5
70
0
43
0
10
-15.2982451377
20
-56.0977599265
10
-3.38348849523
20
-57.3344246713
10
8.4821770558
20
-58.307889119
10
20.4138503183
20
-59.0511573205
10
32.2964328791
20
-59.5312238657
0
ARC
5
56
100
AcDbEntity
8
Scratch plate small
6
ByLayer
62
256
370
-1
100
AcDbCircle
10
86.2952398184
20
-36.0115836528
40
13.2039528801
100
AcDbArc
50
331.104895816
51
27.371749926
0
LINE
5
57
100
AcDbEntity
8
Scratch plate small
6
ByLayer
62
256
370
-1
100
AcDbLine
10
73.3040822191
20
-33.6561610641
11
74.8498262206
21
-33.6777346868
0
LINE
5
58
100
AcDbEntity
8
Scratch plate small
6
ByLayer
62
256
370
-1
100
AcDbLine
10
73.2622159299
20
-36.6558689189
11
74.8079599314
21
-36.6774425416
0
LINE
5
59
100
AcDbEntity
8
Scratch plate small
6
ByLayer
62
256
370
-1
100
AcDbLine
10
73.3040822191
20
-33.6561610641
11
73.2622159299
21
-36.6558689189
0
LINE
5
5A
100
AcDbEntity
8
Scratch plate small
6
ByLayer
62
256
370
-1
100
AcDbLine
10
74.8079599314
20
-36.6774425416
11
74.8498262206
21
-33.6777346868
0
LINE
5
5B
100
AcDbEntity
8
Scratch plate small
6
ByLayer
62
256
370
-1
100
AcDbLine
10
39.303263067
20
-33.6537086219
11
40.8490070685
21
-33.6752822445
0
LINE
5
5C
100
AcDbEntity
8
Scratch plate small
6
ByLayer
62
256
370
-1
100
AcDbLine
10
39.2613967778
20
-36.6534164766
11
40.8071407793
21
-36.6749900993
0
LINE
5
5D
100
AcDbEntity
8
Scratch plate small
6
ByLayer
62
256
370
-1
100
AcDbLine
10
39.303263067
20
-33.6537086219
11
39.2613967778
21
-36.6534164766
0
LINE
5
5E
100
AcDbEntity
8
Scratch plate small
6
ByLayer
62
256
370
-1
100
AcDbLine
10
40.8071407793
20
-36.6749900993
11
40.8490070685
21
-33.6752822445
0
LINE
5
5F
100
AcDbEntity
8
Scratch plate small
6
ByLayer
62
256
370
-1
100
AcDbLine
10
5.30244391482
20
-33.6512561796
11
6.84818791636
21
-33.6728298022
0
LINE
5
60
100
AcDbEntity
8
Scratch plate small
6
ByLayer
62
256
370
-1
100
AcDbLine
10
5.26057762562
20
-36.6509640343
11
6.80632162716
21
-36.672537657
0
LINE
5
61
100
AcDbEntity
8
Scratch plate small
6
ByLayer
62
256
370
-1
100
AcDbLine
10
5.30244391482
20
-33.6512561796
11
5.26057762562
21
-36.6509640343
0
LINE
5
62
100
AcDbEntity
8
Scratch plate small
6
ByLayer
62
256
370
-1
100
AcDbLine
10
6.80632162716
20
-36.672537657
11
6.84818791636
21
-33.6728298022
0
CIRCLE
5
63
100
AcDbEntity
8
Scratch plate small
6
ByLayer
62
256
370
-1
100
AcDbCircle
10
-23.8826252395
20
-35.243932219
40
5
0
CIRCLE
5
64
100
AcDbEntity
8
Scratch plate small
6
ByLayer
62
256
370
-1
100
AcDbCircle
10
80.1198804024
20
-35.2514338072
40
3.75
0
CIRCLE
5
65
100
AcDbEntity
8
Scratch plate small
6
ByLayer
62
256
370
-1
100
AcDbCircle
10
46.1190612502
20
-35.2489813649
40
3.75
0
CIRCLE
5
66
100
AcDbEntity
8
Scratch plate small
6
ByLayer
62
256
370
-1
100
AcDbCircle
10
12.1182420981
20
-35.2465289227
40
3.75
0
LWPOLYLINE
5
67
100
AcDbEntity
8
Scratch plate big
6
ByLayer
62
256
370
-1
100
AcDbPolyline
90
8
70
0
43
0
10
166.717900452
20
50.5703039005
10
167.391579224
20
51.3721323802
10
167.760867013
20
52.3224222628
10
167.788646449
20
53.3450762293
10
167.4378042
20
54.3639961065
10
166.823420187
20
55.2288529972
10
165.984476137
20
55.8264335746
10
164.997070685
20
56.1196231675
0
LWPOLYLINE
5
68
100
AcDbEntity
8
Scratch plate big
6
ByLayer
62
256
370
-1
100
AcDbPolyline
90
8
70
0
43
0
10
79.7357874325
20
35.6263337874
10
86.9426835633
20
34.372102825
10
94.1458447059
20
33.4964939869
10
101.421369933
20
32.9623935007
10
108.69316107
20
32.8069147005
10
116.000200283
20
32.9168451578
10
123.266390275
20
33.3293000044
10
130.565961747
20
34.1964747323
0
LWPOLYLINE
5
69
100
AcDbEntity
8
Scratch plate big
6
ByLayer
62
256
370
-1
100
AcDbPolyline
90
8
70
0
43
0
10
16.1167558814
20
55.2571723441
10
24.975626832
20
51.5958147379
10
33.9068600911
20
48.2759641244
10
42.8733423247
20
45.2215223301
10
51.9511712681
20
42.3953751224
10
61.1774616142
20
39.8736188992
10
70.4390009348
20
37.6172714953
10
79.7357874325
20
35.6263337874
0
ARC
5
6A
100
AcDbEntity
8
Scratch plate big
6
ByLayer
62
256
370
-1
100
AcDbCircle
10
103.53459792
20
189.04304897
40
9.38444923418
100
AcDbArc
50
88.127721907
51
159.614197567
0
ARC
5
6B
100
AcDbEntity
8
Scratch plate big
6
ByLayer
62
256
370
-1
100
AcDbCircle
10
-10.2740598074
20
205.568298529
40
42.3093472102
100
AcDbArc
50
71.8893021809
51
181.664230296
0
ARC
5
6C
100
AcDbEntity
8
Scratch plate big
6
ByLayer
62
256
370
-1
100
AcDbCircle
10
-115.328052608
20
-163.515795317
40
426.024617227
100
AcDbArc
50
65.0174132424
51
73.8911602057
0
ARC
5
6D
100
AcDbEntity
8
Scratch plate big
6
ByLayer
62
256
370
-1
100
AcDbCircle
10
100.198550145
20
313.329212935
40
97.417923121
100
AcDbArc
50
248.566746831
51
289.745060723
0
ARC
5
6E
100
AcDbEntity
8
Scratch plate big
6
ByLayer
62
256
370
-1
100
AcDbCircle
10
161.125093695
20
126.630860556
40
99.0524945372
100
AcDbArc
50
93.3720449387
51
106.429353197
0
ARC
5
6F
100
AcDbEntity
8
Scratch plate big
6
ByLayer
62
256
370
-1
100
AcDbCircle
10
154.437715271
20
217.512272423
40
8.0458082677
100
AcDbArc
50
329.400690437
51
83.8556099599
0
ARC
5
70
100
AcDbEntity
8
Scratch plate big
6
ByLayer
62
256
370
-1
100
AcDbCircle
10
103.970584527
20
144.575812293
40
9.72339535217
100
AcDbArc
50
201.781076701
51
260.610389041
0
ARC
5
71
100
AcDbEntity
8
Scratch plate big
6
ByLayer
62
256
370
-1
100
AcDbCircle
10
179.803891543
20
183.318713651
40
128.057996876
100
AcDbArc
50
247.312815211
51
263.360272819
0
ARC
5
72
100
AcDbEntity
8
Scratch plate big
6
ByLayer
62
256
370
-1
100
AcDbCircle
10
120.9838065
20
103.342396735
40
69.8319492185
100
AcDbArc
50
274.873269432
51
310.913316872
0
ARC
5
73
100
AcDbEntity
8
Scratch plate big
6
ByLayer
62
256
370
-1
100
AcDbCircle
10
-50.0000000023
20
89.9999999988
40
13.3039528827
100
AcDbArc
50
7.68775574569
51
62.3717499175
0
LINE
5
74
100
AcDbEntity
8
Scratch plate big
6
ByLayer
62
256
370
-1
100
AcDbLine
10
103.84120291
20
198.422488229
11
151.339499736
21
198.422488229
0
ARC
5
75
100
AcDbEntity
8
Scratch plate big
6
ByLayer
62
256
370
-1
100
AcDbCircle
10
151.339499736
20
199.422488229
40
1
100
AcDbArc
50
270
51
327.717508137
0
LINE
5
76
100
AcDbEntity
8
Scratch plate big
6
ByLayer
62
256
370
-1
100
AcDbLine
10
102.384241052
20
134.982693324
11
109.706341528
21
134.982693324
0
ARC
5
77
100
AcDbEntity
8
Scratch plate big
6
ByLayer
62
256
370
-1
100
AcDbCircle
10
147.500639047
20
107.166833001
40
45.3411187806
100
AcDbArc
50
144.643486202
51
247.858739355
0
ARC
5
78
100
AcDbEntity
8
Scratch plate big
6
ByLayer
62
256
370
-1
100
AcDbCircle
10
109.706341528
20
133.982693324
40
1
100
AcDbArc
50
324.643486202
51
90
0
LINE
5
79
100
AcDbEntity
8
Scratch plate big
6
ByLayer
62
256
370
-1
100
AcDbLine
10
-36.8156255722
20
91.7797284027
11
-33.0468596485
21
60.6263802751
0
ARC
5
7A
100
AcDbEntity
8
Scratch plate big
6
ByLayer
62
256
370
-1
100
AcDbCircle
10
-16.7112787739
20
-21.7580752883
40
83.7199392451
100
AcDbArc
50
66.9136930988
51
101.045304117
0
ARC
5
7B
100
AcDbEntity
8
Scratch plate big
6
ByLayer
62
256
370
-1
100
AcDbCircle
10
-32.7986691697
20
60.6564050357
40
0.25
100
AcDbArc
50
186.897818627
51
281.045304117
0
LINE
5
7C
100
AcDbEntity
8
Scratch plate big
6
ByLayer
62
256
370
-1
100
AcDbLine
10
-71.1485297195
20
116.913222663
11
-43.8305189831
21
101.786970189
0
ARC
5
7D
100
AcDbEntity
8
Scratch plate big
6
ByLayer
62
256
370
-1
100
AcDbCircle
10
-411.047425859
20
235.704178095
40
359.851342001
100
AcDbArc
50
340.775244107
51
354.99975615
0
ARC
5
7E
100
AcDbEntity
8
Scratch plate big
6
ByLayer
62
256
370
-1
100
AcDbCircle
10
-71.0274275712
20
117.131933133
40
0.25
100
AcDbArc
50
160.775244107
51
241.026267689
0
ARC
5
7F
100
AcDbEntity
8
Scratch plate small
6
ByLayer
62
256
370
-1
100
AcDbCircle
10
30.6993744503
20
125.297963143
40
137.228560917
100
AcDbArc
50
270.802516661
51
292.743903249
0
LINE
5
80
100
AcDbEntity
8
Scratch plate small
6
ByLayer
62
256
370
-1
100
AcDbLine
10
84.0749981306
20
-1.38085995584
11
98.0203680588
21
-29.9398673043
0
ARC
5
81
100
AcDbEntity
8
Scratch plate small
6
ByLayer
62
256
370
-1
100
AcDbCircle
10
83.8503498863
20
-1.49055574577
40
0.25
100
AcDbArc
50
26.0262676883
51
112.743903249
0
ARC
5
82
100
AcDbEntity
8
Scratch plate small
6
ByLayer
62
256
370
-1
100
AcDbCircle
10
28.8796943329
20
-196.769829514
40
137.281131196
100
AcDbArc
50
66.9556827923
51
88.573839586
0
LINE
5
83
100
AcDbEntity
8
Scratch plate small
6
ByLayer
62
256
370
-1
100
AcDbLine
10
97.855377404
20
-42.3918337004
11
82.9358208047
21
-70.3311200751
0
ARC
5
84
100
AcDbEntity
8
Scratch plate small
6
ByLayer
62
256
370
-1
100
AcDbCircle
10
82.7152935715
20
-70.2133587088
40
0.25
100
AcDbArc
50
246.955682792
51
331.897818626
0
LINE
5
85
100
AcDbEntity
8
Scratch plate big
6
ByLayer
62
256
370
-1
100
AcDbLine
10
152.184924814
20
198.888394195
11
161.363129942
21
213.416706246
0
ARC
5
86
100
AcDbEntity
8
Scratch plate pickup only
6
ByLayer
62
256
370
-1
100
AcDbCircle
10
151.26819204
20
9.31141719487
40
5
100
AcDbArc
50
90.1921988878
51
180.133723468
0
LINE
5
87
100
AcDbEntity
8
Scratch plate pickup only
6
ByLayer
62
256
370
-1
100
AcDbLine
10
151.251419555
20
14.3113890632
11
186.084412031
21
14.4282368935
0
ARC
5
88
100
AcDbEntity
8
Scratch plate pickup only
6
ByLayer
62
256
370
-1
100
AcDbCircle
10
186.101184516
20
9.42826502524
40
5
100
AcDbArc
50
0.157344078971
51
90.1921988878
0
LINE
5
89
100
AcDbEntity
8
Scratch plate pickup only
6
ByLayer
62
256
370
-1
100
AcDbLine
10
191.101165663
20
9.44199586916
11
191.397467378
21
-98.4539933072
0
LINE
5
8A
100
AcDbEntity
8
Scratch plate pickup only
6
ByLayer
62
256
370
-1
100
AcDbLine
10
146.519852997
20
-98.5220465408
11
146.268205658
21
9.29974763145
0
ARC
5
8B
100
AcDbEntity
8
Scratch plate pickup only
6
ByLayer
62
256
370
-1
100
AcDbCircle
10
151.519839379
20
-98.5103769774
40
5
100
AcDbArc
50
180.133723468
51
270.070068538
0
ARC
5
8C
100
AcDbEntity
8
Scratch plate pickup only
6
ByLayer
62
256
370
-1
100
AcDbCircle
10
186.397486231
20
-98.4677241511
40
5
100
AcDbArc
50
270.070092247
51
0.157344078971
0
LINE
5
8D
100
AcDbEntity
8
Scratch plate pickup only
6
ByLayer
62
256
370
-1
100
AcDbLine
10
186.403598794
20
-103.467720415
11
151.525954011
21
-103.510373239
0
ARC
5
8E
100
AcDbEntity
8
Scratch plate big
6
ByLayer
62
256
370
-1
100
AcDbCircle
10
65.2140137261
20
167.629054912
40
3
100
AcDbArc
50
90
51
180.226325912
0
LINE
5
8F
100
AcDbEntity
8
Scratch plate big
6
ByLayer
62
256
370
-1
100
AcDbLine
10
62.2219374372
20
165.617204546
11
62.2140371314
21
167.617204546
0
ARC
5
90
100
AcDbEntity
8
Scratch plate big
6
ByLayer
62
256
370
-1
100
AcDbCircle
10
65.2219140319
20
165.629054912
40
3
100
AcDbArc
50
180.226325912
51
270
0
LINE
5
91
100
AcDbEntity
8
Scratch plate big
6
ByLayer
62
256
370
-1
100
AcDbLine
10
65.2140137261
20
170.629054912
11
91.1770383898
21
170.629054912
0
ARC
5
92
100
AcDbEntity
8
Scratch plate big
6
ByLayer
62
256
370
-1
100
AcDbCircle
10
213.510412078
20
167.110150877
40
121.416807717
100
AcDbArc
50
168.02030914
51
177.884498284
0
ARC
5
93
100
AcDbEntity
8
Scratch plate big
6
ByLayer
62
256
370
-1
100
AcDbCircle
10
91.1770383898
20
171.629054912
40
1
100
AcDbArc
50
270
51
357.884498284
0
LINE
5
94
100
AcDbEntity
8
Scratch plate big
6
ByLayer
62
256
370
-1
100
AcDbLine
10
65.2219140319
20
162.629054912
11
91.2163713457
21
162.629054912
0
ARC
5
95
100
AcDbEntity
8
Scratch plate big
6
ByLayer
62
256
370
-1
100
AcDbCircle
10
213.510412078
20
167.110150877
40
121.416807717
100
AcDbArc
50
182.566221866
51
192.433743985
0
ARC
5
96
100
AcDbEntity
8
Scratch plate big
6
ByLayer
62
256
370
-1
100
AcDbCircle
10
91.2163713457
20
161.629054912
40
1
100
AcDbArc
50
2.56622186574
51
90
0
MTEXT
5
97
100
AcDbEntity
8
Scratch plate big
6
CONTINUOUS
62
4
370
13
100
AcDbMText
10
73.9452594074
20
48.5858274952
30
0
40
4
41
1.33333333333
71
7
72
1
1
J
7
iso
210
0
220
0
230
1
50
0
73
2
44
1
0
MTEXT
5
98
100
AcDbEntity
8
Scratch plate big
6
CONTINUOUS
62
4
370
13
100
AcDbMText
10
76.6119260741
20
48.5858274952
30
0
40
4
41
1.77777777778
71
7
72
1
1
a
7
iso
210
0
220
0
230
1
50
0
73
2
44
1
0
MTEXT
5
99
100
AcDbEntity
8
Scratch plate big
6
CONTINUOUS
62
4
370
13
100
AcDbMText
10
79.7230371852
20
48.5858274952
30
0
40
4
41
1.77777777778
71
7
72
1
1
z
7
iso
210
0
220
0
230
1
50
0
73
2
44
1
0
MTEXT
5
9A
100
AcDbEntity
8
Scratch plate big
6
CONTINUOUS
62
4
370
13
100
AcDbMText
10
82.8341482963
20
48.5858274952
30
0
40
4
41
1.77777777778
71
7
72
1
1
z
7
iso
210
0
220
0
230
1
50
0
73
2
44
1
0
MTEXT
5
9B
100
AcDbEntity
8
Scratch plate big
6
CONTINUOUS
62
4
370
13
100
AcDbMText
10
85.9452594074
20
48.5858274952
30
0
40
4
41
2.22222222222
71
7
72
1
1
B
7
iso
210
0
220
0
230
1
50
0
73
2
44
1
0
MTEXT
5
9C
100
AcDbEntity
8
Scratch plate big
6
CONTINUOUS
62
4
370
13
100
AcDbMText
10
89.5008149634
20
48.5858274952
30
0
40
4
41
1.77777777778
71
7
72
1
1
a
7
iso
210
0
220
0
230
1
50
0
73
2
44
1
0
MTEXT
5
9D
100
AcDbEntity
8
Scratch plate big
6
CONTINUOUS
62
4
370
13
100
AcDbMText
10
92.6119260744
20
48.5858274952
30
0
40
4
41
1.77930166588
71
7
72
1
1
s
7
iso
210
0
220
0
230
1
50
0
73
2
44
1
0
MTEXT
5
9E
100
AcDbEntity
8
Scratch plate big
6
CONTINUOUS
62
4
370
13
100
AcDbMText
10
95.7230392424
20
48.5858274952
30
0
40
4
41
1.77930166588
71
7
72
1
1
s
7
iso
210
0
220
0
230
1
50
0
73
2
44
1
0
MTEXT
5
9F
100
AcDbEntity
8
Scratch plate big
6
CONTINUOUS
62
4
370
13
100
AcDbMText
10
104.945263521
20
48.5858274952
30
0
40
4
41
1.77777777778
71
7
72
1
1
p
7
iso
210
0
220
0
230
1
50
0
73
2
44
1
0
MTEXT
5
A0
100
AcDbEntity
8
Scratch plate big
6
CONTINUOUS
62
4
370
13
100
AcDbMText
10
108.056374632
20
48.5858274952
30
0
40
4
41
1.33333333333
71
7
72
1
1
r
7
iso
210
0
220
0
230
1
50
0
73
2
44
1
0
MTEXT
5
A1
100
AcDbEntity
8
Scratch plate big
6
CONTINUOUS
62
4
370
13
100
AcDbMText
10
110.723041299
20
48.5858274952
30
0
40
4
41
1.77777777778
71
7
72
1
1
o
7
iso
210
0
220
0
230
1
50
0
73
2
44
1
0
MTEXT
5
A2
100
AcDbEntity
8
Scratch plate big
6
CONTINUOUS
62
4
370
13
100
AcDbMText
10
116.056374632
20
48.5858274952
30
0
40
4
41
1.77777777778
71
7
72
1
1
e
7
iso
210
0
220
0
230
1
50
0
73
2
44
1
0
MTEXT
5
A3
100
AcDbEntity
8
Scratch plate big
6
CONTINUOUS
62
4
370
13
100
AcDbMText
10
119.167485744
20
48.5858274952
30
0
40
4
41
1.33333333333
71
7
72
1
1
c
7
iso
210
0
220
0
230
1
50
0
73
2
44
1
0
MTEXT
5
A4
100
AcDbEntity
8
Scratch plate big
6
CONTINUOUS
62
4
370
13
100
AcDbMText
10
121.83415241
20
48.5858274952
30
0
40
4
41
1.33333333333
71
7
72
1
1
t
7
iso
210
0
220
0
230
1
50
0
73
2
44
1
0
MTEXT
5
A5
100
AcDbEntity
8
Scratch plate big
6
CONTINUOUS
62
4
370
13
100
AcDbMText
10
127.500819077
20
48.5858274952
30
0
40
4
41
1.77777777778
71
7
72
1
1
2
7
iso
210
0
220
0
230
1
50
0
73
2
44
1
0
MTEXT
5
A6
100
AcDbEntity
8
Scratch plate big
6
CONTINUOUS
62
4
370
13
100
AcDbMText
10
130.611930188
20
48.5858274952
30
0
40
4
41
1.77777777778
71
7
72
1
1
0
7
iso
210
0
220
0
230
1
50
0
73
2
44
1
0
MTEXT
5
A7
100
AcDbEntity
8
Scratch plate big
6
CONTINUOUS
62
4
370
13
100
AcDbMText
10
133.723041299
20
48.5858274952
30
0
40
4
41
0.888888888889
71
7
72
1
1
1
7
iso
210
0
220
0
230
1
50
0
73
2
44
1
0
MTEXT
5
A8
100
AcDbEntity
8
Scratch plate big
6
CONTINUOUS
62
4
370
13
100
AcDbMText
10
135.945263521
20
48.5858274952
30
0
40
4
41
1.77777777778
71
7
72
1
1
8
7
iso
210
0
220
0
230
1
50
0
73
2
44
1
0
MTEXT
5
A9
100
AcDbEntity
8
Scratch plate big
6
CONTINUOUS
62
4
370
13
100
AcDbMText
10
101.608410145
20
49.8794922852
30
0
40
4
41
1.77777777778
71
7
72
1
1
-
7
iso
210
0
220
0
230
1
50
0
73
2
44
1
0
MTEXT
5
AA
100
AcDbEntity
8
Scratch plate big
6
CONTINUOUS
62
4
370
13
100
AcDbMText
10
113.689452205
20
45.9338469457
30
0
40
4
41
0.888888888889
71
7
72
1
1
j
7
iso
210
0
220
0
230
1
50
0
73
2
44
1
0
ARC
5
AB
100
AcDbEntity
8
Scratch plate big
6
ByLayer
62
256
370
-1
100
AcDbCircle
10
-3.18337036166
20
211.71866326
40
2.5
100
AcDbArc
50
0.0413513490265
51
89.9094169864
0
LINE
5
AC
100
AcDbEntity
8
Scratch plate big
6
ByLayer
62
256
370
-1
100
AcDbLine
10
-20.7794425993
20
214.246485302
11
-3.17941793372
21
214.218660135
0
ARC
5
AD
100
AcDbEntity
8
Scratch plate big
6
ByLayer
62
256
370
-1
100
AcDbCircle
10
-20.7833950273
20
211.746488426
40
2.5
100
AcDbArc
50
89.9094169864
51
180.041351349
0
ARC
5
AE
100
AcDbEntity
8
Scratch plate big
6
ByLayer
62
256
370
-1
100
AcDbCircle
10
-20.7179351102
20
121.046271585
40
2.5
100
AcDbArc
50
180.041351349
51
269.909416986
0
LINE
5
AF
100
AcDbEntity
8
Scratch plate big
6
ByLayer
62
256
370
-1
100
AcDbLine
10
-20.7218875382
20
118.546274709
11
-3.12186287255
21
118.518449543
0
ARC
5
B0
100
AcDbEntity
8
Scratch plate big
6
ByLayer
62
256
370
-1
100
AcDbCircle
10
-3.11791044461
20
121.018446418
40
2.5
100
AcDbArc
50
269.909416986
51
0.0413513490261
0
LINE
5
B1
100
AcDbEntity
8
Scratch plate big
6
ByLayer
62
256
370
-1
100
AcDbLine
10
-23.2702865296
20
193.582661068
11
-23.2833943762
21
211.744684133
0
ARC
5
B2
100
AcDbEntity
8
Scratch plate big
6
ByLayer
62
256
370
-1
100
AcDbCircle
10
-23.7702863994
20
193.582300209
40
0.5
100
AcDbArc
50
294.376162981
51
0.0413513490258
0
ARC
5
B3
100
AcDbEntity
8
Scratch plate big
6
ByLayer
62
256
370
-1
100
AcDbCircle
10
-20.4321663065
20
186.215309953
40
7.58799055287
100
AcDbArc
50
114.376162981
51
245.706539717
0
ARC
5
B4
100
AcDbEntity
8
Scratch plate big
6
ByLayer
62
256
370
-1
100
AcDbCircle
10
-23.7596491586
20
178.843509016
40
0.5
100
AcDbArc
50
0.0413513490258
51
65.7065397167
0
LINE
5
B5
100
AcDbEntity
8
Scratch plate big
6
ByLayer
62
256
370
-1
100
AcDbLine
10
-23.2416178277
20
153.859765013
11
-23.2596492888
21
178.843869875
0
ARC
5
B6
100
AcDbEntity
8
Scratch plate big
6
ByLayer
62
256
370
-1
100
AcDbCircle
10
-23.7416176975
20
153.859404154
40
0.5
100
AcDbArc
50
294.259652914
51
0.0413513490258
0
ARC
5
B7
100
AcDbEntity
8
Scratch plate big
6
ByLayer
62
256
370
-1
100
AcDbCircle
10
-20.4344027566
20
146.520960994
40
7.54924957244
100
AcDbArc
50
114.259652914
51
245.823049784
0
LINE
5
B8
100
AcDbEntity
8
Scratch plate big
6
ByLayer
62
256
370
-1
100
AcDbLine
10
-23.2179344591
20
121.044467292
11
-23.2310218249
21
139.178112591
0
ARC
5
B9
100
AcDbEntity
8
Scratch plate big
6
ByLayer
62
256
370
-1
100
AcDbCircle
10
-23.7310216947
20
139.177751733
40
0.5
100
AcDbArc
50
0.0413513490258
51
65.823049784
0
LINE
5
BA
100
AcDbEntity
8
Scratch plate big
6
ByLayer
62
256
370
-1
100
AcDbLine
10
-0.617911095702
20
121.020250711
11
-0.631018942408
21
139.182274007
0
ARC
5
BB
100
AcDbEntity
8
Scratch plate big
6
ByLayer
62
256
370
-1
100
AcDbCircle
10
-0.131019072626
20
139.182634865
40
0.5
100
AcDbArc
50
114.376164086
51
180.041351349
0
ARC
5
BC
100
AcDbEntity
8
Scratch plate big
6
ByLayer
62
256
370
-1
100
AcDbCircle
10
-3.46913909561
20
146.549624589
40
7.58799003932
100
AcDbArc
50
294.376164086
51
65.7065386123
0
ARC
5
BD
100
AcDbEntity
8
Scratch plate big
6
ByLayer
62
256
370
-1
100
AcDbCircle
10
-0.141656312678
20
153.921424994
40
0.5
100
AcDbArc
50
180.041351349
51
245.706538612
0
LINE
5
BE
100
AcDbEntity
8
Scratch plate big
6
ByLayer
62
256
370
-1
100
AcDbLine
10
-0.641656182459
20
153.921064135
11
-0.659689524443
21
178.907775117
0
ARC
5
BF
100
AcDbEntity
8
Scratch plate big
6
ByLayer
62
256
370
-1
100
AcDbCircle
10
-0.159689654662
20
178.908135975
40
0.5
100
AcDbArc
50
114.308939724
51
180.041351349
0
ARC
5
C0
100
AcDbEntity
8
Scratch plate big
6
ByLayer
62
256
370
-1
100
AcDbCircle
10
-3.46449794255
20
186.224431114
40
7.52807152276
100
AcDbArc
50
294.308939724
51
65.7737629737
0
LINE
5
C1
100
AcDbEntity
8
Scratch plate big
6
ByLayer
62
256
370
-1
100
AcDbLine
10
-0.670253555511
20
193.545128044
11
-0.683371012758
21
211.720467553
0
ARC
5
C2
100
AcDbEntity
8
Scratch plate big
6
ByLayer
62
256
370
-1
100
AcDbCircle
10
-0.17025368573
20
193.545488903
40
0.5
100
AcDbArc
50
180.041351349
51
245.773762974
0
ARC
5
C3
100
AcDbEntity
8
Scratch plate pickup only
6
ByLayer
62
256
370
-1
100
AcDbCircle
10
159.97580167
20
1.55518277191
40
2.5
100
AcDbArc
50
90.0149254983
51
180.018109262
0
LINE
5
C4
100
AcDbEntity
8
Scratch plate pickup only
6
ByLayer
62
256
370
-1
100
AcDbLine
10
159.975150422
20
4.05518268708
11
177.575149852
21
4.05976747098
0
ARC
5
C5
100
AcDbEntity
8
Scratch plate pickup only
6
ByLayer
62
256
370
-1
100
AcDbCircle
10
177.5758011
20
1.55976755581
40
2.5
100
AcDbArc
50
0.0181092621274
51
90.0149254983
0
ARC
5
C6
100
AcDbEntity
8
Scratch plate pickup only
6
ByLayer
62
256
370
-1
100
AcDbCircle
10
177.604879195
20
-90.4402279909
40
2.5
100
AcDbArc
50
270.014925498
51
0.0181092621273
0
LINE
5
C7
100
AcDbEntity
8
Scratch plate pickup only
6
ByLayer
62
256
370
-1
100
AcDbLine
10
160.005531012
20
-92.94481269
11
177.605530442
21
-92.9402279061
0
ARC
5
C8
100
AcDbEntity
8
Scratch plate pickup only
6
ByLayer
62
256
370
-1
100
AcDbCircle
10
160.004879765
20
-90.4448127748
40
2.5
100
AcDbArc
50
180.018109262
51
270.014925498
0
LINE
5
C9
100
AcDbEntity
8
Scratch plate pickup only
6
ByLayer
62
256
370
-1
100
AcDbLine
10
157.475801795
20
1.5543926063
11
157.481749422
21
-17.2632665944
0
ARC
5
CA
100
AcDbEntity
8
Scratch plate pickup only
6
ByLayer
62
256
370
-1
100
AcDbCircle
10
156.981749447
20
-17.2634246275
40
0.5
100
AcDbArc
50
294.123209645
51
0.0181092621274
0
LINE
5
CB
100
AcDbEntity
8
Scratch plate pickup only
6
ByLayer
62
256
370
-1
100
AcDbLine
10
180.075800975
20
1.56055772142
11
180.081731312
21
-17.2023972209
0
ARC
5
CC
100
AcDbEntity
8
Scratch plate pickup only
6
ByLayer
62
256
370
-1
100
AcDbCircle
10
180.581731287
20
-17.2022391878
40
0.5
100
AcDbArc
50
180.018109262
51
245.706471975
0
ARC
5
CD
100
AcDbEntity
8
Scratch plate pickup only
6
ByLayer
62
256
370
-1
100
AcDbCircle
10
177.254189413
20
-24.5741476399
40
7.58811282988
100
AcDbArc
50
294.329746549
51
65.7064719752
0
ARC
5
CE
100
AcDbEntity
8
Scratch plate pickup only
6
ByLayer
62
256
370
-1
100
AcDbCircle
10
180.586390645
20
-31.9439511718
40
0.5
100
AcDbArc
50
114.329746549
51
180.018109262
0
ARC
5
CF
100
AcDbEntity
8
Scratch plate pickup only
6
ByLayer
62
256
370
-1
100
AcDbCircle
10
160.259401857
20
-24.5827524111
40
7.51969853078
100
AcDbArc
50
114.123209645
51
245.913008879
0
ARC
5
D0
100
AcDbEntity
8
Scratch plate pickup only
6
ByLayer
62
256
370
-1
100
AcDbCircle
10
156.986376887
20
-31.9041506428
40
0.5
100
AcDbArc
50
0.018109262127
51
65.9130088791
0
LINE
5
D1
100
AcDbEntity
8
Scratch plate pickup only
6
ByLayer
62
256
370
-1
100
AcDbLine
10
157.486376862
20
-31.9039926097
11
157.494289174
21
-56.9377056365
0
ARC
5
D2
100
AcDbEntity
8
Scratch plate pickup only
6
ByLayer
62
256
370
-1
100
AcDbCircle
10
156.994289199
20
-56.9378636696
40
0.5
100
AcDbArc
50
294.7084308
51
0.0181092621274
0
ARC
5
D3
100
AcDbEntity
8
Scratch plate pickup only
6
ByLayer
62
256
370
-1
100
AcDbCircle
10
160.369300651
20
-64.2728216494
40
7.57417555358
100
AcDbArc
50
114.7084308
51
245.327787724
0
LINE
5
D4
100
AcDbEntity
8
Scratch plate pickup only
6
ByLayer
62
256
370
-1
100
AcDbLine
10
157.498926513
20
-71.6097535849
11
157.50487989
21
-90.4456029404
0
ARC
5
D5
100
AcDbEntity
8
Scratch plate pickup only
6
ByLayer
62
256
370
-1
100
AcDbCircle
10
156.998926538
20
-71.609911618
40
0.5
100
AcDbArc
50
0.0181092621266
51
65.3277877241
0
LINE
5
D6
100
AcDbEntity
8
Scratch plate pickup only
6
ByLayer
62
256
370
-1
100
AcDbLine
10
180.098948544
20
-71.6758852497
11
180.10487907
21
-90.4394378253
0
ARC
5
D7
100
AcDbEntity
8
Scratch plate pickup only
6
ByLayer
62
256
370
-1
100
AcDbCircle
10
180.598948519
20
-71.6757272166
40
0.5
100
AcDbArc
50
114.147714742
51
180.018109262
0
ARC
5
D8
100
AcDbEntity
8
Scratch plate pickup only
6
ByLayer
62
256
370
-1
100
AcDbCircle
10
177.289790865
20
-64.2945100517
40
7.58905997103
100
AcDbArc
50
294.147714742
51
65.8885037823
0
LINE
5
D9
100
AcDbEntity
8
Scratch plate pickup only
6
ByLayer
62
256
370
-1
100
AcDbLine
10
180.08639067
20
-31.9441092049
11
180.094281976
21
-56.9113605686
0
ARC
5
DA
100
AcDbEntity
8
Scratch plate pickup only
6
ByLayer
62
256
370
-1
100
AcDbCircle
10
180.594281951
20
-56.9112025355
40
0.5
100
AcDbArc
50
180.018109262
51
245.888503782
0
CIRCLE
5
DB
100
AcDbEntity
8
Scratch plate big
6
ByLayer
62
256
370
-1
100
AcDbCircle
10
-21.4531339695
20
238.53371911
40
1.75
0
CIRCLE
5
DC
100
AcDbEntity
8
Scratch plate big
6
ByLayer
62
256
370
-1
100
AcDbCircle
10
37.5821272837
20
226.075441893
40
1.75
0
CIRCLE
5
DD
100
AcDbEntity
8
Scratch plate big
6
ByLayer
62
256
370
-1
100
AcDbCircle
10
95.0417545702
20
208.538096654
40
1.75
0
CIRCLE
5
DE
100
AcDbEntity
8
Scratch plate big
6
ByLayer
62
256
370
-1
100
AcDbCircle
10
154.691834744
20
218.024981343
40
1.75
0
CIRCLE
5
DF
100
AcDbEntity
8
Scratch plate big
6
ByLayer
62
256
370
-1
100
AcDbCircle
10
98.9791027369
20
128.091563539
40
1.75
0
CIRCLE
5
E0
100
AcDbEntity
8
Scratch plate big
6
ByLayer
62
256
370
-1
100
AcDbCircle
10
101.04711402
20
81.9824361135
40
1.75
0
CIRCLE
5
E1
100
AcDbEntity
8
Scratch plate big
6
ByLayer
62
256
370
-1
100
AcDbCircle
10
153.713862391
20
50.2951033566
40
1.75
0
CIRCLE
5
E2
100
AcDbEntity
8
Scratch plate big
6
ByLayer
62
256
370
-1
100
AcDbCircle
10
92.3151942515
20
41.2742349512
40
1.75
0
CIRCLE
5
E3
100
AcDbEntity
8
Scratch plate big
6
ByLayer
62
256
370
-1
100
AcDbCircle
10
33.8841049842
20
56.2858017848
40
1.75
0
CIRCLE
5
E4
100
AcDbEntity
8
Scratch plate big
6
ByLayer
62
256
370
-1
100
AcDbCircle
10
-26.4973614151
20
68.935418979
40
1.75
0
CIRCLE
5
E5
100
AcDbEntity
8
Scratch plate big
6
ByLayer
62
256
370
-1
100
AcDbCircle
10
-62.2149140164
20
120.539569158
40
1.75
0
CIRCLE
5
E6
100
AcDbEntity
8
Scratch plate big
6
ByLayer
62
256
370
-1
100
AcDbCircle
10
-47.4415811428
20
183.380205022
40
1.75
0
CIRCLE
5
E7
100
AcDbEntity
8
Scratch plate small
6
ByLayer
62
256
370
-1
100
AcDbCircle
10
80.2041562065
20
-10.6138209031
40
1.75
0
CIRCLE
5
E8
100
AcDbEntity
8
Scratch plate small
6
ByLayer
62
256
370
-1
100
AcDbCircle
10
79.9378412798
20
-61.3899218483
40
1.75
0
CIRCLE
5
E9
100
AcDbEntity
8
Scratch plate small
6
ByLayer
62
256
370
-1
100
AcDbCircle
10
-42.7327182646
20
-35.2454553731
40
1.75
0
CIRCLE
5
EA
100
AcDbEntity
8
Scratch plate pickup only
6
ByLayer
62
256
370
-1
100
AcDbCircle
10
168.681227555
20
9.369829501
40
1.75
0
CIRCLE
5
EB
100
AcDbEntity
8
Scratch plate pickup only
6
ByLayer
62
256
370
-1
100
AcDbCircle
10
168.953063388
20
-98.4890574119
40
1.75
0
ARC
5
EC
100
AcDbEntity
8
Neck plate
6
ByLayer
62
256
370
-1
100
AcDbCircle
10
-158.149061996
20
12.291639822
40
5
100
AcDbArc
50
90
51
180
0
LINE
5
ED
100
AcDbEntity
8
Neck plate
6
ByLayer
62
256
370
-1
100
AcDbLine
10
-103.784448043
20
17.291639822
11
-158.149061996
21
17.291639822
0
ARC
5
EE
100
AcDbEntity
8
Neck plate
6
ByLayer
62
256
370
-1
100
AcDbCircle
10
-103.784448043
20
12.291639822
40
5
100
AcDbArc
50
360
51
90
0
LINE
5
EF
100
AcDbEntity
8
Neck plate
6
ByLayer
62
256
370
-1
100
AcDbLine
10
-98.7844480425
20
-28.7084838835
11
-98.7844480425
21
12.291639822
0
ARC
5
F0
100
AcDbEntity
8
Neck plate
6
ByLayer
62
256
370
-1
100
AcDbCircle
10
-103.784448043
20
-28.7084838835
40
5
100
AcDbArc
50
270
51
0
0
LINE
5
F1
100
AcDbEntity
8
Neck plate
6
ByLayer
62
256
370
-1
100
AcDbLine
10
-158.149061996
20
-33.7084838835
11
-103.784448043
21
-33.7084838835
0
LINE
5
F2
100
AcDbEntity
8
Neck plate
6
ByLayer
62
256
370
-1
100
AcDbLine
10
-163.149061996
20
12.291639822
11
-163.149061996
21
-28.7084838835
0
ARC
5
F3
100
AcDbEntity
8
Neck plate
6
ByLayer
62
256
370
-1
100
AcDbCircle
10
-158.149061996
20
-28.7084838835
40
5
100
AcDbArc
50
180
51
270
0
CIRCLE
5
F4
100
AcDbEntity
8
Neck plate
6
ByLayer
62
256
370
-1
100
AcDbCircle
10
-156.149061996
20
10.291639822
40
2.5
0
CIRCLE
5
F5
100
AcDbEntity
8
Neck plate
6
ByLayer
62
256
370
-1
100
AcDbCircle
10
-105.784448043
20
10.291639822
40
2.5
0
CIRCLE
5
F6
100
AcDbEntity
8
Neck plate
6
ByLayer
62
256
370
-1
100
AcDbCircle
10
-105.784448043
20
-26.7084838835
40
2.5
0
CIRCLE
5
F7
100
AcDbEntity
8
Neck plate
6
ByLayer
62
256
370
-1
100
AcDbCircle
10
-156.149061996
20
-26.7084838835
40
2.5
0
MTEXT
5
F8
100
AcDbEntity
8
0
6
ByLayer
62
256
370
-1
100
AcDbMText
10
140
20
110
30
0
40
10
41
330.833369333
71
7
72
1
1
Material: Acid-resisting steel or stainless steel\PThickness: 2-3mm 
7
iso
210
0
220
0
230
1
50
0
73
2
44
1
0
MTEXT
5
F9
100
AcDbEntity
8
0
6
ByLayer
62
256
370
-1
100
AcDbMText
10
200.361302825
20
29.8160326082
30
0
40
4
41
19.1111111111
71
7
72
1
1
Marking
7
iso
210
0
220
0
230
1
50
0
73
2
44
1
0
LEADER
5
FA
100
AcDbEntity
8
0
6
ByLayer
62
256
370
-1
100
AcDbLeader
3
Standard
71
1
72
0
73
3
74
0
75
0
40
1
41
10
76
3
76
3
10
120.29930697
20
44.9767679212
30
0
10
171.959369723
20
28.178216047
30
0
10
220.909988625
20
28.178216047
30
0
0
ENDSEC
0
SECTION
2
OBJECTS
0
DICTIONARY
5
C
330
0
100
AcDbDictionary
281
1
3
ACAD_GROUP
350
D
0
DICTIONARY
5
D
330
C
100
AcDbDictionary
281
1
0
ENDSEC
0
EOF
