999
dxfrw 0.6.3
  0
SECTION
  2
HEADER
  9
$ACADVER
  1
AC1021
  9
$DWGCODEPAGE
  3
ANSI_1252
  9
$INSBASE
 10
0
 20
0
 30
0
  9
$EXTMIN
 10
-5.845998611129055
 20
-301.6666666666669
 30
0
  9
$EXTMAX
 10
342.9899148802414
 20
-86.875
 30
0
  9
$LIMMIN
 10
0
 20
0
  9
$LIMMAX
 10
420
 20
297
  9
$ORTHOMODE
 70
    0
  9
$REGENMODE
 70
    1
  9
$FILLMODE
 70
    1
  9
$QTEXTMODE
 70
    0
  9
$MIRRTEXT
 70
    0
  9
$LTSCALE
 40
1
  9
$ATTMODE
 70
    0
  9
$TEXTSIZE
 40
2.5
  9
$TRACEWID
 40
15.68
  9
$TEXTSTYLE
  7
STANDARD
  9
$CLAYER
  8
Measurements
  9
$CELTYPE
  6
BYLAYER
  9
$CECOLOR
 62
  256
  9
$CELTSCALE
 40
1
  9
$DISPSILH
 70
    0
  9
$DIMSCALE
 40
1
  9
$DIMASZ
 40
2.5
  9
$DIMEXO
 40
0.625
  9
$DIMDLI
 40
3.75
  9
$DIMRND
 40
0
  9
$DIMDLE
 40
0
  9
$DIMEXE
 40
1.25
  9
$DIMTP
 40
0
  9
$DIMTM
 40
0
  9
$DIMTXT
 40
2.5
  9
$DIMCEN
 40
2.5
  9
$DIMTSZ
 40
0
  9
$DIMTOL
 70
    0
  9
$DIMLIM
 70
    0
  9
$DIMTIH
 70
    0
  9
$DIMTOH
 70
    0
  9
$DIMSE1
 70
    0
  9
$DIMSE2
 70
    0
  9
$DIMTAD
 70
    1
  9
$DIMZIN
 70
    1
  9
$DIMBLK
  1

  9
$DIMASO
 70
    1
  9
$DIMSHO
 70
    1
  9
$DIMPOST
  1

  9
$DIMAPOST
  1

  9
$DIMALT
 70
    0
  9
$DIMALTD
 70
    3
  9
$DIMALTF
 40
0.03937
  9
$DIMLFAC
 40
1
  9
$DIMTOFL
 70
    1
  9
$DIMTVP
 40
0
  9
$DIMTIX
 70
    0
  9
$DIMSOXD
 70
    0
  9
$DIMSAH
 70
    0
  9
$DIMBLK1
  1

  9
$DIMBLK2
  1

  9
$DIMSTYLE
  2
STANDARD
  9
$DIMCLRD
 70
    0
  9
$DIMCLRE
 70
    0
  9
$DIMCLRT
 70
    0
  9
$DIMTFAC
 40
1
  9
$DIMGAP
 40
0.625
  9
$DIMJUST
 70
    0
  9
$DIMSD1
 70
    0
  9
$DIMSD2
 70
    0
  9
$DIMTOLJ
 70
    0
  9
$DIMTZIN
 70
    8
  9
$DIMALTZ
 70
    0
  9
$DIMALTTZ
 70
    0
  9
$DIMUPT
 70
    0
  9
$DIMDEC
 70
    0
  9
$DIMTDEC
 70
    2
  9
$DIMALTU
 70
    2
  9
$DIMALTTD
 70
    3
  9
$DIMTXSTY
  7
standard
  9
$DIMAUNIT
 70
    0
  9
$DIMADEC
 70
    0
  9
$DIMALTRND
 40
0
  9
$DIMAZIN
 70
    0
  9
$DIMDSEP
 70
    0
  9
$DIMATFIT
 70
    3
  9
$DIMFRAC
 70
    0
  9
$DIMLDRBLK
  1
STANDARD
  9
$DIMLUNIT
 70
    2
  9
$DIMLWD
 70
   -2
  9
$DIMLWE
 70
   -2
  9
$DIMTMOVE
 70
    0
  9
$DIMFXL
 40
1
  9
$DIMFXLON
 70
    0
  9
$DIMJOGANG
 40
0.7854
  9
$DIMTFILL
 70
    0
  9
$DIMTFILLCLR
 70
    0
  9
$DIMARCSYM
 70
    0
  9
$DIMLTYPE
  6

  9
$DIMLTEX1
  6

  9
$DIMLTEX2
  6

  9
$LUNITS
 70
    2
  9
$LUPREC
 70
    4
  9
$SKETCHINC
 40
1
  9
$FILLETRAD
 40
0
  9
$AUNITS
 70
    0
  9
$AUPREC
 70
    2
  9
$MENU
  1
.
  9
$ELEVATION
 40
0
  9
$PELEVATION
 40
0
  9
$THICKNESS
 40
0
  9
$LIMCHECK
 70
    0
  9
$CHAMFERA
 40
0
  9
$CHAMFERB
 40
0
  9
$CHAMFERC
 40
0
  9
$CHAMFERD
 40
0
  9
$SKPOLY
 70
    0
  9
$USRTIMER
 70
    1
  9
$ANGBASE
 50
0
  9
$ANGDIR
 70
    0
  9
$PDMODE
 70
   34
  9
$PDSIZE
 40
0
  9
$PLINEWID
 40
0
  9
$SPLFRAME
 70
    0
  9
$SPLINETYPE
 70
    2
  9
$SPLINESEGS
 70
    8
  9
$HANDSEED
  5
20000
  9
$SURFTAB1
 70
    6
  9
$SURFTAB2
 70
    6
  9
$SURFTYPE
 70
    6
  9
$SURFU
 70
    6
  9
$SURFV
 70
    6
  9
$UCSBASE
  2

  9
$UCSNAME
  2

  9
$UCSORG
 10
0
 20
0
 30
0
  9
$UCSXDIR
 10
1
 20
0
 30
0
  9
$UCSYDIR
 10
0
 20
1
 30
0
  9
$UCSORTHOREF
  2

  9
$UCSORTHOVIEW
 70
    0
  9
$UCSORGTOP
 10
0
 20
0
 30
0
  9
$UCSORGBOTTOM
 10
0
 20
0
 30
0
  9
$UCSORGLEFT
 10
0
 20
0
 30
0
  9
$UCSORGRIGHT
 10
0
 20
0
 30
0
  9
$UCSORGFRONT
 10
0
 20
0
 30
0
  9
$UCSORGBACK
 10
0
 20
0
 30
0
  9
$PUCSBASE
  2

  9
$PUCSNAME
  2

  9
$PUCSORG
 10
0
 20
0
 30
0
  9
$PUCSXDIR
 10
1
 20
0
 30
0
  9
$PUCSYDIR
 10
0
 20
1
 30
0
  9
$PUCSORTHOREF
  2

  9
$PUCSORTHOVIEW
 70
    0
  9
$PUCSORGTOP
 10
0
 20
0
 30
0
  9
$PUCSORGBOTTOM
 10
0
 20
0
 30
0
  9
$PUCSORGLEFT
 10
0
 20
0
 30
0
  9
$PUCSORGRIGHT
 10
0
 20
0
 30
0
  9
$PUCSORGFRONT
 10
0
 20
0
 30
0
  9
$PUCSORGBACK
 10
0
 20
0
 30
0
  9
$USERI1
 70
    0
  9
$USERI2
 70
    0
  9
$USERI3
 70
    0
  9
$USERI4
 70
    0
  9
$USERI5
 70
    0
  9
$USERR1
 40
0
  9
$USERR2
 40
0
  9
$USERR3
 40
0
  9
$USERR4
 40
0
  9
$USERR5
 40
0
  9
$WORLDVIEW
 70
    1
  9
$SHADEDGE
 70
    3
  9
$SHADEDIF
 70
   70
  9
$TILEMODE
 70
    1
  9
$MAXACTVP
 70
   64
  9
$PINSBASE
 10
17.05833691638071
 20
256.4800071408757
 30
0
  9
$PLIMCHECK
 70
    0
  9
$PEXTMIN
 10
0
 20
0
 30
0
  9
$PEXTMAX
 10
0
 20
0
 30
0
  9
$GRIDMODE
 70
    1
  9
$SNAPSTYLE
 70
    0
  9
$GRIDUNIT
 10
0
 20
0
  9
$PLIMMIN
 10
0
 20
0
  9
$PLIMMAX
 10
297
 20
210
  9
$UNITMODE
 70
    0
  9
$VISRETAIN
 70
    1
  9
$PLINEGEN
 70
    0
  9
$PSLTSCALE
 70
    1
  9
$TREEDEPTH
 70
 3020
  9
$CMLSTYLE
  2
Standard
  9
$CMLJUST
 70
    0
  9
$CMLSCALE
 40
20
  9
$PROXYGRAPHICS
 70
    1
  9
$MEASUREMENT
 70
    1
  9
$CELWEIGHT
370
   -1
  9
$ENDCAPS
280
    0
  9
$JOINSTYLE
280
    0
  9
$LWDISPLAY
290
    0
  9
$INSUNITS
 70
    4
  9
$HYPERLINKBASE
  1

  9
$STYLESHEET
  1

  9
$XEDIT
290
    1
  9
$CEPSNTYPE
380
    0
  9
$PSTYLEMODE
290
    1
  9
$EXTNAMES
290
    1
  9
$PSVPSCALE
 40
0.7797362297868128
  9
$OLESTARTUP
290
    0
  9
$SORTENTS
280
  127
  9
$INDEXCTL
280
    0
  9
$HIDETEXT
280
    1
  9
$XCLIPFRAME
290
    0
  9
$HALOGAP
280
    0
  9
$OBSCOLOR
 70
  257
  9
$OBSLTYPE
280
    0
  9
$INTERSECTIONDISPLAY
280
    0
  9
$INTERSECTIONCOLOR
 70
  257
  9
$DIMASSOC
280
    1
  9
$PROJECTNAME
  1

  9
$CAMERADISPLAY
290
    0
  9
$LENSLENGTH
 40
50
  9
$CAMERAHEIGHT
 40
0
  9
$STEPSPERSEC
 40
2
  9
$STEPSIZE
 40
50
  9
$3DDWFPREC
 40
2
  9
$PSOLWIDTH
 40
5
  9
$PSOLHEIGHT
 40
80
  9
$LOFTANG1
 40
1.570796326794897
  9
$LOFTANG2
 40
1.570796326794897
  9
$LOFTMAG1
 40
0
  9
$LOFTMAG2
 40
0
  9
$LOFTPARAM
 70
    7
  9
$LOFTNORMALS
280
    1
  9
$LATITUDE
 40
1
  9
$LONGITUDE
 40
1
  9
$NORTHDIRECTION
 40
0
  9
$TIMEZONE
 70
-8000
  9
$LIGHTGLYPHDISPLAY
280
    1
  9
$TILEMODELIGHTSYNCH
280
    1
  9
$SOLIDHIST
280
    1
  9
$SHOWHIST
280
    1
  9
$DWFFRAME
280
    2
  9
$DGNFRAME
280
    0
  9
$REALWORLDSCALE
290
    1
  9
$INTERFERECOLOR
 62
    1
  9
$CSHADOW
280
    0
  9
$SHADOWPLANELOCATION
 40
0
  0
ENDSEC
  0
SECTION
  2
CLASSES
  0
ENDSEC
  0
SECTION
  2
TABLES
  0
TABLE
  2
VPORT
  5
8
330
0
100
AcDbSymbolTable
 70
    1
  0
VPORT
  5
31
330
2
100
AcDbSymbolTableRecord
100
AcDbViewportTableRecord
  2
*ACTIVE
 70
    0
 10
0
 20
0
 11
1
 21
1
 12
213.4010831673309
 22
-26.74199037184597
 13
0
 23
0
 14
10
 24
10
 15
10
 25
10
 16
0
 26
0
 36
1
 17
0
 27
0
 37
0
 40
279.186379482072
 41
1.852490421455939
 42
50
 43
0
 44
0
 50
0
 51
0
 71
    0
 72
  100
 73
    1
 74
    3
 75
    0
 76
    1
 77
    0
 78
    0
281
    0
 65
    1
110
0
120
0
130
0
111
1
121
0
131
0
112
0
122
1
132
0
 79
    0
146
0
348
10020
 60
    7
 61
    5
292
1
282
    1
141
0
142
0
 63
  250
421
3358443
  0
ENDTAB
  0
TABLE
  2
LTYPE
  5
5
330
0
100
AcDbSymbolTable
 70
    4
  0
LTYPE
  5
14
330
5
100
AcDbSymbolTableRecord
100
AcDbLinetypeTableRecord
  2
ByBlock
 70
    0
  3

 72
   65
 73
    0
 40
0
  0
LTYPE
  5
15
330
5
100
AcDbSymbolTableRecord
100
AcDbLinetypeTableRecord
  2
ByLayer
 70
    0
  3

 72
   65
 73
    0
 40
0
  0
LTYPE
  5
16
330
5
100
AcDbSymbolTableRecord
100
AcDbLinetypeTableRecord
  2
Continuous
 70
    0
  3
Solid line
 72
   65
 73
    0
 40
0
  0
LTYPE
  5
32
330
5
100
AcDbSymbolTableRecord
100
AcDbLinetypeTableRecord
  2
DOT
 70
    0
  3
Dot . . . . . . . . . . . . . . . . . . . . . .
 72
   65
 73
    2
 40
6.35
 49
0
 74
    0
 49
-6.35
 74
    0
  0
LTYPE
  5
33
330
5
100
AcDbSymbolTableRecord
100
AcDbLinetypeTableRecord
  2
DOTTINY
 70
    0
  3
Dot (.15x) .....................................
 72
   65
 73
    2
 40
0.9525
 49
0
 74
    0
 49
-0.9525
 74
    0
  0
LTYPE
  5
34
330
5
100
AcDbSymbolTableRecord
100
AcDbLinetypeTableRecord
  2
DOT2
 70
    0
  3
Dot (.5x) .....................................
 72
   65
 73
    2
 40
3.175
 49
0
 74
    0
 49
-3.175
 74
    0
  0
LTYPE
  5
35
330
5
100
AcDbSymbolTableRecord
100
AcDbLinetypeTableRecord
  2
DOTX2
 70
    0
  3
Dot (2x) .  .  .  .  .  .  .  .  .  .  .  .  .
 72
   65
 73
    2
 40
12.7
 49
0
 74
    0
 49
-12.7
 74
    0
  0
LTYPE
  5
36
330
5
100
AcDbSymbolTableRecord
100
AcDbLinetypeTableRecord
  2
DASHED
 70
    0
  3
Dashed _ _ _ _ _ _ _ _ _ _ _ _ _ _ _ _ _
 72
   65
 73
    2
 40
19.05
 49
12.7
 74
    0
 49
-6.35
 74
    0
  0
LTYPE
  5
37
330
5
100
AcDbSymbolTableRecord
100
AcDbLinetypeTableRecord
  2
DASHEDTINY
 70
    0
  3
Dashed (.15x) _ _ _ _ _ _ _ _ _ _ _ _ _ _ _ _ _
 72
   65
 73
    2
 40
2.8575
 49
1.905
 74
    0
 49
-0.9525
 74
    0
  0
LTYPE
  5
38
330
5
100
AcDbSymbolTableRecord
100
AcDbLinetypeTableRecord
  2
DASHED2
 70
    0
  3
Dashed (.5x) _ _ _ _ _ _ _ _ _ _ _ _ _ _ _ _ _
 72
   65
 73
    2
 40
9.524999999999999
 49
6.35
 74
    0
 49
-3.175
 74
    0
  0
LTYPE
  5
39
330
5
100
AcDbSymbolTableRecord
100
AcDbLinetypeTableRecord
  2
DASHEDX2
 70
    0
  3
Dashed (2x) ____  ____  ____  ____  ____  ___
 72
   65
 73
    2
 40
38.09999999999999
 49
25.4
 74
    0
 49
-12.7
 74
    0
  0
LTYPE
  5
3A
330
5
100
AcDbSymbolTableRecord
100
AcDbLinetypeTableRecord
  2
DASHDOT
 70
    0
  3
Dash dot __ . __ . __ . __ . __ . __ . __ . __
 72
   65
 73
    4
 40
25.4
 49
12.7
 74
    0
 49
-6.35
 74
    0
 49
0
 74
    0
 49
-6.35
 74
    0
  0
LTYPE
  5
3B
330
5
100
AcDbSymbolTableRecord
100
AcDbLinetypeTableRecord
  2
DASHDOTTINY
 70
    0
  3
Dash dot (.15x) _._._._._._._._._._._._._._._.
 72
   65
 73
    4
 40
3.81
 49
1.905
 74
    0
 49
-0.9525
 74
    0
 49
0
 74
    0
 49
-0.9525
 74
    0
  0
LTYPE
  5
3C
330
5
100
AcDbSymbolTableRecord
100
AcDbLinetypeTableRecord
  2
DASHDOT2
 70
    0
  3
Dash dot (.5x) _._._._._._._._._._._._._._._.
 72
   65
 73
    4
 40
12.7
 49
6.35
 74
    0
 49
-3.175
 74
    0
 49
0
 74
    0
 49
-3.175
 74
    0
  0
LTYPE
  5
3D
330
5
100
AcDbSymbolTableRecord
100
AcDbLinetypeTableRecord
  2
DASHDOTX2
 70
    0
  3
Dash dot (2x) ____  .  ____  .  ____  .  ___
 72
   65
 73
    4
 40
50.8
 49
25.4
 74
    0
 49
-12.7
 74
    0
 49
0
 74
    0
 49
-12.7
 74
    0
  0
LTYPE
  5
3E
330
5
100
AcDbSymbolTableRecord
100
AcDbLinetypeTableRecord
  2
DIVIDE
 70
    0
  3
Divide ____ . . ____ . . ____ . . ____ . . ____
 72
   65
 73
    6
 40
31.75
 49
12.7
 74
    0
 49
-6.35
 74
    0
 49
0
 74
    0
 49
-6.35
 74
    0
 49
0
 74
    0
 49
-6.35
 74
    0
  0
LTYPE
  5
3F
330
5
100
AcDbSymbolTableRecord
100
AcDbLinetypeTableRecord
  2
DIVIDETINY
 70
    0
  3
Divide (.15x) __..__..__..__..__..__..__..__.._
 72
   65
 73
    6
 40
4.7625
 49
1.905
 74
    0
 49
-0.9525
 74
    0
 49
0
 74
    0
 49
-0.9525
 74
    0
 49
0
 74
    0
 49
-0.9525
 74
    0
  0
LTYPE
  5
40
330
5
100
AcDbSymbolTableRecord
100
AcDbLinetypeTableRecord
  2
DIVIDE2
 70
    0
  3
Divide (.5x) __..__..__..__..__..__..__..__.._
 72
   65
 73
    6
 40
15.875
 49
6.35
 74
    0
 49
-3.175
 74
    0
 49
0
 74
    0
 49
-3.175
 74
    0
 49
0
 74
    0
 49
-3.175
 74
    0
  0
LTYPE
  5
41
330
5
100
AcDbSymbolTableRecord
100
AcDbLinetypeTableRecord
  2
DIVIDEX2
 70
    0
  3
Divide (2x) ________  .  .  ________  .  .  _
 72
   65
 73
    6
 40
63.5
 49
25.4
 74
    0
 49
-12.7
 74
    0
 49
0
 74
    0
 49
-12.7
 74
    0
 49
0
 74
    0
 49
-12.7
 74
    0
  0
LTYPE
  5
42
330
5
100
AcDbSymbolTableRecord
100
AcDbLinetypeTableRecord
  2
BORDER
 70
    0
  3
Border __ __ . __ __ . __ __ . __ __ . __ __ .
 72
   65
 73
    6
 40
44.45
 49
12.7
 74
    0
 49
-6.35
 74
    0
 49
12.7
 74
    0
 49
-6.35
 74
    0
 49
0
 74
    0
 49
-6.35
 74
    0
  0
LTYPE
  5
43
330
5
100
AcDbSymbolTableRecord
100
AcDbLinetypeTableRecord
  2
BORDERTINY
 70
    0
  3
Border (.15x) __.__.__.__.__.__.__.__.__.__.__.
 72
   65
 73
    6
 40
6.6675
 49
1.905
 74
    0
 49
-0.9525
 74
    0
 49
1.905
 74
    0
 49
-0.9525
 74
    0
 49
0
 74
    0
 49
-0.9525
 74
    0
  0
LTYPE
  5
44
330
5
100
AcDbSymbolTableRecord
100
AcDbLinetypeTableRecord
  2
BORDER2
 70
    0
  3
Border (.5x) __.__.__.__.__.__.__.__.__.__.__.
 72
   65
 73
    6
 40
22.225
 49
6.35
 74
    0
 49
-3.175
 74
    0
 49
6.35
 74
    0
 49
-3.175
 74
    0
 49
0
 74
    0
 49
-3.175
 74
    0
  0
LTYPE
  5
45
330
5
100
AcDbSymbolTableRecord
100
AcDbLinetypeTableRecord
  2
BORDERX2
 70
    0
  3
Border (2x) ____  ____  .  ____  ____  .  ___
 72
   65
 73
    6
 40
88.89999999999999
 49
25.4
 74
    0
 49
-12.7
 74
    0
 49
25.4
 74
    0
 49
-12.7
 74
    0
 49
0
 74
    0
 49
-12.7
 74
    0
  0
LTYPE
  5
46
330
5
100
AcDbSymbolTableRecord
100
AcDbLinetypeTableRecord
  2
CENTER
 70
    0
  3
Center ____ _ ____ _ ____ _ ____ _ ____ _ ____
 72
   65
 73
    4
 40
50.8
 49
31.75
 74
    0
 49
-6.35
 74
    0
 49
6.35
 74
    0
 49
-6.35
 74
    0
  0
LTYPE
  5
47
330
5
100
AcDbSymbolTableRecord
100
AcDbLinetypeTableRecord
  2
CENTERTINY
 70
    0
  3
Center (.15x) ___ _ ___ _ ___ _ ___ _ ___ _ ___
 72
   65
 73
    4
 40
7.62
 49
4.7625
 74
    0
 49
-0.9525
 74
    0
 49
0.9525
 74
    0
 49
-0.9525
 74
    0
  0
LTYPE
  5
48
330
5
100
AcDbSymbolTableRecord
100
AcDbLinetypeTableRecord
  2
CENTER2
 70
    0
  3
Center (.5x) ___ _ ___ _ ___ _ ___ _ ___ _ ___
 72
   65
 73
    4
 40
28.575
 49
19.05
 74
    0
 49
-3.175
 74
    0
 49
3.175
 74
    0
 49
-3.175
 74
    0
  0
LTYPE
  5
49
330
5
100
AcDbSymbolTableRecord
100
AcDbLinetypeTableRecord
  2
CENTERX2
 70
    0
  3
Center (2x) ________  __  ________  __  _____
 72
   65
 73
    4
 40
101.6
 49
63.5
 74
    0
 49
-12.7
 74
    0
 49
12.7
 74
    0
 49
-12.7
 74
    0
  0
ENDTAB
  0
TABLE
  2
LAYER
  5
2
330
0
100
AcDbSymbolTable
 70
    1
  0
LAYER
  5
10
330
2
100
AcDbSymbolTableRecord
100
AcDbLayerTableRecord
  2
0
 70
    0
 62
    7
  6
CONTINUOUS
370
    0
390
F
  0
LAYER
  5
4A
330
2
100
AcDbSymbolTableRecord
100
AcDbLayerTableRecord
  2
Blade
 70
    0
 62
    2
  6
CONTINUOUS
370
   13
390
F
  0
LAYER
  5
4B
330
2
100
AcDbSymbolTableRecord
100
AcDbLayerTableRecord
  2
Handle
 70
    0
 62
    3
  6
CONTINUOUS
370
   13
390
F
  0
LAYER
  5
4C
330
2
100
AcDbSymbolTableRecord
100
AcDbLayerTableRecord
  2
Locking pins
 70
    0
 62
    1
  6
CONTINUOUS
370
   13
390
F
  0
LAYER
  5
4D
330
2
100
AcDbSymbolTableRecord
100
AcDbLayerTableRecord
  2
Measurements
 70
    0
 62
    6
  6
CONTINUOUS
370
   13
390
F
  0
LAYER
  5
4E
330
2
100
AcDbSymbolTableRecord
100
AcDbLayerTableRecord
  2
Photo
 70
    1
 62
    7
  6
CONTINUOUS
370
    0
390
F
  0
ENDTAB
  0
TABLE
  2
STYLE
  5
3
330
0
100
AcDbSymbolTable
 70
    3
  0
STYLE
  5
4F
330
2
100
AcDbSymbolTableRecord
100
AcDbTextStyleTableRecord
  2
standard
 70
    0
 40
0
 41
1
 50
0
 71
    0
 42
1
  3
standard
  4

  0
ENDTAB
  0
TABLE
  2
VIEW
  5
6
330
0
100
AcDbSymbolTable
 70
    0
  0
ENDTAB
  0
TABLE
  2
UCS
  5
7
330
0
100
AcDbSymbolTable
 70
    0
  0
ENDTAB
  0
TABLE
  2
APPID
  5
9
330
0
100
AcDbSymbolTable
 70
    1
  0
APPID
  5
12
330
9
100
AcDbSymbolTableRecord
100
AcDbRegAppTableRecord
  2
ACAD
 70
    0
  0
APPID
  5
50
330
9
100
AcDbSymbolTableRecord
100
AcDbRegAppTableRecord
  2
LibreCad
 70
    0
  0
ENDTAB
  0
TABLE
  2
DIMSTYLE
  5
A
330
0
100
AcDbSymbolTable
 70
    1
100
AcDbDimStyleTable
 71
    1
  0
DIMSTYLE
105
51
330
A
100
AcDbSymbolTableRecord
100
AcDbDimStyleTableRecord
  2
Standard
 70
    0
 40
1
 41
2.5
 42
0.625
 43
0.38
 44
1.25
 45
0
 46
0
 47
0
 48
0
 49
1
140
2.5
141
0.09
142
0
143
25.4
144
1
145
0
146
1
147
0.625
148
0
 71
    0
 72
    0
 73
    0
 74
    1
 75
    0
 76
    0
 77
    0
 78
    1
 79
    0
170
    0
171
    2
172
    0
173
    0
174
    0
175
    0
176
    0
177
    0
178
    0
179
    0
271
    0
272
    4
273
    2
274
    2
275
    0
276
    0
277
    2
278
    0
279
    0
280
    0
281
    0
282
    0
283
    1
284
    0
285
    0
286
    0
288
    0
289
    3
340
standard
341

371
   -2
372
   -2
  0
ENDTAB
  0
TABLE
  2
BLOCK_RECORD
  5
1
330
0
100
AcDbSymbolTable
 70
    2
  0
BLOCK_RECORD
  5
1F
330
1
100
AcDbSymbolTableRecord
100
AcDbBlockTableRecord
  2
*Model_Space
 70
    0
280
    1
281
    0
  0
BLOCK_RECORD
  5
1E
330
1
100
AcDbSymbolTableRecord
100
AcDbBlockTableRecord
  2
*Paper_Space
 70
    0
280
    1
281
    0
  0
BLOCK_RECORD
  5
52
330
1
100
AcDbSymbolTableRecord
100
AcDbBlockTableRecord
  2
*D6
 70
    0
280
    1
281
    0
  0
BLOCK_RECORD
  5
55
330
1
100
AcDbSymbolTableRecord
100
AcDbBlockTableRecord
  2
*D11
 70
    0
280
    1
281
    0
  0
BLOCK_RECORD
  5
58
330
1
100
AcDbSymbolTableRecord
100
AcDbBlockTableRecord
  2
*D12
 70
    0
280
    1
281
    0
  0
BLOCK_RECORD
  5
5B
330
1
100
AcDbSymbolTableRecord
100
AcDbBlockTableRecord
  2
*D4
 70
    0
280
    1
281
    0
  0
BLOCK_RECORD
  5
5E
330
1
100
AcDbSymbolTableRecord
100
AcDbBlockTableRecord
  2
*D10
 70
    0
280
    1
281
    0
  0
BLOCK_RECORD
  5
61
330
1
100
AcDbSymbolTableRecord
100
AcDbBlockTableRecord
  2
*D1
 70
    0
280
    1
281
    0
  0
BLOCK_RECORD
  5
64
330
1
100
AcDbSymbolTableRecord
100
AcDbBlockTableRecord
  2
*D13
 70
    0
280
    1
281
    0
  0
BLOCK_RECORD
  5
67
330
1
100
AcDbSymbolTableRecord
100
AcDbBlockTableRecord
  2
*D9
 70
    0
280
    1
281
    0
  0
BLOCK_RECORD
  5
6A
330
1
100
AcDbSymbolTableRecord
100
AcDbBlockTableRecord
  2
*D2
 70
    0
280
    1
281
    0
  0
BLOCK_RECORD
  5
6D
330
1
100
AcDbSymbolTableRecord
100
AcDbBlockTableRecord
  2
*D3
 70
    0
280
    1
281
    0
  0
BLOCK_RECORD
  5
70
330
1
100
AcDbSymbolTableRecord
100
AcDbBlockTableRecord
  2
*D7
 70
    0
280
    1
281
    0
  0
BLOCK_RECORD
  5
73
330
1
100
AcDbSymbolTableRecord
100
AcDbBlockTableRecord
  2
*D8
 70
    0
280
    1
281
    0
  0
BLOCK_RECORD
  5
76
330
1
100
AcDbSymbolTableRecord
100
AcDbBlockTableRecord
  2
*D5
 70
    0
280
    1
281
    0
  0
ENDTAB
  0
ENDSEC
  0
SECTION
  2
BLOCKS
  0
BLOCK
  5
20
330
1F
100
AcDbEntity
  8
0
100
AcDbBlockBegin
  2
*Model_Space
 70
    0
 10
0
 20
0
 30
0
  3
*Model_Space
  1

  0
ENDBLK
  5
21
330
1F
100
AcDbEntity
  8
0
100
AcDbBlockEnd
  0
BLOCK
  5
1C
330
1B
100
AcDbEntity
  8
0
100
AcDbBlockBegin
  2
*Paper_Space
 70
    0
 10
0
 20
0
 30
0
  3
*Paper_Space
  1

  0
ENDBLK
  5
1D
330
1F
100
AcDbEntity
  8
0
100
AcDbBlockEnd
  0
BLOCK
  5
53
330
52
100
AcDbEntity
  8
0
100
AcDbBlockBegin
  2
*D6
 70
    1
 10
0
 20
0
  3
*D6
  1

  0
LINE
  5
79
100
AcDbEntity
  8
Measurements
  6
CONTINUOUS
 62
    7
370
    0
100
AcDbLine
 10
116
 20
-148
 11
113
 21
-197
  0
SOLID
  5
7A
100
AcDbEntity
  8
Measurements
  6
CONTINUOUS
 62
    7
370
    0
100
AcDbTrace
 10
116
 20
-148
 30
0
 11
116.2627314775214
 21
-150.5207667656918
 31
0
 12
115.4317182060811
 22
-150.4698884021343
 32
0
 13
115.4317182060811
 23
-150.4698884021343
 33
0
  0
LINE
  5
7B
100
AcDbEntity
  8
Measurements
  6
CONTINUOUS
 62
    7
370
    0
100
AcDbLine
 10
113
 20
-197
 11
109
 21
-197
  0
ENDBLK
  5
54
330
52
100
AcDbEntity
  8
0
100
AcDbBlockEnd
  0
BLOCK
  5
56
330
55
100
AcDbEntity
  8
0
100
AcDbBlockBegin
  2
*D11
 70
    1
 10
0
 20
0
  3
*D11
  1

  0
LINE
  5
7C
100
AcDbEntity
  8
Measurements
  6
ByBlock
 62
    0
370
   -2
100
AcDbLine
 10
-5.843864229362303
 20
-110
 11
16.9975571652435
 21
-110
  0
SOLID
  5
7D
100
AcDbEntity
  8
Measurements
  6
ByBlock
 62
    0
370
   -2
100
AcDbTrace
 10
-5.843864229362303
 20
-110
 30
0
 11
-3.343864229362303
 21
-109.5837153422272
 31
0
 12
-3.343864229362303
 22
-110.4162846577728
 32
0
 13
-3.343864229362303
 23
-110.4162846577728
 33
0
  0
SOLID
  5
7E
100
AcDbEntity
  8
Measurements
  6
ByBlock
 62
    0
370
   -2
100
AcDbTrace
 10
16.9975571652435
 20
-110
 30
0
 11
14.4975571652435
 21
-110.4162846577728
 31
0
 12
14.4975571652435
 22
-109.5837153422272
 32
0
 13
14.4975571652435
 23
-109.5837153422272
 33
0
  0
MTEXT
  5
7F
100
AcDbEntity
  8
Measurements
  6
CONTINUOUS
 62
    0
370
   -2
100
AcDbMText
 10
5.576846467940596
 20
-108.125
 30
0
 40
2.5
 41
3.055555555555711
 71
    5
 72
    1
  1
23
  7
standard
210
0
220
0
230
1
 50
0
 73
    2
 44
1
  0
LINE
  5
80
100
AcDbEntity
  8
Measurements
  6
ByBlock
 62
    0
370
   -2
100
AcDbLine
 10
-5.843864229362303
 20
-135.0792501633314
 11
-5.843864229362303
 21
-108.75
  0
LINE
  5
81
100
AcDbEntity
  8
Measurements
  6
ByBlock
 62
    0
370
   -2
100
AcDbLine
 10
16.9975571652435
 20
-119.2555396639637
 11
16.9975571652435
 21
-108.75
  0
ENDBLK
  5
57
330
55
100
AcDbEntity
  8
0
100
AcDbBlockEnd
  0
BLOCK
  5
59
330
58
100
AcDbEntity
  8
0
100
AcDbBlockBegin
  2
*D12
 70
    1
 10
0
 20
0
  3
*D12
  1

  0
LINE
  5
82
100
AcDbEntity
  8
Measurements
  6
ByBlock
 62
    0
370
   -2
100
AcDbLine
 10
126.8863336208607
 20
-105
 11
106.8863336208607
 21
-105
  0
SOLID
  5
83
100
AcDbEntity
  8
Measurements
  6
ByBlock
 62
    0
370
   -2
100
AcDbTrace
 10
126.8863336208607
 20
-105
 30
0
 11
124.3863336208607
 21
-105.4162846577728
 31
0
 12
124.3863336208607
 22
-104.5837153422272
 32
0
 13
124.3863336208607
 23
-104.5837153422272
 33
0
  0
SOLID
  5
84
100
AcDbEntity
  8
Measurements
  6
ByBlock
 62
    0
370
   -2
100
AcDbTrace
 10
106.8863336208607
 20
-105
 30
0
 11
109.3863336208607
 21
-104.5837153422272
 31
0
 12
109.3863336208607
 22
-105.4162846577728
 32
0
 13
109.3863336208607
 23
-105.4162846577728
 33
0
  0
MTEXT
  5
85
100
AcDbEntity
  8
Measurements
  6
CONTINUOUS
 62
    0
370
   -2
100
AcDbMText
 10
116.8863336208607
 20
-103.125
 30
0
 40
2.5
 41
3.055555555555556
 71
    5
 72
    1
  1
20
  7
standard
210
0
220
0
230
1
 50
360
 73
    2
 44
1
  0
LINE
  5
86
100
AcDbEntity
  8
Measurements
  6
ByBlock
 62
    0
370
   -2
100
AcDbLine
 10
126.8863336208607
 20
-124.946834378193
 11
126.8863336208607
 21
-103.75
  0
LINE
  5
87
100
AcDbEntity
  8
Measurements
  6
ByBlock
 62
    0
370
   -2
100
AcDbLine
 10
106.8863336208607
 20
-119.946834378193
 11
106.8863336208607
 21
-103.75
  0
ENDBLK
  5
5A
330
58
100
AcDbEntity
  8
0
100
AcDbBlockEnd
  0
BLOCK
  5
5C
330
5B
100
AcDbEntity
  8
0
100
AcDbBlockBegin
  2
*D4
 70
    1
 10
0
 20
0
  3
*D4
  1

  0
LINE
  5
88
100
AcDbEntity
  8
Measurements
  6
ByBlock
 62
    0
370
   -2
100
AcDbLine
 10
126.8863336208607
 20
-110
 11
117.0850611966864
 21
-110
  0
SOLID
  5
89
100
AcDbEntity
  8
Measurements
  6
ByBlock
 62
    0
370
   -2
100
AcDbTrace
 10
126.8863336208607
 20
-110
 30
0
 11
124.3863336208607
 21
-110.4162846577728
 31
0
 12
124.3863336208607
 22
-109.5837153422272
 32
0
 13
124.3863336208607
 23
-109.5837153422272
 33
0
  0
SOLID
  5
8A
100
AcDbEntity
  8
Measurements
  6
ByBlock
 62
    0
370
   -2
100
AcDbTrace
 10
117.0850611966864
 20
-110
 30
0
 11
119.5850611966864
 21
-109.5837153422272
 31
0
 12
119.5850611966864
 22
-110.4162846577728
 32
0
 13
119.5850611966864
 23
-110.4162846577728
 33
0
  0
MTEXT
  5
8B
100
AcDbEntity
  8
Measurements
  6
CONTINUOUS
 62
    0
370
   -2
100
AcDbMText
 10
121.9856974087735
 20
-108.125
 30
0
 40
2.5
 41
2.5
 71
    5
 72
    1
  1
10
  7
standard
210
0
220
0
230
1
 50
360
 73
    2
 44
1
  0
LINE
  5
8C
100
AcDbEntity
  8
Measurements
  6
ByBlock
 62
    0
370
   -2
100
AcDbLine
 10
126.8863336208607
 20
-124.946834378193
 11
126.8863336208607
 21
-108.75
  0
LINE
  5
8D
100
AcDbEntity
  8
Measurements
  6
ByBlock
 62
    0
370
   -2
100
AcDbLine
 10
117.0850611966864
 20
-126.9420073301936
 11
117.0850611966864
 21
-108.75
  0
ENDBLK
  5
5D
330
5B
100
AcDbEntity
  8
0
100
AcDbBlockEnd
  0
BLOCK
  5
5F
330
5E
100
AcDbEntity
  8
0
100
AcDbBlockBegin
  2
*D10
 70
    1
 10
0
 20
0
  3
*D10
  1

  0
LINE
  5
8E
100
AcDbEntity
  8
Measurements
  6
ByBlock
 62
    0
370
   -2
100
AcDbLine
 10
-5.843864229362296
 20
-100
 11
126.8863336208607
 21
-100
  0
SOLID
  5
8F
100
AcDbEntity
  8
Measurements
  6
ByBlock
 62
    0
370
   -2
100
AcDbTrace
 10
-5.843864229362296
 20
-100
 30
0
 11
-3.343864229362296
 21
-99.58371534222717
 31
0
 12
-3.343864229362296
 22
-100.4162846577728
 32
0
 13
-3.343864229362296
 23
-100.4162846577728
 33
0
  0
SOLID
  5
90
100
AcDbEntity
  8
Measurements
  6
ByBlock
 62
    0
370
   -2
100
AcDbTrace
 10
126.8863336208607
 20
-100
 30
0
 11
124.3863336208607
 21
-100.4162846577728
 31
0
 12
124.3863336208607
 22
-99.58371534222717
 32
0
 13
124.3863336208607
 23
-99.58371534222717
 33
0
  0
MTEXT
  5
91
100
AcDbEntity
  8
Measurements
  6
CONTINUOUS
 62
    0
370
   -2
100
AcDbMText
 10
60.5212346957492
 20
-98.125
 30
0
 40
2.5
 41
4.444444444444755
 71
    5
 72
    1
  1
133
  7
standard
210
0
220
0
230
1
 50
0
 73
    2
 44
1
  0
LINE
  5
92
100
AcDbEntity
  8
Measurements
  6
ByBlock
 62
    0
370
   -2
100
AcDbLine
 10
-5.843864229362303
 20
-135.0792501633314
 11
-5.843864229362296
 21
-98.75
  0
LINE
  5
93
100
AcDbEntity
  8
Measurements
  6
ByBlock
 62
    0
370
   -2
100
AcDbLine
 10
126.8863336208607
 20
-124.946834378193
 11
126.8863336208607
 21
-98.75
  0
ENDBLK
  5
60
330
5E
100
AcDbEntity
  8
0
100
AcDbBlockEnd
  0
BLOCK
  5
62
330
61
100
AcDbEntity
  8
0
100
AcDbBlockBegin
  2
*D1
 70
    1
 10
0
 20
0
  3
*D1
  1

  0
LINE
  5
94
100
AcDbEntity
  8
Measurements
  6
ByBlock
 62
    0
370
   -2
100
AcDbLine
 10
-5.845721032320228
 20
-90
 11
342.9899148802413
 21
-90
  0
SOLID
  5
95
100
AcDbEntity
  8
Measurements
  6
ByBlock
 62
    0
370
   -2
100
AcDbTrace
 10
-5.845721032320228
 20
-90
 30
0
 11
-3.345721032320228
 21
-89.58371534222717
 31
0
 12
-3.345721032320228
 22
-90.41628465777283
 32
0
 13
-3.345721032320228
 23
-90.41628465777283
 33
0
  0
SOLID
  5
96
100
AcDbEntity
  8
Measurements
  6
ByBlock
 62
    0
370
   -2
100
AcDbTrace
 10
342.9899148802413
 20
-90
 30
0
 11
340.4899148802413
 21
-90.41628465777283
 31
0
 12
340.4899148802413
 22
-89.58371534222717
 32
0
 13
340.4899148802413
 23
-89.58371534222717
 33
0
  0
MTEXT
  5
97
100
AcDbEntity
  8
Measurements
  6
CONTINUOUS
 62
    0
370
   -2
100
AcDbMText
 10
168.5720969239605
 20
-88.125
 30
0
 40
2.5
 41
5.277777777777933
 71
    5
 72
    1
  1
349
  7
standard
210
0
220
0
230
1
 50
0
 73
    2
 44
1
  0
LINE
  5
98
100
AcDbEntity
  8
Measurements
  6
ByBlock
 62
    0
370
   -2
100
AcDbLine
 10
-5.84572103232022
 20
-134.4616319900944
 11
-5.845721032320228
 21
-88.75
  0
LINE
  5
99
100
AcDbEntity
  8
Measurements
  6
ByBlock
 62
    0
370
   -2
100
AcDbLine
 10
342.9899148802413
 20
-138.6069891649934
 11
342.9899148802413
 21
-88.75
  0
ENDBLK
  5
63
330
61
100
AcDbEntity
  8
0
100
AcDbBlockEnd
  0
BLOCK
  5
65
330
64
100
AcDbEntity
  8
0
100
AcDbBlockBegin
  2
*D13
 70
    1
 10
0
 20
0
  3
*D13
  1

  0
LINE
  5
9A
100
AcDbEntity
  8
Measurements
  6
ByBlock
 62
    0
370
   -2
100
AcDbLine
 10
16.99755716524351
 20
-110
 11
106.8863336208607
 21
-110
  0
SOLID
  5
9B
100
AcDbEntity
  8
Measurements
  6
ByBlock
 62
    0
370
   -2
100
AcDbTrace
 10
16.99755716524351
 20
-110
 30
0
 11
19.49755716524351
 21
-109.5837153422272
 31
0
 12
19.49755716524351
 22
-110.4162846577728
 32
0
 13
19.49755716524351
 23
-110.4162846577728
 33
0
  0
SOLID
  5
9C
100
AcDbEntity
  8
Measurements
  6
ByBlock
 62
    0
370
   -2
100
AcDbTrace
 10
106.8863336208607
 20
-110
 30
0
 11
104.3863336208607
 21
-110.4162846577728
 31
0
 12
104.3863336208607
 22
-109.5837153422272
 32
0
 13
104.3863336208607
 23
-109.5837153422272
 33
0
  0
MTEXT
  5
9D
100
AcDbEntity
  8
Measurements
  6
CONTINUOUS
 62
    0
370
   -2
100
AcDbMText
 10
61.94194539305212
 20
-108.125
 30
0
 40
2.5
 41
3.055555555555711
 71
    5
 72
    1
  1
90
  7
standard
210
0
220
0
230
1
 50
0
 73
    2
 44
1
  0
LINE
  5
9E
100
AcDbEntity
  8
Measurements
  6
ByBlock
 62
    0
370
   -2
100
AcDbLine
 10
16.9975571652435
 20
-119.2555396639637
 11
16.99755716524351
 21
-108.75
  0
LINE
  5
9F
100
AcDbEntity
  8
Measurements
  6
ByBlock
 62
    0
370
   -2
100
AcDbLine
 10
106.8863336208607
 20
-119.946834378193
 11
106.8863336208607
 21
-108.75
  0
ENDBLK
  5
66
330
64
100
AcDbEntity
  8
0
100
AcDbBlockEnd
  0
BLOCK
  5
68
330
67
100
AcDbEntity
  8
0
100
AcDbBlockBegin
  2
*D9
 70
    1
 10
0
 20
0
  3
*D9
  1

  0
LINE
  5
A0
100
AcDbEntity
  8
Measurements
  6
ByBlock
 62
    0
370
   -2
100
AcDbLine
 10
126.8863336208607
 20
-110
 11
342.9899148802414
 21
-110
  0
SOLID
  5
A1
100
AcDbEntity
  8
Measurements
  6
ByBlock
 62
    0
370
   -2
100
AcDbTrace
 10
126.8863336208607
 20
-110
 30
0
 11
129.3863336208607
 21
-109.5837153422272
 31
0
 12
129.3863336208607
 22
-110.4162846577728
 32
0
 13
129.3863336208607
 23
-110.4162846577728
 33
0
  0
SOLID
  5
A2
100
AcDbEntity
  8
Measurements
  6
ByBlock
 62
    0
370
   -2
100
AcDbTrace
 10
342.9899148802414
 20
-110
 30
0
 11
340.4899148802414
 21
-110.4162846577728
 31
0
 12
340.4899148802414
 22
-109.5837153422272
 32
0
 13
340.4899148802414
 23
-109.5837153422272
 33
0
  0
MTEXT
  5
A3
100
AcDbEntity
  8
Measurements
  6
CONTINUOUS
 62
    0
370
   -2
100
AcDbMText
 10
234.9381242505511
 20
-108.125
 30
0
 40
2.5
 41
4.444444444444599
 71
    5
 72
    1
  1
216
  7
standard
210
0
220
0
230
1
 50
0
 73
    2
 44
1
  0
LINE
  5
A4
100
AcDbEntity
  8
Measurements
  6
ByBlock
 62
    0
370
   -2
100
AcDbLine
 10
126.8863336208607
 20
-124.946834378193
 11
126.8863336208607
 21
-108.75
  0
LINE
  5
A5
100
AcDbEntity
  8
Measurements
  6
ByBlock
 62
    0
370
   -2
100
AcDbLine
 10
342.9899148802414
 20
-138.6069891649934
 11
342.9899148802414
 21
-108.75
  0
ENDBLK
  5
69
330
67
100
AcDbEntity
  8
0
100
AcDbBlockEnd
  0
BLOCK
  5
6B
330
6A
100
AcDbEntity
  8
0
100
AcDbBlockBegin
  2
*D2
 70
    1
 10
0
 20
0
  3
*D2
  1

  0
LINE
  5
A6
100
AcDbEntity
  8
Measurements
  6
ByBlock
 62
    0
370
   -2
100
AcDbLine
 10
20
 20
-140.437873573992
 11
20
 21
-130.571834378193
  0
SOLID
  5
A7
100
AcDbEntity
  8
Measurements
  6
ByBlock
 62
    0
370
   -2
100
AcDbTrace
 10
20
 20
-140.437873573992
 30
0
 11
19.58371534222716
 21
-137.937873573992
 31
0
 12
20.41628465777284
 22
-137.937873573992
 32
0
 13
20.41628465777284
 23
-137.937873573992
 33
0
  0
SOLID
  5
A8
100
AcDbEntity
  8
Measurements
  6
ByBlock
 62
    0
370
   -2
100
AcDbTrace
 10
20
 20
-130.571834378193
 30
0
 11
20.41628465777284
 21
-133.071834378193
 31
0
 12
19.58371534222716
 22
-133.071834378193
 32
0
 13
19.58371534222716
 23
-133.071834378193
 33
0
  0
MTEXT
  5
A9
100
AcDbEntity
  8
Measurements
  6
CONTINUOUS
 62
    0
370
   -2
100
AcDbMText
 10
18.125
 20
-135.5048539760925
 30
0
 40
2.5
 41
2.5
 71
    5
 72
    1
  1
10
  7
standard
210
0
220
0
230
1
 50
90
 73
    2
 44
1
  0
LINE
  5
AA
100
AcDbEntity
  8
Measurements
  6
ByBlock
 62
    0
370
   -2
100
AcDbLine
 10
28.9291375366889
 20
-140.437873573992
 11
18.75
 21
-140.437873573992
  0
LINE
  5
AB
100
AcDbEntity
  8
Measurements
  6
ByBlock
 62
    0
370
   -2
100
AcDbLine
 10
28.9527856741399
 20
-130.571834378193
 11
18.75
 21
-130.571834378193
  0
ENDBLK
  5
6C
330
6A
100
AcDbEntity
  8
0
100
AcDbBlockEnd
  0
BLOCK
  5
6E
330
6D
100
AcDbEntity
  8
0
100
AcDbBlockBegin
  2
*D3
 70
    1
 10
0
 20
0
  3
*D3
  1

  0
LINE
  5
AC
100
AcDbEntity
  8
Measurements
  6
ByBlock
 62
    0
370
   -2
100
AcDbLine
 10
15
 20
-125.571834378193
 11
15
 21
-145.437873573992
  0
SOLID
  5
AD
100
AcDbEntity
  8
Measurements
  6
ByBlock
 62
    0
370
   -2
100
AcDbTrace
 10
15
 20
-125.571834378193
 30
0
 11
15.41628465777284
 21
-128.071834378193
 31
0
 12
14.58371534222716
 22
-128.071834378193
 32
0
 13
14.58371534222716
 23
-128.071834378193
 33
0
  0
SOLID
  5
AE
100
AcDbEntity
  8
Measurements
  6
ByBlock
 62
    0
370
   -2
100
AcDbTrace
 10
15
 20
-145.437873573992
 30
0
 11
14.58371534222716
 21
-142.937873573992
 31
0
 12
15.41628465777284
 22
-142.937873573992
 32
0
 13
15.41628465777284
 23
-142.937873573992
 33
0
  0
MTEXT
  5
AF
100
AcDbEntity
  8
Measurements
  6
CONTINUOUS
 62
    0
370
   -2
100
AcDbMText
 10
13.125
 20
-135.5048539760925
 30
0
 40
2.5
 41
3.055555555555556
 71
    5
 72
    1
  1
20
  7
standard
210
0
220
0
230
1
 50
90
 73
    2
 44
1
  0
LINE
  5
B0
100
AcDbEntity
  8
Measurements
  6
ByBlock
 62
    0
370
   -2
100
AcDbLine
 10
118.4600553715798
 20
-125.571834378193
 11
13.75
 21
-125.571834378193
  0
LINE
  5
B1
100
AcDbEntity
  8
Measurements
  6
ByBlock
 62
    0
370
   -2
100
AcDbLine
 10
118.4217621936691
 20
-145.437873573992
 11
13.75
 21
-145.437873573992
  0
ENDBLK
  5
6F
330
6D
100
AcDbEntity
  8
0
100
AcDbBlockEnd
  0
BLOCK
  5
71
330
70
100
AcDbEntity
  8
0
100
AcDbBlockBegin
  2
*D7
 70
    1
 10
0
 20
0
  3
*D7
  1

  0
LINE
  5
B2
100
AcDbEntity
  8
Measurements
  6
CONTINUOUS
 62
    7
370
    0
100
AcDbLine
 10
40.63501063378826
 20
-149.9033623177733
 11
40.63501063378826
 21
-171.9033623177733
  0
LINE
  5
B3
100
AcDbEntity
  8
Measurements
  6
CONTINUOUS
 62
    7
370
    0
100
AcDbLine
 10
40.63501063378826
 20
-171.9033623177733
 11
105.6350106337883
 21
-171.9033623177733
  0
SOLID
  5
B4
100
AcDbEntity
  8
Measurements
  6
CONTINUOUS
 62
    7
370
    0
100
AcDbTrace
 10
40.63501063378826
 20
-149.9033623177733
 30
0
 11
41.0512952915611
 21
-152.4033623177733
 31
0
 12
40.21872597601541
 22
-152.4033623177733
 32
0
 13
40.21872597601541
 23
-152.4033623177733
 33
0
  0
ENDBLK
  5
72
330
70
100
AcDbEntity
  8
0
100
AcDbBlockEnd
  0
BLOCK
  5
74
330
73
100
AcDbEntity
  8
0
100
AcDbBlockBegin
  2
*D8
 70
    1
 10
0
 20
0
  3
*D8
  1

  0
LINE
  5
B5
100
AcDbEntity
  8
Measurements
  6
ByBlock
 62
    0
370
   -2
100
AcDbLine
 10
140
 20
-165.2703588324609
 11
140
 21
-125.571834378193
  0
SOLID
  5
B6
100
AcDbEntity
  8
Measurements
  6
ByBlock
 62
    0
370
   -2
100
AcDbTrace
 10
140
 20
-165.2703588324609
 30
0
 11
139.5837153422272
 21
-162.7703588324609
 31
0
 12
140.4162846577728
 22
-162.7703588324609
 32
0
 13
140.4162846577728
 23
-162.7703588324609
 33
0
  0
SOLID
  5
B7
100
AcDbEntity
  8
Measurements
  6
ByBlock
 62
    0
370
   -2
100
AcDbTrace
 10
140
 20
-125.571834378193
 30
0
 11
140.4162846577728
 21
-128.071834378193
 31
0
 12
139.5837153422272
 22
-128.071834378193
 32
0
 13
139.5837153422272
 23
-128.071834378193
 33
0
  0
MTEXT
  5
B8
100
AcDbEntity
  8
Measurements
  6
CONTINUOUS
 62
    0
370
   -2
100
AcDbMText
 10
138.125
 20
-145.4210966053269
 30
0
 40
2.5
 41
3.333333333333333
 71
    5
 72
    1
  1
40
  7
standard
210
0
220
0
230
1
 50
90
 73
    2
 44
1
  0
LINE
  5
B9
100
AcDbEntity
  8
Measurements
  6
ByBlock
 62
    0
370
   -2
100
AcDbLine
 10
133.0412112364549
 20
-165.2703588324609
 11
141.25
 21
-165.2703588324609
  0
LINE
  5
BA
100
AcDbEntity
  8
Measurements
  6
ByBlock
 62
    0
370
   -2
100
AcDbLine
 10
127.5113336208607
 20
-125.571834378193
 11
141.25
 21
-125.571834378193
  0
ENDBLK
  5
75
330
73
100
AcDbEntity
  8
0
100
AcDbBlockEnd
  0
BLOCK
  5
77
330
76
100
AcDbEntity
  8
0
100
AcDbBlockBegin
  2
*D5
 70
    1
 10
0
 20
0
  3
*D5
  1

  0
LINE
  5
BB
100
AcDbEntity
  8
Measurements
  6
CONTINUOUS
 62
    7
370
    0
100
AcDbLine
 10
1
 20
-147
 11
48
 21
-197
  0
SOLID
  5
BC
100
AcDbEntity
  8
Measurements
  6
CONTINUOUS
 62
    7
370
    0
100
AcDbTrace
 10
1
 20
-147
 30
0
 11
3.015591541712412
 21
-148.5364516436499
 31
0
 12
2.408958502127022
 22
-149.1066867008601
 32
0
 13
2.408958502127022
 23
-149.1066867008601
 33
0
  0
LINE
  5
BD
100
AcDbEntity
  8
Measurements
  6
CONTINUOUS
 62
    7
370
    0
100
AcDbLine
 10
48
 20
-197
 11
110
 21
-197
  0
ENDBLK
  5
78
330
76
100
AcDbEntity
  8
0
100
AcDbBlockEnd
  0
ENDSEC
  0
SECTION
  2
ENTITIES
  0
IMAGE
  5
C0
100
AcDbEntity
  8
Photo
  6
ByLayer
 62
  256
370
   -1
100
AcDbRasterImage
 10
0
 20
0
 30
0
 11
1
 21
0
 31
0
 12
6.123031769111886e-017
 22
1
 32
0
 13
2048
 23
1092
340
BE
 70
    1
280
    0
281
   50
282
   50
283
    0
360
BF
  0
ARC
  5
C1
100
AcDbEntity
  8
Blade
  6
DASHEDTINY
 62
  256
370
   -1
100
AcDbCircle
 10
29.5777856741399
 20
-133.071834378193
 40
2.5
100
AcDbArc
 50
90
 51
179.7215542769069
  0
LINE
  5
C2
100
AcDbEntity
  8
Blade
  6
DASHEDTINY
 62
  256
370
   -1
100
AcDbLine
 10
27.05416705863578
 20
-137.9257241351753
 11
27.0778151960869
 21
-133.0596849393764
  0
ARC
  5
C3
100
AcDbEntity
  8
Blade
  6
DASHEDTINY
 62
  256
370
   -1
100
AcDbCircle
 10
29.5541375366889
 20
-137.937873573992
 40
2.5
100
AcDbArc
 50
179.7215542769069
 51
270
  0
LINE
  5
C4
100
AcDbEntity
  8
Blade
  6
DASHEDTINY
 62
  256
370
   -1
100
AcDbLine
 10
29.5777856741399
 20
-130.571834378193
 11
47.09014191251558
 21
-130.571834378193
  0
ARC
  5
C5
100
AcDbEntity
  8
Blade
  6
DASHEDTINY
 62
  256
370
   -1
100
AcDbCircle
 10
52.09020095708897
 20
-118.5715509624807
 40
13.00028432407617
100
AcDbArc
 50
247.3803752628128
 51
292.619624736852
  0
LINE
  5
C6
100
AcDbEntity
  8
Blade
  6
DASHEDTINY
 62
  256
370
   -1
100
AcDbLine
 10
57.09026000163871
 20
-130.5718343781928
 11
72.09043713552873
 21
-130.5718343781931
  0
ARC
  5
C7
100
AcDbEntity
  8
Blade
  6
DASHEDTINY
 62
  256
370
   -1
100
AcDbCircle
 10
77.09049618004528
 20
-118.571550962481
 40
13.00028432407588
100
AcDbArc
 50
247.3803752629619
 51
292.6196247369441
  0
LINE
  5
C8
100
AcDbEntity
  8
Blade
  6
DASHEDTINY
 62
  256
370
   -1
100
AcDbLine
 10
82.09055522461753
 20
-130.5718343781928
 11
97.0907323584108
 21
-130.5718343781929
  0
ARC
  5
C9
100
AcDbEntity
  8
Blade
  6
DASHEDTINY
 62
  256
370
   -1
100
AcDbCircle
 10
102.090791403002
 20
-118.5715509624807
 40
13.00028432407617
100
AcDbArc
 50
247.3803752629792
 51
292.6196247368618
  0
ARC
  5
CA
100
AcDbEntity
  8
Blade
  6
DASHEDTINY
 62
  256
370
   -1
100
AcDbCircle
 10
92.05244572093679
 20
-152.4381569897035
 40
13.00028432407549
100
AcDbArc
 50
67.38037526306283
 51
112.6196247370221
  0
LINE
  5
CB
100
AcDbEntity
  8
Blade
  6
DASHEDTINY
 62
  256
370
   -1
100
AcDbLine
 10
87.05238667636647
 20
-140.4378735739919
 11
72.05220954258013
 21
-140.4378735739917
  0
ARC
  5
CC
100
AcDbEntity
  8
Blade
  6
DASHEDTINY
 62
  256
370
   -1
100
AcDbCircle
 10
67.05215049798048
 20
-152.4381569897035
 40
13.00028432407549
100
AcDbArc
 50
67.38037526292354
 51
112.6196247369314
  0
LINE
  5
CD
100
AcDbEntity
  8
Blade
  6
DASHEDTINY
 62
  256
370
   -1
100
AcDbLine
 10
37.05179623041758
 20
-140.4378735739921
 11
29.5541375366889
 21
-140.437873573992
  0
ARC
  5
CE
100
AcDbEntity
  8
Blade
  6
DASHEDTINY
 62
  256
370
   -1
100
AcDbCircle
 10
42.05185527502405
 20
-152.4381569897046
 40
13.00028432407645
100
AcDbArc
 50
67.38037526296354
 51
112.6196247373399
  0
LINE
  5
CF
100
AcDbEntity
  8
Blade
  6
DASHEDTINY
 62
  256
370
   -1
100
AcDbLine
 10
62.05209145341141
 20
-140.4378735739919
 11
47.05191431961927
 21
-140.4378735739921
  0
MTEXT
  5
D0
100
AcDbEntity
  8
Measurements
  6
ByLayer
 62
  256
370
   -1
100
AcDbMText
 10
51.63501063378826
 20
-189.9033623177733
 30
0
 40
5
 41
56.52777671776867
 71
    1
 72
    1
  1
Sapele mahogany
  7
standard
210
0
220
0
230
1
 50
0
 73
    2
 44
1
  0
ARC
  5
D1
100
AcDbEntity
  8
Blade
  6
ByLayer
 62
  256
370
   -1
100
AcDbCircle
 10
272.9437500548052
 20
12.52624687433078
 40
167.1437327946202
100
AcDbArc
 50
276.5088454600962
 51
294.7763550490854
  0
ARC
  5
D2
100
AcDbEntity
  8
Blade
  6
ByLayer
 62
  256
370
   -1
100
AcDbCircle
 10
287.7164710554428
 20
-242.8832427325704
 40
117.4680210030939
100
AcDbArc
 50
61.9306224012965
 51
87.04103734009384
  0
ARC
  5
D3
100
AcDbEntity
  8
Blade
  6
DASHEDTINY
 62
  256
370
   -1
100
AcDbCircle
 10
272.9437500548052
 20
12.52624687433078
 40
154.1437327946202
100
AcDbArc
 50
276.5088454600962
 51
290.3377039309642
  0
DIMENSION
  5
D4
100
AcDbEntity
  8
Measurements
  6
ByLayer
 62
  256
370
   -1
100
AcDbDimension
  2
*D1
 10
342.9899148802413
 20
-90
 30
0
 11
168.5720969239605
 21
-88.125
 31
0
 70
   32
 71
    5
  3
Standard
 53
0
210
0
220
0
230
1
100
AcDbAlignedDimension
 13
-5.84572103232022
 23
-135.0866319900944
 33
0
 14
342.9899148802413
 24
-139.2319891649934
 34
0
100
AcDbRotatedDimension
  0
DIMENSION
  5
D5
100
AcDbEntity
  8
Measurements
  6
ByLayer
 62
  256
370
   -1
100
AcDbDimension
  2
*D2
 10
20
 20
-130.571834378193
 30
0
 11
18.125
 21
-135.5048539760925
 31
0
 70
   32
 71
    5
  3
Standard
 53
0
210
0
220
0
230
1
100
AcDbAlignedDimension
 13
29.5541375366889
 23
-140.437873573992
 33
0
 14
29.5777856741399
 24
-130.571834378193
 34
0
 50
90
100
AcDbRotatedDimension
  0
LINE
  5
D6
100
AcDbEntity
  8
Blade
  6
DASHEDTINY
 62
  256
370
   -1
100
AcDbLine
 10
107.0908504475543
 20
-130.571834378193
 11
115.0826301903035
 21
-130.571834378193
  0
LINE
  5
D7
100
AcDbEntity
  8
Blade
  6
DASHEDTINY
 62
  256
370
   -1
100
AcDbLine
 10
115.0491640744513
 20
-140.4378735739922
 11
97.05250476550722
 21
-140.437873573992
  0
LINE
  5
D8
100
AcDbEntity
  8
Blade
  6
ByLayer
 62
  256
370
   -1
100
AcDbLine
 10
293.7802510890367
 20
-125.5718343781929
 11
126.8863336208607
 21
-125.571834378193
  0
ARC
  5
D9
100
AcDbEntity
  8
Blade
  6
DASHEDTINY
 62
  256
370
   -1
100
AcDbCircle
 10
115.0826301903035
 20
-128.571834378193
 40
2
100
AcDbArc
 50
270
 51
359.8617151268084
  0
ARC
  5
DA
100
AcDbEntity
  8
Blade
  6
DASHEDTINY
 62
  256
370
   -1
100
AcDbCircle
 10
115.0491640744513
 20
-142.4378735739922
 40
2
100
AcDbArc
 50
359.8617151268084
 51
89.99999999999919
  0
LINE
  5
DB
100
AcDbEntity
  8
Blade
  6
DASHEDTINY
 62
  256
370
   -1
100
AcDbLine
 10
117.0826243651969
 20
-128.5766614261924
 11
117.0850611966864
 21
-127.5670073301936
  0
ARC
  5
DC
100
AcDbEntity
  8
Blade
  6
DASHEDTINY
 62
  256
370
   -1
100
AcDbCircle
 10
119.0850553715798
 20
-127.571834378193
 40
2
100
AcDbArc
 50
89.99999999999878
 51
179.8617151268084
  0
LINE
  5
DD
100
AcDbEntity
  8
Blade
  6
DASHEDTINY
 62
  256
370
   -1
100
AcDbLine
 10
117.0467680187757
 20
-143.4330465259925
 11
117.0491582493447
 21
-142.4427006219917
  0
ARC
  5
DE
100
AcDbEntity
  8
Blade
  6
DASHEDTINY
 62
  256
370
   -1
100
AcDbCircle
 10
119.0467621936691
 20
-143.437873573992
 40
2
100
AcDbArc
 50
179.8617151268076
 51
270
  0
LINE
  5
DF
100
AcDbEntity
  8
Blade
  6
DASHEDTINY
 62
  256
370
   -1
100
AcDbLine
 10
126.8863336208607
 20
-125.571834378193
 11
119.0850553715798
 21
-125.571834378193
  0
LINE
  5
E0
100
AcDbEntity
  8
Blade
  6
DASHEDTINY
 62
  256
370
   -1
100
AcDbLine
 10
126.8657430563991
 20
-145.437873573992
 11
119.0467621936691
 21
-145.437873573992
  0
DIMENSION
  5
E1
100
AcDbEntity
  8
Measurements
  6
ByLayer
 62
  256
370
   -1
100
AcDbDimension
  2
*D3
 10
15
 20
-145.437873573992
 30
0
 11
13.125
 21
-135.5048539760925
 31
0
 70
   32
 71
    5
  3
Standard
 53
0
210
0
220
0
230
1
100
AcDbAlignedDimension
 13
119.0850553715798
 23
-125.571834378193
 33
0
 14
119.0467621936691
 24
-145.437873573992
 34
0
 50
90
100
AcDbRotatedDimension
  0
LINE
  5
E2
100
AcDbEntity
  8
Handle
  6
ByLayer
 62
   96
420
32768
370
   18
100
AcDbLine
 10
126.8863336208607
 20
-122.571834378193
 11
126.8863336208607
 21
-148.437873573992
  0
ARC
  5
E3
100
AcDbEntity
  8
Handle
  6
ByLayer
 62
   96
420
32768
370
   18
100
AcDbCircle
 10
124.8863336208607
 20
-122.571834378193
 40
2
100
AcDbArc
 50
0
 51
90
  0
LINE
  5
E4
100
AcDbEntity
  8
Handle
  6
ByLayer
 62
   96
420
32768
370
   18
100
AcDbLine
 10
124.8863336208607
 20
-150.437873573992
 11
106.8863336208605
 21
-150.437873573992
  0
ARC
  5
E5
100
AcDbEntity
  8
Handle
  6
ByLayer
 62
   96
420
32768
370
   18
100
AcDbCircle
 10
124.8863336208607
 20
-148.437873573992
 40
2
100
AcDbArc
 50
270
 51
0
  0
LINE
  5
E6
100
AcDbEntity
  8
Handle
  6
ByLayer
 62
   96
420
32768
370
   18
100
AcDbLine
 10
124.8863336208607
 20
-120.571834378193
 11
106.8863336208607
 21
-120.571834378193
  0
LINE
  5
E7
100
AcDbEntity
  8
Handle
  6
ByLayer
 62
   96
420
32768
370
   18
100
AcDbLine
 10
106.8863336208607
 20
-120.571834378193
 11
106.8863336208605
 21
-150.437873573992
  0
LINE
  5
E8
100
AcDbEntity
  8
Handle
  6
DASHEDTINY
 62
  256
370
   -1
100
AcDbLine
 10
23.726845376106
 20
-135.5048539760925
 11
26.84111774013188
 21
-130.321834378193
  0
LINE
  5
E9
100
AcDbEntity
  8
Handle
  6
DASHEDTINY
 62
  256
370
   -1
100
AcDbLine
 10
23.726845376106
 20
-135.5048539760925
 11
26.84111774013188
 21
-140.687873573992
  0
LINE
  5
EA
100
AcDbEntity
  8
Handle
  6
DASHEDTINY
 62
  256
370
   -1
100
AcDbLine
 10
126.8863336208607
 20
-125.321834378193
 11
118.007112660347
 21
-125.321834378193
  0
LINE
  5
EB
100
AcDbEntity
  8
Handle
  6
DASHEDTINY
 62
  256
370
   -1
100
AcDbLine
 10
26.84111774013188
 20
-130.321834378193
 11
115.0028095652092
 21
-130.321834378193
  0
LINE
  5
EC
100
AcDbEntity
  8
Handle
  6
DASHEDTINY
 62
  256
370
   -1
100
AcDbLine
 10
115.00280956521
 20
-140.6878735739934
 11
26.79074052164634
 21
-140.6878735739919
  0
LINE
  5
ED
100
AcDbEntity
  8
Handle
  6
DASHEDTINY
 62
  256
370
   -1
100
AcDbLine
 10
126.8657430563991
 20
-145.687873573992
 11
118.007112660347
 21
-145.687873573992
  0
LINE
  5
EE
100
AcDbEntity
  8
Handle
  6
DASHEDTINY
 62
  256
370
   -1
100
AcDbLine
 10
115.0028095652092
 20
-130.321834378193
 11
118.007112660347
 21
-125.321834378193
  0
LINE
  5
EF
100
AcDbEntity
  8
Handle
  6
DASHEDTINY
 62
  256
370
   -1
100
AcDbLine
 10
115.00280956521
 20
-140.6878735739934
 11
118.007112660347
 21
-145.687873573992
  0
DIMENSION
  5
F0
100
AcDbEntity
  8
Measurements
  6
ByLayer
 62
  256
370
   -1
100
AcDbDimension
  2
*D4
 10
117.0850611966864
 20
-110
 30
0
 11
121.9856974087735
 21
-108.125
 31
0
 70
   32
 71
    5
  3
Standard
 53
0
210
0
220
0
230
1
100
AcDbAlignedDimension
 13
126.8863336208607
 23
-125.571834378193
 33
0
 14
117.0850611966864
 24
-127.5670073301936
 34
0
100
AcDbRotatedDimension
  0
LINE
  5
F1
100
AcDbEntity
  8
Handle
  6
ByLayer
 62
  256
370
   -1
100
AcDbLine
 10
16.9975571652435
 20
-119.8805396639637
 11
106.8863336208607
 21
-120.571834378193
  0
LINE
  5
F2
100
AcDbEntity
  8
Handle
  6
ByLayer
 62
  256
370
   -1
100
AcDbLine
 10
16.99755716524349
 20
-151.3662921420613
 11
106.8863336208605
 21
-150.437873573992
  0
LINE
  5
F3
100
AcDbEntity
  8
Handle
  6
ByLayer
 62
   96
420
32768
370
   -1
100
AcDbLine
 10
16.99755716524349
 20
-151.3662921420613
 11
16.9975571652435
 21
-119.8805396639637
  0
ARC
  5
F4
100
AcDbEntity
  8
Handle
  6
ByLayer
 62
   96
420
32768
370
   -1
100
AcDbCircle
 10
0.4465706843002598
 20
-124.7534012267298
 40
5
100
AcDbArc
 50
89.55937225711629
 51
165.9601174720763
  0
ARC
  5
F5
100
AcDbEntity
  8
Handle
  6
ByLayer
 62
   96
420
32768
370
   -1
100
AcDbCircle
 10
42.42295186762769
 20
-135.2503292671185
 40
48.26895047875674
100
AcDbArc
 50
165.9601174720763
 51
195.117516687195
  0
ARC
  5
F6
100
AcDbEntity
  8
Handle
  6
ByLayer
 62
   96
420
32768
370
   -1
100
AcDbCircle
 10
0.6514124107843909
 20
-146.5348570347518
 40
5
100
AcDbArc
 50
195.1175166871948
 51
270.5917599084415
  0
LINE
  5
F7
100
AcDbEntity
  8
Handle
  6
ByLayer
 62
   96
420
32768
370
   -1
100
AcDbLine
 10
0.4850223297224359
 20
-119.7535490818195
 11
16.9975571652435
 21
-119.8805396639637
  0
LINE
  5
F8
100
AcDbEntity
  8
Handle
  6
ByLayer
 62
   96
420
32768
370
   -1
100
AcDbLine
 10
0.7030522866126323
 20
-151.5345903599627
 11
16.99755716524349
 21
-151.3662921420613
  0
LEADER
  5
F9
100
AcDbEntity
  8
Measurements
  6
ByLayer
 62
  256
370
   -1
100
AcDbLeader
  3
Standard
 71
    1
 72
    0
 73
    3
 74
    0
 75
    0
 40
1
 41
10
 76
3
 76
3
 10
1
 20
-147
 30
0
 10
48
 20
-197
 30
0
 10
110
 20
-197
 30
0
  0
LEADER
  5
FA
100
AcDbEntity
  8
Measurements
  6
ByLayer
 62
  256
370
   -1
100
AcDbLeader
  3
Standard
 71
    1
 72
    0
 73
    3
 74
    0
 75
    0
 40
1
 41
10
 76
3
 76
3
 10
116
 20
-148
 30
0
 10
113
 20
-197
 30
0
 10
109
 20
-197
 30
0
  0
MTEXT
  5
FB
100
AcDbEntity
  8
Measurements
  6
ByLayer
 62
  256
370
   -1
100
AcDbMText
 10
42.63501063378826
 20
-164.9033623177733
 30
0
 40
5
 41
61.38889146032604
 71
    1
 72
    1
  1
Finnish curly birch
  7
standard
210
0
220
0
230
1
 50
0
 73
    2
 44
1
  0
LEADER
  5
FC
100
AcDbEntity
  8
Measurements
  6
ByLayer
 62
  256
370
   -1
100
AcDbLeader
  3
Standard
 71
    1
 72
    0
 73
    3
 74
    0
 75
    0
 40
1
 41
10
 76
3
 76
3
 10
40.63501063378826
 20
-149.9033623177733
 30
0
 10
40.63501063378826
 20
-171.9033623177733
 30
0
 10
105.6350106337883
 20
-171.9033623177733
 30
0
  0
LINE
  5
FD
100
AcDbEntity
  8
Locking pins
  6
ByLayer
 62
  256
370
   -1
100
AcDbLine
 10
111.8863336208607
 20
-125.571834378193
 11
101.8863336208607
 21
-125.571834378193
  0
LINE
  5
FE
100
AcDbEntity
  8
Locking pins
  6
ByLayer
 62
  256
370
   -1
100
AcDbLine
 10
111.8863336208605
 20
-145.437873573992
 11
101.8863336208605
 21
-145.437873573992
  0
LINE
  5
FF
100
AcDbEntity
  8
Locking pins
  6
ByLayer
 62
  256
370
   -1
100
AcDbLine
 10
11.99755716524349
 20
-146.4176680832341
 11
21.99755716524349
 21
-146.3143828228626
  0
LINE
  5
100
100
AcDbEntity
  8
Locking pins
  6
ByLayer
 62
  256
370
   -1
100
AcDbLine
 10
11.9975571652435
 20
-124.8422347409156
 11
21.99755716524349
 21
-124.9191403059358
  0
MTEXT
  5
101
100
AcDbEntity
  8
Measurements
  6
ByLayer
 62
  256
370
   -1
100
AcDbMText
 10
0
 20
-220
 30
0
 40
5
 41
299.8611151939756
 71
    1
 72
    1
  3
M390 Microclean\P\PVACUUM HARDENING OR HEAT TREAT FOIL : 1160%%DC\PHEAT TREATMENT HOLDING TIME : 10 minutes\P\PSUBZERO QUENCHING : 2 hours at -70%%DC Reheating in still air at ambient temperature\P\PTEMPERING : 2*2 hours at 250%%DC to reach 60/62 HRC
  1
\P\PLocking pins: 8pcs 10mm*2mm steel rods
  7
standard
210
0
220
0
230
1
 50
0
 73
    2
 44
1
  0
ARC
  5
102
100
AcDbEntity
  8
Blade
  6
DASHEDTINY
 62
  256
370
   -1
100
AcDbCircle
 10
106.6379323362686
 20
1275.038206073031
 40
1427.539232996857
100
AcDbArc
 50
271.1957957146425
 51
277.386233204763
  0
ARC
  5
103
100
AcDbEntity
  8
Blade
  6
ByLayer
 62
  256
370
   -1
100
AcDbCircle
 10
106.6379323362686
 20
1275.038206073031
 40
1440.539232996857
100
AcDbArc
 50
271.025355915385
 51
277.386233204763
  0
ARC
  5
104
100
AcDbEntity
  8
Blade
  6
ByLayer
 62
  256
370
   -1
100
AcDbCircle
 10
132.3983163549339
 20
-164.2705189586734
 40
1
100
AcDbArc
 50
137.3636632706434
 51
271.0253559154068
  0
ARC
  5
105
100
AcDbEntity
  8
Blade
  6
ByLayer
 62
  256
370
   -1
100
AcDbCircle
 10
118.3389895316975
 20
-151.3258398688256
 40
18.11097557587576
100
AcDbArc
 50
317.3636632706421
 51
3.883440708653731
  0
LINE
  5
106
100
AcDbEntity
  8
Blade
  6
ByLayer
 62
  256
370
   -1
100
AcDbLine
 10
131.4198609250888
 20
-145.437873573992
 11
126.8657430563991
 21
-145.437873573992
  0
ARC
  5
107
100
AcDbEntity
  8
Blade
  6
ByLayer
 62
  256
370
   -1
100
AcDbCircle
 10
131.4198609250888
 20
-150.437873573992
 40
5
100
AcDbArc
 50
3.883440708653716
 51
90
  0
DIMENSION
  5
108
100
AcDbEntity
  8
Measurements
  6
ByLayer
 62
  256
370
   -1
100
AcDbDimension
  2
*D8
 10
140
 20
-125.571834378193
 30
0
 11
138.125
 21
-145.4210966053269
 31
0
 70
   32
 71
    5
  3
Standard
 53
0
210
0
220
0
230
1
100
AcDbAlignedDimension
 13
132.4162112364549
 23
-165.2703588324609
 33
0
 14
126.8863336208607
 24
-125.571834378193
 34
0
 50
90
100
AcDbRotatedDimension
  0
DIMENSION
  5
109
100
AcDbEntity
  8
Measurements
  6
ByLayer
 62
  256
370
   -1
100
AcDbDimension
  2
*D9
 10
342.9899148802414
 20
-110
 30
0
 11
234.9381242505511
 21
-108.125
 31
0
 70
   32
 71
    5
  3
Standard
 53
0
210
0
220
0
230
1
100
AcDbAlignedDimension
 13
126.8863336208607
 23
-125.571834378193
 33
0
 14
342.9899148802414
 24
-139.2319891649934
 34
0
100
AcDbRotatedDimension
  0
DIMENSION
  5
10A
100
AcDbEntity
  8
Measurements
  6
ByLayer
 62
  256
370
   -1
100
AcDbDimension
  2
*D10
 10
126.8863336208607
 20
-100
 30
0
 11
60.5212346957492
 21
-98.125
 31
0
 70
   32
 71
    5
  3
Standard
 53
0
210
0
220
0
230
1
100
AcDbAlignedDimension
 13
-5.843864229362303
 23
-135.7042501633314
 33
0
 14
126.8863336208607
 24
-125.571834378193
 34
0
100
AcDbRotatedDimension
  0
DIMENSION
  5
10B
100
AcDbEntity
  8
Measurements
  6
ByLayer
 62
  256
370
   -1
100
AcDbDimension
  2
*D11
 10
16.9975571652435
 20
-110
 30
0
 11
5.576846467940596
 21
-108.125
 31
0
 70
   32
 71
    5
  3
Standard
 53
0
210
0
220
0
230
1
100
AcDbAlignedDimension
 13
-5.843864229362303
 23
-135.7042501633314
 33
0
 14
16.9975571652435
 24
-119.8805396639637
 34
0
100
AcDbRotatedDimension
  0
DIMENSION
  5
10C
100
AcDbEntity
  8
Measurements
  6
ByLayer
 62
  256
370
   -1
100
AcDbDimension
  2
*D12
 10
106.8863336208607
 20
-105
 30
0
 11
116.8863336208607
 21
-103.125
 31
0
 70
   32
 71
    5
  3
Standard
 53
0
210
0
220
0
230
1
100
AcDbAlignedDimension
 13
126.8863336208607
 23
-125.571834378193
 33
0
 14
106.8863336208607
 24
-120.571834378193
 34
0
100
AcDbRotatedDimension
  0
DIMENSION
  5
10D
100
AcDbEntity
  8
Measurements
  6
ByLayer
 62
  256
370
   -1
100
AcDbDimension
  2
*D13
 10
106.8863336208607
 20
-110
 30
0
 11
61.94194539305212
 21
-108.125
 31
0
 70
   32
 71
    5
  3
Standard
 53
0
210
0
220
0
230
1
100
AcDbAlignedDimension
 13
16.9975571652435
 23
-119.8805396639637
 33
0
 14
106.8863336208607
 24
-120.571834378193
 34
0
100
AcDbRotatedDimension
  0
ENDSEC
  0
SECTION
  2
OBJECTS
  0
DICTIONARY
  5
C
330
0
100
AcDbDictionary
281
    1
  3
ACAD_GROUP
350
D
  3
ACAD_IMAGE_DICT
350
10E
  0
DICTIONARY
  5
D
330
C
100
AcDbDictionary
281
    1
  0
IMAGEDEF_REACTOR
  5
BF
330
C0
100
AcDbRasterImageDefReactor
 90
    2
330
C0
  0
DICTIONARY
  5
10E
330
C
100
AcDbDictionary
281
    1
  3
Yoshida_Hamono_ZDP-189_Gyuto_Black
350
BE
  0
IMAGEDEF
  5
BE
102
{ACAD_REACTORS
330
BF
102
}
100
AcDbRasterImageDef
 90
    0
  1
C:/Users/Markus Moisio/Google Drive/Git/Public-DIY/DIY Japanese kitchen knives/Yoshida_Hamono_ZDP-189_Gyuto_Black.jpeg
 10
2048
 20
1092
 11
1
 21
1
280
    1
281
    0
  0
ENDSEC
  0
EOF
