999
dxfrw 0.6.3
  0
SECTION
  2
HEADER
  9
$ACADVER
  1
AC1021
  9
$DWGCODEPAGE
  3
ANSI_1252
  9
$INSBASE
 10
0
 20
0
 30
0
  9
$EXTMIN
 10
-162.94125155599
 20
-20
 30
0
  9
$EXTMAX
 10
1000
 20
363.1490642767112
 30
0
  9
$LIMMIN
 10
0
 20
0
  9
$LIMMAX
 10
420
 20
297
  9
$ORTHOMODE
 70
    0
  9
$REGENMODE
 70
    1
  9
$FILLMODE
 70
    1
  9
$QTEXTMODE
 70
    0
  9
$MIRRTEXT
 70
    0
  9
$LTSCALE
 40
1
  9
$ATTMODE
 70
    0
  9
$TEXTSIZE
 40
2.5
  9
$TRACEWID
 40
15.68
  9
$TEXTSTYLE
  7
STANDARD
  9
$CLAYER
  8
0
  9
$CELTYPE
  6
BYLAYER
  9
$CECOLOR
 62
  256
  9
$CELTSCALE
 40
1
  9
$DISPSILH
 70
    0
  9
$DIMSCALE
 40
1
  9
$DIMASZ
 40
2.5
  9
$DIMEXO
 40
0.625
  9
$DIMDLI
 40
3.75
  9
$DIMRND
 40
0
  9
$DIMDLE
 40
0
  9
$DIMEXE
 40
1.25
  9
$DIMTP
 40
0
  9
$DIMTM
 40
0
  9
$DIMTXT
 40
2.5
  9
$DIMCEN
 40
2.5
  9
$DIMTSZ
 40
0
  9
$DIMTOL
 70
    0
  9
$DIMLIM
 70
    0
  9
$DIMTIH
 70
    0
  9
$DIMTOH
 70
    0
  9
$DIMSE1
 70
    0
  9
$DIMSE2
 70
    0
  9
$DIMTAD
 70
    1
  9
$DIMZIN
 70
    8
  9
$DIMBLK
  1

  9
$DIMASO
 70
    1
  9
$DIMSHO
 70
    1
  9
$DIMPOST
  1

  9
$DIMAPOST
  1

  9
$DIMALT
 70
    0
  9
$DIMALTD
 70
    3
  9
$DIMALTF
 40
0.03937
  9
$DIMLFAC
 40
1
  9
$DIMTOFL
 70
    1
  9
$DIMTVP
 40
0
  9
$DIMTIX
 70
    0
  9
$DIMSOXD
 70
    0
  9
$DIMSAH
 70
    0
  9
$DIMBLK1
  1

  9
$DIMBLK2
  1

  9
$DIMSTYLE
  2
STANDARD
  9
$DIMCLRD
 70
    0
  9
$DIMCLRE
 70
    0
  9
$DIMCLRT
 70
    0
  9
$DIMTFAC
 40
1
  9
$DIMGAP
 40
0.625
  9
$DIMJUST
 70
    0
  9
$DIMSD1
 70
    0
  9
$DIMSD2
 70
    0
  9
$DIMTOLJ
 70
    0
  9
$DIMTZIN
 70
    8
  9
$DIMALTZ
 70
    0
  9
$DIMALTTZ
 70
    0
  9
$DIMUPT
 70
    0
  9
$DIMDEC
 70
    2
  9
$DIMTDEC
 70
    2
  9
$DIMALTU
 70
    2
  9
$DIMALTTD
 70
    3
  9
$DIMTXSTY
  7
STANDARD
  9
$DIMAUNIT
 70
    0
  9
$DIMADEC
 70
    0
  9
$DIMALTRND
 40
0
  9
$DIMAZIN
 70
    0
  9
$DIMDSEP
 70
   44
  9
$DIMATFIT
 70
    3
  9
$DIMFRAC
 70
    0
  9
$DIMLDRBLK
  1
STANDARD
  9
$DIMLUNIT
 70
    2
  9
$DIMLWD
 70
   -2
  9
$DIMLWE
 70
   -2
  9
$DIMTMOVE
 70
    0
  9
$DIMFXL
 40
1
  9
$DIMFXLON
 70
    0
  9
$DIMJOGANG
 40
0.7854
  9
$DIMTFILL
 70
    0
  9
$DIMTFILLCLR
 70
    0
  9
$DIMARCSYM
 70
    0
  9
$DIMLTYPE
  6

  9
$DIMLTEX1
  6

  9
$DIMLTEX2
  6

  9
$LUNITS
 70
    2
  9
$LUPREC
 70
    4
  9
$SKETCHINC
 40
1
  9
$FILLETRAD
 40
0
  9
$AUNITS
 70
    0
  9
$AUPREC
 70
    2
  9
$MENU
  1
.
  9
$ELEVATION
 40
0
  9
$PELEVATION
 40
0
  9
$THICKNESS
 40
0
  9
$LIMCHECK
 70
    0
  9
$CHAMFERA
 40
0
  9
$CHAMFERB
 40
0
  9
$CHAMFERC
 40
0
  9
$CHAMFERD
 40
0
  9
$SKPOLY
 70
    0
  9
$USRTIMER
 70
    1
  9
$ANGBASE
 50
0
  9
$ANGDIR
 70
    0
  9
$PDMODE
 70
   34
  9
$PDSIZE
 40
0
  9
$PLINEWID
 40
0
  9
$SPLFRAME
 70
    0
  9
$SPLINETYPE
 70
    2
  9
$SPLINESEGS
 70
    8
  9
$HANDSEED
  5
20000
  9
$SURFTAB1
 70
    6
  9
$SURFTAB2
 70
    6
  9
$SURFTYPE
 70
    6
  9
$SURFU
 70
    6
  9
$SURFV
 70
    6
  9
$UCSBASE
  2

  9
$UCSNAME
  2

  9
$UCSORG
 10
0
 20
0
 30
0
  9
$UCSXDIR
 10
1
 20
0
 30
0
  9
$UCSYDIR
 10
0
 20
1
 30
0
  9
$UCSORTHOREF
  2

  9
$UCSORTHOVIEW
 70
    0
  9
$UCSORGTOP
 10
0
 20
0
 30
0
  9
$UCSORGBOTTOM
 10
0
 20
0
 30
0
  9
$UCSORGLEFT
 10
0
 20
0
 30
0
  9
$UCSORGRIGHT
 10
0
 20
0
 30
0
  9
$UCSORGFRONT
 10
0
 20
0
 30
0
  9
$UCSORGBACK
 10
0
 20
0
 30
0
  9
$PUCSBASE
  2

  9
$PUCSNAME
  2

  9
$PUCSORG
 10
0
 20
0
 30
0
  9
$PUCSXDIR
 10
1
 20
0
 30
0
  9
$PUCSYDIR
 10
0
 20
1
 30
0
  9
$PUCSORTHOREF
  2

  9
$PUCSORTHOVIEW
 70
    0
  9
$PUCSORGTOP
 10
0
 20
0
 30
0
  9
$PUCSORGBOTTOM
 10
0
 20
0
 30
0
  9
$PUCSORGLEFT
 10
0
 20
0
 30
0
  9
$PUCSORGRIGHT
 10
0
 20
0
 30
0
  9
$PUCSORGFRONT
 10
0
 20
0
 30
0
  9
$PUCSORGBACK
 10
0
 20
0
 30
0
  9
$USERI1
 70
    0
  9
$USERI2
 70
    0
  9
$USERI3
 70
    0
  9
$USERI4
 70
    0
  9
$USERI5
 70
    0
  9
$USERR1
 40
0
  9
$USERR2
 40
0
  9
$USERR3
 40
0
  9
$USERR4
 40
0
  9
$USERR5
 40
0
  9
$WORLDVIEW
 70
    1
  9
$SHADEDGE
 70
    3
  9
$SHADEDIF
 70
   70
  9
$TILEMODE
 70
    1
  9
$MAXACTVP
 70
   64
  9
$PINSBASE
 10
105.500145161033
 20
75.57917535390445
 30
0
  9
$PLIMCHECK
 70
    0
  9
$PEXTMIN
 10
0
 20
0
 30
0
  9
$PEXTMAX
 10
0
 20
0
 30
0
  9
$GRIDMODE
 70
    1
  9
$SNAPSTYLE
 70
    0
  9
$PLIMMIN
 10
0
 20
0
  9
$PLIMMAX
 10
297
 20
210
  9
$UNITMODE
 70
    0
  9
$VISRETAIN
 70
    1
  9
$PLINEGEN
 70
    0
  9
$PSLTSCALE
 70
    1
  9
$TREEDEPTH
 70
 3020
  9
$CMLSTYLE
  2
Standard
  9
$CMLJUST
 70
    0
  9
$CMLSCALE
 40
20
  9
$PROXYGRAPHICS
 70
    1
  9
$MEASUREMENT
 70
    1
  9
$CELWEIGHT
370
   -1
  9
$ENDCAPS
280
    0
  9
$JOINSTYLE
280
    0
  9
$LWDISPLAY
290
    0
  9
$INSUNITS
 70
    4
  9
$HYPERLINKBASE
  1

  9
$STYLESHEET
  1

  9
$XEDIT
290
    1
  9
$CEPSNTYPE
380
    0
  9
$PSTYLEMODE
290
    1
  9
$EXTNAMES
290
    1
  9
$PSVPSCALE
 40
0.5
  9
$OLESTARTUP
290
    0
  9
$SORTENTS
280
  127
  9
$INDEXCTL
280
    0
  9
$HIDETEXT
280
    1
  9
$XCLIPFRAME
290
    0
  9
$HALOGAP
280
    0
  9
$OBSCOLOR
 70
  257
  9
$OBSLTYPE
280
    0
  9
$INTERSECTIONDISPLAY
280
    0
  9
$INTERSECTIONCOLOR
 70
  257
  9
$DIMASSOC
280
    1
  9
$PROJECTNAME
  1

  9
$CAMERADISPLAY
290
    0
  9
$LENSLENGTH
 40
50
  9
$CAMERAHEIGHT
 40
0
  9
$STEPSPERSEC
 40
2
  9
$STEPSIZE
 40
50
  9
$3DDWFPREC
 40
2
  9
$PSOLWIDTH
 40
5
  9
$PSOLHEIGHT
 40
80
  9
$LOFTANG1
 40
1.570796326794897
  9
$LOFTANG2
 40
1.570796326794897
  9
$LOFTMAG1
 40
0
  9
$LOFTMAG2
 40
0
  9
$LOFTPARAM
 70
    7
  9
$LOFTNORMALS
280
    1
  9
$LATITUDE
 40
1
  9
$LONGITUDE
 40
1
  9
$NORTHDIRECTION
 40
0
  9
$TIMEZONE
 70
-8000
  9
$LIGHTGLYPHDISPLAY
280
    1
  9
$TILEMODELIGHTSYNCH
280
    1
  9
$SOLIDHIST
280
    1
  9
$SHOWHIST
280
    1
  9
$DWFFRAME
280
    2
  9
$DGNFRAME
280
    0
  9
$REALWORLDSCALE
290
    1
  9
$INTERFERECOLOR
 62
    1
  9
$CSHADOW
280
    0
  9
$SHADOWPLANELOCATION
 40
0
  0
ENDSEC
  0
SECTION
  2
CLASSES
  0
ENDSEC
  0
SECTION
  2
TABLES
  0
TABLE
  2
VPORT
  5
8
330
0
100
AcDbSymbolTable
 70
    1
  0
VPORT
  5
31
330
2
100
AcDbSymbolTableRecord
100
AcDbViewportTableRecord
  2
*ACTIVE
 70
    0
 10
0
 20
0
 11
1
 21
1
 12
184.6428475549057
 22
89.06549188086461
 13
0
 23
0
 14
10
 24
10
 15
10
 25
10
 16
0
 26
0
 36
1
 17
0
 27
0
 37
0
 40
219.3027677443931
 41
1.852490421455939
 42
50
 43
0
 44
0
 50
0
 51
0
 71
    0
 72
  100
 73
    1
 74
    3
 75
    0
 76
    1
 77
    0
 78
    0
281
    0
 65
    1
110
0
120
0
130
0
111
1
121
0
131
0
112
0
122
1
132
0
 79
    0
146
0
348
10020
 60
    7
 61
    5
292
1
282
    1
141
0
142
0
 63
  250
421
3358443
  0
ENDTAB
  0
TABLE
  2
LTYPE
  5
5
330
0
100
AcDbSymbolTable
 70
    4
  0
LTYPE
  5
14
330
5
100
AcDbSymbolTableRecord
100
AcDbLinetypeTableRecord
  2
ByBlock
 70
    0
  3

 72
   65
 73
    0
 40
0
  0
LTYPE
  5
15
330
5
100
AcDbSymbolTableRecord
100
AcDbLinetypeTableRecord
  2
ByLayer
 70
    0
  3

 72
   65
 73
    0
 40
0
  0
LTYPE
  5
16
330
5
100
AcDbSymbolTableRecord
100
AcDbLinetypeTableRecord
  2
Continuous
 70
    0
  3
Solid line
 72
   65
 73
    0
 40
0
  0
LTYPE
  5
32
330
5
100
AcDbSymbolTableRecord
100
AcDbLinetypeTableRecord
  2
DOT
 70
    0
  3
Dot . . . . . . . . . . . . . . . . . . . . . .
 72
   65
 73
    2
 40
6.35
 49
0
 74
    0
 49
-6.35
 74
    0
  0
LTYPE
  5
33
330
5
100
AcDbSymbolTableRecord
100
AcDbLinetypeTableRecord
  2
DOTTINY
 70
    0
  3
Dot (.15x) .....................................
 72
   65
 73
    2
 40
0.9525
 49
0
 74
    0
 49
-0.9525
 74
    0
  0
LTYPE
  5
34
330
5
100
AcDbSymbolTableRecord
100
AcDbLinetypeTableRecord
  2
DOT2
 70
    0
  3
Dot (.5x) .....................................
 72
   65
 73
    2
 40
3.175
 49
0
 74
    0
 49
-3.175
 74
    0
  0
LTYPE
  5
35
330
5
100
AcDbSymbolTableRecord
100
AcDbLinetypeTableRecord
  2
DOTX2
 70
    0
  3
Dot (2x) .  .  .  .  .  .  .  .  .  .  .  .  .
 72
   65
 73
    2
 40
12.7
 49
0
 74
    0
 49
-12.7
 74
    0
  0
LTYPE
  5
36
330
5
100
AcDbSymbolTableRecord
100
AcDbLinetypeTableRecord
  2
DASHED
 70
    0
  3
Dashed _ _ _ _ _ _ _ _ _ _ _ _ _ _ _ _ _
 72
   65
 73
    2
 40
19.05
 49
12.7
 74
    0
 49
-6.35
 74
    0
  0
LTYPE
  5
37
330
5
100
AcDbSymbolTableRecord
100
AcDbLinetypeTableRecord
  2
DASHEDTINY
 70
    0
  3
Dashed (.15x) _ _ _ _ _ _ _ _ _ _ _ _ _ _ _ _ _
 72
   65
 73
    2
 40
2.8575
 49
1.905
 74
    0
 49
-0.9525
 74
    0
  0
LTYPE
  5
38
330
5
100
AcDbSymbolTableRecord
100
AcDbLinetypeTableRecord
  2
DASHED2
 70
    0
  3
Dashed (.5x) _ _ _ _ _ _ _ _ _ _ _ _ _ _ _ _ _
 72
   65
 73
    2
 40
9.524999999999999
 49
6.35
 74
    0
 49
-3.175
 74
    0
  0
LTYPE
  5
39
330
5
100
AcDbSymbolTableRecord
100
AcDbLinetypeTableRecord
  2
DASHEDX2
 70
    0
  3
Dashed (2x) ____  ____  ____  ____  ____  ___
 72
   65
 73
    2
 40
38.09999999999999
 49
25.4
 74
    0
 49
-12.7
 74
    0
  0
LTYPE
  5
3A
330
5
100
AcDbSymbolTableRecord
100
AcDbLinetypeTableRecord
  2
DASHDOT
 70
    0
  3
Dash dot __ . __ . __ . __ . __ . __ . __ . __
 72
   65
 73
    4
 40
25.4
 49
12.7
 74
    0
 49
-6.35
 74
    0
 49
0
 74
    0
 49
-6.35
 74
    0
  0
LTYPE
  5
3B
330
5
100
AcDbSymbolTableRecord
100
AcDbLinetypeTableRecord
  2
DASHDOTTINY
 70
    0
  3
Dash dot (.15x) _._._._._._._._._._._._._._._.
 72
   65
 73
    4
 40
3.81
 49
1.905
 74
    0
 49
-0.9525
 74
    0
 49
0
 74
    0
 49
-0.9525
 74
    0
  0
LTYPE
  5
3C
330
5
100
AcDbSymbolTableRecord
100
AcDbLinetypeTableRecord
  2
DASHDOT2
 70
    0
  3
Dash dot (.5x) _._._._._._._._._._._._._._._.
 72
   65
 73
    4
 40
12.7
 49
6.35
 74
    0
 49
-3.175
 74
    0
 49
0
 74
    0
 49
-3.175
 74
    0
  0
LTYPE
  5
3D
330
5
100
AcDbSymbolTableRecord
100
AcDbLinetypeTableRecord
  2
DASHDOTX2
 70
    0
  3
Dash dot (2x) ____  .  ____  .  ____  .  ___
 72
   65
 73
    4
 40
50.8
 49
25.4
 74
    0
 49
-12.7
 74
    0
 49
0
 74
    0
 49
-12.7
 74
    0
  0
LTYPE
  5
3E
330
5
100
AcDbSymbolTableRecord
100
AcDbLinetypeTableRecord
  2
DIVIDE
 70
    0
  3
Divide ____ . . ____ . . ____ . . ____ . . ____
 72
   65
 73
    6
 40
31.75
 49
12.7
 74
    0
 49
-6.35
 74
    0
 49
0
 74
    0
 49
-6.35
 74
    0
 49
0
 74
    0
 49
-6.35
 74
    0
  0
LTYPE
  5
3F
330
5
100
AcDbSymbolTableRecord
100
AcDbLinetypeTableRecord
  2
DIVIDETINY
 70
    0
  3
Divide (.15x) __..__..__..__..__..__..__..__.._
 72
   65
 73
    6
 40
4.7625
 49
1.905
 74
    0
 49
-0.9525
 74
    0
 49
0
 74
    0
 49
-0.9525
 74
    0
 49
0
 74
    0
 49
-0.9525
 74
    0
  0
LTYPE
  5
40
330
5
100
AcDbSymbolTableRecord
100
AcDbLinetypeTableRecord
  2
DIVIDE2
 70
    0
  3
Divide (.5x) __..__..__..__..__..__..__..__.._
 72
   65
 73
    6
 40
15.875
 49
6.35
 74
    0
 49
-3.175
 74
    0
 49
0
 74
    0
 49
-3.175
 74
    0
 49
0
 74
    0
 49
-3.175
 74
    0
  0
LTYPE
  5
41
330
5
100
AcDbSymbolTableRecord
100
AcDbLinetypeTableRecord
  2
DIVIDEX2
 70
    0
  3
Divide (2x) ________  .  .  ________  .  .  _
 72
   65
 73
    6
 40
63.5
 49
25.4
 74
    0
 49
-12.7
 74
    0
 49
0
 74
    0
 49
-12.7
 74
    0
 49
0
 74
    0
 49
-12.7
 74
    0
  0
LTYPE
  5
42
330
5
100
AcDbSymbolTableRecord
100
AcDbLinetypeTableRecord
  2
BORDER
 70
    0
  3
Border __ __ . __ __ . __ __ . __ __ . __ __ .
 72
   65
 73
    6
 40
44.45
 49
12.7
 74
    0
 49
-6.35
 74
    0
 49
12.7
 74
    0
 49
-6.35
 74
    0
 49
0
 74
    0
 49
-6.35
 74
    0
  0
LTYPE
  5
43
330
5
100
AcDbSymbolTableRecord
100
AcDbLinetypeTableRecord
  2
BORDERTINY
 70
    0
  3
Border (.15x) __.__.__.__.__.__.__.__.__.__.__.
 72
   65
 73
    6
 40
6.6675
 49
1.905
 74
    0
 49
-0.9525
 74
    0
 49
1.905
 74
    0
 49
-0.9525
 74
    0
 49
0
 74
    0
 49
-0.9525
 74
    0
  0
LTYPE
  5
44
330
5
100
AcDbSymbolTableRecord
100
AcDbLinetypeTableRecord
  2
BORDER2
 70
    0
  3
Border (.5x) __.__.__.__.__.__.__.__.__.__.__.
 72
   65
 73
    6
 40
22.225
 49
6.35
 74
    0
 49
-3.175
 74
    0
 49
6.35
 74
    0
 49
-3.175
 74
    0
 49
0
 74
    0
 49
-3.175
 74
    0
  0
LTYPE
  5
45
330
5
100
AcDbSymbolTableRecord
100
AcDbLinetypeTableRecord
  2
BORDERX2
 70
    0
  3
Border (2x) ____  ____  .  ____  ____  .  ___
 72
   65
 73
    6
 40
88.89999999999999
 49
25.4
 74
    0
 49
-12.7
 74
    0
 49
25.4
 74
    0
 49
-12.7
 74
    0
 49
0
 74
    0
 49
-12.7
 74
    0
  0
LTYPE
  5
46
330
5
100
AcDbSymbolTableRecord
100
AcDbLinetypeTableRecord
  2
CENTER
 70
    0
  3
Center ____ _ ____ _ ____ _ ____ _ ____ _ ____
 72
   65
 73
    4
 40
50.8
 49
31.75
 74
    0
 49
-6.35
 74
    0
 49
6.35
 74
    0
 49
-6.35
 74
    0
  0
LTYPE
  5
47
330
5
100
AcDbSymbolTableRecord
100
AcDbLinetypeTableRecord
  2
CENTERTINY
 70
    0
  3
Center (.15x) ___ _ ___ _ ___ _ ___ _ ___ _ ___
 72
   65
 73
    4
 40
7.62
 49
4.7625
 74
    0
 49
-0.9525
 74
    0
 49
0.9525
 74
    0
 49
-0.9525
 74
    0
  0
LTYPE
  5
48
330
5
100
AcDbSymbolTableRecord
100
AcDbLinetypeTableRecord
  2
CENTER2
 70
    0
  3
Center (.5x) ___ _ ___ _ ___ _ ___ _ ___ _ ___
 72
   65
 73
    4
 40
28.575
 49
19.05
 74
    0
 49
-3.175
 74
    0
 49
3.175
 74
    0
 49
-3.175
 74
    0
  0
LTYPE
  5
49
330
5
100
AcDbSymbolTableRecord
100
AcDbLinetypeTableRecord
  2
CENTERX2
 70
    0
  3
Center (2x) ________  __  ________  __  _____
 72
   65
 73
    4
 40
101.6
 49
63.5
 74
    0
 49
-12.7
 74
    0
 49
12.7
 74
    0
 49
-12.7
 74
    0
  0
ENDTAB
  0
TABLE
  2
LAYER
  5
2
330
0
100
AcDbSymbolTable
 70
    1
  0
LAYER
  5
10
330
2
100
AcDbSymbolTableRecord
100
AcDbLayerTableRecord
  2
0
 70
    0
 62
    7
  6
CONTINUOUS
370
   25
390
F
  0
LAYER
  5
4A
330
2
100
AcDbSymbolTableRecord
100
AcDbLayerTableRecord
  2
Articulated part - 0 degree
 70
    0
 62
   56
420
8421376
  6
CONTINUOUS
370
   25
390
F
  0
LAYER
  5
4B
330
2
100
AcDbSymbolTableRecord
100
AcDbLayerTableRecord
  2
File and bar
 70
    0
 62
   16
420
8388608
  6
CONTINUOUS
370
   25
390
F
  0
ENDTAB
  0
TABLE
  2
STYLE
  5
3
330
0
100
AcDbSymbolTable
 70
    3
  0
STYLE
  5
4C
330
2
100
AcDbSymbolTableRecord
100
AcDbTextStyleTableRecord
  2
Standard
 70
    0
 40
0
 41
1
 50
0
 71
    0
 42
1
  3
txt
  4

  0
ENDTAB
  0
TABLE
  2
VIEW
  5
6
330
0
100
AcDbSymbolTable
 70
    0
  0
ENDTAB
  0
TABLE
  2
UCS
  5
7
330
0
100
AcDbSymbolTable
 70
    0
  0
ENDTAB
  0
TABLE
  2
APPID
  5
9
330
0
100
AcDbSymbolTable
 70
    1
  0
APPID
  5
12
330
9
100
AcDbSymbolTableRecord
100
AcDbRegAppTableRecord
  2
ACAD
 70
    0
  0
APPID
  5
4D
330
9
100
AcDbSymbolTableRecord
100
AcDbRegAppTableRecord
  2
LibreCad
 70
    0
  0
ENDTAB
  0
TABLE
  2
DIMSTYLE
  5
A
330
0
100
AcDbSymbolTable
 70
    1
100
AcDbDimStyleTable
 71
    1
  0
DIMSTYLE
105
4E
330
A
100
AcDbSymbolTableRecord
100
AcDbDimStyleTableRecord
  2
Standard
 70
    0
 40
1
 41
2.5
 42
0.625
 43
0.38
 44
1.25
 45
0
 46
0
 47
0
 48
0
 49
1
140
2.5
141
0.09
142
0
143
25.4
144
1
145
0
146
1
147
0.625
148
0
 71
    0
 72
    0
 73
    0
 74
    1
 75
    0
 76
    0
 77
    0
 78
    8
 79
    0
170
    0
171
    2
172
    0
173
    0
174
    0
175
    0
176
    0
177
    0
178
    0
179
    0
271
    2
272
    4
273
    2
274
    2
275
    0
276
    0
277
    2
278
   44
279
    0
280
    0
281
    0
282
    0
283
    1
284
    0
285
    0
286
    0
288
    0
289
    3
340
STANDARD
341

371
   -2
372
   -2
  0
ENDTAB
  0
TABLE
  2
BLOCK_RECORD
  5
1
330
0
100
AcDbSymbolTable
 70
    2
  0
BLOCK_RECORD
  5
1F
330
1
100
AcDbSymbolTableRecord
100
AcDbBlockTableRecord
  2
*Model_Space
 70
    0
280
    1
281
    0
  0
BLOCK_RECORD
  5
1E
330
1
100
AcDbSymbolTableRecord
100
AcDbBlockTableRecord
  2
*Paper_Space
 70
    0
280
    1
281
    0
  0
BLOCK_RECORD
  5
4F
330
1
100
AcDbSymbolTableRecord
100
AcDbBlockTableRecord
  2
*D1
 70
    0
280
    1
281
    0
  0
BLOCK_RECORD
  5
52
330
1
100
AcDbSymbolTableRecord
100
AcDbBlockTableRecord
  2
*D2
 70
    0
280
    1
281
    0
  0
ENDTAB
  0
ENDSEC
  0
SECTION
  2
BLOCKS
  0
BLOCK
  5
20
330
1F
100
AcDbEntity
  8
0
100
AcDbBlockBegin
  2
*Model_Space
 70
    0
 10
0
 20
0
 30
0
  3
*Model_Space
  1

  0
ENDBLK
  5
21
330
1F
100
AcDbEntity
  8
0
100
AcDbBlockEnd
  0
BLOCK
  5
1C
330
1B
100
AcDbEntity
  8
0
100
AcDbBlockBegin
  2
*Paper_Space
 70
    0
 10
0
 20
0
 30
0
  3
*Paper_Space
  1

  0
ENDBLK
  5
1D
330
1F
100
AcDbEntity
  8
0
100
AcDbBlockEnd
  0
BLOCK
  5
50
330
4F
100
AcDbEntity
  8
0
100
AcDbBlockBegin
  2
*D1
 70
    1
 10
0
 20
0
  3
*D1
  1

  0
LINE
  5
55
100
AcDbEntity
  8
Articulated part - 0 degree
  6
ByBlock
 62
    0
370
   -2
100
AcDbLine
 10
721.2685915384003
 20
182.4847284654133
 11
728.7314084615997
 21
187.5152715345867
  0
SOLID
  5
56
100
AcDbEntity
  8
Articulated part - 0 degree
  6
ByBlock
 62
    0
370
   -2
100
AcDbTrace
 10
721.2685915384003
 20
182.4847284654133
 30
0
 11
723.1089142504043
 21
184.2272855611721
 31
0
 12
723.5742782281737
 22
183.5369175191953
 32
0
 13
723.5742782281737
 23
183.5369175191953
 33
0
  0
SOLID
  5
57
100
AcDbEntity
  8
Articulated part - 0 degree
  6
ByBlock
 62
    0
370
   -2
100
AcDbTrace
 10
728.7314084615997
 20
187.5152715345867
 30
0
 11
726.8910857495957
 21
185.7727144388279
 31
0
 12
726.4257217718263
 22
186.4630824808047
 32
0
 13
726.4257217718263
 23
186.4630824808047
 33
0
  0
MTEXT
  5
58
100
AcDbEntity
  8
Articulated part - 0 degree
  6
CONTINUOUS
 62
    0
370
   -2
100
AcDbMText
 10
723.9519701939222
 20
186.5547535256665
 30
0
 40
2.5
 41
1.111111111111266
 71
    5
 72
    1
  1
9
  7
STANDARD
210
0
220
0
230
1
 50
33.98316109704138
 73
    2
 44
1
  0
ENDBLK
  5
51
330
4F
100
AcDbEntity
  8
0
100
AcDbBlockEnd
  0
BLOCK
  5
53
330
52
100
AcDbEntity
  8
0
100
AcDbBlockBegin
  2
*D2
 70
    1
 10
0
 20
0
  3
*D2
  1

  0
LINE
  5
59
100
AcDbEntity
  8
Articulated part - 0 degree
  6
ByBlock
 62
    0
370
   -2
100
AcDbLine
 10
744.0143575454832
 20
189.5190800398628
 11
755.9856424545168
 21
180.4809199601372
  0
SOLID
  5
5A
100
AcDbEntity
  8
Articulated part - 0 degree
  6
ByBlock
 62
    0
370
   -2
100
AcDbTrace
 10
744.0143575454832
 20
189.5190800398628
 30
0
 11
746.2604015220345
 21
188.3449508426724
 31
0
 12
745.7587418719431
 22
187.680489210478
 32
0
 13
745.7587418719431
 23
187.680489210478
 33
0
  0
SOLID
  5
5B
100
AcDbEntity
  8
Articulated part - 0 degree
  6
ByBlock
 62
    0
370
   -2
100
AcDbTrace
 10
755.9856424545168
 20
180.4809199601372
 30
0
 11
753.7395984779655
 21
181.6550491573276
 31
0
 12
754.2412581280569
 22
182.319510789522
 32
0
 13
754.2412581280569
 23
182.319510789522
 33
0
  0
MTEXT
  5
5C
100
AcDbEntity
  8
Articulated part - 0 degree
  6
CONTINUOUS
 62
    0
370
   -2
100
AcDbMText
 10
751.1297700099657
 20
186.4964106136292
 30
0
 40
2.5
 41
2.500000000000155
 71
    5
 72
    1
  1
15
  7
STANDARD
210
0
220
0
230
1
 50
322.9476832910522
 73
    2
 44
1
  0
ENDBLK
  5
54
330
52
100
AcDbEntity
  8
0
100
AcDbBlockEnd
  0
ENDSEC
  0
SECTION
  2
ENTITIES
  0
ARC
  5
5D
100
AcDbEntity
  8
0
  6
ByLayer
 62
  256
370
   -1
100
AcDbCircle
 10
294.9912063308588
 20
14.38443554610229
 40
6
100
AcDbArc
 50
356.0000000000001
 51
85.99999999999969
  0
LINE
  5
5E
100
AcDbEntity
  8
0
  6
ByLayer
 62
  256
370
   -1
100
AcDbLine
 10
300.4185388424647
 20
5.985384301558944
 11
300.9765906324178
 21
13.96589670363755
  0
LINE
  5
5F
100
AcDbEntity
  8
0
  6
ByLayer
 62
  256
370
   -1
100
AcDbLine
 10
0.7307849220527303
 20
20.92694212323759
 11
294.0146156984411
 21
0.4185388424647485
  0
ARC
  5
60
100
AcDbEntity
  8
0
  6
ByLayer
 62
  256
370
   -1
100
AcDbCircle
 10
294.4331545409058
 20
6.403923144023693
 40
6
100
AcDbArc
 50
266.0000000000002
 51
356
  0
LINE
  5
61
100
AcDbEntity
  8
0
  6
ByLayer
 62
  256
370
   -1
100
AcDbLine
 10
850
 20
20
 11
850
 21
0
  0
ARC
  5
62
100
AcDbEntity
  8
0
  6
ByLayer
 62
  256
370
   -1
100
AcDbCircle
 10
894
 20
-14
 40
6
100
AcDbArc
 50
270
 51
3.3930057949519e-014
  0
LINE
  5
63
100
AcDbEntity
  8
0
  6
ByLayer
 62
  256
370
   -1
100
AcDbLine
 10
806
 20
-20
 11
894
 21
-20
  0
ARC
  5
64
100
AcDbEntity
  8
0
  6
ByLayer
 62
  256
370
   -1
100
AcDbCircle
 10
806
 20
-14
 40
6
100
AcDbArc
 50
180
 51
270
  0
LINE
  5
65
100
AcDbEntity
  8
0
  6
ByLayer
 62
  256
370
   -1
100
AcDbLine
 10
800
 20
-6.000000000000004
 11
800
 21
-14
  0
ARC
  5
66
100
AcDbEntity
  8
0
  6
ByLayer
 62
  256
370
   -1
100
AcDbCircle
 10
806
 20
-6
 40
6
100
AcDbArc
 50
90
 51
180
  0
LINE
  5
67
100
AcDbEntity
  8
0
  6
ByLayer
 62
  256
370
   -1
100
AcDbLine
 10
900
 20
-5.999999999999996
 11
900
 21
-14
  0
LINE
  5
68
100
AcDbEntity
  8
0
  6
ByLayer
 62
  256
370
   -1
100
AcDbLine
 10
806
 20
0
 11
894
 21
0
  0
ARC
  5
69
100
AcDbEntity
  8
0
  6
ByLayer
 62
  256
370
   -1
100
AcDbCircle
 10
894
 20
-6
 40
6
100
AcDbArc
 50
3.3930057949519e-014
 51
90
  0
ARC
  5
6A
100
AcDbEntity
  8
0
  6
ByLayer
 62
  256
370
   -1
100
AcDbCircle
 10
706
 20
14
 40
6
100
AcDbArc
 50
90
 51
180
  0
LINE
  5
6B
100
AcDbEntity
  8
0
  6
ByLayer
 62
  256
370
   -1
100
AcDbLine
 10
700
 20
14
 11
700
 21
6
  0
ARC
  5
6C
100
AcDbEntity
  8
0
  6
ByLayer
 62
  256
370
   -1
100
AcDbCircle
 10
706
 20
6
 40
6
100
AcDbArc
 50
180
 51
270
  0
LINE
  5
6D
100
AcDbEntity
  8
0
  6
ByLayer
 62
  256
370
   -1
100
AcDbLine
 10
706
 20
0
 11
994
 21
0
  0
ARC
  5
6E
100
AcDbEntity
  8
0
  6
ByLayer
 62
  256
370
   -1
100
AcDbCircle
 10
994
 20
6
 40
6
100
AcDbArc
 50
270
 51
0
  0
LINE
  5
6F
100
AcDbEntity
  8
0
  6
ByLayer
 62
  256
370
   -1
100
AcDbLine
 10
1000
 20
6
 11
1000
 21
14
  0
LINE
  5
70
100
AcDbEntity
  8
0
  6
ByLayer
 62
  256
370
   -1
100
AcDbLine
 10
706
 20
20
 11
994
 21
20
  0
ARC
  5
71
100
AcDbEntity
  8
0
  6
ByLayer
 62
  256
370
   -1
100
AcDbCircle
 10
994
 20
14
 40
6
100
AcDbArc
 50
0
 51
90
  0
ARC
  5
72
100
AcDbEntity
  8
0
  6
DASHEDTINY
 62
  256
370
   -1
100
AcDbCircle
 10
919
 20
14
 40
6
100
AcDbArc
 50
0
 51
90
  0
ARC
  5
73
100
AcDbEntity
  8
0
  6
DASHEDTINY
 62
  256
370
   -1
100
AcDbCircle
 10
781
 20
14
 40
6
100
AcDbArc
 50
90
 51
180
  0
ARC
  5
74
100
AcDbEntity
  8
0
  6
DASHEDTINY
 62
  256
370
   -1
100
AcDbCircle
 10
781
 20
6
 40
6
100
AcDbArc
 50
180
 51
270
  0
ARC
  5
75
100
AcDbEntity
  8
0
  6
DASHEDTINY
 62
  256
370
   -1
100
AcDbCircle
 10
919
 20
6
 40
6
100
AcDbArc
 50
270
 51
0
  0
LINE
  5
76
100
AcDbEntity
  8
0
  6
DASHEDTINY
 62
  256
370
   -1
100
AcDbLine
 10
775
 20
14
 11
775
 21
6.000000000000001
  0
LINE
  5
77
100
AcDbEntity
  8
0
  6
DASHEDTINY
 62
  256
370
   -1
100
AcDbLine
 10
925
 20
6
 11
925
 21
14
  0
ARC
  5
78
100
AcDbEntity
  8
0
  6
ByLayer
 62
  256
370
   -1
100
AcDbCircle
 10
242.3642269465986
 20
93.24761479274837
 40
6
100
AcDbArc
 50
85.99999999999996
 51
176
  0
LINE
  5
79
100
AcDbEntity
  8
0
  6
ByLayer
 62
  256
370
   -1
100
AcDbLine
 10
242.7827657890633
 20
99.2329990943073
 11
250.7632781911419
 21
98.6749473043543
  0
ARC
  5
7A
100
AcDbEntity
  8
0
  6
ByLayer
 62
  256
370
   -1
100
AcDbCircle
 10
250.3447393486771
 20
92.68956300279535
 40
6
100
AcDbArc
 50
355.9999999999998
 51
85.99999999999997
  0
LINE
  5
7B
100
AcDbEntity
  8
0
  6
ByLayer
 62
  256
370
   -1
100
AcDbLine
 10
251.5169269618913
 20
23.43910469240275
 11
256.3301236502361
 21
92.27102416033058
  0
LINE
  5
7C
100
AcDbEntity
  8
0
  6
ByLayer
 62
  256
370
   -1
100
AcDbLine
 10
236.3788426450396
 20
93.66615363521312
 11
231.5656459566948
 21
24.83423416728526
  0
LINE
  5
7D
100
AcDbEntity
  8
0
  6
ByLayer
 62
  256
370
   -1
100
AcDbLine
 10
-0.2212455598383989
 20
7.312271935496625
 11
0.730784922052687
 21
20.92694212323759
  0
ARC
  5
7E
100
AcDbEntity
  8
0
  6
ByLayer
 62
  256
370
   -1
100
AcDbCircle
 10
5.764138741720553
 20
6.893733093031871
 40
6
100
AcDbArc
 50
176
 51
269.2654370361276
  0
LINE
  5
7F
100
AcDbEntity
  8
0
  6
ByLayer
 62
  256
370
   -1
100
AcDbLine
 10
93.82308652148657
 20
-0.2357853616262204
 11
5.687217595271699
 21
0.894226185191112
  0
LINE
  5
80
100
AcDbEntity
  8
0
  6
ByLayer
 62
  256
370
   -1
100
AcDbLine
 10
99.88539196949436
 20
5.345182703749789
 11
100.4871899480351
 21
13.95129474882506
  0
ARC
  5
81
100
AcDbEntity
  8
0
  6
ByLayer
 62
  256
370
   -1
100
AcDbCircle
 10
93.90000766793543
 20
5.763721546214539
 40
6
100
AcDbArc
 50
269.2654370361276
 51
356
  0
CIRCLE
  5
82
100
AcDbEntity
  8
Articulated part - 0 degree
  6
ByLayer
 62
  256
370
   -1
100
AcDbCircle
 10
725
 20
185
 40
4.5
  0
CIRCLE
  5
83
100
AcDbEntity
  8
Articulated part - 0 degree
  6
ByLayer
 62
  256
370
   -1
100
AcDbCircle
 10
750
 20
185
 40
4.5
  0
CIRCLE
  5
84
100
AcDbEntity
  8
Articulated part - 0 degree
  6
ByLayer
 62
  256
370
   -1
100
AcDbCircle
 10
775
 20
185
 40
4.5
  0
CIRCLE
  5
85
100
AcDbEntity
  8
Articulated part - 0 degree
  6
ByLayer
 62
  256
370
   -1
100
AcDbCircle
 10
800
 20
185
 40
4.5
  0
CIRCLE
  5
86
100
AcDbEntity
  8
Articulated part - 0 degree
  6
ByLayer
 62
  256
370
   -1
100
AcDbCircle
 10
825
 20
185
 40
4.5
  0
CIRCLE
  5
87
100
AcDbEntity
  8
Articulated part - 0 degree
  6
ByLayer
 62
  256
370
   -1
100
AcDbCircle
 10
850
 20
185
 40
4.5
  0
CIRCLE
  5
88
100
AcDbEntity
  8
Articulated part - 0 degree
  6
ByLayer
 62
  256
370
   -1
100
AcDbCircle
 10
875
 20
185
 40
4.5
  0
CIRCLE
  5
89
100
AcDbEntity
  8
Articulated part - 0 degree
  6
ByLayer
 62
  256
370
   -1
100
AcDbCircle
 10
900
 20
185
 40
4.5
  0
CIRCLE
  5
8A
100
AcDbEntity
  8
Articulated part - 0 degree
  6
ByLayer
 62
  256
370
   -1
100
AcDbCircle
 10
925
 20
185
 40
4.5
  0
CIRCLE
  5
8B
100
AcDbEntity
  8
Articulated part - 0 degree
  6
ByLayer
 62
  256
370
   -1
100
AcDbCircle
 10
950
 20
185
 40
4.5
  0
CIRCLE
  5
8C
100
AcDbEntity
  8
Articulated part - 0 degree
  6
ByLayer
 62
  256
370
   -1
100
AcDbCircle
 10
975
 20
185
 40
4.5
  0
CIRCLE
  5
8D
100
AcDbEntity
  8
Articulated part - 0 degree
  6
ByLayer
 62
  256
370
   -1
100
AcDbCircle
 10
975
 20
160
 40
4.5
  0
CIRCLE
  5
8E
100
AcDbEntity
  8
Articulated part - 0 degree
  6
ByLayer
 62
  256
370
   -1
100
AcDbCircle
 10
950
 20
160
 40
4.5
  0
CIRCLE
  5
8F
100
AcDbEntity
  8
Articulated part - 0 degree
  6
ByLayer
 62
  256
370
   -1
100
AcDbCircle
 10
925
 20
160
 40
4.5
  0
CIRCLE
  5
90
100
AcDbEntity
  8
Articulated part - 0 degree
  6
ByLayer
 62
  256
370
   -1
100
AcDbCircle
 10
900
 20
160
 40
4.5
  0
CIRCLE
  5
91
100
AcDbEntity
  8
Articulated part - 0 degree
  6
ByLayer
 62
  256
370
   -1
100
AcDbCircle
 10
875
 20
160
 40
4.5
  0
CIRCLE
  5
92
100
AcDbEntity
  8
Articulated part - 0 degree
  6
ByLayer
 62
  256
370
   -1
100
AcDbCircle
 10
850
 20
160
 40
4.5
  0
CIRCLE
  5
93
100
AcDbEntity
  8
Articulated part - 0 degree
  6
ByLayer
 62
  256
370
   -1
100
AcDbCircle
 10
825
 20
160
 40
4.5
  0
CIRCLE
  5
94
100
AcDbEntity
  8
Articulated part - 0 degree
  6
ByLayer
 62
  256
370
   -1
100
AcDbCircle
 10
800
 20
160
 40
4.5
  0
CIRCLE
  5
95
100
AcDbEntity
  8
Articulated part - 0 degree
  6
ByLayer
 62
  256
370
   -1
100
AcDbCircle
 10
775
 20
160
 40
4.5
  0
CIRCLE
  5
96
100
AcDbEntity
  8
Articulated part - 0 degree
  6
ByLayer
 62
  256
370
   -1
100
AcDbCircle
 10
750
 20
160
 40
4.5
  0
CIRCLE
  5
97
100
AcDbEntity
  8
Articulated part - 0 degree
  6
ByLayer
 62
  256
370
   -1
100
AcDbCircle
 10
725
 20
160
 40
4.5
  0
CIRCLE
  5
98
100
AcDbEntity
  8
Articulated part - 0 degree
  6
ByLayer
 62
  256
370
   -1
100
AcDbCircle
 10
725
 20
135
 40
4.5
  0
CIRCLE
  5
99
100
AcDbEntity
  8
Articulated part - 0 degree
  6
ByLayer
 62
  256
370
   -1
100
AcDbCircle
 10
750
 20
135
 40
4.5
  0
CIRCLE
  5
9A
100
AcDbEntity
  8
Articulated part - 0 degree
  6
ByLayer
 62
  256
370
   -1
100
AcDbCircle
 10
775
 20
135
 40
4.5
  0
CIRCLE
  5
9B
100
AcDbEntity
  8
Articulated part - 0 degree
  6
ByLayer
 62
  256
370
   -1
100
AcDbCircle
 10
800
 20
135
 40
4.5
  0
CIRCLE
  5
9C
100
AcDbEntity
  8
Articulated part - 0 degree
  6
ByLayer
 62
  256
370
   -1
100
AcDbCircle
 10
825
 20
135
 40
4.5
  0
CIRCLE
  5
9D
100
AcDbEntity
  8
Articulated part - 0 degree
  6
ByLayer
 62
  256
370
   -1
100
AcDbCircle
 10
850
 20
135
 40
4.5
  0
CIRCLE
  5
9E
100
AcDbEntity
  8
Articulated part - 0 degree
  6
ByLayer
 62
  256
370
   -1
100
AcDbCircle
 10
875
 20
135
 40
4.5
  0
CIRCLE
  5
9F
100
AcDbEntity
  8
Articulated part - 0 degree
  6
ByLayer
 62
  256
370
   -1
100
AcDbCircle
 10
900
 20
135
 40
4.5
  0
CIRCLE
  5
A0
100
AcDbEntity
  8
Articulated part - 0 degree
  6
ByLayer
 62
  256
370
   -1
100
AcDbCircle
 10
925
 20
135
 40
4.5
  0
CIRCLE
  5
A1
100
AcDbEntity
  8
Articulated part - 0 degree
  6
ByLayer
 62
  256
370
   -1
100
AcDbCircle
 10
950
 20
135
 40
4.5
  0
CIRCLE
  5
A2
100
AcDbEntity
  8
Articulated part - 0 degree
  6
ByLayer
 62
  256
370
   -1
100
AcDbCircle
 10
975
 20
135
 40
4.5
  0
CIRCLE
  5
A3
100
AcDbEntity
  8
Articulated part - 0 degree
  6
ByLayer
 62
  256
370
   -1
100
AcDbCircle
 10
725
 20
185
 40
7.5
  0
CIRCLE
  5
A4
100
AcDbEntity
  8
Articulated part - 0 degree
  6
ByLayer
 62
  256
370
   -1
100
AcDbCircle
 10
750
 20
185
 40
7.5
  0
CIRCLE
  5
A5
100
AcDbEntity
  8
Articulated part - 0 degree
  6
ByLayer
 62
  256
370
   -1
100
AcDbCircle
 10
775
 20
185
 40
7.5
  0
CIRCLE
  5
A6
100
AcDbEntity
  8
Articulated part - 0 degree
  6
ByLayer
 62
  256
370
   -1
100
AcDbCircle
 10
800
 20
185
 40
7.5
  0
CIRCLE
  5
A7
100
AcDbEntity
  8
Articulated part - 0 degree
  6
ByLayer
 62
  256
370
   -1
100
AcDbCircle
 10
825
 20
185
 40
7.5
  0
CIRCLE
  5
A8
100
AcDbEntity
  8
Articulated part - 0 degree
  6
ByLayer
 62
  256
370
   -1
100
AcDbCircle
 10
850
 20
185
 40
7.5
  0
CIRCLE
  5
A9
100
AcDbEntity
  8
Articulated part - 0 degree
  6
ByLayer
 62
  256
370
   -1
100
AcDbCircle
 10
875
 20
185
 40
7.5
  0
CIRCLE
  5
AA
100
AcDbEntity
  8
Articulated part - 0 degree
  6
ByLayer
 62
  256
370
   -1
100
AcDbCircle
 10
900
 20
185
 40
7.5
  0
CIRCLE
  5
AB
100
AcDbEntity
  8
Articulated part - 0 degree
  6
ByLayer
 62
  256
370
   -1
100
AcDbCircle
 10
925
 20
185
 40
7.5
  0
CIRCLE
  5
AC
100
AcDbEntity
  8
Articulated part - 0 degree
  6
ByLayer
 62
  256
370
   -1
100
AcDbCircle
 10
950
 20
185
 40
7.5
  0
CIRCLE
  5
AD
100
AcDbEntity
  8
Articulated part - 0 degree
  6
ByLayer
 62
  256
370
   -1
100
AcDbCircle
 10
975
 20
185
 40
7.5
  0
CIRCLE
  5
AE
100
AcDbEntity
  8
Articulated part - 0 degree
  6
ByLayer
 62
  256
370
   -1
100
AcDbCircle
 10
975
 20
160
 40
7.5
  0
CIRCLE
  5
AF
100
AcDbEntity
  8
Articulated part - 0 degree
  6
ByLayer
 62
  256
370
   -1
100
AcDbCircle
 10
950
 20
160
 40
7.5
  0
CIRCLE
  5
B0
100
AcDbEntity
  8
Articulated part - 0 degree
  6
ByLayer
 62
  256
370
   -1
100
AcDbCircle
 10
925
 20
160
 40
7.5
  0
CIRCLE
  5
B1
100
AcDbEntity
  8
Articulated part - 0 degree
  6
ByLayer
 62
  256
370
   -1
100
AcDbCircle
 10
900
 20
160
 40
7.5
  0
CIRCLE
  5
B2
100
AcDbEntity
  8
Articulated part - 0 degree
  6
ByLayer
 62
  256
370
   -1
100
AcDbCircle
 10
875
 20
160
 40
7.5
  0
CIRCLE
  5
B3
100
AcDbEntity
  8
Articulated part - 0 degree
  6
ByLayer
 62
  256
370
   -1
100
AcDbCircle
 10
850
 20
160
 40
7.5
  0
CIRCLE
  5
B4
100
AcDbEntity
  8
Articulated part - 0 degree
  6
ByLayer
 62
  256
370
   -1
100
AcDbCircle
 10
825
 20
160
 40
7.5
  0
CIRCLE
  5
B5
100
AcDbEntity
  8
Articulated part - 0 degree
  6
ByLayer
 62
  256
370
   -1
100
AcDbCircle
 10
800
 20
160
 40
7.5
  0
CIRCLE
  5
B6
100
AcDbEntity
  8
Articulated part - 0 degree
  6
ByLayer
 62
  256
370
   -1
100
AcDbCircle
 10
775
 20
160
 40
7.5
  0
CIRCLE
  5
B7
100
AcDbEntity
  8
Articulated part - 0 degree
  6
ByLayer
 62
  256
370
   -1
100
AcDbCircle
 10
750
 20
160
 40
7.5
  0
CIRCLE
  5
B8
100
AcDbEntity
  8
Articulated part - 0 degree
  6
ByLayer
 62
  256
370
   -1
100
AcDbCircle
 10
725
 20
160
 40
7.5
  0
CIRCLE
  5
B9
100
AcDbEntity
  8
Articulated part - 0 degree
  6
ByLayer
 62
  256
370
   -1
100
AcDbCircle
 10
725
 20
135
 40
7.5
  0
CIRCLE
  5
BA
100
AcDbEntity
  8
Articulated part - 0 degree
  6
ByLayer
 62
  256
370
   -1
100
AcDbCircle
 10
750
 20
135
 40
7.5
  0
CIRCLE
  5
BB
100
AcDbEntity
  8
Articulated part - 0 degree
  6
ByLayer
 62
  256
370
   -1
100
AcDbCircle
 10
775
 20
135
 40
7.5
  0
CIRCLE
  5
BC
100
AcDbEntity
  8
Articulated part - 0 degree
  6
ByLayer
 62
  256
370
   -1
100
AcDbCircle
 10
800
 20
135
 40
7.5
  0
CIRCLE
  5
BD
100
AcDbEntity
  8
Articulated part - 0 degree
  6
ByLayer
 62
  256
370
   -1
100
AcDbCircle
 10
825
 20
135
 40
7.5
  0
CIRCLE
  5
BE
100
AcDbEntity
  8
Articulated part - 0 degree
  6
ByLayer
 62
  256
370
   -1
100
AcDbCircle
 10
850
 20
135
 40
7.5
  0
CIRCLE
  5
BF
100
AcDbEntity
  8
Articulated part - 0 degree
  6
ByLayer
 62
  256
370
   -1
100
AcDbCircle
 10
875
 20
135
 40
7.5
  0
CIRCLE
  5
C0
100
AcDbEntity
  8
Articulated part - 0 degree
  6
ByLayer
 62
  256
370
   -1
100
AcDbCircle
 10
900
 20
135
 40
7.5
  0
CIRCLE
  5
C1
100
AcDbEntity
  8
Articulated part - 0 degree
  6
ByLayer
 62
  256
370
   -1
100
AcDbCircle
 10
925
 20
135
 40
7.5
  0
CIRCLE
  5
C2
100
AcDbEntity
  8
Articulated part - 0 degree
  6
ByLayer
 62
  256
370
   -1
100
AcDbCircle
 10
950
 20
135
 40
7.5
  0
CIRCLE
  5
C3
100
AcDbEntity
  8
Articulated part - 0 degree
  6
ByLayer
 62
  256
370
   -1
100
AcDbCircle
 10
975
 20
135
 40
7.5
  0
ARC
  5
C4
100
AcDbEntity
  8
Articulated part - 0 degree
  6
ByLayer
 62
  256
370
   -1
100
AcDbCircle
 10
710
 20
210
 40
10
100
AcDbArc
 50
90
 51
180.0000000000001
  0
LINE
  5
C5
100
AcDbEntity
  8
Articulated part - 0 degree
  6
ByLayer
 62
  256
370
   -1
100
AcDbLine
 10
700
 20
130
 11
700
 21
210
  0
ARC
  5
C6
100
AcDbEntity
  8
Articulated part - 0 degree
  6
ByLayer
 62
  256
370
   -1
100
AcDbCircle
 10
710
 20
130
 40
10
100
AcDbArc
 50
180
 51
270
  0
LINE
  5
C7
100
AcDbEntity
  8
Articulated part - 0 degree
  6
ByLayer
 62
  256
370
   -1
100
AcDbLine
 10
710
 20
120
 11
990
 21
120
  0
ARC
  5
C8
100
AcDbEntity
  8
Articulated part - 0 degree
  6
ByLayer
 62
  256
370
   -1
100
AcDbCircle
 10
990
 20
130
 40
10
100
AcDbArc
 50
270
 51
0
  0
LINE
  5
C9
100
AcDbEntity
  8
Articulated part - 0 degree
  6
ByLayer
 62
  256
370
   -1
100
AcDbLine
 10
1000
 20
130
 11
1000
 21
210
  0
LINE
  5
CA
100
AcDbEntity
  8
Articulated part - 0 degree
  6
ByLayer
 62
  256
370
   -1
100
AcDbLine
 10
710
 20
220
 11
990
 21
220
  0
ARC
  5
CB
100
AcDbEntity
  8
Articulated part - 0 degree
  6
ByLayer
 62
  256
370
   -1
100
AcDbCircle
 10
990
 20
210
 40
10
100
AcDbArc
 50
0
 51
90
  0
DIMENSION
  5
CC
100
AcDbEntity
  8
Articulated part - 0 degree
  6
ByLayer
 62
  256
370
   -1
100
AcDbDimension
  2
*D1
 10
721.2685915384003
 20
182.4847284654133
 30
0
 11
723.9519701939222
 21
186.5547535256665
 31
0
 70
   35
 71
    5
 72
    0
  3
Standard
 53
0
210
0
220
0
230
1
100
AcDbDiametricDimension
 15
728.7314084615997
 25
187.5152715345867
 35
0
 40
0
  0
DIMENSION
  5
CD
100
AcDbEntity
  8
Articulated part - 0 degree
  6
ByLayer
 62
  256
370
   -1
100
AcDbDimension
  2
*D2
 10
744.0143575454832
 20
189.5190800398628
 30
0
 11
751.1297700099657
 21
186.4964106136292
 31
0
 70
   35
 71
    5
 72
    0
  3
Standard
 53
0
210
0
220
0
230
1
100
AcDbDiametricDimension
 15
755.9856424545168
 25
180.4809199601372
 35
0
 40
0
  0
LINE
  5
CE
100
AcDbEntity
  8
0
  6
ByLayer
 62
  256
370
   -1
100
AcDbLine
 10
2.125914396935208
 20
40.87822312843408
 11
295.4097451733236
 21
20.36981984766123
  0
LINE
  5
CF
100
AcDbEntity
  8
0
  6
ByLayer
 62
  256
370
   -1
100
AcDbLine
 10
2.125914396935208
 20
40.87822312843408
 11
0.7307849220527303
 21
20.92694212323759
  0
LINE
  5
D0
100
AcDbEntity
  8
Articulated part - 0 degree
  6
ByLayer
 62
  256
370
   -1
100
AcDbLine
 10
2.125914396935169
 20
40.87822312843409
 11
3.521043871817679
 21
60.82950413363058
  0
LINE
  5
D1
100
AcDbEntity
  8
Articulated part - 0 degree
  6
ByLayer
 62
  256
370
   -1
100
AcDbLine
 10
2.125914396935169
 20
40.87822312843409
 11
101.8823194229176
 21
33.90257575402156
  0
LINE
  5
D2
100
AcDbEntity
  8
Articulated part - 0 degree
  6
ByLayer
 62
  256
370
   -1
100
AcDbLine
 10
3.869826240538313
 20
65.81732438492969
 11
3.521043871817679
 21
60.82950413363058
  0
LINE
  5
D3
100
AcDbEntity
  8
Articulated part - 0 degree
  6
ByLayer
 62
  256
370
   -1
100
AcDbLine
 10
43.77238825093128
 20
63.02706543516467
 11
43.42360588221064
 21
58.03924518386548
  0
LINE
  5
D4
100
AcDbEntity
  8
Articulated part - 0 degree
  6
ByLayer
 62
  256
370
   -1
100
AcDbLine
 10
43.77238825093128
 20
63.02706543516467
 11
3.869826240538313
 21
65.81732438492969
  0
LINE
  5
D5
100
AcDbEntity
  8
Articulated part - 0 degree
  6
ByLayer
 62
  256
370
   -1
100
AcDbLine
 10
97.29206459624116
 20
54.27239560168279
 11
3.521043871817679
 21
60.82950413363058
  0
ARC
  5
D6
100
AcDbEntity
  8
Articulated part - 0 degree
  6
ByLayer
 62
  256
370
   -1
100
AcDbCircle
 10
96.87352575377641
 20
48.28701130012384
 40
6
100
AcDbArc
 50
355.9999999999999
 51
86
  0
LINE
  5
D7
100
AcDbEntity
  8
Articulated part - 0 degree
  6
ByLayer
 62
  256
370
   -1
100
AcDbLine
 10
3.712874174614026
 20
63.57280527184508
 11
43.61543618500699
 21
60.78254632208004
  0
LINE
  5
D8
100
AcDbEntity
  8
Articulated part - 0 degree
  6
ByLayer
 62
  256
370
   -1
100
AcDbLine
 10
3.677995937741966
 20
63.07402324671517
 11
43.58055794813493
 21
60.28376429695012
  0
LINE
  5
D9
100
AcDbEntity
  8
Articulated part - 0 degree
  6
ByLayer
 62
  256
370
   -1
100
AcDbLine
 10
101.8823194229176
 20
33.90257575402156
 11
102.8589100553354
 21
47.86847245765909
  0
LINE
  5
DA
100
AcDbEntity
  8
File and bar
  6
ByLayer
 62
  256
370
   -1
100
AcDbLine
 10
188.4977947993716
 20
73.79694874218507
 11
188.6390417977495
 21
68.79894421183005
  0
LINE
  5
DB
100
AcDbEntity
  8
File and bar
  6
ByLayer
 62
  256
370
   -1
100
AcDbLine
 10
637.9792097352155
 20
98.50438946905453
 11
-26.75539280200103
 21
79.71853868478425
  0
LINE
  5
DC
100
AcDbEntity
  8
File and bar
  6
ByLayer
 62
  256
370
   -1
100
AcDbLine
 10
638.3182025313228
 20
86.5091785962025
 11
-26.41640000589393
 21
67.72332781193222
  0
LINE
  5
DD
100
AcDbEntity
  8
File and bar
  6
ByLayer
 62
  256
370
   -1
100
AcDbLine
 10
-26.75539280200103
 20
79.71853868478425
 11
-26.41640000589393
 21
67.72332781193222
  0
LINE
  5
DE
100
AcDbEntity
  8
File and bar
  6
ByLayer
 62
  256
370
   -1
100
AcDbLine
 10
637.9792097352155
 20
98.50438946905453
 11
638.3182025313228
 21
86.5091785962025
  0
LINE
  5
DF
100
AcDbEntity
  8
File and bar
  6
ByLayer
 62
  256
370
   -1
100
AcDbLine
 10
188.6390417977495
 20
68.79894421183005
 11
-11.28113941645101
 21
63.14906427671117
  0
LINE
  5
E0
100
AcDbEntity
  8
File and bar
  6
ByLayer
 62
  256
370
   -1
100
AcDbLine
 10
-11.42238641482887
 20
68.14706880706615
 11
-11.28113941645101
 21
63.14906427671117
  0
ENDSEC
  0
SECTION
  2
OBJECTS
  0
DICTIONARY
  5
C
330
0
100
AcDbDictionary
281
    1
  3
ACAD_GROUP
350
D
  0
DICTIONARY
  5
D
330
C
100
AcDbDictionary
281
    1
  0
ENDSEC
  0
EOF
