999
dxfrw 0.6.3
  0
SECTION
  2
HEADER
  9
$ACADVER
  1
AC1021
  9
$DWGCODEPAGE
  3
ANSI_1252
  9
$INSBASE
 10
0
 20
0
 30
0
  9
$EXTMIN
 10
-127
 20
-135
 30
0
  9
$EXTMAX
 10
1154.166666666667
 20
830.125
 30
0
  9
$LIMMIN
 10
0
 20
0
  9
$LIMMAX
 10
420
 20
297
  9
$ORTHOMODE
 70
    0
  9
$REGENMODE
 70
    1
  9
$FILLMODE
 70
    1
  9
$QTEXTMODE
 70
    0
  9
$MIRRTEXT
 70
    0
  9
$LTSCALE
 40
1
  9
$ATTMODE
 70
    0
  9
$TEXTSIZE
 40
2.5
  9
$TRACEWID
 40
15.68
  9
$TEXTSTYLE
  7
STANDARD
  9
$CLAYER
  8
Assembly
  9
$CELTYPE
  6
BYLAYER
  9
$CECOLOR
 62
  256
  9
$CELTSCALE
 40
1
  9
$DISPSILH
 70
    0
  9
$DIMSCALE
 40
2.5
  9
$DIMASZ
 40
2.5
  9
$DIMEXO
 40
2
  9
$DIMDLI
 40
3.75
  9
$DIMRND
 40
0
  9
$DIMDLE
 40
0
  9
$DIMEXE
 40
1.25
  9
$DIMTP
 40
0
  9
$DIMTM
 40
0
  9
$DIMTXT
 40
2.5
  9
$DIMCEN
 40
2.5
  9
$DIMTSZ
 40
0
  9
$DIMTOL
 70
    0
  9
$DIMLIM
 70
    0
  9
$DIMTIH
 70
    0
  9
$DIMTOH
 70
    0
  9
$DIMSE1
 70
    0
  9
$DIMSE2
 70
    0
  9
$DIMTAD
 70
    1
  9
$DIMZIN
 70
    8
  9
$DIMBLK
  1

  9
$DIMASO
 70
    1
  9
$DIMSHO
 70
    1
  9
$DIMPOST
  1

  9
$DIMAPOST
  1

  9
$DIMALT
 70
    0
  9
$DIMALTD
 70
    3
  9
$DIMALTF
 40
0.03937
  9
$DIMLFAC
 40
1
  9
$DIMTOFL
 70
    1
  9
$DIMTVP
 40
0
  9
$DIMTIX
 70
    0
  9
$DIMSOXD
 70
    0
  9
$DIMSAH
 70
    0
  9
$DIMBLK1
  1

  9
$DIMBLK2
  1

  9
$DIMSTYLE
  2
STANDARD
  9
$DIMCLRD
 70
    0
  9
$DIMCLRE
 70
    0
  9
$DIMCLRT
 70
    0
  9
$DIMTFAC
 40
1
  9
$DIMGAP
 40
0.625
  9
$DIMJUST
 70
    0
  9
$DIMSD1
 70
    0
  9
$DIMSD2
 70
    0
  9
$DIMTOLJ
 70
    0
  9
$DIMTZIN
 70
    8
  9
$DIMALTZ
 70
    0
  9
$DIMALTTZ
 70
    0
  9
$DIMUPT
 70
    0
  9
$DIMDEC
 70
    1
  9
$DIMTDEC
 70
    2
  9
$DIMALTU
 70
    2
  9
$DIMALTTD
 70
    3
  9
$DIMTXSTY
  7
STANDARD
  9
$DIMAUNIT
 70
    0
  9
$DIMADEC
 70
    1
  9
$DIMALTRND
 40
0
  9
$DIMAZIN
 70
    0
  9
$DIMDSEP
 70
   44
  9
$DIMATFIT
 70
    3
  9
$DIMFRAC
 70
    0
  9
$DIMLDRBLK
  1
STANDARD
  9
$DIMLUNIT
 70
    2
  9
$DIMLWD
 70
   -2
  9
$DIMLWE
 70
   -2
  9
$DIMTMOVE
 70
    0
  9
$DIMFXL
 40
1
  9
$DIMFXLON
 70
    0
  9
$DIMJOGANG
 40
0.7854
  9
$DIMTFILL
 70
    0
  9
$DIMTFILLCLR
 70
    0
  9
$DIMARCSYM
 70
    0
  9
$DIMLTYPE
  6

  9
$DIMLTEX1
  6

  9
$DIMLTEX2
  6

  9
$LUNITS
 70
    2
  9
$LUPREC
 70
    4
  9
$SKETCHINC
 40
1
  9
$FILLETRAD
 40
0
  9
$AUNITS
 70
    0
  9
$AUPREC
 70
    2
  9
$MENU
  1
.
  9
$ELEVATION
 40
0
  9
$PELEVATION
 40
0
  9
$THICKNESS
 40
0
  9
$LIMCHECK
 70
    0
  9
$CHAMFERA
 40
0
  9
$CHAMFERB
 40
0
  9
$CHAMFERC
 40
0
  9
$CHAMFERD
 40
0
  9
$SKPOLY
 70
    0
  9
$USRTIMER
 70
    1
  9
$ANGBASE
 50
0
  9
$ANGDIR
 70
    0
  9
$PDMODE
 70
   34
  9
$PDSIZE
 40
0
  9
$PLINEWID
 40
0
  9
$SPLFRAME
 70
    0
  9
$SPLINETYPE
 70
    2
  9
$SPLINESEGS
 70
    8
  9
$HANDSEED
  5
20000
  9
$SURFTAB1
 70
    6
  9
$SURFTAB2
 70
    6
  9
$SURFTYPE
 70
    6
  9
$SURFU
 70
    6
  9
$SURFV
 70
    6
  9
$UCSBASE
  2

  9
$UCSNAME
  2

  9
$UCSORG
 10
0
 20
0
 30
0
  9
$UCSXDIR
 10
1
 20
0
 30
0
  9
$UCSYDIR
 10
0
 20
1
 30
0
  9
$UCSORTHOREF
  2

  9
$UCSORTHOVIEW
 70
    0
  9
$UCSORGTOP
 10
0
 20
0
 30
0
  9
$UCSORGBOTTOM
 10
0
 20
0
 30
0
  9
$UCSORGLEFT
 10
0
 20
0
 30
0
  9
$UCSORGRIGHT
 10
0
 20
0
 30
0
  9
$UCSORGFRONT
 10
0
 20
0
 30
0
  9
$UCSORGBACK
 10
0
 20
0
 30
0
  9
$PUCSBASE
  2

  9
$PUCSNAME
  2

  9
$PUCSORG
 10
0
 20
0
 30
0
  9
$PUCSXDIR
 10
1
 20
0
 30
0
  9
$PUCSYDIR
 10
0
 20
1
 30
0
  9
$PUCSORTHOREF
  2

  9
$PUCSORTHOVIEW
 70
    0
  9
$PUCSORGTOP
 10
0
 20
0
 30
0
  9
$PUCSORGBOTTOM
 10
0
 20
0
 30
0
  9
$PUCSORGLEFT
 10
0
 20
0
 30
0
  9
$PUCSORGRIGHT
 10
0
 20
0
 30
0
  9
$PUCSORGFRONT
 10
0
 20
0
 30
0
  9
$PUCSORGBACK
 10
0
 20
0
 30
0
  9
$USERI1
 70
    0
  9
$USERI2
 70
    0
  9
$USERI3
 70
    0
  9
$USERI4
 70
    0
  9
$USERI5
 70
    0
  9
$USERR1
 40
0
  9
$USERR2
 40
0
  9
$USERR3
 40
0
  9
$USERR4
 40
0
  9
$USERR5
 40
0
  9
$WORLDVIEW
 70
    1
  9
$SHADEDGE
 70
    3
  9
$SHADEDIF
 70
   70
  9
$TILEMODE
 70
    1
  9
$MAXACTVP
 70
   64
  9
$PINSBASE
 10
45.07285809622164
 20
25.99735951391063
 30
0
  9
$PLIMCHECK
 70
    0
  9
$PEXTMIN
 10
0
 20
0
 30
0
  9
$PEXTMAX
 10
0
 20
0
 30
0
  9
$GRIDMODE
 70
    1
  9
$SNAPSTYLE
 70
    0
  9
$PLIMMIN
 10
0
 20
0
  9
$PLIMMAX
 10
297
 20
210
  9
$UNITMODE
 70
    0
  9
$VISRETAIN
 70
    1
  9
$PLINEGEN
 70
    0
  9
$PSLTSCALE
 70
    1
  9
$TREEDEPTH
 70
 3020
  9
$CMLSTYLE
  2
Standard
  9
$CMLJUST
 70
    0
  9
$CMLSCALE
 40
20
  9
$PROXYGRAPHICS
 70
    1
  9
$MEASUREMENT
 70
    1
  9
$CELWEIGHT
370
   -1
  9
$ENDCAPS
280
    0
  9
$JOINSTYLE
280
    0
  9
$LWDISPLAY
290
    0
  9
$INSUNITS
 70
    0
  9
$HYPERLINKBASE
  1

  9
$STYLESHEET
  1

  9
$XEDIT
290
    1
  9
$CEPSNTYPE
380
    0
  9
$PSTYLEMODE
290
    1
  9
$EXTNAMES
290
    1
  9
$PSVPSCALE
 40
0.2070662728476781
  9
$OLESTARTUP
290
    0
  9
$SORTENTS
280
  127
  9
$INDEXCTL
280
    0
  9
$HIDETEXT
280
    1
  9
$XCLIPFRAME
290
    0
  9
$HALOGAP
280
    0
  9
$OBSCOLOR
 70
  257
  9
$OBSLTYPE
280
    0
  9
$INTERSECTIONDISPLAY
280
    0
  9
$INTERSECTIONCOLOR
 70
  257
  9
$DIMASSOC
280
    1
  9
$PROJECTNAME
  1

  9
$CAMERADISPLAY
290
    0
  9
$LENSLENGTH
 40
50
  9
$CAMERAHEIGHT
 40
0
  9
$STEPSPERSEC
 40
2
  9
$STEPSIZE
 40
50
  9
$3DDWFPREC
 40
2
  9
$PSOLWIDTH
 40
5
  9
$PSOLHEIGHT
 40
80
  9
$LOFTANG1
 40
1.570796326794897
  9
$LOFTANG2
 40
1.570796326794897
  9
$LOFTMAG1
 40
0
  9
$LOFTMAG2
 40
0
  9
$LOFTPARAM
 70
    7
  9
$LOFTNORMALS
280
    1
  9
$LATITUDE
 40
1
  9
$LONGITUDE
 40
1
  9
$NORTHDIRECTION
 40
0
  9
$TIMEZONE
 70
-8000
  9
$LIGHTGLYPHDISPLAY
280
    1
  9
$TILEMODELIGHTSYNCH
280
    1
  9
$SOLIDHIST
280
    1
  9
$SHOWHIST
280
    1
  9
$DWFFRAME
280
    2
  9
$DGNFRAME
280
    0
  9
$REALWORLDSCALE
290
    1
  9
$INTERFERECOLOR
 62
    1
  9
$CSHADOW
280
    0
  9
$SHADOWPLANELOCATION
 40
0
  0
ENDSEC
  0
SECTION
  2
CLASSES
  0
ENDSEC
  0
SECTION
  2
TABLES
  0
TABLE
  2
VPORT
  5
8
330
0
100
AcDbSymbolTable
 70
    1
  0
VPORT
  5
31
330
2
100
AcDbSymbolTableRecord
100
AcDbViewportTableRecord
  2
*ACTIVE
 70
    0
 10
0
 20
0
 11
1
 21
1
 12
899.3315545972812
 22
386.9514800852628
 13
0
 23
0
 14
10
 24
10
 15
10
 25
10
 16
0
 26
0
 36
1
 17
0
 27
0
 37
0
 40
1016.22759158004
 41
1.693534844668346
 42
50
 43
0
 44
0
 50
0
 51
0
 71
    0
 72
  100
 73
    1
 74
    3
 75
    0
 76
    1
 77
    0
 78
    0
281
    0
 65
    1
110
0
120
0
130
0
111
1
121
0
131
0
112
0
122
1
132
0
 79
    0
146
0
348
10020
 60
    7
 61
    5
292
1
282
    1
141
0
142
0
 63
  250
421
3358443
  0
ENDTAB
  0
TABLE
  2
LTYPE
  5
5
330
0
100
AcDbSymbolTable
 70
    4
  0
LTYPE
  5
14
330
5
100
AcDbSymbolTableRecord
100
AcDbLinetypeTableRecord
  2
ByBlock
 70
    0
  3

 72
   65
 73
    0
 40
0
  0
LTYPE
  5
15
330
5
100
AcDbSymbolTableRecord
100
AcDbLinetypeTableRecord
  2
ByLayer
 70
    0
  3

 72
   65
 73
    0
 40
0
  0
LTYPE
  5
16
330
5
100
AcDbSymbolTableRecord
100
AcDbLinetypeTableRecord
  2
Continuous
 70
    0
  3
Solid line
 72
   65
 73
    0
 40
0
  0
LTYPE
  5
32
330
5
100
AcDbSymbolTableRecord
100
AcDbLinetypeTableRecord
  2
DOT
 70
    0
  3
Dot . . . . . . . . . . . . . . . . . . . . . .
 72
   65
 73
    2
 40
6.35
 49
0
 74
    0
 49
-6.35
 74
    0
  0
LTYPE
  5
33
330
5
100
AcDbSymbolTableRecord
100
AcDbLinetypeTableRecord
  2
DOTTINY
 70
    0
  3
Dot (.15x) .....................................
 72
   65
 73
    2
 40
0.9525
 49
0
 74
    0
 49
-0.9525
 74
    0
  0
LTYPE
  5
34
330
5
100
AcDbSymbolTableRecord
100
AcDbLinetypeTableRecord
  2
DOT2
 70
    0
  3
Dot (.5x) .....................................
 72
   65
 73
    2
 40
3.175
 49
0
 74
    0
 49
-3.175
 74
    0
  0
LTYPE
  5
35
330
5
100
AcDbSymbolTableRecord
100
AcDbLinetypeTableRecord
  2
DOTX2
 70
    0
  3
Dot (2x) .  .  .  .  .  .  .  .  .  .  .  .  .
 72
   65
 73
    2
 40
12.7
 49
0
 74
    0
 49
-12.7
 74
    0
  0
LTYPE
  5
36
330
5
100
AcDbSymbolTableRecord
100
AcDbLinetypeTableRecord
  2
DASHED
 70
    0
  3
Dashed _ _ _ _ _ _ _ _ _ _ _ _ _ _ _ _ _
 72
   65
 73
    2
 40
19.05
 49
12.7
 74
    0
 49
-6.35
 74
    0
  0
LTYPE
  5
37
330
5
100
AcDbSymbolTableRecord
100
AcDbLinetypeTableRecord
  2
DASHEDTINY
 70
    0
  3
Dashed (.15x) _ _ _ _ _ _ _ _ _ _ _ _ _ _ _ _ _
 72
   65
 73
    2
 40
2.8575
 49
1.905
 74
    0
 49
-0.9525
 74
    0
  0
LTYPE
  5
38
330
5
100
AcDbSymbolTableRecord
100
AcDbLinetypeTableRecord
  2
DASHED2
 70
    0
  3
Dashed (.5x) _ _ _ _ _ _ _ _ _ _ _ _ _ _ _ _ _
 72
   65
 73
    2
 40
9.524999999999999
 49
6.35
 74
    0
 49
-3.175
 74
    0
  0
LTYPE
  5
39
330
5
100
AcDbSymbolTableRecord
100
AcDbLinetypeTableRecord
  2
DASHEDX2
 70
    0
  3
Dashed (2x) ____  ____  ____  ____  ____  ___
 72
   65
 73
    2
 40
38.09999999999999
 49
25.4
 74
    0
 49
-12.7
 74
    0
  0
LTYPE
  5
3A
330
5
100
AcDbSymbolTableRecord
100
AcDbLinetypeTableRecord
  2
DASHDOT
 70
    0
  3
Dash dot __ . __ . __ . __ . __ . __ . __ . __
 72
   65
 73
    4
 40
25.4
 49
12.7
 74
    0
 49
-6.35
 74
    0
 49
0
 74
    0
 49
-6.35
 74
    0
  0
LTYPE
  5
3B
330
5
100
AcDbSymbolTableRecord
100
AcDbLinetypeTableRecord
  2
DASHDOTTINY
 70
    0
  3
Dash dot (.15x) _._._._._._._._._._._._._._._.
 72
   65
 73
    4
 40
3.81
 49
1.905
 74
    0
 49
-0.9525
 74
    0
 49
0
 74
    0
 49
-0.9525
 74
    0
  0
LTYPE
  5
3C
330
5
100
AcDbSymbolTableRecord
100
AcDbLinetypeTableRecord
  2
DASHDOT2
 70
    0
  3
Dash dot (.5x) _._._._._._._._._._._._._._._.
 72
   65
 73
    4
 40
12.7
 49
6.35
 74
    0
 49
-3.175
 74
    0
 49
0
 74
    0
 49
-3.175
 74
    0
  0
LTYPE
  5
3D
330
5
100
AcDbSymbolTableRecord
100
AcDbLinetypeTableRecord
  2
DASHDOTX2
 70
    0
  3
Dash dot (2x) ____  .  ____  .  ____  .  ___
 72
   65
 73
    4
 40
50.8
 49
25.4
 74
    0
 49
-12.7
 74
    0
 49
0
 74
    0
 49
-12.7
 74
    0
  0
LTYPE
  5
3E
330
5
100
AcDbSymbolTableRecord
100
AcDbLinetypeTableRecord
  2
DIVIDE
 70
    0
  3
Divide ____ . . ____ . . ____ . . ____ . . ____
 72
   65
 73
    6
 40
31.75
 49
12.7
 74
    0
 49
-6.35
 74
    0
 49
0
 74
    0
 49
-6.35
 74
    0
 49
0
 74
    0
 49
-6.35
 74
    0
  0
LTYPE
  5
3F
330
5
100
AcDbSymbolTableRecord
100
AcDbLinetypeTableRecord
  2
DIVIDETINY
 70
    0
  3
Divide (.15x) __..__..__..__..__..__..__..__.._
 72
   65
 73
    6
 40
4.7625
 49
1.905
 74
    0
 49
-0.9525
 74
    0
 49
0
 74
    0
 49
-0.9525
 74
    0
 49
0
 74
    0
 49
-0.9525
 74
    0
  0
LTYPE
  5
40
330
5
100
AcDbSymbolTableRecord
100
AcDbLinetypeTableRecord
  2
DIVIDE2
 70
    0
  3
Divide (.5x) __..__..__..__..__..__..__..__.._
 72
   65
 73
    6
 40
15.875
 49
6.35
 74
    0
 49
-3.175
 74
    0
 49
0
 74
    0
 49
-3.175
 74
    0
 49
0
 74
    0
 49
-3.175
 74
    0
  0
LTYPE
  5
41
330
5
100
AcDbSymbolTableRecord
100
AcDbLinetypeTableRecord
  2
DIVIDEX2
 70
    0
  3
Divide (2x) ________  .  .  ________  .  .  _
 72
   65
 73
    6
 40
63.5
 49
25.4
 74
    0
 49
-12.7
 74
    0
 49
0
 74
    0
 49
-12.7
 74
    0
 49
0
 74
    0
 49
-12.7
 74
    0
  0
LTYPE
  5
42
330
5
100
AcDbSymbolTableRecord
100
AcDbLinetypeTableRecord
  2
BORDER
 70
    0
  3
Border __ __ . __ __ . __ __ . __ __ . __ __ .
 72
   65
 73
    6
 40
44.45
 49
12.7
 74
    0
 49
-6.35
 74
    0
 49
12.7
 74
    0
 49
-6.35
 74
    0
 49
0
 74
    0
 49
-6.35
 74
    0
  0
LTYPE
  5
43
330
5
100
AcDbSymbolTableRecord
100
AcDbLinetypeTableRecord
  2
BORDERTINY
 70
    0
  3
Border (.15x) __.__.__.__.__.__.__.__.__.__.__.
 72
   65
 73
    6
 40
6.6675
 49
1.905
 74
    0
 49
-0.9525
 74
    0
 49
1.905
 74
    0
 49
-0.9525
 74
    0
 49
0
 74
    0
 49
-0.9525
 74
    0
  0
LTYPE
  5
44
330
5
100
AcDbSymbolTableRecord
100
AcDbLinetypeTableRecord
  2
BORDER2
 70
    0
  3
Border (.5x) __.__.__.__.__.__.__.__.__.__.__.
 72
   65
 73
    6
 40
22.225
 49
6.35
 74
    0
 49
-3.175
 74
    0
 49
6.35
 74
    0
 49
-3.175
 74
    0
 49
0
 74
    0
 49
-3.175
 74
    0
  0
LTYPE
  5
45
330
5
100
AcDbSymbolTableRecord
100
AcDbLinetypeTableRecord
  2
BORDERX2
 70
    0
  3
Border (2x) ____  ____  .  ____  ____  .  ___
 72
   65
 73
    6
 40
88.89999999999999
 49
25.4
 74
    0
 49
-12.7
 74
    0
 49
25.4
 74
    0
 49
-12.7
 74
    0
 49
0
 74
    0
 49
-12.7
 74
    0
  0
LTYPE
  5
46
330
5
100
AcDbSymbolTableRecord
100
AcDbLinetypeTableRecord
  2
CENTER
 70
    0
  3
Center ____ _ ____ _ ____ _ ____ _ ____ _ ____
 72
   65
 73
    4
 40
50.8
 49
31.75
 74
    0
 49
-6.35
 74
    0
 49
6.35
 74
    0
 49
-6.35
 74
    0
  0
LTYPE
  5
47
330
5
100
AcDbSymbolTableRecord
100
AcDbLinetypeTableRecord
  2
CENTERTINY
 70
    0
  3
Center (.15x) ___ _ ___ _ ___ _ ___ _ ___ _ ___
 72
   65
 73
    4
 40
7.619999999999999
 49
4.7625
 74
    0
 49
-0.9525
 74
    0
 49
0.9525
 74
    0
 49
-0.9525
 74
    0
  0
LTYPE
  5
48
330
5
100
AcDbSymbolTableRecord
100
AcDbLinetypeTableRecord
  2
CENTER2
 70
    0
  3
Center (.5x) ___ _ ___ _ ___ _ ___ _ ___ _ ___
 72
   65
 73
    4
 40
28.575
 49
19.05
 74
    0
 49
-3.175
 74
    0
 49
3.175
 74
    0
 49
-3.175
 74
    0
  0
LTYPE
  5
49
330
5
100
AcDbSymbolTableRecord
100
AcDbLinetypeTableRecord
  2
CENTERX2
 70
    0
  3
Center (2x) ________  __  ________  __  _____
 72
   65
 73
    4
 40
101.6
 49
63.5
 74
    0
 49
-12.7
 74
    0
 49
12.7
 74
    0
 49
-12.7
 74
    0
  0
ENDTAB
  0
TABLE
  2
LAYER
  5
2
330
0
100
AcDbSymbolTable
 70
    1
  0
LAYER
  5
10
330
2
100
AcDbSymbolTableRecord
100
AcDbLayerTableRecord
  2
0
 70
    0
 62
    7
  6
CONTINUOUS
370
    0
390
F
  0
LAYER
  5
4A
330
2
100
AcDbSymbolTableRecord
100
AcDbLayerTableRecord
  2
Assembly
 70
    0
 62
    3
  6
CONTINUOUS
370
   25
390
F
  0
LAYER
  5
4B
330
2
100
AcDbSymbolTableRecord
100
AcDbLayerTableRecord
  2
Bottom/top part
 70
    0
 62
    7
  6
CONTINUOUS
370
   25
390
F
  0
LAYER
  5
4C
330
2
100
AcDbSymbolTableRecord
100
AcDbLayerTableRecord
  2
Door
 70
    0
 62
    6
  6
CONTINUOUS
370
    0
390
F
  0
LAYER
  5
4D
330
2
100
AcDbSymbolTableRecord
100
AcDbLayerTableRecord
  2
Endwall
 70
    0
 62
    4
  6
CONTINUOUS
370
   25
390
F
  0
LAYER
  5
4E
330
2
100
AcDbSymbolTableRecord
100
AcDbLayerTableRecord
  2
Sides
 70
    0
 62
    2
  6
CONTINUOUS
370
   25
390
F
  0
LAYER
  5
4F
330
2
100
AcDbSymbolTableRecord
100
AcDbLayerTableRecord
  2
Single brick
 70
    0
 62
  216
420
8388736
  6
CONTINUOUS
370
   25
390
F
  0
LAYER
  5
50
330
2
100
AcDbSymbolTableRecord
100
AcDbLayerTableRecord
  2
Wire groove
 70
    0
 62
  253
420
10526884
  6
CONTINUOUS
370
   25
390
F
  0
ENDTAB
  0
TABLE
  2
STYLE
  5
3
330
0
100
AcDbSymbolTable
 70
    3
  0
STYLE
  5
51
330
2
100
AcDbSymbolTableRecord
100
AcDbTextStyleTableRecord
  2
unicode
 70
    0
 40
0
 41
1
 50
0
 71
    0
 42
1
  3
unicode
  4

  0
STYLE
  5
52
330
2
100
AcDbSymbolTableRecord
100
AcDbTextStyleTableRecord
  2
Standard
 70
    0
 40
0
 41
1
 50
0
 71
    0
 42
1
  3
txt
  4

  0
ENDTAB
  0
TABLE
  2
VIEW
  5
6
330
0
100
AcDbSymbolTable
 70
    0
  0
ENDTAB
  0
TABLE
  2
UCS
  5
7
330
0
100
AcDbSymbolTable
 70
    0
  0
ENDTAB
  0
TABLE
  2
APPID
  5
9
330
0
100
AcDbSymbolTable
 70
    1
  0
APPID
  5
12
330
9
100
AcDbSymbolTableRecord
100
AcDbRegAppTableRecord
  2
ACAD
 70
    0
  0
APPID
  5
53
330
9
100
AcDbSymbolTableRecord
100
AcDbRegAppTableRecord
  2
LibreCad
 70
    0
  0
ENDTAB
  0
TABLE
  2
DIMSTYLE
  5
A
330
0
100
AcDbSymbolTable
 70
    1
100
AcDbDimStyleTable
 71
    1
  0
DIMSTYLE
105
54
330
A
100
AcDbSymbolTableRecord
100
AcDbDimStyleTableRecord
  2
Standard
 70
    0
 40
2.5
 41
2.5
 42
2
 43
0.38
 44
1.25
 45
0
 46
0
 47
0
 48
0
 49
1
140
2.5
141
0.09
142
0
143
25.4
144
1
145
0
146
1
147
0.625
148
0
 71
    0
 72
    0
 73
    0
 74
    1
 75
    0
 76
    0
 77
    0
 78
    8
 79
    0
170
    0
171
    2
172
    0
173
    0
174
    0
175
    0
176
    0
177
    0
178
    0
179
    1
271
    1
272
    4
273
    2
274
    2
275
    0
276
    0
277
    2
278
   44
279
    0
280
    0
281
    0
282
    0
283
    1
284
    0
285
    0
286
    0
288
    0
289
    3
340
STANDARD
341

371
   -2
372
   -2
  0
ENDTAB
  0
TABLE
  2
BLOCK_RECORD
  5
1
330
0
100
AcDbSymbolTable
 70
    2
  0
BLOCK_RECORD
  5
1F
330
1
100
AcDbSymbolTableRecord
100
AcDbBlockTableRecord
  2
*Model_Space
 70
    0
280
    1
281
    0
  0
BLOCK_RECORD
  5
1E
330
1
100
AcDbSymbolTableRecord
100
AcDbBlockTableRecord
  2
*Paper_Space
 70
    0
280
    1
281
    0
  0
BLOCK_RECORD
  5
55
330
1
100
AcDbSymbolTableRecord
100
AcDbBlockTableRecord
  2
*D13
 70
    0
280
    1
281
    0
  0
BLOCK_RECORD
  5
58
330
1
100
AcDbSymbolTableRecord
100
AcDbBlockTableRecord
  2
*D7
 70
    0
280
    1
281
    0
  0
BLOCK_RECORD
  5
5B
330
1
100
AcDbSymbolTableRecord
100
AcDbBlockTableRecord
  2
*D6
 70
    0
280
    1
281
    0
  0
BLOCK_RECORD
  5
5E
330
1
100
AcDbSymbolTableRecord
100
AcDbBlockTableRecord
  2
*D2
 70
    0
280
    1
281
    0
  0
BLOCK_RECORD
  5
61
330
1
100
AcDbSymbolTableRecord
100
AcDbBlockTableRecord
  2
*D5
 70
    0
280
    1
281
    0
  0
BLOCK_RECORD
  5
64
330
1
100
AcDbSymbolTableRecord
100
AcDbBlockTableRecord
  2
*D10
 70
    0
280
    1
281
    0
  0
BLOCK_RECORD
  5
67
330
1
100
AcDbSymbolTableRecord
100
AcDbBlockTableRecord
  2
*D11
 70
    0
280
    1
281
    0
  0
BLOCK_RECORD
  5
6A
330
1
100
AcDbSymbolTableRecord
100
AcDbBlockTableRecord
  2
*D9
 70
    0
280
    1
281
    0
  0
BLOCK_RECORD
  5
6D
330
1
100
AcDbSymbolTableRecord
100
AcDbBlockTableRecord
  2
*D8
 70
    0
280
    1
281
    0
  0
BLOCK_RECORD
  5
70
330
1
100
AcDbSymbolTableRecord
100
AcDbBlockTableRecord
  2
*D14
 70
    0
280
    1
281
    0
  0
BLOCK_RECORD
  5
73
330
1
100
AcDbSymbolTableRecord
100
AcDbBlockTableRecord
  2
*D12
 70
    0
280
    1
281
    0
  0
BLOCK_RECORD
  5
76
330
1
100
AcDbSymbolTableRecord
100
AcDbBlockTableRecord
  2
*D1
 70
    0
280
    1
281
    0
  0
BLOCK_RECORD
  5
79
330
1
100
AcDbSymbolTableRecord
100
AcDbBlockTableRecord
  2
*D3
 70
    0
280
    1
281
    0
  0
BLOCK_RECORD
  5
7C
330
1
100
AcDbSymbolTableRecord
100
AcDbBlockTableRecord
  2
*D4
 70
    0
280
    1
281
    0
  0
ENDTAB
  0
ENDSEC
  0
SECTION
  2
BLOCKS
  0
BLOCK
  5
20
330
1F
100
AcDbEntity
  8
0
100
AcDbBlockBegin
  2
*Model_Space
 70
    0
 10
0
 20
0
 30
0
  3
*Model_Space
  1

  0
ENDBLK
  5
21
330
1F
100
AcDbEntity
  8
0
100
AcDbBlockEnd
  0
BLOCK
  5
1C
330
1B
100
AcDbEntity
  8
0
100
AcDbBlockBegin
  2
*Paper_Space
 70
    0
 10
0
 20
0
 30
0
  3
*Paper_Space
  1

  0
ENDBLK
  5
1D
330
1F
100
AcDbEntity
  8
0
100
AcDbBlockEnd
  0
BLOCK
  5
56
330
55
100
AcDbEntity
  8
0
100
AcDbBlockBegin
  2
*D13
 70
    1
 10
0
 20
0
  3
*D13
  1

  0
LINE
  5
7F
100
AcDbEntity
  8
Single brick
  6
ByBlock
 62
    0
370
   -2
100
AcDbLine
 10
680
 20
700
 11
680
 21
805
  0
SOLID
  5
80
100
AcDbEntity
  8
Single brick
  6
ByBlock
 62
    0
370
   -2
100
AcDbTrace
 10
680
 20
700
 30
0
 11
678.9592883555679
 21
706.25
 31
0
 12
681.0407116444321
 22
706.25
 32
0
 13
681.0407116444321
 23
706.25
 33
0
  0
SOLID
  5
81
100
AcDbEntity
  8
Single brick
  6
ByBlock
 62
    0
370
   -2
100
AcDbTrace
 10
680
 20
805
 30
0
 11
681.0407116444321
 21
798.75
 31
0
 12
678.9592883555679
 22
798.75
 32
0
 13
678.9592883555679
 23
798.75
 33
0
  0
MTEXT
  5
82
100
AcDbEntity
  8
Single brick
  6
CONTINUOUS
 62
    0
370
   -2
100
AcDbMText
 10
673
 20
752.5
 30
0
 40
6.25
 41
11.1111111111115
 71
    5
 72
    1
  1
105
  7
STANDARD
210
0
220
0
230
1
 50
90
 73
    2
 44
1
  0
LINE
  5
83
100
AcDbEntity
  8
Single brick
  6
ByBlock
 62
    0
370
   -2
100
AcDbLine
 10
695
 20
700
 11
676.875
 21
700
  0
LINE
  5
84
100
AcDbEntity
  8
Single brick
  6
ByBlock
 62
    0
370
   -2
100
AcDbLine
 10
695
 20
805
 11
676.875
 21
805
  0
ENDBLK
  5
57
330
55
100
AcDbEntity
  8
0
100
AcDbBlockEnd
  0
BLOCK
  5
59
330
58
100
AcDbEntity
  8
0
100
AcDbBlockBegin
  2
*D7
 70
    1
 10
0
 20
0
  3
*D7
  1

  0
LINE
  5
85
100
AcDbEntity
  8
Wire groove
  6
ByBlock
 62
    0
370
   -2
100
AcDbLine
 10
20
 20
742.6789321881346
 11
20
 21
762.3210678118655
  0
SOLID
  5
86
100
AcDbEntity
  8
Wire groove
  6
ByBlock
 62
    0
370
   -2
100
AcDbTrace
 10
20
 20
742.6789321881346
 30
0
 11
18.9592883555679
 21
748.9289321881346
 31
0
 12
21.0407116444321
 22
748.9289321881346
 32
0
 13
21.0407116444321
 23
748.9289321881346
 33
0
  0
SOLID
  5
87
100
AcDbEntity
  8
Wire groove
  6
ByBlock
 62
    0
370
   -2
100
AcDbTrace
 10
20
 20
762.3210678118655
 30
0
 11
21.0407116444321
 21
756.0710678118655
 31
0
 12
18.9592883555679
 22
756.0710678118655
 32
0
 13
18.9592883555679
 23
756.0710678118655
 33
0
  0
MTEXT
  5
88
100
AcDbEntity
  8
Wire groove
  6
CONTINUOUS
 62
    0
370
   -2
100
AcDbMText
 10
15.3125
 20
752.5
 30
0
 40
6.25
 41
13.54166666666706
 71
    5
 72
    1
  1
19,6
  7
STANDARD
210
0
220
0
230
1
 50
90
 73
    2
 44
1
  0
LINE
  5
89
100
AcDbEntity
  8
Wire groove
  6
ByBlock
 62
    0
370
   -2
100
AcDbLine
 10
44.92893218813452
 20
742.6789321881346
 11
16.875
 21
742.6789321881346
  0
LINE
  5
8A
100
AcDbEntity
  8
Wire groove
  6
ByBlock
 62
    0
370
   -2
100
AcDbLine
 10
44.92893218813452
 20
762.3210678118655
 11
16.875
 21
762.3210678118655
  0
ENDBLK
  5
5A
330
58
100
AcDbEntity
  8
0
100
AcDbBlockEnd
  0
BLOCK
  5
5C
330
5B
100
AcDbEntity
  8
0
100
AcDbBlockBegin
  2
*D6
 70
    1
 10
0
 20
0
  3
*D6
  1

  0
LINE
  5
8B
100
AcDbEntity
  8
Wire groove
  6
ByBlock
 62
    0
370
   -2
100
AcDbLine
 10
407
 20
790
 11
49.92893218813452
 21
790
  0
SOLID
  5
8C
100
AcDbEntity
  8
Wire groove
  6
ByBlock
 62
    0
370
   -2
100
AcDbTrace
 10
407
 20
790
 30
0
 11
400.75
 21
788.9592883555679
 31
0
 12
400.75
 22
791.0407116444321
 32
0
 13
400.75
 23
791.0407116444321
 33
0
  0
SOLID
  5
8D
100
AcDbEntity
  8
Wire groove
  6
ByBlock
 62
    0
370
   -2
100
AcDbTrace
 10
49.92893218813452
 20
790
 30
0
 11
56.17893218813452
 21
791.0407116444321
 31
0
 12
56.17893218813452
 22
788.9592883555679
 32
0
 13
56.17893218813452
 23
788.9592883555679
 33
0
  0
MTEXT
  5
8E
100
AcDbEntity
  8
Wire groove
  6
CONTINUOUS
 62
    0
370
   -2
100
AcDbMText
 10
228.4644660940673
 20
794.6875
 30
0
 40
6.25
 41
18.40277777777855
 71
    5
 72
    1
  1
357,1
  7
STANDARD
210
0
220
0
230
1
 50
360
 73
    2
 44
1
  0
LINE
  5
8F
100
AcDbEntity
  8
Wire groove
  6
ByBlock
 62
    0
370
   -2
100
AcDbLine
 10
407
 20
770.25
 11
407
 21
793.125
  0
LINE
  5
90
100
AcDbEntity
  8
Wire groove
  6
ByBlock
 62
    0
370
   -2
100
AcDbLine
 10
49.92893218813452
 20
767.3210678118655
 11
49.92893218813452
 21
793.125
  0
ENDBLK
  5
5D
330
5B
100
AcDbEntity
  8
0
100
AcDbBlockEnd
  0
BLOCK
  5
5F
330
5E
100
AcDbEntity
  8
0
100
AcDbBlockBegin
  2
*D2
 70
    1
 10
0
 20
0
  3
*D2
  1

  0
LINE
  5
91
100
AcDbEntity
  8
Assembly
  6
ByBlock
 62
    0
370
   -2
100
AcDbLine
 10
805
 20
0
 11
943.125
 21
0
  0
LINE
  5
92
100
AcDbEntity
  8
Assembly
  6
ByBlock
 62
    0
370
   -2
100
AcDbLine
 10
805
 20
50
 11
943.125
 21
50
  0
LINE
  5
93
100
AcDbEntity
  8
Assembly
  6
ByBlock
 62
    0
370
   -2
100
AcDbLine
 10
940
 20
0
 11
940
 21
50
  0
SOLID
  5
94
100
AcDbEntity
  8
Assembly
  6
ByBlock
 62
    0
370
   -2
100
AcDbTrace
 10
940
 20
0
 30
0
 11
938.9592883555679
 21
6.25
 31
0
 12
941.0407116444321
 22
6.25
 32
0
 13
941.0407116444321
 23
6.25
 33
0
  0
SOLID
  5
95
100
AcDbEntity
  8
Assembly
  6
ByBlock
 62
    0
370
   -2
100
AcDbTrace
 10
940
 20
50
 30
0
 11
941.0407116444321
 21
43.75
 31
0
 12
938.9592883555679
 22
43.75
 32
0
 13
938.9592883555679
 23
43.75
 33
0
  0
MTEXT
  5
96
100
AcDbEntity
  8
Assembly
  6
CONTINUOUS
 62
    0
370
   -2
100
AcDbMText
 10
933
 20
25
 30
0
 40
6.25
 41
7.638888888889277
 71
    5
 72
    1
  1
50
  7
STANDARD
210
0
220
0
230
1
 50
90
 73
    2
 44
1
  0
ENDBLK
  5
60
330
5E
100
AcDbEntity
  8
0
100
AcDbBlockEnd
  0
BLOCK
  5
62
330
61
100
AcDbEntity
  8
0
100
AcDbBlockBegin
  2
*D5
 70
    1
 10
0
 20
0
  3
*D5
  1

  0
LINE
  5
97
100
AcDbEntity
  8
Wire groove
  6
ByBlock
 62
    0
370
   -2
100
AcDbLine
 10
49.92893218813452
 20
710
 11
407
 21
710
  0
SOLID
  5
98
100
AcDbEntity
  8
Wire groove
  6
ByBlock
 62
    0
370
   -2
100
AcDbTrace
 10
49.92893218813452
 20
710
 30
0
 11
56.17893218813452
 21
711.0407116444321
 31
0
 12
56.17893218813452
 22
708.9592883555679
 32
0
 13
56.17893218813452
 23
708.9592883555679
 33
0
  0
SOLID
  5
99
100
AcDbEntity
  8
Wire groove
  6
ByBlock
 62
    0
370
   -2
100
AcDbTrace
 10
407
 20
710
 30
0
 11
400.75
 21
708.9592883555679
 31
0
 12
400.75
 22
711.0407116444321
 32
0
 13
400.75
 23
711.0407116444321
 33
0
  0
MTEXT
  5
9A
100
AcDbEntity
  8
Wire groove
  6
CONTINUOUS
 62
    0
370
   -2
100
AcDbMText
 10
228.4644660940673
 20
714.6875
 30
0
 40
6.25
 41
18.40277777777855
 71
    5
 72
    1
  1
357,1
  7
STANDARD
210
0
220
0
230
1
 50
0
 73
    2
 44
1
  0
LINE
  5
9B
100
AcDbEntity
  8
Wire groove
  6
ByBlock
 62
    0
370
   -2
100
AcDbLine
 10
49.92893218813452
 20
737.6789321881346
 11
49.92893218813452
 21
706.875
  0
LINE
  5
9C
100
AcDbEntity
  8
Wire groove
  6
ByBlock
 62
    0
370
   -2
100
AcDbLine
 10
407
 20
734.75
 11
407
 21
706.875
  0
ENDBLK
  5
63
330
61
100
AcDbEntity
  8
0
100
AcDbBlockEnd
  0
BLOCK
  5
65
330
64
100
AcDbEntity
  8
0
100
AcDbBlockBegin
  2
*D10
 70
    1
 10
0
 20
0
  3
*D10
  1

  0
LINE
  5
9D
100
AcDbEntity
  8
Wire groove
  6
ByBlock
 62
    0
370
   -2
100
AcDbLine
 10
476.5
 20
790
 11
439
 21
790
  0
SOLID
  5
9E
100
AcDbEntity
  8
Wire groove
  6
ByBlock
 62
    0
370
   -2
100
AcDbTrace
 10
476.5
 20
790
 30
0
 11
470.25
 21
788.9592883555679
 31
0
 12
470.25
 22
791.0407116444321
 32
0
 13
470.25
 23
791.0407116444321
 33
0
  0
SOLID
  5
9F
100
AcDbEntity
  8
Wire groove
  6
ByBlock
 62
    0
370
   -2
100
AcDbTrace
 10
439
 20
790
 30
0
 11
445.25
 21
791.0407116444321
 31
0
 12
445.25
 22
788.9592883555679
 32
0
 13
445.25
 23
788.9592883555679
 33
0
  0
MTEXT
  5
A0
100
AcDbEntity
  8
Wire groove
  6
CONTINUOUS
 62
    0
370
   -2
100
AcDbMText
 10
457.75
 20
794.6875
 30
0
 40
6.25
 41
14.93055555555633
 71
    5
 72
    1
  1
37,5
  7
STANDARD
210
0
220
0
230
1
 50
360
 73
    2
 44
1
  0
LINE
  5
A1
100
AcDbEntity
  8
Wire groove
  6
ByBlock
 62
    0
370
   -2
100
AcDbLine
 10
476.5
 20
770.25
 11
476.5
 21
793.125
  0
LINE
  5
A2
100
AcDbEntity
  8
Wire groove
  6
ByBlock
 62
    0
370
   -2
100
AcDbLine
 10
439
 20
775.25
 11
439
 21
793.125
  0
ENDBLK
  5
66
330
64
100
AcDbEntity
  8
0
100
AcDbBlockEnd
  0
BLOCK
  5
68
330
67
100
AcDbEntity
  8
0
100
AcDbBlockBegin
  2
*D11
 70
    1
 10
0
 20
0
  3
*D11
  1

  0
LINE
  5
A3
100
AcDbEntity
  8
Single brick
  6
ByBlock
 62
    0
370
   -2
100
AcDbLine
 10
700
 20
820
 11
917
 21
820
  0
SOLID
  5
A4
100
AcDbEntity
  8
Single brick
  6
ByBlock
 62
    0
370
   -2
100
AcDbTrace
 10
700
 20
820
 30
0
 11
706.25
 21
821.0407116444321
 31
0
 12
706.25
 22
818.9592883555679
 32
0
 13
706.25
 23
818.9592883555679
 33
0
  0
SOLID
  5
A5
100
AcDbEntity
  8
Single brick
  6
ByBlock
 62
    0
370
   -2
100
AcDbTrace
 10
917
 20
820
 30
0
 11
910.75
 21
818.9592883555679
 31
0
 12
910.75
 22
821.0407116444321
 32
0
 13
910.75
 23
821.0407116444321
 33
0
  0
MTEXT
  5
A6
100
AcDbEntity
  8
Single brick
  6
CONTINUOUS
 62
    0
370
   -2
100
AcDbMText
 10
808.5
 20
827
 30
0
 40
6.25
 41
11.11111111111111
 71
    5
 72
    1
  1
217
  7
STANDARD
210
0
220
0
230
1
 50
0
 73
    2
 44
1
  0
LINE
  5
A7
100
AcDbEntity
  8
Single brick
  6
ByBlock
 62
    0
370
   -2
100
AcDbLine
 10
700
 20
810
 11
700
 21
823.125
  0
LINE
  5
A8
100
AcDbEntity
  8
Single brick
  6
ByBlock
 62
    0
370
   -2
100
AcDbLine
 10
917
 20
810
 11
917
 21
823.125
  0
ENDBLK
  5
69
330
67
100
AcDbEntity
  8
0
100
AcDbBlockEnd
  0
BLOCK
  5
6B
330
6A
100
AcDbEntity
  8
0
100
AcDbBlockBegin
  2
*D9
 70
    1
 10
0
 20
0
  3
*D9
  1

  0
LINE
  5
A9
100
AcDbEntity
  8
Wire groove
  6
ByBlock
 62
    0
370
   -2
100
AcDbLine
 10
544
 20
790
 11
506.5
 21
790
  0
SOLID
  5
AA
100
AcDbEntity
  8
Wire groove
  6
ByBlock
 62
    0
370
   -2
100
AcDbTrace
 10
544
 20
790
 30
0
 11
537.75
 21
788.9592883555679
 31
0
 12
537.75
 22
791.0407116444321
 32
0
 13
537.75
 23
791.0407116444321
 33
0
  0
SOLID
  5
AB
100
AcDbEntity
  8
Wire groove
  6
ByBlock
 62
    0
370
   -2
100
AcDbTrace
 10
506.5
 20
790
 30
0
 11
512.75
 21
791.0407116444321
 31
0
 12
512.75
 22
788.9592883555679
 32
0
 13
512.75
 23
788.9592883555679
 33
0
  0
MTEXT
  5
AC
100
AcDbEntity
  8
Wire groove
  6
CONTINUOUS
 62
    0
370
   -2
100
AcDbMText
 10
525.25
 20
794.6875
 30
0
 40
6.25
 41
14.93055555555633
 71
    5
 72
    1
  1
37,5
  7
STANDARD
210
0
220
0
230
1
 50
360
 73
    2
 44
1
  0
LINE
  5
AD
100
AcDbEntity
  8
Wire groove
  6
ByBlock
 62
    0
370
   -2
100
AcDbLine
 10
544
 20
775.25
 11
544
 21
793.125
  0
LINE
  5
AE
100
AcDbEntity
  8
Wire groove
  6
ByBlock
 62
    0
370
   -2
100
AcDbLine
 10
506.5
 20
770.25
 11
506.5
 21
793.125
  0
ENDBLK
  5
6C
330
6A
100
AcDbEntity
  8
0
100
AcDbBlockEnd
  0
BLOCK
  5
6E
330
6D
100
AcDbEntity
  8
0
100
AcDbBlockBegin
  2
*D8
 70
    1
 10
0
 20
0
  3
*D8
  1

  0
LINE
  5
AF
100
AcDbEntity
  8
Wire groove
  6
ByBlock
 62
    0
370
   -2
100
AcDbLine
 10
439
 20
710
 11
544
 21
710
  0
SOLID
  5
B0
100
AcDbEntity
  8
Wire groove
  6
ByBlock
 62
    0
370
   -2
100
AcDbTrace
 10
439
 20
710
 30
0
 11
445.25
 21
711.0407116444321
 31
0
 12
445.25
 22
708.9592883555679
 32
0
 13
445.25
 23
708.9592883555679
 33
0
  0
SOLID
  5
B1
100
AcDbEntity
  8
Wire groove
  6
ByBlock
 62
    0
370
   -2
100
AcDbTrace
 10
544
 20
710
 30
0
 11
537.75
 21
708.9592883555679
 31
0
 12
537.75
 22
711.0407116444321
 32
0
 13
537.75
 23
711.0407116444321
 33
0
  0
MTEXT
  5
B2
100
AcDbEntity
  8
Wire groove
  6
CONTINUOUS
 62
    0
370
   -2
100
AcDbMText
 10
491.5
 20
714.6875
 30
0
 40
6.25
 41
11.1111111111115
 71
    5
 72
    1
  1
105
  7
STANDARD
210
0
220
0
230
1
 50
0
 73
    2
 44
1
  0
LINE
  5
B3
100
AcDbEntity
  8
Wire groove
  6
ByBlock
 62
    0
370
   -2
100
AcDbLine
 10
439
 20
729.75
 11
439
 21
706.875
  0
LINE
  5
B4
100
AcDbEntity
  8
Wire groove
  6
ByBlock
 62
    0
370
   -2
100
AcDbLine
 10
544
 20
729.75
 11
544
 21
706.875
  0
ENDBLK
  5
6F
330
6D
100
AcDbEntity
  8
0
100
AcDbBlockEnd
  0
BLOCK
  5
71
330
70
100
AcDbEntity
  8
0
100
AcDbBlockBegin
  2
*D14
 70
    1
 10
0
 20
0
  3
*D14
  1

  0
LINE
  5
B5
100
AcDbEntity
  8
Assembly
  6
ByBlock
 62
    0
370
   -2
100
AcDbLine
 10
1010.010714012404
 20
416.5742058734451
 11
956.0827512517166
 21
470.5021686341327
  0
LINE
  5
B6
100
AcDbEntity
  8
Assembly
  6
ByBlock
 62
    0
370
   -2
100
AcDbLine
 10
722.2182540694797
 20
128.7817459305202
 11
668.290291308792
 21
182.7097086912079
  0
LINE
  5
B7
100
AcDbEntity
  8
Assembly
  6
ByBlock
 62
    0
370
   -2
100
AcDbLine
 10
958.2924599429246
 20
468.2924599429248
 11
670.5
 21
180.4999999999999
  0
SOLID
  5
B8
100
AcDbEntity
  8
Assembly
  6
ByBlock
 62
    0
370
   -2
100
AcDbTrace
 10
958.2924599429246
 20
468.2924599429248
 30
0
 11
954.6089368215464
 21
463.1371482994711
 31
0
 12
953.1371482994709
 22
464.6089368215466
 32
0
 13
953.1371482994709
 23
464.6089368215466
 33
0
  0
SOLID
  5
B9
100
AcDbEntity
  8
Assembly
  6
ByBlock
 62
    0
370
   -2
100
AcDbTrace
 10
670.5
 20
180.4999999999999
 30
0
 11
674.1835231213781
 21
185.6553116434536
 31
0
 12
675.6553116434536
 22
184.1835231213781
 32
0
 13
675.6553116434536
 23
184.1835231213781
 33
0
  0
MTEXT
  5
BA
100
AcDbEntity
  8
Assembly
  6
CONTINUOUS
 62
    0
370
   -2
100
AcDbMText
 10
811.0816669346503
 20
327.7107930082743
 30
0
 40
6.25
 41
13.19444444444444
 71
    5
 72
    1
  1
407
  7
STANDARD
210
0
220
0
230
1
 50
45.00000000000005
 73
    2
 44
1
  0
ENDBLK
  5
72
330
70
100
AcDbEntity
  8
0
100
AcDbBlockEnd
  0
BLOCK
  5
74
330
73
100
AcDbEntity
  8
0
100
AcDbBlockBegin
  2
*D12
 70
    1
 10
0
 20
0
  3
*D12
  1

  0
LINE
  5
BB
100
AcDbEntity
  8
Single brick
  6
ByBlock
 62
    0
370
   -2
100
AcDbLine
 10
967
 20
820
 11
994
 21
820
  0
SOLID
  5
BC
100
AcDbEntity
  8
Single brick
  6
ByBlock
 62
    0
370
   -2
100
AcDbTrace
 10
967
 20
820
 30
0
 11
973.25
 21
821.0407116444321
 31
0
 12
973.25
 22
818.9592883555679
 32
0
 13
973.25
 23
818.9592883555679
 33
0
  0
SOLID
  5
BD
100
AcDbEntity
  8
Single brick
  6
ByBlock
 62
    0
370
   -2
100
AcDbTrace
 10
994
 20
820
 30
0
 11
987.75
 21
818.9592883555679
 31
0
 12
987.75
 22
821.0407116444321
 32
0
 13
987.75
 23
821.0407116444321
 33
0
  0
MTEXT
  5
BE
100
AcDbEntity
  8
Single brick
  6
CONTINUOUS
 62
    0
370
   -2
100
AcDbMText
 10
980.5
 20
827
 30
0
 40
6.25
 41
7.638888888888888
 71
    5
 72
    1
  1
27
  7
STANDARD
210
0
220
0
230
1
 50
0
 73
    2
 44
1
  0
LINE
  5
BF
100
AcDbEntity
  8
Single brick
  6
ByBlock
 62
    0
370
   -2
100
AcDbLine
 10
967
 20
810
 11
967
 21
823.125
  0
LINE
  5
C0
100
AcDbEntity
  8
Single brick
  6
ByBlock
 62
    0
370
   -2
100
AcDbLine
 10
994
 20
810
 11
994
 21
823.125
  0
ENDBLK
  5
75
330
73
100
AcDbEntity
  8
0
100
AcDbBlockEnd
  0
BLOCK
  5
77
330
76
100
AcDbEntity
  8
0
100
AcDbBlockBegin
  2
*D1
 70
    1
 10
0
 20
0
  3
*D1
  1

  0
LINE
  5
C1
100
AcDbEntity
  8
Assembly
  6
ByBlock
 62
    0
370
   -2
100
AcDbLine
 10
722.2182540694797
 20
70.71067811865476
 11
688.5440792842045
 21
37.03650333337953
  0
LINE
  5
C2
100
AcDbEntity
  8
Assembly
  6
ByBlock
 62
    0
370
   -2
100
AcDbLine
 10
796.4644660940672
 20
-3.535533905932737
 11
762.790291308792
 21
-37.20970869120796
  0
LINE
  5
C3
100
AcDbEntity
  8
Assembly
  6
ByBlock
 62
    0
370
   -2
100
AcDbLine
 10
690.7537879754125
 20
39.24621202458749
 11
765
 21
-35.00000000000001
  0
SOLID
  5
C4
100
AcDbEntity
  8
Assembly
  6
ByBlock
 62
    0
370
   -2
100
AcDbTrace
 10
690.7537879754125
 20
39.24621202458749
 30
0
 11
695.9090996188661
 21
35.56268890320931
 31
0
 12
694.4373110967906
 22
34.09090038113382
 32
0
 13
694.4373110967906
 23
34.09090038113382
 33
0
  0
SOLID
  5
C5
100
AcDbEntity
  8
Assembly
  6
ByBlock
 62
    0
370
   -2
100
AcDbTrace
 10
765
 20
-35.00000000000001
 30
0
 11
759.8446883565464
 21
-31.31647687862183
 31
0
 12
761.3164768786219
 22
-29.84468835654634
 32
0
 13
761.3164768786219
 23
-29.84468835654634
 33
0
  0
MTEXT
  5
C6
100
AcDbEntity
  8
Assembly
  6
CONTINUOUS
 62
    0
370
   -2
100
AcDbMText
 10
732.8266414560121
 20
7.072853480599578
 30
0
 40
6.25
 41
11.1111111111115
 71
    5
 72
    1
  1
105
  7
STANDARD
210
0
220
0
230
1
 50
315
 73
    2
 44
1
  0
ENDBLK
  5
78
330
76
100
AcDbEntity
  8
0
100
AcDbBlockEnd
  0
BLOCK
  5
7A
330
79
100
AcDbEntity
  8
0
100
AcDbBlockBegin
  2
*D3
 70
    1
 10
0
 20
0
  3
*D3
  1

  0
LINE
  5
C7
100
AcDbEntity
  8
Sides
  6
ByBlock
 62
    0
370
   -2
100
AcDbLine
 10
-127
 20
320
 11
-100
 21
320
  0
SOLID
  5
C8
100
AcDbEntity
  8
Sides
  6
ByBlock
 62
    0
370
   -2
100
AcDbTrace
 10
-127
 20
320
 30
0
 11
-120.75
 21
321.0407116444321
 31
0
 12
-120.75
 22
318.9592883555679
 32
0
 13
-120.75
 23
318.9592883555679
 33
0
  0
SOLID
  5
C9
100
AcDbEntity
  8
Sides
  6
ByBlock
 62
    0
370
   -2
100
AcDbTrace
 10
-100
 20
320
 30
0
 11
-106.25
 21
318.9592883555679
 31
0
 12
-106.25
 22
321.0407116444321
 32
0
 13
-106.25
 23
321.0407116444321
 33
0
  0
MTEXT
  5
CA
100
AcDbEntity
  8
Sides
  6
CONTINUOUS
 62
    0
370
   -2
100
AcDbMText
 10
-113.5
 20
327
 30
0
 40
6.25
 41
7.638888888888888
 71
    5
 72
    1
  1
27
  7
STANDARD
210
0
220
0
230
1
 50
0
 73
    2
 44
1
  0
LINE
  5
CB
100
AcDbEntity
  8
Sides
  6
ByBlock
 62
    0
370
   -2
100
AcDbLine
 10
-127
 20
310
 11
-127
 21
323.125
  0
LINE
  5
CC
100
AcDbEntity
  8
Sides
  6
ByBlock
 62
    0
370
   -2
100
AcDbLine
 10
-100
 20
310
 11
-100
 21
323.125
  0
ENDBLK
  5
7B
330
79
100
AcDbEntity
  8
0
100
AcDbBlockEnd
  0
BLOCK
  5
7D
330
7C
100
AcDbEntity
  8
0
100
AcDbBlockBegin
  2
*D4
 70
    1
 10
0
 20
0
  3
*D4
  1

  0
LINE
  5
CD
100
AcDbEntity
  8
Bottom/top part
  6
ByBlock
 62
    0
370
   -2
100
AcDbLine
 10
-127
 20
120
 11
-100
 21
120
  0
SOLID
  5
CE
100
AcDbEntity
  8
Bottom/top part
  6
ByBlock
 62
    0
370
   -2
100
AcDbTrace
 10
-127
 20
120
 30
0
 11
-120.75
 21
121.0407116444321
 31
0
 12
-120.75
 22
118.9592883555679
 32
0
 13
-120.75
 23
118.9592883555679
 33
0
  0
SOLID
  5
CF
100
AcDbEntity
  8
Bottom/top part
  6
ByBlock
 62
    0
370
   -2
100
AcDbTrace
 10
-100
 20
120
 30
0
 11
-106.25
 21
118.9592883555679
 31
0
 12
-106.25
 22
121.0407116444321
 32
0
 13
-106.25
 23
121.0407116444321
 33
0
  0
MTEXT
  5
D0
100
AcDbEntity
  8
Bottom/top part
  6
CONTINUOUS
 62
    0
370
   -2
100
AcDbMText
 10
-113.5
 20
127
 30
0
 40
6.25
 41
7.638888888888888
 71
    5
 72
    1
  1
27
  7
STANDARD
210
0
220
0
230
1
 50
0
 73
    2
 44
1
  0
LINE
  5
D1
100
AcDbEntity
  8
Bottom/top part
  6
ByBlock
 62
    0
370
   -2
100
AcDbLine
 10
-127
 20
110
 11
-127
 21
123.125
  0
LINE
  5
D2
100
AcDbEntity
  8
Bottom/top part
  6
ByBlock
 62
    0
370
   -2
100
AcDbLine
 10
-100
 20
110
 11
-100
 21
123.125
  0
ENDBLK
  5
7E
330
7C
100
AcDbEntity
  8
0
100
AcDbBlockEnd
  0
ENDSEC
  0
SECTION
  2
ENTITIES
  0
LINE
  5
D3
100
AcDbEntity
  8
Sides
  6
ByLayer
 62
  256
370
   -1
100
AcDbLine
 10
0
 20
200
 11
217
 21
200
  0
LINE
  5
D4
100
AcDbEntity
  8
Sides
  6
ByLayer
 62
  256
370
   -1
100
AcDbLine
 10
0
 20
200
 11
6.429395695523604e-15
 21
305
  0
LINE
  5
D5
100
AcDbEntity
  8
Sides
  6
ByLayer
 62
  256
370
   -1
100
AcDbLine
 10
217
 20
200
 11
217
 21
305
  0
LINE
  5
D6
100
AcDbEntity
  8
Sides
  6
ByLayer
 62
  256
370
   -1
100
AcDbLine
 10
6.429395695523604e-15
 20
305
 11
217
 21
305
  0
LINE
  5
D7
100
AcDbEntity
  8
Sides
  6
ByLayer
 62
  256
370
   -1
100
AcDbLine
 10
217
 20
200
 11
217
 21
305
  0
LINE
  5
D8
100
AcDbEntity
  8
Sides
  6
ByLayer
 62
  256
370
   -1
100
AcDbLine
 10
217
 20
200
 11
434
 21
200
  0
LINE
  5
D9
100
AcDbEntity
  8
Sides
  6
ByLayer
 62
  256
370
   -1
100
AcDbLine
 10
217
 20
200
 11
217
 21
305
  0
LINE
  5
DA
100
AcDbEntity
  8
Sides
  6
ByLayer
 62
  256
370
   -1
100
AcDbLine
 10
434
 20
200
 11
434
 21
305
  0
LINE
  5
DB
100
AcDbEntity
  8
Sides
  6
ByLayer
 62
  256
370
   -1
100
AcDbLine
 10
217
 20
305
 11
434
 21
305
  0
LINE
  5
DC
100
AcDbEntity
  8
Sides
  6
ByLayer
 62
  256
370
   -1
100
AcDbLine
 10
434
 20
200
 11
434
 21
305
  0
LINE
  5
DD
100
AcDbEntity
  8
Bottom/top part
  6
ByLayer
 62
  256
370
   -1
100
AcDbLine
 10
0
 20
0
 11
217
 21
0
  0
LINE
  5
DE
100
AcDbEntity
  8
Bottom/top part
  6
ByLayer
 62
  256
370
   -1
100
AcDbLine
 10
0
 20
0
 11
6.429395695523604e-15
 21
105
  0
LINE
  5
DF
100
AcDbEntity
  8
Bottom/top part
  6
ByLayer
 62
  256
370
   -1
100
AcDbLine
 10
217
 20
0
 11
217
 21
105
  0
LINE
  5
E0
100
AcDbEntity
  8
Bottom/top part
  6
ByLayer
 62
  256
370
   -1
100
AcDbLine
 10
6.429395695523604e-15
 20
105
 11
217
 21
105
  0
LINE
  5
E1
100
AcDbEntity
  8
Bottom/top part
  6
ByLayer
 62
  256
370
   -1
100
AcDbLine
 10
217
 20
0
 11
217
 21
105
  0
LINE
  5
E2
100
AcDbEntity
  8
Bottom/top part
  6
ByLayer
 62
  256
370
   -1
100
AcDbLine
 10
217
 20
0
 11
434
 21
0
  0
LINE
  5
E3
100
AcDbEntity
  8
Bottom/top part
  6
ByLayer
 62
  256
370
   -1
100
AcDbLine
 10
217
 20
0
 11
217
 21
105
  0
LINE
  5
E4
100
AcDbEntity
  8
Bottom/top part
  6
ByLayer
 62
  256
370
   -1
100
AcDbLine
 10
434
 20
0
 11
434
 21
105
  0
LINE
  5
E5
100
AcDbEntity
  8
Bottom/top part
  6
ByLayer
 62
  256
370
   -1
100
AcDbLine
 10
217
 20
105
 11
434
 21
105
  0
LINE
  5
E6
100
AcDbEntity
  8
Bottom/top part
  6
ByLayer
 62
  256
370
   -1
100
AcDbLine
 10
434
 20
0
 11
434
 21
105
  0
LINE
  5
E7
100
AcDbEntity
  8
Door
  6
ByLayer
 62
  256
370
   -1
100
AcDbLine
 10
27
 20
532.5
 11
132
 21
532.5
  0
LINE
  5
E8
100
AcDbEntity
  8
Door
  6
ByLayer
 62
  256
370
   -1
100
AcDbLine
 10
27
 20
532.5
 11
27
 21
582.5
  0
LINE
  5
E9
100
AcDbEntity
  8
Door
  6
ByLayer
 62
  256
370
   -1
100
AcDbLine
 10
132
 20
532.5
 11
132
 21
582.5
  0
LINE
  5
EA
100
AcDbEntity
  8
Door
  6
ByLayer
 62
  256
370
   -1
100
AcDbLine
 10
27
 20
582.5
 11
132
 21
582.5
  0
LINE
  5
EB
100
AcDbEntity
  8
Door
  6
ByLayer
 62
  256
370
   -1
100
AcDbLine
 10
233
 20
610
 11
260
 21
610
  0
LINE
  5
EC
100
AcDbEntity
  8
Door
  6
ByLayer
 62
  256
370
   -1
100
AcDbLine
 10
260
 20
505
 11
260
 21
610
  0
LINE
  5
ED
100
AcDbEntity
  8
Door
  6
ByLayer
 62
  256
370
   -1
100
AcDbLine
 10
233
 20
505
 11
233
 21
610
  0
LINE
  5
EE
100
AcDbEntity
  8
Door
  6
ByLayer
 62
  256
370
   -1
100
AcDbLine
 10
233
 20
505
 11
260
 21
505
  0
LINE
  5
EF
100
AcDbEntity
  8
Door
  6
ByLayer
 62
  256
370
   -1
100
AcDbLine
 10
260
 20
582.5
 11
265
 21
582.5
  0
LINE
  5
F0
100
AcDbEntity
  8
Door
  6
ByLayer
 62
  256
370
   -1
100
AcDbLine
 10
260
 20
532.5
 11
265.0000000000018
 21
532.5
  0
LINE
  5
F1
100
AcDbEntity
  8
Door
  6
ByLayer
 62
  256
370
   -1
100
AcDbLine
 10
0
 20
605
 11
5
 21
610
  0
LINE
  5
F2
100
AcDbEntity
  8
Door
  6
ByLayer
 62
  256
370
   -1
100
AcDbLine
 10
5
 20
610
 11
154
 21
610
  0
LINE
  5
F3
100
AcDbEntity
  8
Door
  6
ByLayer
 62
  256
370
   -1
100
AcDbLine
 10
154
 20
610
 11
159
 21
605
  0
LINE
  5
F4
100
AcDbEntity
  8
Door
  6
ByLayer
 62
  256
370
   -1
100
AcDbLine
 10
159
 20
510
 11
159
 21
605
  0
LINE
  5
F5
100
AcDbEntity
  8
Door
  6
ByLayer
 62
  256
370
   -1
100
AcDbLine
 10
159
 20
510
 11
154
 21
505
  0
LINE
  5
F6
100
AcDbEntity
  8
Door
  6
ByLayer
 62
  256
370
   -1
100
AcDbLine
 10
5
 20
505
 11
154
 21
505
  0
LINE
  5
F7
100
AcDbEntity
  8
Door
  6
ByLayer
 62
  256
370
   -1
100
AcDbLine
 10
0
 20
510
 11
0
 21
605
  0
LINE
  5
F8
100
AcDbEntity
  8
Door
  6
ByLayer
 62
  256
370
   -1
100
AcDbLine
 10
5
 20
505
 11
0
 21
510
  0
LINE
  5
F9
100
AcDbEntity
  8
Assembly
  6
ByLayer
 62
  256
370
   -1
100
AcDbLine
 10
800
 20
0
 11
725.7537879754125
 21
74.24621202458749
  0
LINE
  5
FA
100
AcDbEntity
  8
Assembly
  6
ByLayer
 62
  256
370
   -1
100
AcDbLine
 10
953.4421715174807
 20
153.4421715174809
 11
879.1959594928932
 21
227.6883835420684
  0
LINE
  5
FB
100
AcDbEntity
  8
Assembly
  6
ByLayer
 62
  256
370
   -1
100
AcDbLine
 10
1106.884343034961
 20
306.8843430349618
 11
1032.638131010374
 21
381.1305550595492
  0
LINE
  5
FC
100
AcDbEntity
  8
Assembly
  6
ByLayer
 62
  256
370
   -1
100
AcDbLine
 10
725.7537879754125
 20
74.24621202458749
 11
879.1959594928932
 21
227.6883835420684
  0
LINE
  5
FD
100
AcDbEntity
  8
Assembly
  6
ByLayer
 62
  256
370
   -1
100
AcDbLine
 10
879.1959594928932
 20
227.6883835420684
 11
1032.638131010374
 21
381.1305550595492
  0
LINE
  5
FE
100
AcDbEntity
  8
Assembly
  6
ByLayer
 62
  256
370
   -1
100
AcDbLine
 10
1106.884343034961
 20
306.8843430349618
 11
953.4421715174807
 21
153.4421715174809
  0
LINE
  5
FF
100
AcDbEntity
  8
Assembly
  6
ByLayer
 62
  256
370
   -1
100
AcDbLine
 10
953.4421715174807
 20
153.4421715174809
 11
800
 21
0
  0
LINE
  5
100
100
AcDbEntity
  8
Assembly
  6
ByLayer
 62
  256
370
   -1
100
AcDbLine
 10
725.7537879754125
 20
74.24621202458749
 11
725.7537879754125
 21
47.24621202458749
  0
LINE
  5
101
100
AcDbEntity
  8
Assembly
  6
ByLayer
 62
  256
370
   -1
100
AcDbLine
 10
800
 20
0
 11
800
 21
-27
  0
LINE
  5
102
100
AcDbEntity
  8
Assembly
  6
ByLayer
 62
  256
370
   -1
100
AcDbLine
 10
953.4421715174807
 20
153.4421715174809
 11
953.4421715174807
 21
126.4421715174809
  0
LINE
  5
103
100
AcDbEntity
  8
Assembly
  6
ByLayer
 62
  256
370
   -1
100
AcDbLine
 10
879.1959594928932
 20
227.6883835420684
 11
879.1959594928932
 21
200.6883835420684
  0
LINE
  5
104
100
AcDbEntity
  8
Assembly
  6
ByLayer
 62
  256
370
   -1
100
AcDbLine
 10
1032.638131010374
 20
381.1305550595492
 11
1032.638131010374
 21
354.1305550595492
  0
LINE
  5
105
100
AcDbEntity
  8
Assembly
  6
ByLayer
 62
  256
370
   -1
100
AcDbLine
 10
1106.884343034961
 20
306.8843430349618
 11
1106.884343034961
 21
279.8843430349618
  0
LINE
  5
106
100
AcDbEntity
  8
Assembly
  6
ByLayer
 62
  256
370
   -1
100
AcDbLine
 10
1032.638131010374
 20
354.1305550595492
 11
1106.884343034961
 21
279.8843430349618
  0
LINE
  5
107
100
AcDbEntity
  8
Assembly
  6
ByLayer
 62
  256
370
   -1
100
AcDbLine
 10
800
 20
-27
 11
725.7537879754125
 21
47.24621202458749
  0
LINE
  5
108
100
AcDbEntity
  8
Assembly
  6
ByLayer
 62
  256
370
   -1
100
AcDbLine
 10
879.1959594928932
 20
200.6883835420684
 11
953.4421715174807
 21
126.4421715174809
  0
LINE
  5
109
100
AcDbEntity
  8
Assembly
  6
ByLayer
 62
  256
370
   -1
100
AcDbLine
 10
879.1959594928932
 20
200.6883835420684
 11
879.1959594928932
 21
305.6883835420684
  0
LINE
  5
10A
100
AcDbEntity
  8
Assembly
  6
ByLayer
 62
  256
370
   -1
100
AcDbLine
 10
706.6619048833757
 20
171.3380951166243
 11
725.7537879754125
 21
152.2462120245875
  0
LINE
  5
10B
100
AcDbEntity
  8
Assembly
  6
ByLayer
 62
  256
370
   -1
100
AcDbLine
 10
972.5340546095175
 20
107.3502884254441
 11
953.4421715174807
 21
126.4421715174809
  0
LINE
  5
10C
100
AcDbEntity
  8
Assembly
  6
ByLayer
 62
  256
370
   -1
100
AcDbLine
 10
1125.976226126998
 20
260.792459942925
 11
1106.884343034961
 21
279.8843430349618
  0
LINE
  5
10D
100
AcDbEntity
  8
Assembly
  6
ByLayer
 62
  256
370
   -1
100
AcDbLine
 10
706.6619048833757
 20
66.33809511662429
 11
706.6619048833757
 21
171.3380951166243
  0
LINE
  5
10E
100
AcDbEntity
  8
Assembly
  6
ByLayer
 62
  256
370
   -1
100
AcDbLine
 10
725.7537879754125
 20
152.2462120245875
 11
879.1959594928932
 21
305.6883835420684
  0
LINE
  5
10F
100
AcDbEntity
  8
Assembly
  6
ByLayer
 62
  256
370
   -1
100
AcDbLine
 10
879.1959594928932
 20
305.6883835420684
 11
1032.638131010374
 21
459.1305550595492
  0
LINE
  5
110
100
AcDbEntity
  8
Assembly
  6
ByLayer
 62
  256
370
   -1
100
AcDbLine
 10
800
 20
78
 11
953.4421715174807
 21
231.4421715174809
  0
LINE
  5
111
100
AcDbEntity
  8
Assembly
  6
ByLayer
 62
  256
370
   -1
100
AcDbLine
 10
953.4421715174807
 20
231.4421715174809
 11
1106.884343034961
 21
384.8843430349618
  0
LINE
  5
112
100
AcDbEntity
  8
Assembly
  6
ByLayer
 62
  256
370
   -1
100
AcDbLine
 10
819.0918830920368
 20
58.90811690796322
 11
819.0918830920368
 21
-46.09188309203678
  0
LINE
  5
113
100
AcDbEntity
  8
Assembly
  6
ByLayer
 62
  256
370
   -1
100
AcDbLine
 10
972.5340546095175
 20
212.3502884254441
 11
972.5340546095175
 21
107.3502884254441
  0
LINE
  5
114
100
AcDbEntity
  8
Assembly
  6
ByLayer
 62
  256
370
   -1
100
AcDbLine
 10
800
 20
78
 11
725.7537879754125
 21
152.2462120245875
  0
LINE
  5
115
100
AcDbEntity
  8
Assembly
  6
ByLayer
 62
  256
370
   -1
100
AcDbLine
 10
953.4421715174807
 20
231.4421715174809
 11
879.1959594928932
 21
305.6883835420684
  0
LINE
  5
116
100
AcDbEntity
  8
Assembly
  6
ByLayer
 62
  256
370
   -1
100
AcDbLine
 10
1106.884343034961
 20
384.8843430349618
 11
1032.638131010374
 21
459.1305550595492
  0
LINE
  5
117
100
AcDbEntity
  8
Assembly
  6
ByLayer
 62
  256
370
   -1
100
AcDbLine
 10
725.7537879754125
 20
125.2462120245875
 11
879.1959594928932
 21
278.6883835420684
  0
LINE
  5
118
100
AcDbEntity
  8
Assembly
  6
ByLayer
 62
  256
370
   -1
100
AcDbLine
 10
879.1959594928932
 20
278.6883835420684
 11
1032.638131010374
 21
432.1305550595492
  0
LINE
  5
119
100
AcDbEntity
  8
Assembly
  6
ByLayer
 62
  256
370
   -1
100
AcDbLine
 10
1032.638131010374
 20
432.1305550595492
 11
1106.884343034961
 21
357.8843430349618
  0
LINE
  5
11A
100
AcDbEntity
  8
Assembly
  6
ByLayer
 62
  256
370
   -1
100
AcDbLine
 10
1106.884343034961
 20
357.8843430349618
 11
953.4421715174807
 21
204.4421715174809
  0
LINE
  5
11B
100
AcDbEntity
  8
Assembly
  6
ByLayer
 62
  256
370
   -1
100
AcDbLine
 10
953.4421715174807
 20
204.4421715174809
 11
800
 21
51
  0
LINE
  5
11C
100
AcDbEntity
  8
Assembly
  6
ByLayer
 62
  256
370
   -1
100
AcDbLine
 10
800
 20
51
 11
725.7537879754125
 21
125.2462120245875
  0
LINE
  5
11D
100
AcDbEntity
  8
Assembly
  6
ByLayer
 62
  256
370
   -1
100
AcDbLine
 10
879.1959594928932
 20
278.6883835420684
 11
953.4421715174807
 21
204.4421715174809
  0
DIMENSION
  5
11E
100
AcDbEntity
  8
Assembly
  6
ByLayer
 62
  256
370
   -1
100
AcDbDimension
  2
*D1
 10
765
 20
-35.00000000000002
 30
0
 11
732.8266414560121
 21
7.072853480599578
 31
0
 70
   33
 71
    5
 72
    0
  3
Standard
 53
0
210
0
220
0
230
1
100
AcDbAlignedDimension
 13
725.7537879754125
 23
74.24621202458749
 33
0
 14
800
 24
0
 34
0
  0
DIMENSION
  5
11F
100
AcDbEntity
  8
Assembly
  6
ByLayer
 62
  256
370
   -1
100
AcDbDimension
  2
*D2
 10
940
 20
49.99999999999999
 30
0
 11
933
 21
25
 31
0
 70
   33
 71
    5
 72
    0
  3
Standard
 53
0
210
0
220
0
230
1
100
AcDbAlignedDimension
 13
800
 23
0
 33
0
 14
800
 24
50
 34
0
  0
LINE
  5
120
100
AcDbEntity
  8
Assembly
  6
ByLayer
 62
  256
370
   -1
100
AcDbLine
 10
1106.884343034961
 20
357.8843430349618
 11
1106.884343034961
 21
306.8843430349618
  0
LINE
  5
121
100
AcDbEntity
  8
Assembly
  6
ByLayer
 62
  256
370
   -1
100
AcDbLine
 10
1032.638131010374
 20
381.1305550595492
 11
1032.638131010374
 21
432.1305550595492
  0
LINE
  5
122
100
AcDbEntity
  8
Assembly
  6
ByLayer
 62
  256
370
   -1
100
AcDbLine
 10
725.7537879754125
 20
125.2462120245876
 11
725.7537879754125
 21
74.24621202458758
  0
LINE
  5
123
100
AcDbEntity
  8
Assembly
  6
ByLayer
 62
  256
370
   -1
100
AcDbLine
 10
819.0918830920361
 20
70.09188309203694
 11
819.0918830920361
 21
19.09188309203694
  0
LINE
  5
124
100
AcDbEntity
  8
Assembly
  6
ByLayer
 62
  256
370
   -1
100
AcDbLine
 10
819.0918830920361
 20
19.09188309203694
 11
744.8456710674493
 21
93.33809511662434
  0
LINE
  5
125
100
AcDbEntity
  8
Assembly
  6
ByLayer
 62
  256
370
   -1
100
AcDbLine
 10
744.8456710674493
 20
93.33809511662434
 11
744.8456710674493
 21
144.3380951166243
  0
LINE
  5
126
100
AcDbEntity
  8
Assembly
  6
ByLayer
 62
  256
370
   -1
100
AcDbLine
 10
819.0918830920361
 20
70.09188309203694
 11
744.8456710674493
 21
144.3380951166243
  0
LINE
  5
127
100
AcDbEntity
  8
Assembly
  6
ByLayer
 62
  256
370
   -1
100
AcDbLine
 10
819.0918830920368
 20
-46.09188309203678
 11
706.6619048833757
 21
66.33809511662429
  0
LINE
  5
128
100
AcDbEntity
  8
Assembly
  6
DASHEDTINY
 62
  136
420
32896
370
   -1
100
AcDbLine
 10
1106.884343034961
 20
357.8843430349618
 11
1087.792459942924
 21
338.792459942925
  0
LINE
  5
129
100
AcDbEntity
  8
Assembly
  6
DASHEDTINY
 62
  136
420
32896
370
   -1
100
AcDbLine
 10
1106.884343034961
 20
306.8843430349618
 11
1087.792459942924
 21
287.792459942925
  0
LINE
  5
12A
100
AcDbEntity
  8
Assembly
  6
DASHEDTINY
 62
  136
420
32896
370
   -1
100
AcDbLine
 10
1032.638131010374
 20
381.1305550595492
 11
1013.546247918337
 21
362.0386719675124
  0
LINE
  5
12B
100
AcDbEntity
  8
Assembly
  6
DASHEDTINY
 62
  136
420
32896
370
   -1
100
AcDbLine
 10
1032.638131010374
 20
432.1305550595492
 11
1013.546247918337
 21
413.0386719675124
  0
LINE
  5
12C
100
AcDbEntity
  8
Assembly
  6
DASHEDTINY
 62
  136
420
32896
370
   -1
100
AcDbLine
 10
1013.546247918337
 20
413.0386719675124
 11
1013.546247918337
 21
362.0386719675124
  0
LINE
  5
12D
100
AcDbEntity
  8
Assembly
  6
DASHEDTINY
 62
  136
420
32896
370
   -1
100
AcDbLine
 10
1013.546247918337
 20
362.0386719675124
 11
1087.792459942924
 21
287.792459942925
  0
LINE
  5
12E
100
AcDbEntity
  8
Assembly
  6
DASHEDTINY
 62
  136
420
32896
370
   -1
100
AcDbLine
 10
1087.792459942924
 20
287.792459942925
 11
1087.792459942924
 21
338.792459942925
  0
LINE
  5
12F
100
AcDbEntity
  8
Assembly
  6
DASHEDTINY
 62
  136
420
32896
370
   -1
100
AcDbLine
 10
1087.792459942924
 20
338.792459942925
 11
1013.546247918337
 21
413.0386719675124
  0
LINE
  5
130
100
AcDbEntity
  8
Assembly
  6
DASHEDTINY
 62
  136
420
32896
370
   -1
100
AcDbLine
 10
1032.638131010374
 20
432.1305550595492
 11
1106.884343034961
 21
357.8843430349618
  0
LINE
  5
131
100
AcDbEntity
  8
Assembly
  6
DASHEDTINY
 62
  136
420
32896
370
   -1
100
AcDbLine
 10
1106.884343034961
 20
306.8843430349618
 11
1032.638131010374
 21
381.1305550595492
  0
LINE
  5
132
100
AcDbEntity
  8
Sides
  6
ByLayer
 62
   56
420
8421376
370
   -1
100
AcDbLine
 10
1106.884343034961
 20
279.8843430349618
 11
953.4421715174807
 21
126.4421715174809
  0
LINE
  5
133
100
AcDbEntity
  8
Sides
  6
ByLayer
 62
   56
420
8421376
370
   -1
100
AcDbLine
 10
953.4421715174807
 20
126.4421715174809
 11
800
 21
-27
  0
LINE
  5
134
100
AcDbEntity
  8
Sides
  6
ByLayer
 62
   56
420
8421376
370
   -1
100
AcDbLine
 10
1106.884343034961
 20
279.8843430349618
 11
1106.884343034961
 21
384.8843430349618
  0
LINE
  5
135
100
AcDbEntity
  8
Sides
  6
ByLayer
 62
   56
420
8421376
370
   -1
100
AcDbLine
 10
953.4421715174807
 20
126.4421715174809
 11
953.4421715174807
 21
231.4421715174809
  0
LINE
  5
136
100
AcDbEntity
  8
Sides
  6
ByLayer
 62
   56
420
8421376
370
   -1
100
AcDbLine
 10
800
 20
-27
 11
800
 21
78
  0
LINE
  5
137
100
AcDbEntity
  8
Sides
  6
ByLayer
 62
   56
420
8421376
370
   -1
100
AcDbLine
 10
819.0918830920368
 20
58.90811690796322
 11
800
 21
78
  0
LINE
  5
138
100
AcDbEntity
  8
Sides
  6
ByLayer
 62
   56
420
8421376
370
   -1
100
AcDbLine
 10
972.5340546095175
 20
212.3502884254441
 11
953.4421715174807
 21
231.4421715174809
  0
LINE
  5
139
100
AcDbEntity
  8
Sides
  6
ByLayer
 62
   56
420
8421376
370
   -1
100
AcDbLine
 10
1125.976226126998
 20
365.792459942925
 11
1106.884343034961
 21
384.8843430349618
  0
LINE
  5
13A
100
AcDbEntity
  8
Sides
  6
ByLayer
 62
   56
420
8421376
370
   -1
100
AcDbLine
 10
819.0918830920368
 20
-46.09188309203678
 11
800
 21
-27
  0
LINE
  5
13B
100
AcDbEntity
  8
Sides
  6
ByLayer
 62
   56
420
8421376
370
   -1
100
AcDbLine
 10
1125.976226126998
 20
365.792459942925
 11
972.5340546095175
 21
212.3502884254441
  0
LINE
  5
13C
100
AcDbEntity
  8
Sides
  6
ByLayer
 62
   56
420
8421376
370
   -1
100
AcDbLine
 10
972.5340546095175
 20
212.3502884254441
 11
819.0918830920368
 21
58.90811690796322
  0
LINE
  5
13D
100
AcDbEntity
  8
Sides
  6
ByLayer
 62
   56
420
8421376
370
   -1
100
AcDbLine
 10
819.0918830920368
 20
-46.09188309203678
 11
972.5340546095175
 21
107.3502884254441
  0
LINE
  5
13E
100
AcDbEntity
  8
Sides
  6
ByLayer
 62
   56
420
8421376
370
   -1
100
AcDbLine
 10
972.5340546095175
 20
107.3502884254441
 11
1125.976226126998
 21
260.792459942925
  0
LINE
  5
13F
100
AcDbEntity
  8
Sides
  6
ByLayer
 62
   56
420
8421376
370
   -1
100
AcDbLine
 10
1125.976226126998
 20
260.792459942925
 11
1125.976226126998
 21
365.792459942925
  0
LINE
  5
140
100
AcDbEntity
  8
Sides
  6
ByLayer
 62
   56
420
8421376
370
   -1
100
AcDbLine
 10
1106.884343034961
 20
384.8843430349618
 11
953.4421715174807
 21
231.4421715174809
  0
LINE
  5
141
100
AcDbEntity
  8
Sides
  6
ByLayer
 62
   56
420
8421376
370
   -1
100
AcDbLine
 10
953.4421715174807
 20
231.4421715174809
 11
800
 21
78
  0
LINE
  5
142
100
AcDbEntity
  8
Assembly
  6
DASHEDTINY
 62
   56
420
8421376
370
   -1
100
AcDbLine
 10
725.7537879754125
 20
47.24621202458749
 11
879.1959594928932
 21
200.6883835420684
  0
LINE
  5
143
100
AcDbEntity
  8
Assembly
  6
DASHEDTINY
 62
   56
420
8421376
370
   -1
100
AcDbLine
 10
879.1959594928932
 20
200.6883835420684
 11
1032.638131010374
 21
354.1305550595492
  0
LINE
  5
144
100
AcDbEntity
  8
Assembly
  6
DASHEDTINY
 62
   56
420
8421376
370
   -1
100
AcDbLine
 10
725.7537879754125
 20
47.24621202458749
 11
725.7537879754125
 21
152.2462120245875
  0
LINE
  5
145
100
AcDbEntity
  8
Assembly
  6
DASHEDTINY
 62
   56
420
8421376
370
   -1
100
AcDbLine
 10
1032.638131010374
 20
354.1305550595492
 11
1032.638131010374
 21
459.1305550595492
  0
LINE
  5
146
100
AcDbEntity
  8
Assembly
  6
DASHEDTINY
 62
   56
420
8421376
370
   -1
100
AcDbLine
 10
860.1040764008563
 20
324.7802666341051
 11
879.1959594928932
 21
305.6883835420684
  0
LINE
  5
147
100
AcDbEntity
  8
Assembly
  6
DASHEDTINY
 62
   56
420
8421376
370
   -1
100
AcDbLine
 10
1013.546247918337
 20
478.2224381515861
 11
1032.638131010374
 21
459.1305550595492
  0
LINE
  5
148
100
AcDbEntity
  8
Assembly
  6
DASHEDTINY
 62
   56
420
8421376
370
   -1
100
AcDbLine
 10
706.6619048833757
 20
66.33809511662429
 11
725.7537879754125
 21
47.24621202458749
  0
LINE
  5
149
100
AcDbEntity
  8
Assembly
  6
DASHEDTINY
 62
   56
420
8421376
370
   -1
100
AcDbLine
 10
860.1040764008563
 20
219.7802666341051
 11
879.1959594928932
 21
200.6883835420684
  0
LINE
  5
14A
100
AcDbEntity
  8
Assembly
  6
DASHEDTINY
 62
   56
420
8421376
370
   -1
100
AcDbLine
 10
1013.546247918337
 20
373.2224381515861
 11
1032.638131010374
 21
354.1305550595492
  0
LINE
  5
14B
100
AcDbEntity
  8
Assembly
  6
DASHEDTINY
 62
   56
420
8421376
370
   -1
100
AcDbLine
 10
706.6619048833757
 20
171.3380951166243
 11
860.1040764008563
 21
324.7802666341051
  0
LINE
  5
14C
100
AcDbEntity
  8
Assembly
  6
DASHEDTINY
 62
   56
420
8421376
370
   -1
100
AcDbLine
 10
860.1040764008563
 20
324.7802666341051
 11
1013.546247918337
 21
478.2224381515861
  0
LINE
  5
14D
100
AcDbEntity
  8
Assembly
  6
DASHEDTINY
 62
   56
420
8421376
370
   -1
100
AcDbLine
 10
1013.546247918337
 20
478.2224381515861
 11
1013.546247918337
 21
373.2224381515861
  0
LINE
  5
14E
100
AcDbEntity
  8
Assembly
  6
DASHEDTINY
 62
   56
420
8421376
370
   -1
100
AcDbLine
 10
1013.546247918337
 20
373.2224381515861
 11
860.1040764008563
 21
219.7802666341051
  0
LINE
  5
14F
100
AcDbEntity
  8
Assembly
  6
DASHEDTINY
 62
   56
420
8421376
370
   -1
100
AcDbLine
 10
860.1040764008563
 20
219.7802666341051
 11
706.6619048833757
 21
66.33809511662429
  0
LINE
  5
150
100
AcDbEntity
  8
Assembly
  6
DASHEDTINY
 62
   56
420
8421376
370
   -1
100
AcDbLine
 10
860.1040764008563
 20
219.7802666341051
 11
860.1040764008563
 21
324.7802666341051
  0
LINE
  5
151
100
AcDbEntity
  8
Assembly
  6
DASHEDTINY
 62
   56
420
8421376
370
   -1
100
AcDbLine
 10
725.7537879754125
 20
152.2462120245875
 11
879.1959594928932
 21
305.6883835420684
  0
LINE
  5
152
100
AcDbEntity
  8
Assembly
  6
DASHEDTINY
 62
   56
420
8421376
370
   -1
100
AcDbLine
 10
879.1959594928932
 20
305.6883835420684
 11
1032.638131010374
 21
459.1305550595492
  0
LINE
  5
153
100
AcDbEntity
  8
Assembly
  6
DASHEDTINY
 62
   56
420
8421376
370
   -1
100
AcDbLine
 10
706.6619048833757
 20
66.33809511662429
 11
706.6619048833757
 21
171.3380951166243
  0
LINE
  5
154
100
AcDbEntity
  8
Assembly
  6
DASHEDTINY
 62
  216
420
8388736
370
   -1
100
AcDbLine
 10
819.0918830920361
 20
70.09188309203694
 11
799.9999999999993
 21
51.00000000000017
  0
LINE
  5
155
100
AcDbEntity
  8
Assembly
  6
DASHEDTINY
 62
  216
420
8388736
370
   -1
100
AcDbLine
 10
819.0918830920361
 20
19.09188309203694
 11
799.9999999999993
 21
1.70530256582424e-13
  0
LINE
  5
156
100
AcDbEntity
  8
Assembly
  6
DASHEDTINY
 62
  216
420
8388736
370
   -1
100
AcDbLine
 10
744.8456710674493
 20
93.33809511662434
 11
725.7537879754125
 21
74.24621202458758
  0
LINE
  5
157
100
AcDbEntity
  8
Assembly
  6
DASHEDTINY
 62
  216
420
8388736
370
   -1
100
AcDbLine
 10
744.8456710674493
 20
144.3380951166243
 11
725.7537879754125
 21
125.2462120245876
  0
LINE
  5
158
100
AcDbEntity
  8
Assembly
  6
DASHEDTINY
 62
  216
420
8388736
370
   -1
100
AcDbLine
 10
725.7537879754125
 20
74.24621202458758
 11
799.9999999999993
 21
1.70530256582424e-13
  0
LINE
  5
159
100
AcDbEntity
  8
Assembly
  6
DASHEDTINY
 62
  216
420
8388736
370
   -1
100
AcDbLine
 10
799.9999999999993
 20
1.70530256582424e-13
 11
799.9999999999993
 21
51.00000000000017
  0
LINE
  5
15A
100
AcDbEntity
  8
Assembly
  6
DASHEDTINY
 62
  216
420
8388736
370
   -1
100
AcDbLine
 10
799.9999999999993
 20
51.00000000000017
 11
725.7537879754125
 21
125.2462120245876
  0
LINE
  5
15B
100
AcDbEntity
  8
Assembly
  6
DASHEDTINY
 62
  216
420
8388736
370
   -1
100
AcDbLine
 10
744.8456710674493
 20
144.3380951166243
 11
819.0918830920361
 21
70.09188309203694
  0
LINE
  5
15C
100
AcDbEntity
  8
Assembly
  6
DASHEDTINY
 62
  216
420
8388736
370
   -1
100
AcDbLine
 10
744.8456710674493
 20
144.3380951166243
 11
744.8456710674493
 21
93.33809511662434
  0
LINE
  5
15D
100
AcDbEntity
  8
Assembly
  6
DASHEDTINY
 62
  216
420
8388736
370
   -1
100
AcDbLine
 10
744.8456710674493
 20
93.33809511662434
 11
819.0918830920361
 21
19.09188309203694
  0
LINE
  5
15E
100
AcDbEntity
  8
Assembly
  6
DASHEDTINY
 62
  216
420
8388736
370
   -1
100
AcDbLine
 10
819.0918830920361
 20
19.09188309203694
 11
819.0918830920361
 21
70.09188309203694
  0
LINE
  5
15F
100
AcDbEntity
  8
Assembly
  6
ByLayer
 62
  216
420
8388736
370
   -1
100
AcDbLine
 10
706.6619048833757
 20
171.3380951166243
 11
687.5700217913388
 21
152.2462120245875
  0
LINE
  5
160
100
AcDbEntity
  8
Assembly
  6
ByLayer
 62
  216
420
8388736
370
   -1
100
AcDbLine
 10
706.6619048833757
 20
66.33809511662429
 11
687.5700217913388
 21
47.24621202458751
  0
LINE
  5
161
100
AcDbEntity
  8
Assembly
  6
ByLayer
 62
  216
420
8388736
370
   -1
100
AcDbLine
 10
819.0918830920368
 20
-46.09188309203678
 11
800
 21
-65.18376618407356
  0
LINE
  5
162
100
AcDbEntity
  8
Assembly
  6
ByLayer
 62
  216
420
8388736
370
   -1
100
AcDbLine
 10
819.0918830920368
 20
58.90811690796322
 11
800
 21
39.81623381592644
  0
LINE
  5
163
100
AcDbEntity
  8
Assembly
  6
ByLayer
 62
  216
420
8388736
370
   -1
100
AcDbLine
 10
687.5700217913388
 20
152.2462120245875
 11
687.5700217913388
 21
47.24621202458751
  0
LINE
  5
164
100
AcDbEntity
  8
Assembly
  6
ByLayer
 62
  216
420
8388736
370
   -1
100
AcDbLine
 10
687.5700217913388
 20
47.24621202458751
 11
800
 21
-65.18376618407356
  0
LINE
  5
165
100
AcDbEntity
  8
Assembly
  6
ByLayer
 62
  216
420
8388736
370
   -1
100
AcDbLine
 10
800
 20
-65.18376618407356
 11
800
 21
39.81623381592644
  0
LINE
  5
166
100
AcDbEntity
  8
Assembly
  6
ByLayer
 62
  216
420
8388736
370
   -1
100
AcDbLine
 10
800
 20
39.81623381592644
 11
687.5700217913388
 21
152.2462120245875
  0
LINE
  5
167
100
AcDbEntity
  8
Assembly
  6
ByLayer
 62
  216
420
8388736
370
   -1
100
AcDbLine
 10
706.6619048833757
 20
171.3380951166243
 11
819.0918830920368
 21
58.90811690796322
  0
LINE
  5
168
100
AcDbEntity
  8
Assembly
  6
ByLayer
 62
  216
420
8388736
370
   -1
100
AcDbLine
 10
819.0918830920368
 20
58.90811690796322
 11
819.0918830920368
 21
-46.09188309203678
  0
LINE
  5
169
100
AcDbEntity
  8
Door
  6
ByLayer
 62
  256
370
   -1
100
AcDbLine
 10
265
 20
582.5
 11
282.0041597344971
 21
581.8059526638981
  0
LINE
  5
16A
100
AcDbEntity
  8
Door
  6
ByLayer
 62
  256
370
   -1
100
AcDbLine
 10
282.0041597344971
 20
581.8059526638981
 11
287
 21
576.6020408163265
  0
LINE
  5
16B
100
AcDbEntity
  8
Door
  6
ByLayer
 62
  256
370
   -1
100
AcDbLine
 10
287
 20
538.3979591836735
 11
287
 21
576.6020408163265
  0
LINE
  5
16C
100
AcDbEntity
  8
Door
  6
ByLayer
 62
  256
370
   -1
100
AcDbLine
 10
282.0041597344971
 20
533.1940473361019
 11
265.0000000000018
 21
532.5
  0
LINE
  5
16D
100
AcDbEntity
  8
Door
  6
ByLayer
 62
  256
370
   -1
100
AcDbLine
 10
287
 20
538.3979591836735
 11
282.0041597344971
 21
533.1940473361019
  0
LINE
  5
16E
100
AcDbEntity
  8
Sides
  6
ByLayer
 62
  256
370
   -1
100
AcDbLine
 10
42
 20
249.75
 11
42
 21
255.25
  0
ARC
  5
16F
100
AcDbEntity
  8
Sides
  6
ByLayer
 62
  256
370
   -1
100
AcDbCircle
 10
57
 20
255.25
 40
5
100
AcDbArc
 50
90
 51
180
  0
LINE
  5
170
100
AcDbEntity
  8
Sides
  6
ByLayer
 62
  256
370
   -1
100
AcDbLine
 10
52
 20
249.75
 11
52
 21
255.25
  0
ARC
  5
171
100
AcDbEntity
  8
Sides
  6
ByLayer
 62
  256
370
   -1
100
AcDbCircle
 10
57
 20
249.75
 40
5
100
AcDbArc
 50
180
 51
270
  0
ARC
  5
172
100
AcDbEntity
  8
Sides
  6
ByLayer
 62
  256
370
   -1
100
AcDbCircle
 10
57
 20
255.25
 40
15
100
AcDbArc
 50
90
 51
180
  0
ARC
  5
173
100
AcDbEntity
  8
Sides
  6
ByLayer
 62
  256
370
   -1
100
AcDbCircle
 10
57
 20
249.75
 40
15
100
AcDbArc
 50
180
 51
270
  0
LINE
  5
174
100
AcDbEntity
  8
Sides
  6
ByLayer
 62
  256
370
   -1
100
AcDbLine
 10
57
 20
270.25
 11
410.0000000000001
 21
270.25
  0
ARC
  5
175
100
AcDbEntity
  8
Sides
  6
ByLayer
 62
  256
370
   -1
100
AcDbCircle
 10
410
 20
265.25
 40
5
100
AcDbArc
 50
0
 51
89.99999999999935
  0
LINE
  5
176
100
AcDbEntity
  8
Sides
  6
ByLayer
 62
  256
370
   -1
100
AcDbLine
 10
57
 20
260.25
 11
410.0000000000001
 21
260.25
  0
LINE
  5
177
100
AcDbEntity
  8
Sides
  6
ByLayer
 62
  256
370
   -1
100
AcDbLine
 10
415
 20
265.25
 11
415
 21
265.25
  0
ARC
  5
178
100
AcDbEntity
  8
Sides
  6
ByLayer
 62
  256
370
   -1
100
AcDbCircle
 10
410
 20
265.25
 40
5
100
AcDbArc
 50
270.0000000000007
 51
0
  0
LINE
  5
179
100
AcDbEntity
  8
Sides
  6
ByLayer
 62
  256
370
   -1
100
AcDbLine
 10
410
 20
244.75
 11
57
 21
244.75
  0
ARC
  5
17A
100
AcDbEntity
  8
Sides
  6
ByLayer
 62
  256
370
   -1
100
AcDbCircle
 10
410
 20
239.75
 40
5
100
AcDbArc
 50
0
 51
90
  0
LINE
  5
17B
100
AcDbEntity
  8
Sides
  6
ByLayer
 62
  256
370
   -1
100
AcDbLine
 10
410
 20
234.75
 11
57
 21
234.75
  0
LINE
  5
17C
100
AcDbEntity
  8
Sides
  6
ByLayer
 62
  256
370
   -1
100
AcDbLine
 10
415
 20
239.75
 11
415
 21
239.75
  0
ARC
  5
17D
100
AcDbEntity
  8
Sides
  6
ByLayer
 62
  256
370
   -1
100
AcDbCircle
 10
410
 20
239.75
 40
5
100
AcDbArc
 50
270
 51
0
  0
LINE
  5
17E
100
AcDbEntity
  8
Sides
  6
ByLayer
 62
  256
370
   -1
100
AcDbLine
 10
-127
 20
200
 11
-127
 21
305
  0
LINE
  5
17F
100
AcDbEntity
  8
Sides
  6
ByLayer
 62
  256
370
   -1
100
AcDbLine
 10
-100
 20
200
 11
-100
 21
305
  0
LINE
  5
180
100
AcDbEntity
  8
Sides
  6
ByLayer
 62
  256
370
   -1
100
AcDbLine
 10
-127
 20
305
 11
-100
 21
305
  0
LINE
  5
181
100
AcDbEntity
  8
Sides
  6
ByLayer
 62
  256
370
   -1
100
AcDbLine
 10
-127
 20
200
 11
-100
 21
200
  0
DIMENSION
  5
182
100
AcDbEntity
  8
Sides
  6
ByLayer
 62
  256
370
   -1
100
AcDbDimension
  2
*D3
 10
-100
 20
320
 30
0
 11
-113.5
 21
327
 31
0
 70
   32
 71
    5
 72
    0
  3
Standard
 53
0
210
0
220
0
230
1
100
AcDbAlignedDimension
 13
-127
 23
305
 33
0
 14
-100
 24
305
 34
0
100
AcDbRotatedDimension
  0
LINE
  5
183
100
AcDbEntity
  8
Bottom/top part
  6
ByLayer
 62
  256
370
   -1
100
AcDbLine
 10
-127
 20
0
 11
-127
 21
105
  0
LINE
  5
184
100
AcDbEntity
  8
Bottom/top part
  6
ByLayer
 62
  256
370
   -1
100
AcDbLine
 10
-100
 20
0
 11
-100
 21
105
  0
LINE
  5
185
100
AcDbEntity
  8
Bottom/top part
  6
ByLayer
 62
  256
370
   -1
100
AcDbLine
 10
-127
 20
105
 11
-100
 21
105
  0
LINE
  5
186
100
AcDbEntity
  8
Bottom/top part
  6
ByLayer
 62
  256
370
   -1
100
AcDbLine
 10
-127
 20
0
 11
-100
 21
0
  0
DIMENSION
  5
187
100
AcDbEntity
  8
Bottom/top part
  6
ByLayer
 62
  256
370
   -1
100
AcDbDimension
  2
*D4
 10
-100
 20
120
 30
0
 11
-113.5
 21
127
 31
0
 70
   32
 71
    5
 72
    0
  3
Standard
 53
0
210
0
220
0
230
1
100
AcDbAlignedDimension
 13
-127
 23
105
 33
0
 14
-100
 24
105
 34
0
100
AcDbRotatedDimension
  0
LINE
  5
188
100
AcDbEntity
  8
Wire groove
  6
ByLayer
 62
  256
370
   -1
100
AcDbLine
 10
0
 20
700
 11
217
 21
700
  0
LINE
  5
189
100
AcDbEntity
  8
Wire groove
  6
ByLayer
 62
  256
370
   -1
100
AcDbLine
 10
0
 20
700
 11
6.429395695523604e-15
 21
805
  0
LINE
  5
18A
100
AcDbEntity
  8
Wire groove
  6
ByLayer
 62
  256
370
   -1
100
AcDbLine
 10
217
 20
700
 11
217
 21
805
  0
LINE
  5
18B
100
AcDbEntity
  8
Wire groove
  6
ByLayer
 62
  256
370
   -1
100
AcDbLine
 10
6.429395695523604e-15
 20
805
 11
217
 21
805
  0
LINE
  5
18C
100
AcDbEntity
  8
Wire groove
  6
ByLayer
 62
  256
370
   -1
100
AcDbLine
 10
217
 20
700
 11
217
 21
805
  0
LINE
  5
18D
100
AcDbEntity
  8
Wire groove
  6
ByLayer
 62
  256
370
   -1
100
AcDbLine
 10
217
 20
700
 11
434
 21
700
  0
LINE
  5
18E
100
AcDbEntity
  8
Wire groove
  6
ByLayer
 62
  256
370
   -1
100
AcDbLine
 10
217
 20
700
 11
217
 21
805
  0
LINE
  5
18F
100
AcDbEntity
  8
Wire groove
  6
ByLayer
 62
  256
370
   -1
100
AcDbLine
 10
434
 20
700
 11
434
 21
805
  0
LINE
  5
190
100
AcDbEntity
  8
Wire groove
  6
ByLayer
 62
  256
370
   -1
100
AcDbLine
 10
217
 20
805
 11
434
 21
805
  0
LINE
  5
191
100
AcDbEntity
  8
Wire groove
  6
ByLayer
 62
  256
370
   -1
100
AcDbLine
 10
434
 20
700
 11
434
 21
805
  0
LINE
  5
192
100
AcDbEntity
  8
Wire groove
  6
ByLayer
 62
  256
370
   -1
100
AcDbLine
 10
27
 20
752.5
 11
27
 21
778
  0
LINE
  5
193
100
AcDbEntity
  8
Wire groove
  6
ByLayer
 62
  256
370
   -1
100
AcDbLine
 10
42
 20
749.75
 11
42
 21
755.25
  0
ARC
  5
194
100
AcDbEntity
  8
Wire groove
  6
ByLayer
 62
  256
370
   -1
100
AcDbCircle
 10
57
 20
755.25
 40
5
100
AcDbArc
 50
90
 51
180
  0
LINE
  5
195
100
AcDbEntity
  8
Wire groove
  6
ByLayer
 62
  256
370
   -1
100
AcDbLine
 10
52
 20
749.75
 11
52
 21
755.25
  0
ARC
  5
196
100
AcDbEntity
  8
Wire groove
  6
ByLayer
 62
  256
370
   -1
100
AcDbCircle
 10
57
 20
749.75
 40
5
100
AcDbArc
 50
180
 51
270
  0
ARC
  5
197
100
AcDbEntity
  8
Wire groove
  6
ByLayer
 62
  256
370
   -1
100
AcDbCircle
 10
57
 20
755.25
 40
15
100
AcDbArc
 50
90
 51
180
  0
ARC
  5
198
100
AcDbEntity
  8
Wire groove
  6
ByLayer
 62
  256
370
   -1
100
AcDbCircle
 10
57
 20
749.75
 40
15
100
AcDbArc
 50
180
 51
270
  0
LINE
  5
199
100
AcDbEntity
  8
Wire groove
  6
ByLayer
 62
  256
370
   -1
100
AcDbLine
 10
57
 20
770.25
 11
410.0000000000001
 21
770.25
  0
ARC
  5
19A
100
AcDbEntity
  8
Wire groove
  6
ByLayer
 62
  256
370
   -1
100
AcDbCircle
 10
410
 20
765.25
 40
5
100
AcDbArc
 50
0
 51
89.99999999999935
  0
LINE
  5
19B
100
AcDbEntity
  8
Wire groove
  6
ByLayer
 62
  256
370
   -1
100
AcDbLine
 10
57
 20
760.25
 11
410.0000000000001
 21
760.25
  0
LINE
  5
19C
100
AcDbEntity
  8
Wire groove
  6
ByLayer
 62
  256
370
   -1
100
AcDbLine
 10
415
 20
765.25
 11
415
 21
765.25
  0
ARC
  5
19D
100
AcDbEntity
  8
Wire groove
  6
ByLayer
 62
  256
370
   -1
100
AcDbCircle
 10
410
 20
765.25
 40
5
100
AcDbArc
 50
270.0000000000007
 51
0
  0
LINE
  5
19E
100
AcDbEntity
  8
Wire groove
  6
ByLayer
 62
  256
370
   -1
100
AcDbLine
 10
410
 20
744.75
 11
57
 21
744.75
  0
ARC
  5
19F
100
AcDbEntity
  8
Wire groove
  6
ByLayer
 62
  256
370
   -1
100
AcDbCircle
 10
410
 20
739.75
 40
5
100
AcDbArc
 50
0
 51
90
  0
LINE
  5
1A0
100
AcDbEntity
  8
Wire groove
  6
ByLayer
 62
  256
370
   -1
100
AcDbLine
 10
410
 20
734.75
 11
57
 21
734.75
  0
LINE
  5
1A1
100
AcDbEntity
  8
Wire groove
  6
ByLayer
 62
  256
370
   -1
100
AcDbLine
 10
415
 20
739.75
 11
415
 21
739.75
  0
ARC
  5
1A2
100
AcDbEntity
  8
Wire groove
  6
ByLayer
 62
  256
370
   -1
100
AcDbCircle
 10
410
 20
739.75
 40
5
100
AcDbArc
 50
270
 51
0
  0
LINE
  5
1A3
100
AcDbEntity
  8
Wire groove
  6
ByLayer
 62
  256
370
   -1
100
AcDbLine
 10
439
 20
727
 11
544
 21
727
  0
LINE
  5
1A4
100
AcDbEntity
  8
Wire groove
  6
ByLayer
 62
  256
370
   -1
100
AcDbLine
 10
439
 20
727
 11
439
 21
777
  0
LINE
  5
1A5
100
AcDbEntity
  8
Wire groove
  6
ByLayer
 62
  256
370
   -1
100
AcDbLine
 10
544
 20
727
 11
544
 21
777
  0
LINE
  5
1A6
100
AcDbEntity
  8
Wire groove
  6
ByLayer
 62
  256
370
   -1
100
AcDbLine
 10
439
 20
777
 11
544
 21
777
  0
LINE
  5
1A7
100
AcDbEntity
  8
Wire groove
  6
ByLayer
 62
  256
370
   -1
100
AcDbLine
 10
439
 20
744.75
 11
544
 21
744.75
  0
LINE
  5
1A8
100
AcDbEntity
  8
Wire groove
  6
ByLayer
 62
  256
370
   -1
100
AcDbLine
 10
439
 20
734.75
 11
544
 21
734.75
  0
LINE
  5
1A9
100
AcDbEntity
  8
Wire groove
  6
ByLayer
 62
  256
370
   -1
100
AcDbLine
 10
439
 20
770.25
 11
476.5
 21
770.25
  0
ARC
  5
1AA
100
AcDbEntity
  8
Wire groove
  6
ByLayer
 62
  256
370
   -1
100
AcDbCircle
 10
476.5
 20
765.25
 40
5
100
AcDbArc
 50
0
 51
90
  0
LINE
  5
1AB
100
AcDbEntity
  8
Wire groove
  6
ByLayer
 62
  256
370
   -1
100
AcDbLine
 10
439
 20
760.25
 11
476.5
 21
760.25
  0
LINE
  5
1AC
100
AcDbEntity
  8
Wire groove
  6
ByLayer
 62
  256
370
   -1
100
AcDbLine
 10
481.5
 20
765.25
 11
481.5
 21
765.25
  0
ARC
  5
1AD
100
AcDbEntity
  8
Wire groove
  6
ByLayer
 62
  256
370
   -1
100
AcDbCircle
 10
476.5
 20
765.25
 40
5
100
AcDbArc
 50
270
 51
0
  0
LINE
  5
1AE
100
AcDbEntity
  8
Wire groove
  6
ByLayer
 62
  256
370
   -1
100
AcDbLine
 10
506.5
 20
770.25
 11
544
 21
770.25
  0
ARC
  5
1AF
100
AcDbEntity
  8
Wire groove
  6
ByLayer
 62
  256
370
   -1
100
AcDbCircle
 10
506.5
 20
765.25
 40
5
100
AcDbArc
 50
90
 51
180
  0
LINE
  5
1B0
100
AcDbEntity
  8
Wire groove
  6
ByLayer
 62
  256
370
   -1
100
AcDbLine
 10
506.5
 20
760.25
 11
544
 21
760.25
  0
LINE
  5
1B1
100
AcDbEntity
  8
Wire groove
  6
ByLayer
 62
  256
370
   -1
100
AcDbLine
 10
501.5
 20
765.25
 11
501.5
 21
765.25
  0
ARC
  5
1B2
100
AcDbEntity
  8
Wire groove
  6
ByLayer
 62
  256
370
   -1
100
AcDbCircle
 10
506.5
 20
765.25
 40
5
100
AcDbArc
 50
180
 51
270
  0
CIRCLE
  5
1B3
100
AcDbEntity
  8
Wire groove
  6
ByLayer
 62
  256
370
   -1
100
AcDbCircle
 10
506.5
 20
765.25
 40
2
  0
CIRCLE
  5
1B4
100
AcDbEntity
  8
Wire groove
  6
ByLayer
 62
  256
370
   -1
100
AcDbCircle
 10
476.5
 20
765.25
 40
2
  0
DIMENSION
  5
1B5
100
AcDbEntity
  8
Wire groove
  6
ByLayer
 62
  256
370
   -1
100
AcDbDimension
  2
*D5
 10
407
 20
710
 30
0
 11
228.4644660940673
 21
714.6875
 31
0
 70
   32
 71
    5
 72
    0
  3
Standard
 53
0
210
0
220
0
230
1
100
AcDbAlignedDimension
 13
49.92893218813452
 23
742.6789321881346
 33
0
 14
407
 24
739.75
 34
0
100
AcDbRotatedDimension
  0
DIMENSION
  5
1B6
100
AcDbEntity
  8
Wire groove
  6
ByLayer
 62
  256
370
   -1
100
AcDbDimension
  2
*D6
 10
49.92893218813452
 20
790
 30
0
 11
228.4644660940673
 21
794.6875
 31
0
 70
   32
 71
    5
 72
    0
  3
Standard
 53
0
210
0
220
0
230
1
100
AcDbAlignedDimension
 13
407
 23
765.25
 33
0
 14
49.92893218813452
 24
762.3210678118655
 34
0
100
AcDbRotatedDimension
  0
DIMENSION
  5
1B7
100
AcDbEntity
  8
Wire groove
  6
ByLayer
 62
  256
370
   -1
100
AcDbDimension
  2
*D7
 10
20
 20
762.3210678118655
 30
0
 11
15.3125
 21
752.5
 31
0
 70
   32
 71
    5
 72
    0
  3
Standard
 53
0
210
0
220
0
230
1
100
AcDbAlignedDimension
 13
49.92893218813452
 23
742.6789321881346
 33
0
 14
49.92893218813452
 24
762.3210678118655
 34
0
 50
90
100
AcDbRotatedDimension
  0
DIMENSION
  5
1B8
100
AcDbEntity
  8
Wire groove
  6
ByLayer
 62
  256
370
   -1
100
AcDbDimension
  2
*D8
 10
544
 20
710
 30
0
 11
491.5
 21
714.6875
 31
0
 70
   32
 71
    5
 72
    0
  3
Standard
 53
0
210
0
220
0
230
1
100
AcDbAlignedDimension
 13
439
 23
734.75
 33
0
 14
544
 24
734.75
 34
0
100
AcDbRotatedDimension
  0
DIMENSION
  5
1B9
100
AcDbEntity
  8
Wire groove
  6
ByLayer
 62
  256
370
   -1
100
AcDbDimension
  2
*D9
 10
506.5
 20
790
 30
0
 11
525.25
 21
794.6875
 31
0
 70
   32
 71
    5
 72
    0
  3
Standard
 53
0
210
0
220
0
230
1
100
AcDbAlignedDimension
 13
544
 23
770.25
 33
0
 14
506.5
 24
765.25
 34
0
100
AcDbRotatedDimension
  0
DIMENSION
  5
1BA
100
AcDbEntity
  8
Wire groove
  6
ByLayer
 62
  256
370
   -1
100
AcDbDimension
  2
*D10
 10
439
 20
790
 30
0
 11
457.75
 21
794.6875
 31
0
 70
   32
 71
    5
 72
    0
  3
Standard
 53
0
210
0
220
0
230
1
100
AcDbAlignedDimension
 13
476.5
 23
765.25
 33
0
 14
439
 24
770.25
 34
0
100
AcDbRotatedDimension
  0
LINE
  5
1BB
100
AcDbEntity
  8
Endwall
  6
ByLayer
 62
  256
370
   -1
100
AcDbLine
 10
27
 20
387.5
 11
132
 21
387.5
  0
LINE
  5
1BC
100
AcDbEntity
  8
Endwall
  6
ByLayer
 62
  256
370
   -1
100
AcDbLine
 10
27
 20
387.5
 11
27
 21
437.5
  0
LINE
  5
1BD
100
AcDbEntity
  8
Endwall
  6
ByLayer
 62
  256
370
   -1
100
AcDbLine
 10
132
 20
387.5
 11
132
 21
437.5
  0
LINE
  5
1BE
100
AcDbEntity
  8
Endwall
  6
ByLayer
 62
  256
370
   -1
100
AcDbLine
 10
27
 20
437.5
 11
132
 21
437.5
  0
LINE
  5
1BF
100
AcDbEntity
  8
Endwall
  6
ByLayer
 62
  256
370
   -1
100
AcDbLine
 10
0
 20
460
 11
5
 21
465
  0
LINE
  5
1C0
100
AcDbEntity
  8
Endwall
  6
ByLayer
 62
  256
370
   -1
100
AcDbLine
 10
5
 20
465
 11
154
 21
465
  0
LINE
  5
1C1
100
AcDbEntity
  8
Endwall
  6
ByLayer
 62
  256
370
   -1
100
AcDbLine
 10
154
 20
465
 11
159
 21
460
  0
LINE
  5
1C2
100
AcDbEntity
  8
Endwall
  6
ByLayer
 62
  256
370
   -1
100
AcDbLine
 10
159
 20
365
 11
159
 21
460
  0
LINE
  5
1C3
100
AcDbEntity
  8
Endwall
  6
ByLayer
 62
  256
370
   -1
100
AcDbLine
 10
159
 20
365
 11
154
 21
360
  0
LINE
  5
1C4
100
AcDbEntity
  8
Endwall
  6
ByLayer
 62
  256
370
   -1
100
AcDbLine
 10
5
 20
360
 11
154
 21
360
  0
LINE
  5
1C5
100
AcDbEntity
  8
Endwall
  6
ByLayer
 62
  256
370
   -1
100
AcDbLine
 10
0
 20
365
 11
0
 21
460
  0
LINE
  5
1C6
100
AcDbEntity
  8
Endwall
  6
ByLayer
 62
  256
370
   -1
100
AcDbLine
 10
5
 20
360
 11
0
 21
365
  0
LINE
  5
1C7
100
AcDbEntity
  8
Endwall
  6
ByLayer
 62
  256
370
   -1
100
AcDbLine
 10
27
 20
405.25
 11
132
 21
405.25
  0
LINE
  5
1C8
100
AcDbEntity
  8
Endwall
  6
ByLayer
 62
  256
370
   -1
100
AcDbLine
 10
27
 20
395.25
 11
132
 21
395.25
  0
LINE
  5
1C9
100
AcDbEntity
  8
Endwall
  6
ByLayer
 62
  256
370
   -1
100
AcDbLine
 10
27
 20
430.75
 11
64.5
 21
430.75
  0
ARC
  5
1CA
100
AcDbEntity
  8
Endwall
  6
ByLayer
 62
  256
370
   -1
100
AcDbCircle
 10
64.5
 20
425.75
 40
5
100
AcDbArc
 50
0
 51
90
  0
LINE
  5
1CB
100
AcDbEntity
  8
Endwall
  6
ByLayer
 62
  256
370
   -1
100
AcDbLine
 10
27
 20
420.75
 11
64.5
 21
420.75
  0
LINE
  5
1CC
100
AcDbEntity
  8
Endwall
  6
ByLayer
 62
  256
370
   -1
100
AcDbLine
 10
69.5
 20
425.75
 11
69.5
 21
425.75
  0
ARC
  5
1CD
100
AcDbEntity
  8
Endwall
  6
ByLayer
 62
  256
370
   -1
100
AcDbCircle
 10
64.5
 20
425.75
 40
5
100
AcDbArc
 50
270
 51
0
  0
LINE
  5
1CE
100
AcDbEntity
  8
Endwall
  6
ByLayer
 62
  256
370
   -1
100
AcDbLine
 10
94.5
 20
430.75
 11
132
 21
430.75
  0
ARC
  5
1CF
100
AcDbEntity
  8
Endwall
  6
ByLayer
 62
  256
370
   -1
100
AcDbCircle
 10
94.5
 20
425.75
 40
5
100
AcDbArc
 50
90
 51
180
  0
LINE
  5
1D0
100
AcDbEntity
  8
Endwall
  6
ByLayer
 62
  256
370
   -1
100
AcDbLine
 10
94.5
 20
420.75
 11
132
 21
420.75
  0
LINE
  5
1D1
100
AcDbEntity
  8
Endwall
  6
ByLayer
 62
  256
370
   -1
100
AcDbLine
 10
89.5
 20
425.75
 11
89.5
 21
425.75
  0
ARC
  5
1D2
100
AcDbEntity
  8
Endwall
  6
ByLayer
 62
  256
370
   -1
100
AcDbCircle
 10
94.5
 20
425.75
 40
5
100
AcDbArc
 50
180
 51
270
  0
CIRCLE
  5
1D3
100
AcDbEntity
  8
Endwall
  6
ByLayer
 62
  256
370
   -1
100
AcDbCircle
 10
94.5
 20
425.75
 40
2
  0
CIRCLE
  5
1D4
100
AcDbEntity
  8
Endwall
  6
ByLayer
 62
  256
370
   -1
100
AcDbCircle
 10
64.5
 20
425.75
 40
2
  0
LINE
  5
1D5
100
AcDbEntity
  8
Endwall
  6
ByLayer
 62
  256
370
   -1
100
AcDbLine
 10
213
 20
387.5
 11
240
 21
387.5
  0
LINE
  5
1D6
100
AcDbEntity
  8
Endwall
  6
ByLayer
 62
  256
370
   -1
100
AcDbLine
 10
240
 20
387.5
 11
240
 21
437.5
  0
LINE
  5
1D7
100
AcDbEntity
  8
Endwall
  6
ByLayer
 62
  256
370
   -1
100
AcDbLine
 10
213
 20
387.5
 11
213
 21
437.5
  0
LINE
  5
1D8
100
AcDbEntity
  8
Endwall
  6
ByLayer
 62
  256
370
   -1
100
AcDbLine
 10
213
 20
437.5
 11
240
 21
437.5
  0
LINE
  5
1D9
100
AcDbEntity
  8
Endwall
  6
ByLayer
 62
  256
370
   -1
100
AcDbLine
 10
240
 20
465
 11
267
 21
465
  0
LINE
  5
1DA
100
AcDbEntity
  8
Endwall
  6
ByLayer
 62
  256
370
   -1
100
AcDbLine
 10
267
 20
360
 11
267
 21
465
  0
LINE
  5
1DB
100
AcDbEntity
  8
Endwall
  6
ByLayer
 62
  256
370
   -1
100
AcDbLine
 10
240
 20
360
 11
240
 21
465
  0
LINE
  5
1DC
100
AcDbEntity
  8
Endwall
  6
ByLayer
 62
  256
370
   -1
100
AcDbLine
 10
240
 20
360
 11
267
 21
360
  0
ARC
  5
1DD
100
AcDbEntity
  8
Endwall
  6
DASHEDTINY
 62
  256
370
   -1
100
AcDbCircle
 10
220
 20
425.75
 40
5
100
AcDbArc
 50
0
 51
90
  0
ARC
  5
1DE
100
AcDbEntity
  8
Endwall
  6
DASHEDTINY
 62
  256
370
   -1
100
AcDbCircle
 10
220
 20
400.25
 40
5
100
AcDbArc
 50
270
 51
0
  0
LINE
  5
1DF
100
AcDbEntity
  8
Endwall
  6
DASHEDTINY
 62
  256
370
   -1
100
AcDbLine
 10
225
 20
425.75
 11
225
 21
425.75
  0
ARC
  5
1E0
100
AcDbEntity
  8
Endwall
  6
DASHEDTINY
 62
  256
370
   -1
100
AcDbCircle
 10
220
 20
425.75
 40
5
100
AcDbArc
 50
270
 51
0
  0
ARC
  5
1E1
100
AcDbEntity
  8
Endwall
  6
DASHEDTINY
 62
  256
370
   -1
100
AcDbCircle
 10
220
 20
400.25
 40
5
100
AcDbArc
 50
0
 51
90
  0
LINE
  5
1E2
100
AcDbEntity
  8
Endwall
  6
DASHEDTINY
 62
  256
370
   -1
100
AcDbLine
 10
213
 20
430.75
 11
220
 21
430.75
  0
LINE
  5
1E3
100
AcDbEntity
  8
Endwall
  6
DASHEDTINY
 62
  256
370
   -1
100
AcDbLine
 10
213
 20
420.75
 11
220
 21
420.75
  0
LINE
  5
1E4
100
AcDbEntity
  8
Endwall
  6
DASHEDTINY
 62
  256
370
   -1
100
AcDbLine
 10
213
 20
405.25
 11
220
 21
405.25
  0
LINE
  5
1E5
100
AcDbEntity
  8
Endwall
  6
DASHEDTINY
 62
  256
370
   -1
100
AcDbLine
 10
213
 20
395.25
 11
220
 21
395.25
  0
LINE
  5
1E6
100
AcDbEntity
  8
Endwall
  6
DASHEDTINY
 62
  256
370
   -1
100
AcDbLine
 10
224.5825756949509
 20
427.75
 11
267
 21
427.75
  0
LINE
  5
1E7
100
AcDbEntity
  8
Endwall
  6
DASHEDTINY
 62
  256
370
   -1
100
AcDbLine
 10
224.5825756949578
 20
423.75
 11
267
 21
423.75
  0
ARC
  5
1E8
100
AcDbEntity
  8
Sides
  6
DASHEDTINY
 62
  256
370
   -1
100
AcDbCircle
 10
-107
 20
265.75
 40
5
100
AcDbArc
 50
90
 51
180
  0
ARC
  5
1E9
100
AcDbEntity
  8
Sides
  6
DASHEDTINY
 62
  256
370
   -1
100
AcDbCircle
 10
-107
 20
240.25
 40
5
100
AcDbArc
 50
180
 51
270
  0
LINE
  5
1EA
100
AcDbEntity
  8
Sides
  6
DASHEDTINY
 62
  256
370
   -1
100
AcDbLine
 10
-112
 20
265.75
 11
-112
 21
265.75
  0
ARC
  5
1EB
100
AcDbEntity
  8
Sides
  6
DASHEDTINY
 62
  256
370
   -1
100
AcDbCircle
 10
-107
 20
265.75
 40
5
100
AcDbArc
 50
180
 51
270
  0
ARC
  5
1EC
100
AcDbEntity
  8
Sides
  6
DASHEDTINY
 62
  256
370
   -1
100
AcDbCircle
 10
-107
 20
240.25
 40
5
100
AcDbArc
 50
90
 51
180
  0
LINE
  5
1ED
100
AcDbEntity
  8
Sides
  6
DASHEDTINY
 62
  256
370
   -1
100
AcDbLine
 10
-100
 20
270.75
 11
-107
 21
270.75
  0
LINE
  5
1EE
100
AcDbEntity
  8
Sides
  6
DASHEDTINY
 62
  256
370
   -1
100
AcDbLine
 10
-100
 20
260.75
 11
-107
 21
260.75
  0
LINE
  5
1EF
100
AcDbEntity
  8
Sides
  6
DASHEDTINY
 62
  256
370
   -1
100
AcDbLine
 10
-100
 20
245.25
 11
-107
 21
245.25
  0
LINE
  5
1F0
100
AcDbEntity
  8
Sides
  6
DASHEDTINY
 62
  256
370
   -1
100
AcDbLine
 10
-100
 20
235.25
 11
-107
 21
235.25
  0
LINE
  5
1F1
100
AcDbEntity
  8
Single brick
  6
ByLayer
 62
  256
370
   -1
100
AcDbLine
 10
700
 20
700
 11
917
 21
700
  0
LINE
  5
1F2
100
AcDbEntity
  8
Single brick
  6
ByLayer
 62
  256
370
   -1
100
AcDbLine
 10
700
 20
700
 11
700
 21
805
  0
LINE
  5
1F3
100
AcDbEntity
  8
Single brick
  6
ByLayer
 62
  256
370
   -1
100
AcDbLine
 10
917
 20
700
 11
917
 21
805
  0
LINE
  5
1F4
100
AcDbEntity
  8
Single brick
  6
ByLayer
 62
  256
370
   -1
100
AcDbLine
 10
700
 20
805
 11
917
 21
805
  0
LINE
  5
1F5
100
AcDbEntity
  8
Single brick
  6
ByLayer
 62
  256
370
   -1
100
AcDbLine
 10
967
 20
700
 11
967
 21
805
  0
LINE
  5
1F6
100
AcDbEntity
  8
Single brick
  6
ByLayer
 62
  256
370
   -1
100
AcDbLine
 10
994
 20
700
 11
994
 21
805
  0
LINE
  5
1F7
100
AcDbEntity
  8
Single brick
  6
ByLayer
 62
  256
370
   -1
100
AcDbLine
 10
967
 20
805
 11
994
 21
805
  0
LINE
  5
1F8
100
AcDbEntity
  8
Single brick
  6
ByLayer
 62
  256
370
   -1
100
AcDbLine
 10
967
 20
700
 11
994
 21
700
  0
DIMENSION
  5
1F9
100
AcDbEntity
  8
Single brick
  6
ByLayer
 62
  256
370
   -1
100
AcDbDimension
  2
*D11
 10
917
 20
820
 30
0
 11
808.5
 21
827
 31
0
 70
   32
 71
    5
 72
    0
  3
Standard
 53
0
210
0
220
0
230
1
100
AcDbAlignedDimension
 13
700
 23
805
 33
0
 14
917
 24
805
 34
0
100
AcDbRotatedDimension
  0
DIMENSION
  5
1FA
100
AcDbEntity
  8
Single brick
  6
ByLayer
 62
  256
370
   -1
100
AcDbDimension
  2
*D12
 10
994
 20
820
 30
0
 11
980.5
 21
827
 31
0
 70
   32
 71
    5
 72
    0
  3
Standard
 53
0
210
0
220
0
230
1
100
AcDbAlignedDimension
 13
967
 23
805
 33
0
 14
994
 24
805
 34
0
100
AcDbRotatedDimension
  0
DIMENSION
  5
1FB
100
AcDbEntity
  8
Single brick
  6
ByLayer
 62
  256
370
   -1
100
AcDbDimension
  2
*D13
 10
680
 20
805
 30
0
 11
673
 21
752.5
 31
0
 70
   32
 71
    5
 72
    0
  3
Standard
 53
0
210
0
220
0
230
1
100
AcDbAlignedDimension
 13
700
 23
700
 33
0
 14
700
 24
805
 34
0
 50
90
100
AcDbRotatedDimension
  0
DIMENSION
  5
1FC
100
AcDbEntity
  8
Assembly
  6
ByLayer
 62
  256
370
   -1
100
AcDbDimension
  2
*D14
 10
670.5
 20
180.4999999999999
 30
0
 11
811.0816669346503
 21
327.7107930082743
 31
0
 70
   33
 71
    5
  3
Standard
 53
0
210
0
220
0
230
1
100
AcDbAlignedDimension
 13
1013.546247918337
 23
413.0386719675124
 33
0
 14
725.7537879754125
 24
125.2462120245875
 34
0
  0
MTEXT
  5
1FD
100
AcDbEntity
  8
Assembly
  6
ByLayer
 62
  256
370
   -1
100
AcDbMText
 10
800
 20
-110
 30
0
 40
25
 41
354.1666666666667
 71
    1
 72
    1
  1
Inner volume 2.14dm3
  7
unicode
210
0
220
0
230
1
 50
0
 73
    2
 44
1
  0
ENDSEC
  0
SECTION
  2
OBJECTS
  0
DICTIONARY
  5
C
330
0
100
AcDbDictionary
281
    1
  3
ACAD_GROUP
350
D
  0
DICTIONARY
  5
D
330
C
100
AcDbDictionary
281
    1
  0
ENDSEC
  0
EOF
