999
dxfrw 0.6.3
  0
SECTION
  2
HEADER
  9
$ACADVER
  1
AC1021
  9
$DWGCODEPAGE
  3
ANSI_1252
  9
$INSBASE
 10
0
 20
0
 30
0
  9
$EXTMIN
 10
-84.95042655833646
 20
-44.35577711641358
 30
0
  9
$EXTMAX
 10
440.0398713450602
 20
163.539432412734
 30
0
  9
$LIMMIN
 10
0
 20
0
  9
$LIMMAX
 10
420
 20
297
  9
$ORTHOMODE
 70
    0
  9
$REGENMODE
 70
    1
  9
$FILLMODE
 70
    1
  9
$QTEXTMODE
 70
    0
  9
$MIRRTEXT
 70
    0
  9
$LTSCALE
 40
1
  9
$ATTMODE
 70
    0
  9
$TEXTSIZE
 40
2.5
  9
$TRACEWID
 40
15.68
  9
$TEXTSTYLE
  7
STANDARD
  9
$CLAYER
  8
Measurements
  9
$CELTYPE
  6
BYLAYER
  9
$CECOLOR
 62
  256
  9
$CELTSCALE
 40
1
  9
$DISPSILH
 70
    0
  9
$DIMSCALE
 40
2.5
  9
$DIMASZ
 40
2.5
  9
$DIMEXO
 40
0.625
  9
$DIMDLI
 40
3.75
  9
$DIMRND
 40
0
  9
$DIMDLE
 40
0
  9
$DIMEXE
 40
1.25
  9
$DIMTP
 40
0
  9
$DIMTM
 40
0
  9
$DIMTXT
 40
2.5
  9
$DIMCEN
 40
2.5
  9
$DIMTSZ
 40
0
  9
$DIMTOL
 70
    0
  9
$DIMLIM
 70
    0
  9
$DIMTIH
 70
    0
  9
$DIMTOH
 70
    0
  9
$DIMSE1
 70
    0
  9
$DIMSE2
 70
    0
  9
$DIMTAD
 70
    1
  9
$DIMZIN
 70
    1
  9
$DIMBLK
  1

  9
$DIMASO
 70
    1
  9
$DIMSHO
 70
    1
  9
$DIMPOST
  1

  9
$DIMAPOST
  1

  9
$DIMALT
 70
    0
  9
$DIMALTD
 70
    3
  9
$DIMALTF
 40
0.03937
  9
$DIMLFAC
 40
1
  9
$DIMTOFL
 70
    1
  9
$DIMTVP
 40
0
  9
$DIMTIX
 70
    0
  9
$DIMSOXD
 70
    0
  9
$DIMSAH
 70
    0
  9
$DIMBLK1
  1

  9
$DIMBLK2
  1

  9
$DIMSTYLE
  2
STANDARD
  9
$DIMCLRD
 70
    0
  9
$DIMCLRE
 70
    0
  9
$DIMCLRT
 70
    0
  9
$DIMTFAC
 40
1
  9
$DIMGAP
 40
0.625
  9
$DIMJUST
 70
    0
  9
$DIMSD1
 70
    0
  9
$DIMSD2
 70
    0
  9
$DIMTOLJ
 70
    0
  9
$DIMTZIN
 70
    8
  9
$DIMALTZ
 70
    0
  9
$DIMALTTZ
 70
    0
  9
$DIMUPT
 70
    0
  9
$DIMDEC
 70
    1
  9
$DIMTDEC
 70
    2
  9
$DIMALTU
 70
    2
  9
$DIMALTTD
 70
    3
  9
$DIMTXSTY
  7
standard
  9
$DIMAUNIT
 70
    0
  9
$DIMADEC
 70
    1
  9
$DIMALTRND
 40
0
  9
$DIMAZIN
 70
    0
  9
$DIMDSEP
 70
   44
  9
$DIMATFIT
 70
    3
  9
$DIMFRAC
 70
    0
  9
$DIMLDRBLK
  1
STANDARD
  9
$DIMLUNIT
 70
    2
  9
$DIMLWD
 70
   -2
  9
$DIMLWE
 70
   -2
  9
$DIMTMOVE
 70
    0
  9
$DIMFXL
 40
1
  9
$DIMFXLON
 70
    0
  9
$DIMJOGANG
 40
0.7854
  9
$DIMTFILL
 70
    0
  9
$DIMTFILLCLR
 70
    0
  9
$DIMARCSYM
 70
    0
  9
$DIMLTYPE
  6

  9
$DIMLTEX1
  6

  9
$DIMLTEX2
  6

  9
$LUNITS
 70
    2
  9
$LUPREC
 70
    4
  9
$SKETCHINC
 40
1
  9
$FILLETRAD
 40
0
  9
$AUNITS
 70
    0
  9
$AUPREC
 70
    2
  9
$MENU
  1
.
  9
$ELEVATION
 40
0
  9
$PELEVATION
 40
0
  9
$THICKNESS
 40
0
  9
$LIMCHECK
 70
    0
  9
$CHAMFERA
 40
0
  9
$CHAMFERB
 40
0
  9
$CHAMFERC
 40
0
  9
$CHAMFERD
 40
0
  9
$SKPOLY
 70
    0
  9
$USRTIMER
 70
    1
  9
$ANGBASE
 50
0
  9
$ANGDIR
 70
    0
  9
$PDMODE
 70
   34
  9
$PDSIZE
 40
0
  9
$PLINEWID
 40
0
  9
$SPLFRAME
 70
    0
  9
$SPLINETYPE
 70
    2
  9
$SPLINESEGS
 70
    8
  9
$HANDSEED
  5
20000
  9
$SURFTAB1
 70
    6
  9
$SURFTAB2
 70
    6
  9
$SURFTYPE
 70
    6
  9
$SURFU
 70
    6
  9
$SURFV
 70
    6
  9
$UCSBASE
  2

  9
$UCSNAME
  2

  9
$UCSORG
 10
0
 20
0
 30
0
  9
$UCSXDIR
 10
1
 20
0
 30
0
  9
$UCSYDIR
 10
0
 20
1
 30
0
  9
$UCSORTHOREF
  2

  9
$UCSORTHOVIEW
 70
    0
  9
$UCSORGTOP
 10
0
 20
0
 30
0
  9
$UCSORGBOTTOM
 10
0
 20
0
 30
0
  9
$UCSORGLEFT
 10
0
 20
0
 30
0
  9
$UCSORGRIGHT
 10
0
 20
0
 30
0
  9
$UCSORGFRONT
 10
0
 20
0
 30
0
  9
$UCSORGBACK
 10
0
 20
0
 30
0
  9
$PUCSBASE
  2

  9
$PUCSNAME
  2

  9
$PUCSORG
 10
0
 20
0
 30
0
  9
$PUCSXDIR
 10
1
 20
0
 30
0
  9
$PUCSYDIR
 10
0
 20
1
 30
0
  9
$PUCSORTHOREF
  2

  9
$PUCSORTHOVIEW
 70
    0
  9
$PUCSORGTOP
 10
0
 20
0
 30
0
  9
$PUCSORGBOTTOM
 10
0
 20
0
 30
0
  9
$PUCSORGLEFT
 10
0
 20
0
 30
0
  9
$PUCSORGRIGHT
 10
0
 20
0
 30
0
  9
$PUCSORGFRONT
 10
0
 20
0
 30
0
  9
$PUCSORGBACK
 10
0
 20
0
 30
0
  9
$USERI1
 70
    0
  9
$USERI2
 70
    0
  9
$USERI3
 70
    0
  9
$USERI4
 70
    0
  9
$USERI5
 70
    0
  9
$USERR1
 40
0
  9
$USERR2
 40
0
  9
$USERR3
 40
0
  9
$USERR4
 40
0
  9
$USERR5
 40
0
  9
$WORLDVIEW
 70
    1
  9
$SHADEDGE
 70
    3
  9
$SHADEDIF
 70
   70
  9
$TILEMODE
 70
    1
  9
$MAXACTVP
 70
   64
  9
$PINSBASE
 10
56.51322484652724
 20
74.12518729387608
 30
0
  9
$PLIMCHECK
 70
    0
  9
$PEXTMIN
 10
0
 20
0
 30
0
  9
$PEXTMAX
 10
0
 20
0
 30
0
  9
$GRIDMODE
 70
    1
  9
$SNAPSTYLE
 70
    0
  9
$GRIDUNIT
 10
0
 20
0
  9
$PLIMMIN
 10
0
 20
0
  9
$PLIMMAX
 10
297
 20
210
  9
$UNITMODE
 70
    0
  9
$VISRETAIN
 70
    1
  9
$PLINEGEN
 70
    0
  9
$PSLTSCALE
 70
    1
  9
$TREEDEPTH
 70
 3020
  9
$CMLSTYLE
  2
Standard
  9
$CMLJUST
 70
    0
  9
$CMLSCALE
 40
20
  9
$PROXYGRAPHICS
 70
    1
  9
$MEASUREMENT
 70
    1
  9
$CELWEIGHT
370
   -1
  9
$ENDCAPS
280
    0
  9
$JOINSTYLE
280
    0
  9
$LWDISPLAY
290
    0
  9
$INSUNITS
 70
    0
  9
$HYPERLINKBASE
  1

  9
$STYLESHEET
  1

  9
$XEDIT
290
    1
  9
$CEPSNTYPE
380
    0
  9
$PSTYLEMODE
290
    1
  9
$EXTNAMES
290
    1
  9
$PSVPSCALE
 40
0.5181048127675126
  9
$OLESTARTUP
290
    0
  9
$SORTENTS
280
  127
  9
$INDEXCTL
280
    0
  9
$HIDETEXT
280
    1
  9
$XCLIPFRAME
290
    0
  9
$HALOGAP
280
    0
  9
$OBSCOLOR
 70
  257
  9
$OBSLTYPE
280
    0
  9
$INTERSECTIONDISPLAY
280
    0
  9
$INTERSECTIONCOLOR
 70
  257
  9
$DIMASSOC
280
    1
  9
$PROJECTNAME
  1

  9
$CAMERADISPLAY
290
    0
  9
$LENSLENGTH
 40
50
  9
$CAMERAHEIGHT
 40
0
  9
$STEPSPERSEC
 40
2
  9
$STEPSIZE
 40
50
  9
$3DDWFPREC
 40
2
  9
$PSOLWIDTH
 40
5
  9
$PSOLHEIGHT
 40
80
  9
$LOFTANG1
 40
1.570796326794897
  9
$LOFTANG2
 40
1.570796326794897
  9
$LOFTMAG1
 40
0
  9
$LOFTMAG2
 40
0
  9
$LOFTPARAM
 70
    7
  9
$LOFTNORMALS
280
    1
  9
$LATITUDE
 40
1
  9
$LONGITUDE
 40
1
  9
$NORTHDIRECTION
 40
0
  9
$TIMEZONE
 70
-8000
  9
$LIGHTGLYPHDISPLAY
280
    1
  9
$TILEMODELIGHTSYNCH
280
    1
  9
$SOLIDHIST
280
    1
  9
$SHOWHIST
280
    1
  9
$DWFFRAME
280
    2
  9
$DGNFRAME
280
    0
  9
$REALWORLDSCALE
290
    1
  9
$INTERFERECOLOR
 62
    1
  9
$CSHADOW
280
    0
  9
$SHADOWPLANELOCATION
 40
0
  0
ENDSEC
  0
SECTION
  2
CLASSES
  0
ENDSEC
  0
SECTION
  2
TABLES
  0
TABLE
  2
VPORT
  5
8
330
0
100
AcDbSymbolTable
 70
    1
  0
VPORT
  5
31
330
2
100
AcDbSymbolTableRecord
100
AcDbViewportTableRecord
  2
*ACTIVE
 70
    0
 10
0
 20
0
 11
1
 21
1
 12
-14.96804439640096
 22
-27.99578674141661
 13
0
 23
0
 14
10
 24
10
 15
10
 25
10
 16
0
 26
0
 36
1
 17
0
 27
0
 37
0
 40
28.82734476343888
 41
2.096153846153846
 42
50
 43
0
 44
0
 50
0
 51
0
 71
    0
 72
  100
 73
    1
 74
    3
 75
    0
 76
    1
 77
    0
 78
    0
281
    0
 65
    1
110
0
120
0
130
0
111
1
121
0
131
0
112
0
122
1
132
0
 79
    0
146
0
348
10020
 60
    7
 61
    5
292
1
282
    1
141
0
142
0
 63
  250
421
3358443
  0
ENDTAB
  0
TABLE
  2
LTYPE
  5
5
330
0
100
AcDbSymbolTable
 70
    4
  0
LTYPE
  5
14
330
5
100
AcDbSymbolTableRecord
100
AcDbLinetypeTableRecord
  2
ByBlock
 70
    0
  3

 72
   65
 73
    0
 40
0
  0
LTYPE
  5
15
330
5
100
AcDbSymbolTableRecord
100
AcDbLinetypeTableRecord
  2
ByLayer
 70
    0
  3

 72
   65
 73
    0
 40
0
  0
LTYPE
  5
16
330
5
100
AcDbSymbolTableRecord
100
AcDbLinetypeTableRecord
  2
Continuous
 70
    0
  3
Solid line
 72
   65
 73
    0
 40
0
  0
LTYPE
  5
32
330
5
100
AcDbSymbolTableRecord
100
AcDbLinetypeTableRecord
  2
DOT
 70
    0
  3
Dot . . . . . . . . . . . . . . . . . . . . . .
 72
   65
 73
    2
 40
6.35
 49
0
 74
    0
 49
-6.35
 74
    0
  0
LTYPE
  5
33
330
5
100
AcDbSymbolTableRecord
100
AcDbLinetypeTableRecord
  2
DOTTINY
 70
    0
  3
Dot (.15x) .....................................
 72
   65
 73
    2
 40
0.9525
 49
0
 74
    0
 49
-0.9525
 74
    0
  0
LTYPE
  5
34
330
5
100
AcDbSymbolTableRecord
100
AcDbLinetypeTableRecord
  2
DOT2
 70
    0
  3
Dot (.5x) .....................................
 72
   65
 73
    2
 40
3.175
 49
0
 74
    0
 49
-3.175
 74
    0
  0
LTYPE
  5
35
330
5
100
AcDbSymbolTableRecord
100
AcDbLinetypeTableRecord
  2
DOTX2
 70
    0
  3
Dot (2x) .  .  .  .  .  .  .  .  .  .  .  .  .
 72
   65
 73
    2
 40
12.7
 49
0
 74
    0
 49
-12.7
 74
    0
  0
LTYPE
  5
36
330
5
100
AcDbSymbolTableRecord
100
AcDbLinetypeTableRecord
  2
DASHED
 70
    0
  3
Dashed _ _ _ _ _ _ _ _ _ _ _ _ _ _ _ _ _
 72
   65
 73
    2
 40
19.05
 49
12.7
 74
    0
 49
-6.35
 74
    0
  0
LTYPE
  5
37
330
5
100
AcDbSymbolTableRecord
100
AcDbLinetypeTableRecord
  2
DASHEDTINY
 70
    0
  3
Dashed (.15x) _ _ _ _ _ _ _ _ _ _ _ _ _ _ _ _ _
 72
   65
 73
    2
 40
2.8575
 49
1.905
 74
    0
 49
-0.9525
 74
    0
  0
LTYPE
  5
38
330
5
100
AcDbSymbolTableRecord
100
AcDbLinetypeTableRecord
  2
DASHED2
 70
    0
  3
Dashed (.5x) _ _ _ _ _ _ _ _ _ _ _ _ _ _ _ _ _
 72
   65
 73
    2
 40
9.524999999999999
 49
6.35
 74
    0
 49
-3.175
 74
    0
  0
LTYPE
  5
39
330
5
100
AcDbSymbolTableRecord
100
AcDbLinetypeTableRecord
  2
DASHEDX2
 70
    0
  3
Dashed (2x) ____  ____  ____  ____  ____  ___
 72
   65
 73
    2
 40
38.09999999999999
 49
25.4
 74
    0
 49
-12.7
 74
    0
  0
LTYPE
  5
3A
330
5
100
AcDbSymbolTableRecord
100
AcDbLinetypeTableRecord
  2
DASHDOT
 70
    0
  3
Dash dot __ . __ . __ . __ . __ . __ . __ . __
 72
   65
 73
    4
 40
25.4
 49
12.7
 74
    0
 49
-6.35
 74
    0
 49
0
 74
    0
 49
-6.35
 74
    0
  0
LTYPE
  5
3B
330
5
100
AcDbSymbolTableRecord
100
AcDbLinetypeTableRecord
  2
DASHDOTTINY
 70
    0
  3
Dash dot (.15x) _._._._._._._._._._._._._._._.
 72
   65
 73
    4
 40
3.81
 49
1.905
 74
    0
 49
-0.9525
 74
    0
 49
0
 74
    0
 49
-0.9525
 74
    0
  0
LTYPE
  5
3C
330
5
100
AcDbSymbolTableRecord
100
AcDbLinetypeTableRecord
  2
DASHDOT2
 70
    0
  3
Dash dot (.5x) _._._._._._._._._._._._._._._.
 72
   65
 73
    4
 40
12.7
 49
6.35
 74
    0
 49
-3.175
 74
    0
 49
0
 74
    0
 49
-3.175
 74
    0
  0
LTYPE
  5
3D
330
5
100
AcDbSymbolTableRecord
100
AcDbLinetypeTableRecord
  2
DASHDOTX2
 70
    0
  3
Dash dot (2x) ____  .  ____  .  ____  .  ___
 72
   65
 73
    4
 40
50.8
 49
25.4
 74
    0
 49
-12.7
 74
    0
 49
0
 74
    0
 49
-12.7
 74
    0
  0
LTYPE
  5
3E
330
5
100
AcDbSymbolTableRecord
100
AcDbLinetypeTableRecord
  2
DIVIDE
 70
    0
  3
Divide ____ . . ____ . . ____ . . ____ . . ____
 72
   65
 73
    6
 40
31.75
 49
12.7
 74
    0
 49
-6.35
 74
    0
 49
0
 74
    0
 49
-6.35
 74
    0
 49
0
 74
    0
 49
-6.35
 74
    0
  0
LTYPE
  5
3F
330
5
100
AcDbSymbolTableRecord
100
AcDbLinetypeTableRecord
  2
DIVIDETINY
 70
    0
  3
Divide (.15x) __..__..__..__..__..__..__..__.._
 72
   65
 73
    6
 40
4.7625
 49
1.905
 74
    0
 49
-0.9525
 74
    0
 49
0
 74
    0
 49
-0.9525
 74
    0
 49
0
 74
    0
 49
-0.9525
 74
    0
  0
LTYPE
  5
40
330
5
100
AcDbSymbolTableRecord
100
AcDbLinetypeTableRecord
  2
DIVIDE2
 70
    0
  3
Divide (.5x) __..__..__..__..__..__..__..__.._
 72
   65
 73
    6
 40
15.875
 49
6.35
 74
    0
 49
-3.175
 74
    0
 49
0
 74
    0
 49
-3.175
 74
    0
 49
0
 74
    0
 49
-3.175
 74
    0
  0
LTYPE
  5
41
330
5
100
AcDbSymbolTableRecord
100
AcDbLinetypeTableRecord
  2
DIVIDEX2
 70
    0
  3
Divide (2x) ________  .  .  ________  .  .  _
 72
   65
 73
    6
 40
63.5
 49
25.4
 74
    0
 49
-12.7
 74
    0
 49
0
 74
    0
 49
-12.7
 74
    0
 49
0
 74
    0
 49
-12.7
 74
    0
  0
LTYPE
  5
42
330
5
100
AcDbSymbolTableRecord
100
AcDbLinetypeTableRecord
  2
BORDER
 70
    0
  3
Border __ __ . __ __ . __ __ . __ __ . __ __ .
 72
   65
 73
    6
 40
44.45
 49
12.7
 74
    0
 49
-6.35
 74
    0
 49
12.7
 74
    0
 49
-6.35
 74
    0
 49
0
 74
    0
 49
-6.35
 74
    0
  0
LTYPE
  5
43
330
5
100
AcDbSymbolTableRecord
100
AcDbLinetypeTableRecord
  2
BORDERTINY
 70
    0
  3
Border (.15x) __.__.__.__.__.__.__.__.__.__.__.
 72
   65
 73
    6
 40
6.6675
 49
1.905
 74
    0
 49
-0.9525
 74
    0
 49
1.905
 74
    0
 49
-0.9525
 74
    0
 49
0
 74
    0
 49
-0.9525
 74
    0
  0
LTYPE
  5
44
330
5
100
AcDbSymbolTableRecord
100
AcDbLinetypeTableRecord
  2
BORDER2
 70
    0
  3
Border (.5x) __.__.__.__.__.__.__.__.__.__.__.
 72
   65
 73
    6
 40
22.225
 49
6.35
 74
    0
 49
-3.175
 74
    0
 49
6.35
 74
    0
 49
-3.175
 74
    0
 49
0
 74
    0
 49
-3.175
 74
    0
  0
LTYPE
  5
45
330
5
100
AcDbSymbolTableRecord
100
AcDbLinetypeTableRecord
  2
BORDERX2
 70
    0
  3
Border (2x) ____  ____  .  ____  ____  .  ___
 72
   65
 73
    6
 40
88.89999999999999
 49
25.4
 74
    0
 49
-12.7
 74
    0
 49
25.4
 74
    0
 49
-12.7
 74
    0
 49
0
 74
    0
 49
-12.7
 74
    0
  0
LTYPE
  5
46
330
5
100
AcDbSymbolTableRecord
100
AcDbLinetypeTableRecord
  2
CENTER
 70
    0
  3
Center ____ _ ____ _ ____ _ ____ _ ____ _ ____
 72
   65
 73
    4
 40
50.8
 49
31.75
 74
    0
 49
-6.35
 74
    0
 49
6.35
 74
    0
 49
-6.35
 74
    0
  0
LTYPE
  5
47
330
5
100
AcDbSymbolTableRecord
100
AcDbLinetypeTableRecord
  2
CENTERTINY
 70
    0
  3
Center (.15x) ___ _ ___ _ ___ _ ___ _ ___ _ ___
 72
   65
 73
    4
 40
7.62
 49
4.7625
 74
    0
 49
-0.9525
 74
    0
 49
0.9525
 74
    0
 49
-0.9525
 74
    0
  0
LTYPE
  5
48
330
5
100
AcDbSymbolTableRecord
100
AcDbLinetypeTableRecord
  2
CENTER2
 70
    0
  3
Center (.5x) ___ _ ___ _ ___ _ ___ _ ___ _ ___
 72
   65
 73
    4
 40
28.575
 49
19.05
 74
    0
 49
-3.175
 74
    0
 49
3.175
 74
    0
 49
-3.175
 74
    0
  0
LTYPE
  5
49
330
5
100
AcDbSymbolTableRecord
100
AcDbLinetypeTableRecord
  2
CENTERX2
 70
    0
  3
Center (2x) ________  __  ________  __  _____
 72
   65
 73
    4
 40
101.6
 49
63.5
 74
    0
 49
-12.7
 74
    0
 49
12.7
 74
    0
 49
-12.7
 74
    0
  0
ENDTAB
  0
TABLE
  2
LAYER
  5
2
330
0
100
AcDbSymbolTable
 70
    1
  0
LAYER
  5
10
330
2
100
AcDbSymbolTableRecord
100
AcDbLayerTableRecord
  2
0
 70
    0
 62
    7
  6
CONTINUOUS
370
    0
390
F
  0
LAYER
  5
4A
330
2
100
AcDbSymbolTableRecord
100
AcDbLayerTableRecord
  2
Blade
 70
    0
 62
    7
  6
DASHEDTINY
370
    5
390
F
  0
LAYER
  5
4B
330
2
100
AcDbSymbolTableRecord
100
AcDbLayerTableRecord
  2
File & sliding bar - 0.9 deg
 70
    0
 62
    6
  6
CONTINUOUS
370
    5
390
F
  0
LAYER
  5
4C
330
2
100
AcDbSymbolTableRecord
100
AcDbLayerTableRecord
  2
File & sliding bar - 20 deg
 70
    0
 62
    4
  6
CONTINUOUS
370
    5
390
F
  0
LAYER
  5
4D
330
2
100
AcDbSymbolTableRecord
100
AcDbLayerTableRecord
  2
Jig
 70
    0
 62
    3
  6
CONTINUOUS
370
   13
390
F
  0
LAYER
  5
4E
330
2
100
AcDbSymbolTableRecord
100
AcDbLayerTableRecord
  2
Measurements
 70
    0
 62
    7
  6
CONTINUOUS
370
   25
390
F
  0
ENDTAB
  0
TABLE
  2
STYLE
  5
3
330
0
100
AcDbSymbolTable
 70
    3
  0
STYLE
  5
4F
330
2
100
AcDbSymbolTableRecord
100
AcDbTextStyleTableRecord
  2
Standard
 70
    0
 40
0
 41
1
 50
0
 71
    0
 42
1
  3
txt
  4

  0
ENDTAB
  0
TABLE
  2
VIEW
  5
6
330
0
100
AcDbSymbolTable
 70
    0
  0
ENDTAB
  0
TABLE
  2
UCS
  5
7
330
0
100
AcDbSymbolTable
 70
    0
  0
ENDTAB
  0
TABLE
  2
APPID
  5
9
330
0
100
AcDbSymbolTable
 70
    1
  0
APPID
  5
12
330
9
100
AcDbSymbolTableRecord
100
AcDbRegAppTableRecord
  2
ACAD
 70
    0
  0
APPID
  5
50
330
9
100
AcDbSymbolTableRecord
100
AcDbRegAppTableRecord
  2
LibreCad
 70
    0
  0
ENDTAB
  0
TABLE
  2
DIMSTYLE
  5
A
330
0
100
AcDbSymbolTable
 70
    1
100
AcDbDimStyleTable
 71
    1
  0
DIMSTYLE
105
51
330
A
100
AcDbSymbolTableRecord
100
AcDbDimStyleTableRecord
  2
Standard
 70
    0
 40
2.5
 41
2.5
 42
0.625
 43
0.38
 44
1.25
 45
0
 46
0
 47
0
 48
0
 49
1
140
2.5
141
0.09
142
0
143
25.4
144
1
145
0
146
1
147
0.625
148
0
 71
    0
 72
    0
 73
    0
 74
    1
 75
    0
 76
    0
 77
    0
 78
    1
 79
    0
170
    0
171
    2
172
    0
173
    0
174
    0
175
    0
176
    0
177
    0
178
    0
179
    1
271
    1
272
    4
273
    2
274
    2
275
    0
276
    0
277
    2
278
   44
279
    0
280
    0
281
    0
282
    0
283
    1
284
    0
285
    0
286
    0
288
    0
289
    3
340
standard
341

371
   -2
372
   -2
  0
ENDTAB
  0
TABLE
  2
BLOCK_RECORD
  5
1
330
0
100
AcDbSymbolTable
 70
    2
  0
BLOCK_RECORD
  5
1F
330
1
100
AcDbSymbolTableRecord
100
AcDbBlockTableRecord
  2
*Model_Space
 70
    0
280
    1
281
    0
  0
BLOCK_RECORD
  5
1E
330
1
100
AcDbSymbolTableRecord
100
AcDbBlockTableRecord
  2
*Paper_Space
 70
    0
280
    1
281
    0
  0
BLOCK_RECORD
  5
52
330
1
100
AcDbSymbolTableRecord
100
AcDbBlockTableRecord
  2
*D4
 70
    0
280
    1
281
    0
  0
BLOCK_RECORD
  5
55
330
1
100
AcDbSymbolTableRecord
100
AcDbBlockTableRecord
  2
*D2
 70
    0
280
    1
281
    0
  0
BLOCK_RECORD
  5
58
330
1
100
AcDbSymbolTableRecord
100
AcDbBlockTableRecord
  2
*D3
 70
    0
280
    1
281
    0
  0
BLOCK_RECORD
  5
5B
330
1
100
AcDbSymbolTableRecord
100
AcDbBlockTableRecord
  2
*D1
 70
    0
280
    1
281
    0
  0
BLOCK_RECORD
  5
5E
330
1
100
AcDbSymbolTableRecord
100
AcDbBlockTableRecord
  2
*D5
 70
    0
280
    1
281
    0
  0
ENDTAB
  0
ENDSEC
  0
SECTION
  2
BLOCKS
  0
BLOCK
  5
20
330
1F
100
AcDbEntity
  8
0
100
AcDbBlockBegin
  2
*Model_Space
 70
    0
 10
0
 20
0
 30
0
  3
*Model_Space
  1

  0
ENDBLK
  5
21
330
1F
100
AcDbEntity
  8
0
100
AcDbBlockEnd
  0
BLOCK
  5
1C
330
1B
100
AcDbEntity
  8
0
100
AcDbBlockBegin
  2
*Paper_Space
 70
    0
 10
0
 20
0
 30
0
  3
*Paper_Space
  1

  0
ENDBLK
  5
1D
330
1F
100
AcDbEntity
  8
0
100
AcDbBlockEnd
  0
BLOCK
  5
53
330
52
100
AcDbEntity
  8
0
100
AcDbBlockBegin
  2
*D4
 70
    1
 10
0
 20
0
  3
*D4
  1

  0
LINE
  5
61
100
AcDbEntity
  8
Measurements
  6
ByBlock
 62
    0
370
   -2
100
AcDbLine
 10
-10
 20
-22.5
 11
-9.999999999999996
 21
12.5
  0
SOLID
  5
62
100
AcDbEntity
  8
Measurements
  6
ByBlock
 62
    0
370
   -2
100
AcDbTrace
 10
-9.999999999999998
 20
-10
 30
0
 11
-8.959288355567898
 21
-16.25
 31
0
 12
-11.0407116444321
 22
-16.25
 32
0
 13
-11.0407116444321
 23
-16.25
 33
0
  0
SOLID
  5
63
100
AcDbEntity
  8
Measurements
  6
ByBlock
 62
    0
370
   -2
100
AcDbTrace
 10
-9.999999999999998
 20
5.329070518200751e-016
 30
0
 11
-11.0407116444321
 21
6.250000000000001
 31
0
 12
-8.959288355567896
 22
6.250000000000001
 32
0
 13
-8.959288355567896
 23
6.250000000000001
 33
0
  0
MTEXT
  5
64
100
AcDbEntity
  8
Measurements
  6
CONTINUOUS
 62
    0
370
   -2
100
AcDbMText
 10
-14.6875
 20
8.333333333333332
 30
0
 40
6.25
 41
13.54166666666667
 71
    5
 72
    1
  1
10,0
  7
standard
210
0
220
0
230
1
 50
90
 73
    2
 44
1
  0
LINE
  5
65
100
AcDbEntity
  8
Measurements
  6
ByBlock
 62
    0
370
   -2
100
AcDbLine
 10
-1.562500000000002
 20
-10
 11
-13.125
 21
-10
  0
LINE
  5
66
100
AcDbEntity
  8
Measurements
  6
ByBlock
 62
    0
370
   -2
100
AcDbLine
 10
-1.5625
 20
1.913447427847464e-016
 11
-13.125
 21
9.155965373895681e-016
  0
ENDBLK
  5
54
330
52
100
AcDbEntity
  8
0
100
AcDbBlockEnd
  0
BLOCK
  5
56
330
55
100
AcDbEntity
  8
0
100
AcDbBlockBegin
  2
*D2
 70
    1
 10
0
 20
0
  3
*D2
  1

  0
LINE
  5
67
100
AcDbEntity
  8
Measurements
  6
ByBlock
 62
    0
370
   -2
100
AcDbLine
 10
40
 20
0
 11
40.00000000000001
 21
100
  0
SOLID
  5
68
100
AcDbEntity
  8
Measurements
  6
ByBlock
 62
    0
370
   -2
100
AcDbTrace
 10
40
 20
0
 30
0
 11
38.9592883555679
 21
6.25
 31
0
 12
41.0407116444321
 22
6.25
 32
0
 13
41.0407116444321
 23
6.25
 33
0
  0
SOLID
  5
69
100
AcDbEntity
  8
Measurements
  6
ByBlock
 62
    0
370
   -2
100
AcDbTrace
 10
40.00000000000001
 20
100
 30
0
 11
41.04071164443211
 21
93.75
 31
0
 12
38.95928835556791
 22
93.75
 32
0
 13
38.95928835556791
 23
93.75
 33
0
  0
MTEXT
  5
6A
100
AcDbEntity
  8
Measurements
  6
CONTINUOUS
 62
    0
370
   -2
100
AcDbMText
 10
35.3125
 20
50
 30
0
 40
6.25
 41
18.40277777777778
 71
    5
 72
    1
  1
100,0
  7
standard
210
0
220
0
230
1
 50
90
 73
    2
 44
1
  0
LINE
  5
6B
100
AcDbEntity
  8
Measurements
  6
ByBlock
 62
    0
370
   -2
100
AcDbLine
 10
48.4375
 20
1.913447427847464e-016
 11
36.875
 21
3.826894855694929e-016
  0
LINE
  5
6C
100
AcDbEntity
  8
Measurements
  6
ByBlock
 62
    0
370
   -2
100
AcDbLine
 10
48.4375
 20
100
 11
36.87500000000001
 21
100
  0
ENDBLK
  5
57
330
55
100
AcDbEntity
  8
0
100
AcDbBlockEnd
  0
BLOCK
  5
59
330
58
100
AcDbEntity
  8
0
100
AcDbBlockBegin
  2
*D3
 70
    1
 10
0
 20
0
  3
*D3
  1

  0
LINE
  5
6D
100
AcDbEntity
  8
Measurements
  6
ByBlock
 62
    0
370
   -2
100
AcDbLine
 10
0
 20
-10
 11
60
 21
-10
  0
SOLID
  5
6E
100
AcDbEntity
  8
Measurements
  6
ByBlock
 62
    0
370
   -2
100
AcDbTrace
 10
0
 20
-10
 30
0
 11
6.25
 21
-8.959288355567899
 31
0
 12
6.25
 22
-11.0407116444321
 32
0
 13
6.25
 23
-11.0407116444321
 33
0
  0
SOLID
  5
6F
100
AcDbEntity
  8
Measurements
  6
ByBlock
 62
    0
370
   -2
100
AcDbTrace
 10
60
 20
-10
 30
0
 11
53.75
 21
-11.0407116444321
 31
0
 12
53.75
 22
-8.959288355567899
 32
0
 13
53.75
 23
-8.959288355567899
 33
0
  0
MTEXT
  5
70
100
AcDbEntity
  8
Measurements
  6
CONTINUOUS
 62
    0
370
   -2
100
AcDbMText
 10
30
 20
-5.3125
 30
0
 40
6.25
 41
14.93055555555594
 71
    5
 72
    1
  1
60,0
  7
standard
210
0
220
0
230
1
 50
0
 73
    2
 44
1
  0
LINE
  5
71
100
AcDbEntity
  8
Measurements
  6
ByBlock
 62
    0
370
   -2
100
AcDbLine
 10
-2.870171141771197e-016
 20
-1.5625
 11
-5.740342283542393e-016
 21
-13.125
  0
LINE
  5
72
100
AcDbEntity
  8
Measurements
  6
ByBlock
 62
    0
370
   -2
100
AcDbLine
 10
60
 20
-1.5625
 11
60
 21
-13.125
  0
ENDBLK
  5
5A
330
58
100
AcDbEntity
  8
0
100
AcDbBlockEnd
  0
BLOCK
  5
5C
330
5B
100
AcDbEntity
  8
0
100
AcDbBlockBegin
  2
*D1
 70
    1
 10
0
 20
0
  3
*D1
  1

  0
LINE
  5
73
100
AcDbEntity
  8
Measurements
  6
ByBlock
 62
    0
370
   -2
100
AcDbLine
 10
0
 20
-30
 11
300
 21
-30
  0
SOLID
  5
74
100
AcDbEntity
  8
Measurements
  6
ByBlock
 62
    0
370
   -2
100
AcDbTrace
 10
0
 20
-30
 30
0
 11
6.25
 21
-28.9592883555679
 31
0
 12
6.25
 22
-31.0407116444321
 32
0
 13
6.25
 23
-31.0407116444321
 33
0
  0
SOLID
  5
75
100
AcDbEntity
  8
Measurements
  6
ByBlock
 62
    0
370
   -2
100
AcDbTrace
 10
300
 20
-30
 30
0
 11
293.75
 21
-31.0407116444321
 31
0
 12
293.75
 22
-28.9592883555679
 32
0
 13
293.75
 23
-28.9592883555679
 33
0
  0
MTEXT
  5
76
100
AcDbEntity
  8
Measurements
  6
CONTINUOUS
 62
    0
370
   -2
100
AcDbMText
 10
150
 20
-25.3125
 30
0
 40
6.25
 41
19.79166666666706
 71
    5
 72
    1
  1
300,0
  7
standard
210
0
220
0
230
1
 50
0
 73
    2
 44
1
  0
LINE
  5
77
100
AcDbEntity
  8
Measurements
  6
ByBlock
 62
    0
370
   -2
100
AcDbLine
 10
-3.960957511619179e-015
 20
-21.5625
 11
-5.740342283542393e-016
 21
-33.125
  0
LINE
  5
78
100
AcDbEntity
  8
Measurements
  6
ByBlock
 62
    0
370
   -2
100
AcDbLine
 10
300
 20
-21.5625
 11
300
 21
-33.125
  0
ENDBLK
  5
5D
330
5B
100
AcDbEntity
  8
0
100
AcDbBlockEnd
  0
BLOCK
  5
5F
330
5E
100
AcDbEntity
  8
0
100
AcDbBlockBegin
  2
*D5
 70
    1
 10
0
 20
0
  3
*D5
  1

  0
LINE
  5
79
100
AcDbEntity
  8
Measurements
  6
ByBlock
 62
    0
370
   -2
100
AcDbLine
 10
300
 20
-20
 11
220
 21
-20
  0
SOLID
  5
7A
100
AcDbEntity
  8
Measurements
  6
ByBlock
 62
    0
370
   -2
100
AcDbTrace
 10
300
 20
-20
 30
0
 11
293.75
 21
-21.0407116444321
 31
0
 12
293.75
 22
-18.9592883555679
 32
0
 13
293.75
 23
-18.9592883555679
 33
0
  0
SOLID
  5
7B
100
AcDbEntity
  8
Measurements
  6
ByBlock
 62
    0
370
   -2
100
AcDbTrace
 10
220
 20
-20
 30
0
 11
226.25
 21
-18.9592883555679
 31
0
 12
226.25
 22
-21.0407116444321
 32
0
 13
226.25
 23
-21.0407116444321
 33
0
  0
MTEXT
  5
7C
100
AcDbEntity
  8
Measurements
  6
CONTINUOUS
 62
    0
370
   -2
100
AcDbMText
 10
260
 20
-15.3125
 30
0
 40
6.25
 41
14.93055555555556
 71
    5
 72
    1
  1
80,0
  7
standard
210
0
220
0
230
1
 50
360
 73
    2
 44
1
  0
LINE
  5
7D
100
AcDbEntity
  8
Measurements
  6
ByBlock
 62
    0
370
   -2
100
AcDbLine
 10
300
 20
-1.5625
 11
300
 21
-23.125
  0
LINE
  5
7E
100
AcDbEntity
  8
Measurements
  6
ByBlock
 62
    0
370
   -2
100
AcDbLine
 10
220
 20
-1.56249999999999
 11
220
 21
-23.125
  0
ENDBLK
  5
60
330
5E
100
AcDbEntity
  8
0
100
AcDbBlockEnd
  0
ENDSEC
  0
SECTION
  2
ENTITIES
  0
LINE
  5
7F
100
AcDbEntity
  8
Jig
  6
ByLayer
 62
  256
370
   -1
100
AcDbLine
 10
0
 20
0
 11
300
 21
0
  0
LINE
  5
80
100
AcDbEntity
  8
Jig
  6
ByLayer
 62
  256
370
   -1
100
AcDbLine
 10
50
 20
-1.224646799147353e-014
 11
50.00000000000001
 21
99.99999999999999
  0
LINE
  5
81
100
AcDbEntity
  8
Jig
  6
ByLayer
 62
  256
370
   -1
100
AcDbLine
 10
50
 20
-1.224646799147353e-014
 11
50.00000000000001
 21
99.99999999999999
  0
LINE
  5
82
100
AcDbEntity
  8
Jig
  6
ByLayer
 62
  256
370
   -1
100
AcDbLine
 10
60
 20
-1.469576158976824e-014
 11
60.00000000000001
 21
99.99999999999999
  0
LINE
  5
83
100
AcDbEntity
  8
Jig
  6
ByLayer
 62
  256
370
   -1
100
AcDbLine
 10
50.00000000000001
 20
99.99999999999999
 11
60.00000000000001
 21
99.99999999999999
  0
LINE
  5
84
100
AcDbEntity
  8
Jig
  6
ByLayer
 62
  256
370
   -1
100
AcDbLine
 10
300
 20
0
 11
300
 21
-10
  0
LINE
  5
85
100
AcDbEntity
  8
Jig
  6
ByLayer
 62
  256
370
   -1
100
AcDbLine
 10
-1.83697019872103e-015
 20
-10
 11
0
 21
0
  0
LINE
  5
86
100
AcDbEntity
  8
Jig
  6
ByLayer
 62
  256
370
   -1
100
AcDbLine
 10
-1.83697019872103e-015
 20
-10
 11
300
 21
-10
  0
LINE
  5
87
100
AcDbEntity
  8
Jig
  6
ByLayer
 62
  256
370
   -1
100
AcDbLine
 10
300
 20
0
 11
300
 21
10
  0
LINE
  5
88
100
AcDbEntity
  8
Blade
  6
ByLayer
 62
  256
370
   -1
100
AcDbLine
 10
300
 20
13.5
 11
300
 21
10
  0
LINE
  5
89
100
AcDbEntity
  8
Blade
  6
ByLayer
 62
  256
370
   -1
100
AcDbLine
 10
249
 20
13.5
 11
249
 21
10.00000000000001
  0
LINE
  5
8A
100
AcDbEntity
  8
Blade
  6
ByLayer
 62
  256
370
   -1
100
AcDbLine
 10
249
 20
13.5
 11
300
 21
13.5
  0
LINE
  5
8B
100
AcDbEntity
  8
Blade
  6
ByLayer
 62
  256
370
   -1
100
AcDbLine
 10
280
 20
13.50000000000001
 11
300
 21
12
  0
LINE
  5
8C
100
AcDbEntity
  8
Blade
  6
ByLayer
 62
  256
370
   -1
100
AcDbLine
 10
300
 20
11.5
 11
280
 21
10
  0
LINE
  5
8D
100
AcDbEntity
  8
File & sliding bar - 0.9 deg
  6
ByLayer
 62
  256
370
   -1
100
AcDbLine
 10
215.0095853509951
 20
16.31914414081483
 11
214.9630404220868
 21
13.31950523428075
  0
LINE
  5
8E
100
AcDbEntity
  8
File & sliding bar - 0.9 deg
  6
ByLayer
 62
  256
370
   -1
100
AcDbLine
 10
-84.95042655833646
 20
21.22360694051325
 11
345.0539810706705
 21
14.55129563673935
  0
LINE
  5
8F
100
AcDbEntity
  8
File & sliding bar - 0.9 deg
  6
ByLayer
 62
  256
370
   -1
100
AcDbLine
 10
-84.7642468427037
 20
33.22216256664953
 11
345.2401607863034
 21
26.54985126287565
  0
LINE
  5
90
100
AcDbEntity
  8
File & sliding bar - 0.9 deg
  6
ByLayer
 62
  256
370
   -1
100
AcDbLine
 10
-84.7642468427037
 20
33.22216256664953
 11
-84.95042655833646
 21
21.22360694051325
  0
LINE
  5
91
100
AcDbEntity
  8
File & sliding bar - 0.9 deg
  6
ByLayer
 62
  256
370
   -1
100
AcDbLine
 10
345.2401607863034
 20
26.54985126287565
 11
345.0501023265949
 21
14.30132572786152
  0
LINE
  5
92
100
AcDbEntity
  8
File & sliding bar - 0.9 deg
  6
ByLayer
 62
  256
370
   -1
100
AcDbLine
 10
214.9630404220868
 20
13.31950523428075
 11
365.0011501079138
 21
10.99138729527274
  0
LINE
  5
93
100
AcDbEntity
  8
File & sliding bar - 0.9 deg
  6
ByLayer
 62
  256
370
   -1
100
AcDbLine
 10
215.0095853509951
 20
16.31914414081483
 11
365.047695036822
 21
13.99102620180682
  0
ARC
  5
94
100
AcDbEntity
  8
File & sliding bar - 0.9 deg
  6
ByLayer
 62
  256
370
   -1
100
AcDbCircle
 10
430.0398713450602
 20
12.98255274212904
 40
10
100
AcDbArc
 50
359.1110216711813
 51
89.11102167118088
  0
LINE
  5
95
100
AcDbEntity
  8
File & sliding bar - 0.9 deg
  6
ByLayer
 62
  256
370
   -1
100
AcDbLine
 10
440.0386677001738
 20
12.82740297910173
 11
439.9921227712656
 21
9.827764072567561
  0
ARC
  5
96
100
AcDbEntity
  8
File & sliding bar - 0.9 deg
  6
ByLayer
 62
  256
370
   -1
100
AcDbCircle
 10
429.9933264161521
 20
9.982913835594957
 40
10
100
AcDbArc
 50
269.1110216711812
 51
359.1110216711807
  0
LINE
  5
97
100
AcDbEntity
  8
File & sliding bar - 0.9 deg
  6
ByLayer
 62
  256
370
   -1
100
AcDbLine
 10
402.6983311315252
 20
23.40801094556782
 11
430.1950211080876
 21
22.98134909724261
  0
LINE
  5
98
100
AcDbEntity
  8
File & sliding bar - 0.9 deg
  6
ByLayer
 62
  256
370
   -1
100
AcDbLine
 10
402.3414866765622
 20
0.4107793288066119
 11
429.8381766531247
 21
-0.01588251951861253
  0
LINE
  5
99
100
AcDbEntity
  8
File & sliding bar - 0.9 deg
  6
ByLayer
 62
  256
370
   -1
100
AcDbLine
 10
369.5980699959998
 20
20.27901304656361
 11
402.6983311315252
 21
23.40801094556782
  0
ARC
  5
9A
100
AcDbEntity
  8
File & sliding bar - 0.9 deg
  6
ByLayer
 62
  256
370
   -1
100
AcDbCircle
 10
370.0686267664451
 20
15.30120466075886
 40
5
100
AcDbArc
 50
95.40017499999973
 51
179.1110216711816
  0
LINE
  5
9B
100
AcDbEntity
  8
File & sliding bar - 0.9 deg
  6
ByLayer
 62
  256
370
   -1
100
AcDbLine
 10
365.0692285888883
 20
15.37877954227248
 11
364.9796165558475
 21
9.603633954806938
  0
LINE
  5
9C
100
AcDbEntity
  8
File & sliding bar - 0.9 deg
  6
ByLayer
 62
  256
370
   -1
100
AcDbLine
 10
369.3542419359724
 20
4.565246745499678
 11
402.3414866765622
 21
0.4107793288066119
  0
ARC
  5
9D
100
AcDbEntity
  8
File & sliding bar - 0.9 deg
  6
ByLayer
 62
  256
370
   -1
100
AcDbCircle
 10
369.9790147334043
 20
9.526059073293311
 40
5
100
AcDbArc
 50
179.1110216711815
 51
262.8218683423617
  0
LINE
  5
9E
100
AcDbEntity
  8
File & sliding bar - 20 deg
  6
ByLayer
 62
  256
370
   -1
100
AcDbLine
 10
221.6123688148812
 20
45.12710167679504
 11
220.5426939599131
 21
42.32428243455894
  0
LINE
  5
9F
100
AcDbEntity
  8
File & sliding bar - 20 deg
  6
ByLayer
 62
  256
370
   -1
100
AcDbLine
 10
-58.58041583748263
 20
152.3281554437895
 11
343.2094880484808
 21
-1.011935379895448
  0
LINE
  5
A0
100
AcDbEntity
  8
File & sliding bar - 20 deg
  6
ByLayer
 62
  256
370
   -1
100
AcDbLine
 10
-54.30171641761035
 20
163.539432412734
 11
347.4881874683532
 21
10.19934158904897
  0
LINE
  5
A1
100
AcDbEntity
  8
File & sliding bar - 20 deg
  6
ByLayer
 62
  256
370
   -1
100
AcDbLine
 10
-54.30171641761035
 20
163.539432412734
 11
-58.58041583748263
 21
152.3281554437895
  0
LINE
  5
A2
100
AcDbEntity
  8
File & sliding bar - 20 deg
  6
ByLayer
 62
  256
370
   -1
100
AcDbLine
 10
347.4881874683532
 20
10.19934158904897
 11
343.1203484772335
 21
-1.245503650081815
  0
LINE
  5
A3
100
AcDbEntity
  8
File & sliding bar - 20 deg
  6
ByLayer
 62
  256
370
   -1
100
AcDbLine
 10
220.5426939599131
 20
42.32428243455894
 11
360.7361352371728
 21
-11.17948859210512
  0
LINE
  5
A4
100
AcDbEntity
  8
File & sliding bar - 20 deg
  6
ByLayer
 62
  256
370
   -1
100
AcDbLine
 10
221.6123688148812
 20
45.12710167679504
 11
361.8058100921409
 21
-8.376669349869019
  0
ARC
  5
A5
100
AcDbEntity
  8
File & sliding bar - 20 deg
  6
ByLayer
 62
  256
370
   -1
100
AcDbCircle
 10
422.5335603405899
 20
-31.55295787417741
 40
10
100
AcDbArc
 50
339.1110216711813
 51
69.11102167118088
  0
LINE
  5
A6
100
AcDbEntity
  8
File & sliding bar - 20 deg
  6
ByLayer
 62
  256
370
   -1
100
AcDbLine
 10
431.8762911480437
 20
-35.11854072407101
 11
430.8066162930756
 21
-37.9213599663072
  0
ARC
  5
A7
100
AcDbEntity
  8
File & sliding bar - 20 deg
  6
ByLayer
 62
  256
370
   -1
100
AcDbCircle
 10
421.463885485622
 20
-34.35577711641358
 40
10
100
AcDbArc
 50
249.1110216711812
 51
339.1110216711807
  0
LINE
  5
A8
100
AcDbEntity
  8
File & sliding bar - 20 deg
  6
ByLayer
 62
  256
370
   -1
100
AcDbLine
 10
400.4066334699858
 20
-12.4048742295163
 11
426.0991431904837
 21
-22.21022706672375
  0
LINE
  5
A9
100
AcDbEntity
  8
File & sliding bar - 20 deg
  6
ByLayer
 62
  256
370
   -1
100
AcDbLine
 10
392.2057929152305
 20
-33.89315508665979
 11
417.8983026357283
 21
-43.69850792386726
  0
LINE
  5
AA
100
AcDbEntity
  8
File & sliding bar - 20 deg
  6
ByLayer
 62
  256
370
   -1
100
AcDbLine
 10
368.2323820249629
 20
-4.02421440797572
 11
400.4066334699858
 21
-12.4048742295163
  0
ARC
  5
AB
100
AcDbEntity
  8
File & sliding bar - 20 deg
  6
ByLayer
 62
  256
370
   -1
100
AcDbCircle
 10
366.9720500122506
 20
-8.862764109873211
 40
5
100
AcDbArc
 50
75.40017499999975
 51
159.1110216711816
  0
LINE
  5
AC
100
AcDbEntity
  8
File & sliding bar - 20 deg
  6
ByLayer
 62
  256
370
   -1
100
AcDbLine
 10
362.3006846085237
 20
-7.079972684926474
 11
360.24126072079
 21
-12.47618525704782
  0
LINE
  5
AD
100
AcDbEntity
  8
File & sliding bar - 20 deg
  6
ByLayer
 62
  256
370
   -1
100
AcDbLine
 10
362.6288339937387
 20
-18.70693053780238
 11
392.2057929152305
 21
-33.89315508665979
  0
ARC
  5
AE
100
AcDbEntity
  8
File & sliding bar - 20 deg
  6
ByLayer
 62
  256
370
   -1
100
AcDbCircle
 10
364.9126261245169
 20
-14.2589766819946
 40
5
100
AcDbArc
 50
159.1110216711815
 51
242.8218683423617
  0
LINE
  5
AF
100
AcDbEntity
  8
Blade
  6
ByLayer
 62
  256
370
   -1
100
AcDbLine
 10
249
 20
10.00000000000001
 11
300
 21
10.00000000000001
  0
DIMENSION
  5
B0
100
AcDbEntity
  8
Measurements
  6
ByLayer
 62
  256
370
   -1
100
AcDbDimension
  2
*D1
 10
300
 20
-30
 30
0
 11
150
 21
-25.3125
 31
0
 70
   32
 71
    5
 72
    0
  3
Standard
 53
0
210
0
220
0
230
1
100
AcDbAlignedDimension
 13
-3.673940397442059e-015
 23
-20
 33
0
 14
300
 24
-20
 34
0
100
AcDbRotatedDimension
  0
DIMENSION
  5
B1
100
AcDbEntity
  8
Measurements
  6
ByLayer
 62
  256
370
   -1
100
AcDbDimension
  2
*D2
 10
40.00000000000001
 20
100
 30
0
 11
35.3125
 21
50
 31
0
 70
   32
 71
    5
 72
    0
  3
Standard
 53
0
210
0
220
0
230
1
100
AcDbAlignedDimension
 13
50
 23
0
 33
0
 14
50
 24
100
 34
0
 50
90
100
AcDbRotatedDimension
  0
DIMENSION
  5
B2
100
AcDbEntity
  8
Measurements
  6
ByLayer
 62
  256
370
   -1
100
AcDbDimension
  2
*D3
 10
60
 20
-10
 30
0
 11
30
 21
-5.3125
 31
0
 70
   32
 71
    5
 72
    0
  3
Standard
 53
0
210
0
220
0
230
1
100
AcDbAlignedDimension
 13
0
 23
0
 33
0
 14
60
 24
0
 34
0
100
AcDbRotatedDimension
  0
DIMENSION
  5
B3
100
AcDbEntity
  8
Measurements
  6
ByLayer
 62
  256
370
   -1
100
AcDbDimension
  2
*D4
 10
-9.999999999999998
 20
1.224606353822377e-015
 30
0
 11
-14.6875
 21
-4.999999999999999
 31
0
 70
   32
 71
    5
  3
Standard
 53
0
210
0
220
0
230
1
100
AcDbAlignedDimension
 13
-1.83697019872103e-015
 23
-10
 33
0
 14
0
 24
0
 34
0
 50
90
100
AcDbRotatedDimension
  0
LINE
  5
B4
100
AcDbEntity
  8
Jig
  6
ByLayer
 62
  256
370
   -1
100
AcDbLine
 10
220
 20
9.796850830579018e-015
 11
220
 21
10.00000000000001
  0
LINE
  5
B5
100
AcDbEntity
  8
Jig
  6
ByLayer
 62
  256
370
   -1
100
AcDbLine
 10
300
 20
0
 11
220
 21
9.796850830579018e-015
  0
LINE
  5
B6
100
AcDbEntity
  8
Jig
  6
ByLayer
 62
  256
370
   -1
100
AcDbLine
 10
220
 20
10.00000000000001
 11
300
 21
10
  0
DIMENSION
  5
B7
100
AcDbEntity
  8
Measurements
  6
ByLayer
 62
  256
370
   -1
100
AcDbDimension
  2
*D5
 10
220
 20
-20
 30
0
 11
260
 21
-15.3125
 31
0
 70
   32
 71
    5
  3
Standard
 53
0
210
0
220
0
230
1
100
AcDbAlignedDimension
 13
300
 23
0
 33
0
 14
220
 24
9.796850830579018e-015
 34
0
100
AcDbRotatedDimension
  0
ENDSEC
  0
SECTION
  2
OBJECTS
  0
DICTIONARY
  5
C
330
0
100
AcDbDictionary
281
    1
  3
ACAD_GROUP
350
D
  0
DICTIONARY
  5
D
330
C
100
AcDbDictionary
281
    1
  0
ENDSEC
  0
EOF
