999
dxfrw 0.6.3
  0
SECTION
  2
HEADER
  9
$ACADVER
  1
AC1021
  9
$DWGCODEPAGE
  3
ANSI_1252
  9
$INSBASE
 10
0
 20
0
 30
0
  9
$EXTMIN
 10
-156.8566154763214
 20
-200
 30
0
  9
$EXTMAX
 10
594.104966780477
 20
586.8169485012205
 30
0
  9
$LIMMIN
 10
0
 20
0
  9
$LIMMAX
 10
420
 20
297
  9
$ORTHOMODE
 70
    0
  9
$REGENMODE
 70
    1
  9
$FILLMODE
 70
    1
  9
$QTEXTMODE
 70
    0
  9
$MIRRTEXT
 70
    0
  9
$LTSCALE
 40
1
  9
$ATTMODE
 70
    0
  9
$TEXTSIZE
 40
2.5
  9
$TRACEWID
 40
15.68
  9
$TEXTSTYLE
  7
STANDARD
  9
$CLAYER
  8
Blade + tang
  9
$CELTYPE
  6
BYLAYER
  9
$CECOLOR
 62
  256
  9
$CELTSCALE
 40
1
  9
$DISPSILH
 70
    0
  9
$DIMSCALE
 40
1
  9
$DIMASZ
 40
2.5
  9
$DIMEXO
 40
0.625
  9
$DIMDLI
 40
3.75
  9
$DIMRND
 40
0
  9
$DIMDLE
 40
0
  9
$DIMEXE
 40
1.25
  9
$DIMTP
 40
0
  9
$DIMTM
 40
0
  9
$DIMTXT
 40
2.5
  9
$DIMCEN
 40
2.5
  9
$DIMTSZ
 40
0
  9
$DIMTOL
 70
    0
  9
$DIMLIM
 70
    0
  9
$DIMTIH
 70
    0
  9
$DIMTOH
 70
    0
  9
$DIMSE1
 70
    0
  9
$DIMSE2
 70
    0
  9
$DIMTAD
 70
    1
  9
$DIMZIN
 70
    1
  9
$DIMBLK
  1

  9
$DIMASO
 70
    1
  9
$DIMSHO
 70
    1
  9
$DIMPOST
  1

  9
$DIMAPOST
  1

  9
$DIMALT
 70
    0
  9
$DIMALTD
 70
    3
  9
$DIMALTF
 40
0.03937
  9
$DIMLFAC
 40
1
  9
$DIMTOFL
 70
    1
  9
$DIMTVP
 40
0
  9
$DIMTIX
 70
    0
  9
$DIMSOXD
 70
    0
  9
$DIMSAH
 70
    0
  9
$DIMBLK1
  1

  9
$DIMBLK2
  1

  9
$DIMSTYLE
  2
STANDARD
  9
$DIMCLRD
 70
    0
  9
$DIMCLRE
 70
    0
  9
$DIMCLRT
 70
    0
  9
$DIMTFAC
 40
1
  9
$DIMGAP
 40
0.625
  9
$DIMJUST
 70
    0
  9
$DIMSD1
 70
    0
  9
$DIMSD2
 70
    0
  9
$DIMTOLJ
 70
    0
  9
$DIMTZIN
 70
    8
  9
$DIMALTZ
 70
    0
  9
$DIMALTTZ
 70
    0
  9
$DIMUPT
 70
    0
  9
$DIMDEC
 70
    0
  9
$DIMTDEC
 70
    2
  9
$DIMALTU
 70
    2
  9
$DIMALTTD
 70
    3
  9
$DIMTXSTY
  7
standard
  9
$DIMAUNIT
 70
    0
  9
$DIMADEC
 70
    0
  9
$DIMALTRND
 40
0
  9
$DIMAZIN
 70
    0
  9
$DIMDSEP
 70
    0
  9
$DIMATFIT
 70
    3
  9
$DIMFRAC
 70
    0
  9
$DIMLDRBLK
  1
STANDARD
  9
$DIMLUNIT
 70
    2
  9
$DIMLWD
 70
   -2
  9
$DIMLWE
 70
   -2
  9
$DIMTMOVE
 70
    0
  9
$DIMFXL
 40
1
  9
$DIMFXLON
 70
    0
  9
$DIMJOGANG
 40
0.7854
  9
$DIMTFILL
 70
    0
  9
$DIMTFILLCLR
 70
    0
  9
$DIMARCSYM
 70
    0
  9
$DIMLTYPE
  6

  9
$DIMLTEX1
  6

  9
$DIMLTEX2
  6

  9
$LUNITS
 70
    2
  9
$LUPREC
 70
    4
  9
$SKETCHINC
 40
1
  9
$FILLETRAD
 40
0
  9
$AUNITS
 70
    0
  9
$AUPREC
 70
    2
  9
$MENU
  1
.
  9
$ELEVATION
 40
0
  9
$PELEVATION
 40
0
  9
$THICKNESS
 40
0
  9
$LIMCHECK
 70
    0
  9
$CHAMFERA
 40
0
  9
$CHAMFERB
 40
0
  9
$CHAMFERC
 40
0
  9
$CHAMFERD
 40
0
  9
$SKPOLY
 70
    0
  9
$USRTIMER
 70
    1
  9
$ANGBASE
 50
0
  9
$ANGDIR
 70
    0
  9
$PDMODE
 70
   34
  9
$PDSIZE
 40
0
  9
$PLINEWID
 40
0
  9
$SPLFRAME
 70
    0
  9
$SPLINETYPE
 70
    2
  9
$SPLINESEGS
 70
    8
  9
$HANDSEED
  5
20000
  9
$SURFTAB1
 70
    6
  9
$SURFTAB2
 70
    6
  9
$SURFTYPE
 70
    6
  9
$SURFU
 70
    6
  9
$SURFV
 70
    6
  9
$UCSBASE
  2

  9
$UCSNAME
  2

  9
$UCSORG
 10
0
 20
0
 30
0
  9
$UCSXDIR
 10
1
 20
0
 30
0
  9
$UCSYDIR
 10
0
 20
1
 30
0
  9
$UCSORTHOREF
  2

  9
$UCSORTHOVIEW
 70
    0
  9
$UCSORGTOP
 10
0
 20
0
 30
0
  9
$UCSORGBOTTOM
 10
0
 20
0
 30
0
  9
$UCSORGLEFT
 10
0
 20
0
 30
0
  9
$UCSORGRIGHT
 10
0
 20
0
 30
0
  9
$UCSORGFRONT
 10
0
 20
0
 30
0
  9
$UCSORGBACK
 10
0
 20
0
 30
0
  9
$PUCSBASE
  2

  9
$PUCSNAME
  2

  9
$PUCSORG
 10
0
 20
0
 30
0
  9
$PUCSXDIR
 10
1
 20
0
 30
0
  9
$PUCSYDIR
 10
0
 20
1
 30
0
  9
$PUCSORTHOREF
  2

  9
$PUCSORTHOVIEW
 70
    0
  9
$PUCSORGTOP
 10
0
 20
0
 30
0
  9
$PUCSORGBOTTOM
 10
0
 20
0
 30
0
  9
$PUCSORGLEFT
 10
0
 20
0
 30
0
  9
$PUCSORGRIGHT
 10
0
 20
0
 30
0
  9
$PUCSORGFRONT
 10
0
 20
0
 30
0
  9
$PUCSORGBACK
 10
0
 20
0
 30
0
  9
$USERI1
 70
    0
  9
$USERI2
 70
    0
  9
$USERI3
 70
    0
  9
$USERI4
 70
    0
  9
$USERI5
 70
    0
  9
$USERR1
 40
0
  9
$USERR2
 40
0
  9
$USERR3
 40
0
  9
$USERR4
 40
0
  9
$USERR5
 40
0
  9
$WORLDVIEW
 70
    1
  9
$SHADEDGE
 70
    3
  9
$SHADEDIF
 70
   70
  9
$TILEMODE
 70
    1
  9
$MAXACTVP
 70
   64
  9
$PINSBASE
 10
2.694481082879719
 20
76.19105561804037
 30
0
  9
$PLIMCHECK
 70
    0
  9
$PEXTMIN
 10
0
 20
0
 30
0
  9
$PEXTMAX
 10
0
 20
0
 30
0
  9
$GRIDMODE
 70
    1
  9
$SNAPSTYLE
 70
    0
  9
$GRIDUNIT
 10
0
 20
0
  9
$PLIMMIN
 10
0
 20
0
  9
$PLIMMAX
 10
297
 20
210
  9
$UNITMODE
 70
    0
  9
$VISRETAIN
 70
    1
  9
$PLINEGEN
 70
    0
  9
$PSLTSCALE
 70
    1
  9
$TREEDEPTH
 70
 3020
  9
$CMLSTYLE
  2
Standard
  9
$CMLJUST
 70
    0
  9
$CMLSCALE
 40
20
  9
$PROXYGRAPHICS
 70
    1
  9
$MEASUREMENT
 70
    1
  9
$CELWEIGHT
370
   -1
  9
$ENDCAPS
280
    0
  9
$JOINSTYLE
280
    0
  9
$LWDISPLAY
290
    0
  9
$INSUNITS
 70
    4
  9
$HYPERLINKBASE
  1

  9
$STYLESHEET
  1

  9
$XEDIT
290
    1
  9
$CEPSNTYPE
380
    0
  9
$PSTYLEMODE
290
    1
  9
$EXTNAMES
290
    1
  9
$PSVPSCALE
 40
1
  9
$OLESTARTUP
290
    0
  9
$SORTENTS
280
  127
  9
$INDEXCTL
280
    0
  9
$HIDETEXT
280
    1
  9
$XCLIPFRAME
290
    0
  9
$HALOGAP
280
    0
  9
$OBSCOLOR
 70
  257
  9
$OBSLTYPE
280
    0
  9
$INTERSECTIONDISPLAY
280
    0
  9
$INTERSECTIONCOLOR
 70
  257
  9
$DIMASSOC
280
    1
  9
$PROJECTNAME
  1

  9
$CAMERADISPLAY
290
    0
  9
$LENSLENGTH
 40
50
  9
$CAMERAHEIGHT
 40
0
  9
$STEPSPERSEC
 40
2
  9
$STEPSIZE
 40
50
  9
$3DDWFPREC
 40
2
  9
$PSOLWIDTH
 40
5
  9
$PSOLHEIGHT
 40
80
  9
$LOFTANG1
 40
1.570796326794897
  9
$LOFTANG2
 40
1.570796326794897
  9
$LOFTMAG1
 40
0
  9
$LOFTMAG2
 40
0
  9
$LOFTPARAM
 70
    7
  9
$LOFTNORMALS
280
    1
  9
$LATITUDE
 40
1
  9
$LONGITUDE
 40
1
  9
$NORTHDIRECTION
 40
0
  9
$TIMEZONE
 70
-8000
  9
$LIGHTGLYPHDISPLAY
280
    1
  9
$TILEMODELIGHTSYNCH
280
    1
  9
$SOLIDHIST
280
    1
  9
$SHOWHIST
280
    1
  9
$DWFFRAME
280
    2
  9
$DGNFRAME
280
    0
  9
$REALWORLDSCALE
290
    1
  9
$INTERFERECOLOR
 62
    1
  9
$CSHADOW
280
    0
  9
$SHADOWPLANELOCATION
 40
0
  0
ENDSEC
  0
SECTION
  2
CLASSES
  0
ENDSEC
  0
SECTION
  2
TABLES
  0
TABLE
  2
VPORT
  5
8
330
0
100
AcDbSymbolTable
 70
    1
  0
VPORT
  5
31
330
2
100
AcDbSymbolTableRecord
100
AcDbViewportTableRecord
  2
*ACTIVE
 70
    0
 10
0
 20
0
 11
1
 21
1
 12
324.9422108882726
 22
57.53503935245069
 13
0
 23
0
 14
10
 24
10
 15
10
 25
10
 16
0
 26
0
 36
1
 17
0
 27
0
 37
0
 40
392.9381664866235
 41
1.773710482529118
 42
50
 43
0
 44
0
 50
0
 51
0
 71
    0
 72
  100
 73
    1
 74
    3
 75
    0
 76
    1
 77
    0
 78
    0
281
    0
 65
    1
110
0
120
0
130
0
111
1
121
0
131
0
112
0
122
1
132
0
 79
    0
146
0
348
10020
 60
    7
 61
    5
292
1
282
    1
141
0
142
0
 63
  250
421
3358443
  0
ENDTAB
  0
TABLE
  2
LTYPE
  5
5
330
0
100
AcDbSymbolTable
 70
    4
  0
LTYPE
  5
14
330
5
100
AcDbSymbolTableRecord
100
AcDbLinetypeTableRecord
  2
ByBlock
 70
    0
  3

 72
   65
 73
    0
 40
0
  0
LTYPE
  5
15
330
5
100
AcDbSymbolTableRecord
100
AcDbLinetypeTableRecord
  2
ByLayer
 70
    0
  3

 72
   65
 73
    0
 40
0
  0
LTYPE
  5
16
330
5
100
AcDbSymbolTableRecord
100
AcDbLinetypeTableRecord
  2
Continuous
 70
    0
  3
Solid line
 72
   65
 73
    0
 40
0
  0
LTYPE
  5
32
330
5
100
AcDbSymbolTableRecord
100
AcDbLinetypeTableRecord
  2
DOT
 70
    0
  3
Dot . . . . . . . . . . . . . . . . . . . . . .
 72
   65
 73
    2
 40
6.35
 49
0
 74
    0
 49
-6.35
 74
    0
  0
LTYPE
  5
33
330
5
100
AcDbSymbolTableRecord
100
AcDbLinetypeTableRecord
  2
DOTTINY
 70
    0
  3
Dot (.15x) .....................................
 72
   65
 73
    2
 40
0.9525
 49
0
 74
    0
 49
-0.9525
 74
    0
  0
LTYPE
  5
34
330
5
100
AcDbSymbolTableRecord
100
AcDbLinetypeTableRecord
  2
DOT2
 70
    0
  3
Dot (.5x) .....................................
 72
   65
 73
    2
 40
3.175
 49
0
 74
    0
 49
-3.175
 74
    0
  0
LTYPE
  5
35
330
5
100
AcDbSymbolTableRecord
100
AcDbLinetypeTableRecord
  2
DOTX2
 70
    0
  3
Dot (2x) .  .  .  .  .  .  .  .  .  .  .  .  .
 72
   65
 73
    2
 40
12.7
 49
0
 74
    0
 49
-12.7
 74
    0
  0
LTYPE
  5
36
330
5
100
AcDbSymbolTableRecord
100
AcDbLinetypeTableRecord
  2
DASHED
 70
    0
  3
Dashed _ _ _ _ _ _ _ _ _ _ _ _ _ _ _ _ _
 72
   65
 73
    2
 40
19.05
 49
12.7
 74
    0
 49
-6.35
 74
    0
  0
LTYPE
  5
37
330
5
100
AcDbSymbolTableRecord
100
AcDbLinetypeTableRecord
  2
DASHEDTINY
 70
    0
  3
Dashed (.15x) _ _ _ _ _ _ _ _ _ _ _ _ _ _ _ _ _
 72
   65
 73
    2
 40
2.8575
 49
1.905
 74
    0
 49
-0.9525
 74
    0
  0
LTYPE
  5
38
330
5
100
AcDbSymbolTableRecord
100
AcDbLinetypeTableRecord
  2
DASHED2
 70
    0
  3
Dashed (.5x) _ _ _ _ _ _ _ _ _ _ _ _ _ _ _ _ _
 72
   65
 73
    2
 40
9.524999999999999
 49
6.35
 74
    0
 49
-3.175
 74
    0
  0
LTYPE
  5
39
330
5
100
AcDbSymbolTableRecord
100
AcDbLinetypeTableRecord
  2
DASHEDX2
 70
    0
  3
Dashed (2x) ____  ____  ____  ____  ____  ___
 72
   65
 73
    2
 40
38.09999999999999
 49
25.4
 74
    0
 49
-12.7
 74
    0
  0
LTYPE
  5
3A
330
5
100
AcDbSymbolTableRecord
100
AcDbLinetypeTableRecord
  2
DASHDOT
 70
    0
  3
Dash dot __ . __ . __ . __ . __ . __ . __ . __
 72
   65
 73
    4
 40
25.4
 49
12.7
 74
    0
 49
-6.35
 74
    0
 49
0
 74
    0
 49
-6.35
 74
    0
  0
LTYPE
  5
3B
330
5
100
AcDbSymbolTableRecord
100
AcDbLinetypeTableRecord
  2
DASHDOTTINY
 70
    0
  3
Dash dot (.15x) _._._._._._._._._._._._._._._.
 72
   65
 73
    4
 40
3.81
 49
1.905
 74
    0
 49
-0.9525
 74
    0
 49
0
 74
    0
 49
-0.9525
 74
    0
  0
LTYPE
  5
3C
330
5
100
AcDbSymbolTableRecord
100
AcDbLinetypeTableRecord
  2
DASHDOT2
 70
    0
  3
Dash dot (.5x) _._._._._._._._._._._._._._._.
 72
   65
 73
    4
 40
12.7
 49
6.35
 74
    0
 49
-3.175
 74
    0
 49
0
 74
    0
 49
-3.175
 74
    0
  0
LTYPE
  5
3D
330
5
100
AcDbSymbolTableRecord
100
AcDbLinetypeTableRecord
  2
DASHDOTX2
 70
    0
  3
Dash dot (2x) ____  .  ____  .  ____  .  ___
 72
   65
 73
    4
 40
50.8
 49
25.4
 74
    0
 49
-12.7
 74
    0
 49
0
 74
    0
 49
-12.7
 74
    0
  0
LTYPE
  5
3E
330
5
100
AcDbSymbolTableRecord
100
AcDbLinetypeTableRecord
  2
DIVIDE
 70
    0
  3
Divide ____ . . ____ . . ____ . . ____ . . ____
 72
   65
 73
    6
 40
31.75
 49
12.7
 74
    0
 49
-6.35
 74
    0
 49
0
 74
    0
 49
-6.35
 74
    0
 49
0
 74
    0
 49
-6.35
 74
    0
  0
LTYPE
  5
3F
330
5
100
AcDbSymbolTableRecord
100
AcDbLinetypeTableRecord
  2
DIVIDETINY
 70
    0
  3
Divide (.15x) __..__..__..__..__..__..__..__.._
 72
   65
 73
    6
 40
4.7625
 49
1.905
 74
    0
 49
-0.9525
 74
    0
 49
0
 74
    0
 49
-0.9525
 74
    0
 49
0
 74
    0
 49
-0.9525
 74
    0
  0
LTYPE
  5
40
330
5
100
AcDbSymbolTableRecord
100
AcDbLinetypeTableRecord
  2
DIVIDE2
 70
    0
  3
Divide (.5x) __..__..__..__..__..__..__..__.._
 72
   65
 73
    6
 40
15.875
 49
6.35
 74
    0
 49
-3.175
 74
    0
 49
0
 74
    0
 49
-3.175
 74
    0
 49
0
 74
    0
 49
-3.175
 74
    0
  0
LTYPE
  5
41
330
5
100
AcDbSymbolTableRecord
100
AcDbLinetypeTableRecord
  2
DIVIDEX2
 70
    0
  3
Divide (2x) ________  .  .  ________  .  .  _
 72
   65
 73
    6
 40
63.5
 49
25.4
 74
    0
 49
-12.7
 74
    0
 49
0
 74
    0
 49
-12.7
 74
    0
 49
0
 74
    0
 49
-12.7
 74
    0
  0
LTYPE
  5
42
330
5
100
AcDbSymbolTableRecord
100
AcDbLinetypeTableRecord
  2
BORDER
 70
    0
  3
Border __ __ . __ __ . __ __ . __ __ . __ __ .
 72
   65
 73
    6
 40
44.45
 49
12.7
 74
    0
 49
-6.35
 74
    0
 49
12.7
 74
    0
 49
-6.35
 74
    0
 49
0
 74
    0
 49
-6.35
 74
    0
  0
LTYPE
  5
43
330
5
100
AcDbSymbolTableRecord
100
AcDbLinetypeTableRecord
  2
BORDERTINY
 70
    0
  3
Border (.15x) __.__.__.__.__.__.__.__.__.__.__.
 72
   65
 73
    6
 40
6.6675
 49
1.905
 74
    0
 49
-0.9525
 74
    0
 49
1.905
 74
    0
 49
-0.9525
 74
    0
 49
0
 74
    0
 49
-0.9525
 74
    0
  0
LTYPE
  5
44
330
5
100
AcDbSymbolTableRecord
100
AcDbLinetypeTableRecord
  2
BORDER2
 70
    0
  3
Border (.5x) __.__.__.__.__.__.__.__.__.__.__.
 72
   65
 73
    6
 40
22.225
 49
6.35
 74
    0
 49
-3.175
 74
    0
 49
6.35
 74
    0
 49
-3.175
 74
    0
 49
0
 74
    0
 49
-3.175
 74
    0
  0
LTYPE
  5
45
330
5
100
AcDbSymbolTableRecord
100
AcDbLinetypeTableRecord
  2
BORDERX2
 70
    0
  3
Border (2x) ____  ____  .  ____  ____  .  ___
 72
   65
 73
    6
 40
88.89999999999999
 49
25.4
 74
    0
 49
-12.7
 74
    0
 49
25.4
 74
    0
 49
-12.7
 74
    0
 49
0
 74
    0
 49
-12.7
 74
    0
  0
LTYPE
  5
46
330
5
100
AcDbSymbolTableRecord
100
AcDbLinetypeTableRecord
  2
CENTER
 70
    0
  3
Center ____ _ ____ _ ____ _ ____ _ ____ _ ____
 72
   65
 73
    4
 40
50.8
 49
31.75
 74
    0
 49
-6.35
 74
    0
 49
6.35
 74
    0
 49
-6.35
 74
    0
  0
LTYPE
  5
47
330
5
100
AcDbSymbolTableRecord
100
AcDbLinetypeTableRecord
  2
CENTERTINY
 70
    0
  3
Center (.15x) ___ _ ___ _ ___ _ ___ _ ___ _ ___
 72
   65
 73
    4
 40
7.619999999999999
 49
4.7625
 74
    0
 49
-0.9525
 74
    0
 49
0.9525
 74
    0
 49
-0.9525
 74
    0
  0
LTYPE
  5
48
330
5
100
AcDbSymbolTableRecord
100
AcDbLinetypeTableRecord
  2
CENTER2
 70
    0
  3
Center (.5x) ___ _ ___ _ ___ _ ___ _ ___ _ ___
 72
   65
 73
    4
 40
28.575
 49
19.05
 74
    0
 49
-3.175
 74
    0
 49
3.175
 74
    0
 49
-3.175
 74
    0
  0
LTYPE
  5
49
330
5
100
AcDbSymbolTableRecord
100
AcDbLinetypeTableRecord
  2
CENTERX2
 70
    0
  3
Center (2x) ________  __  ________  __  _____
 72
   65
 73
    4
 40
101.6
 49
63.5
 74
    0
 49
-12.7
 74
    0
 49
12.7
 74
    0
 49
-12.7
 74
    0
  0
ENDTAB
  0
TABLE
  2
LAYER
  5
2
330
0
100
AcDbSymbolTable
 70
    1
  0
LAYER
  5
10
330
2
100
AcDbSymbolTableRecord
100
AcDbLayerTableRecord
  2
0
 70
    1
 62
    7
  6
CONTINUOUS
370
    0
390
F
  0
LAYER
  5
4A
330
2
100
AcDbSymbolTableRecord
100
AcDbLayerTableRecord
  2
Blade + tang
 70
    0
 62
    5
  6
CONTINUOUS
370
   13
390
F
  0
LAYER
  5
4B
330
2
100
AcDbSymbolTableRecord
100
AcDbLayerTableRecord
  2
Handle
 70
    0
 62
    1
  6
CONTINUOUS
370
   13
390
F
  0
LAYER
  5
4C
330
2
100
AcDbSymbolTableRecord
100
AcDbLayerTableRecord
  2
Picture
 70
    1
 62
    7
  6
CONTINUOUS
370
    0
390
F
  0
LAYER
  5
4D
330
2
100
AcDbSymbolTableRecord
100
AcDbLayerTableRecord
  2
Steel bar
 70
    0
 62
    7
  6
CONTINUOUS
370
   13
390
F
  0
ENDTAB
  0
TABLE
  2
STYLE
  5
3
330
0
100
AcDbSymbolTable
 70
    3
  0
STYLE
  5
4E
330
2
100
AcDbSymbolTableRecord
100
AcDbTextStyleTableRecord
  2
Standard
 70
    0
 40
0
 41
1
 50
0
 71
    0
 42
1
  3
txt
  4

  0
ENDTAB
  0
TABLE
  2
VIEW
  5
6
330
0
100
AcDbSymbolTable
 70
    0
  0
ENDTAB
  0
TABLE
  2
UCS
  5
7
330
0
100
AcDbSymbolTable
 70
    0
  0
ENDTAB
  0
TABLE
  2
APPID
  5
9
330
0
100
AcDbSymbolTable
 70
    1
  0
APPID
  5
12
330
9
100
AcDbSymbolTableRecord
100
AcDbRegAppTableRecord
  2
ACAD
 70
    0
  0
APPID
  5
4F
330
9
100
AcDbSymbolTableRecord
100
AcDbRegAppTableRecord
  2
LibreCad
 70
    0
  0
ENDTAB
  0
TABLE
  2
DIMSTYLE
  5
A
330
0
100
AcDbSymbolTable
 70
    1
100
AcDbDimStyleTable
 71
    1
  0
DIMSTYLE
105
50
330
A
100
AcDbSymbolTableRecord
100
AcDbDimStyleTableRecord
  2
Standard
 70
    0
 40
1
 41
2.5
 42
0.625
 43
0.38
 44
1.25
 45
0
 46
0
 47
0
 48
0
 49
1
140
2.5
141
0.09
142
0
143
25.4
144
1
145
0
146
1
147
0.625
148
0
 71
    0
 72
    0
 73
    0
 74
    1
 75
    0
 76
    0
 77
    0
 78
    1
 79
    0
170
    0
171
    2
172
    0
173
    0
174
    0
175
    0
176
    0
177
    0
178
    0
179
    0
271
    0
272
    4
273
    2
274
    2
275
    0
276
    0
277
    2
278
    0
279
    0
280
    0
281
    0
282
    0
283
    1
284
    0
285
    0
286
    0
288
    0
289
    3
340
standard
341

371
   -2
372
   -2
  0
ENDTAB
  0
TABLE
  2
BLOCK_RECORD
  5
1
330
0
100
AcDbSymbolTable
 70
    2
  0
BLOCK_RECORD
  5
1F
330
1
100
AcDbSymbolTableRecord
100
AcDbBlockTableRecord
  2
*Model_Space
 70
    0
280
    1
281
    0
  0
BLOCK_RECORD
  5
1E
330
1
100
AcDbSymbolTableRecord
100
AcDbBlockTableRecord
  2
*Paper_Space
 70
    0
280
    1
281
    0
  0
BLOCK_RECORD
  5
51
330
1
100
AcDbSymbolTableRecord
100
AcDbBlockTableRecord
  2
*D1
 70
    0
280
    1
281
    0
  0
BLOCK_RECORD
  5
54
330
1
100
AcDbSymbolTableRecord
100
AcDbBlockTableRecord
  2
*D2
 70
    0
280
    1
281
    0
  0
ENDTAB
  0
ENDSEC
  0
SECTION
  2
BLOCKS
  0
BLOCK
  5
20
330
1F
100
AcDbEntity
  8
0
100
AcDbBlockBegin
  2
*Model_Space
 70
    0
 10
0
 20
0
 30
0
  3
*Model_Space
  1

  0
ENDBLK
  5
21
330
1F
100
AcDbEntity
  8
0
100
AcDbBlockEnd
  0
BLOCK
  5
1C
330
1B
100
AcDbEntity
  8
0
100
AcDbBlockBegin
  2
*Paper_Space
 70
    0
 10
0
 20
0
 30
0
  3
*Paper_Space
  1

  0
ENDBLK
  5
1D
330
1F
100
AcDbEntity
  8
0
100
AcDbBlockEnd
  0
BLOCK
  5
52
330
51
100
AcDbEntity
  8
0
100
AcDbBlockBegin
  2
*D1
 70
    1
 10
0
 20
0
  3
*D1
  1

  0
LINE
  5
57
100
AcDbEntity
  8
Steel bar
  6
ByBlock
 62
    0
370
   -2
100
AcDbLine
 10
-9.999999999999995
 20
-100
 11
-10
 21
-200
  0
SOLID
  5
58
100
AcDbEntity
  8
Steel bar
  6
ByBlock
 62
    0
370
   -2
100
AcDbTrace
 10
-9.999999999999995
 20
-100
 30
0
 11
-9.583715342227155
 21
-102.5
 31
0
 12
-10.41628465777283
 22
-102.5
 32
0
 13
-10.41628465777283
 23
-102.5
 33
0
  0
SOLID
  5
59
100
AcDbEntity
  8
Steel bar
  6
ByBlock
 62
    0
370
   -2
100
AcDbTrace
 10
-10
 20
-200
 30
0
 11
-10.41628465777284
 21
-197.5
 31
0
 12
-9.583715342227158
 22
-197.5
 32
0
 13
-9.583715342227158
 23
-197.5
 33
0
  0
MTEXT
  5
5A
100
AcDbEntity
  8
Steel bar
  6
CONTINUOUS
 62
    0
370
   -2
100
AcDbMText
 10
-11.875
 20
-150
 30
0
 40
2.5
 41
4.444444444444445
 71
    5
 72
    1
  1
100
  7
standard
210
0
220
0
230
1
 50
90
 73
    2
 44
1
  0
LINE
  5
5B
100
AcDbEntity
  8
Steel bar
  6
ByBlock
 62
    0
370
   -2
100
AcDbLine
 10
-0.625
 20
-100
 11
-11.24999999999999
 21
-100
  0
LINE
  5
5C
100
AcDbEntity
  8
Steel bar
  6
ByBlock
 62
    0
370
   -2
100
AcDbLine
 10
-0.625
 20
-200
 11
-11.25
 21
-200
  0
ENDBLK
  5
53
330
51
100
AcDbEntity
  8
0
100
AcDbBlockEnd
  0
BLOCK
  5
55
330
54
100
AcDbEntity
  8
0
100
AcDbBlockBegin
  2
*D2
 70
    1
 10
0
 20
0
  3
*D2
  1

  0
LINE
  5
5D
100
AcDbEntity
  8
Steel bar
  6
ByBlock
 62
    0
370
   -2
100
AcDbLine
 10
-1.13686837721616e-13
 20
-90
 11
594.104966780477
 21
-90
  0
SOLID
  5
5E
100
AcDbEntity
  8
Steel bar
  6
ByBlock
 62
    0
370
   -2
100
AcDbTrace
 10
-1.13686837721616e-13
 20
-90
 30
0
 11
2.499999999999886
 21
-89.58371534222717
 31
0
 12
2.499999999999886
 22
-90.41628465777283
 32
0
 13
2.499999999999886
 23
-90.41628465777283
 33
0
  0
SOLID
  5
5F
100
AcDbEntity
  8
Steel bar
  6
ByBlock
 62
    0
370
   -2
100
AcDbTrace
 10
594.104966780477
 20
-90
 30
0
 11
591.604966780477
 21
-90.41628465777283
 31
0
 12
591.604966780477
 22
-89.58371534222717
 32
0
 13
591.604966780477
 23
-89.58371534222717
 33
0
  0
MTEXT
  5
60
100
AcDbEntity
  8
Steel bar
  6
CONTINUOUS
 62
    0
370
   -2
100
AcDbMText
 10
297.0524833902384
 20
-88.125
 30
0
 40
2.5
 41
5.277777777777933
 71
    5
 72
    1
  1
594
  7
standard
210
0
220
0
230
1
 50
0
 73
    2
 44
1
  0
LINE
  5
61
100
AcDbEntity
  8
Steel bar
  6
ByBlock
 62
    0
370
   -2
100
AcDbLine
 10
-7.039401569512018e-15
 20
-99.375
 11
-1.277656408606401e-13
 21
-88.75
  0
LINE
  5
62
100
AcDbEntity
  8
Steel bar
  6
ByBlock
 62
    0
370
   -2
100
AcDbLine
 10
594.104966780477
 20
-99.375
 11
594.104966780477
 21
-88.75
  0
ENDBLK
  5
56
330
54
100
AcDbEntity
  8
0
100
AcDbBlockEnd
  0
ENDSEC
  0
SECTION
  2
ENTITIES
  0
IMAGE
  5
65
100
AcDbEntity
  8
Picture
  6
ByLayer
 62
  256
370
   -1
100
AcDbRasterImage
 10
0
 20
400
 30
0
 11
1
 21
0
 31
0
 12
6.123233995736766e-17
 22
1
 32
0
 13
816
 23
205
340
63
 70
    1
280
    0
281
   50
282
   50
283
    0
360
64
  0
ARC
  5
66
100
AcDbEntity
  8
Blade + tang
  6
ByLayer
 62
  256
370
   -1
100
AcDbCircle
 10
257.6778311157939
 20
10.75497000865677
 40
10.84465394709255
100
AcDbArc
 50
270.8918286842112
 51
331.2483979896855
  0
LINE
  5
67
100
AcDbEntity
  8
Blade + tang
  6
ByLayer
 62
  256
370
   -1
100
AcDbLine
 10
290.463182227016
 20
47.96537624133419
 11
267.1854835382899
 21
5.538547417915419
  0
ARC
  5
68
100
AcDbEntity
  8
Blade + tang
  6
ByLayer
 62
  256
370
   -1
100
AcDbCircle
 10
289.829338732183
 20
48.3131377473836
 40
0.7229769298061699
100
AcDbArc
 50
331.2483979896863
 51
92.37861382624479
  0
CIRCLE
  5
69
100
AcDbEntity
  8
Blade + tang
  6
ByLayer
 62
  256
370
   -1
100
AcDbCircle
 10
257.6778311157939
 20
10.75497000865677
 40
5
  0
LINE
  5
6A
100
AcDbEntity
  8
Blade + tang
  6
ByLayer
 62
  256
370
   -1
100
AcDbLine
 10
166.7430657221408
 20
43.92391787363024
 11
289.7993332237596
 21
49.03549175373796
  0
ARC
  5
6B
100
AcDbEntity
  8
Blade + tang
  6
ByLayer
 62
  256
370
   -1
100
AcDbCircle
 10
163.7456505492332
 20
43.79940971637225
 40
3
100
AcDbArc
 50
199.3662403211385
 51
2.378613826244003
  0
ARC
  5
6C
100
AcDbEntity
  8
Blade + tang
  6
ByLayer
 62
  256
370
   -1
100
AcDbCircle
 10
163.4557246786739
 20
1097.809185023365
 40
1097.852029871968
100
AcDbArc
 50
265.9465987529402
 51
269.6885892726805
  0
ARC
  5
6D
100
AcDbEntity
  8
Blade + tang
  6
ByLayer
 62
  256
370
   -1
100
AcDbCircle
 10
29.36436764891786
 20
41.79216993387551
 40
3.614884649030849
100
AcDbArc
 50
86.09946773747258
 51
118.7069520556098
  0
ARC
  5
6E
100
AcDbEntity
  8
Blade + tang
  6
ByLayer
 62
  256
370
   -1
100
AcDbCircle
 10
29.20912306463502
 20
39.51527192000322
 40
5.897069007606015
100
AcDbArc
 50
35.04760914499749
 51
86.09946773747258
  0
ARC
  5
6F
100
AcDbEntity
  8
Blade + tang
  6
ByLayer
 62
  256
370
   -1
100
AcDbCircle
 10
36.99632320880852
 20
44.97757695364899
 40
3.614884649030849
100
AcDbArc
 50
215.0476091449974
 51
228.0924311966637
  0
ARC
  5
70
100
AcDbEntity
  8
Handle
  6
ByLayer
 62
  256
370
   -1
100
AcDbCircle
 10
29.36436764891786
 20
41.7921699338755
 40
3.614884649030849
100
AcDbArc
 50
86.09946773747258
 51
118.7069520556098
  0
ARC
  5
71
100
AcDbEntity
  8
Handle
  6
ByLayer
 62
  256
370
   -1
100
AcDbCircle
 10
29.20912306463502
 20
39.5152719200032
 40
5.897069007606015
100
AcDbArc
 50
35.04760914499749
 51
86.09946773747258
  0
ARC
  5
72
100
AcDbEntity
  8
Handle
  6
ByLayer
 62
  256
370
   -1
100
AcDbCircle
 10
36.99632320880855
 20
44.97757695364898
 40
3.614884649030849
100
AcDbArc
 50
215.0476091449974
 51
228.0924311966637
  0
ARC
  5
73
100
AcDbEntity
  8
Handle
  6
ByLayer
 62
  256
370
   -1
100
AcDbCircle
 10
163.4557246786739
 20
1097.809185023365
 40
1097.852029871968
100
AcDbArc
 50
265.9465987529402
 51
269.493807491985
  0
ARC
  5
74
100
AcDbEntity
  8
Handle
  6
ByLayer
 62
  256
370
   -1
100
AcDbCircle
 10
153.7725971247419
 20
1.807371643094585
 40
1.807442324515425
100
AcDbArc
 50
269.4938074919681
 51
346.1441103751217
  0
ARC
  5
75
100
AcDbEntity
  8
Handle
  6
ByLayer
 62
  256
370
   -1
100
AcDbCircle
 10
108.6253932829896
 20
12.94329583700954
 40
48.30775224156169
100
AcDbArc
 50
346.1441103751218
 51
25.52008941421423
  0
ARC
  5
76
100
AcDbEntity
  8
Handle
  6
ByLayer
 62
  256
370
   -1
100
AcDbCircle
 10
150.5888669969701
 20
32.9769099951545
 40
1.807442324515425
100
AcDbArc
 50
25.52008941421413
 51
138.5803887843778
  0
ARC
  5
77
100
AcDbEntity
  8
Handle
  6
ByLayer
 62
  256
370
   -1
100
AcDbCircle
 10
141.1012539382388
 20
41.34713929391503
 40
10.84465394709255
100
AcDbArc
 50
303.0195906442855
 51
318.5803887843778
  0
CIRCLE
  5
78
100
AcDbEntity
  8
Handle
  6
ByLayer
 62
  256
370
   -1
100
AcDbCircle
 10
31.0746432836699
 20
23.45700462110504
 40
4
  0
CIRCLE
  5
79
100
AcDbEntity
  8
Handle
  6
ByLayer
 62
  256
370
   -1
100
AcDbCircle
 10
136.9311255223627
 20
13.28146644862622
 40
4
  0
CIRCLE
  5
7A
100
AcDbEntity
  8
Handle
  6
ByLayer
 62
  256
370
   -1
100
AcDbCircle
 10
84.00288440301659
 20
18.3692355348656
 40
4
  0
CIRCLE
  5
7B
100
AcDbEntity
  8
Blade + tang
  6
ByLayer
 62
  256
370
   -1
100
AcDbCircle
 10
31.0746432836699
 20
23.45700462110504
 40
4
  0
CIRCLE
  5
7C
100
AcDbEntity
  8
Blade + tang
  6
ByLayer
 62
  256
370
   -1
100
AcDbCircle
 10
84.00288440301659
 20
18.3692355348656
 40
4
  0
CIRCLE
  5
7D
100
AcDbEntity
  8
Blade + tang
  6
ByLayer
 62
  256
370
   -1
100
AcDbCircle
 10
136.9311255223627
 20
13.28146644862622
 40
4
  0
ARC
  5
7E
100
AcDbEntity
  8
Handle
  6
ByLayer
 62
  256
370
   -1
100
AcDbCircle
 10
58.39042434832054
 20
68.81535655016317
 40
35.64529675471032
100
AcDbArc
 50
228.0924311966636
 51
282.3833135134705
  0
ARC
  5
7F
100
AcDbEntity
  8
Handle
  6
ByLayer
 62
  256
370
   -1
100
AcDbCircle
 10
132.6233498200742
 20
54.39219412137035
 40
26.40255591644898
100
AcDbArc
 50
249.0752148642535
 51
303.0195971799548
  0
ARC
  5
80
100
AcDbEntity
  8
Handle
  6
ByLayer
 62
  256
370
   -1
100
AcDbCircle
 10
87.47967730174375
 20
-63.67412187844711
 40
100
100
AcDbArc
 50
69.0752148642535
 51
102.3833135134705
  0
ARC
  5
81
100
AcDbEntity
  8
Blade + tang
  6
ByLayer
 62
  256
370
   -1
100
AcDbCircle
 10
58.39042434832054
 20
68.81535655016319
 40
35.64529675471032
100
AcDbArc
 50
228.0924311966636
 51
282.3833135134705
  0
ARC
  5
82
100
AcDbEntity
  8
Blade + tang
  6
ByLayer
 62
  256
370
   -1
100
AcDbCircle
 10
132.6233498200742
 20
54.39219412137037
 40
26.40255591644898
100
AcDbArc
 50
249.0752148642535
 51
303.0196017356507
  0
ARC
  5
83
100
AcDbEntity
  8
Blade + tang
  6
ByLayer
 62
  256
370
   -1
100
AcDbCircle
 10
87.47967730174375
 20
-63.67412187844711
 40
100
100
AcDbArc
 50
69.0752148642535
 51
102.3833135134705
  0
CIRCLE
  5
84
100
AcDbEntity
  8
Blade + tang
  6
ByLayer
 62
  256
370
   -1
100
AcDbCircle
 10
6.221956714438534
 20
21.04045316268423
 40
2.5
  0
CIRCLE
  5
85
100
AcDbEntity
  8
Blade + tang
  6
ByLayer
 62
  256
370
   -1
100
AcDbCircle
 10
28.49531503810299
 20
37.50553263742823
 40
2.5
  0
CIRCLE
  5
86
100
AcDbEntity
  8
Blade + tang
  6
ByLayer
 62
  256
370
   -1
100
AcDbCircle
 10
18.92859567135213
 20
31.20895633902989
 40
2.5
  0
CIRCLE
  5
87
100
AcDbEntity
  8
Blade + tang
  6
ByLayer
 62
  256
370
   -1
100
AcDbCircle
 10
17.21976626170746
 20
22.68122916582431
 40
2.5
  0
CIRCLE
  5
88
100
AcDbEntity
  8
Blade + tang
  6
ByLayer
 62
  256
370
   -1
100
AcDbCircle
 10
43.02704677611931
 20
14.67043888866252
 40
2.5
  0
CIRCLE
  5
89
100
AcDbEntity
  8
Blade + tang
  6
ByLayer
 62
  256
370
   -1
100
AcDbCircle
 10
57.17267132634986
 20
12.38750131774147
 40
2.5
  0
CIRCLE
  5
8A
100
AcDbEntity
  8
Blade + tang
  6
ByLayer
 62
  256
370
   -1
100
AcDbCircle
 10
70.12294622682431
 20
10.42193202815255
 40
2.5
  0
CIRCLE
  5
8B
100
AcDbEntity
  8
Blade + tang
  6
ByLayer
 62
  256
370
   -1
100
AcDbCircle
 10
83.24307365769415
 20
8.459553707057726
 40
2.5
  0
CIRCLE
  5
8C
100
AcDbEntity
  8
Blade + tang
  6
ByLayer
 62
  256
370
   -1
100
AcDbCircle
 10
97.02027443068698
 20
7.698906972707166
 40
2.5
  0
CIRCLE
  5
8D
100
AcDbEntity
  8
Blade + tang
  6
ByLayer
 62
  256
370
   -1
100
AcDbCircle
 10
114.1753800006234
 20
8.02119479061102
 40
2.5
  0
CIRCLE
  5
8E
100
AcDbEntity
  8
Blade + tang
  6
ByLayer
 62
  256
370
   -1
100
AcDbCircle
 10
127.4589780249005
 20
6.401712498801116
 40
2.5
  0
CIRCLE
  5
8F
100
AcDbEntity
  8
Blade + tang
  6
ByLayer
 62
  256
370
   -1
100
AcDbCircle
 10
147.1682534877563
 20
6.432159783325618
 40
2.5
  0
CIRCLE
  5
90
100
AcDbEntity
  8
Blade + tang
  6
ByLayer
 62
  256
370
   -1
100
AcDbCircle
 10
147.6306777517393
 20
17.99489572418991
 40
2.5
  0
CIRCLE
  5
91
100
AcDbEntity
  8
Blade + tang
  6
ByLayer
 62
  256
370
   -1
100
AcDbCircle
 10
37.09005254968463
 20
32.22980008947999
 40
2.5
  0
CIRCLE
  5
92
100
AcDbEntity
  8
Blade + tang
  6
ByLayer
 62
  256
370
   -1
100
AcDbCircle
 10
45.84187871768529
 20
27.63666863160747
 40
2.5
  0
CIRCLE
  5
93
100
AcDbEntity
  8
Blade + tang
  6
ByLayer
 62
  256
370
   -1
100
AcDbCircle
 10
58.95881518006107
 20
25.84414284090805
 40
2.5
  0
CIRCLE
  5
94
100
AcDbEntity
  8
Blade + tang
  6
ByLayer
 62
  256
370
   -1
100
AcDbCircle
 10
70.65630299788566
 20
27.25328737976865
 40
2.5
  0
CIRCLE
  5
95
100
AcDbEntity
  8
Blade + tang
  6
ByLayer
 62
  256
370
   -1
100
AcDbCircle
 10
82.3601727526985
 20
28.32272685783845
 40
2.5
  0
CIRCLE
  5
96
100
AcDbEntity
  8
Blade + tang
  6
ByLayer
 62
  256
370
   -1
100
AcDbCircle
 10
93.07364604158576
 20
27.84434775138494
 40
2.5
  0
CIRCLE
  5
97
100
AcDbEntity
  8
Blade + tang
  6
ByLayer
 62
  256
370
   -1
100
AcDbCircle
 10
105.6842158812694
 20
25.87239652480784
 40
2.5
  0
CIRCLE
  5
98
100
AcDbEntity
  8
Blade + tang
  6
ByLayer
 62
  256
370
   -1
100
AcDbCircle
 10
117.6504762528065
 20
22.01930358990482
 40
2.5
  0
CIRCLE
  5
99
100
AcDbEntity
  8
Blade + tang
  6
ByLayer
 62
  256
370
   -1
100
AcDbCircle
 10
130.414943780415
 20
20.89980598379886
 40
2.5
  0
CIRCLE
  5
9A
100
AcDbEntity
  8
Blade + tang
  6
ByLayer
 62
  256
370
   -1
100
AcDbCircle
 10
140.4043333888033
 20
22.78659842890471
 40
2.5
  0
CIRCLE
  5
9B
100
AcDbEntity
  8
Blade + tang
  6
ByLayer
 62
  256
370
   -1
100
AcDbCircle
 10
122.2229994992979
 20
13.77949478137625
 40
2.5
  0
CIRCLE
  5
9C
100
AcDbEntity
  8
Blade + tang
  6
ByLayer
 62
  256
370
   -1
100
AcDbCircle
 10
109.0996810999339
 20
15.91172563286648
 40
2.5
  0
CIRCLE
  5
9D
100
AcDbEntity
  8
Blade + tang
  6
ByLayer
 62
  256
370
   -1
100
AcDbCircle
 10
96.82562535254704
 20
18.0599113268272
 40
2.5
  0
CIRCLE
  5
9E
100
AcDbEntity
  8
Blade + tang
  6
ByLayer
 62
  256
370
   -1
100
AcDbCircle
 10
73.37002131550993
 20
18.46882032661879
 40
2.5
  0
CIRCLE
  5
9F
100
AcDbEntity
  8
Blade + tang
  6
ByLayer
 62
  256
370
   -1
100
AcDbCircle
 10
64.02813214376233
 20
18.29331705944342
 40
2.5
  0
CIRCLE
  5
A0
100
AcDbEntity
  8
Blade + tang
  6
ByLayer
 62
  256
370
   -1
100
AcDbCircle
 10
51.43670811504329
 20
19.24615310364807
 40
2.5
  0
CIRCLE
  5
A1
100
AcDbEntity
  8
Blade + tang
  6
ByLayer
 62
  256
370
   -1
100
AcDbCircle
 10
40.34523814343608
 20
21.7563806378583
 40
2.5
  0
CIRCLE
  5
A2
100
AcDbEntity
  8
Blade + tang
  6
ByLayer
 62
  256
370
   -1
100
AcDbCircle
 10
23.76670050306188
 20
17.87676258713311
 40
2.5
  0
CIRCLE
  5
A3
100
AcDbEntity
  8
Blade + tang
  6
ByLayer
 62
  256
370
   -1
100
AcDbCircle
 10
35.02483203657046
 20
15.5395785518124
 40
2.5
  0
CIRCLE
  5
A4
100
AcDbEntity
  8
Blade + tang
  6
ByLayer
 62
  256
370
   -1
100
AcDbCircle
 10
26.07197485344162
 20
30.83341942459576
 40
2.5
  0
CIRCLE
  5
A5
100
AcDbEntity
  8
Blade + tang
  6
ByLayer
 62
  256
370
   -1
100
AcDbCircle
 10
136.9994384434904
 20
5.051733960911887
 40
2.5
  0
CIRCLE
  5
A6
100
AcDbEntity
  8
Blade + tang
  6
ByLayer
 62
  256
370
   -1
100
AcDbCircle
 10
148.8299495701977
 20
26.51304999191321
 40
2.5
  0
CIRCLE
  5
A7
100
AcDbEntity
  8
Blade + tang
  6
ByLayer
 62
  256
370
   -1
100
AcDbCircle
 10
104.9714336743303
 20
9.547407795883856
 40
2.5
  0
ARC
  5
A8
100
AcDbEntity
  8
Handle
  6
ByLayer
 62
  256
370
   -1
100
AcDbCircle
 10
62.11605743820526
 20
-18.01278712062735
 40
71.80070481968394
100
AcDbArc
 50
118.7069520556097
 51
130.1902094072836
  0
ARC
  5
A9
100
AcDbEntity
  8
Handle
  6
ByLayer
 62
  256
370
   -1
100
AcDbCircle
 10
95.34942101490496
 20
280.4419545583721
 40
277.9009466699947
100
AcDbArc
 50
254.4979118693021
 51
268.0416549900287
  0
ARC
  5
AA
100
AcDbEntity
  8
Handle
  6
ByLayer
 62
  256
370
   -1
100
AcDbCircle
 10
24.81569261778846
 20
26.14153613220993
 40
14
100
AcDbArc
 50
130.1902094072837
 51
254.4979118693016
  0
ARC
  5
AB
100
AcDbEntity
  8
Blade + tang
  6
ByLayer
 62
  256
370
   -1
100
AcDbCircle
 10
62.11605743820526
 20
-18.01278712062734
 40
71.80070481968394
100
AcDbArc
 50
118.7069520556097
 51
138.0853554816106
  0
ARC
  5
AC
100
AcDbEntity
  8
Blade + tang
  6
ByLayer
 62
  256
370
   -1
100
AcDbCircle
 10
-6.196594985348629
 20
43.31217455281735
 40
20
100
AcDbArc
 50
299.1437232688644
 51
318.0853554816107
  0
ARC
  5
AD
100
AcDbEntity
  8
Blade + tang
  6
ByLayer
 62
  256
370
   -1
100
AcDbCircle
 10
95.34942101490496
 20
280.4419545583721
 40
277.9009466699947
100
AcDbArc
 50
252.9666217714191
 51
268.0416549900287
  0
ARC
  5
AE
100
AcDbEntity
  8
Blade + tang
  6
ByLayer
 62
  256
370
   -1
100
AcDbCircle
 10
8.085666114270294
 20
-4.391349511782212
 40
20
100
AcDbArc
 50
72.96662177141933
 51
94.19129326187826
  0
ARC
  5
AF
100
AcDbEntity
  8
Blade + tang
  6
ByLayer
 62
  256
370
   -1
100
AcDbCircle
 10
6.221956714438534
 20
21.04045316268423
 40
5.5
100
AcDbArc
 50
135
 51
274.1912932618783
  0
LINE
  5
B0
100
AcDbEntity
  8
Blade + tang
  6
ByLayer
 62
  256
370
   -1
100
AcDbLine
 10
2.332869417912523
 20
24.92954045921024
 11
3.543445563504038
 21
25.84415777624235
  0
LINE
  5
B1
100
AcDbEntity
  8
Blade + tang
  6
ByLayer
 62
  256
370
   -1
100
AcDbLine
 10
157.4887718110818
 20
-0.02662918906867162
 11
257.8466251004313
 21
-0.0883702434491429
  0
LINE
  5
B2
100
AcDbEntity
  8
Blade + tang
  6
DASHED2
 62
  256
370
   -1
100
AcDbLine
 10
167.9856569055519
 20
17.53367352134765
 11
164.2237431987555
 21
40.83775014470206
  0
LINE
  5
B3
100
AcDbEntity
  8
Blade + tang
  6
DASHED2
 62
  256
370
   -1
100
AcDbLine
 10
167.9856569055519
 20
17.53367352134765
 11
276.2336781756396
 21
22.03013493149276
  0
LINE
  5
B4
100
AcDbEntity
  8
Blade + tang
  6
ByLayer
 62
  256
370
   -1
100
AcDbLine
 10
160.0805545632662
 20
47.52271145827859
 11
160.915395921117
 21
42.8045937836353
  0
ARC
  5
B5
100
AcDbEntity
  8
Blade + tang
  6
ByLayer
 62
  256
370
   -1
100
AcDbCircle
 10
157.1264434056785
 20
47
 40
3
100
AcDbArc
 50
10.03426817920539
 51
90
  0
LINE
  5
B6
100
AcDbEntity
  8
Blade + tang
  6
ByLayer
 62
  256
370
   -1
100
AcDbLine
 10
153.7392762816412
 20
50
 11
157.1264434056785
 21
50
  0
ARC
  5
B7
100
AcDbEntity
  8
Blade + tang
  6
ByLayer
 62
  256
370
   -1
100
AcDbCircle
 10
141.1012539382388
 20
41.34713929391503
 40
10.84465394709255
100
AcDbArc
 50
303.0196017356507
 51
24.09848933122646
  0
ARC
  5
B8
100
AcDbEntity
  8
Blade + tang
  6
ByLayer
 62
  256
370
   -1
100
AcDbCircle
 10
153.7392762816411
 20
47.00000000000001
 40
3
100
AcDbArc
 50
89.99999999999946
 51
204.0984893312265
  0
LINE
  5
B9
100
AcDbEntity
  8
Steel bar
  6
ByLayer
 62
  256
370
   -1
100
AcDbLine
 10
0
 20
-200
 11
0
 21
-100
  0
DIMENSION
  5
BA
100
AcDbEntity
  8
Steel bar
  6
ByLayer
 62
  256
370
   -1
100
AcDbDimension
  2
*D1
 10
-10
 20
-200
 30
0
 11
-11.875
 21
-150
 31
0
 70
   32
 71
    5
  3
Standard
 53
0
210
0
220
0
230
1
100
AcDbAlignedDimension
 13
0
 23
-100
 33
0
 14
0
 24
-200
 34
0
 50
90
100
AcDbRotatedDimension
  0
LINE
  5
BB
100
AcDbEntity
  8
Steel bar
  6
ByLayer
 62
  256
370
   -1
100
AcDbLine
 10
0
 20
-100
 11
297.0524833902385
 21
-100
  0
LINE
  5
BC
100
AcDbEntity
  8
Steel bar
  6
ByLayer
 62
  256
370
   -1
100
AcDbLine
 10
0
 20
-200
 11
297.0524833902385
 21
-200
  0
CIRCLE
  5
BD
100
AcDbEntity
  8
Blade + tang
  6
ByLayer
 62
  256
370
   -1
100
AcDbCircle
 10
260.1778311157939
 20
-186.7450299913432
 40
5
  0
ARC
  5
BE
100
AcDbEntity
  8
Blade + tang
  6
ByLayer
 62
  256
370
   -1
100
AcDbCircle
 10
166.2456505492332
 20
-153.7005902836277
 40
3
100
AcDbArc
 50
199.3662403211385
 51
2.378613826244003
  0
CIRCLE
  5
BF
100
AcDbEntity
  8
Blade + tang
  6
ByLayer
 62
  256
370
   -1
100
AcDbCircle
 10
33.5746432836699
 20
-174.042995378895
 40
4
  0
CIRCLE
  5
C0
100
AcDbEntity
  8
Blade + tang
  6
ByLayer
 62
  256
370
   -1
100
AcDbCircle
 10
86.50288440301659
 20
-179.1307644651344
 40
4
  0
CIRCLE
  5
C1
100
AcDbEntity
  8
Blade + tang
  6
ByLayer
 62
  256
370
   -1
100
AcDbCircle
 10
139.4311255223627
 20
-184.2185335513738
 40
4
  0
ARC
  5
C2
100
AcDbEntity
  8
Blade + tang
  6
ByLayer
 62
  256
370
   -1
100
AcDbCircle
 10
135.1233498200742
 20
-143.1078058786296
 40
26.40255591644898
100
AcDbArc
 50
249.0752148642535
 51
303.0196017356507
  0
ARC
  5
C3
100
AcDbEntity
  8
Blade + tang
  6
ByLayer
 62
  256
370
   -1
100
AcDbCircle
 10
89.97967730174375
 20
-261.1741218784471
 40
100
100
AcDbArc
 50
69.0752148642535
 51
102.3833135134705
  0
CIRCLE
  5
C4
100
AcDbEntity
  8
Blade + tang
  6
ByLayer
 62
  256
370
   -1
100
AcDbCircle
 10
8.721956714438534
 20
-176.4595468373158
 40
2.5
  0
CIRCLE
  5
C5
100
AcDbEntity
  8
Blade + tang
  6
ByLayer
 62
  256
370
   -1
100
AcDbCircle
 10
30.995315038103
 20
-159.9944673625718
 40
2.5
  0
CIRCLE
  5
C6
100
AcDbEntity
  8
Blade + tang
  6
ByLayer
 62
  256
370
   -1
100
AcDbCircle
 10
21.42859567135213
 20
-166.2910436609701
 40
2.5
  0
CIRCLE
  5
C7
100
AcDbEntity
  8
Blade + tang
  6
ByLayer
 62
  256
370
   -1
100
AcDbCircle
 10
19.71976626170743
 20
-174.8187708341757
 40
2.5
  0
CIRCLE
  5
C8
100
AcDbEntity
  8
Blade + tang
  6
ByLayer
 62
  256
370
   -1
100
AcDbCircle
 10
45.52704677611931
 20
-182.8295611113375
 40
2.5
  0
CIRCLE
  5
C9
100
AcDbEntity
  8
Blade + tang
  6
ByLayer
 62
  256
370
   -1
100
AcDbCircle
 10
59.67267132634987
 20
-185.1124986822585
 40
2.5
  0
CIRCLE
  5
CA
100
AcDbEntity
  8
Blade + tang
  6
ByLayer
 62
  256
370
   -1
100
AcDbCircle
 10
72.6229462268243
 20
-187.0780679718474
 40
2.5
  0
CIRCLE
  5
CB
100
AcDbEntity
  8
Blade + tang
  6
ByLayer
 62
  256
370
   -1
100
AcDbCircle
 10
85.74307365769414
 20
-189.0404462929423
 40
2.5
  0
CIRCLE
  5
CC
100
AcDbEntity
  8
Blade + tang
  6
ByLayer
 62
  256
370
   -1
100
AcDbCircle
 10
99.52027443068698
 20
-189.8010930272928
 40
2.5
  0
CIRCLE
  5
CD
100
AcDbEntity
  8
Blade + tang
  6
ByLayer
 62
  256
370
   -1
100
AcDbCircle
 10
116.6753800006234
 20
-189.478805209389
 40
2.5
  0
CIRCLE
  5
CE
100
AcDbEntity
  8
Blade + tang
  6
ByLayer
 62
  256
370
   -1
100
AcDbCircle
 10
129.9589780249005
 20
-191.0982875011989
 40
2.5
  0
CIRCLE
  5
CF
100
AcDbEntity
  8
Blade + tang
  6
ByLayer
 62
  256
370
   -1
100
AcDbCircle
 10
149.6682534877563
 20
-191.0678402166744
 40
2.5
  0
CIRCLE
  5
D0
100
AcDbEntity
  8
Blade + tang
  6
ByLayer
 62
  256
370
   -1
100
AcDbCircle
 10
150.1306777517393
 20
-179.5051042758101
 40
2.5
  0
CIRCLE
  5
D1
100
AcDbEntity
  8
Blade + tang
  6
ByLayer
 62
  256
370
   -1
100
AcDbCircle
 10
39.59005254968463
 20
-165.27019991052
 40
2.5
  0
CIRCLE
  5
D2
100
AcDbEntity
  8
Blade + tang
  6
ByLayer
 62
  256
370
   -1
100
AcDbCircle
 10
48.34187871768529
 20
-169.8633313683925
 40
2.5
  0
CIRCLE
  5
D3
100
AcDbEntity
  8
Blade + tang
  6
ByLayer
 62
  256
370
   -1
100
AcDbCircle
 10
61.45881518006107
 20
-171.655857159092
 40
2.5
  0
CIRCLE
  5
D4
100
AcDbEntity
  8
Blade + tang
  6
ByLayer
 62
  256
370
   -1
100
AcDbCircle
 10
73.15630299788566
 20
-170.2467126202313
 40
2.5
  0
CIRCLE
  5
D5
100
AcDbEntity
  8
Blade + tang
  6
ByLayer
 62
  256
370
   -1
100
AcDbCircle
 10
84.8601727526985
 20
-169.1772731421615
 40
2.5
  0
CIRCLE
  5
D6
100
AcDbEntity
  8
Blade + tang
  6
ByLayer
 62
  256
370
   -1
100
AcDbCircle
 10
95.57364604158576
 20
-169.6556522486151
 40
2.5
  0
CIRCLE
  5
D7
100
AcDbEntity
  8
Blade + tang
  6
ByLayer
 62
  256
370
   -1
100
AcDbCircle
 10
108.1842158812694
 20
-171.6276034751922
 40
2.5
  0
CIRCLE
  5
D8
100
AcDbEntity
  8
Blade + tang
  6
ByLayer
 62
  256
370
   -1
100
AcDbCircle
 10
120.1504762528065
 20
-175.4806964100952
 40
2.5
  0
CIRCLE
  5
D9
100
AcDbEntity
  8
Blade + tang
  6
ByLayer
 62
  256
370
   -1
100
AcDbCircle
 10
132.914943780415
 20
-176.6001940162011
 40
2.5
  0
CIRCLE
  5
DA
100
AcDbEntity
  8
Blade + tang
  6
ByLayer
 62
  256
370
   -1
100
AcDbCircle
 10
142.9043333888033
 20
-174.7134015710953
 40
2.5
  0
CIRCLE
  5
DB
100
AcDbEntity
  8
Blade + tang
  6
ByLayer
 62
  256
370
   -1
100
AcDbCircle
 10
124.7229994992979
 20
-183.7205052186237
 40
2.5
  0
CIRCLE
  5
DC
100
AcDbEntity
  8
Blade + tang
  6
ByLayer
 62
  256
370
   -1
100
AcDbCircle
 10
111.5996810999339
 20
-181.5882743671335
 40
2.5
  0
CIRCLE
  5
DD
100
AcDbEntity
  8
Blade + tang
  6
ByLayer
 62
  256
370
   -1
100
AcDbCircle
 10
99.32562535254704
 20
-179.4400886731728
 40
2.5
  0
CIRCLE
  5
DE
100
AcDbEntity
  8
Blade + tang
  6
ByLayer
 62
  256
370
   -1
100
AcDbCircle
 10
75.87002131550992
 20
-179.0311796733812
 40
2.5
  0
CIRCLE
  5
DF
100
AcDbEntity
  8
Blade + tang
  6
ByLayer
 62
  256
370
   -1
100
AcDbCircle
 10
66.52813214376232
 20
-179.2066829405566
 40
2.5
  0
CIRCLE
  5
E0
100
AcDbEntity
  8
Blade + tang
  6
ByLayer
 62
  256
370
   -1
100
AcDbCircle
 10
53.9367081150433
 20
-178.2538468963519
 40
2.5
  0
CIRCLE
  5
E1
100
AcDbEntity
  8
Blade + tang
  6
ByLayer
 62
  256
370
   -1
100
AcDbCircle
 10
42.84523814343606
 20
-175.7436193621417
 40
2.5
  0
CIRCLE
  5
E2
100
AcDbEntity
  8
Blade + tang
  6
ByLayer
 62
  256
370
   -1
100
AcDbCircle
 10
26.26670050306188
 20
-179.6232374128669
 40
2.5
  0
CIRCLE
  5
E3
100
AcDbEntity
  8
Blade + tang
  6
ByLayer
 62
  256
370
   -1
100
AcDbCircle
 10
37.52483203657044
 20
-181.9604214481876
 40
2.5
  0
CIRCLE
  5
E4
100
AcDbEntity
  8
Blade + tang
  6
ByLayer
 62
  256
370
   -1
100
AcDbCircle
 10
28.57197485344165
 20
-166.6665805754042
 40
2.5
  0
CIRCLE
  5
E5
100
AcDbEntity
  8
Blade + tang
  6
ByLayer
 62
  256
370
   -1
100
AcDbCircle
 10
139.4994384434904
 20
-192.4482660390881
 40
2.5
  0
CIRCLE
  5
E6
100
AcDbEntity
  8
Blade + tang
  6
ByLayer
 62
  256
370
   -1
100
AcDbCircle
 10
151.3299495701977
 20
-170.9869500080868
 40
2.5
  0
CIRCLE
  5
E7
100
AcDbEntity
  8
Blade + tang
  6
ByLayer
 62
  256
370
   -1
100
AcDbCircle
 10
107.4714336743303
 20
-187.9525922041161
 40
2.5
  0
ARC
  5
E8
100
AcDbEntity
  8
Blade + tang
  6
ByLayer
 62
  256
370
   -1
100
AcDbCircle
 10
-3.696594985348611
 20
-154.1878254471827
 40
20
100
AcDbArc
 50
299.1437232688644
 51
318.0853554816107
  0
ARC
  5
E9
100
AcDbEntity
  8
Blade + tang
  6
ByLayer
 62
  256
370
   -1
100
AcDbCircle
 10
97.84942101490498
 20
82.94195455837212
 40
277.9009466699947
100
AcDbArc
 50
252.9666217714191
 51
268.0416549900287
  0
ARC
  5
EA
100
AcDbEntity
  8
Blade + tang
  6
ByLayer
 62
  256
370
   -1
100
AcDbCircle
 10
10.58566611427028
 20
-201.8913495117822
 40
20
100
AcDbArc
 50
72.96662177141933
 51
94.19129326187826
  0
ARC
  5
EB
100
AcDbEntity
  8
Blade + tang
  6
ByLayer
 62
  256
370
   -1
100
AcDbCircle
 10
8.721956714438534
 20
-176.4595468373158
 40
5.5
100
AcDbArc
 50
135
 51
274.1912932618783
  0
LINE
  5
EC
100
AcDbEntity
  8
Blade + tang
  6
ByLayer
 62
  256
370
   -1
100
AcDbLine
 10
4.832869417912548
 20
-172.5704595407898
 11
6.043445563504065
 21
-171.6558422237576
  0
ARC
  5
ED
100
AcDbEntity
  8
Blade + tang
  6
ByLayer
 62
  256
370
   -1
100
AcDbCircle
 10
260.8642090470085
 20
-187.25
 40
10
100
AcDbArc
 50
270
 51
331.2483979896855
  0
LINE
  5
EE
100
AcDbEntity
  8
Blade + tang
  6
ByLayer
 62
  256
370
   -1
100
AcDbLine
 10
140.5999587693723
 20
-197.25
 11
260.8642090470085
 21
-197.25
  0
ARC
  5
EF
100
AcDbEntity
  8
Blade + tang
  6
ByLayer
 62
  256
370
   -1
100
AcDbCircle
 10
165.9557246786739
 20
900.309185023365
 40
1097.852029871968
100
AcDbArc
 50
265.9465987529402
 51
268.6765907242334
  0
LINE
  5
F0
100
AcDbEntity
  8
Blade + tang
  6
ByLayer
 62
  256
370
   -1
100
AcDbLine
 10
293.1532582031567
 20
-149.1881839747764
 11
269.631342114491
 21
-192.0601328232238
  0
ARC
  5
F1
100
AcDbEntity
  8
Blade + tang
  6
ByLayer
 62
  256
370
   -1
100
AcDbCircle
 10
292.7149015497826
 20
-148.9476773336152
 40
0.5
100
AcDbArc
 50
331.2483979896836
 51
92.37861382624408
  0
ARC
  5
F2
100
AcDbEntity
  8
Blade + tang
  6
ByLayer
 62
  256
370
   -1
100
AcDbCircle
 10
60.89042434832055
 20
-128.6846434498368
 40
35.64529675471032
100
AcDbArc
 50
227.2100975404926
 51
282.3833135134705
  0
ARC
  5
F3
100
AcDbEntity
  8
Blade + tang
  6
ByLayer
 62
  256
370
   -1
100
AcDbCircle
 10
64.61605743820525
 20
-215.5127871206273
 40
71.80070481968394
100
AcDbArc
 50
120.9142131047966
 51
138.0853554816106
  0
ARC
  5
F4
100
AcDbEntity
  8
Blade + tang
  6
ByLayer
 62
  256
370
   -1
100
AcDbCircle
 10
31.58130718425985
 20
-160.3468019851512
 40
7.5
100
AcDbArc
 50
47.2100975404929
 51
120.9142131047965
  0
LINE
  5
F5
100
AcDbEntity
  8
Steel bar
  6
ByLayer
 62
  256
370
   -1
100
AcDbLine
 10
297.0524833902385
 20
-100
 11
594.104966780477
 21
-100
  0
LINE
  5
F6
100
AcDbEntity
  8
Steel bar
  6
ByLayer
 62
  256
370
   -1
100
AcDbLine
 10
297.0524833902385
 20
-200
 11
594.104966780477
 21
-200
  0
LINE
  5
F7
100
AcDbEntity
  8
Steel bar
  6
ByLayer
 62
  256
370
   -1
100
AcDbLine
 10
594.104966780477
 20
-100
 11
594.104966780477
 21
-200
  0
CIRCLE
  5
F8
100
AcDbEntity
  8
Blade + tang
  6
ByLayer
 62
  256
370
   -1
100
AcDbCircle
 10
333.9271356646831
 20
-113.2549700086568
 40
5
  0
ARC
  5
F9
100
AcDbEntity
  8
Blade + tang
  6
ByLayer
 62
  256
370
   -1
100
AcDbCircle
 10
427.8593162312437
 20
-146.2994097163723
 40
3
100
AcDbArc
 50
19.36624032113848
 51
182.378613826244
  0
CIRCLE
  5
FA
100
AcDbEntity
  8
Blade + tang
  6
ByLayer
 62
  256
370
   -1
100
AcDbCircle
 10
560.5303234968071
 20
-125.957004621105
 40
4
  0
CIRCLE
  5
FB
100
AcDbEntity
  8
Blade + tang
  6
ByLayer
 62
  256
370
   -1
100
AcDbCircle
 10
507.6020823774604
 20
-120.8692355348656
 40
4
  0
CIRCLE
  5
FC
100
AcDbEntity
  8
Blade + tang
  6
ByLayer
 62
  256
370
   -1
100
AcDbCircle
 10
454.6738412581143
 20
-115.7814664486262
 40
4
  0
ARC
  5
FD
100
AcDbEntity
  8
Blade + tang
  6
ByLayer
 62
  256
370
   -1
100
AcDbCircle
 10
458.9816169604028
 20
-156.8921941213704
 40
26.40255591644898
100
AcDbArc
 50
69.07521486425348
 51
123.0196017356507
  0
ARC
  5
FE
100
AcDbEntity
  8
Blade + tang
  6
ByLayer
 62
  256
370
   -1
100
AcDbCircle
 10
504.1252894787332
 20
-38.82587812155288
 40
100
100
AcDbArc
 50
249.0752148642535
 51
282.3833135134705
  0
CIRCLE
  5
FF
100
AcDbEntity
  8
Blade + tang
  6
ByLayer
 62
  256
370
   -1
100
AcDbCircle
 10
585.3830100660384
 20
-123.5404531626842
 40
2.5
  0
CIRCLE
  5
100
100
AcDbEntity
  8
Blade + tang
  6
ByLayer
 62
  256
370
   -1
100
AcDbCircle
 10
563.1096517423739
 20
-140.0055326374282
 40
2.5
  0
CIRCLE
  5
101
100
AcDbEntity
  8
Blade + tang
  6
ByLayer
 62
  256
370
   -1
100
AcDbCircle
 10
572.6763711091248
 20
-133.7089563390299
 40
2.5
  0
CIRCLE
  5
102
100
AcDbEntity
  8
Blade + tang
  6
ByLayer
 62
  256
370
   -1
100
AcDbCircle
 10
574.3852005187696
 20
-125.1812291658243
 40
2.5
  0
CIRCLE
  5
103
100
AcDbEntity
  8
Blade + tang
  6
ByLayer
 62
  256
370
   -1
100
AcDbCircle
 10
548.5779200043577
 20
-117.1704388886625
 40
2.5
  0
CIRCLE
  5
104
100
AcDbEntity
  8
Blade + tang
  6
ByLayer
 62
  256
370
   -1
100
AcDbCircle
 10
534.4322954541271
 20
-114.8875013177415
 40
2.5
  0
CIRCLE
  5
105
100
AcDbEntity
  8
Blade + tang
  6
ByLayer
 62
  256
370
   -1
100
AcDbCircle
 10
521.4820205536527
 20
-112.9219320281526
 40
2.5
  0
CIRCLE
  5
106
100
AcDbEntity
  8
Blade + tang
  6
ByLayer
 62
  256
370
   -1
100
AcDbCircle
 10
508.3618931227828
 20
-110.9595537070577
 40
2.5
  0
CIRCLE
  5
107
100
AcDbEntity
  8
Blade + tang
  6
ByLayer
 62
  256
370
   -1
100
AcDbCircle
 10
494.58469234979
 20
-110.1989069727072
 40
2.5
  0
CIRCLE
  5
108
100
AcDbEntity
  8
Blade + tang
  6
ByLayer
 62
  256
370
   -1
100
AcDbCircle
 10
477.4295867798535
 20
-110.521194790611
 40
2.5
  0
CIRCLE
  5
109
100
AcDbEntity
  8
Blade + tang
  6
ByLayer
 62
  256
370
   -1
100
AcDbCircle
 10
464.1459887555765
 20
-108.9017124988011
 40
2.5
  0
CIRCLE
  5
10A
100
AcDbEntity
  8
Blade + tang
  6
ByLayer
 62
  256
370
   -1
100
AcDbCircle
 10
444.4367132927207
 20
-108.9321597833256
 40
2.5
  0
CIRCLE
  5
10B
100
AcDbEntity
  8
Blade + tang
  6
ByLayer
 62
  256
370
   -1
100
AcDbCircle
 10
443.9742890287376
 20
-120.4948957241899
 40
2.5
  0
CIRCLE
  5
10C
100
AcDbEntity
  8
Blade + tang
  6
ByLayer
 62
  256
370
   -1
100
AcDbCircle
 10
554.5149142307923
 20
-134.72980008948
 40
2.5
  0
CIRCLE
  5
10D
100
AcDbEntity
  8
Blade + tang
  6
ByLayer
 62
  256
370
   -1
100
AcDbCircle
 10
545.7630880627917
 20
-130.1366686316075
 40
2.5
  0
CIRCLE
  5
10E
100
AcDbEntity
  8
Blade + tang
  6
ByLayer
 62
  256
370
   -1
100
AcDbCircle
 10
532.6461516004159
 20
-128.344142840908
 40
2.5
  0
CIRCLE
  5
10F
100
AcDbEntity
  8
Blade + tang
  6
ByLayer
 62
  256
370
   -1
100
AcDbCircle
 10
520.9486637825913
 20
-129.7532873797687
 40
2.5
  0
CIRCLE
  5
110
100
AcDbEntity
  8
Blade + tang
  6
ByLayer
 62
  256
370
   -1
100
AcDbCircle
 10
509.2447940277784
 20
-130.8227268578385
 40
2.5
  0
CIRCLE
  5
111
100
AcDbEntity
  8
Blade + tang
  6
ByLayer
 62
  256
370
   -1
100
AcDbCircle
 10
498.5313207388912
 20
-130.3443477513849
 40
2.5
  0
CIRCLE
  5
112
100
AcDbEntity
  8
Blade + tang
  6
ByLayer
 62
  256
370
   -1
100
AcDbCircle
 10
485.9207508992076
 20
-128.3723965248078
 40
2.5
  0
CIRCLE
  5
113
100
AcDbEntity
  8
Blade + tang
  6
ByLayer
 62
  256
370
   -1
100
AcDbCircle
 10
473.9544905276705
 20
-124.5193035899048
 40
2.5
  0
CIRCLE
  5
114
100
AcDbEntity
  8
Blade + tang
  6
ByLayer
 62
  256
370
   -1
100
AcDbCircle
 10
461.190023000062
 20
-123.3998059837989
 40
2.5
  0
CIRCLE
  5
115
100
AcDbEntity
  8
Blade + tang
  6
ByLayer
 62
  256
370
   -1
100
AcDbCircle
 10
451.2006333916736
 20
-125.2865984289047
 40
2.5
  0
CIRCLE
  5
116
100
AcDbEntity
  8
Blade + tang
  6
ByLayer
 62
  256
370
   -1
100
AcDbCircle
 10
469.3819672811791
 20
-116.2794947813763
 40
2.5
  0
CIRCLE
  5
117
100
AcDbEntity
  8
Blade + tang
  6
ByLayer
 62
  256
370
   -1
100
AcDbCircle
 10
482.5052856805431
 20
-118.4117256328665
 40
2.5
  0
CIRCLE
  5
118
100
AcDbEntity
  8
Blade + tang
  6
ByLayer
 62
  256
370
   -1
100
AcDbCircle
 10
494.7793414279299
 20
-120.5599113268272
 40
2.5
  0
CIRCLE
  5
119
100
AcDbEntity
  8
Blade + tang
  6
ByLayer
 62
  256
370
   -1
100
AcDbCircle
 10
518.234945464967
 20
-120.9688203266188
 40
2.5
  0
CIRCLE
  5
11A
100
AcDbEntity
  8
Blade + tang
  6
ByLayer
 62
  256
370
   -1
100
AcDbCircle
 10
527.5768346367147
 20
-120.7933170594434
 40
2.5
  0
CIRCLE
  5
11B
100
AcDbEntity
  8
Blade + tang
  6
ByLayer
 62
  256
370
   -1
100
AcDbCircle
 10
540.1682586654337
 20
-121.7461531036481
 40
2.5
  0
CIRCLE
  5
11C
100
AcDbEntity
  8
Blade + tang
  6
ByLayer
 62
  256
370
   -1
100
AcDbCircle
 10
551.2597286370409
 20
-124.2563806378583
 40
2.5
  0
CIRCLE
  5
11D
100
AcDbEntity
  8
Blade + tang
  6
ByLayer
 62
  256
370
   -1
100
AcDbCircle
 10
567.8382662774151
 20
-120.3767625871331
 40
2.5
  0
CIRCLE
  5
11E
100
AcDbEntity
  8
Blade + tang
  6
ByLayer
 62
  256
370
   -1
100
AcDbCircle
 10
556.5801347439065
 20
-118.0395785518124
 40
2.5
  0
CIRCLE
  5
11F
100
AcDbEntity
  8
Blade + tang
  6
ByLayer
 62
  256
370
   -1
100
AcDbCircle
 10
565.5329919270353
 20
-133.3334194245958
 40
2.5
  0
CIRCLE
  5
120
100
AcDbEntity
  8
Blade + tang
  6
ByLayer
 62
  256
370
   -1
100
AcDbCircle
 10
454.6055283369866
 20
-107.5517339609119
 40
2.5
  0
CIRCLE
  5
121
100
AcDbEntity
  8
Blade + tang
  6
ByLayer
 62
  256
370
   -1
100
AcDbCircle
 10
442.7750172102793
 20
-129.0130499919132
 40
2.5
  0
CIRCLE
  5
122
100
AcDbEntity
  8
Blade + tang
  6
ByLayer
 62
  256
370
   -1
100
AcDbCircle
 10
486.6335331061467
 20
-112.0474077958839
 40
2.5
  0
ARC
  5
123
100
AcDbEntity
  8
Blade + tang
  6
ByLayer
 62
  256
370
   -1
100
AcDbCircle
 10
597.8015617658256
 20
-145.8121745528173
 40
20
100
AcDbArc
 50
119.1437232688645
 51
138.0853554816107
  0
ARC
  5
124
100
AcDbEntity
  8
Blade + tang
  6
ByLayer
 62
  256
370
   -1
100
AcDbCircle
 10
496.255545765572
 20
-382.9419545583721
 40
277.9009466699947
100
AcDbArc
 50
72.9666217714191
 51
88.0416549900287
  0
ARC
  5
125
100
AcDbEntity
  8
Blade + tang
  6
ByLayer
 62
  256
370
   -1
100
AcDbCircle
 10
583.5193006662066
 20
-98.10865048821779
 40
20
100
AcDbArc
 50
252.9666217714193
 51
274.1912932618783
  0
ARC
  5
126
100
AcDbEntity
  8
Blade + tang
  6
ByLayer
 62
  256
370
   -1
100
AcDbCircle
 10
585.3830100660384
 20
-123.5404531626842
 40
5.5
100
AcDbArc
 50
315
 51
94.19129326187826
  0
LINE
  5
127
100
AcDbEntity
  8
Blade + tang
  6
ByLayer
 62
  256
370
   -1
100
AcDbLine
 10
589.2720973625644
 20
-127.4295404592102
 11
588.061521216973
 21
-128.3441577762424
  0
ARC
  5
128
100
AcDbEntity
  8
Blade + tang
  6
ByLayer
 62
  256
370
   -1
100
AcDbCircle
 10
450.5037128422381
 20
-143.847139293915
 40
10.84465394709255
100
AcDbArc
 50
123.0196017356507
 51
199.6380032615782
  0
ARC
  5
129
100
AcDbEntity
  8
Blade + tang
  6
ByLayer
 62
  256
370
   -1
100
AcDbCircle
 10
437.4643367005469
 20
-148.5
 40
3
100
AcDbArc
 50
270
 51
19.6380032615784
  0
LINE
  5
12A
100
AcDbEntity
  8
Blade + tang
  6
ByLayer
 62
  256
370
   -1
100
AcDbLine
 10
431.3474684834125
 20
-149.0227114582786
 11
430.6895708593599
 21
-145.3045937836353
  0
ARC
  5
12B
100
AcDbEntity
  8
Blade + tang
  6
ByLayer
 62
  256
370
   -1
100
AcDbCircle
 10
434.3015796410003
 20
-148.5
 40
3
100
AcDbArc
 50
190.0342681792054
 51
270
  0
LINE
  5
12C
100
AcDbEntity
  8
Blade + tang
  6
ByLayer
 62
  256
370
   -1
100
AcDbLine
 10
437.4643367005469
 20
-151.5
 11
434.3015796410003
 21
-151.5
  0
ARC
  5
12D
100
AcDbEntity
  8
Blade + tang
  6
ByLayer
 62
  256
370
   -1
100
AcDbCircle
 10
333.2407577334685
 20
-112.75
 40
10
100
AcDbArc
 50
90
 51
151.2483979896854
  0
ARC
  5
12E
100
AcDbEntity
  8
Blade + tang
  6
ByLayer
 62
  256
370
   -1
100
AcDbCircle
 10
428.1492421018031
 20
-1200.309185023365
 40
1097.852029871968
100
AcDbArc
 50
85.94659875294018
 51
88.67659072423345
  0
LINE
  5
12F
100
AcDbEntity
  8
Blade + tang
  6
ByLayer
 62
  256
370
   -1
100
AcDbLine
 10
453.5050080111037
 20
-102.75
 11
333.2407577334685
 21
-102.75
  0
LINE
  5
130
100
AcDbEntity
  8
Blade + tang
  6
ByLayer
 62
  256
370
   -1
100
AcDbLine
 10
300.9517085773202
 20
-150.8118160252237
 11
324.4736246659861
 21
-107.9398671767762
  0
LINE
  5
131
100
AcDbEntity
  8
Blade + tang
  6
ByLayer
 62
  256
370
   -1
100
AcDbLine
 10
424.8619010583361
 20
-146.4239178736302
 11
301.4108165902374
 21
-151.5518918618694
  0
ARC
  5
132
100
AcDbEntity
  8
Blade + tang
  6
ByLayer
 62
  256
370
   -1
100
AcDbCircle
 10
301.3900652306944
 20
-151.0523226663849
 40
0.5
100
AcDbArc
 50
151.2483979896843
 51
272.3786138262458
  0
CIRCLE
  5
133
100
AcDbEntity
  8
Blade + tang
  6
ByLayer
 62
  256
370
   -1
100
AcDbCircle
 10
557.2303145060323
 20
-186.7450299913432
 40
5
  0
ARC
  5
134
100
AcDbEntity
  8
Blade + tang
  6
ByLayer
 62
  256
370
   -1
100
AcDbCircle
 10
463.2981339394717
 20
-153.7005902836277
 40
3
100
AcDbArc
 50
199.3662403211385
 51
2.378613826244003
  0
CIRCLE
  5
135
100
AcDbEntity
  8
Blade + tang
  6
ByLayer
 62
  256
370
   -1
100
AcDbCircle
 10
330.6271266739084
 20
-174.042995378895
 40
4
  0
CIRCLE
  5
136
100
AcDbEntity
  8
Blade + tang
  6
ByLayer
 62
  256
370
   -1
100
AcDbCircle
 10
383.5553677932551
 20
-179.1307644651344
 40
4
  0
CIRCLE
  5
137
100
AcDbEntity
  8
Blade + tang
  6
ByLayer
 62
  256
370
   -1
100
AcDbCircle
 10
436.4836089126012
 20
-184.2185335513738
 40
4
  0
ARC
  5
138
100
AcDbEntity
  8
Blade + tang
  6
ByLayer
 62
  256
370
   -1
100
AcDbCircle
 10
432.1758332103127
 20
-143.1078058786296
 40
26.40255591644898
100
AcDbArc
 50
249.0752148642535
 51
303.0196017356507
  0
ARC
  5
139
100
AcDbEntity
  8
Blade + tang
  6
ByLayer
 62
  256
370
   -1
100
AcDbCircle
 10
387.0321606919822
 20
-261.1741218784471
 40
100
100
AcDbArc
 50
69.0752148642535
 51
102.3833135134705
  0
CIRCLE
  5
13A
100
AcDbEntity
  8
Blade + tang
  6
ByLayer
 62
  256
370
   -1
100
AcDbCircle
 10
305.774440104677
 20
-176.4595468373158
 40
2.5
  0
CIRCLE
  5
13B
100
AcDbEntity
  8
Blade + tang
  6
ByLayer
 62
  256
370
   -1
100
AcDbCircle
 10
328.0477984283415
 20
-159.9944673625718
 40
2.5
  0
CIRCLE
  5
13C
100
AcDbEntity
  8
Blade + tang
  6
ByLayer
 62
  256
370
   -1
100
AcDbCircle
 10
318.4810790615906
 20
-166.2910436609701
 40
2.5
  0
CIRCLE
  5
13D
100
AcDbEntity
  8
Blade + tang
  6
ByLayer
 62
  256
370
   -1
100
AcDbCircle
 10
316.7722496519459
 20
-174.8187708341757
 40
2.5
  0
CIRCLE
  5
13E
100
AcDbEntity
  8
Blade + tang
  6
ByLayer
 62
  256
370
   -1
100
AcDbCircle
 10
342.5795301663578
 20
-182.8295611113375
 40
2.5
  0
CIRCLE
  5
13F
100
AcDbEntity
  8
Blade + tang
  6
ByLayer
 62
  256
370
   -1
100
AcDbCircle
 10
356.7251547165883
 20
-185.1124986822585
 40
2.5
  0
CIRCLE
  5
140
100
AcDbEntity
  8
Blade + tang
  6
ByLayer
 62
  256
370
   -1
100
AcDbCircle
 10
369.6754296170628
 20
-187.0780679718474
 40
2.5
  0
CIRCLE
  5
141
100
AcDbEntity
  8
Blade + tang
  6
ByLayer
 62
  256
370
   -1
100
AcDbCircle
 10
382.7955570479326
 20
-189.0404462929423
 40
2.5
  0
CIRCLE
  5
142
100
AcDbEntity
  8
Blade + tang
  6
ByLayer
 62
  256
370
   -1
100
AcDbCircle
 10
396.5727578209255
 20
-189.8010930272928
 40
2.5
  0
CIRCLE
  5
143
100
AcDbEntity
  8
Blade + tang
  6
ByLayer
 62
  256
370
   -1
100
AcDbCircle
 10
413.7278633908619
 20
-189.478805209389
 40
2.5
  0
CIRCLE
  5
144
100
AcDbEntity
  8
Blade + tang
  6
ByLayer
 62
  256
370
   -1
100
AcDbCircle
 10
427.011461415139
 20
-191.0982875011989
 40
2.5
  0
CIRCLE
  5
145
100
AcDbEntity
  8
Blade + tang
  6
ByLayer
 62
  256
370
   -1
100
AcDbCircle
 10
446.7207368779948
 20
-191.0678402166744
 40
2.5
  0
CIRCLE
  5
146
100
AcDbEntity
  8
Blade + tang
  6
ByLayer
 62
  256
370
   -1
100
AcDbCircle
 10
447.1831611419778
 20
-179.5051042758101
 40
2.5
  0
CIRCLE
  5
147
100
AcDbEntity
  8
Blade + tang
  6
ByLayer
 62
  256
370
   -1
100
AcDbCircle
 10
336.6425359399231
 20
-165.27019991052
 40
2.5
  0
CIRCLE
  5
148
100
AcDbEntity
  8
Blade + tang
  6
ByLayer
 62
  256
370
   -1
100
AcDbCircle
 10
345.3943621079238
 20
-169.8633313683925
 40
2.5
  0
CIRCLE
  5
149
100
AcDbEntity
  8
Blade + tang
  6
ByLayer
 62
  256
370
   -1
100
AcDbCircle
 10
358.5112985702996
 20
-171.655857159092
 40
2.5
  0
CIRCLE
  5
14A
100
AcDbEntity
  8
Blade + tang
  6
ByLayer
 62
  256
370
   -1
100
AcDbCircle
 10
370.2087863881242
 20
-170.2467126202313
 40
2.5
  0
CIRCLE
  5
14B
100
AcDbEntity
  8
Blade + tang
  6
ByLayer
 62
  256
370
   -1
100
AcDbCircle
 10
381.912656142937
 20
-169.1772731421615
 40
2.5
  0
CIRCLE
  5
14C
100
AcDbEntity
  8
Blade + tang
  6
ByLayer
 62
  256
370
   -1
100
AcDbCircle
 10
392.6261294318242
 20
-169.6556522486151
 40
2.5
  0
CIRCLE
  5
14D
100
AcDbEntity
  8
Blade + tang
  6
ByLayer
 62
  256
370
   -1
100
AcDbCircle
 10
405.2366992715079
 20
-171.6276034751922
 40
2.5
  0
CIRCLE
  5
14E
100
AcDbEntity
  8
Blade + tang
  6
ByLayer
 62
  256
370
   -1
100
AcDbCircle
 10
417.202959643045
 20
-175.4806964100952
 40
2.5
  0
CIRCLE
  5
14F
100
AcDbEntity
  8
Blade + tang
  6
ByLayer
 62
  256
370
   -1
100
AcDbCircle
 10
429.9674271706535
 20
-176.6001940162011
 40
2.5
  0
CIRCLE
  5
150
100
AcDbEntity
  8
Blade + tang
  6
ByLayer
 62
  256
370
   -1
100
AcDbCircle
 10
439.9568167790418
 20
-174.7134015710953
 40
2.5
  0
CIRCLE
  5
151
100
AcDbEntity
  8
Blade + tang
  6
ByLayer
 62
  256
370
   -1
100
AcDbCircle
 10
421.7754828895364
 20
-183.7205052186237
 40
2.5
  0
CIRCLE
  5
152
100
AcDbEntity
  8
Blade + tang
  6
ByLayer
 62
  256
370
   -1
100
AcDbCircle
 10
408.6521644901724
 20
-181.5882743671335
 40
2.5
  0
CIRCLE
  5
153
100
AcDbEntity
  8
Blade + tang
  6
ByLayer
 62
  256
370
   -1
100
AcDbCircle
 10
396.3781087427855
 20
-179.4400886731728
 40
2.5
  0
CIRCLE
  5
154
100
AcDbEntity
  8
Blade + tang
  6
ByLayer
 62
  256
370
   -1
100
AcDbCircle
 10
372.9225047057484
 20
-179.0311796733812
 40
2.5
  0
CIRCLE
  5
155
100
AcDbEntity
  8
Blade + tang
  6
ByLayer
 62
  256
370
   -1
100
AcDbCircle
 10
363.5806155340008
 20
-179.2066829405566
 40
2.5
  0
CIRCLE
  5
156
100
AcDbEntity
  8
Blade + tang
  6
ByLayer
 62
  256
370
   -1
100
AcDbCircle
 10
350.9891915052818
 20
-178.2538468963519
 40
2.5
  0
CIRCLE
  5
157
100
AcDbEntity
  8
Blade + tang
  6
ByLayer
 62
  256
370
   -1
100
AcDbCircle
 10
339.8977215336745
 20
-175.7436193621417
 40
2.5
  0
CIRCLE
  5
158
100
AcDbEntity
  8
Blade + tang
  6
ByLayer
 62
  256
370
   -1
100
AcDbCircle
 10
323.3191838933004
 20
-179.6232374128669
 40
2.5
  0
CIRCLE
  5
159
100
AcDbEntity
  8
Blade + tang
  6
ByLayer
 62
  256
370
   -1
100
AcDbCircle
 10
334.5773154268089
 20
-181.9604214481876
 40
2.5
  0
CIRCLE
  5
15A
100
AcDbEntity
  8
Blade + tang
  6
ByLayer
 62
  256
370
   -1
100
AcDbCircle
 10
325.6244582436801
 20
-166.6665805754042
 40
2.5
  0
CIRCLE
  5
15B
100
AcDbEntity
  8
Blade + tang
  6
ByLayer
 62
  256
370
   -1
100
AcDbCircle
 10
436.5519218337289
 20
-192.4482660390881
 40
2.5
  0
CIRCLE
  5
15C
100
AcDbEntity
  8
Blade + tang
  6
ByLayer
 62
  256
370
   -1
100
AcDbCircle
 10
448.3824329604362
 20
-170.9869500080868
 40
2.5
  0
CIRCLE
  5
15D
100
AcDbEntity
  8
Blade + tang
  6
ByLayer
 62
  256
370
   -1
100
AcDbCircle
 10
404.5239170645688
 20
-187.9525922041161
 40
2.5
  0
ARC
  5
15E
100
AcDbEntity
  8
Blade + tang
  6
ByLayer
 62
  256
370
   -1
100
AcDbCircle
 10
293.3558884048899
 20
-154.1878254471827
 40
20
100
AcDbArc
 50
299.1437232688644
 51
318.0853554816107
  0
ARC
  5
15F
100
AcDbEntity
  8
Blade + tang
  6
ByLayer
 62
  256
370
   -1
100
AcDbCircle
 10
394.9019044051435
 20
82.94195455837212
 40
277.9009466699947
100
AcDbArc
 50
252.9666217714191
 51
268.0416549900287
  0
ARC
  5
160
100
AcDbEntity
  8
Blade + tang
  6
ByLayer
 62
  256
370
   -1
100
AcDbCircle
 10
307.6381495045088
 20
-201.8913495117822
 40
20
100
AcDbArc
 50
72.96662177141933
 51
94.19129326187826
  0
ARC
  5
161
100
AcDbEntity
  8
Blade + tang
  6
ByLayer
 62
  256
370
   -1
100
AcDbCircle
 10
305.774440104677
 20
-176.4595468373158
 40
5.5
100
AcDbArc
 50
135
 51
274.1912932618783
  0
LINE
  5
162
100
AcDbEntity
  8
Blade + tang
  6
ByLayer
 62
  256
370
   -1
100
AcDbLine
 10
301.885352808151
 20
-172.5704595407898
 11
303.0959289537425
 21
-171.6558422237576
  0
LINE
  5
163
100
AcDbEntity
  8
Blade + tang
  6
DASHED2
 62
  256
370
   -1
100
AcDbLine
 10
467.5381402957904
 20
-179.9663264786523
 11
463.7762265889939
 21
-156.6622498552979
  0
LINE
  5
164
100
AcDbEntity
  8
Blade + tang
  6
DASHED2
 62
  256
370
   -1
100
AcDbLine
 10
467.5381402957904
 20
-179.9663264786523
 11
575.786161565878
 21
-175.4698650685072
  0
LINE
  5
165
100
AcDbEntity
  8
Blade + tang
  6
ByLayer
 62
  256
370
   -1
100
AcDbLine
 10
459.8099816873029
 20
-150.9772885417214
 11
460.4678793113555
 21
-154.6954062163647
  0
ARC
  5
166
100
AcDbEntity
  8
Blade + tang
  6
ByLayer
 62
  256
370
   -1
100
AcDbCircle
 10
456.8558705297152
 20
-151.5
 40
3
100
AcDbArc
 50
10.03426817920539
 51
90
  0
ARC
  5
167
100
AcDbEntity
  8
Blade + tang
  6
ByLayer
 62
  256
370
   -1
100
AcDbCircle
 10
440.6537373284773
 20
-156.152860706085
 40
10.84465394709255
100
AcDbArc
 50
303.0196017356507
 51
19.63800326157825
  0
ARC
  5
168
100
AcDbEntity
  8
Blade + tang
  6
ByLayer
 62
  256
370
   -1
100
AcDbCircle
 10
453.6931134701686
 20
-151.5
 40
3
100
AcDbArc
 50
90
 51
199.638003261578
  0
ARC
  5
169
100
AcDbEntity
  8
Blade + tang
  6
ByLayer
 62
  256
370
   -1
100
AcDbCircle
 10
557.916692437247
 20
-187.25
 40
10
100
AcDbArc
 50
270
 51
331.2483979896855
  0
LINE
  5
16A
100
AcDbEntity
  8
Blade + tang
  6
ByLayer
 62
  256
370
   -1
100
AcDbLine
 10
437.6524421596107
 20
-197.25
 11
557.916692437247
 21
-197.25
  0
ARC
  5
16B
100
AcDbEntity
  8
Blade + tang
  6
ByLayer
 62
  256
370
   -1
100
AcDbCircle
 10
463.0082080689124
 20
900.309185023365
 40
1097.852029871968
100
AcDbArc
 50
265.9465987529402
 51
268.6765907242334
  0
LINE
  5
16C
100
AcDbEntity
  8
Blade + tang
  6
ByLayer
 62
  256
370
   -1
100
AcDbLine
 10
456.8558705297152
 20
-148.5
 11
453.6931134701686
 21
-148.5
  0
LINE
  5
16D
100
AcDbEntity
  8
Blade + tang
  6
ByLayer
 62
  256
370
   -1
100
AcDbLine
 10
590.2057415933951
 20
-149.1881839747764
 11
566.6838255047295
 21
-192.0601328232238
  0
LINE
  5
16E
100
AcDbEntity
  8
Blade + tang
  6
ByLayer
 62
  256
370
   -1
100
AcDbLine
 10
466.2955491123793
 20
-153.5760821263698
 11
589.746633580478
 21
-148.4481081381306
  0
ARC
  5
16F
100
AcDbEntity
  8
Blade + tang
  6
ByLayer
 62
  256
370
   -1
100
AcDbCircle
 10
589.767384940021
 20
-148.9476773336152
 40
0.5
100
AcDbArc
 50
331.2483979896836
 51
92.37861382624408
  0
ARC
  5
170
100
AcDbEntity
  8
Blade + tang
  6
ByLayer
 62
  256
370
   -1
100
AcDbCircle
 10
357.942907738559
 20
-128.6846434498368
 40
35.64529675471032
100
AcDbArc
 50
227.2100975404926
 51
282.3833135134705
  0
ARC
  5
171
100
AcDbEntity
  8
Blade + tang
  6
ByLayer
 62
  256
370
   -1
100
AcDbCircle
 10
361.6685408284437
 20
-215.5127871206273
 40
71.80070481968394
100
AcDbArc
 50
120.9142131047966
 51
138.0853554816106
  0
ARC
  5
172
100
AcDbEntity
  8
Blade + tang
  6
ByLayer
 62
  256
370
   -1
100
AcDbCircle
 10
328.6337905744983
 20
-160.3468019851512
 40
7.5
100
AcDbArc
 50
47.2100975404929
 51
120.9142131047965
  0
ARC
  5
173
100
AcDbEntity
  8
Blade + tang
  6
ByLayer
 62
  256
370
   -1
100
AcDbCircle
 10
533.2145424321563
 20
-171.3153565501632
 40
35.64529675471032
100
AcDbArc
 50
47.21009754049264
 51
102.3833135134705
  0
ARC
  5
174
100
AcDbEntity
  8
Blade + tang
  6
ByLayer
 62
  256
370
   -1
100
AcDbCircle
 10
529.4889093422717
 20
-84.48721287937266
 40
71.80070481968394
100
AcDbArc
 50
300.9142131047966
 51
318.0853554816106
  0
ARC
  5
175
100
AcDbEntity
  8
Blade + tang
  6
ByLayer
 62
  256
370
   -1
100
AcDbCircle
 10
562.5236595962172
 20
-139.6531980148488
 40
7.5
100
AcDbArc
 50
227.2100975404927
 51
300.9142131047963
  0
LINE
  5
176
100
AcDbEntity
  8
Blade + tang
  6
DASHED2
 62
  256
370
   -1
100
AcDbLine
 10
423.6193098749251
 20
-120.0336735213477
 11
427.3812235817214
 21
-143.3377501447021
  0
LINE
  5
177
100
AcDbEntity
  8
Blade + tang
  6
DASHED2
 62
  256
370
   -1
100
AcDbLine
 10
423.6193098749251
 20
-120.0336735213477
 11
315.3712886048374
 21
-124.5301349314928
  0
DIMENSION
  5
178
100
AcDbEntity
  8
Steel bar
  6
ByLayer
 62
  256
370
   -1
100
AcDbDimension
  2
*D2
 10
594.104966780477
 20
-90
 30
0
 11
297.0524833902384
 21
-88.125
 31
0
 70
   32
 71
    5
  3
Standard
 53
0
210
0
220
0
230
1
100
AcDbAlignedDimension
 13
0
 23
-100
 33
0
 14
594.104966780477
 24
-100
 34
0
100
AcDbRotatedDimension
  0
CIRCLE
  5
179
100
AcDbEntity
  8
Blade + tang
  6
ByLayer
 62
  256
370
   -1
100
AcDbCircle
 10
37.50023509267571
 20
-112.6746773787843
 40
5
  0
ARC
  5
17A
100
AcDbEntity
  8
Blade + tang
  6
ByLayer
 62
  256
370
   -1
100
AcDbCircle
 10
36.82277464197428
 20
-112.1578053328806
 40
10
100
AcDbArc
 50
89
 51
150.2483979896854
  0
ARC
  5
17B
100
AcDbEntity
  8
Blade + tang
  6
ByLayer
 62
  256
370
   -1
100
AcDbCircle
 10
153.5251501207108
 20
-145.2967291344539
 40
10.84465394709255
100
AcDbArc
 50
122.0196017356507
 51
229.3051193356344
  0
ARC
  5
17C
100
AcDbEntity
  8
Blade + tang
  6
ByLayer
 62
  256
370
   -1
100
AcDbCircle
 10
144.4980112357281
 20
-155.7936432746189
 40
3
100
AcDbArc
 50
269
 51
49.30511933563477
  0
LINE
  5
17D
100
AcDbEntity
  8
Blade + tang
  6
ByLayer
 62
  256
370
   -1
100
AcDbLine
 10
135.2382834295679
 20
-156.1548052064373
 11
133.6885898395101
 21
-146.4081571877049
  0
LINE
  5
17E
100
AcDbEntity
  8
Blade + tang
  6
ByLayer
 62
  256
370
   -1
100
AcDbLine
 10
138.1487100152252
 20
-158.6832727936979
 11
144.4456540164162
 21
-158.793186360088
  0
ARC
  5
17F
100
AcDbEntity
  8
Blade + tang
  6
ByLayer
 62
  256
370
   -1
100
AcDbCircle
 10
138.2010672345371
 20
-155.6837297082287
 40
3
100
AcDbArc
 50
189.0342681792054
 51
269
  0
CIRCLE
  5
180
100
AcDbEntity
  8
Blade + tang
  6
ByLayer
 62
  256
370
   -1
100
AcDbCircle
 10
263.0920676853515
 20
-121.2492710686493
 40
4
  0
CIRCLE
  5
181
100
AcDbEntity
  8
Blade + tang
  6
ByLayer
 62
  256
370
   -1
100
AcDbCircle
 10
209.9700896206888
 20
-118.9385247043574
 40
4
  0
CIRCLE
  5
182
100
AcDbEntity
  8
Blade + tang
  6
ByLayer
 62
  256
370
   -1
100
AcDbCircle
 10
156.8481115560267
 20
-116.6277783400655
 40
4
  0
ARC
  5
183
100
AcDbEntity
  8
Blade + tang
  6
ByLayer
 62
  256
370
   -1
100
AcDbCircle
 10
163.3015528460264
 20
-157.4567136286606
 40
26.40255591644898
100
AcDbArc
 50
72.07521486425348
 51
126.0196017356507
  0
ARC
  5
184
100
AcDbEntity
  8
Blade + tang
  6
ByLayer
 62
  256
370
   -1
100
AcDbCircle
 10
202.2042439821875
 20
-37.18956614201126
 40
100
100
AcDbArc
 50
252.0752148642535
 51
285.3833135134705
  0
CIRCLE
  5
185
100
AcDbEntity
  8
Blade + tang
  6
ByLayer
 62
  256
370
   -1
100
AcDbCircle
 10
266.4031041987413
 20
-135.1435544553805
 40
2.5
  0
CIRCLE
  5
186
100
AcDbEntity
  8
Blade + tang
  6
ByLayer
 62
  256
370
   -1
100
AcDbCircle
 10
275.627175367454
 20
-128.3549239897975
 40
2.5
  0
CIRCLE
  5
187
100
AcDbEntity
  8
Blade + tang
  6
ByLayer
 62
  256
370
   -1
100
AcDbCircle
 10
276.8873561295937
 20
-119.7494505490955
 40
2.5
  0
CIRCLE
  5
188
100
AcDbEntity
  8
Blade + tang
  6
ByLayer
 62
  256
370
   -1
100
AcDbCircle
 10
250.6961912267889
 20
-113.1002874853486
 40
2.5
  0
CIRCLE
  5
189
100
AcDbEntity
  8
Blade + tang
  6
ByLayer
 62
  256
370
   -1
100
AcDbCircle
 10
236.4504730425622
 20
-111.5608033885159
 40
2.5
  0
CIRCLE
  5
18A
100
AcDbEntity
  8
Blade + tang
  6
ByLayer
 62
  256
370
   -1
100
AcDbCircle
 10
223.4150760954252
 20
-110.2756928638512
 40
2.5
  0
CIRCLE
  5
18B
100
AcDbEntity
  8
Blade + tang
  6
ByLayer
 62
  256
370
   -1
100
AcDbCircle
 10
210.21022639727
 20
-109.0026583291676
 40
2.5
  0
CIRCLE
  5
18C
100
AcDbEntity
  8
Blade + tang
  6
ByLayer
 62
  256
370
   -1
100
AcDbCircle
 10
196.4120976249105
 20
-108.9640970115362
 40
2.5
  0
CIRCLE
  5
18D
100
AcDbEntity
  8
Blade + tang
  6
ByLayer
 62
  256
370
   -1
100
AcDbCircle
 10
179.2973697720747
 20
-110.1837719996378
 40
2.5
  0
CIRCLE
  5
18E
100
AcDbEntity
  8
Blade + tang
  6
ByLayer
 62
  256
370
   -1
100
AcDbCircle
 10
165.9472193028637
 20
-109.2617189569719
 40
2.5
  0
CIRCLE
  5
18F
100
AcDbEntity
  8
Blade + tang
  6
ByLayer
 62
  256
370
   -1
100
AcDbCircle
 10
146.266548204793
 20
-110.3236282927553
 40
2.5
  0
CIRCLE
  5
190
100
AcDbEntity
  8
Blade + tang
  6
ByLayer
 62
  256
370
   -1
100
AcDbCircle
 10
146.4099045194421
 20
-121.894719321916
 40
2.5
  0
CIRCLE
  5
191
100
AcDbEntity
  8
Blade + tang
  6
ByLayer
 62
  256
370
   -1
100
AcDbCircle
 10
257.544034968434
 20
-130.3248659218591
 40
2.5
  0
CIRCLE
  5
192
100
AcDbEntity
  8
Blade + tang
  6
ByLayer
 62
  256
370
   -1
100
AcDbCircle
 10
248.5638169470333
 20
-126.1960643823917
 40
2.5
  0
CIRCLE
  5
193
100
AcDbEntity
  8
Blade + tang
  6
ByLayer
 62
  256
370
   -1
100
AcDbCircle
 10
235.3710432388593
 20
-125.0924825987263
 40
2.5
  0
CIRCLE
  5
194
100
AcDbEntity
  8
Blade + tang
  6
ByLayer
 62
  256
370
   -1
100
AcDbCircle
 10
223.7633353484736
 20
-127.1118951645566
 40
2.5
  0
CIRCLE
  5
195
100
AcDbEntity
  8
Blade + tang
  6
ByLayer
 62
  256
370
   -1
100
AcDbCircle
 10
212.1314754781255
 20
-128.7924022283507
 40
2.5
  0
CIRCLE
  5
196
100
AcDbEntity
  8
Blade + tang
  6
ByLayer
 62
  256
370
   -1
100
AcDbCircle
 10
201.4076482040556
 20
-128.8753785930938
 40
2.5
  0
CIRCLE
  5
197
100
AcDbEntity
  8
Blade + tang
  6
ByLayer
 62
  256
370
   -1
100
AcDbCircle
 10
188.7111567589549
 20
-127.5661160884667
 40
2.5
  0
CIRCLE
  5
198
100
AcDbEntity
  8
Blade + tang
  6
ByLayer
 62
  256
370
   -1
100
AcDbCircle
 10
176.5596404281336
 20
-124.3445693627148
 40
2.5
  0
CIRCLE
  5
199
100
AcDbEntity
  8
Blade + tang
  6
ByLayer
 62
  256
370
   -1
100
AcDbCircle
 10
163.7540761819208
 20
-123.8946466031597
 40
2.5
  0
CIRCLE
  5
19A
100
AcDbEntity
  8
Blade + tang
  6
ByLayer
 62
  256
370
   -1
100
AcDbCircle
 10
153.8771237716604
 20
-126.3016575222325
 40
2.5
  0
CIRCLE
  5
19B
100
AcDbEntity
  8
Blade + tang
  6
ByLayer
 62
  256
370
   -1
100
AcDbCircle
 10
171.562145392582
 20
-116.3553603023355
 40
2.5
  0
CIRCLE
  5
19C
100
AcDbEntity
  8
Blade + tang
  6
ByLayer
 62
  256
370
   -1
100
AcDbCircle
 10
184.7790710807185
 20
-117.7978475880372
 40
2.5
  0
CIRCLE
  5
19D
100
AcDbEntity
  8
Blade + tang
  6
ByLayer
 62
  256
370
   -1
100
AcDbCircle
 10
197.148733013764
 20
-119.3007148236449
 40
2.5
  0
CIRCLE
  5
19E
100
AcDbEntity
  8
Blade + tang
  6
ByLayer
 62
  256
370
   -1
100
AcDbCircle
 10
220.5935926041782
 20
-118.4814919613295
 40
2.5
  0
CIRCLE
  5
19F
100
AcDbEntity
  8
Blade + tang
  6
ByLayer
 62
  256
370
   -1
100
AcDbCircle
 10
229.913493910178
 20
-117.8173125123633
 40
2.5
  0
CIRCLE
  5
1A0
100
AcDbEntity
  8
Blade + tang
  6
ByLayer
 62
  256
370
   -1
100
AcDbCircle
 10
242.5375294153914
 20
-118.1098585108814
 40
2.5
  0
CIRCLE
  5
1A1
100
AcDbEntity
  8
Blade + tang
  6
ByLayer
 62
  256
370
   -1
100
AcDbCircle
 10
253.7451740712722
 20
-120.0361631783939
 40
2.5
  0
CIRCLE
  5
1A2
100
AcDbEntity
  8
Blade + tang
  6
ByLayer
 62
  256
370
   -1
100
AcDbCircle
 10
270.0979478814481
 20
-115.2942083888541
 40
2.5
  0
CIRCLE
  5
1A3
100
AcDbEntity
  8
Blade + tang
  6
ByLayer
 62
  256
370
   -1
100
AcDbCircle
 10
258.7329264645304
 20
-113.549432462341
 40
2.5
  0
CIRCLE
  5
1A4
100
AcDbEntity
  8
Blade + tang
  6
ByLayer
 62
  256
370
   -1
100
AcDbCircle
 10
268.473931854747
 20
-128.3537573159536
 40
2.5
  0
CIRCLE
  5
1A5
100
AcDbEntity
  8
Blade + tang
  6
ByLayer
 62
  256
370
   -1
100
AcDbCircle
 10
156.349181336015
 20
-108.4128996367557
 40
2.5
  0
CIRCLE
  5
1A6
100
AcDbEntity
  8
Blade + tang
  6
ByLayer
 62
  256
370
   -1
100
AcDbCircle
 10
145.658082010357
 20
-130.4639647926745
 40
2.5
  0
CIRCLE
  5
1A7
100
AcDbEntity
  8
Blade + tang
  6
ByLayer
 62
  256
370
   -1
100
AcDbCircle
 10
188.5685782268683
 20
-111.2261960508345
 40
2.5
  0
ARC
  5
1A8
100
AcDbEntity
  8
Blade + tang
  6
ByLayer
 62
  256
370
   -1
100
AcDbCircle
 10
212.3549293981665
 20
-381.2459140182967
 40
277.9009466699947
100
AcDbArc
 50
75.9666217714191
 51
91.0416549900287
  0
ARC
  5
1A9
100
AcDbEntity
  8
Blade + tang
  6
ByLayer
 62
  256
370
   -1
100
AcDbCircle
 10
284.5920690171757
 20
-92.23593203403573
 40
20
100
AcDbArc
 50
255.9666217714193
 51
277.1912932618783
  0
LINE
  5
1AA
100
AcDbEntity
  8
Blade + tang
  6
ByLayer
 62
  256
370
   -1
100
AcDbLine
 10
283.4281119860154
 20
-125.7289547049653
 11
285.3497348377458
 21
-116.9667718453213
  0
LINE
  5
1AB
100
AcDbEntity
  8
Blade + tang
  6
ByLayer
 62
  256
370
   -1
100
AcDbLine
 10
290.2335489599795
 20
-118.0361390035941
 11
288.3559095968033
 21
-126.5707540462121
  0
LINE
  5
1AC
100
AcDbEntity
  8
Blade + tang
  6
ByLayer
 62
  256
370
   -1
100
AcDbLine
 10
293.1634806272663
 20
-118.6807322280621
 11
291.2858412640901
 21
-127.2153472706801
  0
ARC
  5
1AD
100
AcDbEntity
  8
Blade + tang
  6
ByLayer
 62
  256
370
   -1
100
AcDbCircle
 10
238.1875946711128
 20
-167.9750584753402
 40
35.64529675471032
100
AcDbArc
 50
51.86503626100359
 51
105.3833135134705
  0
ARC
  5
1AE
100
AcDbEntity
  8
Blade + tang
  6
ByLayer
 62
  256
370
   -1
100
AcDbCircle
 10
269.4618743969046
 20
-128.1395779208697
 40
15
100
AcDbArc
 50
231.8650362610035
 51
341.9624889745782
  0
LINE
  5
1AF
100
AcDbEntity
  8
Blade + tang
  6
ByLayer
 62
  256
370
   -1
100
AcDbLine
 10
283.661423970999
 20
-132.97843437869
 11
283.7246844250241
 21
-132.7841715631355
  0
ARC
  5
1B0
100
AcDbEntity
  8
Blade + tang
  6
ByLayer
 62
  256
370
   -1
100
AcDbCircle
 10
285.5631319747482
 20
-133.5977135309921
 40
2
100
AcDbArc
 50
87.4284989280001
 51
161.9624889745784
  0
ARC
  5
1B1
100
AcDbEntity
  8
Blade + tang
  6
ByLayer
 62
  256
370
   -1
100
AcDbCircle
 10
285.8996276831232
 20
-126.10526595772
 40
5.5
100
AcDbArc
 50
267.4285158870385
 51
348.7228682760596
  0
ARC
  5
1B2
100
AcDbEntity
  8
Blade + tang
  6
ByLayer
 62
  256
370
   -1
100
AcDbCircle
 10
287.7842219799975
 20
-117.5353422932091
 40
5.5
100
AcDbArc
 50
347.0180274729506
 51
97.19129326187827
  0
ARC
  5
1B3
100
AcDbEntity
  8
Blade + tang
  6
ByLayer
 62
  256
370
   -1
100
AcDbCircle
 10
285.8996276831232
 20
-126.10526595772
 40
2.5
100
AcDbArc
 50
163.9180583184205
 51
349.2691748005228
  0
ARC
  5
1B4
100
AcDbEntity
  8
Blade + tang
  6
ByLayer
 62
  256
370
   -1
100
AcDbCircle
 10
287.7842219799975
 20
-117.5353422932091
 40
2.5
100
AcDbArc
 50
348.4444045750175
 51
166.8542949673808
  0
ARC
  5
1B5
100
AcDbEntity
  8
Blade + tang
  6
ByLayer
 62
  256
370
   -1
100
AcDbCircle
 10
187.1196586645952
 20
-1201.057379629603
 40
1097.852029871968
100
AcDbArc
 50
88.94659875294018
 51
92.22749259093963
  0
LINE
  5
1B6
100
AcDbEntity
  8
Blade + tang
  6
ByLayer
 62
  256
370
   -1
100
AcDbLine
 10
144.4491285139878
 20
-104.0349070472648
 11
36.99729870634711
 21
-102.1593283813166
  0
ARC
  5
1B7
100
AcDbEntity
  8
Blade + tang
  6
ByLayer
 62
  256
370
   -1
100
AcDbCircle
 10
130.841404340894
 20
-147.3534268510658
 40
3
100
AcDbArc
 50
18.36624032113849
 51
161.907393191752
  0
LINE
  5
1B8
100
AcDbEntity
  8
Blade + tang
  6
ByLayer
 62
  256
370
   -1
100
AcDbLine
 10
127.9897369048496
 20
-146.4217655208592
 11
125.1009907832127
 21
-146.4912860702474
  0
ARC
  5
1B9
100
AcDbEntity
  8
Blade + tang
  6
ByLayer
 62
  256
370
   -1
100
AcDbCircle
 10
120.8387239805689
 20
-150.2994209869859
 40
5.715663552118159
100
AcDbArc
 50
41.77928933481351
 51
140.9779383176815
  0
LINE
  5
1BA
100
AcDbEntity
  8
Blade + tang
  6
ByLayer
 62
  256
370
   -1
100
AcDbLine
 10
116.3982044781723
 20
-146.7007272809522
 11
109.9993692610158
 21
-146.8547216165601
  0
ARC
  5
1BB
100
AcDbEntity
  8
Blade + tang
  6
ByLayer
 62
  256
370
   -1
100
AcDbCircle
 10
105.7371024583706
 20
-150.6628565332985
 40
5.715663552118115
100
AcDbArc
 50
41.77928933480382
 51
140.9779383176842
  0
LINE
  5
1BC
100
AcDbEntity
  8
Blade + tang
  6
ByLayer
 62
  256
370
   -1
100
AcDbLine
 10
101.2965829559736
 20
-147.0641628272649
 11
94.89774773881618
 21
-147.2181571628727
  0
ARC
  5
1BD
100
AcDbEntity
  8
Blade + tang
  6
ByLayer
 62
  256
370
   -1
100
AcDbCircle
 10
90.63548093617138
 20
-151.0262920796113
 40
5.715663552118132
100
AcDbArc
 50
41.77928933480703
 51
140.9779383176847
  0
LINE
  5
1BE
100
AcDbEntity
  8
Blade + tang
  6
ByLayer
 62
  256
370
   -1
100
AcDbLine
 10
86.19496143377428
 20
-147.4275983735776
 11
79.79612621661624
 21
-147.5815927091855
  0
ARC
  5
1BF
100
AcDbEntity
  8
Blade + tang
  6
ByLayer
 62
  256
370
   -1
100
AcDbCircle
 10
75.53385941397215
 20
-151.3897276259232
 40
5.715663552117387
100
AcDbArc
 50
41.77928933480604
 51
140.9779383176847
  0
LINE
  5
1C0
100
AcDbEntity
  8
Blade + tang
  6
ByLayer
 62
  256
370
   -1
100
AcDbLine
 10
71.09333991157592
 20
-147.7910339198903
 11
5.786057587361483
 21
-149.3627186422764
  0
LINE
  5
1C1
100
AcDbEntity
  8
Blade + tang
  6
ByLayer
 62
  256
370
   -1
100
AcDbLine
 10
4.893813618866552
 20
-147.8667673239739
 11
28.14092524437083
 21
-107.1953975466007
  0
ARC
  5
1C2
100
AcDbEntity
  8
Blade + tang
  6
ByLayer
 62
  256
370
   -1
100
AcDbCircle
 10
5.7619985586269
 20
-148.3630081026019
 40
1
100
AcDbArc
 50
150.2483979896851
 51
271.378613826245
  0
LINE
  5
1C3
100
AcDbEntity
  8
Blade + tang
  6
DASHED2
 62
  256
370
   -1
100
AcDbLine
 10
127.0604440615304
 20
-121.0176927406576
 11
130.4150725937716
 21
-144.3838744872594
  0
LINE
  5
1C4
100
AcDbEntity
  8
Blade + tang
  6
DASHED2
 62
  256
370
   -1
100
AcDbLine
 10
127.0604440615304
 20
-121.0176927406576
 11
18.75043541733382
 21
-123.6242808547135
  0
ARC
  5
1C5
100
AcDbEntity
  8
Blade + tang
  6
ByLayer
 62
  256
370
   -1
100
AcDbCircle
 10
143.6012539382388
 20
-156.152860706085
 40
10.84465394709255
100
AcDbArc
 50
303.0196017356507
 51
50.30511933563771
  0
ARC
  5
1C6
100
AcDbEntity
  8
Blade + tang
  6
ByLayer
 62
  256
370
   -1
100
AcDbCircle
 10
152.443821534333
 20
-145.5
 40
3
100
AcDbArc
 50
90
 51
230.3051193356375
  0
LINE
  5
1C7
100
AcDbEntity
  8
Blade + tang
  6
ByLayer
 62
  256
370
   -1
100
AcDbLine
 10
158.7417247366872
 20
-142.5
 11
152.443821534333
 21
-142.5
  0
LINE
  5
1C8
100
AcDbEntity
  8
Blade + tang
  6
ByLayer
 62
  256
370
   -1
100
AcDbLine
 10
161.695835894275
 20
-144.9772885417214
 11
163.415395921117
 21
-154.6954062163647
  0
ARC
  5
1C9
100
AcDbEntity
  8
Blade + tang
  6
ByLayer
 62
  256
370
   -1
100
AcDbCircle
 10
158.7417247366872
 20
-145.5
 40
3
100
AcDbArc
 50
10.03426817920585
 51
90
  0
ARC
  5
1CA
100
AcDbEntity
  8
Blade + tang
  6
ByLayer
 62
  256
370
   -1
100
AcDbCircle
 10
214.7376415389286
 20
215.2226914859705
 40
371.59425701525
100
AcDbArc
 50
262.9675891808406
 51
281.7896384716476
  0
LINE
  5
1CB
100
AcDbEntity
  8
Blade + tang
  6
ByLayer
 62
  256
370
   -1
100
AcDbLine
 10
290.6614187174108
 20
-148.5325447727916
 11
292.6941501902396
 21
-148.4481081381306
  0
LINE
  5
1CC
100
AcDbEntity
  8
Blade + tang
  6
DASHED2
 62
  256
370
   -1
100
AcDbLine
 10
169.4818021238116
 20
-173.7477072928553
 11
166.7237431987555
 21
-156.6622498552979
  0
ARC
  5
1CD
100
AcDbEntity
  8
Blade + tang
  6
DASHED2
 62
  256
370
   -1
100
AcDbCircle
 10
214.7376415389286
 20
215.2226914859705
 40
391.59425701525
100
AcDbArc
 50
263.3636015593385
 51
279.797271941158
  0
ENDSEC
  0
SECTION
  2
OBJECTS
  0
DICTIONARY
  5
C
330
0
100
AcDbDictionary
281
    1
  3
ACAD_GROUP
350
D
  3
ACAD_IMAGE_DICT
350
1CE
  0
DICTIONARY
  5
D
330
C
100
AcDbDictionary
281
    1
  0
IMAGEDEF_REACTOR
  5
64
330
65
100
AcDbRasterImageDefReactor
 90
    2
330
65
  0
DICTIONARY
  5
1CE
330
C
100
AcDbDictionary
281
    1
  3
2020-10-20 Boat knife
350
63
  0
IMAGEDEF
  5
63
102
{ACAD_REACTORS
330
64
102
}
100
AcDbRasterImageDef
 90
    0
  1
/home/mosse/Pictures/2020-10-20 Boat knife.png
 10
816
 20
205
 11
1
 21
1
280
    1
281
    0
  0
ENDSEC
  0
EOF
