999
dxfrw 0.6.3
  0
SECTION
  2
HEADER
  9
$ACADVER
  1
AC1021
  9
$DWGCODEPAGE
  3
ANSI_1252
  9
$INSBASE
 10
0
 20
0
 30
0
  9
$EXTMIN
 10
-46.61497037992255
 20
-50.22413950076871
 30
0
  9
$EXTMAX
 10
800
 20
1800
 30
0
  9
$LIMMIN
 10
0
 20
0
  9
$LIMMAX
 10
420
 20
297
  9
$ORTHOMODE
 70
    0
  9
$REGENMODE
 70
    1
  9
$FILLMODE
 70
    1
  9
$QTEXTMODE
 70
    0
  9
$MIRRTEXT
 70
    0
  9
$LTSCALE
 40
1
  9
$ATTMODE
 70
    0
  9
$TEXTSIZE
 40
2.5
  9
$TRACEWID
 40
15.68
  9
$TEXTSTYLE
  7
STANDARD
  9
$CLAYER
  8
0
  9
$CELTYPE
  6
BYLAYER
  9
$CECOLOR
 62
  256
  9
$CELTSCALE
 40
1
  9
$DISPSILH
 70
    0
  9
$DIMSCALE
 40
1
  9
$DIMASZ
 40
2.5
  9
$DIMEXO
 40
0.625
  9
$DIMDLI
 40
3.75
  9
$DIMRND
 40
0
  9
$DIMDLE
 40
0
  9
$DIMEXE
 40
1.25
  9
$DIMTP
 40
0
  9
$DIMTM
 40
0
  9
$DIMTXT
 40
2.5
  9
$DIMCEN
 40
2.5
  9
$DIMTSZ
 40
0
  9
$DIMTOL
 70
    0
  9
$DIMLIM
 70
    0
  9
$DIMTIH
 70
    0
  9
$DIMTOH
 70
    0
  9
$DIMSE1
 70
    0
  9
$DIMSE2
 70
    0
  9
$DIMTAD
 70
    1
  9
$DIMZIN
 70
    1
  9
$DIMBLK
  1

  9
$DIMASO
 70
    1
  9
$DIMSHO
 70
    1
  9
$DIMPOST
  1

  9
$DIMAPOST
  1

  9
$DIMALT
 70
    0
  9
$DIMALTD
 70
    3
  9
$DIMALTF
 40
0.03937
  9
$DIMLFAC
 40
1
  9
$DIMTOFL
 70
    1
  9
$DIMTVP
 40
0
  9
$DIMTIX
 70
    0
  9
$DIMSOXD
 70
    0
  9
$DIMSAH
 70
    0
  9
$DIMBLK1
  1

  9
$DIMBLK2
  1

  9
$DIMSTYLE
  2
STANDARD
  9
$DIMCLRD
 70
    0
  9
$DIMCLRE
 70
    0
  9
$DIMCLRT
 70
    0
  9
$DIMTFAC
 40
1
  9
$DIMGAP
 40
0.625
  9
$DIMJUST
 70
    0
  9
$DIMSD1
 70
    0
  9
$DIMSD2
 70
    0
  9
$DIMTOLJ
 70
    0
  9
$DIMTZIN
 70
    8
  9
$DIMALTZ
 70
    0
  9
$DIMALTTZ
 70
    0
  9
$DIMUPT
 70
    0
  9
$DIMDEC
 70
    7
  9
$DIMTDEC
 70
    2
  9
$DIMALTU
 70
    2
  9
$DIMALTTD
 70
    3
  9
$DIMTXSTY
  7
standard
  9
$DIMAUNIT
 70
    0
  9
$DIMADEC
 70
    0
  9
$DIMALTRND
 40
0
  9
$DIMAZIN
 70
    0
  9
$DIMDSEP
 70
    0
  9
$DIMATFIT
 70
    3
  9
$DIMFRAC
 70
    0
  9
$DIMLDRBLK
  1
STANDARD
  9
$DIMLUNIT
 70
    2
  9
$DIMLWD
 70
   -2
  9
$DIMLWE
 70
   -2
  9
$DIMTMOVE
 70
    0
  9
$DIMFXL
 40
1
  9
$DIMFXLON
 70
    0
  9
$DIMJOGANG
 40
0.7854
  9
$DIMTFILL
 70
    0
  9
$DIMTFILLCLR
 70
    0
  9
$DIMARCSYM
 70
    0
  9
$DIMLTYPE
  6

  9
$DIMLTEX1
  6

  9
$DIMLTEX2
  6

  9
$LUNITS
 70
    2
  9
$LUPREC
 70
    4
  9
$SKETCHINC
 40
1
  9
$FILLETRAD
 40
0
  9
$AUNITS
 70
    0
  9
$AUPREC
 70
    2
  9
$MENU
  1
.
  9
$ELEVATION
 40
0
  9
$PELEVATION
 40
0
  9
$THICKNESS
 40
0
  9
$LIMCHECK
 70
    0
  9
$CHAMFERA
 40
0
  9
$CHAMFERB
 40
0
  9
$CHAMFERC
 40
0
  9
$CHAMFERD
 40
0
  9
$SKPOLY
 70
    0
  9
$USRTIMER
 70
    1
  9
$ANGBASE
 50
0
  9
$ANGDIR
 70
    0
  9
$PDMODE
 70
   34
  9
$PDSIZE
 40
0
  9
$PLINEWID
 40
0
  9
$SPLFRAME
 70
    0
  9
$SPLINETYPE
 70
    2
  9
$SPLINESEGS
 70
    8
  9
$HANDSEED
  5
20000
  9
$SURFTAB1
 70
    6
  9
$SURFTAB2
 70
    6
  9
$SURFTYPE
 70
    6
  9
$SURFU
 70
    6
  9
$SURFV
 70
    6
  9
$UCSBASE
  2

  9
$UCSNAME
  2

  9
$UCSORG
 10
0
 20
0
 30
0
  9
$UCSXDIR
 10
1
 20
0
 30
0
  9
$UCSYDIR
 10
0
 20
1
 30
0
  9
$UCSORTHOREF
  2

  9
$UCSORTHOVIEW
 70
    0
  9
$UCSORGTOP
 10
0
 20
0
 30
0
  9
$UCSORGBOTTOM
 10
0
 20
0
 30
0
  9
$UCSORGLEFT
 10
0
 20
0
 30
0
  9
$UCSORGRIGHT
 10
0
 20
0
 30
0
  9
$UCSORGFRONT
 10
0
 20
0
 30
0
  9
$UCSORGBACK
 10
0
 20
0
 30
0
  9
$PUCSBASE
  2

  9
$PUCSNAME
  2

  9
$PUCSORG
 10
0
 20
0
 30
0
  9
$PUCSXDIR
 10
1
 20
0
 30
0
  9
$PUCSYDIR
 10
0
 20
1
 30
0
  9
$PUCSORTHOREF
  2

  9
$PUCSORTHOVIEW
 70
    0
  9
$PUCSORGTOP
 10
0
 20
0
 30
0
  9
$PUCSORGBOTTOM
 10
0
 20
0
 30
0
  9
$PUCSORGLEFT
 10
0
 20
0
 30
0
  9
$PUCSORGRIGHT
 10
0
 20
0
 30
0
  9
$PUCSORGFRONT
 10
0
 20
0
 30
0
  9
$PUCSORGBACK
 10
0
 20
0
 30
0
  9
$USERI1
 70
    0
  9
$USERI2
 70
    0
  9
$USERI3
 70
    0
  9
$USERI4
 70
    0
  9
$USERI5
 70
    0
  9
$USERR1
 40
0
  9
$USERR2
 40
0
  9
$USERR3
 40
0
  9
$USERR4
 40
0
  9
$USERR5
 40
0
  9
$WORLDVIEW
 70
    1
  9
$SHADEDGE
 70
    3
  9
$SHADEDIF
 70
   70
  9
$TILEMODE
 70
    1
  9
$MAXACTVP
 70
   64
  9
$PINSBASE
 10
-560.4203542501004
 20
-246.0898693347732
 30
0
  9
$PLIMCHECK
 70
    0
  9
$PEXTMIN
 10
0
 20
0
 30
0
  9
$PEXTMAX
 10
0
 20
0
 30
0
  9
$GRIDMODE
 70
    1
  9
$SNAPSTYLE
 70
    0
  9
$GRIDUNIT
 10
0
 20
0
  9
$PLIMMIN
 10
0
 20
0
  9
$PLIMMAX
 10
297
 20
210
  9
$UNITMODE
 70
    0
  9
$VISRETAIN
 70
    1
  9
$PLINEGEN
 70
    0
  9
$PSLTSCALE
 70
    1
  9
$TREEDEPTH
 70
 3020
  9
$CMLSTYLE
  2
Standard
  9
$CMLJUST
 70
    0
  9
$CMLSCALE
 40
20
  9
$PROXYGRAPHICS
 70
    1
  9
$MEASUREMENT
 70
    1
  9
$CELWEIGHT
370
   -1
  9
$ENDCAPS
280
    0
  9
$JOINSTYLE
280
    0
  9
$LWDISPLAY
290
    0
  9
$INSUNITS
 70
    4
  9
$HYPERLINKBASE
  1

  9
$STYLESHEET
  1

  9
$XEDIT
290
    1
  9
$CEPSNTYPE
380
    0
  9
$PSTYLEMODE
290
    1
  9
$EXTNAMES
290
    1
  9
$PSVPSCALE
 40
0.7775000566583212
  9
$OLESTARTUP
290
    0
  9
$SORTENTS
280
  127
  9
$INDEXCTL
280
    0
  9
$HIDETEXT
280
    1
  9
$XCLIPFRAME
290
    0
  9
$HALOGAP
280
    0
  9
$OBSCOLOR
 70
  257
  9
$OBSLTYPE
280
    0
  9
$INTERSECTIONDISPLAY
280
    0
  9
$INTERSECTIONCOLOR
 70
  257
  9
$DIMASSOC
280
    1
  9
$PROJECTNAME
  1

  9
$CAMERADISPLAY
290
    0
  9
$LENSLENGTH
 40
50
  9
$CAMERAHEIGHT
 40
0
  9
$STEPSPERSEC
 40
2
  9
$STEPSIZE
 40
50
  9
$3DDWFPREC
 40
2
  9
$PSOLWIDTH
 40
5
  9
$PSOLHEIGHT
 40
80
  9
$LOFTANG1
 40
1.570796326794897
  9
$LOFTANG2
 40
1.570796326794897
  9
$LOFTMAG1
 40
0
  9
$LOFTMAG2
 40
0
  9
$LOFTPARAM
 70
    7
  9
$LOFTNORMALS
280
    1
  9
$LATITUDE
 40
1
  9
$LONGITUDE
 40
1
  9
$NORTHDIRECTION
 40
0
  9
$TIMEZONE
 70
-8000
  9
$LIGHTGLYPHDISPLAY
280
    1
  9
$TILEMODELIGHTSYNCH
280
    1
  9
$SOLIDHIST
280
    1
  9
$SHOWHIST
280
    1
  9
$DWFFRAME
280
    2
  9
$DGNFRAME
280
    0
  9
$REALWORLDSCALE
290
    1
  9
$INTERFERECOLOR
 62
    1
  9
$CSHADOW
280
    0
  9
$SHADOWPLANELOCATION
 40
0
  0
ENDSEC
  0
SECTION
  2
CLASSES
  0
ENDSEC
  0
SECTION
  2
TABLES
  0
TABLE
  2
VPORT
  5
8
330
0
100
AcDbSymbolTable
 70
    1
  0
VPORT
  5
31
330
2
100
AcDbSymbolTableRecord
100
AcDbViewportTableRecord
  2
*ACTIVE
 70
    0
 10
0
 20
0
 11
1
 21
1
 12
148.0719544272467
 22
67.63247675491347
 13
0
 23
0
 14
10
 24
10
 15
10
 25
10
 16
0
 26
0
 36
1
 17
0
 27
0
 37
0
 40
242.3257252239878
 41
1.771971496437055
 42
50
 43
0
 44
0
 50
0
 51
0
 71
    0
 72
  100
 73
    1
 74
    3
 75
    0
 76
    1
 77
    0
 78
    0
281
    0
 65
    1
110
0
120
0
130
0
111
1
121
0
131
0
112
0
122
1
132
0
 79
    0
146
0
348
10020
 60
    7
 61
    5
292
1
282
    1
141
0
142
0
 63
  250
421
3358443
  0
ENDTAB
  0
TABLE
  2
LTYPE
  5
5
330
0
100
AcDbSymbolTable
 70
    4
  0
LTYPE
  5
14
330
5
100
AcDbSymbolTableRecord
100
AcDbLinetypeTableRecord
  2
ByBlock
 70
    0
  3

 72
   65
 73
    0
 40
0
  0
LTYPE
  5
15
330
5
100
AcDbSymbolTableRecord
100
AcDbLinetypeTableRecord
  2
ByLayer
 70
    0
  3

 72
   65
 73
    0
 40
0
  0
LTYPE
  5
16
330
5
100
AcDbSymbolTableRecord
100
AcDbLinetypeTableRecord
  2
Continuous
 70
    0
  3
Solid line
 72
   65
 73
    0
 40
0
  0
LTYPE
  5
32
330
5
100
AcDbSymbolTableRecord
100
AcDbLinetypeTableRecord
  2
DOT
 70
    0
  3
Dot . . . . . . . . . . . . . . . . . . . . . .
 72
   65
 73
    2
 40
6.35
 49
0
 74
    0
 49
-6.35
 74
    0
  0
LTYPE
  5
33
330
5
100
AcDbSymbolTableRecord
100
AcDbLinetypeTableRecord
  2
DOTTINY
 70
    0
  3
Dot (.15x) .....................................
 72
   65
 73
    2
 40
0.9525
 49
0
 74
    0
 49
-0.9525
 74
    0
  0
LTYPE
  5
34
330
5
100
AcDbSymbolTableRecord
100
AcDbLinetypeTableRecord
  2
DOT2
 70
    0
  3
Dot (.5x) .....................................
 72
   65
 73
    2
 40
3.175
 49
0
 74
    0
 49
-3.175
 74
    0
  0
LTYPE
  5
35
330
5
100
AcDbSymbolTableRecord
100
AcDbLinetypeTableRecord
  2
DOTX2
 70
    0
  3
Dot (2x) .  .  .  .  .  .  .  .  .  .  .  .  .
 72
   65
 73
    2
 40
12.7
 49
0
 74
    0
 49
-12.7
 74
    0
  0
LTYPE
  5
36
330
5
100
AcDbSymbolTableRecord
100
AcDbLinetypeTableRecord
  2
DASHED
 70
    0
  3
Dashed _ _ _ _ _ _ _ _ _ _ _ _ _ _ _ _ _
 72
   65
 73
    2
 40
19.05
 49
12.7
 74
    0
 49
-6.35
 74
    0
  0
LTYPE
  5
37
330
5
100
AcDbSymbolTableRecord
100
AcDbLinetypeTableRecord
  2
DASHEDTINY
 70
    0
  3
Dashed (.15x) _ _ _ _ _ _ _ _ _ _ _ _ _ _ _ _ _
 72
   65
 73
    2
 40
2.8575
 49
1.905
 74
    0
 49
-0.9525
 74
    0
  0
LTYPE
  5
38
330
5
100
AcDbSymbolTableRecord
100
AcDbLinetypeTableRecord
  2
DASHED2
 70
    0
  3
Dashed (.5x) _ _ _ _ _ _ _ _ _ _ _ _ _ _ _ _ _
 72
   65
 73
    2
 40
9.524999999999999
 49
6.35
 74
    0
 49
-3.175
 74
    0
  0
LTYPE
  5
39
330
5
100
AcDbSymbolTableRecord
100
AcDbLinetypeTableRecord
  2
DASHEDX2
 70
    0
  3
Dashed (2x) ____  ____  ____  ____  ____  ___
 72
   65
 73
    2
 40
38.09999999999999
 49
25.4
 74
    0
 49
-12.7
 74
    0
  0
LTYPE
  5
3A
330
5
100
AcDbSymbolTableRecord
100
AcDbLinetypeTableRecord
  2
DASHDOT
 70
    0
  3
Dash dot __ . __ . __ . __ . __ . __ . __ . __
 72
   65
 73
    4
 40
25.4
 49
12.7
 74
    0
 49
-6.35
 74
    0
 49
0
 74
    0
 49
-6.35
 74
    0
  0
LTYPE
  5
3B
330
5
100
AcDbSymbolTableRecord
100
AcDbLinetypeTableRecord
  2
DASHDOTTINY
 70
    0
  3
Dash dot (.15x) _._._._._._._._._._._._._._._.
 72
   65
 73
    4
 40
3.81
 49
1.905
 74
    0
 49
-0.9525
 74
    0
 49
0
 74
    0
 49
-0.9525
 74
    0
  0
LTYPE
  5
3C
330
5
100
AcDbSymbolTableRecord
100
AcDbLinetypeTableRecord
  2
DASHDOT2
 70
    0
  3
Dash dot (.5x) _._._._._._._._._._._._._._._.
 72
   65
 73
    4
 40
12.7
 49
6.35
 74
    0
 49
-3.175
 74
    0
 49
0
 74
    0
 49
-3.175
 74
    0
  0
LTYPE
  5
3D
330
5
100
AcDbSymbolTableRecord
100
AcDbLinetypeTableRecord
  2
DASHDOTX2
 70
    0
  3
Dash dot (2x) ____  .  ____  .  ____  .  ___
 72
   65
 73
    4
 40
50.8
 49
25.4
 74
    0
 49
-12.7
 74
    0
 49
0
 74
    0
 49
-12.7
 74
    0
  0
LTYPE
  5
3E
330
5
100
AcDbSymbolTableRecord
100
AcDbLinetypeTableRecord
  2
DIVIDE
 70
    0
  3
Divide ____ . . ____ . . ____ . . ____ . . ____
 72
   65
 73
    6
 40
31.75
 49
12.7
 74
    0
 49
-6.35
 74
    0
 49
0
 74
    0
 49
-6.35
 74
    0
 49
0
 74
    0
 49
-6.35
 74
    0
  0
LTYPE
  5
3F
330
5
100
AcDbSymbolTableRecord
100
AcDbLinetypeTableRecord
  2
DIVIDETINY
 70
    0
  3
Divide (.15x) __..__..__..__..__..__..__..__.._
 72
   65
 73
    6
 40
4.7625
 49
1.905
 74
    0
 49
-0.9525
 74
    0
 49
0
 74
    0
 49
-0.9525
 74
    0
 49
0
 74
    0
 49
-0.9525
 74
    0
  0
LTYPE
  5
40
330
5
100
AcDbSymbolTableRecord
100
AcDbLinetypeTableRecord
  2
DIVIDE2
 70
    0
  3
Divide (.5x) __..__..__..__..__..__..__..__.._
 72
   65
 73
    6
 40
15.875
 49
6.35
 74
    0
 49
-3.175
 74
    0
 49
0
 74
    0
 49
-3.175
 74
    0
 49
0
 74
    0
 49
-3.175
 74
    0
  0
LTYPE
  5
41
330
5
100
AcDbSymbolTableRecord
100
AcDbLinetypeTableRecord
  2
DIVIDEX2
 70
    0
  3
Divide (2x) ________  .  .  ________  .  .  _
 72
   65
 73
    6
 40
63.5
 49
25.4
 74
    0
 49
-12.7
 74
    0
 49
0
 74
    0
 49
-12.7
 74
    0
 49
0
 74
    0
 49
-12.7
 74
    0
  0
LTYPE
  5
42
330
5
100
AcDbSymbolTableRecord
100
AcDbLinetypeTableRecord
  2
BORDER
 70
    0
  3
Border __ __ . __ __ . __ __ . __ __ . __ __ .
 72
   65
 73
    6
 40
44.45
 49
12.7
 74
    0
 49
-6.35
 74
    0
 49
12.7
 74
    0
 49
-6.35
 74
    0
 49
0
 74
    0
 49
-6.35
 74
    0
  0
LTYPE
  5
43
330
5
100
AcDbSymbolTableRecord
100
AcDbLinetypeTableRecord
  2
BORDERTINY
 70
    0
  3
Border (.15x) __.__.__.__.__.__.__.__.__.__.__.
 72
   65
 73
    6
 40
6.6675
 49
1.905
 74
    0
 49
-0.9525
 74
    0
 49
1.905
 74
    0
 49
-0.9525
 74
    0
 49
0
 74
    0
 49
-0.9525
 74
    0
  0
LTYPE
  5
44
330
5
100
AcDbSymbolTableRecord
100
AcDbLinetypeTableRecord
  2
BORDER2
 70
    0
  3
Border (.5x) __.__.__.__.__.__.__.__.__.__.__.
 72
   65
 73
    6
 40
22.225
 49
6.35
 74
    0
 49
-3.175
 74
    0
 49
6.35
 74
    0
 49
-3.175
 74
    0
 49
0
 74
    0
 49
-3.175
 74
    0
  0
LTYPE
  5
45
330
5
100
AcDbSymbolTableRecord
100
AcDbLinetypeTableRecord
  2
BORDERX2
 70
    0
  3
Border (2x) ____  ____  .  ____  ____  .  ___
 72
   65
 73
    6
 40
88.89999999999999
 49
25.4
 74
    0
 49
-12.7
 74
    0
 49
25.4
 74
    0
 49
-12.7
 74
    0
 49
0
 74
    0
 49
-12.7
 74
    0
  0
LTYPE
  5
46
330
5
100
AcDbSymbolTableRecord
100
AcDbLinetypeTableRecord
  2
CENTER
 70
    0
  3
Center ____ _ ____ _ ____ _ ____ _ ____ _ ____
 72
   65
 73
    4
 40
50.8
 49
31.75
 74
    0
 49
-6.35
 74
    0
 49
6.35
 74
    0
 49
-6.35
 74
    0
  0
LTYPE
  5
47
330
5
100
AcDbSymbolTableRecord
100
AcDbLinetypeTableRecord
  2
CENTERTINY
 70
    0
  3
Center (.15x) ___ _ ___ _ ___ _ ___ _ ___ _ ___
 72
   65
 73
    4
 40
7.619999999999999
 49
4.7625
 74
    0
 49
-0.9525
 74
    0
 49
0.9525
 74
    0
 49
-0.9525
 74
    0
  0
LTYPE
  5
48
330
5
100
AcDbSymbolTableRecord
100
AcDbLinetypeTableRecord
  2
CENTER2
 70
    0
  3
Center (.5x) ___ _ ___ _ ___ _ ___ _ ___ _ ___
 72
   65
 73
    4
 40
28.575
 49
19.05
 74
    0
 49
-3.175
 74
    0
 49
3.175
 74
    0
 49
-3.175
 74
    0
  0
LTYPE
  5
49
330
5
100
AcDbSymbolTableRecord
100
AcDbLinetypeTableRecord
  2
CENTERX2
 70
    0
  3
Center (2x) ________  __  ________  __  _____
 72
   65
 73
    4
 40
101.6
 49
63.5
 74
    0
 49
-12.7
 74
    0
 49
12.7
 74
    0
 49
-12.7
 74
    0
  0
ENDTAB
  0
TABLE
  2
LAYER
  5
2
330
0
100
AcDbSymbolTable
 70
    1
  0
LAYER
  5
10
330
2
100
AcDbSymbolTableRecord
100
AcDbLayerTableRecord
  2
0
 70
    0
 62
    7
  6
CONTINUOUS
370
    0
390
F
  0
LAYER
  5
4A
330
2
100
AcDbSymbolTableRecord
100
AcDbLayerTableRecord
  2
Blade
 70
    0
 62
    2
  6
CONTINUOUS
370
   13
390
F
  0
LAYER
  5
4B
330
2
100
AcDbSymbolTableRecord
100
AcDbLayerTableRecord
  2
Handle
 70
    0
 62
    3
  6
CONTINUOUS
370
   13
390
F
  0
LAYER
  5
4C
330
2
100
AcDbSymbolTableRecord
100
AcDbLayerTableRecord
  2
Measurements
 70
    0
 62
    6
  6
CONTINUOUS
370
   13
390
F
  0
LAYER
  5
4D
330
2
100
AcDbSymbolTableRecord
100
AcDbLayerTableRecord
  2
Photo
 70
    1
 62
    7
  6
CONTINUOUS
370
    0
390
F
  0
ENDTAB
  0
TABLE
  2
STYLE
  5
3
330
0
100
AcDbSymbolTable
 70
    3
  0
STYLE
  5
4E
330
2
100
AcDbSymbolTableRecord
100
AcDbTextStyleTableRecord
  2
standard
 70
    0
 40
0
 41
1
 50
0
 71
    0
 42
1
  3
standard
  4

  0
ENDTAB
  0
TABLE
  2
VIEW
  5
6
330
0
100
AcDbSymbolTable
 70
    0
  0
ENDTAB
  0
TABLE
  2
UCS
  5
7
330
0
100
AcDbSymbolTable
 70
    0
  0
ENDTAB
  0
TABLE
  2
APPID
  5
9
330
0
100
AcDbSymbolTable
 70
    1
  0
APPID
  5
12
330
9
100
AcDbSymbolTableRecord
100
AcDbRegAppTableRecord
  2
ACAD
 70
    0
  0
APPID
  5
4F
330
9
100
AcDbSymbolTableRecord
100
AcDbRegAppTableRecord
  2
LibreCad
 70
    0
  0
ENDTAB
  0
TABLE
  2
DIMSTYLE
  5
A
330
0
100
AcDbSymbolTable
 70
    1
100
AcDbDimStyleTable
 71
    1
  0
DIMSTYLE
105
50
330
A
100
AcDbSymbolTableRecord
100
AcDbDimStyleTableRecord
  2
Standard
 70
    0
 40
1
 41
2.5
 42
0.625
 43
0.38
 44
1.25
 45
0
 46
0
 47
0
 48
0
 49
1
140
2.5
141
0.09
142
0
143
25.4
144
1
145
0
146
1
147
0.625
148
0
 71
    0
 72
    0
 73
    0
 74
    1
 75
    0
 76
    0
 77
    0
 78
    1
 79
    0
170
    0
171
    2
172
    0
173
    0
174
    0
175
    0
176
    0
177
    0
178
    0
179
    0
271
    7
272
    4
273
    2
274
    2
275
    0
276
    0
277
    2
278
    0
279
    0
280
    0
281
    0
282
    0
283
    1
284
    0
285
    0
286
    0
288
    0
289
    3
340
standard
341

371
   -2
372
   -2
  0
ENDTAB
  0
TABLE
  2
BLOCK_RECORD
  5
1
330
0
100
AcDbSymbolTable
 70
    2
  0
BLOCK_RECORD
  5
1F
330
1
100
AcDbSymbolTableRecord
100
AcDbBlockTableRecord
  2
*Model_Space
 70
    0
280
    1
281
    0
  0
BLOCK_RECORD
  5
1E
330
1
100
AcDbSymbolTableRecord
100
AcDbBlockTableRecord
  2
*Paper_Space
 70
    0
280
    1
281
    0
  0
BLOCK_RECORD
  5
51
330
1
100
AcDbSymbolTableRecord
100
AcDbBlockTableRecord
  2
*D1
 70
    0
280
    1
281
    0
  0
BLOCK_RECORD
  5
54
330
1
100
AcDbSymbolTableRecord
100
AcDbBlockTableRecord
  2
*D2
 70
    0
280
    1
281
    0
  0
BLOCK_RECORD
  5
57
330
1
100
AcDbSymbolTableRecord
100
AcDbBlockTableRecord
  2
2020-09-11 Bunka v.2.0
 70
    0
280
    1
281
    0
  0
ENDTAB
  0
ENDSEC
  0
SECTION
  2
BLOCKS
  0
BLOCK
  5
20
330
1F
100
AcDbEntity
  8
0
100
AcDbBlockBegin
  2
*Model_Space
 70
    0
 10
0
 20
0
 30
0
  3
*Model_Space
  1

  0
ENDBLK
  5
21
330
1F
100
AcDbEntity
  8
0
100
AcDbBlockEnd
  0
BLOCK
  5
1C
330
1B
100
AcDbEntity
  8
0
100
AcDbBlockBegin
  2
*Paper_Space
 70
    0
 10
0
 20
0
 30
0
  3
*Paper_Space
  1

  0
ENDBLK
  5
1D
330
1F
100
AcDbEntity
  8
0
100
AcDbBlockEnd
  0
BLOCK
  5
52
330
51
100
AcDbEntity
  8
0
100
AcDbBlockBegin
  2
*D1
 70
    1
 10
0
 20
0
  3
*D1
  1

  0
LINE
  5
5A
100
AcDbEntity
  8
Measurements
  6
CONTINUOUS
 62
    7
370
    0
100
AcDbLine
 10
69.86603886499488
 20
5.775860499231285
 11
2.987209465736484
 21
-40.73370933658542
  0
LINE
  5
5B
100
AcDbEntity
  8
Measurements
  6
CONTINUOUS
 62
    7
370
    0
100
AcDbLine
 10
2.987209465736484
 20
-40.73370933658542
 11
0.8660388649948771
 21
-50.22413950076871
  0
LINE
  5
5C
100
AcDbEntity
  8
Measurements
  6
CONTINUOUS
 62
    7
370
    0
100
AcDbLine
 10
0.8660388649948771
 20
-50.22413950076871
 11
70.86603886499488
 21
-50.22413950076871
  0
SOLID
  5
5D
100
AcDbEntity
  8
Measurements
  6
CONTINUOUS
 62
    7
370
    0
100
AcDbTrace
 10
69.86603886499488
 20
5.775860499231285
 30
0
 11
68.05123678025623
 21
4.00674029146548
 31
0
 12
67.57588817798954
 22
4.690271835369127
 32
0
 13
67.57588817798954
 23
4.690271835369127
 33
0
  0
ENDBLK
  5
53
330
51
100
AcDbEntity
  8
0
100
AcDbBlockEnd
  0
BLOCK
  5
55
330
54
100
AcDbEntity
  8
0
100
AcDbBlockBegin
  2
*D2
 70
    1
 10
0
 20
0
  3
*D2
  1

  0
LINE
  5
5E
100
AcDbEntity
  8
Measurements
  6
CONTINUOUS
 62
    7
370
    0
100
AcDbLine
 10
-41.13396113500512
 20
4.775860499231285
 11
-41.13396113500512
 21
-17.22413950076871
  0
LINE
  5
5F
100
AcDbEntity
  8
Measurements
  6
CONTINUOUS
 62
    7
370
    0
100
AcDbLine
 10
-41.13396113500512
 20
-17.22413950076871
 11
23.86603886499488
 21
-17.22413950076871
  0
SOLID
  5
60
100
AcDbEntity
  8
Measurements
  6
CONTINUOUS
 62
    7
370
    0
100
AcDbTrace
 10
-41.13396113500512
 20
4.775860499231285
 30
0
 11
-40.71767647723228
 21
2.275860499231285
 31
0
 12
-41.55024579277796
 22
2.275860499231285
 32
0
 13
-41.55024579277796
 23
2.275860499231285
 33
0
  0
ENDBLK
  5
56
330
54
100
AcDbEntity
  8
0
100
AcDbBlockEnd
  0
BLOCK
  5
58
330
57
100
AcDbEntity
  8
0
100
AcDbBlockBegin
  2
2020-09-11 Bunka v.2.0
 70
    0
 10
0
 20
0
  3
2020-09-11 Bunka v.2.0
  1

  0
IMAGE
  5
63
100
AcDbEntity
  8
Photo
  6
ByLayer
 62
  256
370
   -1
100
AcDbRasterImage
 10
0
 20
0.5
 30
0
 11
1
 21
0
 31
0
 12
6.123233995736766e-17
 22
1
 32
0
 13
2047
 23
1092
340
61
 70
    1
280
    0
281
   50
282
   50
283
    0
360
62
  0
ARC
  5
64
100
AcDbEntity
  8
Handle
  6
ByLayer
 62
  256
370
   -1
100
AcDbCircle
 10
755.7870441510934
 20
475.7534555776602
 40
1.919191919191919
100
AcDbArc
 50
89.51353808976884
 51
166.143406964541
  0
ARC
  5
65
100
AcDbEntity
  8
Handle
  6
ByLayer
 62
  256
370
   -1
100
AcDbCircle
 10
800.7879412338394
 20
464.6530330506548
 40
48.26895047875674
100
AcDbArc
 50
166.1434069645407
 51
193.8549719973632
  0
ARC
  5
66
100
AcDbEntity
  8
Handle
  6
ByLayer
 62
  256
370
   -1
100
AcDbCircle
 10
755.7867301109318
 20
453.553883713816
 40
1.919191919191919
100
AcDbArc
 50
193.8549719973626
 51
270.5354444370014
  0
LINE
  5
67
100
AcDbEntity
  8
Blade
  6
ByLayer
 62
  256
370
   -1
100
AcDbLine
 10
885.4488467099834
 20
471.8254941295809
 11
885.4548951003443
 21
474.3315279395803
  0
LINE
  5
68
100
AcDbEntity
  8
Blade
  6
ByLayer
 62
  256
370
   -1
100
AcDbLine
 10
885.4069477983165
 20
454.4654887437813
 11
885.4129670631021
 21
456.959454933782
  0
ARC
  5
69
100
AcDbEntity
  8
Blade
  6
DASHEDTINY
 62
  256
370
   -1
100
AcDbCircle
 10
882.9488539913666
 20
471.8315279395803
 40
2.5
100
AcDbArc
 50
270
 51
359.8617151268077
  0
ARC
  5
6A
100
AcDbEntity
  8
Blade
  6
DASHEDTINY
 62
  256
370
   -1
100
AcDbCircle
 10
882.9129743444853
 20
456.9654887437813
 40
2.5
100
AcDbArc
 50
359.8617151268077
 51
90
  0
ARC
  5
6B
100
AcDbEntity
  8
Blade
  6
DASHEDTINY
 62
  256
370
   -1
100
AcDbCircle
 10
787.9427750403516
 20
466.8315279395803
 40
2.5
100
AcDbArc
 50
90
 51
179.7215542769069
  0
LINE
  5
6C
100
AcDbEntity
  8
Blade
  6
DASHEDTINY
 62
  256
370
   -1
100
AcDbLine
 10
785.4191564248475
 20
461.977638182598
 11
785.4428045622986
 21
466.8436773783969
  0
ARC
  5
6D
100
AcDbEntity
  8
Blade
  6
DASHEDTINY
 62
  256
370
   -1
100
AcDbCircle
 10
787.9191269029006
 20
461.9654887437813
 40
2.5
100
AcDbArc
 50
179.7215542769069
 51
270
  0
LINE
  5
6E
100
AcDbEntity
  8
Blade
  6
DASHEDTINY
 62
  256
370
   -1
100
AcDbLine
 10
787.9427750403516
 20
469.3315279395803
 11
805.4551312787273
 21
469.3315279395803
  0
ARC
  5
6F
100
AcDbEntity
  8
Blade
  6
DASHEDTINY
 62
  256
370
   -1
100
AcDbCircle
 10
810.4551903233007
 20
481.3318113552926
 40
13.00028432407617
100
AcDbArc
 50
247.3803752628128
 51
292.619624736852
  0
LINE
  5
70
100
AcDbEntity
  8
Blade
  6
DASHEDTINY
 62
  256
370
   -1
100
AcDbLine
 10
815.4552493678505
 20
469.3315279395805
 11
830.4554265017405
 21
469.3315279395802
  0
ARC
  5
71
100
AcDbEntity
  8
Blade
  6
DASHEDTINY
 62
  256
370
   -1
100
AcDbCircle
 10
835.455485546257
 20
481.3318113552923
 40
13.00028432407588
100
AcDbArc
 50
247.3803752629619
 51
292.6196247369441
  0
ARC
  5
72
100
AcDbEntity
  8
Blade
  6
DASHEDTINY
 62
  256
370
   -1
100
AcDbCircle
 10
825.4171398641922
 20
447.4652053280698
 40
13.00028432407549
100
AcDbArc
 50
67.38037526292354
 51
112.6196247369314
  0
LINE
  5
73
100
AcDbEntity
  8
Blade
  6
DASHEDTINY
 62
  256
370
   -1
100
AcDbLine
 10
795.4167855966293
 20
459.4654887437812
 11
787.9191269029006
 21
459.4654887437813
  0
ARC
  5
74
100
AcDbEntity
  8
Blade
  6
DASHEDTINY
 62
  256
370
   -1
100
AcDbCircle
 10
800.4168446412358
 20
447.4652053280687
 40
13.00028432407645
100
AcDbArc
 50
67.38037526296354
 51
112.6196247373399
  0
LINE
  5
75
100
AcDbEntity
  8
Blade
  6
DASHEDTINY
 62
  256
370
   -1
100
AcDbLine
 10
820.4170808196232
 20
459.4654887437814
 11
805.416903685831
 21
459.4654887437812
  0
DIMENSION
  5
76
100
AcDbEntity
  8
Measurements
  6
ByLayer
 62
  256
370
   -1
100
AcDbDimension
 10
1086.714202802184
 20
490
 30
0
 11
985.9827628946283
 21
491.875
 31
0
 70
   32
 71
    5
  3
Standard
 53
0
210
0
220
0
230
1
100
AcDbAlignedDimension
 13
885.2513229870724
 23
474.6705049307131
 33
0
 14
1086.714202802184
 24
432.408320000198
 34
0
100
AcDbRotatedDimension
  0
DIMENSION
  5
77
100
AcDbEntity
  8
Measurements
  6
ByLayer
 62
  256
370
   -1
100
AcDbDimension
 10
785.4430651436353
 20
490
 30
0
 11
835.3471940653538
 21
491.875
 31
0
 70
   32
 71
    5
  3
Standard
 53
0
210
0
220
0
230
1
100
AcDbAlignedDimension
 13
885.2513229870724
 23
474.6705049307131
 33
0
 14
785.4430651436353
 24
466.8696124805172
 34
0
100
AcDbRotatedDimension
  0
DIMENSION
  5
78
100
AcDbEntity
  8
Measurements
  6
ByLayer
 62
  256
370
   -1
100
AcDbDimension
 10
740
 20
477.672578421481
 30
0
 11
738.125
 21
464.653676936754
 31
0
 70
   32
 71
    5
  3
Standard
 53
0
210
0
220
0
230
1
100
AcDbAlignedDimension
 13
755.8046494433404
 23
451.6347754520271
 33
0
 14
755.8033270608431
 24
477.672578421481
 34
0
 50
90
100
AcDbRotatedDimension
  0
DIMENSION
  5
79
100
AcDbEntity
  8
Measurements
  6
ByLayer
 62
  256
370
   -1
100
AcDbDimension
 10
1086.714202802184
 20
500
 30
0
 11
919.6173901948131
 21
501.875
 31
0
 70
   32
 71
    5
  3
Standard
 53
0
210
0
220
0
230
1
100
AcDbAlignedDimension
 13
752.5205775874419
 23
465.0444240918097
 33
0
 14
1086.714202802184
 24
432.408320000198
 34
0
100
AcDbRotatedDimension
  0
LINE
  5
7A
100
AcDbEntity
  8
Handle
  6
ByLayer
 62
  256
370
   -1
100
AcDbLine
 10
865.2513229870724
 20
476.7433029843714
 11
865.2513229870723
 21
452.6576137667496
  0
MTEXT
  5
7B
100
AcDbEntity
  8
Measurements
  6
ByLayer
 62
  256
370
   -1
100
AcDbMText
 10
760
 20
440
 30
0
 40
5
 41
61.38889146032604
 71
    1
 72
    1
  1
Finnish curly birch
  7
standard
210
0
220
0
230
1
 50
0
 73
    2
 44
1
  0
MTEXT
  5
7C
100
AcDbEntity
  8
Measurements
  6
ByLayer
 62
  256
370
   -1
100
AcDbMText
 10
810
 20
410
 30
0
 40
5
 41
56.52777671776867
 71
    1
 72
    1
  1
Sapele mahogany
  7
standard
210
0
220
0
230
1
 50
0
 73
    2
 44
1
  0
LEADER
  5
7D
100
AcDbEntity
  8
Measurements
  6
ByLayer
 62
  256
370
   -1
100
AcDbLeader
  3
Standard
 71
    1
 72
    0
 73
    3
 74
    0
 75
    0
 40
1
 41
10
 76
4
 76
4
 10
869
 20
456
 30
0
 10
802.1211706007414
 20
409.4904301641833
 30
0
 10
800
 20
400
 30
0
 10
870
 20
400
 30
0
  0
LEADER
  5
7E
100
AcDbEntity
  8
Measurements
  6
ByLayer
 62
  256
370
   -1
100
AcDbLeader
  3
Standard
 71
    1
 72
    0
 73
    3
 74
    0
 75
    0
 40
1
 41
10
 76
3
 76
3
 10
758
 20
455
 30
0
 10
758
 20
433
 30
0
 10
823
 20
433
 30
0
  0
LINE
  5
7F
100
AcDbEntity
  8
Handle
  6
ByLayer
 62
  256
370
   -1
100
AcDbLine
 10
755.8033385895023
 20
477.6725783235961
 11
865.2513229870724
 21
476.7433029843715
  0
LINE
  5
80
100
AcDbEntity
  8
Handle
  6
ByLayer
 62
  256
370
   -1
100
AcDbLine
 10
865.2513229870723
 20
452.6576137667495
 11
755.8046652134431
 21
451.6347755994072
  0
ARC
  5
81
100
AcDbEntity
  8
Handle
  6
ByLayer
 62
   16
420
8388608
370
   -1
100
AcDbCircle
 10
883.3321310678805
 20
474.6705255944045
 40
1.919191919191919
100
AcDbArc
 50
0
 51
89.5135380897685
  0
LINE
  5
82
100
AcDbEntity
  8
Handle
  6
ByLayer
 62
   16
420
8388608
370
   -1
100
AcDbLine
 10
885.2513229870724
 20
474.6705255944045
 11
885.2513229870724
 21
454.7458644176724
  0
ARC
  5
83
100
AcDbEntity
  8
Handle
  6
ByLayer
 62
   16
420
8388608
370
   -1
100
AcDbCircle
 10
883.3321310678805
 20
454.7458644176724
 40
1.919191919191919
100
AcDbArc
 50
270.5354444370014
 51
0
  0
LINE
  5
84
100
AcDbEntity
  8
Handle
  6
ByLayer
 62
   16
420
8388608
370
   -1
100
AcDbLine
 10
865.2513229870724
 20
476.7433029843715
 11
883.3484255062893
 21
476.5896483403403
  0
LINE
  5
85
100
AcDbEntity
  8
Handle
  6
ByLayer
 62
   16
420
8388608
370
   -1
100
AcDbLine
 10
883.3500661703916
 20
452.8267563032637
 11
865.2513229870723
 21
452.6576137667495
  0
LINE
  5
86
100
AcDbEntity
  8
Handle
  6
ByLayer
 62
   16
420
8388608
370
   -1
100
AcDbLine
 10
865.2513229870724
 20
476.7433029843716
 11
865.2513229870723
 21
452.6576137667496
  0
LINE
  5
87
100
AcDbEntity
  8
Blade
  6
ByLayer
 62
  256
370
   -1
100
AcDbLine
 10
885.4548951003443
 20
474.3315279395803
 11
1027.265282646825
 21
474.3315279395802
  0
ARC
  5
88
100
AcDbEntity
  8
Blade
  6
ByLayer
 62
  256
370
   -1
100
AcDbCircle
 10
1027.265282646825
 20
454.3315279395803
 40
20
100
AcDbArc
 50
51.35762890283145
 51
90
  0
LINE
  5
89
100
AcDbEntity
  8
Blade
  6
ByLayer
 62
  256
370
   -1
100
AcDbLine
 10
888.6453122475079
 20
454.4654887437813
 11
885.4069477983165
 21
454.4654887437813
  0
ARC
  5
8A
100
AcDbEntity
  8
Blade
  6
ByLayer
 62
  256
370
   -1
100
AcDbCircle
 10
888.6453122475079
 20
449.4654887437813
 40
5
100
AcDbArc
 50
358.5203642291028
 51
90
  0
LINE
  5
8B
100
AcDbEntity
  8
Blade
  6
DASHEDTINY
 62
  256
370
   -1
100
AcDbLine
 10
882.9129743444853
 20
459.4654887437813
 11
855.4174941317362
 21
459.4654887437825
  0
ARC
  5
8C
100
AcDbEntity
  8
Blade
  6
DASHEDTINY
 62
  256
370
   -1
100
AcDbCircle
 10
850.4174350871485
 20
447.4652053280698
 40
13.00028432407549
100
AcDbArc
 50
67.38037526298605
 51
112.619624736937
  0
LINE
  5
8D
100
AcDbEntity
  8
Blade
  6
DASHEDTINY
 62
  256
370
   -1
100
AcDbLine
 10
845.4173760425781
 20
459.4654887437815
 11
830.4171989087919
 21
459.4654887437816
  0
LINE
  5
8E
100
AcDbEntity
  8
Blade
  6
DASHEDTINY
 62
  256
370
   -1
100
AcDbLine
 10
840.4555445908322
 20
469.3315279395735
 11
882.9488539913666
 21
469.3315279395803
  0
ARC
  5
8F
100
AcDbEntity
  8
Blade
  6
DASHDOTX2
 62
  256
370
   -1
100
AcDbCircle
 10
919.3005776892664
 20
1343.040571892817
 40
898.8933092211386
100
AcDbArc
 50
268.3564579236071
 51
278.9067821771814
  0
LINE
  5
90
100
AcDbEntity
  8
Blade
  6
ByLayer
 62
  256
370
   -1
100
AcDbLine
 10
892.9769040782166
 20
423.5239790259802
 11
893.643645076107
 21
449.3363805157363
  0
LINE
  5
91
100
AcDbEntity
  8
Blade
  6
ByLayer
 62
  256
370
   -1
100
AcDbLine
 10
1039.754430092709
 20
469.9527057464862
 11
1080.495020166874
 21
437.38056280323
  0
ARC
  5
92
100
AcDbEntity
  8
Blade
  6
ByLayer
 62
  256
370
   -1
100
AcDbCircle
 10
919.3005776892664
 20
1343.040571892817
 40
919.8933092211386
100
AcDbArc
 50
268.3601997069763
 51
280.0921402540775
  0
LINE
  5
93
100
AcDbEntity
  8
Blade
  6
DASHEDTINY
 62
  256
370
   -1
100
AcDbLine
 10
870.5345112562198
 20
459.46548874378
 11
860.668472060423
 21
469.3315279395768
  0
LINE
  5
94
100
AcDbEntity
  8
Blade
  6
DASHEDTINY
 62
  256
370
   -1
100
AcDbLine
 10
830.5345112562194
 20
459.4654887437806
 11
820.6684720604295
 21
469.3315279395704
  0
LINE
  5
95
100
AcDbEntity
  8
Blade
  6
DASHEDTINY
 62
  256
370
   -1
100
AcDbLine
 10
809.4654887437811
 20
459.465488743781
 11
819.3315279395702
 21
469.3315279395701
  0
LINE
  5
96
100
AcDbEntity
  8
Blade
  6
DASHEDTINY
 62
  256
370
   -1
100
AcDbLine
 10
810.534511256219
 20
459.465488743781
 11
800.6684720604328
 21
469.3315279395671
  0
LINE
  5
97
100
AcDbEntity
  8
Blade
  6
DASHEDTINY
 62
  256
370
   -1
100
AcDbLine
 10
789.4654887437812
 20
459.4654887437812
 11
799.3315279395669
 21
469.3315279395669
  0
LINE
  5
98
100
AcDbEntity
  8
Blade
  6
DASHEDTINY
 62
  256
370
   -1
100
AcDbLine
 10
790.5345112562188
 20
459.4654887437812
 11
785.4317463830066
 21
464.5682536169933
  0
LINE
  5
99
100
AcDbEntity
  8
Blade
  6
DASHEDTINY
 62
  256
370
   -1
100
AcDbLine
 10
849.5626428555396
 20
460.4373571444605
 11
840.6684720604267
 21
469.3315279395735
  0
LINE
  5
9A
100
AcDbEntity
  8
Blade
  6
DASHEDTINY
 62
  256
370
   -1
100
AcDbLine
 10
850.4654011636069
 20
460.4654011636069
 11
859.3315279395765
 21
469.3315279395765
  0
LINE
  5
9B
100
AcDbEntity
  8
Blade
  6
DASHEDTINY
 62
  256
370
   -1
100
AcDbLine
 10
829.7294402400159
 20
459.7294402400159
 11
838.7579968294075
 21
468.7579968294075
  0
LINE
  5
9C
100
AcDbEntity
  8
Blade
  6
ByLayer
 62
  256
370
   -1
100
AcDbLine
 10
896.5062280932461
 20
202.5060338099995
 11
896.5001797028852
 21
200.0000000000001
  0
LINE
  5
9D
100
AcDbEntity
  8
Blade
  6
ByLayer
 62
  256
370
   -1
100
AcDbLine
 10
896.548127004913
 20
219.8660391957991
 11
896.5421077401274
 21
217.3720730057984
  0
ARC
  5
9E
100
AcDbEntity
  8
Blade
  6
ByLayer
 62
  256
370
   -1
100
AcDbCircle
 10
899.0062208118629
 20
202.5000000000001
 40
2.5
100
AcDbArc
 50
90
 51
179.8617151268078
  0
ARC
  5
9F
100
AcDbEntity
  8
Blade
  6
ByLayer
 62
  256
370
   -1
100
AcDbCircle
 10
899.0421004587442
 20
217.3660391957991
 40
2.5
100
AcDbArc
 50
179.8617151268078
 51
270
  0
ARC
  5
A0
100
AcDbEntity
  8
Blade
  6
ByLayer
 62
  256
370
   -1
100
AcDbCircle
 10
994.0122997628779
 20
207.5000000000001
 40
2.5
100
AcDbArc
 50
270
 51
359.7215542769069
  0
ARC
  5
A1
100
AcDbEntity
  8
Blade
  6
ByLayer
 62
  256
370
   -1
100
AcDbCircle
 10
994.0359479003289
 20
212.3660391957991
 40
2.5
100
AcDbArc
 50
359.7215542769069
 51
90
  0
LINE
  5
A2
100
AcDbEntity
  8
Blade
  6
ByLayer
 62
  256
370
   -1
100
AcDbLine
 10
994.0122997628779
 20
205.0000000000001
 11
976.4999435245022
 21
205.0000000000001
  0
ARC
  5
A3
100
AcDbEntity
  8
Blade
  6
ByLayer
 62
  256
370
   -1
100
AcDbCircle
 10
971.4998844799288
 20
192.9997165842879
 40
13.00028432407617
100
AcDbArc
 50
67.38037526281281
 51
112.619624736852
  0
LINE
  5
A4
100
AcDbEntity
  8
Blade
  6
ByLayer
 62
  256
370
   -1
100
AcDbLine
 10
966.4998254353791
 20
204.9999999999999
 11
951.4996483014891
 21
205.0000000000002
  0
ARC
  5
A5
100
AcDbEntity
  8
Blade
  6
ByLayer
 62
  256
370
   -1
100
AcDbCircle
 10
946.4995892569725
 20
192.9997165842881
 40
13.00028432407588
100
AcDbArc
 50
67.38037526296192
 51
112.6196247369441
  0
ARC
  5
A6
100
AcDbEntity
  8
Blade
  6
ByLayer
 62
  256
370
   -1
100
AcDbCircle
 10
956.5379349390373
 20
226.8663226115106
 40
13.00028432407549
100
AcDbArc
 50
247.3803752629235
 51
292.6196247369314
  0
LINE
  5
A7
100
AcDbEntity
  8
Blade
  6
ByLayer
 62
  256
370
   -1
100
AcDbLine
 10
986.5382892066002
 20
214.8660391957992
 11
994.0359479003289
 21
214.8660391957991
  0
ARC
  5
A8
100
AcDbEntity
  8
Blade
  6
ByLayer
 62
  256
370
   -1
100
AcDbCircle
 10
981.5382301619937
 20
226.8663226115117
 40
13.00028432407645
100
AcDbArc
 50
247.3803752629636
 51
292.6196247373399
  0
LINE
  5
A9
100
AcDbEntity
  8
Blade
  6
ByLayer
 62
  256
370
   -1
100
AcDbLine
 10
961.5379939836064
 20
214.866039195799
 11
976.5381711173985
 21
214.8660391957992
  0
ARC
  5
AA
100
AcDbEntity
  8
Blade
  6
ByLayer
 62
  256
370
   -1
100
AcDbCircle
 10
754.6897921564046
 20
220.0000000000001
 40
20
100
AcDbArc
 50
231.3576289028314
 51
270
  0
LINE
  5
AB
100
AcDbEntity
  8
Blade
  6
ByLayer
 62
  256
370
   -1
100
AcDbLine
 10
893.3097625557216
 20
219.8660391957991
 11
896.548127004913
 21
219.8660391957991
  0
ARC
  5
AC
100
AcDbEntity
  8
Blade
  6
ByLayer
 62
  256
370
   -1
100
AcDbCircle
 10
893.3097625557216
 20
224.8660391957991
 40
5
100
AcDbArc
 50
178.5203642291027
 51
270
  0
LINE
  5
AD
100
AcDbEntity
  8
Blade
  6
ByLayer
 62
  256
370
   -1
100
AcDbLine
 10
899.0421004587442
 20
214.8660391957991
 11
926.5375806714933
 21
214.8660391957978
  0
ARC
  5
AE
100
AcDbEntity
  8
Blade
  6
ByLayer
 62
  256
370
   -1
100
AcDbCircle
 10
931.537639716081
 20
226.8663226115106
 40
13.00028432407549
100
AcDbArc
 50
247.380375262986
 51
292.6196247369369
  0
LINE
  5
AF
100
AcDbEntity
  8
Blade
  6
ByLayer
 62
  256
370
   -1
100
AcDbLine
 10
936.5376987606514
 20
214.866039195799
 11
951.5378758944377
 21
214.8660391957989
  0
LINE
  5
B0
100
AcDbEntity
  8
Blade
  6
ByLayer
 62
  256
370
   -1
100
AcDbLine
 10
941.4995302123973
 20
205.0000000000069
 11
899.0062208118629
 21
205.0000000000001
  0
ARC
  5
B1
100
AcDbEntity
  8
Blade
  6
ByLayer
 62
  256
370
   -1
100
AcDbCircle
 10
862.654497113963
 20
-668.7090439532367
 40
898.8933092211386
100
AcDbArc
 50
88.35645792360714
 51
98.90678217718148
  0
LINE
  5
B2
100
AcDbEntity
  8
Blade
  6
ByLayer
 62
  256
370
   -1
100
AcDbLine
 10
888.9781707250129
 20
250.8075489136002
 11
888.3114297271226
 21
224.9951474238441
  0
LINE
  5
B3
100
AcDbEntity
  8
Blade
  6
ByLayer
 62
  256
370
   -1
100
AcDbLine
 10
742.2006447105205
 20
204.3788221930943
 11
701.4600546363556
 21
236.9509651363505
  0
ARC
  5
B4
100
AcDbEntity
  8
Blade
  6
ByLayer
 62
  256
370
   -1
100
AcDbCircle
 10
862.654497113963
 20
-668.7090439532367
 40
919.8933092211386
100
AcDbArc
 50
88.36019970697629
 51
100.0921402540775
  0
LINE
  5
B5
100
AcDbEntity
  8
Blade
  6
ByLayer
 62
  256
370
   -1
100
AcDbLine
 10
911.4205635470097
 20
214.8660391958005
 11
921.2866027428065
 21
205.0000000000036
  0
LINE
  5
B6
100
AcDbEntity
  8
Blade
  6
ByLayer
 62
  256
370
   -1
100
AcDbLine
 10
951.4205635470101
 20
214.8660391957998
 11
961.2866027428
 21
205.00000000001
  0
LINE
  5
B7
100
AcDbEntity
  8
Blade
  6
ByLayer
 62
  256
370
   -1
100
AcDbLine
 10
972.4895860594485
 20
214.8660391957994
 11
962.6235468636594
 21
205.0000000000103
  0
LINE
  5
B8
100
AcDbEntity
  8
Blade
  6
ByLayer
 62
  256
370
   -1
100
AcDbLine
 10
971.4205635470105
 20
214.8660391957994
 11
981.2866027427967
 21
205.0000000000133
  0
LINE
  5
B9
100
AcDbEntity
  8
Blade
  6
ByLayer
 62
  256
370
   -1
100
AcDbLine
 10
992.4895860594484
 20
214.8660391957992
 11
982.6235468636627
 21
205.0000000000135
  0
LINE
  5
BA
100
AcDbEntity
  8
Blade
  6
ByLayer
 62
  256
370
   -1
100
AcDbLine
 10
991.4205635470107
 20
214.8660391957992
 11
996.5233284202229
 21
209.7632743225871
  0
LINE
  5
BB
100
AcDbEntity
  8
Blade
  6
ByLayer
 62
  256
370
   -1
100
AcDbLine
 10
932.3924319476899
 20
213.89417079512
 11
941.2866027428029
 21
205.0000000000069
  0
LINE
  5
BC
100
AcDbEntity
  8
Blade
  6
ByLayer
 62
  256
370
   -1
100
AcDbLine
 10
931.4896736396227
 20
213.8661267759735
 11
922.623546863653
 21
205.0000000000039
  0
LINE
  5
BD
100
AcDbEntity
  8
Blade
  6
ByLayer
 62
  256
370
   -1
100
AcDbLine
 10
952.2256345632136
 20
214.6020876995644
 11
943.197077973822
 21
205.5735311101729
  0
LINE
  5
BE
100
AcDbEntity
  8
Blade
  6
ByLayer
 62
  256
370
   -1
100
AcDbLine
 10
996.4758805383084
 20
200
 11
754.6897921564046
 21
200.0000000000003
  0
LINE
  5
BF
100
AcDbEntity
  8
Blade
  6
ByLayer
 62
  256
370
   -1
100
AcDbLine
 10
996.535918378382
 20
212.3538897569824
 11
996.4758805383084
 21
200
  0
LINE
  5
C0
100
AcDbEntity
  8
Blade
  6
ByLayer
 62
  256
370
   -1
100
AcDbLine
 10
1501.997121216467
 20
248.4939661900005
 11
1502.003169606828
 21
250.9999999999999
  0
LINE
  5
C1
100
AcDbEntity
  8
Blade
  6
ByLayer
 62
  256
370
   -1
100
AcDbLine
 10
1501.9552223048
 20
231.1339608042009
 11
1501.961241569586
 21
233.6279269942016
  0
ARC
  5
C2
100
AcDbEntity
  8
Blade
  6
ByLayer
 62
  256
370
   -1
100
AcDbCircle
 10
1499.497128497851
 20
248.4999999999999
 40
2.5
100
AcDbArc
 50
270
 51
359.8617151268077
  0
ARC
  5
C3
100
AcDbEntity
  8
Blade
  6
ByLayer
 62
  256
370
   -1
100
AcDbCircle
 10
1499.461248850969
 20
233.6339608042009
 40
2.5
100
AcDbArc
 50
359.8617151268077
 51
90
  0
ARC
  5
C4
100
AcDbEntity
  8
Blade
  6
ByLayer
 62
  256
370
   -1
100
AcDbCircle
 10
1404.491049546835
 20
243.4999999999999
 40
2.5
100
AcDbArc
 50
90
 51
179.7215542769069
  0
ARC
  5
C5
100
AcDbEntity
  8
Blade
  6
ByLayer
 62
  256
370
   -1
100
AcDbCircle
 10
1404.467401409384
 20
238.6339608042009
 40
2.5
100
AcDbArc
 50
179.7215542769069
 51
270
  0
LINE
  5
C6
100
AcDbEntity
  8
Blade
  6
ByLayer
 62
  256
370
   -1
100
AcDbLine
 10
1404.491049546835
 20
245.9999999999999
 11
1422.003405785211
 21
245.9999999999999
  0
ARC
  5
C7
100
AcDbEntity
  8
Blade
  6
ByLayer
 62
  256
370
   -1
100
AcDbCircle
 10
1427.003464829785
 20
258.0002834157121
 40
13.00028432407617
100
AcDbArc
 50
247.3803752628128
 51
292.619624736852
  0
LINE
  5
C8
100
AcDbEntity
  8
Blade
  6
ByLayer
 62
  256
370
   -1
100
AcDbLine
 10
1432.003523874334
 20
246.0000000000001
 11
1447.003701008224
 21
245.9999999999998
  0
ARC
  5
C9
100
AcDbEntity
  8
Blade
  6
ByLayer
 62
  256
370
   -1
100
AcDbCircle
 10
1452.003760052741
 20
258.0002834157119
 40
13.00028432407588
100
AcDbArc
 50
247.3803752629619
 51
292.6196247369441
  0
ARC
  5
CA
100
AcDbEntity
  8
Blade
  6
ByLayer
 62
  256
370
   -1
100
AcDbCircle
 10
1441.965414370676
 20
224.1336773884894
 40
13.00028432407549
100
AcDbArc
 50
67.38037526292354
 51
112.6196247369314
  0
LINE
  5
CB
100
AcDbEntity
  8
Blade
  6
ByLayer
 62
  256
370
   -1
100
AcDbLine
 10
1411.965060103113
 20
236.1339608042008
 11
1404.467401409384
 21
236.1339608042009
  0
ARC
  5
CC
100
AcDbEntity
  8
Blade
  6
ByLayer
 62
  256
370
   -1
100
AcDbCircle
 10
1416.96511914772
 20
224.1336773884883
 40
13.00028432407645
100
AcDbArc
 50
67.38037526296354
 51
112.6196247373399
  0
LINE
  5
CD
100
AcDbEntity
  8
Blade
  6
ByLayer
 62
  256
370
   -1
100
AcDbLine
 10
1436.965355326107
 20
236.133960804201
 11
1421.965178192315
 21
236.1339608042008
  0
ARC
  5
CE
100
AcDbEntity
  8
Blade
  6
ByLayer
 62
  256
370
   -1
100
AcDbCircle
 10
1643.813557153309
 20
230.9999999999999
 40
20
100
AcDbArc
 50
51.35762890283145
 51
90
  0
LINE
  5
CF
100
AcDbEntity
  8
Blade
  6
ByLayer
 62
  256
370
   -1
100
AcDbLine
 10
1505.193586753992
 20
231.1339608042009
 11
1501.9552223048
 21
231.1339608042009
  0
ARC
  5
D0
100
AcDbEntity
  8
Blade
  6
ByLayer
 62
  256
370
   -1
100
AcDbCircle
 10
1505.193586753992
 20
226.1339608042009
 40
5
100
AcDbArc
 50
358.5203642291028
 51
90
  0
LINE
  5
D1
100
AcDbEntity
  8
Blade
  6
ByLayer
 62
  256
370
   -1
100
AcDbLine
 10
1499.461248850969
 20
236.1339608042009
 11
1471.96576863822
 21
236.1339608042021
  0
ARC
  5
D2
100
AcDbEntity
  8
Blade
  6
ByLayer
 62
  256
370
   -1
100
AcDbCircle
 10
1466.965709593632
 20
224.1336773884894
 40
13.00028432407549
100
AcDbArc
 50
67.38037526298605
 51
112.619624736937
  0
LINE
  5
D3
100
AcDbEntity
  8
Blade
  6
ByLayer
 62
  256
370
   -1
100
AcDbLine
 10
1461.965650549062
 20
236.1339608042011
 11
1446.965473415276
 21
236.1339608042012
  0
LINE
  5
D4
100
AcDbEntity
  8
Blade
  6
ByLayer
 62
  256
370
   -1
100
AcDbLine
 10
1457.003819097316
 20
245.9999999999931
 11
1499.497128497851
 21
245.9999999999999
  0
ARC
  5
D5
100
AcDbEntity
  8
Blade
  6
ByLayer
 62
  256
370
   -1
100
AcDbCircle
 10
1535.84885219575
 20
1119.709043953237
 40
898.8933092211386
100
AcDbArc
 50
268.3564579236071
 51
278.9067821771814
  0
LINE
  5
D6
100
AcDbEntity
  8
Blade
  6
ByLayer
 62
  256
370
   -1
100
AcDbLine
 10
1509.5251785847
 20
200.1924510863998
 11
1510.191919582591
 21
226.0048525761559
  0
LINE
  5
D7
100
AcDbEntity
  8
Blade
  6
ByLayer
 62
  256
370
   -1
100
AcDbLine
 10
1656.302704599193
 20
246.6211778069058
 11
1697.043294673358
 21
214.0490348636496
  0
ARC
  5
D8
100
AcDbEntity
  8
Blade
  6
ByLayer
 62
  256
370
   -1
100
AcDbCircle
 10
1535.84885219575
 20
1119.709043953237
 40
919.8933092211386
100
AcDbArc
 50
268.3601997069763
 51
280.0921402540775
  0
LINE
  5
D9
100
AcDbEntity
  8
Blade
  6
ByLayer
 62
  256
370
   -1
100
AcDbLine
 10
1487.082785762704
 20
236.1339608041996
 11
1477.216746566907
 21
245.9999999999964
  0
LINE
  5
DA
100
AcDbEntity
  8
Blade
  6
ByLayer
 62
  256
370
   -1
100
AcDbLine
 10
1447.082785762703
 20
236.1339608042002
 11
1437.216746566913
 21
245.99999999999
  0
LINE
  5
DB
100
AcDbEntity
  8
Blade
  6
ByLayer
 62
  256
370
   -1
100
AcDbLine
 10
1426.013763250265
 20
236.1339608042006
 11
1435.879802446054
 21
245.9999999999897
  0
LINE
  5
DC
100
AcDbEntity
  8
Blade
  6
ByLayer
 62
  256
370
   -1
100
AcDbLine
 10
1427.082785762703
 20
236.1339608042005
 11
1417.216746566917
 21
245.9999999999867
  0
LINE
  5
DD
100
AcDbEntity
  8
Blade
  6
ByLayer
 62
  256
370
   -1
100
AcDbLine
 10
1406.013763250265
 20
236.1339608042008
 11
1415.879802446051
 21
245.9999999999865
  0
LINE
  5
DE
100
AcDbEntity
  8
Blade
  6
ByLayer
 62
  256
370
   -1
100
AcDbLine
 10
1407.082785762703
 20
236.1339608042008
 11
1401.98002088949
 21
241.2367256774129
  0
LINE
  5
DF
100
AcDbEntity
  8
Blade
  6
ByLayer
 62
  256
370
   -1
100
AcDbLine
 10
1466.110917362023
 20
237.1058292048801
 11
1457.21674656691
 21
245.9999999999931
  0
LINE
  5
E0
100
AcDbEntity
  8
Blade
  6
ByLayer
 62
  256
370
   -1
100
AcDbLine
 10
1467.013675670091
 20
237.1338732240265
 11
1475.87980244606
 21
245.9999999999961
  0
LINE
  5
E1
100
AcDbEntity
  8
Blade
  6
ByLayer
 62
  256
370
   -1
100
AcDbLine
 10
1446.2777147465
 20
236.3979123004355
 11
1455.306271335891
 21
245.4264688898271
  0
LINE
  5
E2
100
AcDbEntity
  8
Blade
  6
ByLayer
 62
  256
370
   -1
100
AcDbLine
 10
1402.027468771405
 20
251
 11
1643.813557153309
 21
250.9999999999998
  0
LINE
  5
E3
100
AcDbEntity
  8
Blade
  6
ByLayer
 62
  256
370
   -1
100
AcDbLine
 10
1401.967430931331
 20
238.6461102430176
 11
1402.027468771405
 21
251
  0
LINE
  5
E4
100
AcDbEntity
  8
Blade
  6
ByLayer
 62
  256
370
   -1
100
AcDbLine
 10
1393.384646534365
 20
202.5060338099995
 11
1393.378598144004
 21
200.0000000000001
  0
LINE
  5
E5
100
AcDbEntity
  8
Blade
  6
ByLayer
 62
  256
370
   -1
100
AcDbLine
 10
1393.426545446032
 20
219.8660391957991
 11
1393.420526181247
 21
217.3720730057984
  0
ARC
  5
E6
100
AcDbEntity
  8
Blade
  6
ByLayer
 62
  256
370
   -1
100
AcDbCircle
 10
1395.884639252982
 20
202.5000000000001
 40
2.5
100
AcDbArc
 50
90
 51
179.8617151268078
  0
ARC
  5
E7
100
AcDbEntity
  8
Blade
  6
ByLayer
 62
  256
370
   -1
100
AcDbCircle
 10
1395.920518899864
 20
217.3660391957991
 40
2.5
100
AcDbArc
 50
179.8617151268078
 51
270
  0
ARC
  5
E8
100
AcDbEntity
  8
Blade
  6
ByLayer
 62
  256
370
   -1
100
AcDbCircle
 10
1490.890718203997
 20
207.5000000000001
 40
2.5
100
AcDbArc
 50
270
 51
359.7215542769069
  0
ARC
  5
E9
100
AcDbEntity
  8
Blade
  6
ByLayer
 62
  256
370
   -1
100
AcDbCircle
 10
1490.914366341448
 20
212.3660391957991
 40
2.5
100
AcDbArc
 50
359.7215542769069
 51
90
  0
LINE
  5
EA
100
AcDbEntity
  8
Blade
  6
ByLayer
 62
  256
370
   -1
100
AcDbLine
 10
1490.890718203997
 20
205.0000000000001
 11
1473.378361965621
 21
205.0000000000001
  0
ARC
  5
EB
100
AcDbEntity
  8
Blade
  6
ByLayer
 62
  256
370
   -1
100
AcDbCircle
 10
1468.378302921048
 20
192.9997165842879
 40
13.00028432407617
100
AcDbArc
 50
67.38037526281281
 51
112.619624736852
  0
LINE
  5
EC
100
AcDbEntity
  8
Blade
  6
ByLayer
 62
  256
370
   -1
100
AcDbLine
 10
1463.378243876498
 20
204.9999999999999
 11
1448.378066742608
 21
205.0000000000002
  0
ARC
  5
ED
100
AcDbEntity
  8
Blade
  6
ByLayer
 62
  256
370
   -1
100
AcDbCircle
 10
1443.378007698092
 20
192.9997165842881
 40
13.00028432407588
100
AcDbArc
 50
67.38037526296192
 51
112.6196247369441
  0
ARC
  5
EE
100
AcDbEntity
  8
Blade
  6
ByLayer
 62
  256
370
   -1
100
AcDbCircle
 10
1453.416353380157
 20
226.8663226115106
 40
13.00028432407549
100
AcDbArc
 50
247.3803752629235
 51
292.6196247369314
  0
LINE
  5
EF
100
AcDbEntity
  8
Blade
  6
ByLayer
 62
  256
370
   -1
100
AcDbLine
 10
1483.416707647719
 20
214.8660391957992
 11
1490.914366341448
 21
214.8660391957991
  0
ARC
  5
F0
100
AcDbEntity
  8
Blade
  6
ByLayer
 62
  256
370
   -1
100
AcDbCircle
 10
1478.416648603113
 20
226.8663226115117
 40
13.00028432407645
100
AcDbArc
 50
247.3803752629636
 51
292.6196247373399
  0
LINE
  5
F1
100
AcDbEntity
  8
Blade
  6
ByLayer
 62
  256
370
   -1
100
AcDbLine
 10
1458.416412424726
 20
214.866039195799
 11
1473.416589558518
 21
214.8660391957992
  0
ARC
  5
F2
100
AcDbEntity
  8
Blade
  6
ByLayer
 62
  256
370
   -1
100
AcDbCircle
 10
1251.568210597524
 20
220.0000000000001
 40
20
100
AcDbArc
 50
231.3576289028314
 51
270
  0
LINE
  5
F3
100
AcDbEntity
  8
Blade
  6
ByLayer
 62
  256
370
   -1
100
AcDbLine
 10
1390.188180996841
 20
219.8660391957991
 11
1393.426545446032
 21
219.8660391957991
  0
ARC
  5
F4
100
AcDbEntity
  8
Blade
  6
ByLayer
 62
  256
370
   -1
100
AcDbCircle
 10
1390.188180996841
 20
224.8660391957991
 40
5
100
AcDbArc
 50
178.5203642291027
 51
270
  0
LINE
  5
F5
100
AcDbEntity
  8
Blade
  6
ByLayer
 62
  256
370
   -1
100
AcDbLine
 10
1395.920518899864
 20
214.8660391957991
 11
1423.415999112613
 21
214.8660391957978
  0
ARC
  5
F6
100
AcDbEntity
  8
Blade
  6
ByLayer
 62
  256
370
   -1
100
AcDbCircle
 10
1428.4160581572
 20
226.8663226115106
 40
13.00028432407549
100
AcDbArc
 50
247.380375262986
 51
292.6196247369369
  0
LINE
  5
F7
100
AcDbEntity
  8
Blade
  6
ByLayer
 62
  256
370
   -1
100
AcDbLine
 10
1433.416117201771
 20
214.866039195799
 11
1448.416294335557
 21
214.8660391957989
  0
LINE
  5
F8
100
AcDbEntity
  8
Blade
  6
ByLayer
 62
  256
370
   -1
100
AcDbLine
 10
1438.377948653517
 20
205.0000000000069
 11
1395.884639252982
 21
205.0000000000001
  0
ARC
  5
F9
100
AcDbEntity
  8
Blade
  6
ByLayer
 62
  256
370
   -1
100
AcDbCircle
 10
1359.532915555082
 20
-668.7090439532367
 40
898.8933092211386
100
AcDbArc
 50
88.35645792360714
 51
98.90678217718148
  0
LINE
  5
FA
100
AcDbEntity
  8
Blade
  6
ByLayer
 62
  256
370
   -1
100
AcDbLine
 10
1385.856589166132
 20
250.8075489136002
 11
1385.189848168242
 21
224.9951474238441
  0
LINE
  5
FB
100
AcDbEntity
  8
Blade
  6
ByLayer
 62
  256
370
   -1
100
AcDbLine
 10
1239.07906315164
 20
204.3788221930943
 11
1198.338473077475
 21
236.9509651363505
  0
ARC
  5
FC
100
AcDbEntity
  8
Blade
  6
ByLayer
 62
  256
370
   -1
100
AcDbCircle
 10
1359.532915555082
 20
-668.7090439532367
 40
919.8933092211386
100
AcDbArc
 50
88.36019970697629
 51
100.0921402540775
  0
LINE
  5
FD
100
AcDbEntity
  8
Blade
  6
ByLayer
 62
  256
370
   -1
100
AcDbLine
 10
1408.298981988129
 20
214.8660391958005
 11
1418.165021183926
 21
205.0000000000036
  0
LINE
  5
FE
100
AcDbEntity
  8
Blade
  6
ByLayer
 62
  256
370
   -1
100
AcDbLine
 10
1448.298981988129
 20
214.8660391957998
 11
1458.165021183919
 21
205.00000000001
  0
LINE
  5
FF
100
AcDbEntity
  8
Blade
  6
ByLayer
 62
  256
370
   -1
100
AcDbLine
 10
1469.368004500568
 20
214.8660391957994
 11
1459.501965304779
 21
205.0000000000103
  0
LINE
  5
100
100
AcDbEntity
  8
Blade
  6
ByLayer
 62
  256
370
   -1
100
AcDbLine
 10
1468.29898198813
 20
214.8660391957994
 11
1478.165021183916
 21
205.0000000000133
  0
LINE
  5
101
100
AcDbEntity
  8
Blade
  6
ByLayer
 62
  256
370
   -1
100
AcDbLine
 10
1489.368004500568
 20
214.8660391957992
 11
1479.501965304782
 21
205.0000000000135
  0
LINE
  5
102
100
AcDbEntity
  8
Blade
  6
ByLayer
 62
  256
370
   -1
100
AcDbLine
 10
1488.29898198813
 20
214.8660391957992
 11
1493.401746861342
 21
209.7632743225871
  0
LINE
  5
103
100
AcDbEntity
  8
Blade
  6
ByLayer
 62
  256
370
   -1
100
AcDbLine
 10
1429.270850388809
 20
213.89417079512
 11
1438.165021183922
 21
205.0000000000069
  0
LINE
  5
104
100
AcDbEntity
  8
Blade
  6
ByLayer
 62
  256
370
   -1
100
AcDbLine
 10
1428.368092080742
 20
213.8661267759735
 11
1419.501965304772
 21
205.0000000000039
  0
LINE
  5
105
100
AcDbEntity
  8
Blade
  6
ByLayer
 62
  256
370
   -1
100
AcDbLine
 10
1449.104053004333
 20
214.6020876995644
 11
1440.075496414941
 21
205.5735311101729
  0
LINE
  5
106
100
AcDbEntity
  8
Blade
  6
ByLayer
 62
  256
370
   -1
100
AcDbLine
 10
1493.354298979428
 20
200
 11
1251.568210597524
 21
200.0000000000003
  0
LINE
  5
107
100
AcDbEntity
  8
Blade
  6
ByLayer
 62
  256
370
   -1
100
AcDbLine
 10
1493.414336819501
 20
212.3538897569824
 11
1493.354298979428
 21
200
  0
LINE
  5
108
100
AcDbEntity
  8
Blade
  6
ByLayer
 62
  256
370
   -1
100
AcDbLine
 10
1021.993857005385
 20
248.4939661900005
 11
1021.999905395746
 21
250.9999999999999
  0
LINE
  5
109
100
AcDbEntity
  8
Blade
  6
ByLayer
 62
  256
370
   -1
100
AcDbLine
 10
1021.951958093718
 20
231.1339608042009
 11
1021.957977358504
 21
233.6279269942016
  0
ARC
  5
10A
100
AcDbEntity
  8
Blade
  6
ByLayer
 62
  256
370
   -1
100
AcDbCircle
 10
1019.493864286768
 20
248.4999999999999
 40
2.5
100
AcDbArc
 50
270
 51
359.8617151268077
  0
ARC
  5
10B
100
AcDbEntity
  8
Blade
  6
ByLayer
 62
  256
370
   -1
100
AcDbCircle
 10
1019.457984639887
 20
233.6339608042009
 40
2.5
100
AcDbArc
 50
359.8617151268077
 51
90
  0
ARC
  5
10C
100
AcDbEntity
  8
Blade
  6
ByLayer
 62
  256
370
   -1
100
AcDbCircle
 10
924.4877853357532
 20
243.4999999999999
 40
2.5
100
AcDbArc
 50
90
 51
179.7215542769069
  0
ARC
  5
10D
100
AcDbEntity
  8
Blade
  6
ByLayer
 62
  256
370
   -1
100
AcDbCircle
 10
924.4641371983022
 20
238.6339608042009
 40
2.5
100
AcDbArc
 50
179.7215542769069
 51
270
  0
LINE
  5
10E
100
AcDbEntity
  8
Blade
  6
ByLayer
 62
  256
370
   -1
100
AcDbLine
 10
924.4877853357532
 20
245.9999999999999
 11
942.0001415741289
 21
245.9999999999999
  0
ARC
  5
10F
100
AcDbEntity
  8
Blade
  6
ByLayer
 62
  256
370
   -1
100
AcDbCircle
 10
947.0002006187023
 20
258.0002834157121
 40
13.00028432407617
100
AcDbArc
 50
247.3803752628128
 51
292.619624736852
  0
LINE
  5
110
100
AcDbEntity
  8
Blade
  6
ByLayer
 62
  256
370
   -1
100
AcDbLine
 10
952.000259663252
 20
246.0000000000001
 11
967.000436797142
 21
245.9999999999998
  0
ARC
  5
111
100
AcDbEntity
  8
Blade
  6
ByLayer
 62
  256
370
   -1
100
AcDbCircle
 10
972.0004958416586
 20
258.0002834157119
 40
13.00028432407588
100
AcDbArc
 50
247.3803752629619
 51
292.6196247369441
  0
ARC
  5
112
100
AcDbEntity
  8
Blade
  6
ByLayer
 62
  256
370
   -1
100
AcDbCircle
 10
961.9621501595938
 20
224.1336773884894
 40
13.00028432407549
100
AcDbArc
 50
67.38037526292354
 51
112.6196247369314
  0
LINE
  5
113
100
AcDbEntity
  8
Blade
  6
ByLayer
 62
  256
370
   -1
100
AcDbLine
 10
931.9617958920309
 20
236.1339608042008
 11
924.4641371983022
 21
236.1339608042009
  0
ARC
  5
114
100
AcDbEntity
  8
Blade
  6
ByLayer
 62
  256
370
   -1
100
AcDbCircle
 10
936.9618549366373
 20
224.1336773884883
 40
13.00028432407645
100
AcDbArc
 50
67.38037526296354
 51
112.6196247373399
  0
LINE
  5
115
100
AcDbEntity
  8
Blade
  6
ByLayer
 62
  256
370
   -1
100
AcDbLine
 10
956.9620911150247
 20
236.133960804201
 11
941.9619139812326
 21
236.1339608042008
  0
ARC
  5
116
100
AcDbEntity
  8
Blade
  6
ByLayer
 62
  256
370
   -1
100
AcDbCircle
 10
1163.810292942226
 20
230.9999999999999
 40
20
100
AcDbArc
 50
51.35762890283145
 51
90
  0
LINE
  5
117
100
AcDbEntity
  8
Blade
  6
ByLayer
 62
  256
370
   -1
100
AcDbLine
 10
1025.19032254291
 20
231.1339608042009
 11
1021.951958093718
 21
231.1339608042009
  0
ARC
  5
118
100
AcDbEntity
  8
Blade
  6
ByLayer
 62
  256
370
   -1
100
AcDbCircle
 10
1025.19032254291
 20
226.1339608042009
 40
5
100
AcDbArc
 50
358.5203642291028
 51
90
  0
LINE
  5
119
100
AcDbEntity
  8
Blade
  6
ByLayer
 62
  256
370
   -1
100
AcDbLine
 10
1019.457984639887
 20
236.1339608042009
 11
991.9625044271378
 21
236.1339608042021
  0
ARC
  5
11A
100
AcDbEntity
  8
Blade
  6
ByLayer
 62
  256
370
   -1
100
AcDbCircle
 10
986.9624453825501
 20
224.1336773884894
 40
13.00028432407549
100
AcDbArc
 50
67.38037526298605
 51
112.619624736937
  0
LINE
  5
11B
100
AcDbEntity
  8
Blade
  6
ByLayer
 62
  256
370
   -1
100
AcDbLine
 10
981.9623863379796
 20
236.1339608042011
 11
966.9622092041934
 21
236.1339608042012
  0
LINE
  5
11C
100
AcDbEntity
  8
Blade
  6
ByLayer
 62
  256
370
   -1
100
AcDbLine
 10
977.0005548862338
 20
245.9999999999931
 11
1019.493864286768
 21
245.9999999999999
  0
ARC
  5
11D
100
AcDbEntity
  8
Blade
  6
ByLayer
 62
  256
370
   -1
100
AcDbCircle
 10
1055.845587984668
 20
1119.709043953237
 40
898.8933092211386
100
AcDbArc
 50
268.3564579236071
 51
278.9067821771814
  0
LINE
  5
11E
100
AcDbEntity
  8
Blade
  6
ByLayer
 62
  256
370
   -1
100
AcDbLine
 10
1029.521914373618
 20
200.1924510863998
 11
1030.188655371509
 21
226.0048525761559
  0
LINE
  5
11F
100
AcDbEntity
  8
Blade
  6
ByLayer
 62
  256
370
   -1
100
AcDbLine
 10
1176.29944038811
 20
246.6211778069058
 11
1217.040030462276
 21
214.0490348636496
  0
ARC
  5
120
100
AcDbEntity
  8
Blade
  6
ByLayer
 62
  256
370
   -1
100
AcDbCircle
 10
1055.845587984668
 20
1119.709043953237
 40
919.8933092211386
100
AcDbArc
 50
268.3601997069763
 51
280.0921402540775
  0
LINE
  5
121
100
AcDbEntity
  8
Blade
  6
ByLayer
 62
  256
370
   -1
100
AcDbLine
 10
1007.079521551621
 20
236.1339608041996
 11
997.2134823558246
 21
245.9999999999964
  0
LINE
  5
122
100
AcDbEntity
  8
Blade
  6
ByLayer
 62
  256
370
   -1
100
AcDbLine
 10
967.0795215516209
 20
236.1339608042002
 11
957.213482355831
 21
245.99999999999
  0
LINE
  5
123
100
AcDbEntity
  8
Blade
  6
ByLayer
 62
  256
370
   -1
100
AcDbLine
 10
946.0104990391826
 20
236.1339608042006
 11
955.8765382349717
 21
245.9999999999897
  0
LINE
  5
124
100
AcDbEntity
  8
Blade
  6
ByLayer
 62
  256
370
   -1
100
AcDbLine
 10
947.0795215516206
 20
236.1339608042005
 11
937.2134823558343
 21
245.9999999999867
  0
LINE
  5
125
100
AcDbEntity
  8
Blade
  6
ByLayer
 62
  256
370
   -1
100
AcDbLine
 10
926.0104990391827
 20
236.1339608042008
 11
935.8765382349684
 21
245.9999999999865
  0
LINE
  5
126
100
AcDbEntity
  8
Blade
  6
ByLayer
 62
  256
370
   -1
100
AcDbLine
 10
927.0795215516204
 20
236.1339608042008
 11
921.9767566784082
 21
241.2367256774129
  0
LINE
  5
127
100
AcDbEntity
  8
Blade
  6
ByLayer
 62
  256
370
   -1
100
AcDbLine
 10
986.1076531509411
 20
237.1058292048801
 11
977.2134823558282
 21
245.9999999999931
  0
LINE
  5
128
100
AcDbEntity
  8
Blade
  6
ByLayer
 62
  256
370
   -1
100
AcDbLine
 10
987.0104114590084
 20
237.1338732240265
 11
995.8765382349781
 21
245.9999999999961
  0
LINE
  5
129
100
AcDbEntity
  8
Blade
  6
ByLayer
 62
  256
370
   -1
100
AcDbLine
 10
966.2744505354175
 20
236.3979123004355
 11
975.303007124809
 21
245.4264688898271
  0
LINE
  5
12A
100
AcDbEntity
  8
Blade
  6
ByLayer
 62
  256
370
   -1
100
AcDbLine
 10
922.0242045603227
 20
251
 11
1163.810292942226
 21
250.9999999999998
  0
LINE
  5
12B
100
AcDbEntity
  8
Blade
  6
ByLayer
 62
  256
370
   -1
100
AcDbLine
 10
921.9641667202491
 20
238.6461102430176
 11
922.0242045603227
 21
251
  0
LINE
  5
12C
100
AcDbEntity
  8
Blade
  6
ByLayer
 62
  256
370
   -1
100
AcDbLine
 10
895.0461734568905
 20
65.55506867364903
 11
895.0401250665296
 21
63.04903486364964
  0
LINE
  5
12D
100
AcDbEntity
  8
Blade
  6
ByLayer
 62
  256
370
   -1
100
AcDbLine
 10
895.0880723685574
 20
82.91507405944861
 11
895.0820531037718
 21
80.42110786944789
  0
ARC
  5
12E
100
AcDbEntity
  8
Blade
  6
ByLayer
 62
  256
370
   -1
100
AcDbCircle
 10
897.5461661755073
 20
65.54903486364964
 40
2.5
100
AcDbArc
 50
90
 51
179.8617151268078
  0
ARC
  5
12F
100
AcDbEntity
  8
Blade
  6
ByLayer
 62
  256
370
   -1
100
AcDbCircle
 10
897.5820458223886
 20
80.41507405944861
 40
2.5
100
AcDbArc
 50
179.8617151268078
 51
270
  0
ARC
  5
130
100
AcDbEntity
  8
Blade
  6
ByLayer
 62
  256
370
   -1
100
AcDbCircle
 10
992.5522451265223
 20
70.54903486364964
 40
2.5
100
AcDbArc
 50
270
 51
359.7215542769069
  0
ARC
  5
131
100
AcDbEntity
  8
Blade
  6
ByLayer
 62
  256
370
   -1
100
AcDbCircle
 10
992.5758932639733
 20
75.41507405944861
 40
2.5
100
AcDbArc
 50
359.7215542769069
 51
90
  0
LINE
  5
132
100
AcDbEntity
  8
Blade
  6
ByLayer
 62
  256
370
   -1
100
AcDbLine
 10
992.5522451265223
 20
68.04903486364964
 11
975.0398888881466
 21
68.04903486364964
  0
ARC
  5
133
100
AcDbEntity
  8
Blade
  6
ByLayer
 62
  256
370
   -1
100
AcDbCircle
 10
970.0398298435732
 20
56.04875144793738
 40
13.00028432407617
100
AcDbArc
 50
67.38037526281281
 51
112.619624736852
  0
LINE
  5
134
100
AcDbEntity
  8
Blade
  6
ByLayer
 62
  256
370
   -1
100
AcDbLine
 10
965.0397707990235
 20
68.04903486364941
 11
950.0395936651335
 21
68.04903486364975
  0
ARC
  5
135
100
AcDbEntity
  8
Blade
  6
ByLayer
 62
  256
370
   -1
100
AcDbCircle
 10
945.0395346206169
 20
56.0487514479376
 40
13.00028432407588
100
AcDbArc
 50
67.38037526296192
 51
112.6196247369441
  0
ARC
  5
136
100
AcDbEntity
  8
Blade
  6
ByLayer
 62
  256
370
   -1
100
AcDbCircle
 10
955.0778803026817
 20
89.91535747516008
 40
13.00028432407549
100
AcDbArc
 50
247.3803752629235
 51
292.6196247369314
  0
LINE
  5
137
100
AcDbEntity
  8
Blade
  6
ByLayer
 62
  256
370
   -1
100
AcDbLine
 10
985.0782345702446
 20
77.91507405944873
 11
992.5758932639733
 21
77.91507405944861
  0
ARC
  5
138
100
AcDbEntity
  8
Blade
  6
ByLayer
 62
  256
370
   -1
100
AcDbCircle
 10
980.0781755256381
 20
89.91535747516122
 40
13.00028432407645
100
AcDbArc
 50
247.3803752629636
 51
292.6196247373399
  0
LINE
  5
139
100
AcDbEntity
  8
Blade
  6
ByLayer
 62
  256
370
   -1
100
AcDbLine
 10
960.0779393472508
 20
77.9150740594485
 11
975.0781164810429
 21
77.91507405944873
  0
ARC
  5
13A
100
AcDbEntity
  8
Blade
  6
ByLayer
 62
  256
370
   -1
100
AcDbCircle
 10
753.229737520049
 20
83.04903486364964
 40
20
100
AcDbArc
 50
231.3576289028314
 51
270
  0
LINE
  5
13B
100
AcDbEntity
  8
Blade
  6
ByLayer
 62
  256
370
   -1
100
AcDbLine
 10
891.849707919366
 20
82.91507405944861
 11
895.0880723685574
 21
82.91507405944861
  0
ARC
  5
13C
100
AcDbEntity
  8
Blade
  6
ByLayer
 62
  256
370
   -1
100
AcDbCircle
 10
891.849707919366
 20
87.91507405944861
 40
5
100
AcDbArc
 50
178.5203642291027
 51
270
  0
LINE
  5
13D
100
AcDbEntity
  8
Blade
  6
ByLayer
 62
  256
370
   -1
100
AcDbLine
 10
897.5820458223886
 20
77.91507405944861
 11
925.0775260351377
 21
77.91507405944736
  0
ARC
  5
13E
100
AcDbEntity
  8
Blade
  6
ByLayer
 62
  256
370
   -1
100
AcDbCircle
 10
930.0775850797254
 20
89.91535747516008
 40
13.00028432407549
100
AcDbArc
 50
247.380375262986
 51
292.6196247369369
  0
LINE
  5
13F
100
AcDbEntity
  8
Blade
  6
ByLayer
 62
  256
370
   -1
100
AcDbLine
 10
935.0776441242958
 20
77.9150740594485
 11
950.0778212580821
 21
77.91507405944839
  0
LINE
  5
140
100
AcDbEntity
  8
Blade
  6
ByLayer
 62
  256
370
   -1
100
AcDbLine
 10
940.0394755760417
 20
68.04903486365646
 11
897.5461661755073
 21
68.04903486364964
  0
ARC
  5
141
100
AcDbEntity
  8
Blade
  6
ByLayer
 62
  256
370
   -1
100
AcDbCircle
 10
861.1944424776074
 20
-805.6600090895872
 40
898.8933092211386
100
AcDbArc
 50
88.35645792360714
 51
98.90678217718148
  0
LINE
  5
142
100
AcDbEntity
  8
Blade
  6
ByLayer
 62
  256
370
   -1
100
AcDbLine
 10
887.5181160886573
 20
113.8565837772497
 11
886.851375090767
 21
88.04418228749358
  0
LINE
  5
143
100
AcDbEntity
  8
Blade
  6
ByLayer
 62
  256
370
   -1
100
AcDbLine
 10
740.7405900741649
 20
67.42785705674385
 11
700
 21
100
  0
ARC
  5
144
100
AcDbEntity
  8
Blade
  6
ByLayer
 62
  256
370
   -1
100
AcDbCircle
 10
861.1944424776074
 20
-805.6600090895872
 40
919.8933092211386
100
AcDbArc
 50
88.36019970697629
 51
100.0921402540775
  0
LINE
  5
145
100
AcDbEntity
  8
Blade
  6
ByLayer
 62
  256
370
   -1
100
AcDbLine
 10
909.9605089106541
 20
77.91507405944998
 11
919.8265481064509
 21
68.04903486365316
  0
LINE
  5
146
100
AcDbEntity
  8
Blade
  6
ByLayer
 62
  256
370
   -1
100
AcDbLine
 10
949.9605089106545
 20
77.9150740594493
 11
959.8265481064444
 21
68.04903486365953
  0
LINE
  5
147
100
AcDbEntity
  8
Blade
  6
ByLayer
 62
  256
370
   -1
100
AcDbLine
 10
971.0295314230929
 20
77.91507405944895
 11
961.1634922273038
 21
68.04903486365987
  0
LINE
  5
148
100
AcDbEntity
  8
Blade
  6
ByLayer
 62
  256
370
   -1
100
AcDbLine
 10
969.9605089106549
 20
77.91507405944895
 11
979.8265481064411
 21
68.04903486366283
  0
LINE
  5
149
100
AcDbEntity
  8
Blade
  6
ByLayer
 62
  256
370
   -1
100
AcDbLine
 10
991.0295314230927
 20
77.91507405944873
 11
981.1634922273071
 21
68.04903486366305
  0
LINE
  5
14A
100
AcDbEntity
  8
Blade
  6
ByLayer
 62
  256
370
   -1
100
AcDbLine
 10
989.9605089106551
 20
77.91507405944873
 11
995.0632737838673
 21
72.81230918623663
  0
LINE
  5
14B
100
AcDbEntity
  8
Blade
  6
ByLayer
 62
  256
370
   -1
100
AcDbLine
 10
930.9323773113343
 20
76.9432056587695
 11
939.8265481064473
 21
68.04903486365646
  0
LINE
  5
14C
100
AcDbEntity
  8
Blade
  6
ByLayer
 62
  256
370
   -1
100
AcDbLine
 10
930.029619003267
 20
76.91516163962302
 11
921.1634922272974
 21
68.04903486365339
  0
LINE
  5
14D
100
AcDbEntity
  8
Blade
  6
ByLayer
 62
  256
370
   -1
100
AcDbLine
 10
950.765579926858
 20
77.65112256321396
 11
941.7370233374664
 21
68.62256597382242
  0
LINE
  5
14E
100
AcDbEntity
  8
Blade
  6
ByLayer
 62
  256
370
   -1
100
AcDbLine
 10
995.0158259019528
 20
63.04903486364952
 11
753.229737520049
 21
63.04903486364981
  0
LINE
  5
14F
100
AcDbEntity
  8
Blade
  6
ByLayer
 62
  256
370
   -1
100
AcDbLine
 10
995.0758637420264
 20
75.40292462063195
 11
995.0158259019528
 21
63.04903486364952
  0
LINE
  5
150
100
AcDbEntity
  8
Blade
  6
ByLayer
 62
  256
370
   -1
100
AcDbLine
 10
1020.533802369029
 20
111.54300105365
 11
1020.53985075939
 21
114.0490348636494
  0
LINE
  5
151
100
AcDbEntity
  8
Blade
  6
ByLayer
 62
  256
370
   -1
100
AcDbLine
 10
1020.491903457362
 20
94.18299566785041
 11
1020.497922722148
 21
96.67696185785113
  0
ARC
  5
152
100
AcDbEntity
  8
Blade
  6
ByLayer
 62
  256
370
   -1
100
AcDbCircle
 10
1018.033809650413
 20
111.5490348636494
 40
2.5
100
AcDbArc
 50
270
 51
359.8617151268077
  0
ARC
  5
153
100
AcDbEntity
  8
Blade
  6
ByLayer
 62
  256
370
   -1
100
AcDbCircle
 10
1017.997930003531
 20
96.68299566785041
 40
2.5
100
AcDbArc
 50
359.8617151268077
 51
90
  0
ARC
  5
154
100
AcDbEntity
  8
Blade
  6
ByLayer
 62
  256
370
   -1
100
AcDbCircle
 10
923.0277306993976
 20
106.5490348636494
 40
2.5
100
AcDbArc
 50
90
 51
179.7215542769069
  0
ARC
  5
155
100
AcDbEntity
  8
Blade
  6
ByLayer
 62
  256
370
   -1
100
AcDbCircle
 10
923.0040825619466
 20
101.6829956678504
 40
2.5
100
AcDbArc
 50
179.7215542769069
 51
270
  0
LINE
  5
156
100
AcDbEntity
  8
Blade
  6
ByLayer
 62
  256
370
   -1
100
AcDbLine
 10
923.0277306993976
 20
109.0490348636494
 11
940.5400869377733
 21
109.0490348636494
  0
ARC
  5
157
100
AcDbEntity
  8
Blade
  6
ByLayer
 62
  256
370
   -1
100
AcDbCircle
 10
945.5401459823466
 20
121.0493182793617
 40
13.00028432407617
100
AcDbArc
 50
247.3803752628128
 51
292.619624736852
  0
LINE
  5
158
100
AcDbEntity
  8
Blade
  6
ByLayer
 62
  256
370
   -1
100
AcDbLine
 10
950.5402050268964
 20
109.0490348636496
 11
965.5403821607864
 21
109.0490348636493
  0
ARC
  5
159
100
AcDbEntity
  8
Blade
  6
ByLayer
 62
  256
370
   -1
100
AcDbCircle
 10
970.540441205303
 20
121.0493182793614
 40
13.00028432407588
100
AcDbArc
 50
247.3803752629619
 51
292.6196247369441
  0
ARC
  5
15A
100
AcDbEntity
  8
Blade
  6
ByLayer
 62
  256
370
   -1
100
AcDbCircle
 10
960.5020955232382
 20
87.18271225213894
 40
13.00028432407549
100
AcDbArc
 50
67.38037526292354
 51
112.6196247369314
  0
LINE
  5
15B
100
AcDbEntity
  8
Blade
  6
ByLayer
 62
  256
370
   -1
100
AcDbLine
 10
930.5017412556753
 20
99.18299566785029
 11
923.0040825619466
 21
99.18299566785041
  0
ARC
  5
15C
100
AcDbEntity
  8
Blade
  6
ByLayer
 62
  256
370
   -1
100
AcDbCircle
 10
935.5018003002817
 20
87.1827122521378
 40
13.00028432407645
100
AcDbArc
 50
67.38037526296354
 51
112.6196247373399
  0
LINE
  5
15D
100
AcDbEntity
  8
Blade
  6
ByLayer
 62
  256
370
   -1
100
AcDbLine
 10
955.5020364786691
 20
99.18299566785052
 11
940.5018593448769
 21
99.18299566785029
  0
ARC
  5
15E
100
AcDbEntity
  8
Blade
  6
ByLayer
 62
  256
370
   -1
100
AcDbCircle
 10
1162.350238305871
 20
94.04903486364944
 40
20
100
AcDbArc
 50
51.35762890283145
 51
90
  0
LINE
  5
15F
100
AcDbEntity
  8
Blade
  6
ByLayer
 62
  256
370
   -1
100
AcDbLine
 10
1023.730267906554
 20
94.18299566785041
 11
1020.491903457362
 21
94.18299566785041
  0
ARC
  5
160
100
AcDbEntity
  8
Blade
  6
ByLayer
 62
  256
370
   -1
100
AcDbCircle
 10
1023.730267906554
 20
89.18299566785046
 40
5
100
AcDbArc
 50
358.5203642291028
 51
90
  0
LINE
  5
161
100
AcDbEntity
  8
Blade
  6
ByLayer
 62
  256
370
   -1
100
AcDbLine
 10
1017.997930003531
 20
99.18299566785041
 11
990.5024497907822
 21
99.18299566785166
  0
ARC
  5
162
100
AcDbEntity
  8
Blade
  6
ByLayer
 62
  256
370
   -1
100
AcDbCircle
 10
985.5023907461945
 20
87.18271225213894
 40
13.00028432407549
100
AcDbArc
 50
67.38037526298605
 51
112.619624736937
  0
LINE
  5
163
100
AcDbEntity
  8
Blade
  6
ByLayer
 62
  256
370
   -1
100
AcDbLine
 10
980.502331701624
 20
99.18299566785058
 11
965.5021545678378
 21
99.18299566785069
  0
LINE
  5
164
100
AcDbEntity
  8
Blade
  6
ByLayer
 62
  256
370
   -1
100
AcDbLine
 10
975.5405002498782
 20
109.0490348636426
 11
1018.033809650413
 21
109.0490348636494
  0
ARC
  5
165
100
AcDbEntity
  8
Blade
  6
ByLayer
 62
  256
370
   -1
100
AcDbCircle
 10
1054.385533348312
 20
982.7580788168862
 40
898.8933092211386
100
AcDbArc
 50
268.3564579236071
 51
278.9067821771814
  0
LINE
  5
166
100
AcDbEntity
  8
Blade
  6
ByLayer
 62
  256
370
   -1
100
AcDbLine
 10
1028.061859737262
 20
63.24148595004934
 11
1028.728600735153
 21
89.05388743980544
  0
LINE
  5
167
100
AcDbEntity
  8
Blade
  6
ByLayer
 62
  256
370
   -1
100
AcDbLine
 10
1174.839385751755
 20
109.6702126705553
 11
1215.57997582592
 21
77.09806972729908
  0
ARC
  5
168
100
AcDbEntity
  8
Blade
  6
ByLayer
 62
  256
370
   -1
100
AcDbCircle
 10
1054.385533348312
 20
982.7580788168862
 40
919.8933092211386
100
AcDbArc
 50
268.3601997069763
 51
280.0921402540775
  0
LINE
  5
169
100
AcDbEntity
  8
Blade
  6
ByLayer
 62
  256
370
   -1
100
AcDbLine
 10
1005.619466915266
 20
99.1829956678491
 11
995.753427719469
 21
109.0490348636459
  0
LINE
  5
16A
100
AcDbEntity
  8
Blade
  6
ByLayer
 62
  256
370
   -1
100
AcDbLine
 10
965.6194669152653
 20
99.18299566784972
 11
955.7534277194754
 21
109.0490348636395
  0
LINE
  5
16B
100
AcDbEntity
  8
Blade
  6
ByLayer
 62
  256
370
   -1
100
AcDbLine
 10
944.550444402827
 20
99.18299566785012
 11
954.4164835986161
 21
109.0490348636392
  0
LINE
  5
16C
100
AcDbEntity
  8
Blade
  6
ByLayer
 62
  256
370
   -1
100
AcDbLine
 10
945.619466915265
 20
99.18299566785007
 11
935.7534277194787
 21
109.0490348636362
  0
LINE
  5
16D
100
AcDbEntity
  8
Blade
  6
ByLayer
 62
  256
370
   -1
100
AcDbLine
 10
924.5504444028271
 20
99.18299566785035
 11
934.4164835986128
 21
109.049034863636
  0
LINE
  5
16E
100
AcDbEntity
  8
Blade
  6
ByLayer
 62
  256
370
   -1
100
AcDbLine
 10
925.6194669152648
 20
99.18299566785035
 11
920.5167020420525
 21
104.2857605410624
  0
LINE
  5
16F
100
AcDbEntity
  8
Blade
  6
ByLayer
 62
  256
370
   -1
100
AcDbLine
 10
984.6475985145855
 20
100.1548640685296
 11
975.7534277194726
 21
109.0490348636426
  0
LINE
  5
170
100
AcDbEntity
  8
Blade
  6
ByLayer
 62
  256
370
   -1
100
AcDbLine
 10
985.5503568226528
 20
100.182908087676
 11
994.4164835986224
 21
109.0490348636456
  0
LINE
  5
171
100
AcDbEntity
  8
Blade
  6
ByLayer
 62
  256
370
   -1
100
AcDbLine
 10
964.8143958990619
 20
99.44694716408506
 11
973.8429524884534
 21
108.4755037534766
  0
LINE
  5
172
100
AcDbEntity
  8
Blade
  6
ByLayer
 62
  256
370
   -1
100
AcDbLine
 10
920.5641499239671
 20
114.0490348636495
 11
1162.350238305871
 21
114.0490348636493
  0
LINE
  5
173
100
AcDbEntity
  8
Blade
  6
ByLayer
 62
  256
370
   -1
100
AcDbLine
 10
920.5041120838935
 20
101.6951451066671
 11
920.5641499239671
 21
114.0490348636495
  0
ENDBLK
  5
59
330
57
100
AcDbEntity
  8
0
100
AcDbBlockEnd
  0
ENDSEC
  0
SECTION
  2
ENTITIES
  0
IMAGE
  5
176
100
AcDbEntity
  8
Photo
  6
ByLayer
 62
  256
370
   -1
100
AcDbRasterImage
 10
0
 20
1000
 30
0
 11
1
 21
0
 31
0
 12
6.123031769111886e-17
 22
1
 32
0
 13
800
 23
800
340
174
 70
    1
280
    0
281
   50
282
   50
283
    0
360
175
  0
IMAGE
  5
178
100
AcDbEntity
  8
Photo
  6
ByLayer
 62
  256
370
   -1
100
AcDbRasterImage
 10
0
 20
1000
 30
0
 11
1
 21
0
 31
0
 12
6.123031769111886e-17
 22
1
 32
0
 13
800
 23
800
340
174
 70
    1
280
    0
281
   50
282
   50
283
    0
360
177
  0
MTEXT
  5
179
100
AcDbEntity
  8
Measurements
  6
ByLayer
 62
  256
370
   -1
100
AcDbMText
 10
-39.13396113500512
 20
-10.22413950076871
 30
0
 40
5
 41
61.38889146032604
 71
    1
 72
    1
  1
Finnish curly birch
  7
standard
210
0
220
0
230
1
 50
0
 73
    2
 44
1
  0
MTEXT
  5
17A
100
AcDbEntity
  8
Measurements
  6
ByLayer
 62
  256
370
   -1
100
AcDbMText
 10
10.86603886499488
 20
-40.22413950076871
 30
0
 40
5
 41
56.52777671776867
 71
    1
 72
    1
  1
Sapele mahogany
  7
standard
210
0
220
0
230
1
 50
0
 73
    2
 44
1
  0
LEADER
  5
17B
100
AcDbEntity
  8
Measurements
  6
ByLayer
 62
  256
370
   -1
100
AcDbLeader
  3
Standard
 71
    1
 72
    0
 73
    3
 74
    0
 75
    0
 40
1
 41
10
 76
4
 76
4
 10
69.86603886499488
 20
5.775860499231285
 30
0
 10
2.987209465736484
 20
-40.73370933658542
 30
0
 10
0.8660388649948771
 20
-50.22413950076871
 30
0
 10
70.86603886499488
 20
-50.22413950076871
 30
0
  0
LEADER
  5
17C
100
AcDbEntity
  8
Measurements
  6
ByLayer
 62
  256
370
   -1
100
AcDbLeader
  3
Standard
 71
    1
 72
    0
 73
    3
 74
    0
 75
    0
 40
1
 41
10
 76
3
 76
3
 10
-41.13396113500512
 20
4.775860499231285
 30
0
 10
-41.13396113500512
 20
-17.22413950076871
 30
0
 10
23.86603886499488
 20
-17.22413950076871
 30
0
  0
ARC
  5
17D
100
AcDbEntity
  8
Handle
  6
ByLayer
 62
  256
370
   -1
100
AcDbCircle
 10
84.19816993287513
 20
4.521724916903693
 40
1.919191919191919
100
AcDbArc
 50
270.5354444370014
 51
0
  0
ARC
  5
17E
100
AcDbEntity
  8
Blade
  6
ByLayer
 62
  256
370
   -1
100
AcDbCircle
 10
-11.21483423210448
 20
14.60664590059414
 40
2.5
100
AcDbArc
 50
179.7215542769069
 51
270
  0
ARC
  5
17F
100
AcDbEntity
  8
Blade
  6
ByLayer
 62
  256
370
   -1
100
AcDbCircle
 10
26.28317872918687
 20
0.106362484882677
 40
13.00028432407549
100
AcDbArc
 50
67.38037526292354
 51
112.6196247369314
  0
LINE
  5
180
100
AcDbEntity
  8
Blade
  6
ByLayer
 62
  256
370
   -1
100
AcDbLine
 10
-3.717175538375798
 20
12.10664590059403
 11
-11.21483423210448
 21
12.10664590059414
  0
ARC
  5
181
100
AcDbEntity
  8
Blade
  6
ByLayer
 62
  256
370
   -1
100
AcDbCircle
 10
1.282883506230789
 20
0.1063624848815401
 40
13.00028432407645
100
AcDbArc
 50
67.38037526296354
 51
112.6196247373399
  0
LINE
  5
182
100
AcDbEntity
  8
Blade
  6
ByLayer
 62
  256
370
   -1
100
AcDbLine
 10
21.28311968461803
 20
12.10664590059426
 11
6.282942550826007
 21
12.10664590059403
  0
ARC
  5
183
100
AcDbEntity
  8
Blade
  6
ByLayer
 62
  256
370
   -1
100
AcDbCircle
 10
51.28347395214341
 20
0.106362484882677
 40
13.00028432407549
100
AcDbArc
 50
67.38037526298605
 51
112.619624736937
  0
LINE
  5
184
100
AcDbEntity
  8
Blade
  6
ByLayer
 62
  256
370
   -1
100
AcDbLine
 10
46.2834149075732
 20
12.10664590059437
 11
31.28323777378664
 21
12.10664590059443
  0
LINE
  5
185
100
AcDbEntity
  8
Blade
  6
ByLayer
 62
  256
370
   -1
100
AcDbLine
 10
158.786007713769
 20
13.70313812348674
 11
169.2668299594966
 21
26.34935216285132
  0
LINE
  5
186
100
AcDbEntity
  8
Blade
  6
ByLayer
 62
  256
370
   -1
100
AcDbLine
 10
165.0173696743845
 20
5.550632997098315
 11
182.2547561235245
 21
26.34935216285131
  0
ARC
  5
187
100
AcDbEntity
  8
Blade
  6
ByLayer
 62
  256
370
   -1
100
AcDbCircle
 10
161.1676403666769
 20
8.741179072204808
 40
5
100
AcDbArc
 50
270.9509515195251
 51
320.3490275159701
  0
LINE
  5
188
100
AcDbEntity
  8
Blade
  6
ByLayer
 62
  256
370
   -1
100
AcDbLine
 10
82.11736185206743
 20
12.10664590059421
 11
56.2835329967309
 21
12.10664590059534
  0
LINE
  5
189
100
AcDbEntity
  8
Blade
  6
ByLayer
 62
  256
370
   -1
100
AcDbLine
 10
86.11736185206726
 20
8.106645900594213
 11
86.11736185206726
 21
3.349257575827703
  0
ARC
  5
18A
100
AcDbEntity
  8
Blade
  6
ByLayer
 62
  256
370
   -1
100
AcDbCircle
 10
82.11736185206726
 20
8.106645900594216
 40
4
100
AcDbArc
 50
359.9999999999999
 51
89.99999999999756
  0
ARC
  5
18B
100
AcDbEntity
  8
Blade
  6
ByLayer
 62
  256
370
   -1
100
AcDbCircle
 10
106.4222385037545
 20
3306.903478884715
 40
3293.616621392926
100
AcDbArc
 50
269.7337552925002
 51
270.9109589020036
  0
ARC
  5
18C
100
AcDbEntity
  8
Blade
  6
ByLayer
 62
  256
370
   -1
100
AcDbCircle
 10
106.4222385037545
 20
3306.903478884715
 40
3303.616621392926
100
AcDbArc
 50
269.7692427453224
 51
270.9509515195161
  0
ARC
  5
18D
100
AcDbEntity
  8
Blade
  6
ByLayer
 62
  256
370
   -1
100
AcDbCircle
 10
91.11736185206726
 20
3.3492575758277
 40
2
100
AcDbArc
 50
358.9798839038609
 51
180.4892342000448
  0
ARC
  5
18E
100
AcDbEntity
  8
Blade
  6
ByLayer
 62
  256
370
   -1
100
AcDbCircle
 10
106.4222385037545
 20
3306.903478884715
 40
3303.616621392926
100
AcDbArc
 50
269.6478431991708
 51
269.6998753585811
  0
LINE
  5
18F
100
AcDbEntity
  8
Blade
  6
ByLayer
 62
  256
370
   -1
100
AcDbLine
 10
91.11736185206726
 20
13.32241726403186
 11
91.11736185206726
 21
5.349257575828126
  0
ARC
  5
190
100
AcDbEntity
  8
Handle
  6
ByLayer
 62
  256
370
   -1
100
AcDbCircle
 10
84.19816993287513
 20
24.44638609363581
 40
1.919191919191919
100
AcDbArc
 50
0
 51
89.51349857256282
  0
LINE
  5
191
100
AcDbEntity
  8
Handle
  6
ByLayer
 62
  256
370
   -1
100
AcDbLine
 10
86.11736185206705
 20
24.44638609363581
 11
86.11736185206728
 21
4.521724916903693
  0
LINE
  5
192
100
AcDbEntity
  8
Blade
  6
ByLayer
 62
  256
370
   -1
100
AcDbLine
 10
-13.71480471015748
 20
14.61879533941086
 11
-13.65779616399211
 21
26.34935216285131
  0
LINE
  5
193
100
AcDbEntity
  8
Blade
  6
ByLayer
 62
  256
370
   -1
100
AcDbLine
 10
-13.65779616399211
 20
26.34935216285131
 11
182.2547561235245
 21
26.34935216285131
  0
ARC
  5
194
100
AcDbEntity
  8
Handle
  6
ByLayer
 62
  256
370
   -1
100
AcDbCircle
 10
-41.05533321819213
 20
21.36550882833288
 40
5
100
AcDbArc
 50
90
 51
170.774881990674
  0
ARC
  5
195
100
AcDbEntity
  8
Handle
  6
ByLayer
 62
  256
370
   -1
100
AcDbCircle
 10
1.653980098834197
 20
14.4288935498861
 40
48.26895047875674
100
AcDbArc
 50
170.7748819906741
 51
192.0125163893089
  0
LINE
  5
196
100
AcDbEntity
  8
Handle
  6
ByLayer
 62
  256
370
   -1
100
AcDbLine
 10
84.21610503538629
 20
2.602616802494952
 11
-40.58021173381165
 21
0.4242889904861924
  0
ARC
  5
197
100
AcDbEntity
  8
Handle
  6
ByLayer
 62
  256
370
   -1
100
AcDbCircle
 10
-40.66747376599808
 20
5.423527466268149
 40
5
100
AcDbArc
 50
192.0125163893088
 51
271.0000000000001
  0
LINE
  5
198
100
AcDbEntity
  8
Handle
  6
ByLayer
 62
  256
370
   -1
100
AcDbLine
 10
-41.05533321819213
 20
26.36550882833288
 11
84.21446569491326
 21
26.36550882833288
  0
LINE
  5
199
100
AcDbEntity
  8
Handle
  6
ByLayer
 62
  256
370
   -1
100
AcDbLine
 10
66.11736185206728
 20
26.36550882833287
 11
66.11736185206728
 21
2.433474265980877
  0
LINE
  5
19A
100
AcDbEntity
  8
Blade
  6
DASHEDTINY
 62
  256
370
   -1
100
AcDbLine
 10
-8.599449878786075
 20
12.10664590059403
 11
-13.70221475199851
 21
17.20941077380612
  0
LINE
  5
19B
100
AcDbEntity
  8
Blade
  6
DASHEDTINY
 62
  256
370
   -1
100
AcDbLine
 10
-9.668472391224171
 20
12.10664590059403
 11
1.574233871033434
 21
23.34935216285131
  0
LINE
  5
19C
100
AcDbEntity
  8
Blade
  6
DASHEDTINY
 62
  256
370
   -1
100
AcDbLine
 10
11.40055012121393
 20
12.10664590059386
 11
0.1578438589560208
 21
23.34935216285131
  0
LINE
  5
19D
100
AcDbEntity
  8
Blade
  6
DASHEDTINY
 62
  256
370
   -1
100
AcDbLine
 10
10.33152760877583
 20
12.10664590059386
 11
21.57423387103342
 21
23.34935216285131
  0
LINE
  5
19E
100
AcDbEntity
  8
Blade
  6
DASHEDTINY
 62
  256
370
   -1
100
AcDbLine
 10
31.40055012121438
 20
12.10664590059346
 11
20.15784385895615
 21
23.34935216285131
  0
LINE
  5
19F
100
AcDbEntity
  8
Blade
  6
DASHEDTINY
 62
  256
370
   -1
100
AcDbLine
 10
30.5954791050106
 20
12.37059739682874
 11
41.57423387103351
 21
23.34935216285131
  0
LINE
  5
1A0
100
AcDbEntity
  8
Blade
  6
DASHEDTINY
 62
  256
370
   -1
100
AcDbLine
 10
50.42868172053458
 20
13.07851430127337
 11
40.15784385895658
 21
23.34935216285131
  0
LINE
  5
1A1
100
AcDbEntity
  8
Blade
  6
DASHEDTINY
 62
  256
370
   -1
100
AcDbLine
 10
51.33144002860153
 20
13.10655832041973
 11
61.57423387103336
 21
23.34935216285131
  0
LINE
  5
1A2
100
AcDbEntity
  8
Blade
  6
DASHEDTINY
 62
  256
370
   -1
100
AcDbLine
 10
71.40055012121483
 20
12.10664590059283
 11
60.15784385895623
 21
23.34935216285131
  0
ENDSEC
  0
SECTION
  2
OBJECTS
  0
DICTIONARY
  5
C
330
0
100
AcDbDictionary
281
    1
  3
ACAD_GROUP
350
D
  3
ACAD_IMAGE_DICT
350
1A3
  0
DICTIONARY
  5
D
330
C
100
AcDbDictionary
281
    1
  0
IMAGEDEF_REACTOR
  5
62
330
63
100
AcDbRasterImageDefReactor
 90
    2
330
63
  0
IMAGEDEF_REACTOR
  5
175
330
176
100
AcDbRasterImageDefReactor
 90
    2
330
176
  0
IMAGEDEF_REACTOR
  5
177
330
178
100
AcDbRasterImageDefReactor
 90
    2
330
178
  0
DICTIONARY
  5
1A3
330
C
100
AcDbDictionary
281
    1
  3
Yoshida_Hamono_ZDP-189_Bunka_Black
350
61
  3
Forged Hunting Knife
350
174
  0
IMAGEDEF
  5
61
102
{ACAD_REACTORS
330
62
102
}
100
AcDbRasterImageDef
 90
    0
  1
/home/mosse/git/Public DIY/DIY kitchen knives/Yoshida_Hamono_ZDP-189_Bunka_Black.jpeg
 10
2047
 20
1092
 11
1
 21
1
280
    1
281
    0
  0
IMAGEDEF
  5
174
102
{ACAD_REACTORS
330
175
330
177
102
}
100
AcDbRasterImageDef
 90
    0
  1
/home/mosse/git/Public DIY/DIY kitchen knives/Forged Hunting Knife.jpg
 10
800
 20
800
 11
1
 21
1
280
    1
281
    0
  0
ENDSEC
  0
EOF
