999
dxfrw 0.6.3
  0
SECTION
  2
HEADER
  9
$ACADVER
  1
AC1014
  9
$DWGCODEPAGE
  3
ANSI_1252
  9
$INSBASE
 10
0
 20
0
 30
0
  9
$EXTMIN
 10
0
 20
-257.8210592982639
 30
0
  9
$EXTMAX
 10
1342.8
 20
70.70077280380001
 30
0
  9
$LIMMIN
 10
0
 20
0
  9
$LIMMAX
 10
420
 20
297
  9
$ORTHOMODE
 70
    0
  9
$REGENMODE
 70
    1
  9
$FILLMODE
 70
    1
  9
$QTEXTMODE
 70
    0
  9
$MIRRTEXT
 70
    0
  9
$LTSCALE
 40
1
  9
$ATTMODE
 70
    0
  9
$TEXTSIZE
 40
2.5
  9
$TRACEWID
 40
15.68
  9
$TEXTSTYLE
  7
STANDARD
  9
$CLAYER
  8
0
  9
$CELTYPE
  6
BYLAYER
  9
$CECOLOR
 62
  256
  9
$CELTSCALE
 40
1
  9
$DISPSILH
 70
    0
  9
$DIMSCALE
 40
1
  9
$DIMASZ
 40
15
  9
$DIMEXO
 40
4
  9
$DIMDLI
 40
3.75
  9
$DIMRND
 40
0
  9
$DIMDLE
 40
0
  9
$DIMEXE
 40
1.25
  9
$DIMTP
 40
0
  9
$DIMTM
 40
0
  9
$DIMTXT
 40
25
  9
$DIMCEN
 40
2.5
  9
$DIMTSZ
 40
0
  9
$DIMTOL
 70
    0
  9
$DIMLIM
 70
    0
  9
$DIMTIH
 70
    0
  9
$DIMTOH
 70
    0
  9
$DIMSE1
 70
    0
  9
$DIMSE2
 70
    0
  9
$DIMTAD
 70
    1
  9
$DIMZIN
 70
    8
  9
$DIMBLK
  1

  9
$DIMASO
 70
    1
  9
$DIMSHO
 70
    1
  9
$DIMPOST
  1

  9
$DIMAPOST
  1

  9
$DIMALT
 70
    0
  9
$DIMALTD
 70
    3
  9
$DIMALTF
 40
0.03937
  9
$DIMLFAC
 40
1
  9
$DIMTOFL
 70
    1
  9
$DIMTVP
 40
0
  9
$DIMTIX
 70
    0
  9
$DIMSOXD
 70
    0
  9
$DIMSAH
 70
    0
  9
$DIMBLK1
  1

  9
$DIMBLK2
  1

  9
$DIMSTYLE
  2
Standard
  9
$DIMCLRD
 70
    0
  9
$DIMCLRE
 70
    0
  9
$DIMCLRT
 70
    0
  9
$DIMTFAC
 40
1
  9
$DIMGAP
 40
3
  9
$DIMJUST
 70
    0
  9
$DIMSD1
 70
    0
  9
$DIMSD2
 70
    0
  9
$DIMTOLJ
 70
    0
  9
$DIMTZIN
 70
    8
  9
$DIMALTZ
 70
    0
  9
$DIMALTTZ
 70
    0
  9
$DIMUPT
 70
    0
  9
$DIMDEC
 70
    1
  9
$DIMTDEC
 70
    2
  9
$DIMALTU
 70
    2
  9
$DIMALTTD
 70
    3
  9
$DIMTXSTY
  7
standard
  9
$DIMAUNIT
 70
    0
  9
$DIMADEC
 70
    0
  9
$DIMALTRND
 40
0
  9
$DIMAZIN
 70
    0
  9
$DIMDSEP
 70
   44
  9
$DIMATFIT
 70
    3
  9
$DIMFRAC
 70
    0
  9
$DIMLDRBLK
  1
STANDARD
  9
$DIMUNIT
 70
    2
  9
$DIMLWD
 70
   -2
  9
$DIMLWE
 70
   -2
  9
$DIMTMOVE
 70
    0
  9
$LUNITS
 70
    2
  9
$LUPREC
 70
    1
  9
$SKETCHINC
 40
1
  9
$FILLETRAD
 40
0
  9
$AUNITS
 70
    0
  9
$AUPREC
 70
    3
  9
$MENU
  1
.
  9
$ELEVATION
 40
0
  9
$PELEVATION
 40
0
  9
$THICKNESS
 40
0
  9
$LIMCHECK
 70
    0
  9
$BLIPMODE
 70
    0
  9
$CHAMFERA
 40
0
  9
$CHAMFERB
 40
0
  9
$CHAMFERC
 40
0
  9
$CHAMFERD
 40
0
  9
$SKPOLY
 70
    0
  9
$USRTIMER
 70
    1
  9
$ANGBASE
 50
0
  9
$ANGDIR
 70
    0
  9
$PDMODE
 70
   34
  9
$PDSIZE
 40
0
  9
$PLINEWID
 40
0
  9
$SPLFRAME
 70
    0
  9
$SPLINETYPE
 70
    2
  9
$SPLINESEGS
 70
    8
  9
$HANDSEED
  5
20000
  9
$SURFTAB1
 70
    6
  9
$SURFTAB2
 70
    6
  9
$SURFTYPE
 70
    6
  9
$SURFU
 70
    6
  9
$SURFV
 70
    6
  9
$UCSBASE
  2

  9
$UCSNAME
  2

  9
$UCSORG
 10
0
 20
0
 30
0
  9
$UCSXDIR
 10
1
 20
0
 30
0
  9
$UCSYDIR
 10
0
 20
1
 30
0
  9
$UCSORTHOREF
  2

  9
$UCSORTHOVIEW
 70
    0
  9
$UCSORGTOP
 10
0
 20
0
 30
0
  9
$UCSORGBOTTOM
 10
0
 20
0
 30
0
  9
$UCSORGLEFT
 10
0
 20
0
 30
0
  9
$UCSORGRIGHT
 10
0
 20
0
 30
0
  9
$UCSORGFRONT
 10
0
 20
0
 30
0
  9
$UCSORGBACK
 10
0
 20
0
 30
0
  9
$PUCSBASE
  2

  9
$PUCSNAME
  2

  9
$PUCSORG
 10
0
 20
0
 30
0
  9
$PUCSXDIR
 10
1
 20
0
 30
0
  9
$PUCSYDIR
 10
0
 20
1
 30
0
  9
$PUCSORTHOREF
  2

  9
$PUCSORTHOVIEW
 70
    0
  9
$PUCSORGTOP
 10
0
 20
0
 30
0
  9
$PUCSORGBOTTOM
 10
0
 20
0
 30
0
  9
$PUCSORGLEFT
 10
0
 20
0
 30
0
  9
$PUCSORGRIGHT
 10
0
 20
0
 30
0
  9
$PUCSORGFRONT
 10
0
 20
0
 30
0
  9
$PUCSORGBACK
 10
0
 20
0
 30
0
  9
$USERI1
 70
    0
  9
$USERI2
 70
    0
  9
$USERI3
 70
    0
  9
$USERI4
 70
    0
  9
$USERI5
 70
    0
  9
$USERR1
 40
0
  9
$USERR2
 40
0
  9
$USERR3
 40
0
  9
$USERR4
 40
0
  9
$USERR5
 40
0
  9
$WORLDVIEW
 70
    1
  9
$SHADEDGE
 70
    3
  9
$SHADEDIF
 70
   70
  9
$TILEMODE
 70
    1
  9
$MAXACTVP
 70
   64
  9
$PINSBASE
 10
-1071.777189337644
 20
169.9771591892456
 30
0
  9
$PLIMCHECK
 70
    0
  9
$PEXTMIN
 10
0
 20
0
 30
0
  9
$PEXTMAX
 10
0
 20
0
 30
0
  9
$GRIDMODE
 70
    1
  9
$SNAPSTYLE
 70
    0
  9
$GRIDUNIT
 10
0
 20
0
  9
$PLIMMIN
 10
0
 20
0
  9
$PLIMMAX
 10
297
 20
210
  9
$UNITMODE
 70
    0
  9
$VISRETAIN
 70
    1
  9
$PLINEGEN
 70
    0
  9
$PSLTSCALE
 70
    1
  9
$TREEDEPTH
 70
 3020
  9
$CMLSTYLE
  2
Standard
  9
$CMLJUST
 70
    0
  9
$CMLSCALE
 40
20
  9
$PROXYGRAPHICS
 70
    1
  9
$MEASUREMENT
 70
    1
  9
$CELWEIGHT
370
   -1
  9
$ENDCAPS
280
    0
  9
$JOINSTYLE
280
    0
  9
$LWDISPLAY
290
    0
  9
$HYPERLINKBASE
  1

  9
$STYLESHEET
  1

  9
$XEDIT
290
    1
  9
$CEPSNTYPE
380
    0
  9
$PSTYLEMODE
290
    1
  9
$EXTNAMES
290
    1
  9
$PSVPSCALE
 40
1
  9
$OLESTARTUP
290
    0
  0
ENDSEC
  0
SECTION
  2
CLASSES
  0
ENDSEC
  0
SECTION
  2
TABLES
  0
TABLE
  2
VPORT
  5
8
100
AcDbSymbolTable
 70
    1
  0
VPORT
  5
31
330
2
100
AcDbSymbolTableRecord
100
AcDbViewportTableRecord
  2
*ACTIVE
 70
    0
 10
0
 20
0
 11
1
 21
1
 12
759.9281070596641
 22
115.5382301860496
 13
0
 23
0
 14
10
 24
10
 15
10
 25
10
 16
0
 26
0
 36
1
 17
0
 27
0
 37
0
 40
623.9793377871198
 41
1.742990654205608
 42
50
 43
0
 44
0
 50
0
 51
0
 71
    0
 72
  100
 73
    1
 74
    3
 75
    0
 76
    1
 77
    0
 78
    0
  0
ENDTAB
  0
TABLE
  2
LTYPE
  5
5
100
AcDbSymbolTable
 70
    4
  0
LTYPE
  5
14
100
AcDbSymbolTableRecord
100
AcDbLinetypeTableRecord
  2
ByBlock
 70
    0
  3

 72
   65
 73
    0
 40
0
  0
LTYPE
  5
15
100
AcDbSymbolTableRecord
100
AcDbLinetypeTableRecord
  2
ByLayer
 70
    0
  3

 72
   65
 73
    0
 40
0
  0
LTYPE
  5
16
100
AcDbSymbolTableRecord
100
AcDbLinetypeTableRecord
  2
Continuous
 70
    0
  3
Solid line
 72
   65
 73
    0
 40
0
  0
LTYPE
  5
32
330
5
100
AcDbSymbolTableRecord
100
AcDbLinetypeTableRecord
  2
DOT
 70
    0
  3
Dot . . . . . . . . . . . . . . . . . . . . . .
 72
   65
 73
    2
 40
6.35
 49
0
 74
    0
 49
-6.35
 74
    0
  0
LTYPE
  5
33
330
5
100
AcDbSymbolTableRecord
100
AcDbLinetypeTableRecord
  2
DOTTINY
 70
    0
  3
Dot (.15x) .....................................
 72
   65
 73
    2
 40
0.9525
 49
0
 74
    0
 49
-0.9525
 74
    0
  0
LTYPE
  5
34
330
5
100
AcDbSymbolTableRecord
100
AcDbLinetypeTableRecord
  2
DOT2
 70
    0
  3
Dot (.5x) .....................................
 72
   65
 73
    2
 40
3.175
 49
0
 74
    0
 49
-3.175
 74
    0
  0
LTYPE
  5
35
330
5
100
AcDbSymbolTableRecord
100
AcDbLinetypeTableRecord
  2
DOTX2
 70
    0
  3
Dot (2x) .  .  .  .  .  .  .  .  .  .  .  .  .
 72
   65
 73
    2
 40
12.7
 49
0
 74
    0
 49
-12.7
 74
    0
  0
LTYPE
  5
36
330
5
100
AcDbSymbolTableRecord
100
AcDbLinetypeTableRecord
  2
DASHED
 70
    0
  3
Dashed _ _ _ _ _ _ _ _ _ _ _ _ _ _ _ _ _
 72
   65
 73
    2
 40
19.05
 49
12.7
 74
    0
 49
-6.35
 74
    0
  0
LTYPE
  5
37
330
5
100
AcDbSymbolTableRecord
100
AcDbLinetypeTableRecord
  2
DASHEDTINY
 70
    0
  3
Dashed (.15x) _ _ _ _ _ _ _ _ _ _ _ _ _ _ _ _ _
 72
   65
 73
    2
 40
2.8575
 49
1.905
 74
    0
 49
-0.9525
 74
    0
  0
LTYPE
  5
38
330
5
100
AcDbSymbolTableRecord
100
AcDbLinetypeTableRecord
  2
DASHED2
 70
    0
  3
Dashed (.5x) _ _ _ _ _ _ _ _ _ _ _ _ _ _ _ _ _
 72
   65
 73
    2
 40
9.524999999999999
 49
6.35
 74
    0
 49
-3.175
 74
    0
  0
LTYPE
  5
39
330
5
100
AcDbSymbolTableRecord
100
AcDbLinetypeTableRecord
  2
DASHEDX2
 70
    0
  3
Dashed (2x) ____  ____  ____  ____  ____  ___
 72
   65
 73
    2
 40
38.09999999999999
 49
25.4
 74
    0
 49
-12.7
 74
    0
  0
LTYPE
  5
3A
330
5
100
AcDbSymbolTableRecord
100
AcDbLinetypeTableRecord
  2
DASHDOT
 70
    0
  3
Dash dot __ . __ . __ . __ . __ . __ . __ . __
 72
   65
 73
    4
 40
25.4
 49
12.7
 74
    0
 49
-6.35
 74
    0
 49
0
 74
    0
 49
-6.35
 74
    0
  0
LTYPE
  5
3B
330
5
100
AcDbSymbolTableRecord
100
AcDbLinetypeTableRecord
  2
DASHDOTTINY
 70
    0
  3
Dash dot (.15x) _._._._._._._._._._._._._._._.
 72
   65
 73
    4
 40
3.81
 49
1.905
 74
    0
 49
-0.9525
 74
    0
 49
0
 74
    0
 49
-0.9525
 74
    0
  0
LTYPE
  5
3C
330
5
100
AcDbSymbolTableRecord
100
AcDbLinetypeTableRecord
  2
DASHDOT2
 70
    0
  3
Dash dot (.5x) _._._._._._._._._._._._._._._.
 72
   65
 73
    4
 40
12.7
 49
6.35
 74
    0
 49
-3.175
 74
    0
 49
0
 74
    0
 49
-3.175
 74
    0
  0
LTYPE
  5
3D
330
5
100
AcDbSymbolTableRecord
100
AcDbLinetypeTableRecord
  2
DASHDOTX2
 70
    0
  3
Dash dot (2x) ____  .  ____  .  ____  .  ___
 72
   65
 73
    4
 40
50.8
 49
25.4
 74
    0
 49
-12.7
 74
    0
 49
0
 74
    0
 49
-12.7
 74
    0
  0
LTYPE
  5
3E
330
5
100
AcDbSymbolTableRecord
100
AcDbLinetypeTableRecord
  2
DIVIDE
 70
    0
  3
Divide ____ . . ____ . . ____ . . ____ . . ____
 72
   65
 73
    6
 40
31.75
 49
12.7
 74
    0
 49
-6.35
 74
    0
 49
0
 74
    0
 49
-6.35
 74
    0
 49
0
 74
    0
 49
-6.35
 74
    0
  0
LTYPE
  5
3F
330
5
100
AcDbSymbolTableRecord
100
AcDbLinetypeTableRecord
  2
DIVIDETINY
 70
    0
  3
Divide (.15x) __..__..__..__..__..__..__..__.._
 72
   65
 73
    6
 40
4.7625
 49
1.905
 74
    0
 49
-0.9525
 74
    0
 49
0
 74
    0
 49
-0.9525
 74
    0
 49
0
 74
    0
 49
-0.9525
 74
    0
  0
LTYPE
  5
40
330
5
100
AcDbSymbolTableRecord
100
AcDbLinetypeTableRecord
  2
DIVIDE2
 70
    0
  3
Divide (.5x) __..__..__..__..__..__..__..__.._
 72
   65
 73
    6
 40
15.875
 49
6.35
 74
    0
 49
-3.175
 74
    0
 49
0
 74
    0
 49
-3.175
 74
    0
 49
0
 74
    0
 49
-3.175
 74
    0
  0
LTYPE
  5
41
330
5
100
AcDbSymbolTableRecord
100
AcDbLinetypeTableRecord
  2
DIVIDEX2
 70
    0
  3
Divide (2x) ________  .  .  ________  .  .  _
 72
   65
 73
    6
 40
63.5
 49
25.4
 74
    0
 49
-12.7
 74
    0
 49
0
 74
    0
 49
-12.7
 74
    0
 49
0
 74
    0
 49
-12.7
 74
    0
  0
LTYPE
  5
42
330
5
100
AcDbSymbolTableRecord
100
AcDbLinetypeTableRecord
  2
BORDER
 70
    0
  3
Border __ __ . __ __ . __ __ . __ __ . __ __ .
 72
   65
 73
    6
 40
44.45
 49
12.7
 74
    0
 49
-6.35
 74
    0
 49
12.7
 74
    0
 49
-6.35
 74
    0
 49
0
 74
    0
 49
-6.35
 74
    0
  0
LTYPE
  5
43
330
5
100
AcDbSymbolTableRecord
100
AcDbLinetypeTableRecord
  2
BORDERTINY
 70
    0
  3
Border (.15x) __.__.__.__.__.__.__.__.__.__.__.
 72
   65
 73
    6
 40
6.6675
 49
1.905
 74
    0
 49
-0.9525
 74
    0
 49
1.905
 74
    0
 49
-0.9525
 74
    0
 49
0
 74
    0
 49
-0.9525
 74
    0
  0
LTYPE
  5
44
330
5
100
AcDbSymbolTableRecord
100
AcDbLinetypeTableRecord
  2
BORDER2
 70
    0
  3
Border (.5x) __.__.__.__.__.__.__.__.__.__.__.
 72
   65
 73
    6
 40
22.225
 49
6.35
 74
    0
 49
-3.175
 74
    0
 49
6.35
 74
    0
 49
-3.175
 74
    0
 49
0
 74
    0
 49
-3.175
 74
    0
  0
LTYPE
  5
45
330
5
100
AcDbSymbolTableRecord
100
AcDbLinetypeTableRecord
  2
BORDERX2
 70
    0
  3
Border (2x) ____  ____  .  ____  ____  .  ___
 72
   65
 73
    6
 40
88.89999999999999
 49
25.4
 74
    0
 49
-12.7
 74
    0
 49
25.4
 74
    0
 49
-12.7
 74
    0
 49
0
 74
    0
 49
-12.7
 74
    0
  0
LTYPE
  5
46
330
5
100
AcDbSymbolTableRecord
100
AcDbLinetypeTableRecord
  2
CENTER
 70
    0
  3
Center ____ _ ____ _ ____ _ ____ _ ____ _ ____
 72
   65
 73
    4
 40
50.8
 49
31.75
 74
    0
 49
-6.35
 74
    0
 49
6.35
 74
    0
 49
-6.35
 74
    0
  0
LTYPE
  5
47
330
5
100
AcDbSymbolTableRecord
100
AcDbLinetypeTableRecord
  2
CENTERTINY
 70
    0
  3
Center (.15x) ___ _ ___ _ ___ _ ___ _ ___ _ ___
 72
   65
 73
    4
 40
7.619999999999999
 49
4.7625
 74
    0
 49
-0.9525
 74
    0
 49
0.9525
 74
    0
 49
-0.9525
 74
    0
  0
LTYPE
  5
48
330
5
100
AcDbSymbolTableRecord
100
AcDbLinetypeTableRecord
  2
CENTER2
 70
    0
  3
Center (.5x) ___ _ ___ _ ___ _ ___ _ ___ _ ___
 72
   65
 73
    4
 40
28.575
 49
19.05
 74
    0
 49
-3.175
 74
    0
 49
3.175
 74
    0
 49
-3.175
 74
    0
  0
LTYPE
  5
49
330
5
100
AcDbSymbolTableRecord
100
AcDbLinetypeTableRecord
  2
CENTERX2
 70
    0
  3
Center (2x) ________  __  ________  __  _____
 72
   65
 73
    4
 40
101.6
 49
63.5
 74
    0
 49
-12.7
 74
    0
 49
12.7
 74
    0
 49
-12.7
 74
    0
  0
ENDTAB
  0
TABLE
  2
LAYER
  5
2
100
AcDbSymbolTable
 70
    1
  0
LAYER
  5
10
330
2
100
AcDbSymbolTableRecord
100
AcDbLayerTableRecord
  2
0
 70
    1
 62
    7
  6
CONTINUOUS
370
   13
390
F
  0
LAYER
  5
4A
330
2
100
AcDbSymbolTableRecord
100
AcDbLayerTableRecord
  2
Headstock
 70
    0
 62
    3
  6
CONTINUOUS
370
    5
390
F
  0
ENDTAB
  0
TABLE
  2
STYLE
  5
3
100
AcDbSymbolTable
 70
    3
  0
STYLE
  5
4B
330
2
100
AcDbSymbolTableRecord
100
AcDbTextStyleTableRecord
  2
iso
 70
    0
 40
0
 41
1
 50
0
 71
    0
 42
1
  3
iso
  4

  0
STYLE
  5
4C
330
2
100
AcDbSymbolTableRecord
100
AcDbTextStyleTableRecord
  2
standard
 70
    0
 40
0
 41
1
 50
0
 71
    0
 42
1
  3
standard
  4

  0
ENDTAB
  0
TABLE
  2
VIEW
  5
6
100
AcDbSymbolTable
 70
    0
  0
ENDTAB
  0
TABLE
  2
UCS
  5
7
100
AcDbSymbolTable
 70
    0
  0
ENDTAB
  0
TABLE
  2
APPID
  5
9
100
AcDbSymbolTable
 70
    1
  0
APPID
  5
12
100
AcDbSymbolTableRecord
100
AcDbRegAppTableRecord
  2
ACAD
 70
    0
  0
APPID
  5
4D
100
AcDbSymbolTableRecord
100
AcDbRegAppTableRecord
  2
LibreCad
 70
    0
  0
ENDTAB
  0
TABLE
  2
DIMSTYLE
  5
A
100
AcDbSymbolTable
 70
    1
  0
DIMSTYLE
105
4E
330
A
100
AcDbSymbolTableRecord
100
AcDbDimStyleTableRecord
  2
Standard
 70
    0
 40
1
 41
15
 42
4
 43
0.38
 44
1.25
 45
0
 46
0
 47
0
 48
0
 49
1
140
25
141
0.09
142
0
143
25.4
144
1
145
0
146
1
147
3
 71
    0
 72
    0
 73
    0
 74
    1
 75
    0
 76
    0
 77
    0
 78
    8
170
    0
171
    2
172
    0
173
    0
174
    0
175
    0
176
    0
177
    0
178
    0
270
    2
271
    1
272
    4
273
    2
274
    2
275
    0
280
    0
281
    0
282
    0
283
    1
284
    0
285
    0
286
    0
287
    3
288
    0
340
standard
  0
ENDTAB
  0
TABLE
  2
BLOCK_RECORD
  5
1
100
AcDbSymbolTable
 70
    2
  0
BLOCK_RECORD
  5
1F
100
AcDbSymbolTableRecord
100
AcDbBlockTableRecord
  2
*Model_Space
  0
BLOCK_RECORD
  5
1E
100
AcDbSymbolTableRecord
100
AcDbBlockTableRecord
  2
*Paper_Space
  0
BLOCK_RECORD
  5
4F
100
AcDbSymbolTableRecord
100
AcDbBlockTableRecord
  2
*D1
  0
BLOCK_RECORD
  5
52
100
AcDbSymbolTableRecord
100
AcDbBlockTableRecord
  2
*D2
  0
BLOCK_RECORD
  5
55
100
AcDbSymbolTableRecord
100
AcDbBlockTableRecord
  2
2019-09-07 Stratocaster - Neck
  0
BLOCK_RECORD
  5
58
100
AcDbSymbolTableRecord
100
AcDbBlockTableRecord
  2
2019-09-07 Stratocaster - Neck-0
  0
BLOCK_RECORD
  5
5B
100
AcDbSymbolTableRecord
100
AcDbBlockTableRecord
  2
Gibson-Explorer-05-Complete-Plans
  0
BLOCK_RECORD
  5
5E
100
AcDbSymbolTableRecord
100
AcDbBlockTableRecord
  2
Tremolo
  0
BLOCK_RECORD
  5
61
100
AcDbSymbolTableRecord
100
AcDbBlockTableRecord
  2
Tremolo-0
  0
BLOCK_RECORD
  5
64
100
AcDbSymbolTableRecord
100
AcDbBlockTableRecord
  2
Stratocaster-Guitar-Plan-01
  0
BLOCK_RECORD
  5
67
100
AcDbSymbolTableRecord
100
AcDbBlockTableRecord
  2
2019-09-07 Stratocaster - Neck-1
  0
BLOCK_RECORD
  5
6A
100
AcDbSymbolTableRecord
100
AcDbBlockTableRecord
  2
Gibson-Explorer-05-Complete-Plans-0
  0
BLOCK_RECORD
  5
6D
100
AcDbSymbolTableRecord
100
AcDbBlockTableRecord
  2
Tremolo-1
  0
BLOCK_RECORD
  5
70
100
AcDbSymbolTableRecord
100
AcDbBlockTableRecord
  2
Stratocaster-Guitar-Plan-2
  0
BLOCK_RECORD
  5
73
100
AcDbSymbolTableRecord
100
AcDbBlockTableRecord
  2
Body with cavities-21
  0
ENDTAB
  0
ENDSEC
  0
SECTION
  2
BLOCKS
  0
BLOCK
  5
20
100
AcDbEntity
  8
0
100
AcDbBlockBegin
  2
*Model_Space
 70
    0
 10
0
 20
0
 30
0
  3
*Model_Space
  1

  0
ENDBLK
  5
21
100
AcDbEntity
  8
0
100
AcDbBlockEnd
  0
BLOCK
  5
1C
100
AcDbEntity
  8
0
100
AcDbBlockBegin
  2
*Paper_Space
 70
    0
 10
0
 20
0
 30
0
  3
*Paper_Space
  1

  0
ENDBLK
  5
1D
100
AcDbEntity
  8
0
100
AcDbBlockEnd
  0
BLOCK
  5
50
100
AcDbEntity
  8
0
100
AcDbBlockBegin
  2
*D1
 70
    1
 10
0
 20
0
  3
*D1
  1

  0
LINE
  5
76
100
AcDbEntity
  8
0
  6
CONTINUOUS
 62
    7
100
AcDbLine
 10
630
 20
-68
 11
600
 21
-30
  0
LINE
  5
77
100
AcDbEntity
  8
0
  6
CONTINUOUS
 62
    7
100
AcDbLine
 10
600
 20
-30
 11
770
 21
-30
  0
SOLID
  5
78
100
AcDbEntity
  8
0
  6
CONTINUOUS
 62
    7
100
AcDbTrace
 10
630
 20
-68
 30
0
 11
618.7449277506634
 21
-57.77444898067068
 31
0
 12
622.665743591966
 22
-54.67906805332653
 32
0
 13
622.665743591966
 23
-54.67906805332653
 33
0
  0
ENDBLK
  5
51
100
AcDbEntity
  8
0
100
AcDbBlockEnd
  0
BLOCK
  5
53
100
AcDbEntity
  8
0
100
AcDbBlockBegin
  2
*D2
 70
    1
 10
0
 20
0
  3
*D2
  1

  0
LINE
  5
79
100
AcDbEntity
  8
0
  6
CONTINUOUS
 62
    7
100
AcDbLine
 10
810
 20
-59
 11
790
 21
-30
  0
LINE
  5
7A
100
AcDbEntity
  8
0
  6
CONTINUOUS
 62
    7
100
AcDbLine
 10
790
 20
-30
 11
960
 21
-30
  0
SOLID
  5
7B
100
AcDbEntity
  8
0
  6
CONTINUOUS
 62
    7
100
AcDbTrace
 10
810
 20
-59
 30
0
 11
799.4278605457912
 21
-48.06983932654894
 31
0
 12
803.540150780099
 22
-45.23377709599187
 32
0
 13
803.540150780099
 23
-45.23377709599187
 33
0
  0
ENDBLK
  5
54
100
AcDbEntity
  8
0
100
AcDbBlockEnd
  0
BLOCK
  5
56
100
AcDbEntity
  8
0
100
AcDbBlockBegin
  2
2019-09-07 Stratocaster - Neck
 70
    0
 10
0
 20
0
  3
2019-09-07 Stratocaster - Neck
  1

  0
ENDBLK
  5
57
100
AcDbEntity
  8
0
100
AcDbBlockEnd
  0
BLOCK
  5
59
100
AcDbEntity
  8
0
100
AcDbBlockBegin
  2
2019-09-07 Stratocaster - Neck-0
 70
    0
 10
0
 20
0
  3
2019-09-07 Stratocaster - Neck-0
  1

  0
ENDBLK
  5
5A
100
AcDbEntity
  8
0
100
AcDbBlockEnd
  0
BLOCK
  5
5C
100
AcDbEntity
  8
0
100
AcDbBlockBegin
  2
Gibson-Explorer-05-Complete-Plans
 70
    0
 10
0
 20
0
  3
Gibson-Explorer-05-Complete-Plans
  1

  0
ENDBLK
  5
5D
100
AcDbEntity
  8
0
100
AcDbBlockEnd
  0
BLOCK
  5
5F
100
AcDbEntity
  8
0
100
AcDbBlockBegin
  2
Tremolo
 70
    0
 10
0
 20
0
  3
Tremolo
  1

  0
ENDBLK
  5
60
100
AcDbEntity
  8
0
100
AcDbBlockEnd
  0
BLOCK
  5
62
100
AcDbEntity
  8
0
100
AcDbBlockBegin
  2
Tremolo-0
 70
    0
 10
0
 20
0
  3
Tremolo-0
  1

  0
ENDBLK
  5
63
100
AcDbEntity
  8
0
100
AcDbBlockEnd
  0
BLOCK
  5
65
100
AcDbEntity
  8
0
100
AcDbBlockBegin
  2
Stratocaster-Guitar-Plan-01
 70
    0
 10
0
 20
0
  3
Stratocaster-Guitar-Plan-01
  1

  0
ENDBLK
  5
66
100
AcDbEntity
  8
0
100
AcDbBlockEnd
  0
BLOCK
  5
68
100
AcDbEntity
  8
0
100
AcDbBlockBegin
  2
2019-09-07 Stratocaster - Neck-1
 70
    0
 10
0
 20
0
  3
2019-09-07 Stratocaster - Neck-1
  1

  0
ENDBLK
  5
69
100
AcDbEntity
  8
0
100
AcDbBlockEnd
  0
BLOCK
  5
6B
100
AcDbEntity
  8
0
100
AcDbBlockBegin
  2
Gibson-Explorer-05-Complete-Plans-0
 70
    0
 10
0
 20
0
  3
Gibson-Explorer-05-Complete-Plans-0
  1

  0
ENDBLK
  5
6C
100
AcDbEntity
  8
0
100
AcDbBlockEnd
  0
BLOCK
  5
6E
100
AcDbEntity
  8
0
100
AcDbBlockBegin
  2
Tremolo-1
 70
    0
 10
0
 20
0
  3
Tremolo-1
  1

  0
ENDBLK
  5
6F
100
AcDbEntity
  8
0
100
AcDbBlockEnd
  0
BLOCK
  5
71
100
AcDbEntity
  8
0
100
AcDbBlockBegin
  2
Stratocaster-Guitar-Plan-2
 70
    0
 10
0
 20
0
  3
Stratocaster-Guitar-Plan-2
  1

  0
ENDBLK
  5
72
100
AcDbEntity
  8
0
100
AcDbBlockEnd
  0
BLOCK
  5
74
100
AcDbEntity
  8
0
100
AcDbBlockBegin
  2
Body with cavities-21
 70
    0
 10
0
 20
0
  3
Body with cavities-21
  1

  0
LINE
  5
7C
100
AcDbEntity
  8
0
  6
ByLayer
 62
  256
100
AcDbLine
 10
617.9035224966017
 20
-134.7929923169592
 11
617.9035224966017
 21
5.207007683040786
  0
LINE
  5
7D
100
AcDbEntity
  8
0
  6
ByLayer
 62
  256
100
AcDbLine
 10
617.9035224966017
 20
-134.7929923169592
 11
1317.903522496602
 21
-134.7929923169592
  0
LINE
  5
7E
100
AcDbEntity
  8
0
  6
ByLayer
 62
  256
100
AcDbLine
 10
617.9035224966017
 20
5.207007683040786
 11
1317.903522496602
 21
5.207007683040786
  0
LINE
  5
7F
100
AcDbEntity
  8
0
  6
ByLayer
 62
  256
100
AcDbLine
 10
1317.903522496602
 20
5.207007683040786
 11
1317.903522496602
 21
-134.7929923169592
  0
LINE
  5
80
100
AcDbEntity
  8
0
  6
ByLayer
 62
  256
100
AcDbLine
 10
1154.109610921392
 20
-26.99805147045951
 11
1145.70868206002
 21
-50.54426972873122
  0
LINE
  5
81
100
AcDbEntity
  8
0
  6
ByLayer
 62
  256
100
AcDbLine
 10
1139.848110725347
 20
-48.45330793055431
 11
1145.70868206002
 21
-50.54426972873122
  0
LINE
  5
82
100
AcDbEntity
  8
0
  6
ByLayer
 62
  256
100
AcDbLine
 10
1187.585224317368
 20
-34.11034556610782
 11
1179.184295455996
 21
-57.65656382437954
  0
LINE
  5
83
100
AcDbEntity
  8
0
  6
ByLayer
 62
  256
100
AcDbLine
 10
1173.323724121323
 20
-55.56560202620263
 11
1179.184295455996
 21
-57.65656382437954
  0
LINE
  5
84
100
AcDbEntity
  8
0
  6
ByLayer
 62
  256
100
AcDbLine
 10
1224.760237693474
 20
-39.45660409499627
 11
1219.709519298366
 21
-63.94109395476899
  0
LINE
  5
85
100
AcDbEntity
  8
0
  6
ByLayer
 62
  256
100
AcDbLine
 10
1213.615415445155
 20
-62.68398781903203
 11
1219.709519298366
 21
-63.94109395476899
  0
LINE
  5
86
100
AcDbEntity
  8
0
  6
ByLayer
 62
  256
100
AcDbLine
 10
1263.244599785766
 20
-45.82615404535294
 11
1260.070313410116
 21
-70.62381333015952
  0
LINE
  5
87
100
AcDbEntity
  8
0
  6
ByLayer
 62
  256
100
AcDbLine
 10
1253.898262782815
 20
-69.83374455830295
 11
1260.070313410116
 21
-70.62381333015952
  0
LINE
  5
88
100
AcDbEntity
  8
0
  6
ByLayer
 62
  256
100
AcDbLine
 10
1175.941158962872
 20
-111.2947358121818
 11
1167.481713075535
 21
-87.7694775717453
  0
LINE
  5
89
100
AcDbEntity
  8
0
  6
ByLayer
 62
  256
100
AcDbLine
 10
1161.626358615961
 20
-89.87500405292978
 11
1167.481713075535
 21
-87.7694775717453
  0
LINE
  5
8A
100
AcDbEntity
  8
0
  6
ByLayer
 62
  256
100
AcDbLine
 10
1219.759629321676
 20
-105.235921418967
 11
1212.997107518893
 21
-81.16792817343702
  0
LINE
  5
8B
100
AcDbEntity
  8
0
  6
ByLayer
 62
  256
100
AcDbLine
 10
1207.006668215617
 20
-82.85109618762839
 11
1212.997107518893
 21
-81.16792817343702
  0
TEXT
  5
8C
100
AcDbEntity
  8
0
  6
ByLayer
 62
  256
100
AcDbText
 10
-450
 20
100
 30
0
 40
30
  1
Peilattu
 50
0
 41
1
 51
0
  7
standard
 71
    0
210
0
220
0
230
1
100
AcDbText
  0
TEXT
  5
8D
100
AcDbEntity
  8
0
  6
ByLayer
 62
  256
100
AcDbText
 10
400
 20
100
 30
0
 40
30
  1
Peilaamaton
 50
0
 41
1
 51
0
  7
standard
 71
    0
210
0
220
0
230
1
100
AcDbText
  0
ENDBLK
  5
75
100
AcDbEntity
  8
0
100
AcDbBlockEnd
  0
ENDSEC
  0
SECTION
  2
ENTITIES
  0
CIRCLE
  5
8E
100
AcDbEntity
  8
Headstock
  6
ByLayer
 62
  256
100
AcDbCircle
 10
1139.848110725347
 20
-48.74914009047713
 40
3
  0
CIRCLE
  5
8F
100
AcDbEntity
  8
Headstock
  6
ByLayer
 62
  256
100
AcDbCircle
 10
1173.323724121323
 20
-55.86143418612544
 40
3
  0
CIRCLE
  5
90
100
AcDbEntity
  8
Headstock
  6
ByLayer
 62
  256
100
AcDbCircle
 10
1253.961490839725
 20
-70.12274088987834
 40
3
  0
CIRCLE
  5
91
100
AcDbEntity
  8
Headstock
  6
ByLayer
 62
  256
100
AcDbCircle
 10
1213.615415445155
 20
-62.97981997895485
 40
3
  0
CIRCLE
  5
92
100
AcDbEntity
  8
Headstock
  6
ByLayer
 62
  256
100
AcDbCircle
 10
1207.006668215617
 20
-82.85109618762839
 40
3
  0
CIRCLE
  5
93
100
AcDbEntity
  8
Headstock
  6
ByLayer
 62
  256
100
AcDbCircle
 10
1161.626358615961
 20
-89.87500405292978
 40
3
  0
ARC
  5
94
100
AcDbEntity
  8
Headstock
  6
ByLayer
 62
  256
100
AcDbCircle
 10
1300.371573119418
 20
-58.35237192655546
 40
1
100
AcDbArc
 50
285.1971305132848
 51
86.81193038126941
  0
ARC
  5
95
100
AcDbEntity
  8
Headstock
  6
ByLayer
 62
  256
100
AcDbCircle
 10
1321.834367845013
 20
-137.3642194044207
 40
80.87504869799152
100
AcDbArc
 50
105.1971305132891
 51
141.6674762407935
  0
ARC
  5
96
100
AcDbEntity
  8
Headstock
  6
ByLayer
 62
  256
100
AcDbCircle
 10
1257.609579553182
 20
-86.58331582671828
 40
1
100
AcDbArc
 50
282.2231684972862
 51
321.6674762407965
  0
ARC
  5
97
100
AcDbEntity
  8
Headstock
  6
ByLayer
 62
  256
100
AcDbCircle
 10
1135.148366680196
 20
-124.9647760000316
 40
2
100
AcDbArc
 50
208.6873359442362
 51
293.4692381847149
  0
ARC
  5
98
100
AcDbEntity
  8
Headstock
  6
ByLayer
 62
  256
100
AcDbCircle
 10
1129.607035924602
 20
-19.72265056180443
 40
2
100
AcDbArc
 50
67.04986919756159
 51
149.5280058281864
  0
ARC
  5
99
100
AcDbEntity
  8
Headstock
  6
ByLayer
 62
  256
100
AcDbCircle
 10
1328.713443326363
 20
450.480095616625
 40
508.6211746316171
100
AcDbArc
 50
247.0498691975644
 51
247.8236695682055
  0
ARC
  5
9A
100
AcDbEntity
  8
Headstock
  6
ByLayer
 62
  256
100
AcDbCircle
 10
1135.975259945627
 20
-22.36869273887693
 40
2
100
AcDbArc
 50
11.93207986238092
 51
67.82366956820103
  0
ARC
  5
9B
100
AcDbEntity
  8
Headstock
  6
ByLayer
 62
  256
100
AcDbCircle
 10
1157.418455114948
 20
-17.8373620860026
 40
19.91674192381821
100
AcDbArc
 50
191.9320798623814
 51
307.8862340624669
  0
ARC
  5
9C
100
AcDbEntity
  8
Headstock
  6
ByLayer
 62
  256
100
AcDbCircle
 10
1170.877429815415
 20
-35.13474849457419
 40
2
100
AcDbArc
 50
71.9946443566521
 51
127.886234062465
  0
ARC
  5
9D
100
AcDbEntity
  8
Headstock
  6
ByLayer
 62
  256
100
AcDbCircle
 10
1328.713443326363
 20
450.480095616625
 40
508.6211746316171
100
AcDbArc
 50
251.9946443566433
 51
252.0816565352222
  0
ARC
  5
9E
100
AcDbEntity
  8
Headstock
  6
ByLayer
 62
  256
100
AcDbCircle
 10
1171.615090040177
 20
-35.37388592200665
 40
2
100
AcDbArc
 50
28.40028737766453
 51
72.08165653521462
  0
ARC
  5
9F
100
AcDbEntity
  8
Headstock
  6
ByLayer
 62
  256
100
AcDbCircle
 10
1190.894068510924
 20
-24.94965618165092
 40
19.91674192381821
100
AcDbArc
 50
208.4002873776654
 51
299.2676793856911
  0
ARC
  5
A0
100
AcDbEntity
  8
Headstock
  6
ByLayer
 62
  256
100
AcDbCircle
 10
1201.608954083718
 20
-44.06862068596404
 40
2
100
AcDbArc
 50
75.58631022813707
 51
119.2676793856898
  0
ARC
  5
A1
100
AcDbEntity
  8
Headstock
  6
ByLayer
 62
  256
100
AcDbCircle
 10
1328.713443326363
 20
450.480095616625
 40
508.6211746316171
100
AcDbArc
 50
255.586310228134
 51
256.8780633844787
  0
ARC
  5
A2
100
AcDbEntity
  8
Headstock
  6
ByLayer
 62
  256
100
AcDbCircle
 10
1212.790083093304
 20
-46.80831017467102
 40
2
100
AcDbArc
 50
50.38321716571811
 51
76.87806338447984
  0
ARC
  5
A3
100
AcDbEntity
  8
Headstock
  6
ByLayer
 62
  256
100
AcDbCircle
 10
1226.765286081958
 20
-29.9252631161219
 40
19.91674192381821
100
AcDbArc
 50
230.3832171657168
 51
285.6544769066081
  0
ARC
  5
A4
100
AcDbEntity
  8
Headstock
  6
ByLayer
 62
  256
100
AcDbCircle
 10
1232.679200554387
 20
-51.02903510522486
 40
2
100
AcDbArc
 50
79.15963068785524
 51
105.6544769066107
  0
ARC
  5
A5
100
AcDbEntity
  8
Headstock
  6
ByLayer
 62
  256
100
AcDbCircle
 10
1328.713443326363
 20
450.480095616625
 40
508.6211746316171
100
AcDbArc
 50
259.1596306878484
 51
261.3993308423927
  0
ARC
  5
A6
100
AcDbEntity
  8
Headstock
  6
ByLayer
 62
  256
100
AcDbCircle
 10
1252.351634118779
 20
-54.39895730270235
 40
2
100
AcDbArc
 50
56.27781123215385
 51
81.39933084240154
  0
ARC
  5
A7
100
AcDbEntity
  8
Headstock
  6
ByLayer
 62
  256
100
AcDbCircle
 10
1264.519076651497
 20
-36.1699441980862
 40
19.91674192381821
100
AcDbArc
 50
236.2778112321526
 51
288.6931015540267
  0
ARC
  5
A8
100
AcDbEntity
  8
Headstock
  6
ByLayer
 62
  256
100
AcDbCircle
 10
1328.713443326363
 20
450.480095616625
 40
508.6211746316171
100
AcDbArc
 50
263.5715819437873
 51
266.8119303812599
  0
ARC
  5
A9
100
AcDbEntity
  8
Headstock
  6
ByLayer
 62
  256
100
AcDbCircle
 10
1271.543369284809
 20
-56.93055328252416
 40
2
100
AcDbArc
 50
83.57158194379001
 51
108.693101554025
  0
ARC
  5
AA
100
AcDbEntity
  8
Headstock
  6
ByLayer
 62
  256
100
AcDbCircle
 10
1396.151646655841
 20
-726.113638596619
 40
653.3645299825251
100
AcDbArc
 50
111.3176994531462
 51
113.4692381847128
  0
ARC
  5
AB
100
AcDbEntity
  8
Headstock
  6
ByLayer
 62
  256
100
AcDbCircle
 10
1179.272769162788
 20
-120.4471700988371
 40
19.91674192381821
100
AcDbArc
 50
52.2077888496628
 51
167.1953782303632
  0
ARC
  5
AC
100
AcDbEntity
  8
Headstock
  6
ByLayer
 62
  256
100
AcDbCircle
 10
1396.151646655841
 20
-726.113638596619
 40
653.3645299825251
100
AcDbArc
 50
106.7195180412361
 51
108.0854676268794
  0
ARC
  5
AD
100
AcDbEntity
  8
Headstock
  6
ByLayer
 62
  256
100
AcDbCircle
 10
1222.430953262184
 20
-114.6023886452268
 40
19.91674192381821
100
AcDbArc
 50
79.17443715716792
 51
132.5435855726094
  0
ARC
  5
AE
100
AcDbEntity
  8
Headstock
  6
ByLayer
 62
  256
100
AcDbCircle
 10
1396.151646655841
 20
-726.113638596619
 40
653.3645299825251
100
AcDbArc
 50
102.2231684972842
 51
104.9985046885415
  0
ARC
  5
AF
100
AcDbEntity
  8
Headstock
  6
ByLayer
 62
  256
100
AcDbCircle
 10
1157.901064175988
 20
-115.5898248864354
 40
2
100
AcDbArc
 50
291.3176994531502
 51
347.1953782303638
  0
ARC
  5
B0
100
AcDbEntity
  8
Headstock
  6
ByLayer
 62
  256
100
AcDbCircle
 10
1192.703340580582
 20
-103.1277206864917
 40
2
100
AcDbArc
 50
232.2077888496603
 51
288.0854676268805
  0
ARC
  5
B1
100
AcDbEntity
  8
Headstock
  6
ByLayer
 62
  256
100
AcDbCircle
 10
1207.611929195047
 20
-98.45493986057814
 40
2
100
AcDbArc
 50
286.7195180412341
 51
312.5435855726111
  0
ARC
  5
B2
100
AcDbEntity
  8
Headstock
  6
ByLayer
 62
  256
100
AcDbCircle
 10
1226.547345846957
 20
-93.07568688570784
 40
2
100
AcDbArc
 50
259.1744371571646
 51
284.9985046885417
  0
ARC
  5
B3
100
AcDbEntity
  8
Headstock
  6
ByLayer
 62
  256
100
AcDbCircle
 10
1040.254495721335
 20
32.85120581735383
 40
101.6720155845001
100
AcDbArc
 50
309.6118328411608
 51
329.5280058281841
  0
ARC
  5
B4
100
AcDbEntity
  8
Headstock
  6
ByLayer
 62
  256
100
AcDbCircle
 10
1041.453690362652
 20
-176.234199530004
 40
104.8047103799497
100
AcDbArc
 50
28.68733594423743
 51
52.74337497544846
  0
ARC
  5
B5
100
AcDbEntity
  8
Headstock
  6
ByLayer
 62
  256
100
AcDbCircle
 10
637.1019168275649
 20
-58.9562209089056
 40
1.650009384064944
100
AcDbArc
 50
90.00000037063175
 51
269.6135256472481
  0
LINE
  5
B6
100
AcDbEntity
  8
Headstock
  6
ByLayer
 62
  256
100
AcDbLine
 10
1097.101916828459
 20
-62.15764161177302
 11
637.1019168422524
 21
-60.60623029301914
  0
ARC
  5
B7
100
AcDbEntity
  8
Headstock
  6
ByLayer
 62
  256
100
AcDbCircle
 10
1097.101916827827
 20
-60.50763222770686
 40
1.650009384064955
100
AcDbArc
 50
270.0000000219414
 51
89.6135262470451
  0
LINE
  5
B8
100
AcDbEntity
  8
Headstock
  6
ByLayer
 62
  256
100
AcDbLine
 10
1097.101916830413
 20
-58.85762284365157
 11
637.1130464648365
 21
-57.3062490610269
  0
ARC
  5
B9
100
AcDbEntity
  8
Headstock
  6
ByLayer
 62
  256
100
AcDbCircle
 10
637.1035020689526
 20
-79.57919840190628
 40
1.650009384064944
100
AcDbArc
 50
90.39528274532177
 51
270.0088080219381
  0
LINE
  5
BA
100
AcDbEntity
  8
Headstock
  6
ByLayer
 62
  256
100
AcDbLine
 10
1097.103004462034
 20
-76.30705942915898
 11
637.1032484187026
 21
-77.92918903728913
  0
ARC
  5
BB
100
AcDbEntity
  8
Headstock
  6
ByLayer
 62
  256
100
AcDbCircle
 10
1097.10325812634
 20
-77.95706879372658
 40
1.650009384064955
100
AcDbArc
 50
270.3952821455248
 51
90.00880837062847
  0
LINE
  5
BC
100
AcDbEntity
  8
Headstock
  6
ByLayer
 62
  256
100
AcDbLine
 10
1097.103511793863
 20
-79.60707815828283
 11
637.1148853652599
 21
-81.22916851926698
  0
LINE
  5
BD
100
AcDbEntity
  8
Headstock
  6
ByLayer
 62
  256
100
AcDbLine
 10
1098.562620862494
 20
-47.77024107909834
 11
636.0184452656728
 21
-41.2753365180107
  0
ARC
  5
BE
100
AcDbEntity
  8
Headstock
  6
ByLayer
 62
  256
100
AcDbCircle
 10
1098.70302397858
 20
-37.77122677942893
 40
10
100
AcDbArc
 50
269.1955229691613
 51
309.6118328411611
  0
LINE
  5
BF
100
AcDbEntity
  8
Headstock
  6
ByLayer
 62
  256
100
AcDbLine
 10
636.0184452656728
 20
-97.27411551801072
 11
1098.706731685672
 21
-90.77708176343965
  0
ARC
  5
C0
100
AcDbEntity
  8
Headstock
  6
ByLayer
 62
  256
100
AcDbCircle
 10
1098.847137084114
 20
-100.7760960310607
 40
10
100
AcDbArc
 50
52.74337497544839
 51
90.80449010906197
  0
LINE
  5
C1
100
AcDbEntity
  8
0
  6
CENTERTINY
 62
    2
100
AcDbLine
 10
603.0578102937679
 20
-69.29922719619999
 11
1323.954752712197
 21
-69.29922719620001
  0
ARC
  5
C2
100
AcDbEntity
  8
Headstock
  6
ByLayer
 62
  256
100
AcDbCircle
 10
1087.620921153614
 20
-69.4492271962
 40
3
100
AcDbArc
 50
270
 51
0
  0
LINE
  5
C3
100
AcDbEntity
  8
Headstock
  6
ByLayer
 62
  256
100
AcDbLine
 10
1090.620921153614
 20
-69.4492271962
 11
1090.620921153614
 21
-69.14922719619999
  0
ARC
  5
C4
100
AcDbEntity
  8
Headstock
  6
ByLayer
 62
  256
100
AcDbCircle
 10
1087.620921153614
 20
-69.14922719619999
 40
3
100
AcDbArc
 50
0
 51
90
  0
LINE
  5
C5
100
AcDbEntity
  8
Headstock
  6
ByLayer
 62
  256
100
AcDbLine
 10
654.2012692165231
 20
-66.14922719620006
 11
1087.620921153614
 21
-66.1492271962
  0
ARC
  5
C6
100
AcDbEntity
  8
Headstock
  6
ByLayer
 62
  256
100
AcDbCircle
 10
652.6209211536138
 20
-68.6992271962
 40
3
100
AcDbArc
 50
58.21166938325068
 51
90
  0
ARC
  5
C7
100
AcDbEntity
  8
Headstock
  6
ByLayer
 62
  256
100
AcDbCircle
 10
652.6209211536137
 20
-69.89922719619999
 40
3
100
AcDbArc
 50
270
 51
301.788330617985
  0
LINE
  5
C8
100
AcDbEntity
  8
Headstock
  6
ByLayer
 62
  256
100
AcDbLine
 10
654.2012692165991
 20
-72.44922719620001
 11
1087.620921153614
 21
-72.44922719620001
  0
LINE
  5
C9
100
AcDbEntity
  8
0
  6
ByLayer
 62
  256
100
AcDbLine
 10
1092.8
 20
-209.2992271962
 11
1092.8
 21
70.70077280380001
  0
LINE
  5
CA
100
AcDbEntity
  8
0
  6
ByLayer
 62
  256
100
AcDbLine
 10
842.8000000000001
 20
-209.2992271962
 11
842.8000000000001
 21
70.70077280380001
  0
LINE
  5
CB
100
AcDbEntity
  8
0
  6
ByLayer
 62
  256
100
AcDbLine
 10
592.8000000000001
 20
-209.2992271962
 11
592.8000000000001
 21
70.70077280380001
  0
LINE
  5
CC
100
AcDbEntity
  8
0
  6
ByLayer
 62
  256
100
AcDbLine
 10
1342.8
 20
-209.2992271962
 11
1342.8
 21
70.70077280379999
  0
LEADER
  5
CD
100
AcDbEntity
  8
0
  6
ByLayer
 62
  256
100
AcDbLeader
  3
Standard
 71
    1
 72
    0
 73
    3
 74
    0
 75
    0
 40
1
 41
10
 76
3
 76
3
 10
630
 20
-68
 30
0
 10
600
 20
-30
 30
0
 10
770
 20
-30
 30
0
  0
ARC
  5
CE
100
AcDbEntity
  8
Headstock
  6
ByLayer
 62
  256
100
AcDbCircle
 10
754.4561251688826
 20
-69.29922719619999
 40
126.799929724
100
AcDbArc
 50
169.622006408
 51
190.377993592
  0
ARC
  5
CF
100
AcDbEntity
  8
Headstock
  6
ByLayer
 62
  256
100
AcDbCircle
 10
635.9325840189098
 20
-47.57472704669403
 40
6.299975649679999
100
AcDbArc
 50
89.2191018435
 51
169.622435896
  0
ARC
  5
D0
100
AcDbEntity
  8
Headstock
  6
ByLayer
 62
  256
100
AcDbCircle
 10
635.9361466289898
 20
-90.95710713161812
 40
6.31754446120914
100
AcDbArc
 50
190.8022321755852
 51
270.7464130959546
  0
LINE
  5
D1
100
AcDbEntity
  8
Headstock
  6
ByLayer
 62
  256
100
AcDbLine
 10
635.6577106069561
 20
-65.69922719619998
 11
652.6209211536138
 21
-65.6992271962
  0
LINE
  5
D2
100
AcDbEntity
  8
Headstock
  6
ByLayer
 62
  256
100
AcDbLine
 10
635.6577106069565
 20
-72.89922719619999
 11
652.6209211536137
 21
-72.89922719619999
  0
ARC
  5
D3
100
AcDbEntity
  8
Headstock
  6
ByLayer
 62
  256
100
AcDbCircle
 10
635.6577106069565
 20
-69.89922719619994
 40
3
100
AcDbArc
 50
180.2893740251982
 51
270
  0
ARC
  5
D4
100
AcDbEntity
  8
Headstock
  6
ByLayer
 62
  256
100
AcDbCircle
 10
635.6577106069561
 20
-68.69922719620001
 40
3
100
AcDbArc
 50
90
 51
179.7106370054478
  0
LINE
  5
D5
100
AcDbEntity
  8
Headstock
  6
ByLayer
 62
  256
100
AcDbLine
 10
632.6577488657304
 20
-68.68407624964154
 11
632.6577488686477
 21
-69.91437872031433
  0
TEXT
  5
D6
100
AcDbEntity
  8
0
  6
ByLayer
 62
  256
100
AcDbText
 10
610
 20
-30
 30
0
 40
16
  1
Syvyys: 9.3mm
 50
0
 41
1
 51
0
  7
iso
 71
    0
 11
610
 21
-30
 31
0
210
0
220
0
230
1
100
AcDbText
 73
    1
  0
TEXT
  5
D7
100
AcDbEntity
  8
0
  6
ByLayer
 62
  256
100
AcDbText
 10
800
 20
-30
 30
0
 40
16
  1
Syvyys: 8.5mm
 50
0
 41
1
 51
0
  7
iso
 71
    0
 11
800
 21
-30
 31
0
210
0
220
0
230
1
100
AcDbText
 73
    1
  0
LEADER
  5
D8
100
AcDbEntity
  8
0
  6
ByLayer
 62
  256
100
AcDbLeader
  3
Standard
 71
    1
 72
    0
 73
    3
 74
    0
 75
    0
 40
1
 41
10
 76
3
 76
3
 10
810
 20
-59
 30
0
 10
790
 20
-30
 30
0
 10
960
 20
-30
 30
0
  0
LINE
  5
D9
100
AcDbEntity
  8
Headstock
  6
ByLayer
 62
  256
100
AcDbLine
 10
1330
 20
-160
 11
1330
 21
10
  0
LINE
  5
DA
100
AcDbEntity
  8
Headstock
  6
ByLayer
 62
  256
100
AcDbLine
 10
600
 20
-160
 11
1330
 21
-160
  0
LINE
  5
DB
100
AcDbEntity
  8
Headstock
  6
ByLayer
 62
  256
100
AcDbLine
 10
600
 20
10
 11
1330
 21
10
  0
LINE
  5
DC
100
AcDbEntity
  8
Headstock
  6
ByLayer
 62
  256
100
AcDbLine
 10
600
 20
-160
 11
600
 21
10
  0
CIRCLE
  5
DD
100
AcDbEntity
  8
Headstock
  6
ByLayer
 62
  256
100
AcDbCircle
 10
643.3563561768826
 20
-50.24922719620004
 40
2
  0
CIRCLE
  5
DE
100
AcDbEntity
  8
Headstock
  6
ByLayer
 62
  256
100
AcDbCircle
 10
694.1563514518828
 20
-50.24922719620004
 40
2
  0
CIRCLE
  5
DF
100
AcDbEntity
  8
Headstock
  6
ByLayer
 62
  256
100
AcDbCircle
 10
694.1563561768828
 20
-88.34922719619995
 40
2
  0
CIRCLE
  5
E0
100
AcDbEntity
  8
Headstock
  6
ByLayer
 62
  256
100
AcDbCircle
 10
643.3563514518826
 20
-88.34922719619995
 40
2
  0
ENDSEC
  0
SECTION
  2
OBJECTS
  0
DICTIONARY
  5
C
100
AcDbDictionary
281
    1
  3
ACAD_GROUP
350
D
  0
DICTIONARY
  5
D
330
C
100
AcDbDictionary
281
    1
  0
ENDSEC
  0
EOF
