999
dxfrw 0.6.3
  0
SECTION
  2
HEADER
  9
$ACADVER
  1
AC1021
  9
$DWGCODEPAGE
  3
ANSI_1252
  9
$INSBASE
 10
0
 20
0
 30
0
  9
$EXTMIN
 10
-25.5
 20
-96
 30
0
  9
$EXTMAX
 10
82.25
 20
66
 30
0
  9
$LIMMIN
 10
0
 20
0
  9
$LIMMAX
 10
420
 20
297
  9
$ORTHOMODE
 70
    0
  9
$REGENMODE
 70
    1
  9
$FILLMODE
 70
    1
  9
$QTEXTMODE
 70
    0
  9
$MIRRTEXT
 70
    0
  9
$LTSCALE
 40
1
  9
$ATTMODE
 70
    0
  9
$TEXTSIZE
 40
2.5
  9
$TRACEWID
 40
15.68
  9
$TEXTSTYLE
  7
STANDARD
  9
$CLAYER
  8
Centerlines
  9
$CELTYPE
  6
BYLAYER
  9
$CECOLOR
 62
  256
  9
$CELTSCALE
 40
1
  9
$DISPSILH
 70
    0
  9
$DIMSCALE
 40
2.5
  9
$DIMASZ
 40
2.5
  9
$DIMEXO
 40
0.625
  9
$DIMDLI
 40
3.75
  9
$DIMRND
 40
0
  9
$DIMDLE
 40
0
  9
$DIMEXE
 40
1.25
  9
$DIMTP
 40
0
  9
$DIMTM
 40
0
  9
$DIMTXT
 40
2.5
  9
$DIMCEN
 40
2.5
  9
$DIMTSZ
 40
0
  9
$DIMTOL
 70
    0
  9
$DIMLIM
 70
    0
  9
$DIMTIH
 70
    0
  9
$DIMTOH
 70
    0
  9
$DIMSE1
 70
    0
  9
$DIMSE2
 70
    0
  9
$DIMTAD
 70
    1
  9
$DIMZIN
 70
    8
  9
$DIMBLK
  1

  9
$DIMASO
 70
    1
  9
$DIMSHO
 70
    1
  9
$DIMPOST
  1

  9
$DIMAPOST
  1

  9
$DIMALT
 70
    0
  9
$DIMALTD
 70
    3
  9
$DIMALTF
 40
0.03937
  9
$DIMLFAC
 40
1
  9
$DIMTOFL
 70
    1
  9
$DIMTVP
 40
0
  9
$DIMTIX
 70
    0
  9
$DIMSOXD
 70
    0
  9
$DIMSAH
 70
    0
  9
$DIMBLK1
  1

  9
$DIMBLK2
  1

  9
$DIMSTYLE
  2
STANDARD
  9
$DIMCLRD
 70
    0
  9
$DIMCLRE
 70
    0
  9
$DIMCLRT
 70
    0
  9
$DIMTFAC
 40
1
  9
$DIMGAP
 40
0.625
  9
$DIMJUST
 70
    0
  9
$DIMSD1
 70
    0
  9
$DIMSD2
 70
    0
  9
$DIMTOLJ
 70
    0
  9
$DIMTZIN
 70
    8
  9
$DIMALTZ
 70
    0
  9
$DIMALTTZ
 70
    0
  9
$DIMUPT
 70
    0
  9
$DIMDEC
 70
    2
  9
$DIMTDEC
 70
    2
  9
$DIMALTU
 70
    2
  9
$DIMALTTD
 70
    3
  9
$DIMTXSTY
  7
STANDARD
  9
$DIMAUNIT
 70
    0
  9
$DIMADEC
 70
    0
  9
$DIMALTRND
 40
0
  9
$DIMAZIN
 70
    0
  9
$DIMDSEP
 70
   44
  9
$DIMATFIT
 70
    3
  9
$DIMFRAC
 70
    0
  9
$DIMLDRBLK
  1
STANDARD
  9
$DIMLUNIT
 70
    2
  9
$DIMLWD
 70
   -2
  9
$DIMLWE
 70
   -2
  9
$DIMTMOVE
 70
    0
  9
$DIMFXL
 40
1
  9
$DIMFXLON
 70
    0
  9
$DIMJOGANG
 40
0.7854
  9
$DIMTFILL
 70
    0
  9
$DIMTFILLCLR
 70
    0
  9
$DIMARCSYM
 70
    0
  9
$DIMLTYPE
  6

  9
$DIMLTEX1
  6

  9
$DIMLTEX2
  6

  9
$LUNITS
 70
    2
  9
$LUPREC
 70
    4
  9
$SKETCHINC
 40
1
  9
$FILLETRAD
 40
0
  9
$AUNITS
 70
    0
  9
$AUPREC
 70
    2
  9
$MENU
  1
.
  9
$ELEVATION
 40
0
  9
$PELEVATION
 40
0
  9
$THICKNESS
 40
0
  9
$LIMCHECK
 70
    0
  9
$CHAMFERA
 40
0
  9
$CHAMFERB
 40
0
  9
$CHAMFERC
 40
0
  9
$CHAMFERD
 40
0
  9
$SKPOLY
 70
    0
  9
$USRTIMER
 70
    1
  9
$ANGBASE
 50
0
  9
$ANGDIR
 70
    0
  9
$PDMODE
 70
   34
  9
$PDSIZE
 40
0
  9
$PLINEWID
 40
0
  9
$SPLFRAME
 70
    0
  9
$SPLINETYPE
 70
    2
  9
$SPLINESEGS
 70
    8
  9
$HANDSEED
  5
20000
  9
$SURFTAB1
 70
    6
  9
$SURFTAB2
 70
    6
  9
$SURFTYPE
 70
    6
  9
$SURFU
 70
    6
  9
$SURFV
 70
    6
  9
$UCSBASE
  2

  9
$UCSNAME
  2

  9
$UCSORG
 10
0
 20
0
 30
0
  9
$UCSXDIR
 10
1
 20
0
 30
0
  9
$UCSYDIR
 10
0
 20
1
 30
0
  9
$UCSORTHOREF
  2

  9
$UCSORTHOVIEW
 70
    0
  9
$UCSORGTOP
 10
0
 20
0
 30
0
  9
$UCSORGBOTTOM
 10
0
 20
0
 30
0
  9
$UCSORGLEFT
 10
0
 20
0
 30
0
  9
$UCSORGRIGHT
 10
0
 20
0
 30
0
  9
$UCSORGFRONT
 10
0
 20
0
 30
0
  9
$UCSORGBACK
 10
0
 20
0
 30
0
  9
$PUCSBASE
  2

  9
$PUCSNAME
  2

  9
$PUCSORG
 10
0
 20
0
 30
0
  9
$PUCSXDIR
 10
1
 20
0
 30
0
  9
$PUCSYDIR
 10
0
 20
1
 30
0
  9
$PUCSORTHOREF
  2

  9
$PUCSORTHOVIEW
 70
    0
  9
$PUCSORGTOP
 10
0
 20
0
 30
0
  9
$PUCSORGBOTTOM
 10
0
 20
0
 30
0
  9
$PUCSORGLEFT
 10
0
 20
0
 30
0
  9
$PUCSORGRIGHT
 10
0
 20
0
 30
0
  9
$PUCSORGFRONT
 10
0
 20
0
 30
0
  9
$PUCSORGBACK
 10
0
 20
0
 30
0
  9
$USERI1
 70
    0
  9
$USERI2
 70
    0
  9
$USERI3
 70
    0
  9
$USERI4
 70
    0
  9
$USERI5
 70
    0
  9
$USERR1
 40
0
  9
$USERR2
 40
0
  9
$USERR3
 40
0
  9
$USERR4
 40
0
  9
$USERR5
 40
0
  9
$WORLDVIEW
 70
    1
  9
$SHADEDGE
 70
    3
  9
$SHADEDIF
 70
   70
  9
$TILEMODE
 70
    1
  9
$MAXACTVP
 70
   64
  9
$PINSBASE
 10
0
 20
0
 30
0
  9
$PLIMCHECK
 70
    0
  9
$PEXTMIN
 10
0
 20
0
 30
0
  9
$PEXTMAX
 10
0
 20
0
 30
0
  9
$GRIDMODE
 70
    1
  9
$SNAPSTYLE
 70
    0
  9
$PLIMMIN
 10
0
 20
0
  9
$PLIMMAX
 10
297
 20
210
  9
$UNITMODE
 70
    0
  9
$VISRETAIN
 70
    1
  9
$PLINEGEN
 70
    0
  9
$PSLTSCALE
 70
    1
  9
$TREEDEPTH
 70
 3020
  9
$CMLSTYLE
  2
Standard
  9
$CMLJUST
 70
    0
  9
$CMLSCALE
 40
20
  9
$PROXYGRAPHICS
 70
    1
  9
$MEASUREMENT
 70
    1
  9
$CELWEIGHT
370
   -1
  9
$ENDCAPS
280
    0
  9
$JOINSTYLE
280
    0
  9
$LWDISPLAY
290
    0
  9
$INSUNITS
 70
    4
  9
$HYPERLINKBASE
  1

  9
$STYLESHEET
  1

  9
$XEDIT
290
    1
  9
$CEPSNTYPE
380
    0
  9
$PSTYLEMODE
290
    1
  9
$EXTNAMES
290
    1
  9
$PSVPSCALE
 40
1
  9
$OLESTARTUP
290
    0
  9
$SORTENTS
280
  127
  9
$INDEXCTL
280
    0
  9
$HIDETEXT
280
    1
  9
$XCLIPFRAME
290
    0
  9
$HALOGAP
280
    0
  9
$OBSCOLOR
 70
  257
  9
$OBSLTYPE
280
    0
  9
$INTERSECTIONDISPLAY
280
    0
  9
$INTERSECTIONCOLOR
 70
  257
  9
$DIMASSOC
280
    1
  9
$PROJECTNAME
  1

  9
$CAMERADISPLAY
290
    0
  9
$LENSLENGTH
 40
50
  9
$CAMERAHEIGHT
 40
0
  9
$STEPSPERSEC
 40
2
  9
$STEPSIZE
 40
50
  9
$3DDWFPREC
 40
2
  9
$PSOLWIDTH
 40
5
  9
$PSOLHEIGHT
 40
80
  9
$LOFTANG1
 40
1.570796326794897
  9
$LOFTANG2
 40
1.570796326794897
  9
$LOFTMAG1
 40
0
  9
$LOFTMAG2
 40
0
  9
$LOFTPARAM
 70
    7
  9
$LOFTNORMALS
280
    1
  9
$LATITUDE
 40
1
  9
$LONGITUDE
 40
1
  9
$NORTHDIRECTION
 40
0
  9
$TIMEZONE
 70
-8000
  9
$LIGHTGLYPHDISPLAY
280
    1
  9
$TILEMODELIGHTSYNCH
280
    1
  9
$SOLIDHIST
280
    1
  9
$SHOWHIST
280
    1
  9
$DWFFRAME
280
    2
  9
$DGNFRAME
280
    0
  9
$REALWORLDSCALE
290
    1
  9
$INTERFERECOLOR
 62
    1
  9
$CSHADOW
280
    0
  9
$SHADOWPLANELOCATION
 40
0
  0
ENDSEC
  0
SECTION
  2
CLASSES
  0
ENDSEC
  0
SECTION
  2
TABLES
  0
TABLE
  2
VPORT
  5
8
330
0
100
AcDbSymbolTable
 70
    1
  0
VPORT
  5
31
330
2
100
AcDbSymbolTableRecord
100
AcDbViewportTableRecord
  2
*ACTIVE
 70
    0
 10
0
 20
0
 11
1
 21
1
 12
84.6355475763016
 22
34.46499102333932
 13
0
 23
0
 14
10
 24
10
 15
10
 25
10
 16
0
 26
0
 36
1
 17
0
 27
0
 37
0
 40
167.8168761220826
 41
1.675909878682842
 42
50
 43
0
 44
0
 50
0
 51
0
 71
    0
 72
  100
 73
    1
 74
    3
 75
    0
 76
    1
 77
    0
 78
    0
281
    0
 65
    1
110
0
120
0
130
0
111
1
121
0
131
0
112
0
122
1
132
0
 79
    0
146
0
348
10020
 60
    7
 61
    5
292
1
282
    1
141
0
142
0
 63
  250
421
3358443
  0
ENDTAB
  0
TABLE
  2
LTYPE
  5
5
330
0
100
AcDbSymbolTable
 70
    4
  0
LTYPE
  5
14
330
5
100
AcDbSymbolTableRecord
100
AcDbLinetypeTableRecord
  2
ByBlock
 70
    0
  3

 72
   65
 73
    0
 40
0
  0
LTYPE
  5
15
330
5
100
AcDbSymbolTableRecord
100
AcDbLinetypeTableRecord
  2
ByLayer
 70
    0
  3

 72
   65
 73
    0
 40
0
  0
LTYPE
  5
16
330
5
100
AcDbSymbolTableRecord
100
AcDbLinetypeTableRecord
  2
Continuous
 70
    0
  3
Solid line
 72
   65
 73
    0
 40
0
  0
LTYPE
  5
32
330
5
100
AcDbSymbolTableRecord
100
AcDbLinetypeTableRecord
  2
DOT
 70
    0
  3
Dot . . . . . . . . . . . . . . . . . . . . . .
 72
   65
 73
    2
 40
6.35
 49
0
 74
    0
 49
-6.35
 74
    0
  0
LTYPE
  5
33
330
5
100
AcDbSymbolTableRecord
100
AcDbLinetypeTableRecord
  2
DOTTINY
 70
    0
  3
Dot (.15x) .....................................
 72
   65
 73
    2
 40
0.9525
 49
0
 74
    0
 49
-0.9525
 74
    0
  0
LTYPE
  5
34
330
5
100
AcDbSymbolTableRecord
100
AcDbLinetypeTableRecord
  2
DOT2
 70
    0
  3
Dot (.5x) .....................................
 72
   65
 73
    2
 40
3.175
 49
0
 74
    0
 49
-3.175
 74
    0
  0
LTYPE
  5
35
330
5
100
AcDbSymbolTableRecord
100
AcDbLinetypeTableRecord
  2
DOTX2
 70
    0
  3
Dot (2x) .  .  .  .  .  .  .  .  .  .  .  .  .
 72
   65
 73
    2
 40
12.7
 49
0
 74
    0
 49
-12.7
 74
    0
  0
LTYPE
  5
36
330
5
100
AcDbSymbolTableRecord
100
AcDbLinetypeTableRecord
  2
DASHED
 70
    0
  3
Dashed _ _ _ _ _ _ _ _ _ _ _ _ _ _ _ _ _
 72
   65
 73
    2
 40
19.05
 49
12.7
 74
    0
 49
-6.35
 74
    0
  0
LTYPE
  5
37
330
5
100
AcDbSymbolTableRecord
100
AcDbLinetypeTableRecord
  2
DASHEDTINY
 70
    0
  3
Dashed (.15x) _ _ _ _ _ _ _ _ _ _ _ _ _ _ _ _ _
 72
   65
 73
    2
 40
2.8575
 49
1.905
 74
    0
 49
-0.9525
 74
    0
  0
LTYPE
  5
38
330
5
100
AcDbSymbolTableRecord
100
AcDbLinetypeTableRecord
  2
DASHED2
 70
    0
  3
Dashed (.5x) _ _ _ _ _ _ _ _ _ _ _ _ _ _ _ _ _
 72
   65
 73
    2
 40
9.524999999999999
 49
6.35
 74
    0
 49
-3.175
 74
    0
  0
LTYPE
  5
39
330
5
100
AcDbSymbolTableRecord
100
AcDbLinetypeTableRecord
  2
DASHEDX2
 70
    0
  3
Dashed (2x) ____  ____  ____  ____  ____  ___
 72
   65
 73
    2
 40
38.09999999999999
 49
25.4
 74
    0
 49
-12.7
 74
    0
  0
LTYPE
  5
3A
330
5
100
AcDbSymbolTableRecord
100
AcDbLinetypeTableRecord
  2
DASHDOT
 70
    0
  3
Dash dot __ . __ . __ . __ . __ . __ . __ . __
 72
   65
 73
    4
 40
25.4
 49
12.7
 74
    0
 49
-6.35
 74
    0
 49
0
 74
    0
 49
-6.35
 74
    0
  0
LTYPE
  5
3B
330
5
100
AcDbSymbolTableRecord
100
AcDbLinetypeTableRecord
  2
DASHDOTTINY
 70
    0
  3
Dash dot (.15x) _._._._._._._._._._._._._._._.
 72
   65
 73
    4
 40
3.81
 49
1.905
 74
    0
 49
-0.9525
 74
    0
 49
0
 74
    0
 49
-0.9525
 74
    0
  0
LTYPE
  5
3C
330
5
100
AcDbSymbolTableRecord
100
AcDbLinetypeTableRecord
  2
DASHDOT2
 70
    0
  3
Dash dot (.5x) _._._._._._._._._._._._._._._.
 72
   65
 73
    4
 40
12.7
 49
6.35
 74
    0
 49
-3.175
 74
    0
 49
0
 74
    0
 49
-3.175
 74
    0
  0
LTYPE
  5
3D
330
5
100
AcDbSymbolTableRecord
100
AcDbLinetypeTableRecord
  2
DASHDOTX2
 70
    0
  3
Dash dot (2x) ____  .  ____  .  ____  .  ___
 72
   65
 73
    4
 40
50.8
 49
25.4
 74
    0
 49
-12.7
 74
    0
 49
0
 74
    0
 49
-12.7
 74
    0
  0
LTYPE
  5
3E
330
5
100
AcDbSymbolTableRecord
100
AcDbLinetypeTableRecord
  2
DIVIDE
 70
    0
  3
Divide ____ . . ____ . . ____ . . ____ . . ____
 72
   65
 73
    6
 40
31.75
 49
12.7
 74
    0
 49
-6.35
 74
    0
 49
0
 74
    0
 49
-6.35
 74
    0
 49
0
 74
    0
 49
-6.35
 74
    0
  0
LTYPE
  5
3F
330
5
100
AcDbSymbolTableRecord
100
AcDbLinetypeTableRecord
  2
DIVIDETINY
 70
    0
  3
Divide (.15x) __..__..__..__..__..__..__..__.._
 72
   65
 73
    6
 40
4.7625
 49
1.905
 74
    0
 49
-0.9525
 74
    0
 49
0
 74
    0
 49
-0.9525
 74
    0
 49
0
 74
    0
 49
-0.9525
 74
    0
  0
LTYPE
  5
40
330
5
100
AcDbSymbolTableRecord
100
AcDbLinetypeTableRecord
  2
DIVIDE2
 70
    0
  3
Divide (.5x) __..__..__..__..__..__..__..__.._
 72
   65
 73
    6
 40
15.875
 49
6.35
 74
    0
 49
-3.175
 74
    0
 49
0
 74
    0
 49
-3.175
 74
    0
 49
0
 74
    0
 49
-3.175
 74
    0
  0
LTYPE
  5
41
330
5
100
AcDbSymbolTableRecord
100
AcDbLinetypeTableRecord
  2
DIVIDEX2
 70
    0
  3
Divide (2x) ________  .  .  ________  .  .  _
 72
   65
 73
    6
 40
63.5
 49
25.4
 74
    0
 49
-12.7
 74
    0
 49
0
 74
    0
 49
-12.7
 74
    0
 49
0
 74
    0
 49
-12.7
 74
    0
  0
LTYPE
  5
42
330
5
100
AcDbSymbolTableRecord
100
AcDbLinetypeTableRecord
  2
BORDER
 70
    0
  3
Border __ __ . __ __ . __ __ . __ __ . __ __ .
 72
   65
 73
    6
 40
44.45
 49
12.7
 74
    0
 49
-6.35
 74
    0
 49
12.7
 74
    0
 49
-6.35
 74
    0
 49
0
 74
    0
 49
-6.35
 74
    0
  0
LTYPE
  5
43
330
5
100
AcDbSymbolTableRecord
100
AcDbLinetypeTableRecord
  2
BORDERTINY
 70
    0
  3
Border (.15x) __.__.__.__.__.__.__.__.__.__.__.
 72
   65
 73
    6
 40
6.6675
 49
1.905
 74
    0
 49
-0.9525
 74
    0
 49
1.905
 74
    0
 49
-0.9525
 74
    0
 49
0
 74
    0
 49
-0.9525
 74
    0
  0
LTYPE
  5
44
330
5
100
AcDbSymbolTableRecord
100
AcDbLinetypeTableRecord
  2
BORDER2
 70
    0
  3
Border (.5x) __.__.__.__.__.__.__.__.__.__.__.
 72
   65
 73
    6
 40
22.225
 49
6.35
 74
    0
 49
-3.175
 74
    0
 49
6.35
 74
    0
 49
-3.175
 74
    0
 49
0
 74
    0
 49
-3.175
 74
    0
  0
LTYPE
  5
45
330
5
100
AcDbSymbolTableRecord
100
AcDbLinetypeTableRecord
  2
BORDERX2
 70
    0
  3
Border (2x) ____  ____  .  ____  ____  .  ___
 72
   65
 73
    6
 40
88.89999999999999
 49
25.4
 74
    0
 49
-12.7
 74
    0
 49
25.4
 74
    0
 49
-12.7
 74
    0
 49
0
 74
    0
 49
-12.7
 74
    0
  0
LTYPE
  5
46
330
5
100
AcDbSymbolTableRecord
100
AcDbLinetypeTableRecord
  2
CENTER
 70
    0
  3
Center ____ _ ____ _ ____ _ ____ _ ____ _ ____
 72
   65
 73
    4
 40
50.8
 49
31.75
 74
    0
 49
-6.35
 74
    0
 49
6.35
 74
    0
 49
-6.35
 74
    0
  0
LTYPE
  5
47
330
5
100
AcDbSymbolTableRecord
100
AcDbLinetypeTableRecord
  2
CENTERTINY
 70
    0
  3
Center (.15x) ___ _ ___ _ ___ _ ___ _ ___ _ ___
 72
   65
 73
    4
 40
7.62
 49
4.7625
 74
    0
 49
-0.9525
 74
    0
 49
0.9525
 74
    0
 49
-0.9525
 74
    0
  0
LTYPE
  5
48
330
5
100
AcDbSymbolTableRecord
100
AcDbLinetypeTableRecord
  2
CENTER2
 70
    0
  3
Center (.5x) ___ _ ___ _ ___ _ ___ _ ___ _ ___
 72
   65
 73
    4
 40
28.575
 49
19.05
 74
    0
 49
-3.175
 74
    0
 49
3.175
 74
    0
 49
-3.175
 74
    0
  0
LTYPE
  5
49
330
5
100
AcDbSymbolTableRecord
100
AcDbLinetypeTableRecord
  2
CENTERX2
 70
    0
  3
Center (2x) ________  __  ________  __  _____
 72
   65
 73
    4
 40
101.6
 49
63.5
 74
    0
 49
-12.7
 74
    0
 49
12.7
 74
    0
 49
-12.7
 74
    0
  0
ENDTAB
  0
TABLE
  2
LAYER
  5
2
330
0
100
AcDbSymbolTable
 70
    1
  0
LAYER
  5
10
330
2
100
AcDbSymbolTableRecord
100
AcDbLayerTableRecord
  2
0
 70
    0
 62
    7
  6
CONTINUOUS
370
    0
390
F
  0
LAYER
  5
4A
330
2
100
AcDbSymbolTableRecord
100
AcDbLayerTableRecord
  2
Alnico 5
 70
    0
 62
    3
  6
CONTINUOUS
370
    9
390
F
  0
LAYER
  5
4B
330
2
100
AcDbSymbolTableRecord
100
AcDbLayerTableRecord
  2
Bridge
 70
    0
 62
    6
  6
CONTINUOUS
370
   13
390
F
  0
LAYER
  5
4C
330
2
100
AcDbSymbolTableRecord
100
AcDbLayerTableRecord
  2
Centerlines
 70
    0
 62
    2
  6
CENTERTINY
370
   13
390
F
  0
LAYER
  5
4D
330
2
100
AcDbSymbolTableRecord
100
AcDbLayerTableRecord
  2
Neck
 70
    0
 62
    4
  6
CONTINUOUS
370
    9
390
F
  0
ENDTAB
  0
TABLE
  2
STYLE
  5
3
330
0
100
AcDbSymbolTable
 70
    3
  0
STYLE
  5
4E
330
2
100
AcDbSymbolTableRecord
100
AcDbTextStyleTableRecord
  2
Standard
 70
    0
 40
0
 41
1
 50
0
 71
    0
 42
1
  3
txt
  4

  0
ENDTAB
  0
TABLE
  2
VIEW
  5
6
330
0
100
AcDbSymbolTable
 70
    0
  0
ENDTAB
  0
TABLE
  2
UCS
  5
7
330
0
100
AcDbSymbolTable
 70
    0
  0
ENDTAB
  0
TABLE
  2
APPID
  5
9
330
0
100
AcDbSymbolTable
 70
    1
  0
APPID
  5
12
330
9
100
AcDbSymbolTableRecord
100
AcDbRegAppTableRecord
  2
ACAD
 70
    0
  0
APPID
  5
4F
330
9
100
AcDbSymbolTableRecord
100
AcDbRegAppTableRecord
  2
LibreCad
 70
    0
  0
ENDTAB
  0
TABLE
  2
DIMSTYLE
  5
A
330
0
100
AcDbSymbolTable
 70
    1
100
AcDbDimStyleTable
 71
    1
  0
DIMSTYLE
105
50
330
A
100
AcDbSymbolTableRecord
100
AcDbDimStyleTableRecord
  2
Standard
 70
    0
 40
2.5
 41
2.5
 42
0.625
 43
0.38
 44
1.25
 45
0
 46
0
 47
0
 48
0
 49
1
140
2.5
141
0.09
142
0
143
25.4
144
1
145
0
146
1
147
0.625
148
0
 71
    0
 72
    0
 73
    0
 74
    1
 75
    0
 76
    0
 77
    0
 78
    8
 79
    0
170
    0
171
    2
172
    0
173
    0
174
    0
175
    0
176
    0
177
    0
178
    0
179
    0
271
    2
272
    4
273
    2
274
    2
275
    0
276
    0
277
    2
278
   44
279
    0
280
    0
281
    0
282
    0
283
    1
284
    0
285
    0
286
    0
288
    0
289
    3
340
STANDARD
341

371
   -2
372
   -2
  0
ENDTAB
  0
TABLE
  2
BLOCK_RECORD
  5
1
330
0
100
AcDbSymbolTable
 70
    2
  0
BLOCK_RECORD
  5
1F
330
1
100
AcDbSymbolTableRecord
100
AcDbBlockTableRecord
  2
*Model_Space
 70
    0
280
    1
281
    0
  0
BLOCK_RECORD
  5
1E
330
1
100
AcDbSymbolTableRecord
100
AcDbBlockTableRecord
  2
*Paper_Space
 70
    0
280
    1
281
    0
  0
ENDTAB
  0
ENDSEC
  0
SECTION
  2
BLOCKS
  0
BLOCK
  5
20
330
1F
100
AcDbEntity
  8
0
100
AcDbBlockBegin
  2
*Model_Space
 70
    0
 10
0
 20
0
 30
0
  3
*Model_Space
  1

  0
ENDBLK
  5
21
330
1F
100
AcDbEntity
  8
0
100
AcDbBlockEnd
  0
BLOCK
  5
1C
330
1B
100
AcDbEntity
  8
0
100
AcDbBlockBegin
  2
*Paper_Space
 70
    0
 10
0
 20
0
 30
0
  3
*Paper_Space
  1

  0
ENDBLK
  5
1D
330
1F
100
AcDbEntity
  8
0
100
AcDbBlockEnd
  0
ENDSEC
  0
SECTION
  2
ENTITIES
  0
LINE
  5
51
100
AcDbEntity
  8
Alnico 5
  6
ByLayer
 62
  256
370
   -1
100
AcDbLine
 10
8.878396065212235e-016
 20
14.5
 11
0.5000000000000009
 21
15
  0
LINE
  5
52
100
AcDbEntity
  8
Alnico 5
  6
ByLayer
 62
  256
370
   -1
100
AcDbLine
 10
0.5000000000000009
 20
15
 11
4.500000000000001
 21
15
  0
LINE
  5
53
100
AcDbEntity
  8
Alnico 5
  6
ByLayer
 62
  256
370
   -1
100
AcDbLine
 10
4.500000000000001
 20
15
 11
5.000000000000001
 21
14.5
  0
LINE
  5
54
100
AcDbEntity
  8
Alnico 5
  6
ByLayer
 62
  256
370
   -1
100
AcDbLine
 10
5
 20
0.4999999999999988
 11
5.000000000000001
 21
14.5
  0
LINE
  5
55
100
AcDbEntity
  8
Alnico 5
  6
ByLayer
 62
  256
370
   -1
100
AcDbLine
 10
5
 20
0.4999999999999988
 11
4.5
 21
-1.10214571844014e-015
  0
LINE
  5
56
100
AcDbEntity
  8
Alnico 5
  6
ByLayer
 62
  256
370
   -1
100
AcDbLine
 10
0.5
 20
-1.224606353822377e-016
 11
4.5
 21
-1.10214571844014e-015
  0
LINE
  5
57
100
AcDbEntity
  8
Alnico 5
  6
ByLayer
 62
  256
370
   -1
100
AcDbLine
 10
3.061515884555943e-017
 20
0.5
 11
8.878396065212235e-016
 21
14.5
  0
LINE
  5
58
100
AcDbEntity
  8
Alnico 5
  6
ByLayer
 62
  256
370
   -1
100
AcDbLine
 10
0.5
 20
-1.224606353822377e-016
 11
3.061515884555943e-017
 21
0.5
  0
LINE
  5
59
100
AcDbEntity
  8
Alnico 5
  6
ByLayer
 62
  256
370
   -1
100
AcDbLine
 10
9.700000000000001
 20
14.5
 11
10.2
 21
15
  0
LINE
  5
5A
100
AcDbEntity
  8
Alnico 5
  6
ByLayer
 62
  256
370
   -1
100
AcDbLine
 10
10.2
 20
15
 11
14.2
 21
14.99999999999999
  0
LINE
  5
5B
100
AcDbEntity
  8
Alnico 5
  6
ByLayer
 62
  256
370
   -1
100
AcDbLine
 10
14.2
 20
14.99999999999999
 11
14.7
 21
14.49999999999999
  0
LINE
  5
5C
100
AcDbEntity
  8
Alnico 5
  6
ByLayer
 62
  256
370
   -1
100
AcDbLine
 10
14.7
 20
0.4999999999999956
 11
14.7
 21
14.49999999999999
  0
LINE
  5
5D
100
AcDbEntity
  8
Alnico 5
  6
ByLayer
 62
  256
370
   -1
100
AcDbLine
 10
14.7
 20
0.4999999999999956
 11
14.2
 21
-4.440892098500626e-015
  0
LINE
  5
5E
100
AcDbEntity
  8
Alnico 5
  6
ByLayer
 62
  256
370
   -1
100
AcDbLine
 10
10.2
 20
-3.552713678800501e-015
 11
14.2
 21
-4.440892098500626e-015
  0
LINE
  5
5F
100
AcDbEntity
  8
Alnico 5
  6
ByLayer
 62
  256
370
   -1
100
AcDbLine
 10
9.699999999999999
 20
0.4999999999999964
 11
9.700000000000001
 21
14.5
  0
LINE
  5
60
100
AcDbEntity
  8
Alnico 5
  6
ByLayer
 62
  256
370
   -1
100
AcDbLine
 10
10.2
 20
-3.552713678800501e-015
 11
9.699999999999999
 21
0.4999999999999964
  0
LINE
  5
61
100
AcDbEntity
  8
Alnico 5
  6
ByLayer
 62
  256
370
   -1
100
AcDbLine
 10
19.4
 20
14.49999999999999
 11
19.9
 21
14.99999999999999
  0
LINE
  5
62
100
AcDbEntity
  8
Alnico 5
  6
ByLayer
 62
  256
370
   -1
100
AcDbLine
 10
19.9
 20
14.99999999999999
 11
23.9
 21
14.99999999999999
  0
LINE
  5
63
100
AcDbEntity
  8
Alnico 5
  6
ByLayer
 62
  256
370
   -1
100
AcDbLine
 10
23.9
 20
14.99999999999999
 11
24.4
 21
14.49999999999999
  0
LINE
  5
64
100
AcDbEntity
  8
Alnico 5
  6
ByLayer
 62
  256
370
   -1
100
AcDbLine
 10
24.4
 20
0.499999999999992
 11
24.4
 21
14.49999999999999
  0
LINE
  5
65
100
AcDbEntity
  8
Alnico 5
  6
ByLayer
 62
  256
370
   -1
100
AcDbLine
 10
24.4
 20
0.499999999999992
 11
23.9
 21
-7.993605777301127e-015
  0
LINE
  5
66
100
AcDbEntity
  8
Alnico 5
  6
ByLayer
 62
  256
370
   -1
100
AcDbLine
 10
19.9
 20
-7.105427357601002e-015
 11
23.9
 21
-7.993605777301127e-015
  0
LINE
  5
67
100
AcDbEntity
  8
Alnico 5
  6
ByLayer
 62
  256
370
   -1
100
AcDbLine
 10
19.4
 20
0.4999999999999929
 11
19.4
 21
14.49999999999999
  0
LINE
  5
68
100
AcDbEntity
  8
Alnico 5
  6
ByLayer
 62
  256
370
   -1
100
AcDbLine
 10
19.9
 20
-7.105427357601002e-015
 11
19.4
 21
0.4999999999999929
  0
LINE
  5
69
100
AcDbEntity
  8
Alnico 5
  6
ByLayer
 62
  256
370
   -1
100
AcDbLine
 10
29.1
 20
14.49999999999999
 11
29.6
 21
14.99999999999999
  0
LINE
  5
6A
100
AcDbEntity
  8
Alnico 5
  6
ByLayer
 62
  256
370
   -1
100
AcDbLine
 10
29.6
 20
14.99999999999999
 11
33.6
 21
14.99999999999999
  0
LINE
  5
6B
100
AcDbEntity
  8
Alnico 5
  6
ByLayer
 62
  256
370
   -1
100
AcDbLine
 10
33.6
 20
14.99999999999999
 11
34.1
 21
14.49999999999999
  0
LINE
  5
6C
100
AcDbEntity
  8
Alnico 5
  6
ByLayer
 62
  256
370
   -1
100
AcDbLine
 10
34.1
 20
0.4999999999999902
 11
34.1
 21
14.49999999999999
  0
LINE
  5
6D
100
AcDbEntity
  8
Alnico 5
  6
ByLayer
 62
  256
370
   -1
100
AcDbLine
 10
34.1
 20
0.4999999999999902
 11
33.6
 21
-9.769962616701378e-015
  0
LINE
  5
6E
100
AcDbEntity
  8
Alnico 5
  6
ByLayer
 62
  256
370
   -1
100
AcDbLine
 10
29.6
 20
-8.881784197001252e-015
 11
33.6
 21
-9.769962616701378e-015
  0
LINE
  5
6F
100
AcDbEntity
  8
Alnico 5
  6
ByLayer
 62
  256
370
   -1
100
AcDbLine
 10
29.1
 20
0.4999999999999911
 11
29.1
 21
14.49999999999999
  0
LINE
  5
70
100
AcDbEntity
  8
Alnico 5
  6
ByLayer
 62
  256
370
   -1
100
AcDbLine
 10
29.6
 20
-8.881784197001252e-015
 11
29.1
 21
0.4999999999999911
  0
LINE
  5
71
100
AcDbEntity
  8
Alnico 5
  6
ByLayer
 62
  256
370
   -1
100
AcDbLine
 10
38.8
 20
14.49999999999999
 11
39.3
 21
14.99999999999999
  0
LINE
  5
72
100
AcDbEntity
  8
Alnico 5
  6
ByLayer
 62
  256
370
   -1
100
AcDbLine
 10
39.3
 20
14.99999999999999
 11
43.3
 21
14.99999999999998
  0
LINE
  5
73
100
AcDbEntity
  8
Alnico 5
  6
ByLayer
 62
  256
370
   -1
100
AcDbLine
 10
43.3
 20
14.99999999999998
 11
43.8
 21
14.49999999999998
  0
LINE
  5
74
100
AcDbEntity
  8
Alnico 5
  6
ByLayer
 62
  256
370
   -1
100
AcDbLine
 10
43.8
 20
0.4999999999999867
 11
43.8
 21
14.49999999999998
  0
LINE
  5
75
100
AcDbEntity
  8
Alnico 5
  6
ByLayer
 62
  256
370
   -1
100
AcDbLine
 10
43.8
 20
0.4999999999999867
 11
43.3
 21
-1.332267629550188e-014
  0
LINE
  5
76
100
AcDbEntity
  8
Alnico 5
  6
ByLayer
 62
  256
370
   -1
100
AcDbLine
 10
39.3
 20
-1.243449787580175e-014
 11
43.3
 21
-1.332267629550188e-014
  0
LINE
  5
77
100
AcDbEntity
  8
Alnico 5
  6
ByLayer
 62
  256
370
   -1
100
AcDbLine
 10
38.8
 20
0.4999999999999876
 11
38.8
 21
14.49999999999999
  0
LINE
  5
78
100
AcDbEntity
  8
Alnico 5
  6
ByLayer
 62
  256
370
   -1
100
AcDbLine
 10
39.3
 20
-1.243449787580175e-014
 11
38.8
 21
0.4999999999999876
  0
LINE
  5
79
100
AcDbEntity
  8
Alnico 5
  6
ByLayer
 62
  256
370
   -1
100
AcDbLine
 10
48.5
 20
14.49999999999998
 11
49
 21
14.99999999999998
  0
LINE
  5
7A
100
AcDbEntity
  8
Alnico 5
  6
ByLayer
 62
  256
370
   -1
100
AcDbLine
 10
49
 20
14.99999999999998
 11
53
 21
14.99999999999998
  0
LINE
  5
7B
100
AcDbEntity
  8
Alnico 5
  6
ByLayer
 62
  256
370
   -1
100
AcDbLine
 10
53
 20
14.99999999999998
 11
53.5
 21
14.49999999999998
  0
LINE
  5
7C
100
AcDbEntity
  8
Alnico 5
  6
ByLayer
 62
  256
370
   -1
100
AcDbLine
 10
53.5
 20
0.4999999999999831
 11
53.5
 21
14.49999999999998
  0
LINE
  5
7D
100
AcDbEntity
  8
Alnico 5
  6
ByLayer
 62
  256
370
   -1
100
AcDbLine
 10
53.5
 20
0.4999999999999831
 11
53
 21
-1.687538997430238e-014
  0
LINE
  5
7E
100
AcDbEntity
  8
Alnico 5
  6
ByLayer
 62
  256
370
   -1
100
AcDbLine
 10
49
 20
-1.598721155460225e-014
 11
53
 21
-1.687538997430238e-014
  0
LINE
  5
7F
100
AcDbEntity
  8
Alnico 5
  6
ByLayer
 62
  256
370
   -1
100
AcDbLine
 10
48.5
 20
0.499999999999984
 11
48.5
 21
14.49999999999998
  0
LINE
  5
80
100
AcDbEntity
  8
Alnico 5
  6
ByLayer
 62
  256
370
   -1
100
AcDbLine
 10
49
 20
-1.598721155460225e-014
 11
48.5
 21
0.499999999999984
  0
LINE
  5
81
100
AcDbEntity
  8
Neck
  6
ByLayer
 62
  256
370
   -1
100
AcDbLine
 10
67
 20
0.4999999999999789
 11
-13.5
 21
0.5000000000000043
  0
LINE
  5
82
100
AcDbEntity
  8
Neck
  6
ByLayer
 62
  256
370
   -1
100
AcDbLine
 10
67
 20
1.499999999999978
 11
-13.5
 21
1.500000000000005
  0
LINE
  5
83
100
AcDbEntity
  8
Neck
  6
ByLayer
 62
  256
370
   -1
100
AcDbLine
 10
54.5
 20
1.499999999999983
 11
54.5
 21
13.49999999999998
  0
LINE
  5
84
100
AcDbEntity
  8
Neck
  6
ByLayer
 62
  256
370
   -1
100
AcDbLine
 10
-0.9999999999999999
 20
1.500000000000001
 11
-0.9999999999999991
 21
13.5
  0
LINE
  5
85
100
AcDbEntity
  8
Neck
  6
ByLayer
 62
  256
370
   -1
100
AcDbLine
 10
25.25
 20
14.49999999999999
 11
25.25
 21
0.4999999999999921
  0
LINE
  5
86
100
AcDbEntity
  8
Neck
  6
ByLayer
 62
  256
370
   -1
100
AcDbLine
 10
28.25
 20
14.49999999999999
 11
28.25
 21
0.4999999999999912
  0
LINE
  5
87
100
AcDbEntity
  8
Neck
  6
ByLayer
 62
  256
370
   -1
100
AcDbLine
 10
-13.5
 20
0.5000000000000043
 11
-13.5
 21
1.500000000000005
  0
LINE
  5
88
100
AcDbEntity
  8
Neck
  6
ByLayer
 62
  256
370
   -1
100
AcDbLine
 10
67
 20
0.4999999999999789
 11
67
 21
1.499999999999978
  0
LINE
  5
89
100
AcDbEntity
  8
Neck
  6
ByLayer
 62
  256
370
   -1
100
AcDbLine
 10
-18.5
 20
13.50000000000001
 11
-18.5
 21
14.50000000000001
  0
LINE
  5
8A
100
AcDbEntity
  8
Neck
  6
ByLayer
 62
  256
370
   -1
100
AcDbLine
 10
-18.5
 20
14.50000000000001
 11
72
 21
14.49999999999997
  0
LINE
  5
8B
100
AcDbEntity
  8
Neck
  6
ByLayer
 62
  256
370
   -1
100
AcDbLine
 10
-18.5
 20
13.50000000000001
 11
72
 21
13.49999999999997
  0
LINE
  5
8C
100
AcDbEntity
  8
Neck
  6
ByLayer
 62
  256
370
   -1
100
AcDbLine
 10
72
 20
13.49999999999997
 11
72
 21
14.49999999999997
  0
ARC
  5
8D
100
AcDbEntity
  8
Neck
  6
ByLayer
 62
  256
370
   -1
100
AcDbCircle
 10
-8.499999999999998
 20
56
 40
5
100
AcDbArc
 50
89.99999999999999
 51
180
  0
LINE
  5
8E
100
AcDbEntity
  8
Neck
  6
ByLayer
 62
  256
370
   -1
100
AcDbLine
 10
-13.5
 20
35
 11
-13.5
 21
56
  0
ARC
  5
8F
100
AcDbEntity
  8
Neck
  6
ByLayer
 62
  256
370
   -1
100
AcDbCircle
 10
-8.499999999999998
 20
35
 40
5
100
AcDbArc
 50
180
 51
270
  0
LINE
  5
90
100
AcDbEntity
  8
Neck
  6
ByLayer
 62
  256
370
   -1
100
AcDbLine
 10
-8.5
 20
30
 11
62
 21
29.99999999999998
  0
ARC
  5
91
100
AcDbEntity
  8
Neck
  6
ByLayer
 62
  256
370
   -1
100
AcDbCircle
 10
62
 20
34.99999999999997
 40
5
100
AcDbArc
 50
270
 51
0
  0
LINE
  5
92
100
AcDbEntity
  8
Neck
  6
ByLayer
 62
  256
370
   -1
100
AcDbLine
 10
67
 20
34.99999999999997
 11
67
 21
55.99999999999997
  0
LINE
  5
93
100
AcDbEntity
  8
Neck
  6
ByLayer
 62
  256
370
   -1
100
AcDbLine
 10
-8.499999999999996
 20
61
 11
62
 21
60.99999999999997
  0
ARC
  5
94
100
AcDbEntity
  8
Neck
  6
ByLayer
 62
  256
370
   -1
100
AcDbCircle
 10
62
 20
55.99999999999997
 40
5
100
AcDbArc
 50
0
 51
90
  0
ARC
  5
95
100
AcDbEntity
  8
Neck
  6
ByLayer
 62
  256
370
   -1
100
AcDbCircle
 10
-8.499999999999998
 20
56
 40
10
100
AcDbArc
 50
89.99999999999999
 51
180
  0
LINE
  5
96
100
AcDbEntity
  8
Neck
  6
ByLayer
 62
  256
370
   -1
100
AcDbLine
 10
-8.499999999999995
 20
66
 11
62
 21
65.99999999999997
  0
ARC
  5
97
100
AcDbEntity
  8
Neck
  6
ByLayer
 62
  256
370
   -1
100
AcDbCircle
 10
62
 20
55.99999999999997
 40
10
100
AcDbArc
 50
0
 51
90
  0
ARC
  5
98
100
AcDbEntity
  8
Neck
  6
ByLayer
 62
  256
370
   -1
100
AcDbCircle
 10
62
 20
34.99999999999997
 40
10
100
AcDbArc
 50
270
 51
0
  0
LINE
  5
99
100
AcDbEntity
  8
Neck
  6
ByLayer
 62
  256
370
   -1
100
AcDbLine
 10
-8.500000000000002
 20
25
 11
62
 21
24.99999999999998
  0
ARC
  5
9A
100
AcDbEntity
  8
Neck
  6
ByLayer
 62
  256
370
   -1
100
AcDbCircle
 10
-8.499999999999998
 20
35
 40
10
100
AcDbArc
 50
180
 51
270
  0
CIRCLE
  5
9B
100
AcDbEntity
  8
Neck
  6
ByLayer
 62
  256
370
   -1
100
AcDbCircle
 10
72
 20
45.49999999999997
 40
2
  0
CIRCLE
  5
9C
100
AcDbEntity
  8
Neck
  6
ByLayer
 62
  256
370
   -1
100
AcDbCircle
 10
-18.5
 20
45.5
 40
2
  0
LINE
  5
9D
100
AcDbEntity
  8
Neck
  6
ByLayer
 62
  256
370
   -1
100
AcDbLine
 10
72
 20
34.99999999999997
 11
72
 21
38.49999999999991
  0
LINE
  5
9E
100
AcDbEntity
  8
Neck
  6
ByLayer
 62
  256
370
   -1
100
AcDbLine
 10
-18.5
 20
35
 11
-18.5
 21
38.50000000000001
  0
ARC
  5
9F
100
AcDbEntity
  8
Neck
  6
ByLayer
 62
  256
370
   -1
100
AcDbCircle
 10
-18.5
 20
45.5
 40
7
100
AcDbArc
 50
89.99999999999997
 51
270
  0
ARC
  5
A0
100
AcDbEntity
  8
Neck
  6
ByLayer
 62
  256
370
   -1
100
AcDbCircle
 10
72
 20
45.49999999999997
 40
7
100
AcDbArc
 50
270
 51
450
  0
LINE
  5
A1
100
AcDbEntity
  8
Neck
  6
ByLayer
 62
  256
370
   -1
100
AcDbLine
 10
72
 20
52.49999999999988
 11
72
 21
55.99999999999997
  0
LINE
  5
A2
100
AcDbEntity
  8
Neck
  6
ByLayer
 62
  256
370
   -1
100
AcDbLine
 10
-18.5
 20
52.49999999999997
 11
-18.5
 21
56
  0
CIRCLE
  5
A3
100
AcDbEntity
  8
Neck
  6
ByLayer
 62
  256
370
   -1
100
AcDbCircle
 10
2.499999728414841
 20
41.99999999999999
 40
2.5
  0
CIRCLE
  5
A4
100
AcDbEntity
  8
Neck
  6
ByLayer
 62
  256
370
   -1
100
AcDbCircle
 10
12.19999972841484
 20
41.99999999999998
 40
2.5
  0
CIRCLE
  5
A5
100
AcDbEntity
  8
Neck
  6
ByLayer
 62
  256
370
   -1
100
AcDbCircle
 10
21.89999972841484
 20
41.99999999999998
 40
2.5
  0
CIRCLE
  5
A6
100
AcDbEntity
  8
Neck
  6
ByLayer
 62
  256
370
   -1
100
AcDbCircle
 10
31.59999972841485
 20
41.99999999999998
 40
2.5
  0
CIRCLE
  5
A7
100
AcDbEntity
  8
Neck
  6
ByLayer
 62
  256
370
   -1
100
AcDbCircle
 10
41.29999972841484
 20
41.99999999999997
 40
2.5
  0
CIRCLE
  5
A8
100
AcDbEntity
  8
Neck
  6
ByLayer
 62
  256
370
   -1
100
AcDbCircle
 10
50.99999972841484
 20
41.99999999999997
 40
2.5
  0
ARC
  5
A9
100
AcDbEntity
  8
Neck
  6
ByLayer
 62
  256
370
   -1
100
AcDbCircle
 10
2.499999728414841
 20
41.99999999999999
 40
3
100
AcDbArc
 50
89.99999273815587
 51
90.00000726184398
  0
LINE
  5
AA
100
AcDbEntity
  8
Neck
  6
ByLayer
 62
  256
370
   -1
100
AcDbLine
 10
2.500000108644101
 20
38.50000000000001
 11
50.99999893702074
 21
38.49999999999996
  0
CIRCLE
  5
AB
100
AcDbEntity
  8
Neck
  6
ByLayer
 62
  256
370
   -1
100
AcDbCircle
 10
2.499999330277654
 20
48.99999999999997
 40
2.5
  0
CIRCLE
  5
AC
100
AcDbEntity
  8
Neck
  6
ByLayer
 62
  256
370
   -1
100
AcDbCircle
 10
12.19999933027766
 20
48.99999999999996
 40
2.5
  0
CIRCLE
  5
AD
100
AcDbEntity
  8
Neck
  6
ByLayer
 62
  256
370
   -1
100
AcDbCircle
 10
21.89999933027766
 20
48.99999999999996
 40
2.5
  0
CIRCLE
  5
AE
100
AcDbEntity
  8
Neck
  6
ByLayer
 62
  256
370
   -1
100
AcDbCircle
 10
31.59999933027766
 20
48.99999999999996
 40
2.5
  0
CIRCLE
  5
AF
100
AcDbEntity
  8
Neck
  6
ByLayer
 62
  256
370
   -1
100
AcDbCircle
 10
41.29999933027765
 20
48.99999999999996
 40
2.5
  0
CIRCLE
  5
B0
100
AcDbEntity
  8
Neck
  6
ByLayer
 62
  256
370
   -1
100
AcDbCircle
 10
50.99999933027765
 20
48.99999999999996
 40
2.5
  0
ARC
  5
B1
100
AcDbEntity
  8
Neck
  6
ByLayer
 62
  256
370
   -1
100
AcDbCircle
 10
2.499999330277654
 20
48.99999999999997
 40
3
100
AcDbArc
 50
89.99999273815587
 51
90.00000726184398
  0
ARC
  5
B2
100
AcDbEntity
  8
Neck
  6
ByLayer
 62
  256
370
   -1
100
AcDbCircle
 10
2.499999728414841
 20
41.99999999999999
 40
3.5
100
AcDbArc
 50
180.0225713026151
 51
270.000007261844
  0
LINE
  5
B3
100
AcDbEntity
  8
Neck
  6
ByLayer
 62
  256
370
   -1
100
AcDbLine
 10
-0.9999999999999837
 20
42.00137880237916
 11
-0.9999999999999868
 21
48.99783480811125
  0
LINE
  5
B4
100
AcDbEntity
  8
Neck
  6
ByLayer
 62
  256
370
   -1
100
AcDbLine
 10
2.499999861983526
 20
52.49999999999996
 11
50.99999786425598
 21
52.49999999999996
  0
ARC
  5
B5
100
AcDbEntity
  8
Neck
  6
ByLayer
 62
  256
370
   -1
100
AcDbCircle
 10
2.499999330277654
 20
48.99999999999997
 40
3.5
100
AcDbArc
 50
90.0000087041434
 51
179.9645553242937
  0
ARC
  5
B6
100
AcDbEntity
  8
Neck
  6
ByLayer
 62
  256
370
   -1
100
AcDbCircle
 10
51.00000027158516
 20
41.99999999999999
 40
3.5
100
AcDbArc
 50
269.999992738156
 51
359.9774286973849
  0
LINE
  5
B7
100
AcDbEntity
  8
Neck
  6
ByLayer
 62
  256
370
   -1
100
AcDbLine
 10
54.49999999999999
 20
42.00137880237916
 11
54.49999999999999
 21
48.99783480811125
  0
ARC
  5
B8
100
AcDbEntity
  8
Neck
  6
ByLayer
 62
  256
370
   -1
100
AcDbCircle
 10
51.00000066972235
 20
48.99999999999997
 40
3.5
100
AcDbArc
 50
0.03544467570624448
 51
89.99999129585662
  0
CIRCLE
  5
B9
100
AcDbEntity
  8
Neck
  6
ByLayer
 62
  256
370
   -1
100
AcDbCircle
 10
26.75
 20
45.49999999999998
 40
1.5
  0
ARC
  5
BA
100
AcDbEntity
  8
Bridge
  6
ByLayer
 62
  256
370
   -1
100
AcDbCircle
 10
-5.25
 20
-34.99999999999998
 40
5
100
AcDbArc
 50
89.99999999999999
 51
180
  0
LINE
  5
BB
100
AcDbEntity
  8
Bridge
  6
ByLayer
 62
  256
370
   -1
100
AcDbLine
 10
-10.25
 20
-55.99999999999998
 11
-10.25
 21
-34.99999999999998
  0
ARC
  5
BC
100
AcDbEntity
  8
Bridge
  6
ByLayer
 62
  256
370
   -1
100
AcDbCircle
 10
-5.25
 20
-55.99999999999998
 40
5
100
AcDbArc
 50
180
 51
270
  0
LINE
  5
BD
100
AcDbEntity
  8
Bridge
  6
ByLayer
 62
  256
370
   -1
100
AcDbLine
 10
-5.25
 20
-60.99999999999998
 11
65.25
 21
-61
  0
ARC
  5
BE
100
AcDbEntity
  8
Bridge
  6
ByLayer
 62
  256
370
   -1
100
AcDbCircle
 10
65.25
 20
-56.00000000000001
 40
5
100
AcDbArc
 50
270
 51
0
  0
LINE
  5
BF
100
AcDbEntity
  8
Bridge
  6
ByLayer
 62
  256
370
   -1
100
AcDbLine
 10
70.25
 20
-56.00000000000001
 11
70.25
 21
-35.00000000000001
  0
LINE
  5
C0
100
AcDbEntity
  8
Bridge
  6
ByLayer
 62
  256
370
   -1
100
AcDbLine
 10
-5.25
 20
-29.99999999999998
 11
65.25
 21
-30.00000000000001
  0
ARC
  5
C1
100
AcDbEntity
  8
Bridge
  6
ByLayer
 62
  256
370
   -1
100
AcDbCircle
 10
65.25
 20
-35.00000000000001
 40
5
100
AcDbArc
 50
0
 51
90
  0
ARC
  5
C2
100
AcDbEntity
  8
Bridge
  6
ByLayer
 62
  256
370
   -1
100
AcDbCircle
 10
-5.25
 20
-34.99999999999998
 40
10
100
AcDbArc
 50
89.99999999999999
 51
180
  0
LINE
  5
C3
100
AcDbEntity
  8
Bridge
  6
ByLayer
 62
  256
370
   -1
100
AcDbLine
 10
-5.249999999999993
 20
-24.99999999999998
 11
65.25
 21
-25.00000000000001
  0
ARC
  5
C4
100
AcDbEntity
  8
Bridge
  6
ByLayer
 62
  256
370
   -1
100
AcDbCircle
 10
65.25
 20
-35.00000000000001
 40
10
100
AcDbArc
 50
0
 51
90
  0
ARC
  5
C5
100
AcDbEntity
  8
Bridge
  6
ByLayer
 62
  256
370
   -1
100
AcDbCircle
 10
65.25
 20
-56.00000000000001
 40
10
100
AcDbArc
 50
270
 51
0
  0
LINE
  5
C6
100
AcDbEntity
  8
Bridge
  6
ByLayer
 62
  256
370
   -1
100
AcDbLine
 10
-5.25
 20
-65.99999999999997
 11
65.25
 21
-66
  0
ARC
  5
C7
100
AcDbEntity
  8
Bridge
  6
ByLayer
 62
  256
370
   -1
100
AcDbCircle
 10
-5.25
 20
-55.99999999999998
 40
10
100
AcDbArc
 50
180
 51
270
  0
CIRCLE
  5
C8
100
AcDbEntity
  8
Bridge
  6
ByLayer
 62
  256
370
   -1
100
AcDbCircle
 10
75.25
 20
-45.50000000000001
 40
2
  0
CIRCLE
  5
C9
100
AcDbEntity
  8
Bridge
  6
ByLayer
 62
  256
370
   -1
100
AcDbCircle
 10
-15.25
 20
-45.49999999999998
 40
2
  0
LINE
  5
CA
100
AcDbEntity
  8
Bridge
  6
ByLayer
 62
  256
370
   -1
100
AcDbLine
 10
75.25
 20
-56.00000000000001
 11
75.25
 21
-52.50000000000007
  0
LINE
  5
CB
100
AcDbEntity
  8
Bridge
  6
ByLayer
 62
  256
370
   -1
100
AcDbLine
 10
-15.25
 20
-55.99999999999998
 11
-15.25
 21
-52.49999999999997
  0
ARC
  5
CC
100
AcDbEntity
  8
Bridge
  6
ByLayer
 62
  256
370
   -1
100
AcDbCircle
 10
-15.25
 20
-45.49999999999998
 40
7
100
AcDbArc
 50
89.99999999999997
 51
270
  0
ARC
  5
CD
100
AcDbEntity
  8
Bridge
  6
ByLayer
 62
  256
370
   -1
100
AcDbCircle
 10
75.25
 20
-45.50000000000001
 40
7
100
AcDbArc
 50
270
 51
450
  0
LINE
  5
CE
100
AcDbEntity
  8
Bridge
  6
ByLayer
 62
  256
370
   -1
100
AcDbLine
 10
75.25
 20
-38.5000000000001
 11
75.25
 21
-35.00000000000001
  0
LINE
  5
CF
100
AcDbEntity
  8
Bridge
  6
ByLayer
 62
  256
370
   -1
100
AcDbLine
 10
-15.25
 20
-38.50000000000001
 11
-15.25
 21
-34.99999999999998
  0
ARC
  5
D0
100
AcDbEntity
  8
Bridge
  6
ByLayer
 62
  256
370
   -1
100
AcDbCircle
 10
5.749999728414842
 20
-48.99999999999999
 40
3
100
AcDbArc
 50
89.99999273815587
 51
90.00000726184398
  0
ARC
  5
D1
100
AcDbEntity
  8
Bridge
  6
ByLayer
 62
  256
370
   -1
100
AcDbCircle
 10
5.749999330277653
 20
-42.00000000000001
 40
3
100
AcDbArc
 50
89.99999273815587
 51
90.00000726184398
  0
CIRCLE
  5
D2
100
AcDbEntity
  8
Bridge
  6
ByLayer
 62
  256
370
   -1
100
AcDbCircle
 10
30
 20
-45.5
 40
1.5
  0
CIRCLE
  5
D3
100
AcDbEntity
  8
Bridge
  6
ByLayer
 62
  256
370
   -1
100
AcDbCircle
 10
4.448051522780261
 20
-49
 40
2.5
  0
CIRCLE
  5
D4
100
AcDbEntity
  8
Bridge
  6
ByLayer
 62
  256
370
   -1
100
AcDbCircle
 10
4.540980710093635
 20
-42
 40
2.5
  0
CIRCLE
  5
D5
100
AcDbEntity
  8
Bridge
  6
ByLayer
 62
  256
370
   -1
100
AcDbCircle
 10
14.76219649586849
 20
-42
 40
2.5
  0
CIRCLE
  5
D6
100
AcDbEntity
  8
Bridge
  6
ByLayer
 62
  256
370
   -1
100
AcDbCircle
 10
14.70138330865367
 20
-49
 40
2.5
  0
CIRCLE
  5
D7
100
AcDbEntity
  8
Bridge
  6
ByLayer
 62
  256
370
   -1
100
AcDbCircle
 10
24.94271631991199
 20
-49
 40
2.5
  0
CIRCLE
  5
D8
100
AcDbEntity
  8
Bridge
  6
ByLayer
 62
  256
370
   -1
100
AcDbCircle
 10
24.96889318638307
 20
-42
 40
2.5
  0
CIRCLE
  5
D9
100
AcDbEntity
  8
Bridge
  6
ByLayer
 62
  256
370
   -1
100
AcDbCircle
 10
35.15719599103983
 20
-42
 40
2.5
  0
CIRCLE
  5
DA
100
AcDbEntity
  8
Bridge
  6
ByLayer
 62
  256
370
   -1
100
AcDbCircle
 10
35.16806785580638
 20
-49
 40
2.5
  0
CIRCLE
  5
DB
100
AcDbEntity
  8
Bridge
  6
ByLayer
 62
  256
370
   -1
100
AcDbCircle
 10
45.38627432356824
 20
-49
 40
2.5
  0
CIRCLE
  5
DC
100
AcDbEntity
  8
Bridge
  6
ByLayer
 62
  256
370
   -1
100
AcDbCircle
 10
45.33671464882633
 20
-42
 40
2.5
  0
CIRCLE
  5
DD
100
AcDbEntity
  8
Bridge
  6
ByLayer
 62
  256
370
   -1
100
AcDbCircle
 10
55.50155968720128
 20
-42
 40
2.5
  0
CIRCLE
  5
DE
100
AcDbEntity
  8
Bridge
  6
ByLayer
 62
  256
370
   -1
100
AcDbCircle
 10
55.59075091556272
 20
-49
 40
2.5
  0
ARC
  5
DF
100
AcDbEntity
  8
Bridge
  6
ByLayer
 62
  256
370
   -1
100
AcDbCircle
 10
4.540980710093635
 20
-42.00000000000002
 40
3.5
100
AcDbArc
 50
90
 51
179.2394089338098
  0
LINE
  5
E0
100
AcDbEntity
  8
Bridge
  6
ByLayer
 62
  256
370
   -1
100
AcDbLine
 10
1.041289091969637
 20
-41.95353950029721
 11
0.948359904656264
 21
-48.95353950029717
  0
ARC
  5
E1
100
AcDbEntity
  8
Bridge
  6
ByLayer
 62
  256
370
   -1
100
AcDbCircle
 10
4.448051522780262
 20
-48.99999999999998
 40
3.5
100
AcDbArc
 50
179.2394089338098
 51
269.9999999999999
  0
LINE
  5
E2
100
AcDbEntity
  8
Bridge
  6
ByLayer
 62
  256
370
   -1
100
AcDbLine
 10
4.448051522780259
 20
-52.49999999999997
 11
55.59075091556273
 21
-52.50000000000002
  0
ARC
  5
E3
100
AcDbEntity
  8
Bridge
  6
ByLayer
 62
  256
370
   -1
100
AcDbCircle
 10
55.59075091556272
 20
-49.00000000000002
 40
3.5
100
AcDbArc
 50
270.0000000000001
 51
0.73000063326607
  0
LINE
  5
E4
100
AcDbEntity
  8
Bridge
  6
ByLayer
 62
  256
370
   -1
100
AcDbLine
 10
59.00127561196103
 20
-41.95540800539353
 11
59.09046684032248
 21
-48.95540800539353
  0
LINE
  5
E5
100
AcDbEntity
  8
Bridge
  6
ByLayer
 62
  256
370
   -1
100
AcDbLine
 10
4.540980710093635
 20
-38.50000000000002
 11
55.50155968720128
 21
-38.50000000000002
  0
ARC
  5
E6
100
AcDbEntity
  8
Bridge
  6
ByLayer
 62
  256
370
   -1
100
AcDbCircle
 10
55.50155968720128
 20
-42.00000000000002
 40
3.5
100
AcDbArc
 50
0.73000063326607
 51
90
  0
LINE
  5
E7
100
AcDbEntity
  8
Bridge
  6
ByLayer
 62
  256
370
   -1
100
AcDbLine
 10
70.25
 20
-90.5
 11
-10.25
 21
-90.49999999999997
  0
LINE
  5
E8
100
AcDbEntity
  8
Bridge
  6
ByLayer
 62
  256
370
   -1
100
AcDbLine
 10
70.25
 20
-89.5
 11
-10.25
 21
-89.49999999999997
  0
LINE
  5
E9
100
AcDbEntity
  8
Bridge
  6
ByLayer
 62
  256
370
   -1
100
AcDbLine
 10
28.5
 20
-76.49999999999999
 11
28.5
 21
-90.49999999999999
  0
LINE
  5
EA
100
AcDbEntity
  8
Bridge
  6
ByLayer
 62
  256
370
   -1
100
AcDbLine
 10
31.5
 20
-76.49999999999999
 11
31.5
 21
-90.49999999999999
  0
LINE
  5
EB
100
AcDbEntity
  8
Bridge
  6
ByLayer
 62
  256
370
   -1
100
AcDbLine
 10
-10.25
 20
-90.49999999999997
 11
-10.25
 21
-89.49999999999997
  0
LINE
  5
EC
100
AcDbEntity
  8
Bridge
  6
ByLayer
 62
  256
370
   -1
100
AcDbLine
 10
70.25
 20
-90.5
 11
70.25
 21
-89.5
  0
LINE
  5
ED
100
AcDbEntity
  8
Bridge
  6
ByLayer
 62
  256
370
   -1
100
AcDbLine
 10
-15.25
 20
-77.49999999999997
 11
-15.25
 21
-76.49999999999997
  0
LINE
  5
EE
100
AcDbEntity
  8
Bridge
  6
ByLayer
 62
  256
370
   -1
100
AcDbLine
 10
-15.25
 20
-76.49999999999997
 11
75.25
 21
-76.5
  0
LINE
  5
EF
100
AcDbEntity
  8
Bridge
  6
ByLayer
 62
  256
370
   -1
100
AcDbLine
 10
-15.25
 20
-77.49999999999997
 11
75.25
 21
-77.5
  0
LINE
  5
F0
100
AcDbEntity
  8
Bridge
  6
ByLayer
 62
  256
370
   -1
100
AcDbLine
 10
75.25
 20
-77.5
 11
75.25
 21
-76.5
  0
LINE
  5
F1
100
AcDbEntity
  8
Bridge
  6
ByLayer
 62
  256
370
   -1
100
AcDbLine
 10
0.6559883626525078
 20
-89.49999999999997
 11
0.6559883626525078
 21
-77.49999999999997
  0
LINE
  5
F2
100
AcDbEntity
  8
Bridge
  6
ByLayer
 62
  256
370
   -1
100
AcDbLine
 10
59.37106620469869
 20
-89.5
 11
59.37106620469869
 21
-77.5
  0
LINE
  5
F3
100
AcDbEntity
  8
Alnico 5
  6
ByLayer
 62
  256
370
   -1
100
AcDbLine
 10
1.655988362652508
 20
-76.49999999999997
 11
2.155988362652508
 21
-75.99999999999997
  0
LINE
  5
F4
100
AcDbEntity
  8
Alnico 5
  6
ByLayer
 62
  256
370
   -1
100
AcDbLine
 10
2.155988362652508
 20
-75.99999999999997
 11
6.155988362652508
 21
-75.99999999999997
  0
LINE
  5
F5
100
AcDbEntity
  8
Alnico 5
  6
ByLayer
 62
  256
370
   -1
100
AcDbLine
 10
6.155988362652508
 20
-75.99999999999997
 11
6.655988362652508
 21
-76.49999999999997
  0
LINE
  5
F6
100
AcDbEntity
  8
Alnico 5
  6
ByLayer
 62
  256
370
   -1
100
AcDbLine
 10
6.655988362652508
 20
-90.49999999999997
 11
6.655988362652508
 21
-76.49999999999997
  0
LINE
  5
F7
100
AcDbEntity
  8
Alnico 5
  6
ByLayer
 62
  256
370
   -1
100
AcDbLine
 10
6.655988362652508
 20
-90.49999999999997
 11
6.155988362652508
 21
-90.99999999999997
  0
LINE
  5
F8
100
AcDbEntity
  8
Alnico 5
  6
ByLayer
 62
  256
370
   -1
100
AcDbLine
 10
2.155988362652508
 20
-90.99999999999997
 11
6.155988362652508
 21
-90.99999999999997
  0
LINE
  5
F9
100
AcDbEntity
  8
Alnico 5
  6
ByLayer
 62
  256
370
   -1
100
AcDbLine
 10
1.655988362652508
 20
-90.49999999999997
 11
1.655988362652508
 21
-76.49999999999997
  0
LINE
  5
FA
100
AcDbEntity
  8
Alnico 5
  6
ByLayer
 62
  256
370
   -1
100
AcDbLine
 10
2.155988362652508
 20
-90.99999999999997
 11
1.655988362652508
 21
-90.49999999999997
  0
LINE
  5
FB
100
AcDbEntity
  8
Alnico 5
  6
ByLayer
 62
  256
370
   -1
100
AcDbLine
 10
12.01025614883566
 20
-76.49999999999997
 11
12.51025614883566
 21
-75.99999999999997
  0
LINE
  5
FC
100
AcDbEntity
  8
Alnico 5
  6
ByLayer
 62
  256
370
   -1
100
AcDbLine
 10
12.51025614883566
 20
-75.99999999999997
 11
16.51025614883566
 21
-75.99999999999999
  0
LINE
  5
FD
100
AcDbEntity
  8
Alnico 5
  6
ByLayer
 62
  256
370
   -1
100
AcDbLine
 10
16.51025614883566
 20
-75.99999999999999
 11
17.01025614883566
 21
-76.49999999999999
  0
LINE
  5
FE
100
AcDbEntity
  8
Alnico 5
  6
ByLayer
 62
  256
370
   -1
100
AcDbLine
 10
17.01025614883566
 20
-90.49999999999999
 11
17.01025614883566
 21
-76.49999999999999
  0
LINE
  5
FF
100
AcDbEntity
  8
Alnico 5
  6
ByLayer
 62
  256
370
   -1
100
AcDbLine
 10
17.01025614883566
 20
-90.49999999999999
 11
16.51025614883566
 21
-90.99999999999999
  0
LINE
  5
100
100
AcDbEntity
  8
Alnico 5
  6
ByLayer
 62
  256
370
   -1
100
AcDbLine
 10
12.51025614883566
 20
-90.99999999999999
 11
16.51025614883566
 21
-90.99999999999999
  0
LINE
  5
101
100
AcDbEntity
  8
Alnico 5
  6
ByLayer
 62
  256
370
   -1
100
AcDbLine
 10
12.01025614883566
 20
-90.49999999999999
 11
12.01025614883566
 21
-76.49999999999997
  0
LINE
  5
102
100
AcDbEntity
  8
Alnico 5
  6
ByLayer
 62
  256
370
   -1
100
AcDbLine
 10
12.51025614883566
 20
-90.99999999999999
 11
12.01025614883566
 21
-90.49999999999999
  0
LINE
  5
103
100
AcDbEntity
  8
Alnico 5
  6
ByLayer
 62
  256
370
   -1
100
AcDbLine
 10
22.36044616814575
 20
-76.49999999999999
 11
22.86044616814575
 21
-75.99999999999999
  0
LINE
  5
104
100
AcDbEntity
  8
Alnico 5
  6
ByLayer
 62
  256
370
   -1
100
AcDbLine
 10
22.86044616814575
 20
-75.99999999999999
 11
26.86044616814575
 21
-75.99999999999999
  0
LINE
  5
105
100
AcDbEntity
  8
Alnico 5
  6
ByLayer
 62
  256
370
   -1
100
AcDbLine
 10
26.86044616814575
 20
-75.99999999999999
 11
27.36044616814575
 21
-76.49999999999999
  0
LINE
  5
106
100
AcDbEntity
  8
Alnico 5
  6
ByLayer
 62
  256
370
   -1
100
AcDbLine
 10
27.36044616814575
 20
-90.49999999999999
 11
27.36044616814575
 21
-76.49999999999999
  0
LINE
  5
107
100
AcDbEntity
  8
Alnico 5
  6
ByLayer
 62
  256
370
   -1
100
AcDbLine
 10
27.36044616814575
 20
-90.49999999999999
 11
26.86044616814575
 21
-90.99999999999999
  0
LINE
  5
108
100
AcDbEntity
  8
Alnico 5
  6
ByLayer
 62
  256
370
   -1
100
AcDbLine
 10
22.86044616814575
 20
-90.99999999999999
 11
26.86044616814575
 21
-90.99999999999999
  0
LINE
  5
109
100
AcDbEntity
  8
Alnico 5
  6
ByLayer
 62
  256
370
   -1
100
AcDbLine
 10
22.36044616814575
 20
-90.49999999999999
 11
22.36044616814575
 21
-76.49999999999999
  0
LINE
  5
10A
100
AcDbEntity
  8
Alnico 5
  6
ByLayer
 62
  256
370
   -1
100
AcDbLine
 10
22.86044616814575
 20
-90.99999999999999
 11
22.36044616814575
 21
-90.49999999999999
  0
LINE
  5
10B
100
AcDbEntity
  8
Alnico 5
  6
ByLayer
 62
  256
370
   -1
100
AcDbLine
 10
32.70223657364411
 20
-76.49999999999999
 11
33.20223657364411
 21
-75.99999999999999
  0
LINE
  5
10C
100
AcDbEntity
  8
Alnico 5
  6
ByLayer
 62
  256
370
   -1
100
AcDbLine
 10
33.20223657364411
 20
-75.99999999999999
 11
37.20223657364411
 21
-75.99999999999999
  0
LINE
  5
10D
100
AcDbEntity
  8
Alnico 5
  6
ByLayer
 62
  256
370
   -1
100
AcDbLine
 10
37.20223657364411
 20
-75.99999999999999
 11
37.70223657364411
 21
-76.49999999999999
  0
LINE
  5
10E
100
AcDbEntity
  8
Alnico 5
  6
ByLayer
 62
  256
370
   -1
100
AcDbLine
 10
37.70223657364411
 20
-90.49999999999999
 11
37.70223657364411
 21
-76.49999999999999
  0
LINE
  5
10F
100
AcDbEntity
  8
Alnico 5
  6
ByLayer
 62
  256
370
   -1
100
AcDbLine
 10
37.70223657364411
 20
-90.49999999999999
 11
37.20223657364411
 21
-90.99999999999999
  0
LINE
  5
110
100
AcDbEntity
  8
Alnico 5
  6
ByLayer
 62
  256
370
   -1
100
AcDbLine
 10
33.20223657364411
 20
-90.99999999999999
 11
37.20223657364411
 21
-90.99999999999999
  0
LINE
  5
111
100
AcDbEntity
  8
Alnico 5
  6
ByLayer
 62
  256
370
   -1
100
AcDbLine
 10
32.70223657364411
 20
-90.49999999999999
 11
32.70223657364411
 21
-76.49999999999999
  0
LINE
  5
112
100
AcDbEntity
  8
Alnico 5
  6
ByLayer
 62
  256
370
   -1
100
AcDbLine
 10
33.20223657364411
 20
-90.99999999999999
 11
32.70223657364411
 21
-90.49999999999999
  0
LINE
  5
113
100
AcDbEntity
  8
Alnico 5
  6
ByLayer
 62
  256
370
   -1
100
AcDbLine
 10
43.04203330132854
 20
-76.49999999999999
 11
43.54203330132854
 21
-75.99999999999999
  0
LINE
  5
114
100
AcDbEntity
  8
Alnico 5
  6
ByLayer
 62
  256
370
   -1
100
AcDbLine
 10
43.54203330132854
 20
-75.99999999999999
 11
47.54203330132854
 21
-76
  0
LINE
  5
115
100
AcDbEntity
  8
Alnico 5
  6
ByLayer
 62
  256
370
   -1
100
AcDbLine
 10
47.54203330132854
 20
-76
 11
48.04203330132854
 21
-76.5
  0
LINE
  5
116
100
AcDbEntity
  8
Alnico 5
  6
ByLayer
 62
  256
370
   -1
100
AcDbLine
 10
48.04203330132854
 20
-90.5
 11
48.04203330132854
 21
-76.5
  0
LINE
  5
117
100
AcDbEntity
  8
Alnico 5
  6
ByLayer
 62
  256
370
   -1
100
AcDbLine
 10
48.04203330132854
 20
-90.5
 11
47.54203330132854
 21
-91
  0
LINE
  5
118
100
AcDbEntity
  8
Alnico 5
  6
ByLayer
 62
  256
370
   -1
100
AcDbLine
 10
43.54203330132854
 20
-91
 11
47.54203330132854
 21
-91
  0
LINE
  5
119
100
AcDbEntity
  8
Alnico 5
  6
ByLayer
 62
  256
370
   -1
100
AcDbLine
 10
43.04203330132854
 20
-90.5
 11
43.04203330132854
 21
-76.49999999999999
  0
LINE
  5
11A
100
AcDbEntity
  8
Alnico 5
  6
ByLayer
 62
  256
370
   -1
100
AcDbLine
 10
43.54203330132854
 20
-91
 11
43.04203330132854
 21
-90.5
  0
LINE
  5
11B
100
AcDbEntity
  8
Alnico 5
  6
ByLayer
 62
  256
370
   -1
100
AcDbLine
 10
53.37106620469869
 20
-76.5
 11
53.87106620469869
 21
-76
  0
LINE
  5
11C
100
AcDbEntity
  8
Alnico 5
  6
ByLayer
 62
  256
370
   -1
100
AcDbLine
 10
53.87106620469869
 20
-76
 11
57.87106620469869
 21
-76
  0
LINE
  5
11D
100
AcDbEntity
  8
Alnico 5
  6
ByLayer
 62
  256
370
   -1
100
AcDbLine
 10
57.87106620469869
 20
-76
 11
58.37106620469869
 21
-76.5
  0
LINE
  5
11E
100
AcDbEntity
  8
Alnico 5
  6
ByLayer
 62
  256
370
   -1
100
AcDbLine
 10
58.37106620469869
 20
-90.5
 11
58.37106620469869
 21
-76.5
  0
LINE
  5
11F
100
AcDbEntity
  8
Alnico 5
  6
ByLayer
 62
  256
370
   -1
100
AcDbLine
 10
58.37106620469869
 20
-90.5
 11
57.87106620469869
 21
-91
  0
LINE
  5
120
100
AcDbEntity
  8
Alnico 5
  6
ByLayer
 62
  256
370
   -1
100
AcDbLine
 10
53.87106620469869
 20
-91
 11
57.87106620469869
 21
-91
  0
LINE
  5
121
100
AcDbEntity
  8
Alnico 5
  6
ByLayer
 62
  256
370
   -1
100
AcDbLine
 10
53.37106620469869
 20
-90.5
 11
53.37106620469869
 21
-76.5
  0
LINE
  5
122
100
AcDbEntity
  8
Alnico 5
  6
ByLayer
 62
  256
370
   -1
100
AcDbLine
 10
53.87106620469869
 20
-91
 11
53.37106620469869
 21
-90.5
  0
LINE
  5
123
100
AcDbEntity
  8
Centerlines
  6
ByLayer
 62
    2
370
   -1
100
AcDbLine
 10
26.75
 20
19.49999999999999
 11
26.75
 21
-4.500000000000009
  0
LINE
  5
124
100
AcDbEntity
  8
Centerlines
  6
ByLayer
 62
    2
370
   -1
100
AcDbLine
 10
2.500000000000007
 20
20.00000000000001
 11
2.499999999999998
 21
-5
  0
LINE
  5
125
100
AcDbEntity
  8
Centerlines
  6
ByLayer
 62
    2
370
   -1
100
AcDbLine
 10
12.20000000000001
 20
20
 11
12.2
 21
-5.000000000000005
  0
LINE
  5
126
100
AcDbEntity
  8
Centerlines
  6
ByLayer
 62
    2
370
   -1
100
AcDbLine
 10
21.90000000000001
 20
19.99999999999999
 11
21.9
 21
-5.000000000000009
  0
LINE
  5
127
100
AcDbEntity
  8
Centerlines
  6
ByLayer
 62
    2
370
   -1
100
AcDbLine
 10
31.60000000000001
 20
19.99999999999998
 11
31.6
 21
-5.000000000000011
  0
LINE
  5
128
100
AcDbEntity
  8
Centerlines
  6
ByLayer
 62
    2
370
   -1
100
AcDbLine
 10
41.3
 20
19.99999999999998
 11
41.3
 21
-5.000000000000014
  0
LINE
  5
129
100
AcDbEntity
  8
Centerlines
  6
ByLayer
 62
    2
370
   -1
100
AcDbLine
 10
51.00000000000001
 20
19.99999999999996
 11
51
 21
-5.000000000000018
  0
LINE
  5
12A
100
AcDbEntity
  8
Centerlines
  6
ByLayer
 62
    2
370
   -1
100
AcDbLine
 10
-23.5
 20
45.5
 11
77
 21
45.49999999999997
  0
LINE
  5
12B
100
AcDbEntity
  8
Centerlines
  6
ByLayer
 62
    2
370
   -1
100
AcDbLine
 10
2.500000000000014
 20
37.00000000000001
 11
2.500000000000015
 21
54
  0
LINE
  5
12C
100
AcDbEntity
  8
Centerlines
  6
ByLayer
 62
    2
370
   -1
100
AcDbLine
 10
12.20000000000001
 20
37.00000000000001
 11
12.20000000000002
 21
54
  0
LINE
  5
12D
100
AcDbEntity
  8
Centerlines
  6
ByLayer
 62
    2
370
   -1
100
AcDbLine
 10
21.90000000000001
 20
37
 11
21.90000000000001
 21
53.99999999999999
  0
LINE
  5
12E
100
AcDbEntity
  8
Centerlines
  6
ByLayer
 62
    2
370
   -1
100
AcDbLine
 10
26.75
 20
37
 11
26.75
 21
53.99999999999999
  0
LINE
  5
12F
100
AcDbEntity
  8
Centerlines
  6
ByLayer
 62
    2
370
   -1
100
AcDbLine
 10
31.60000000000002
 20
36.99999999999999
 11
31.60000000000002
 21
53.99999999999999
  0
LINE
  5
130
100
AcDbEntity
  8
Centerlines
  6
ByLayer
 62
    2
370
   -1
100
AcDbLine
 10
41.30000000000001
 20
36.99999999999999
 11
41.30000000000002
 21
53.99999999999999
  0
LINE
  5
131
100
AcDbEntity
  8
Centerlines
  6
ByLayer
 62
    2
370
   -1
100
AcDbLine
 10
51.00000000000001
 20
36.99999999999997
 11
51.00000000000001
 21
53.99999999999998
  0
LINE
  5
132
100
AcDbEntity
  8
Centerlines
  6
ByLayer
 62
    2
370
   -1
100
AcDbLine
 10
-20.25
 20
-45.49999999999998
 11
80.25
 21
-45.50000000000001
  0
LINE
  5
133
100
AcDbEntity
  8
Centerlines
  6
ByLayer
 62
    2
370
   -1
100
AcDbLine
 10
30
 20
-53.99999999999998
 11
30
 21
-36.99999999999999
  0
LINE
  5
134
100
AcDbEntity
  8
Centerlines
  6
ByLayer
 62
    2
370
   -1
100
AcDbLine
 10
30
 20
-71.49999999999999
 11
30
 21
-95.49999999999999
  0
LINE
  5
135
100
AcDbEntity
  8
Centerlines
  6
ByLayer
 62
    2
370
   -1
100
AcDbLine
 10
4.155988362652515
 20
-70.99999999999997
 11
4.155988362652504
 21
-95.99999999999997
  0
LINE
  5
136
100
AcDbEntity
  8
Centerlines
  6
ByLayer
 62
    2
370
   -1
100
AcDbLine
 10
14.51025614883567
 20
-70.99999999999997
 11
14.51025614883566
 21
-95.99999999999999
  0
LINE
  5
137
100
AcDbEntity
  8
Centerlines
  6
ByLayer
 62
    2
370
   -1
100
AcDbLine
 10
24.86044616814576
 20
-70.99999999999999
 11
24.86044616814575
 21
-95.99999999999999
  0
LINE
  5
138
100
AcDbEntity
  8
Centerlines
  6
ByLayer
 62
    2
370
   -1
100
AcDbLine
 10
35.20223657364412
 20
-71
 11
35.20223657364411
 21
-95.99999999999999
  0
LINE
  5
139
100
AcDbEntity
  8
Centerlines
  6
ByLayer
 62
    2
370
   -1
100
AcDbLine
 10
45.54203330132854
 20
-71
 11
45.54203330132854
 21
-96
  0
LINE
  5
13A
100
AcDbEntity
  8
Centerlines
  6
ByLayer
 62
    2
370
   -1
100
AcDbLine
 10
55.87106620469869
 20
-71.00000000000001
 11
55.87106620469869
 21
-96
  0
LINE
  5
13B
100
AcDbEntity
  8
Centerlines
  6
ByLayer
 62
    2
370
   -1
100
AcDbLine
 10
4.607358701031759
 20
-36.99999999999998
 11
4.381673531842138
 21
-53.99999999999998
  0
LINE
  5
13C
100
AcDbEntity
  8
Centerlines
  6
ByLayer
 62
    2
370
   -1
100
AcDbLine
 10
14.80563448673622
 20
-36.99999999999998
 11
14.65794531778595
 21
-53.99999999999998
  0
LINE
  5
13D
100
AcDbEntity
  8
Centerlines
  6
ByLayer
 62
    2
370
   -1
100
AcDbLine
 10
24.98759094814812
 20
-36.99999999999999
 11
24.92401855814694
 21
-53.99999999999998
  0
LINE
  5
13E
100
AcDbEntity
  8
Centerlines
  6
ByLayer
 62
    2
370
   -1
100
AcDbLine
 10
35.14943037334943
 20
-36.99999999999999
 11
35.17583347349678
 21
-53.99999999999998
  0
LINE
  5
13F
100
AcDbEntity
  8
Centerlines
  6
ByLayer
 62
    2
370
   -1
100
AcDbLine
 10
45.30131488115354
 20
-36.99999999999999
 11
45.42167409124104
 21
-53.99999999999998
  0
LINE
  5
140
100
AcDbEntity
  8
Centerlines
  6
ByLayer
 62
    2
370
   -1
100
AcDbLine
 10
55.4378516669431
 20
-37
 11
55.65445893582089
 21
-53.99999999999998
  0
ENDSEC
  0
SECTION
  2
OBJECTS
  0
DICTIONARY
  5
C
330
0
100
AcDbDictionary
281
    1
  3
ACAD_GROUP
350
D
  0
DICTIONARY
  5
D
330
C
100
AcDbDictionary
281
    1
  0
ENDSEC
  0
EOF
