999
dxfrw 0.6.3
  0
SECTION
  2
HEADER
  9
$ACADVER
  1
AC1021
  9
$DWGCODEPAGE
  3
ANSI_1252
  9
$INSBASE
 10
0
 20
0
 30
0
  9
$EXTMIN
 10
-50
 20
-140.1842652679017
 30
0
  9
$EXTMAX
 10
950
 20
-69.99999999999969
 30
0
  9
$LIMMIN
 10
0
 20
0
  9
$LIMMAX
 10
420
 20
297
  9
$ORTHOMODE
 70
    0
  9
$REGENMODE
 70
    1
  9
$FILLMODE
 70
    1
  9
$QTEXTMODE
 70
    0
  9
$MIRRTEXT
 70
    0
  9
$LTSCALE
 40
1
  9
$ATTMODE
 70
    0
  9
$TEXTSIZE
 40
2.5
  9
$TRACEWID
 40
15.68
  9
$TEXTSTYLE
  7
STANDARD
  9
$CLAYER
  8
0
  9
$CELTYPE
  6
BYLAYER
  9
$CECOLOR
 62
  256
  9
$CELTSCALE
 40
1
  9
$DISPSILH
 70
    0
  9
$DIMSCALE
 40
1
  9
$DIMASZ
 40
2.5
  9
$DIMEXO
 40
0.625
  9
$DIMDLI
 40
3.75
  9
$DIMRND
 40
0
  9
$DIMDLE
 40
0
  9
$DIMEXE
 40
1.25
  9
$DIMTP
 40
0
  9
$DIMTM
 40
0
  9
$DIMTXT
 40
2.5
  9
$DIMCEN
 40
2.5
  9
$DIMTSZ
 40
0
  9
$DIMTOL
 70
    0
  9
$DIMLIM
 70
    0
  9
$DIMTIH
 70
    0
  9
$DIMTOH
 70
    0
  9
$DIMSE1
 70
    0
  9
$DIMSE2
 70
    0
  9
$DIMTAD
 70
    1
  9
$DIMZIN
 70
    1
  9
$DIMBLK
  1

  9
$DIMASO
 70
    1
  9
$DIMSHO
 70
    1
  9
$DIMPOST
  1

  9
$DIMAPOST
  1

  9
$DIMALT
 70
    0
  9
$DIMALTD
 70
    3
  9
$DIMALTF
 40
0.03937
  9
$DIMLFAC
 40
1
  9
$DIMTOFL
 70
    1
  9
$DIMTVP
 40
0
  9
$DIMTIX
 70
    0
  9
$DIMSOXD
 70
    0
  9
$DIMSAH
 70
    0
  9
$DIMBLK1
  1

  9
$DIMBLK2
  1

  9
$DIMSTYLE
  2
STANDARD
  9
$DIMCLRD
 70
    0
  9
$DIMCLRE
 70
    0
  9
$DIMCLRT
 70
    0
  9
$DIMTFAC
 40
1
  9
$DIMGAP
 40
0.625
  9
$DIMJUST
 70
    0
  9
$DIMSD1
 70
    0
  9
$DIMSD2
 70
    0
  9
$DIMTOLJ
 70
    0
  9
$DIMTZIN
 70
    8
  9
$DIMALTZ
 70
    0
  9
$DIMALTTZ
 70
    0
  9
$DIMUPT
 70
    0
  9
$DIMDEC
 70
    7
  9
$DIMTDEC
 70
    2
  9
$DIMALTU
 70
    2
  9
$DIMALTTD
 70
    3
  9
$DIMTXSTY
  7
standard
  9
$DIMAUNIT
 70
    0
  9
$DIMADEC
 70
    0
  9
$DIMALTRND
 40
0
  9
$DIMAZIN
 70
    0
  9
$DIMDSEP
 70
    0
  9
$DIMATFIT
 70
    3
  9
$DIMFRAC
 70
    0
  9
$DIMLDRBLK
  1
STANDARD
  9
$DIMLUNIT
 70
    2
  9
$DIMLWD
 70
   -2
  9
$DIMLWE
 70
   -2
  9
$DIMTMOVE
 70
    0
  9
$DIMFXL
 40
1
  9
$DIMFXLON
 70
    0
  9
$DIMJOGANG
 40
0.7854
  9
$DIMTFILL
 70
    0
  9
$DIMTFILLCLR
 70
    0
  9
$DIMARCSYM
 70
    0
  9
$DIMLTYPE
  6

  9
$DIMLTEX1
  6

  9
$DIMLTEX2
  6

  9
$LUNITS
 70
    2
  9
$LUPREC
 70
    4
  9
$SKETCHINC
 40
1
  9
$FILLETRAD
 40
0
  9
$AUNITS
 70
    0
  9
$AUPREC
 70
    2
  9
$MENU
  1
.
  9
$ELEVATION
 40
0
  9
$PELEVATION
 40
0
  9
$THICKNESS
 40
0
  9
$LIMCHECK
 70
    0
  9
$CHAMFERA
 40
0
  9
$CHAMFERB
 40
0
  9
$CHAMFERC
 40
0
  9
$CHAMFERD
 40
0
  9
$SKPOLY
 70
    0
  9
$USRTIMER
 70
    1
  9
$ANGBASE
 50
0
  9
$ANGDIR
 70
    0
  9
$PDMODE
 70
   34
  9
$PDSIZE
 40
0
  9
$PLINEWID
 40
0
  9
$SPLFRAME
 70
    0
  9
$SPLINETYPE
 70
    2
  9
$SPLINESEGS
 70
    8
  9
$HANDSEED
  5
20000
  9
$SURFTAB1
 70
    6
  9
$SURFTAB2
 70
    6
  9
$SURFTYPE
 70
    6
  9
$SURFU
 70
    6
  9
$SURFV
 70
    6
  9
$UCSBASE
  2

  9
$UCSNAME
  2

  9
$UCSORG
 10
0
 20
0
 30
0
  9
$UCSXDIR
 10
1
 20
0
 30
0
  9
$UCSYDIR
 10
0
 20
1
 30
0
  9
$UCSORTHOREF
  2

  9
$UCSORTHOVIEW
 70
    0
  9
$UCSORGTOP
 10
0
 20
0
 30
0
  9
$UCSORGBOTTOM
 10
0
 20
0
 30
0
  9
$UCSORGLEFT
 10
0
 20
0
 30
0
  9
$UCSORGRIGHT
 10
0
 20
0
 30
0
  9
$UCSORGFRONT
 10
0
 20
0
 30
0
  9
$UCSORGBACK
 10
0
 20
0
 30
0
  9
$PUCSBASE
  2

  9
$PUCSNAME
  2

  9
$PUCSORG
 10
0
 20
0
 30
0
  9
$PUCSXDIR
 10
1
 20
0
 30
0
  9
$PUCSYDIR
 10
0
 20
1
 30
0
  9
$PUCSORTHOREF
  2

  9
$PUCSORTHOVIEW
 70
    0
  9
$PUCSORGTOP
 10
0
 20
0
 30
0
  9
$PUCSORGBOTTOM
 10
0
 20
0
 30
0
  9
$PUCSORGLEFT
 10
0
 20
0
 30
0
  9
$PUCSORGRIGHT
 10
0
 20
0
 30
0
  9
$PUCSORGFRONT
 10
0
 20
0
 30
0
  9
$PUCSORGBACK
 10
0
 20
0
 30
0
  9
$USERI1
 70
    0
  9
$USERI2
 70
    0
  9
$USERI3
 70
    0
  9
$USERI4
 70
    0
  9
$USERI5
 70
    0
  9
$USERR1
 40
0
  9
$USERR2
 40
0
  9
$USERR3
 40
0
  9
$USERR4
 40
0
  9
$USERR5
 40
0
  9
$WORLDVIEW
 70
    1
  9
$SHADEDGE
 70
    3
  9
$SHADEDIF
 70
   70
  9
$TILEMODE
 70
    1
  9
$MAXACTVP
 70
   64
  9
$PINSBASE
 10
-560.4203542501004
 20
-246.0898693347732
 30
0
  9
$PLIMCHECK
 70
    0
  9
$PEXTMIN
 10
0
 20
0
 30
0
  9
$PEXTMAX
 10
0
 20
0
 30
0
  9
$GRIDMODE
 70
    1
  9
$SNAPSTYLE
 70
    0
  9
$GRIDUNIT
 10
0
 20
0
  9
$PLIMMIN
 10
0
 20
0
  9
$PLIMMAX
 10
297
 20
210
  9
$UNITMODE
 70
    0
  9
$VISRETAIN
 70
    1
  9
$PLINEGEN
 70
    0
  9
$PSLTSCALE
 70
    1
  9
$TREEDEPTH
 70
 3020
  9
$CMLSTYLE
  2
Standard
  9
$CMLJUST
 70
    0
  9
$CMLSCALE
 40
20
  9
$PROXYGRAPHICS
 70
    1
  9
$MEASUREMENT
 70
    1
  9
$CELWEIGHT
370
   -1
  9
$ENDCAPS
280
    0
  9
$JOINSTYLE
280
    0
  9
$LWDISPLAY
290
    0
  9
$INSUNITS
 70
    4
  9
$HYPERLINKBASE
  1

  9
$STYLESHEET
  1

  9
$XEDIT
290
    1
  9
$CEPSNTYPE
380
    0
  9
$PSTYLEMODE
290
    1
  9
$EXTNAMES
290
    1
  9
$PSVPSCALE
 40
0.7775000566583212
  9
$OLESTARTUP
290
    0
  9
$SORTENTS
280
  127
  9
$INDEXCTL
280
    0
  9
$HIDETEXT
280
    1
  9
$XCLIPFRAME
290
    0
  9
$HALOGAP
280
    0
  9
$OBSCOLOR
 70
  257
  9
$OBSLTYPE
280
    0
  9
$INTERSECTIONDISPLAY
280
    0
  9
$INTERSECTIONCOLOR
 70
  257
  9
$DIMASSOC
280
    1
  9
$PROJECTNAME
  1

  9
$CAMERADISPLAY
290
    0
  9
$LENSLENGTH
 40
50
  9
$CAMERAHEIGHT
 40
0
  9
$STEPSPERSEC
 40
2
  9
$STEPSIZE
 40
50
  9
$3DDWFPREC
 40
2
  9
$PSOLWIDTH
 40
5
  9
$PSOLHEIGHT
 40
80
  9
$LOFTANG1
 40
1.570796326794897
  9
$LOFTANG2
 40
1.570796326794897
  9
$LOFTMAG1
 40
0
  9
$LOFTMAG2
 40
0
  9
$LOFTPARAM
 70
    7
  9
$LOFTNORMALS
280
    1
  9
$LATITUDE
 40
1
  9
$LONGITUDE
 40
1
  9
$NORTHDIRECTION
 40
0
  9
$TIMEZONE
 70
-8000
  9
$LIGHTGLYPHDISPLAY
280
    1
  9
$TILEMODELIGHTSYNCH
280
    1
  9
$SOLIDHIST
280
    1
  9
$SHOWHIST
280
    1
  9
$DWFFRAME
280
    2
  9
$DGNFRAME
280
    0
  9
$REALWORLDSCALE
290
    1
  9
$INTERFERECOLOR
 62
    1
  9
$CSHADOW
280
    0
  9
$SHADOWPLANELOCATION
 40
0
  0
ENDSEC
  0
SECTION
  2
CLASSES
  0
ENDSEC
  0
SECTION
  2
TABLES
  0
TABLE
  2
VPORT
  5
8
330
0
100
AcDbSymbolTable
 70
    1
  0
VPORT
  5
31
330
2
100
AcDbSymbolTableRecord
100
AcDbViewportTableRecord
  2
*ACTIVE
 70
    0
 10
0
 20
0
 11
1
 21
1
 12
551.9914291394407
 22
-21.93343427044135
 13
0
 23
0
 14
10
 24
10
 15
10
 25
10
 16
0
 26
0
 36
1
 17
0
 27
0
 37
0
 40
190.8208781528398
 41
1.852490421455939
 42
50
 43
0
 44
0
 50
0
 51
0
 71
    0
 72
  100
 73
    1
 74
    3
 75
    0
 76
    1
 77
    0
 78
    0
281
    0
 65
    1
110
0
120
0
130
0
111
1
121
0
131
0
112
0
122
1
132
0
 79
    0
146
0
348
10020
 60
    7
 61
    5
292
1
282
    1
141
0
142
0
 63
  250
421
3358443
  0
ENDTAB
  0
TABLE
  2
LTYPE
  5
5
330
0
100
AcDbSymbolTable
 70
    4
  0
LTYPE
  5
14
330
5
100
AcDbSymbolTableRecord
100
AcDbLinetypeTableRecord
  2
ByBlock
 70
    0
  3

 72
   65
 73
    0
 40
0
  0
LTYPE
  5
15
330
5
100
AcDbSymbolTableRecord
100
AcDbLinetypeTableRecord
  2
ByLayer
 70
    0
  3

 72
   65
 73
    0
 40
0
  0
LTYPE
  5
16
330
5
100
AcDbSymbolTableRecord
100
AcDbLinetypeTableRecord
  2
Continuous
 70
    0
  3
Solid line
 72
   65
 73
    0
 40
0
  0
LTYPE
  5
32
330
5
100
AcDbSymbolTableRecord
100
AcDbLinetypeTableRecord
  2
DOT
 70
    0
  3
Dot . . . . . . . . . . . . . . . . . . . . . .
 72
   65
 73
    2
 40
6.35
 49
0
 74
    0
 49
-6.35
 74
    0
  0
LTYPE
  5
33
330
5
100
AcDbSymbolTableRecord
100
AcDbLinetypeTableRecord
  2
DOTTINY
 70
    0
  3
Dot (.15x) .....................................
 72
   65
 73
    2
 40
0.9525
 49
0
 74
    0
 49
-0.9525
 74
    0
  0
LTYPE
  5
34
330
5
100
AcDbSymbolTableRecord
100
AcDbLinetypeTableRecord
  2
DOT2
 70
    0
  3
Dot (.5x) .....................................
 72
   65
 73
    2
 40
3.175
 49
0
 74
    0
 49
-3.175
 74
    0
  0
LTYPE
  5
35
330
5
100
AcDbSymbolTableRecord
100
AcDbLinetypeTableRecord
  2
DOTX2
 70
    0
  3
Dot (2x) .  .  .  .  .  .  .  .  .  .  .  .  .
 72
   65
 73
    2
 40
12.7
 49
0
 74
    0
 49
-12.7
 74
    0
  0
LTYPE
  5
36
330
5
100
AcDbSymbolTableRecord
100
AcDbLinetypeTableRecord
  2
DASHED
 70
    0
  3
Dashed _ _ _ _ _ _ _ _ _ _ _ _ _ _ _ _ _
 72
   65
 73
    2
 40
19.05
 49
12.7
 74
    0
 49
-6.35
 74
    0
  0
LTYPE
  5
37
330
5
100
AcDbSymbolTableRecord
100
AcDbLinetypeTableRecord
  2
DASHEDTINY
 70
    0
  3
Dashed (.15x) _ _ _ _ _ _ _ _ _ _ _ _ _ _ _ _ _
 72
   65
 73
    2
 40
2.8575
 49
1.905
 74
    0
 49
-0.9525
 74
    0
  0
LTYPE
  5
38
330
5
100
AcDbSymbolTableRecord
100
AcDbLinetypeTableRecord
  2
DASHED2
 70
    0
  3
Dashed (.5x) _ _ _ _ _ _ _ _ _ _ _ _ _ _ _ _ _
 72
   65
 73
    2
 40
9.524999999999999
 49
6.35
 74
    0
 49
-3.175
 74
    0
  0
LTYPE
  5
39
330
5
100
AcDbSymbolTableRecord
100
AcDbLinetypeTableRecord
  2
DASHEDX2
 70
    0
  3
Dashed (2x) ____  ____  ____  ____  ____  ___
 72
   65
 73
    2
 40
38.09999999999999
 49
25.4
 74
    0
 49
-12.7
 74
    0
  0
LTYPE
  5
3A
330
5
100
AcDbSymbolTableRecord
100
AcDbLinetypeTableRecord
  2
DASHDOT
 70
    0
  3
Dash dot __ . __ . __ . __ . __ . __ . __ . __
 72
   65
 73
    4
 40
25.4
 49
12.7
 74
    0
 49
-6.35
 74
    0
 49
0
 74
    0
 49
-6.35
 74
    0
  0
LTYPE
  5
3B
330
5
100
AcDbSymbolTableRecord
100
AcDbLinetypeTableRecord
  2
DASHDOTTINY
 70
    0
  3
Dash dot (.15x) _._._._._._._._._._._._._._._.
 72
   65
 73
    4
 40
3.81
 49
1.905
 74
    0
 49
-0.9525
 74
    0
 49
0
 74
    0
 49
-0.9525
 74
    0
  0
LTYPE
  5
3C
330
5
100
AcDbSymbolTableRecord
100
AcDbLinetypeTableRecord
  2
DASHDOT2
 70
    0
  3
Dash dot (.5x) _._._._._._._._._._._._._._._.
 72
   65
 73
    4
 40
12.7
 49
6.35
 74
    0
 49
-3.175
 74
    0
 49
0
 74
    0
 49
-3.175
 74
    0
  0
LTYPE
  5
3D
330
5
100
AcDbSymbolTableRecord
100
AcDbLinetypeTableRecord
  2
DASHDOTX2
 70
    0
  3
Dash dot (2x) ____  .  ____  .  ____  .  ___
 72
   65
 73
    4
 40
50.8
 49
25.4
 74
    0
 49
-12.7
 74
    0
 49
0
 74
    0
 49
-12.7
 74
    0
  0
LTYPE
  5
3E
330
5
100
AcDbSymbolTableRecord
100
AcDbLinetypeTableRecord
  2
DIVIDE
 70
    0
  3
Divide ____ . . ____ . . ____ . . ____ . . ____
 72
   65
 73
    6
 40
31.75
 49
12.7
 74
    0
 49
-6.35
 74
    0
 49
0
 74
    0
 49
-6.35
 74
    0
 49
0
 74
    0
 49
-6.35
 74
    0
  0
LTYPE
  5
3F
330
5
100
AcDbSymbolTableRecord
100
AcDbLinetypeTableRecord
  2
DIVIDETINY
 70
    0
  3
Divide (.15x) __..__..__..__..__..__..__..__.._
 72
   65
 73
    6
 40
4.7625
 49
1.905
 74
    0
 49
-0.9525
 74
    0
 49
0
 74
    0
 49
-0.9525
 74
    0
 49
0
 74
    0
 49
-0.9525
 74
    0
  0
LTYPE
  5
40
330
5
100
AcDbSymbolTableRecord
100
AcDbLinetypeTableRecord
  2
DIVIDE2
 70
    0
  3
Divide (.5x) __..__..__..__..__..__..__..__.._
 72
   65
 73
    6
 40
15.875
 49
6.35
 74
    0
 49
-3.175
 74
    0
 49
0
 74
    0
 49
-3.175
 74
    0
 49
0
 74
    0
 49
-3.175
 74
    0
  0
LTYPE
  5
41
330
5
100
AcDbSymbolTableRecord
100
AcDbLinetypeTableRecord
  2
DIVIDEX2
 70
    0
  3
Divide (2x) ________  .  .  ________  .  .  _
 72
   65
 73
    6
 40
63.5
 49
25.4
 74
    0
 49
-12.7
 74
    0
 49
0
 74
    0
 49
-12.7
 74
    0
 49
0
 74
    0
 49
-12.7
 74
    0
  0
LTYPE
  5
42
330
5
100
AcDbSymbolTableRecord
100
AcDbLinetypeTableRecord
  2
BORDER
 70
    0
  3
Border __ __ . __ __ . __ __ . __ __ . __ __ .
 72
   65
 73
    6
 40
44.45
 49
12.7
 74
    0
 49
-6.35
 74
    0
 49
12.7
 74
    0
 49
-6.35
 74
    0
 49
0
 74
    0
 49
-6.35
 74
    0
  0
LTYPE
  5
43
330
5
100
AcDbSymbolTableRecord
100
AcDbLinetypeTableRecord
  2
BORDERTINY
 70
    0
  3
Border (.15x) __.__.__.__.__.__.__.__.__.__.__.
 72
   65
 73
    6
 40
6.6675
 49
1.905
 74
    0
 49
-0.9525
 74
    0
 49
1.905
 74
    0
 49
-0.9525
 74
    0
 49
0
 74
    0
 49
-0.9525
 74
    0
  0
LTYPE
  5
44
330
5
100
AcDbSymbolTableRecord
100
AcDbLinetypeTableRecord
  2
BORDER2
 70
    0
  3
Border (.5x) __.__.__.__.__.__.__.__.__.__.__.
 72
   65
 73
    6
 40
22.225
 49
6.35
 74
    0
 49
-3.175
 74
    0
 49
6.35
 74
    0
 49
-3.175
 74
    0
 49
0
 74
    0
 49
-3.175
 74
    0
  0
LTYPE
  5
45
330
5
100
AcDbSymbolTableRecord
100
AcDbLinetypeTableRecord
  2
BORDERX2
 70
    0
  3
Border (2x) ____  ____  .  ____  ____  .  ___
 72
   65
 73
    6
 40
88.89999999999999
 49
25.4
 74
    0
 49
-12.7
 74
    0
 49
25.4
 74
    0
 49
-12.7
 74
    0
 49
0
 74
    0
 49
-12.7
 74
    0
  0
LTYPE
  5
46
330
5
100
AcDbSymbolTableRecord
100
AcDbLinetypeTableRecord
  2
CENTER
 70
    0
  3
Center ____ _ ____ _ ____ _ ____ _ ____ _ ____
 72
   65
 73
    4
 40
50.8
 49
31.75
 74
    0
 49
-6.35
 74
    0
 49
6.35
 74
    0
 49
-6.35
 74
    0
  0
LTYPE
  5
47
330
5
100
AcDbSymbolTableRecord
100
AcDbLinetypeTableRecord
  2
CENTERTINY
 70
    0
  3
Center (.15x) ___ _ ___ _ ___ _ ___ _ ___ _ ___
 72
   65
 73
    4
 40
7.62
 49
4.7625
 74
    0
 49
-0.9525
 74
    0
 49
0.9525
 74
    0
 49
-0.9525
 74
    0
  0
LTYPE
  5
48
330
5
100
AcDbSymbolTableRecord
100
AcDbLinetypeTableRecord
  2
CENTER2
 70
    0
  3
Center (.5x) ___ _ ___ _ ___ _ ___ _ ___ _ ___
 72
   65
 73
    4
 40
28.575
 49
19.05
 74
    0
 49
-3.175
 74
    0
 49
3.175
 74
    0
 49
-3.175
 74
    0
  0
LTYPE
  5
49
330
5
100
AcDbSymbolTableRecord
100
AcDbLinetypeTableRecord
  2
CENTERX2
 70
    0
  3
Center (2x) ________  __  ________  __  _____
 72
   65
 73
    4
 40
101.6
 49
63.5
 74
    0
 49
-12.7
 74
    0
 49
12.7
 74
    0
 49
-12.7
 74
    0
  0
ENDTAB
  0
TABLE
  2
LAYER
  5
2
330
0
100
AcDbSymbolTable
 70
    1
  0
LAYER
  5
10
330
2
100
AcDbSymbolTableRecord
100
AcDbLayerTableRecord
  2
0
 70
    0
 62
    7
  6
CONTINUOUS
370
    0
390
F
  0
LAYER
  5
4A
330
2
100
AcDbSymbolTableRecord
100
AcDbLayerTableRecord
  2
Blade
 70
    0
 62
    2
  6
CONTINUOUS
370
   13
390
F
  0
LAYER
  5
4B
330
2
100
AcDbSymbolTableRecord
100
AcDbLayerTableRecord
  2
Damascus aihio 51x2.6x1000
 70
    0
 62
    7
  6
CONTINUOUS
370
   13
390
F
  0
ENDTAB
  0
TABLE
  2
STYLE
  5
3
330
0
100
AcDbSymbolTable
 70
    3
  0
STYLE
  5
4C
330
2
100
AcDbSymbolTableRecord
100
AcDbTextStyleTableRecord
  2
standard
 70
    0
 40
0
 41
1
 50
0
 71
    0
 42
1
  3
standard
  4

  0
ENDTAB
  0
TABLE
  2
VIEW
  5
6
330
0
100
AcDbSymbolTable
 70
    0
  0
ENDTAB
  0
TABLE
  2
UCS
  5
7
330
0
100
AcDbSymbolTable
 70
    0
  0
ENDTAB
  0
TABLE
  2
APPID
  5
9
330
0
100
AcDbSymbolTable
 70
    1
  0
APPID
  5
12
330
9
100
AcDbSymbolTableRecord
100
AcDbRegAppTableRecord
  2
ACAD
 70
    0
  0
APPID
  5
4D
330
9
100
AcDbSymbolTableRecord
100
AcDbRegAppTableRecord
  2
LibreCad
 70
    0
  0
ENDTAB
  0
TABLE
  2
DIMSTYLE
  5
A
330
0
100
AcDbSymbolTable
 70
    1
100
AcDbDimStyleTable
 71
    1
  0
DIMSTYLE
105
4E
330
A
100
AcDbSymbolTableRecord
100
AcDbDimStyleTableRecord
  2
Standard
 70
    0
 40
1
 41
2.5
 42
0.625
 43
0.38
 44
1.25
 45
0
 46
0
 47
0
 48
0
 49
1
140
2.5
141
0.09
142
0
143
25.4
144
1
145
0
146
1
147
0.625
148
0
 71
    0
 72
    0
 73
    0
 74
    1
 75
    0
 76
    0
 77
    0
 78
    1
 79
    0
170
    0
171
    2
172
    0
173
    0
174
    0
175
    0
176
    0
177
    0
178
    0
179
    0
271
    7
272
    4
273
    2
274
    2
275
    0
276
    0
277
    2
278
    0
279
    0
280
    0
281
    0
282
    0
283
    1
284
    0
285
    0
286
    0
288
    0
289
    3
340
standard
341

371
   -2
372
   -2
  0
ENDTAB
  0
TABLE
  2
BLOCK_RECORD
  5
1
330
0
100
AcDbSymbolTable
 70
    2
  0
BLOCK_RECORD
  5
1F
330
1
100
AcDbSymbolTableRecord
100
AcDbBlockTableRecord
  2
*Model_Space
 70
    0
280
    1
281
    0
  0
BLOCK_RECORD
  5
1E
330
1
100
AcDbSymbolTableRecord
100
AcDbBlockTableRecord
  2
*Paper_Space
 70
    0
280
    1
281
    0
  0
BLOCK_RECORD
  5
4F
330
1
100
AcDbSymbolTableRecord
100
AcDbBlockTableRecord
  2
2020-09-11 Bunka v.2.0
 70
    0
280
    1
281
    0
  0
ENDTAB
  0
ENDSEC
  0
SECTION
  2
BLOCKS
  0
BLOCK
  5
20
330
1F
100
AcDbEntity
  8
0
100
AcDbBlockBegin
  2
*Model_Space
 70
    0
 10
0
 20
0
 30
0
  3
*Model_Space
  1

  0
ENDBLK
  5
21
330
1F
100
AcDbEntity
  8
0
100
AcDbBlockEnd
  0
BLOCK
  5
1C
330
1B
100
AcDbEntity
  8
0
100
AcDbBlockBegin
  2
*Paper_Space
 70
    0
 10
0
 20
0
 30
0
  3
*Paper_Space
  1

  0
ENDBLK
  5
1D
330
1F
100
AcDbEntity
  8
0
100
AcDbBlockEnd
  0
BLOCK
  5
50
330
4F
100
AcDbEntity
  8
0
100
AcDbBlockBegin
  2
2020-09-11 Bunka v.2.0
 70
    0
 10
0
 20
0
  3
2020-09-11 Bunka v.2.0
  1

  0
LINE
  5
52
100
AcDbEntity
  8
Blade
  6
ByLayer
 62
  256
370
   -1
100
AcDbLine
 10
885.4488467099834
 20
471.8254941295809
 11
885.4548951003443
 21
474.3315279395803
  0
LINE
  5
53
100
AcDbEntity
  8
Blade
  6
ByLayer
 62
  256
370
   -1
100
AcDbLine
 10
885.4069477983165
 20
454.4654887437813
 11
885.4129670631021
 21
456.959454933782
  0
ARC
  5
54
100
AcDbEntity
  8
Blade
  6
DASHEDTINY
 62
  256
370
   -1
100
AcDbCircle
 10
882.9488539913666
 20
471.8315279395803
 40
2.5
100
AcDbArc
 50
270
 51
359.8617151268077
  0
ARC
  5
55
100
AcDbEntity
  8
Blade
  6
DASHEDTINY
 62
  256
370
   -1
100
AcDbCircle
 10
882.9129743444853
 20
456.9654887437813
 40
2.5
100
AcDbArc
 50
359.8617151268077
 51
90
  0
ARC
  5
56
100
AcDbEntity
  8
Blade
  6
DASHEDTINY
 62
  256
370
   -1
100
AcDbCircle
 10
787.9427750403516
 20
466.8315279395803
 40
2.5
100
AcDbArc
 50
90
 51
179.7215542769069
  0
LINE
  5
57
100
AcDbEntity
  8
Blade
  6
DASHEDTINY
 62
  256
370
   -1
100
AcDbLine
 10
785.4191564248475
 20
461.977638182598
 11
785.4428045622986
 21
466.8436773783969
  0
ARC
  5
58
100
AcDbEntity
  8
Blade
  6
DASHEDTINY
 62
  256
370
   -1
100
AcDbCircle
 10
787.9191269029006
 20
461.9654887437813
 40
2.5
100
AcDbArc
 50
179.7215542769069
 51
270
  0
LINE
  5
59
100
AcDbEntity
  8
Blade
  6
DASHEDTINY
 62
  256
370
   -1
100
AcDbLine
 10
787.9427750403516
 20
469.3315279395803
 11
805.4551312787273
 21
469.3315279395803
  0
ARC
  5
5A
100
AcDbEntity
  8
Blade
  6
DASHEDTINY
 62
  256
370
   -1
100
AcDbCircle
 10
810.4551903233007
 20
481.3318113552926
 40
13.00028432407617
100
AcDbArc
 50
247.3803752628128
 51
292.619624736852
  0
LINE
  5
5B
100
AcDbEntity
  8
Blade
  6
DASHEDTINY
 62
  256
370
   -1
100
AcDbLine
 10
815.4552493678505
 20
469.3315279395805
 11
830.4554265017405
 21
469.3315279395802
  0
ARC
  5
5C
100
AcDbEntity
  8
Blade
  6
DASHEDTINY
 62
  256
370
   -1
100
AcDbCircle
 10
835.455485546257
 20
481.3318113552923
 40
13.00028432407588
100
AcDbArc
 50
247.3803752629619
 51
292.6196247369441
  0
ARC
  5
5D
100
AcDbEntity
  8
Blade
  6
DASHEDTINY
 62
  256
370
   -1
100
AcDbCircle
 10
825.4171398641922
 20
447.4652053280698
 40
13.00028432407549
100
AcDbArc
 50
67.38037526292354
 51
112.6196247369314
  0
LINE
  5
5E
100
AcDbEntity
  8
Blade
  6
DASHEDTINY
 62
  256
370
   -1
100
AcDbLine
 10
795.4167855966293
 20
459.4654887437812
 11
787.9191269029006
 21
459.4654887437813
  0
ARC
  5
5F
100
AcDbEntity
  8
Blade
  6
DASHEDTINY
 62
  256
370
   -1
100
AcDbCircle
 10
800.4168446412358
 20
447.4652053280687
 40
13.00028432407645
100
AcDbArc
 50
67.38037526296354
 51
112.6196247373399
  0
LINE
  5
60
100
AcDbEntity
  8
Blade
  6
DASHEDTINY
 62
  256
370
   -1
100
AcDbLine
 10
820.4170808196232
 20
459.4654887437814
 11
805.416903685831
 21
459.4654887437812
  0
LINE
  5
61
100
AcDbEntity
  8
Blade
  6
ByLayer
 62
  256
370
   -1
100
AcDbLine
 10
885.4548951003443
 20
474.3315279395803
 11
1027.265282646825
 21
474.3315279395802
  0
ARC
  5
62
100
AcDbEntity
  8
Blade
  6
ByLayer
 62
  256
370
   -1
100
AcDbCircle
 10
1027.265282646825
 20
454.3315279395803
 40
20
100
AcDbArc
 50
51.35762890283145
 51
90
  0
LINE
  5
63
100
AcDbEntity
  8
Blade
  6
ByLayer
 62
  256
370
   -1
100
AcDbLine
 10
888.6453122475079
 20
454.4654887437813
 11
885.4069477983165
 21
454.4654887437813
  0
ARC
  5
64
100
AcDbEntity
  8
Blade
  6
ByLayer
 62
  256
370
   -1
100
AcDbCircle
 10
888.6453122475079
 20
449.4654887437813
 40
5
100
AcDbArc
 50
358.5203642291028
 51
90
  0
LINE
  5
65
100
AcDbEntity
  8
Blade
  6
DASHEDTINY
 62
  256
370
   -1
100
AcDbLine
 10
882.9129743444853
 20
459.4654887437813
 11
855.4174941317362
 21
459.4654887437825
  0
ARC
  5
66
100
AcDbEntity
  8
Blade
  6
DASHEDTINY
 62
  256
370
   -1
100
AcDbCircle
 10
850.4174350871485
 20
447.4652053280698
 40
13.00028432407549
100
AcDbArc
 50
67.38037526298605
 51
112.619624736937
  0
LINE
  5
67
100
AcDbEntity
  8
Blade
  6
DASHEDTINY
 62
  256
370
   -1
100
AcDbLine
 10
845.4173760425781
 20
459.4654887437815
 11
830.4171989087919
 21
459.4654887437816
  0
LINE
  5
68
100
AcDbEntity
  8
Blade
  6
DASHEDTINY
 62
  256
370
   -1
100
AcDbLine
 10
840.4555445908322
 20
469.3315279395735
 11
882.9488539913666
 21
469.3315279395803
  0
ARC
  5
69
100
AcDbEntity
  8
Blade
  6
DASHDOTX2
 62
  256
370
   -1
100
AcDbCircle
 10
919.3005776892664
 20
1343.040571892817
 40
898.8933092211386
100
AcDbArc
 50
268.3564579236071
 51
278.9067821771814
  0
LINE
  5
6A
100
AcDbEntity
  8
Blade
  6
ByLayer
 62
  256
370
   -1
100
AcDbLine
 10
892.9769040782166
 20
423.5239790259802
 11
893.643645076107
 21
449.3363805157363
  0
LINE
  5
6B
100
AcDbEntity
  8
Blade
  6
ByLayer
 62
  256
370
   -1
100
AcDbLine
 10
1039.754430092709
 20
469.9527057464862
 11
1080.495020166874
 21
437.38056280323
  0
ARC
  5
6C
100
AcDbEntity
  8
Blade
  6
ByLayer
 62
  256
370
   -1
100
AcDbCircle
 10
919.3005776892664
 20
1343.040571892817
 40
919.8933092211386
100
AcDbArc
 50
268.3601997069763
 51
280.0921402540775
  0
LINE
  5
6D
100
AcDbEntity
  8
Blade
  6
DASHEDTINY
 62
  256
370
   -1
100
AcDbLine
 10
870.5345112562198
 20
459.46548874378
 11
860.668472060423
 21
469.3315279395768
  0
LINE
  5
6E
100
AcDbEntity
  8
Blade
  6
DASHEDTINY
 62
  256
370
   -1
100
AcDbLine
 10
830.5345112562194
 20
459.4654887437806
 11
820.6684720604295
 21
469.3315279395704
  0
LINE
  5
6F
100
AcDbEntity
  8
Blade
  6
DASHEDTINY
 62
  256
370
   -1
100
AcDbLine
 10
809.4654887437811
 20
459.465488743781
 11
819.3315279395702
 21
469.3315279395701
  0
LINE
  5
70
100
AcDbEntity
  8
Blade
  6
DASHEDTINY
 62
  256
370
   -1
100
AcDbLine
 10
810.534511256219
 20
459.465488743781
 11
800.6684720604328
 21
469.3315279395671
  0
LINE
  5
71
100
AcDbEntity
  8
Blade
  6
DASHEDTINY
 62
  256
370
   -1
100
AcDbLine
 10
789.4654887437812
 20
459.4654887437812
 11
799.3315279395669
 21
469.3315279395669
  0
LINE
  5
72
100
AcDbEntity
  8
Blade
  6
DASHEDTINY
 62
  256
370
   -1
100
AcDbLine
 10
790.5345112562188
 20
459.4654887437812
 11
785.4317463830066
 21
464.5682536169933
  0
LINE
  5
73
100
AcDbEntity
  8
Blade
  6
DASHEDTINY
 62
  256
370
   -1
100
AcDbLine
 10
849.5626428555396
 20
460.4373571444605
 11
840.6684720604267
 21
469.3315279395735
  0
LINE
  5
74
100
AcDbEntity
  8
Blade
  6
DASHEDTINY
 62
  256
370
   -1
100
AcDbLine
 10
850.4654011636069
 20
460.4654011636069
 11
859.3315279395765
 21
469.3315279395765
  0
LINE
  5
75
100
AcDbEntity
  8
Blade
  6
DASHEDTINY
 62
  256
370
   -1
100
AcDbLine
 10
829.7294402400159
 20
459.7294402400159
 11
838.7579968294075
 21
468.7579968294075
  0
LINE
  5
76
100
AcDbEntity
  8
Damascus aihio 51x2.6x1000
  6
ByLayer
 62
  256
370
   -1
100
AcDbLine
 10
700
 20
200
 11
1700
 21
200
  0
LINE
  5
77
100
AcDbEntity
  8
Damascus aihio 51x2.6x1000
  6
ByLayer
 62
  256
370
   -1
100
AcDbLine
 10
700
 20
200
 11
700
 21
251
  0
LINE
  5
78
100
AcDbEntity
  8
Damascus aihio 51x2.6x1000
  6
ByLayer
 62
  256
370
   -1
100
AcDbLine
 10
700
 20
251
 11
1700
 21
251
  0
LINE
  5
79
100
AcDbEntity
  8
Damascus aihio 51x2.6x1000
  6
ByLayer
 62
  256
370
   -1
100
AcDbLine
 10
1700
 20
200
 11
1700
 21
250
  0
LINE
  5
7A
100
AcDbEntity
  8
Blade
  6
ByLayer
 62
  256
370
   -1
100
AcDbLine
 10
896.5062280932461
 20
202.5060338099995
 11
896.5001797028852
 21
200.0000000000001
  0
LINE
  5
7B
100
AcDbEntity
  8
Blade
  6
ByLayer
 62
  256
370
   -1
100
AcDbLine
 10
896.548127004913
 20
219.8660391957991
 11
896.5421077401274
 21
217.3720730057984
  0
ARC
  5
7C
100
AcDbEntity
  8
Blade
  6
ByLayer
 62
  256
370
   -1
100
AcDbCircle
 10
899.0062208118629
 20
202.5000000000001
 40
2.5
100
AcDbArc
 50
90
 51
179.8617151268078
  0
ARC
  5
7D
100
AcDbEntity
  8
Blade
  6
ByLayer
 62
  256
370
   -1
100
AcDbCircle
 10
899.0421004587442
 20
217.3660391957991
 40
2.5
100
AcDbArc
 50
179.8617151268078
 51
270
  0
ARC
  5
7E
100
AcDbEntity
  8
Blade
  6
ByLayer
 62
  256
370
   -1
100
AcDbCircle
 10
994.0122997628779
 20
207.5000000000001
 40
2.5
100
AcDbArc
 50
270
 51
359.7215542769069
  0
ARC
  5
7F
100
AcDbEntity
  8
Blade
  6
ByLayer
 62
  256
370
   -1
100
AcDbCircle
 10
994.0359479003289
 20
212.3660391957991
 40
2.5
100
AcDbArc
 50
359.7215542769069
 51
90
  0
LINE
  5
80
100
AcDbEntity
  8
Blade
  6
ByLayer
 62
  256
370
   -1
100
AcDbLine
 10
994.0122997628779
 20
205.0000000000001
 11
976.4999435245022
 21
205.0000000000001
  0
ARC
  5
81
100
AcDbEntity
  8
Blade
  6
ByLayer
 62
  256
370
   -1
100
AcDbCircle
 10
971.4998844799288
 20
192.9997165842879
 40
13.00028432407617
100
AcDbArc
 50
67.38037526281281
 51
112.619624736852
  0
LINE
  5
82
100
AcDbEntity
  8
Blade
  6
ByLayer
 62
  256
370
   -1
100
AcDbLine
 10
966.4998254353791
 20
204.9999999999999
 11
951.4996483014891
 21
205.0000000000002
  0
ARC
  5
83
100
AcDbEntity
  8
Blade
  6
ByLayer
 62
  256
370
   -1
100
AcDbCircle
 10
946.4995892569725
 20
192.9997165842881
 40
13.00028432407588
100
AcDbArc
 50
67.38037526296192
 51
112.6196247369441
  0
ARC
  5
84
100
AcDbEntity
  8
Blade
  6
ByLayer
 62
  256
370
   -1
100
AcDbCircle
 10
956.5379349390373
 20
226.8663226115106
 40
13.00028432407549
100
AcDbArc
 50
247.3803752629235
 51
292.6196247369314
  0
LINE
  5
85
100
AcDbEntity
  8
Blade
  6
ByLayer
 62
  256
370
   -1
100
AcDbLine
 10
986.5382892066002
 20
214.8660391957992
 11
994.0359479003289
 21
214.8660391957991
  0
ARC
  5
86
100
AcDbEntity
  8
Blade
  6
ByLayer
 62
  256
370
   -1
100
AcDbCircle
 10
981.5382301619937
 20
226.8663226115117
 40
13.00028432407645
100
AcDbArc
 50
247.3803752629636
 51
292.6196247373399
  0
LINE
  5
87
100
AcDbEntity
  8
Blade
  6
ByLayer
 62
  256
370
   -1
100
AcDbLine
 10
961.5379939836064
 20
214.866039195799
 11
976.5381711173985
 21
214.8660391957992
  0
ARC
  5
88
100
AcDbEntity
  8
Blade
  6
ByLayer
 62
  256
370
   -1
100
AcDbCircle
 10
754.6897921564046
 20
220.0000000000001
 40
20
100
AcDbArc
 50
231.3576289028314
 51
270
  0
LINE
  5
89
100
AcDbEntity
  8
Blade
  6
ByLayer
 62
  256
370
   -1
100
AcDbLine
 10
893.3097625557216
 20
219.8660391957991
 11
896.548127004913
 21
219.8660391957991
  0
ARC
  5
8A
100
AcDbEntity
  8
Blade
  6
ByLayer
 62
  256
370
   -1
100
AcDbCircle
 10
893.3097625557216
 20
224.8660391957991
 40
5
100
AcDbArc
 50
178.5203642291027
 51
270
  0
LINE
  5
8B
100
AcDbEntity
  8
Blade
  6
ByLayer
 62
  256
370
   -1
100
AcDbLine
 10
899.0421004587442
 20
214.8660391957991
 11
926.5375806714933
 21
214.8660391957978
  0
ARC
  5
8C
100
AcDbEntity
  8
Blade
  6
ByLayer
 62
  256
370
   -1
100
AcDbCircle
 10
931.537639716081
 20
226.8663226115106
 40
13.00028432407549
100
AcDbArc
 50
247.380375262986
 51
292.6196247369369
  0
LINE
  5
8D
100
AcDbEntity
  8
Blade
  6
ByLayer
 62
  256
370
   -1
100
AcDbLine
 10
936.5376987606514
 20
214.866039195799
 11
951.5378758944377
 21
214.8660391957989
  0
LINE
  5
8E
100
AcDbEntity
  8
Blade
  6
ByLayer
 62
  256
370
   -1
100
AcDbLine
 10
941.4995302123973
 20
205.0000000000069
 11
899.0062208118629
 21
205.0000000000001
  0
ARC
  5
8F
100
AcDbEntity
  8
Blade
  6
ByLayer
 62
  256
370
   -1
100
AcDbCircle
 10
862.654497113963
 20
-668.7090439532367
 40
898.8933092211386
100
AcDbArc
 50
88.35645792360714
 51
98.90678217718148
  0
LINE
  5
90
100
AcDbEntity
  8
Blade
  6
ByLayer
 62
  256
370
   -1
100
AcDbLine
 10
888.9781707250129
 20
250.8075489136002
 11
888.3114297271226
 21
224.9951474238441
  0
LINE
  5
91
100
AcDbEntity
  8
Blade
  6
ByLayer
 62
  256
370
   -1
100
AcDbLine
 10
742.2006447105205
 20
204.3788221930943
 11
701.4600546363556
 21
236.9509651363505
  0
ARC
  5
92
100
AcDbEntity
  8
Blade
  6
ByLayer
 62
  256
370
   -1
100
AcDbCircle
 10
862.654497113963
 20
-668.7090439532367
 40
919.8933092211386
100
AcDbArc
 50
88.36019970697629
 51
100.0921402540775
  0
LINE
  5
93
100
AcDbEntity
  8
Blade
  6
ByLayer
 62
  256
370
   -1
100
AcDbLine
 10
911.4205635470097
 20
214.8660391958005
 11
921.2866027428065
 21
205.0000000000036
  0
LINE
  5
94
100
AcDbEntity
  8
Blade
  6
ByLayer
 62
  256
370
   -1
100
AcDbLine
 10
951.4205635470101
 20
214.8660391957998
 11
961.2866027428
 21
205.00000000001
  0
LINE
  5
95
100
AcDbEntity
  8
Blade
  6
ByLayer
 62
  256
370
   -1
100
AcDbLine
 10
972.4895860594485
 20
214.8660391957994
 11
962.6235468636594
 21
205.0000000000103
  0
LINE
  5
96
100
AcDbEntity
  8
Blade
  6
ByLayer
 62
  256
370
   -1
100
AcDbLine
 10
971.4205635470105
 20
214.8660391957994
 11
981.2866027427967
 21
205.0000000000133
  0
LINE
  5
97
100
AcDbEntity
  8
Blade
  6
ByLayer
 62
  256
370
   -1
100
AcDbLine
 10
992.4895860594484
 20
214.8660391957992
 11
982.6235468636627
 21
205.0000000000135
  0
LINE
  5
98
100
AcDbEntity
  8
Blade
  6
ByLayer
 62
  256
370
   -1
100
AcDbLine
 10
991.4205635470107
 20
214.8660391957992
 11
996.5233284202229
 21
209.7632743225871
  0
LINE
  5
99
100
AcDbEntity
  8
Blade
  6
ByLayer
 62
  256
370
   -1
100
AcDbLine
 10
932.3924319476899
 20
213.89417079512
 11
941.2866027428029
 21
205.0000000000069
  0
LINE
  5
9A
100
AcDbEntity
  8
Blade
  6
ByLayer
 62
  256
370
   -1
100
AcDbLine
 10
931.4896736396227
 20
213.8661267759735
 11
922.623546863653
 21
205.0000000000039
  0
LINE
  5
9B
100
AcDbEntity
  8
Blade
  6
ByLayer
 62
  256
370
   -1
100
AcDbLine
 10
952.2256345632136
 20
214.6020876995644
 11
943.197077973822
 21
205.5735311101729
  0
LINE
  5
9C
100
AcDbEntity
  8
Blade
  6
ByLayer
 62
  256
370
   -1
100
AcDbLine
 10
996.4758805383084
 20
200
 11
754.6897921564046
 21
200.0000000000003
  0
LINE
  5
9D
100
AcDbEntity
  8
Blade
  6
ByLayer
 62
  256
370
   -1
100
AcDbLine
 10
996.535918378382
 20
212.3538897569824
 11
996.4758805383084
 21
200
  0
LINE
  5
9E
100
AcDbEntity
  8
Blade
  6
ByLayer
 62
  256
370
   -1
100
AcDbLine
 10
1501.997121216467
 20
248.4939661900005
 11
1502.003169606828
 21
250.9999999999999
  0
LINE
  5
9F
100
AcDbEntity
  8
Blade
  6
ByLayer
 62
  256
370
   -1
100
AcDbLine
 10
1501.9552223048
 20
231.1339608042009
 11
1501.961241569586
 21
233.6279269942016
  0
ARC
  5
A0
100
AcDbEntity
  8
Blade
  6
ByLayer
 62
  256
370
   -1
100
AcDbCircle
 10
1499.497128497851
 20
248.4999999999999
 40
2.5
100
AcDbArc
 50
270
 51
359.8617151268077
  0
ARC
  5
A1
100
AcDbEntity
  8
Blade
  6
ByLayer
 62
  256
370
   -1
100
AcDbCircle
 10
1499.461248850969
 20
233.6339608042009
 40
2.5
100
AcDbArc
 50
359.8617151268077
 51
90
  0
ARC
  5
A2
100
AcDbEntity
  8
Blade
  6
ByLayer
 62
  256
370
   -1
100
AcDbCircle
 10
1404.491049546835
 20
243.4999999999999
 40
2.5
100
AcDbArc
 50
90
 51
179.7215542769069
  0
ARC
  5
A3
100
AcDbEntity
  8
Blade
  6
ByLayer
 62
  256
370
   -1
100
AcDbCircle
 10
1404.467401409384
 20
238.6339608042009
 40
2.5
100
AcDbArc
 50
179.7215542769069
 51
270
  0
LINE
  5
A4
100
AcDbEntity
  8
Blade
  6
ByLayer
 62
  256
370
   -1
100
AcDbLine
 10
1404.491049546835
 20
245.9999999999999
 11
1422.003405785211
 21
245.9999999999999
  0
ARC
  5
A5
100
AcDbEntity
  8
Blade
  6
ByLayer
 62
  256
370
   -1
100
AcDbCircle
 10
1427.003464829785
 20
258.0002834157121
 40
13.00028432407617
100
AcDbArc
 50
247.3803752628128
 51
292.619624736852
  0
LINE
  5
A6
100
AcDbEntity
  8
Blade
  6
ByLayer
 62
  256
370
   -1
100
AcDbLine
 10
1432.003523874334
 20
246.0000000000001
 11
1447.003701008224
 21
245.9999999999998
  0
ARC
  5
A7
100
AcDbEntity
  8
Blade
  6
ByLayer
 62
  256
370
   -1
100
AcDbCircle
 10
1452.003760052741
 20
258.0002834157119
 40
13.00028432407588
100
AcDbArc
 50
247.3803752629619
 51
292.6196247369441
  0
ARC
  5
A8
100
AcDbEntity
  8
Blade
  6
ByLayer
 62
  256
370
   -1
100
AcDbCircle
 10
1441.965414370676
 20
224.1336773884894
 40
13.00028432407549
100
AcDbArc
 50
67.38037526292354
 51
112.6196247369314
  0
LINE
  5
A9
100
AcDbEntity
  8
Blade
  6
ByLayer
 62
  256
370
   -1
100
AcDbLine
 10
1411.965060103113
 20
236.1339608042008
 11
1404.467401409384
 21
236.1339608042009
  0
ARC
  5
AA
100
AcDbEntity
  8
Blade
  6
ByLayer
 62
  256
370
   -1
100
AcDbCircle
 10
1416.96511914772
 20
224.1336773884883
 40
13.00028432407645
100
AcDbArc
 50
67.38037526296354
 51
112.6196247373399
  0
LINE
  5
AB
100
AcDbEntity
  8
Blade
  6
ByLayer
 62
  256
370
   -1
100
AcDbLine
 10
1436.965355326107
 20
236.133960804201
 11
1421.965178192315
 21
236.1339608042008
  0
ARC
  5
AC
100
AcDbEntity
  8
Blade
  6
ByLayer
 62
  256
370
   -1
100
AcDbCircle
 10
1643.813557153309
 20
230.9999999999999
 40
20
100
AcDbArc
 50
51.35762890283145
 51
90
  0
LINE
  5
AD
100
AcDbEntity
  8
Blade
  6
ByLayer
 62
  256
370
   -1
100
AcDbLine
 10
1505.193586753992
 20
231.1339608042009
 11
1501.9552223048
 21
231.1339608042009
  0
ARC
  5
AE
100
AcDbEntity
  8
Blade
  6
ByLayer
 62
  256
370
   -1
100
AcDbCircle
 10
1505.193586753992
 20
226.1339608042009
 40
5
100
AcDbArc
 50
358.5203642291028
 51
90
  0
LINE
  5
AF
100
AcDbEntity
  8
Blade
  6
ByLayer
 62
  256
370
   -1
100
AcDbLine
 10
1499.461248850969
 20
236.1339608042009
 11
1471.96576863822
 21
236.1339608042021
  0
ARC
  5
B0
100
AcDbEntity
  8
Blade
  6
ByLayer
 62
  256
370
   -1
100
AcDbCircle
 10
1466.965709593632
 20
224.1336773884894
 40
13.00028432407549
100
AcDbArc
 50
67.38037526298605
 51
112.619624736937
  0
LINE
  5
B1
100
AcDbEntity
  8
Blade
  6
ByLayer
 62
  256
370
   -1
100
AcDbLine
 10
1461.965650549062
 20
236.1339608042011
 11
1446.965473415276
 21
236.1339608042012
  0
LINE
  5
B2
100
AcDbEntity
  8
Blade
  6
ByLayer
 62
  256
370
   -1
100
AcDbLine
 10
1457.003819097316
 20
245.9999999999931
 11
1499.497128497851
 21
245.9999999999999
  0
ARC
  5
B3
100
AcDbEntity
  8
Blade
  6
ByLayer
 62
  256
370
   -1
100
AcDbCircle
 10
1535.84885219575
 20
1119.709043953237
 40
898.8933092211386
100
AcDbArc
 50
268.3564579236071
 51
278.9067821771814
  0
LINE
  5
B4
100
AcDbEntity
  8
Blade
  6
ByLayer
 62
  256
370
   -1
100
AcDbLine
 10
1509.5251785847
 20
200.1924510863998
 11
1510.191919582591
 21
226.0048525761559
  0
LINE
  5
B5
100
AcDbEntity
  8
Blade
  6
ByLayer
 62
  256
370
   -1
100
AcDbLine
 10
1656.302704599193
 20
246.6211778069058
 11
1697.043294673358
 21
214.0490348636496
  0
ARC
  5
B6
100
AcDbEntity
  8
Blade
  6
ByLayer
 62
  256
370
   -1
100
AcDbCircle
 10
1535.84885219575
 20
1119.709043953237
 40
919.8933092211386
100
AcDbArc
 50
268.3601997069763
 51
280.0921402540775
  0
LINE
  5
B7
100
AcDbEntity
  8
Blade
  6
ByLayer
 62
  256
370
   -1
100
AcDbLine
 10
1487.082785762704
 20
236.1339608041996
 11
1477.216746566907
 21
245.9999999999964
  0
LINE
  5
B8
100
AcDbEntity
  8
Blade
  6
ByLayer
 62
  256
370
   -1
100
AcDbLine
 10
1447.082785762703
 20
236.1339608042002
 11
1437.216746566913
 21
245.99999999999
  0
LINE
  5
B9
100
AcDbEntity
  8
Blade
  6
ByLayer
 62
  256
370
   -1
100
AcDbLine
 10
1426.013763250265
 20
236.1339608042006
 11
1435.879802446054
 21
245.9999999999897
  0
LINE
  5
BA
100
AcDbEntity
  8
Blade
  6
ByLayer
 62
  256
370
   -1
100
AcDbLine
 10
1427.082785762703
 20
236.1339608042005
 11
1417.216746566917
 21
245.9999999999867
  0
LINE
  5
BB
100
AcDbEntity
  8
Blade
  6
ByLayer
 62
  256
370
   -1
100
AcDbLine
 10
1406.013763250265
 20
236.1339608042008
 11
1415.879802446051
 21
245.9999999999865
  0
LINE
  5
BC
100
AcDbEntity
  8
Blade
  6
ByLayer
 62
  256
370
   -1
100
AcDbLine
 10
1407.082785762703
 20
236.1339608042008
 11
1401.98002088949
 21
241.2367256774129
  0
LINE
  5
BD
100
AcDbEntity
  8
Blade
  6
ByLayer
 62
  256
370
   -1
100
AcDbLine
 10
1466.110917362023
 20
237.1058292048801
 11
1457.21674656691
 21
245.9999999999931
  0
LINE
  5
BE
100
AcDbEntity
  8
Blade
  6
ByLayer
 62
  256
370
   -1
100
AcDbLine
 10
1467.013675670091
 20
237.1338732240265
 11
1475.87980244606
 21
245.9999999999961
  0
LINE
  5
BF
100
AcDbEntity
  8
Blade
  6
ByLayer
 62
  256
370
   -1
100
AcDbLine
 10
1446.2777147465
 20
236.3979123004355
 11
1455.306271335891
 21
245.4264688898271
  0
LINE
  5
C0
100
AcDbEntity
  8
Blade
  6
ByLayer
 62
  256
370
   -1
100
AcDbLine
 10
1402.027468771405
 20
251
 11
1643.813557153309
 21
250.9999999999998
  0
LINE
  5
C1
100
AcDbEntity
  8
Blade
  6
ByLayer
 62
  256
370
   -1
100
AcDbLine
 10
1401.967430931331
 20
238.6461102430176
 11
1402.027468771405
 21
251
  0
LINE
  5
C2
100
AcDbEntity
  8
Blade
  6
ByLayer
 62
  256
370
   -1
100
AcDbLine
 10
1393.384646534365
 20
202.5060338099995
 11
1393.378598144004
 21
200.0000000000001
  0
LINE
  5
C3
100
AcDbEntity
  8
Blade
  6
ByLayer
 62
  256
370
   -1
100
AcDbLine
 10
1393.426545446032
 20
219.8660391957991
 11
1393.420526181247
 21
217.3720730057984
  0
ARC
  5
C4
100
AcDbEntity
  8
Blade
  6
ByLayer
 62
  256
370
   -1
100
AcDbCircle
 10
1395.884639252982
 20
202.5000000000001
 40
2.5
100
AcDbArc
 50
90
 51
179.8617151268078
  0
ARC
  5
C5
100
AcDbEntity
  8
Blade
  6
ByLayer
 62
  256
370
   -1
100
AcDbCircle
 10
1395.920518899864
 20
217.3660391957991
 40
2.5
100
AcDbArc
 50
179.8617151268078
 51
270
  0
ARC
  5
C6
100
AcDbEntity
  8
Blade
  6
ByLayer
 62
  256
370
   -1
100
AcDbCircle
 10
1490.890718203997
 20
207.5000000000001
 40
2.5
100
AcDbArc
 50
270
 51
359.7215542769069
  0
ARC
  5
C7
100
AcDbEntity
  8
Blade
  6
ByLayer
 62
  256
370
   -1
100
AcDbCircle
 10
1490.914366341448
 20
212.3660391957991
 40
2.5
100
AcDbArc
 50
359.7215542769069
 51
90
  0
LINE
  5
C8
100
AcDbEntity
  8
Blade
  6
ByLayer
 62
  256
370
   -1
100
AcDbLine
 10
1490.890718203997
 20
205.0000000000001
 11
1473.378361965621
 21
205.0000000000001
  0
ARC
  5
C9
100
AcDbEntity
  8
Blade
  6
ByLayer
 62
  256
370
   -1
100
AcDbCircle
 10
1468.378302921048
 20
192.9997165842879
 40
13.00028432407617
100
AcDbArc
 50
67.38037526281281
 51
112.619624736852
  0
LINE
  5
CA
100
AcDbEntity
  8
Blade
  6
ByLayer
 62
  256
370
   -1
100
AcDbLine
 10
1463.378243876498
 20
204.9999999999999
 11
1448.378066742608
 21
205.0000000000002
  0
ARC
  5
CB
100
AcDbEntity
  8
Blade
  6
ByLayer
 62
  256
370
   -1
100
AcDbCircle
 10
1443.378007698092
 20
192.9997165842881
 40
13.00028432407588
100
AcDbArc
 50
67.38037526296192
 51
112.6196247369441
  0
ARC
  5
CC
100
AcDbEntity
  8
Blade
  6
ByLayer
 62
  256
370
   -1
100
AcDbCircle
 10
1453.416353380157
 20
226.8663226115106
 40
13.00028432407549
100
AcDbArc
 50
247.3803752629235
 51
292.6196247369314
  0
LINE
  5
CD
100
AcDbEntity
  8
Blade
  6
ByLayer
 62
  256
370
   -1
100
AcDbLine
 10
1483.416707647719
 20
214.8660391957992
 11
1490.914366341448
 21
214.8660391957991
  0
ARC
  5
CE
100
AcDbEntity
  8
Blade
  6
ByLayer
 62
  256
370
   -1
100
AcDbCircle
 10
1478.416648603113
 20
226.8663226115117
 40
13.00028432407645
100
AcDbArc
 50
247.3803752629636
 51
292.6196247373399
  0
LINE
  5
CF
100
AcDbEntity
  8
Blade
  6
ByLayer
 62
  256
370
   -1
100
AcDbLine
 10
1458.416412424726
 20
214.866039195799
 11
1473.416589558518
 21
214.8660391957992
  0
ARC
  5
D0
100
AcDbEntity
  8
Blade
  6
ByLayer
 62
  256
370
   -1
100
AcDbCircle
 10
1251.568210597524
 20
220.0000000000001
 40
20
100
AcDbArc
 50
231.3576289028314
 51
270
  0
LINE
  5
D1
100
AcDbEntity
  8
Blade
  6
ByLayer
 62
  256
370
   -1
100
AcDbLine
 10
1390.188180996841
 20
219.8660391957991
 11
1393.426545446032
 21
219.8660391957991
  0
ARC
  5
D2
100
AcDbEntity
  8
Blade
  6
ByLayer
 62
  256
370
   -1
100
AcDbCircle
 10
1390.188180996841
 20
224.8660391957991
 40
5
100
AcDbArc
 50
178.5203642291027
 51
270
  0
LINE
  5
D3
100
AcDbEntity
  8
Blade
  6
ByLayer
 62
  256
370
   -1
100
AcDbLine
 10
1395.920518899864
 20
214.8660391957991
 11
1423.415999112613
 21
214.8660391957978
  0
ARC
  5
D4
100
AcDbEntity
  8
Blade
  6
ByLayer
 62
  256
370
   -1
100
AcDbCircle
 10
1428.4160581572
 20
226.8663226115106
 40
13.00028432407549
100
AcDbArc
 50
247.380375262986
 51
292.6196247369369
  0
LINE
  5
D5
100
AcDbEntity
  8
Blade
  6
ByLayer
 62
  256
370
   -1
100
AcDbLine
 10
1433.416117201771
 20
214.866039195799
 11
1448.416294335557
 21
214.8660391957989
  0
LINE
  5
D6
100
AcDbEntity
  8
Blade
  6
ByLayer
 62
  256
370
   -1
100
AcDbLine
 10
1438.377948653517
 20
205.0000000000069
 11
1395.884639252982
 21
205.0000000000001
  0
ARC
  5
D7
100
AcDbEntity
  8
Blade
  6
ByLayer
 62
  256
370
   -1
100
AcDbCircle
 10
1359.532915555082
 20
-668.7090439532367
 40
898.8933092211386
100
AcDbArc
 50
88.35645792360714
 51
98.90678217718148
  0
LINE
  5
D8
100
AcDbEntity
  8
Blade
  6
ByLayer
 62
  256
370
   -1
100
AcDbLine
 10
1385.856589166132
 20
250.8075489136002
 11
1385.189848168242
 21
224.9951474238441
  0
LINE
  5
D9
100
AcDbEntity
  8
Blade
  6
ByLayer
 62
  256
370
   -1
100
AcDbLine
 10
1239.07906315164
 20
204.3788221930943
 11
1198.338473077475
 21
236.9509651363505
  0
ARC
  5
DA
100
AcDbEntity
  8
Blade
  6
ByLayer
 62
  256
370
   -1
100
AcDbCircle
 10
1359.532915555082
 20
-668.7090439532367
 40
919.8933092211386
100
AcDbArc
 50
88.36019970697629
 51
100.0921402540775
  0
LINE
  5
DB
100
AcDbEntity
  8
Blade
  6
ByLayer
 62
  256
370
   -1
100
AcDbLine
 10
1408.298981988129
 20
214.8660391958005
 11
1418.165021183926
 21
205.0000000000036
  0
LINE
  5
DC
100
AcDbEntity
  8
Blade
  6
ByLayer
 62
  256
370
   -1
100
AcDbLine
 10
1448.298981988129
 20
214.8660391957998
 11
1458.165021183919
 21
205.00000000001
  0
LINE
  5
DD
100
AcDbEntity
  8
Blade
  6
ByLayer
 62
  256
370
   -1
100
AcDbLine
 10
1469.368004500568
 20
214.8660391957994
 11
1459.501965304779
 21
205.0000000000103
  0
LINE
  5
DE
100
AcDbEntity
  8
Blade
  6
ByLayer
 62
  256
370
   -1
100
AcDbLine
 10
1468.29898198813
 20
214.8660391957994
 11
1478.165021183916
 21
205.0000000000133
  0
LINE
  5
DF
100
AcDbEntity
  8
Blade
  6
ByLayer
 62
  256
370
   -1
100
AcDbLine
 10
1489.368004500568
 20
214.8660391957992
 11
1479.501965304782
 21
205.0000000000135
  0
LINE
  5
E0
100
AcDbEntity
  8
Blade
  6
ByLayer
 62
  256
370
   -1
100
AcDbLine
 10
1488.29898198813
 20
214.8660391957992
 11
1493.401746861342
 21
209.7632743225871
  0
LINE
  5
E1
100
AcDbEntity
  8
Blade
  6
ByLayer
 62
  256
370
   -1
100
AcDbLine
 10
1429.270850388809
 20
213.89417079512
 11
1438.165021183922
 21
205.0000000000069
  0
LINE
  5
E2
100
AcDbEntity
  8
Blade
  6
ByLayer
 62
  256
370
   -1
100
AcDbLine
 10
1428.368092080742
 20
213.8661267759735
 11
1419.501965304772
 21
205.0000000000039
  0
LINE
  5
E3
100
AcDbEntity
  8
Blade
  6
ByLayer
 62
  256
370
   -1
100
AcDbLine
 10
1449.104053004333
 20
214.6020876995644
 11
1440.075496414941
 21
205.5735311101729
  0
LINE
  5
E4
100
AcDbEntity
  8
Blade
  6
ByLayer
 62
  256
370
   -1
100
AcDbLine
 10
1493.354298979428
 20
200
 11
1251.568210597524
 21
200.0000000000003
  0
LINE
  5
E5
100
AcDbEntity
  8
Blade
  6
ByLayer
 62
  256
370
   -1
100
AcDbLine
 10
1493.414336819501
 20
212.3538897569824
 11
1493.354298979428
 21
200
  0
LINE
  5
E6
100
AcDbEntity
  8
Blade
  6
ByLayer
 62
  256
370
   -1
100
AcDbLine
 10
1021.993857005385
 20
248.4939661900005
 11
1021.999905395746
 21
250.9999999999999
  0
LINE
  5
E7
100
AcDbEntity
  8
Blade
  6
ByLayer
 62
  256
370
   -1
100
AcDbLine
 10
1021.951958093718
 20
231.1339608042009
 11
1021.957977358504
 21
233.6279269942016
  0
ARC
  5
E8
100
AcDbEntity
  8
Blade
  6
ByLayer
 62
  256
370
   -1
100
AcDbCircle
 10
1019.493864286768
 20
248.4999999999999
 40
2.5
100
AcDbArc
 50
270
 51
359.8617151268077
  0
ARC
  5
E9
100
AcDbEntity
  8
Blade
  6
ByLayer
 62
  256
370
   -1
100
AcDbCircle
 10
1019.457984639887
 20
233.6339608042009
 40
2.5
100
AcDbArc
 50
359.8617151268077
 51
90
  0
ARC
  5
EA
100
AcDbEntity
  8
Blade
  6
ByLayer
 62
  256
370
   -1
100
AcDbCircle
 10
924.4877853357532
 20
243.4999999999999
 40
2.5
100
AcDbArc
 50
90
 51
179.7215542769069
  0
ARC
  5
EB
100
AcDbEntity
  8
Blade
  6
ByLayer
 62
  256
370
   -1
100
AcDbCircle
 10
924.4641371983022
 20
238.6339608042009
 40
2.5
100
AcDbArc
 50
179.7215542769069
 51
270
  0
LINE
  5
EC
100
AcDbEntity
  8
Blade
  6
ByLayer
 62
  256
370
   -1
100
AcDbLine
 10
924.4877853357532
 20
245.9999999999999
 11
942.0001415741289
 21
245.9999999999999
  0
ARC
  5
ED
100
AcDbEntity
  8
Blade
  6
ByLayer
 62
  256
370
   -1
100
AcDbCircle
 10
947.0002006187023
 20
258.0002834157121
 40
13.00028432407617
100
AcDbArc
 50
247.3803752628128
 51
292.619624736852
  0
LINE
  5
EE
100
AcDbEntity
  8
Blade
  6
ByLayer
 62
  256
370
   -1
100
AcDbLine
 10
952.000259663252
 20
246.0000000000001
 11
967.000436797142
 21
245.9999999999998
  0
ARC
  5
EF
100
AcDbEntity
  8
Blade
  6
ByLayer
 62
  256
370
   -1
100
AcDbCircle
 10
972.0004958416586
 20
258.0002834157119
 40
13.00028432407588
100
AcDbArc
 50
247.3803752629619
 51
292.6196247369441
  0
ARC
  5
F0
100
AcDbEntity
  8
Blade
  6
ByLayer
 62
  256
370
   -1
100
AcDbCircle
 10
961.9621501595938
 20
224.1336773884894
 40
13.00028432407549
100
AcDbArc
 50
67.38037526292354
 51
112.6196247369314
  0
LINE
  5
F1
100
AcDbEntity
  8
Blade
  6
ByLayer
 62
  256
370
   -1
100
AcDbLine
 10
931.9617958920309
 20
236.1339608042008
 11
924.4641371983022
 21
236.1339608042009
  0
ARC
  5
F2
100
AcDbEntity
  8
Blade
  6
ByLayer
 62
  256
370
   -1
100
AcDbCircle
 10
936.9618549366373
 20
224.1336773884883
 40
13.00028432407645
100
AcDbArc
 50
67.38037526296354
 51
112.6196247373399
  0
LINE
  5
F3
100
AcDbEntity
  8
Blade
  6
ByLayer
 62
  256
370
   -1
100
AcDbLine
 10
956.9620911150247
 20
236.133960804201
 11
941.9619139812326
 21
236.1339608042008
  0
ARC
  5
F4
100
AcDbEntity
  8
Blade
  6
ByLayer
 62
  256
370
   -1
100
AcDbCircle
 10
1163.810292942226
 20
230.9999999999999
 40
20
100
AcDbArc
 50
51.35762890283145
 51
90
  0
LINE
  5
F5
100
AcDbEntity
  8
Blade
  6
ByLayer
 62
  256
370
   -1
100
AcDbLine
 10
1025.19032254291
 20
231.1339608042009
 11
1021.951958093718
 21
231.1339608042009
  0
ARC
  5
F6
100
AcDbEntity
  8
Blade
  6
ByLayer
 62
  256
370
   -1
100
AcDbCircle
 10
1025.19032254291
 20
226.1339608042009
 40
5
100
AcDbArc
 50
358.5203642291028
 51
90
  0
LINE
  5
F7
100
AcDbEntity
  8
Blade
  6
ByLayer
 62
  256
370
   -1
100
AcDbLine
 10
1019.457984639887
 20
236.1339608042009
 11
991.9625044271378
 21
236.1339608042021
  0
ARC
  5
F8
100
AcDbEntity
  8
Blade
  6
ByLayer
 62
  256
370
   -1
100
AcDbCircle
 10
986.9624453825501
 20
224.1336773884894
 40
13.00028432407549
100
AcDbArc
 50
67.38037526298605
 51
112.619624736937
  0
LINE
  5
F9
100
AcDbEntity
  8
Blade
  6
ByLayer
 62
  256
370
   -1
100
AcDbLine
 10
981.9623863379796
 20
236.1339608042011
 11
966.9622092041934
 21
236.1339608042012
  0
LINE
  5
FA
100
AcDbEntity
  8
Blade
  6
ByLayer
 62
  256
370
   -1
100
AcDbLine
 10
977.0005548862338
 20
245.9999999999931
 11
1019.493864286768
 21
245.9999999999999
  0
ARC
  5
FB
100
AcDbEntity
  8
Blade
  6
ByLayer
 62
  256
370
   -1
100
AcDbCircle
 10
1055.845587984668
 20
1119.709043953237
 40
898.8933092211386
100
AcDbArc
 50
268.3564579236071
 51
278.9067821771814
  0
LINE
  5
FC
100
AcDbEntity
  8
Blade
  6
ByLayer
 62
  256
370
   -1
100
AcDbLine
 10
1029.521914373618
 20
200.1924510863998
 11
1030.188655371509
 21
226.0048525761559
  0
LINE
  5
FD
100
AcDbEntity
  8
Blade
  6
ByLayer
 62
  256
370
   -1
100
AcDbLine
 10
1176.29944038811
 20
246.6211778069058
 11
1217.040030462276
 21
214.0490348636496
  0
ARC
  5
FE
100
AcDbEntity
  8
Blade
  6
ByLayer
 62
  256
370
   -1
100
AcDbCircle
 10
1055.845587984668
 20
1119.709043953237
 40
919.8933092211386
100
AcDbArc
 50
268.3601997069763
 51
280.0921402540775
  0
LINE
  5
FF
100
AcDbEntity
  8
Blade
  6
ByLayer
 62
  256
370
   -1
100
AcDbLine
 10
1007.079521551621
 20
236.1339608041996
 11
997.2134823558246
 21
245.9999999999964
  0
LINE
  5
100
100
AcDbEntity
  8
Blade
  6
ByLayer
 62
  256
370
   -1
100
AcDbLine
 10
967.0795215516209
 20
236.1339608042002
 11
957.213482355831
 21
245.99999999999
  0
LINE
  5
101
100
AcDbEntity
  8
Blade
  6
ByLayer
 62
  256
370
   -1
100
AcDbLine
 10
946.0104990391826
 20
236.1339608042006
 11
955.8765382349717
 21
245.9999999999897
  0
LINE
  5
102
100
AcDbEntity
  8
Blade
  6
ByLayer
 62
  256
370
   -1
100
AcDbLine
 10
947.0795215516206
 20
236.1339608042005
 11
937.2134823558343
 21
245.9999999999867
  0
LINE
  5
103
100
AcDbEntity
  8
Blade
  6
ByLayer
 62
  256
370
   -1
100
AcDbLine
 10
926.0104990391827
 20
236.1339608042008
 11
935.8765382349684
 21
245.9999999999865
  0
LINE
  5
104
100
AcDbEntity
  8
Blade
  6
ByLayer
 62
  256
370
   -1
100
AcDbLine
 10
927.0795215516204
 20
236.1339608042008
 11
921.9767566784082
 21
241.2367256774129
  0
LINE
  5
105
100
AcDbEntity
  8
Blade
  6
ByLayer
 62
  256
370
   -1
100
AcDbLine
 10
986.1076531509411
 20
237.1058292048801
 11
977.2134823558282
 21
245.9999999999931
  0
LINE
  5
106
100
AcDbEntity
  8
Blade
  6
ByLayer
 62
  256
370
   -1
100
AcDbLine
 10
987.0104114590084
 20
237.1338732240265
 11
995.8765382349781
 21
245.9999999999961
  0
LINE
  5
107
100
AcDbEntity
  8
Blade
  6
ByLayer
 62
  256
370
   -1
100
AcDbLine
 10
966.2744505354175
 20
236.3979123004355
 11
975.303007124809
 21
245.4264688898271
  0
LINE
  5
108
100
AcDbEntity
  8
Blade
  6
ByLayer
 62
  256
370
   -1
100
AcDbLine
 10
922.0242045603227
 20
251
 11
1163.810292942226
 21
250.9999999999998
  0
LINE
  5
109
100
AcDbEntity
  8
Blade
  6
ByLayer
 62
  256
370
   -1
100
AcDbLine
 10
921.9641667202491
 20
238.6461102430176
 11
922.0242045603227
 21
251
  0
LINE
  5
10A
100
AcDbEntity
  8
Blade
  6
ByLayer
 62
  256
370
   -1
100
AcDbLine
 10
895.0461734568905
 20
65.55506867364903
 11
895.0401250665296
 21
63.04903486364964
  0
LINE
  5
10B
100
AcDbEntity
  8
Blade
  6
ByLayer
 62
  256
370
   -1
100
AcDbLine
 10
895.0880723685574
 20
82.91507405944861
 11
895.0820531037718
 21
80.42110786944789
  0
ARC
  5
10C
100
AcDbEntity
  8
Blade
  6
ByLayer
 62
  256
370
   -1
100
AcDbCircle
 10
897.5461661755073
 20
65.54903486364964
 40
2.5
100
AcDbArc
 50
90
 51
179.8617151268078
  0
ARC
  5
10D
100
AcDbEntity
  8
Blade
  6
ByLayer
 62
  256
370
   -1
100
AcDbCircle
 10
897.5820458223886
 20
80.41507405944861
 40
2.5
100
AcDbArc
 50
179.8617151268078
 51
270
  0
ARC
  5
10E
100
AcDbEntity
  8
Blade
  6
ByLayer
 62
  256
370
   -1
100
AcDbCircle
 10
992.5522451265223
 20
70.54903486364964
 40
2.5
100
AcDbArc
 50
270
 51
359.7215542769069
  0
ARC
  5
10F
100
AcDbEntity
  8
Blade
  6
ByLayer
 62
  256
370
   -1
100
AcDbCircle
 10
992.5758932639733
 20
75.41507405944861
 40
2.5
100
AcDbArc
 50
359.7215542769069
 51
90
  0
LINE
  5
110
100
AcDbEntity
  8
Blade
  6
ByLayer
 62
  256
370
   -1
100
AcDbLine
 10
992.5522451265223
 20
68.04903486364964
 11
975.0398888881466
 21
68.04903486364964
  0
ARC
  5
111
100
AcDbEntity
  8
Blade
  6
ByLayer
 62
  256
370
   -1
100
AcDbCircle
 10
970.0398298435732
 20
56.04875144793738
 40
13.00028432407617
100
AcDbArc
 50
67.38037526281281
 51
112.619624736852
  0
LINE
  5
112
100
AcDbEntity
  8
Blade
  6
ByLayer
 62
  256
370
   -1
100
AcDbLine
 10
965.0397707990235
 20
68.04903486364941
 11
950.0395936651335
 21
68.04903486364975
  0
ARC
  5
113
100
AcDbEntity
  8
Blade
  6
ByLayer
 62
  256
370
   -1
100
AcDbCircle
 10
945.0395346206169
 20
56.0487514479376
 40
13.00028432407588
100
AcDbArc
 50
67.38037526296192
 51
112.6196247369441
  0
ARC
  5
114
100
AcDbEntity
  8
Blade
  6
ByLayer
 62
  256
370
   -1
100
AcDbCircle
 10
955.0778803026817
 20
89.91535747516008
 40
13.00028432407549
100
AcDbArc
 50
247.3803752629235
 51
292.6196247369314
  0
LINE
  5
115
100
AcDbEntity
  8
Blade
  6
ByLayer
 62
  256
370
   -1
100
AcDbLine
 10
985.0782345702446
 20
77.91507405944873
 11
992.5758932639733
 21
77.91507405944861
  0
ARC
  5
116
100
AcDbEntity
  8
Blade
  6
ByLayer
 62
  256
370
   -1
100
AcDbCircle
 10
980.0781755256381
 20
89.91535747516122
 40
13.00028432407645
100
AcDbArc
 50
247.3803752629636
 51
292.6196247373399
  0
LINE
  5
117
100
AcDbEntity
  8
Blade
  6
ByLayer
 62
  256
370
   -1
100
AcDbLine
 10
960.0779393472508
 20
77.9150740594485
 11
975.0781164810429
 21
77.91507405944873
  0
ARC
  5
118
100
AcDbEntity
  8
Blade
  6
ByLayer
 62
  256
370
   -1
100
AcDbCircle
 10
753.229737520049
 20
83.04903486364964
 40
20
100
AcDbArc
 50
231.3576289028314
 51
270
  0
LINE
  5
119
100
AcDbEntity
  8
Blade
  6
ByLayer
 62
  256
370
   -1
100
AcDbLine
 10
891.849707919366
 20
82.91507405944861
 11
895.0880723685574
 21
82.91507405944861
  0
ARC
  5
11A
100
AcDbEntity
  8
Blade
  6
ByLayer
 62
  256
370
   -1
100
AcDbCircle
 10
891.849707919366
 20
87.91507405944861
 40
5
100
AcDbArc
 50
178.5203642291027
 51
270
  0
LINE
  5
11B
100
AcDbEntity
  8
Blade
  6
ByLayer
 62
  256
370
   -1
100
AcDbLine
 10
897.5820458223886
 20
77.91507405944861
 11
925.0775260351377
 21
77.91507405944736
  0
ARC
  5
11C
100
AcDbEntity
  8
Blade
  6
ByLayer
 62
  256
370
   -1
100
AcDbCircle
 10
930.0775850797254
 20
89.91535747516008
 40
13.00028432407549
100
AcDbArc
 50
247.380375262986
 51
292.6196247369369
  0
LINE
  5
11D
100
AcDbEntity
  8
Blade
  6
ByLayer
 62
  256
370
   -1
100
AcDbLine
 10
935.0776441242958
 20
77.9150740594485
 11
950.0778212580821
 21
77.91507405944839
  0
LINE
  5
11E
100
AcDbEntity
  8
Blade
  6
ByLayer
 62
  256
370
   -1
100
AcDbLine
 10
940.0394755760417
 20
68.04903486365646
 11
897.5461661755073
 21
68.04903486364964
  0
ARC
  5
11F
100
AcDbEntity
  8
Blade
  6
ByLayer
 62
  256
370
   -1
100
AcDbCircle
 10
861.1944424776074
 20
-805.6600090895872
 40
898.8933092211386
100
AcDbArc
 50
88.35645792360714
 51
98.90678217718148
  0
LINE
  5
120
100
AcDbEntity
  8
Blade
  6
ByLayer
 62
  256
370
   -1
100
AcDbLine
 10
887.5181160886573
 20
113.8565837772497
 11
886.851375090767
 21
88.04418228749358
  0
LINE
  5
121
100
AcDbEntity
  8
Blade
  6
ByLayer
 62
  256
370
   -1
100
AcDbLine
 10
740.7405900741649
 20
67.42785705674385
 11
700
 21
100
  0
ARC
  5
122
100
AcDbEntity
  8
Blade
  6
ByLayer
 62
  256
370
   -1
100
AcDbCircle
 10
861.1944424776074
 20
-805.6600090895872
 40
919.8933092211386
100
AcDbArc
 50
88.36019970697629
 51
100.0921402540775
  0
LINE
  5
123
100
AcDbEntity
  8
Blade
  6
ByLayer
 62
  256
370
   -1
100
AcDbLine
 10
909.9605089106541
 20
77.91507405944998
 11
919.8265481064509
 21
68.04903486365316
  0
LINE
  5
124
100
AcDbEntity
  8
Blade
  6
ByLayer
 62
  256
370
   -1
100
AcDbLine
 10
949.9605089106545
 20
77.9150740594493
 11
959.8265481064444
 21
68.04903486365953
  0
LINE
  5
125
100
AcDbEntity
  8
Blade
  6
ByLayer
 62
  256
370
   -1
100
AcDbLine
 10
971.0295314230929
 20
77.91507405944895
 11
961.1634922273038
 21
68.04903486365987
  0
LINE
  5
126
100
AcDbEntity
  8
Blade
  6
ByLayer
 62
  256
370
   -1
100
AcDbLine
 10
969.9605089106549
 20
77.91507405944895
 11
979.8265481064411
 21
68.04903486366283
  0
LINE
  5
127
100
AcDbEntity
  8
Blade
  6
ByLayer
 62
  256
370
   -1
100
AcDbLine
 10
991.0295314230927
 20
77.91507405944873
 11
981.1634922273071
 21
68.04903486366305
  0
LINE
  5
128
100
AcDbEntity
  8
Blade
  6
ByLayer
 62
  256
370
   -1
100
AcDbLine
 10
989.9605089106551
 20
77.91507405944873
 11
995.0632737838673
 21
72.81230918623663
  0
LINE
  5
129
100
AcDbEntity
  8
Blade
  6
ByLayer
 62
  256
370
   -1
100
AcDbLine
 10
930.9323773113343
 20
76.9432056587695
 11
939.8265481064473
 21
68.04903486365646
  0
LINE
  5
12A
100
AcDbEntity
  8
Blade
  6
ByLayer
 62
  256
370
   -1
100
AcDbLine
 10
930.029619003267
 20
76.91516163962302
 11
921.1634922272974
 21
68.04903486365339
  0
LINE
  5
12B
100
AcDbEntity
  8
Blade
  6
ByLayer
 62
  256
370
   -1
100
AcDbLine
 10
950.765579926858
 20
77.65112256321396
 11
941.7370233374664
 21
68.62256597382242
  0
LINE
  5
12C
100
AcDbEntity
  8
Blade
  6
ByLayer
 62
  256
370
   -1
100
AcDbLine
 10
995.0158259019528
 20
63.04903486364952
 11
753.229737520049
 21
63.04903486364981
  0
LINE
  5
12D
100
AcDbEntity
  8
Blade
  6
ByLayer
 62
  256
370
   -1
100
AcDbLine
 10
995.0758637420264
 20
75.40292462063195
 11
995.0158259019528
 21
63.04903486364952
  0
LINE
  5
12E
100
AcDbEntity
  8
Blade
  6
ByLayer
 62
  256
370
   -1
100
AcDbLine
 10
1020.533802369029
 20
111.54300105365
 11
1020.53985075939
 21
114.0490348636494
  0
LINE
  5
12F
100
AcDbEntity
  8
Blade
  6
ByLayer
 62
  256
370
   -1
100
AcDbLine
 10
1020.491903457362
 20
94.18299566785041
 11
1020.497922722148
 21
96.67696185785113
  0
ARC
  5
130
100
AcDbEntity
  8
Blade
  6
ByLayer
 62
  256
370
   -1
100
AcDbCircle
 10
1018.033809650413
 20
111.5490348636494
 40
2.5
100
AcDbArc
 50
270
 51
359.8617151268077
  0
ARC
  5
131
100
AcDbEntity
  8
Blade
  6
ByLayer
 62
  256
370
   -1
100
AcDbCircle
 10
1017.997930003531
 20
96.68299566785041
 40
2.5
100
AcDbArc
 50
359.8617151268077
 51
90
  0
ARC
  5
132
100
AcDbEntity
  8
Blade
  6
ByLayer
 62
  256
370
   -1
100
AcDbCircle
 10
923.0277306993976
 20
106.5490348636494
 40
2.5
100
AcDbArc
 50
90
 51
179.7215542769069
  0
ARC
  5
133
100
AcDbEntity
  8
Blade
  6
ByLayer
 62
  256
370
   -1
100
AcDbCircle
 10
923.0040825619466
 20
101.6829956678504
 40
2.5
100
AcDbArc
 50
179.7215542769069
 51
270
  0
LINE
  5
134
100
AcDbEntity
  8
Blade
  6
ByLayer
 62
  256
370
   -1
100
AcDbLine
 10
923.0277306993976
 20
109.0490348636494
 11
940.5400869377733
 21
109.0490348636494
  0
ARC
  5
135
100
AcDbEntity
  8
Blade
  6
ByLayer
 62
  256
370
   -1
100
AcDbCircle
 10
945.5401459823466
 20
121.0493182793617
 40
13.00028432407617
100
AcDbArc
 50
247.3803752628128
 51
292.619624736852
  0
LINE
  5
136
100
AcDbEntity
  8
Blade
  6
ByLayer
 62
  256
370
   -1
100
AcDbLine
 10
950.5402050268964
 20
109.0490348636496
 11
965.5403821607864
 21
109.0490348636493
  0
ARC
  5
137
100
AcDbEntity
  8
Blade
  6
ByLayer
 62
  256
370
   -1
100
AcDbCircle
 10
970.540441205303
 20
121.0493182793614
 40
13.00028432407588
100
AcDbArc
 50
247.3803752629619
 51
292.6196247369441
  0
ARC
  5
138
100
AcDbEntity
  8
Blade
  6
ByLayer
 62
  256
370
   -1
100
AcDbCircle
 10
960.5020955232382
 20
87.18271225213894
 40
13.00028432407549
100
AcDbArc
 50
67.38037526292354
 51
112.6196247369314
  0
LINE
  5
139
100
AcDbEntity
  8
Blade
  6
ByLayer
 62
  256
370
   -1
100
AcDbLine
 10
930.5017412556753
 20
99.18299566785029
 11
923.0040825619466
 21
99.18299566785041
  0
ARC
  5
13A
100
AcDbEntity
  8
Blade
  6
ByLayer
 62
  256
370
   -1
100
AcDbCircle
 10
935.5018003002817
 20
87.1827122521378
 40
13.00028432407645
100
AcDbArc
 50
67.38037526296354
 51
112.6196247373399
  0
LINE
  5
13B
100
AcDbEntity
  8
Blade
  6
ByLayer
 62
  256
370
   -1
100
AcDbLine
 10
955.5020364786691
 20
99.18299566785052
 11
940.5018593448769
 21
99.18299566785029
  0
ARC
  5
13C
100
AcDbEntity
  8
Blade
  6
ByLayer
 62
  256
370
   -1
100
AcDbCircle
 10
1162.350238305871
 20
94.04903486364944
 40
20
100
AcDbArc
 50
51.35762890283145
 51
90
  0
LINE
  5
13D
100
AcDbEntity
  8
Blade
  6
ByLayer
 62
  256
370
   -1
100
AcDbLine
 10
1023.730267906554
 20
94.18299566785041
 11
1020.491903457362
 21
94.18299566785041
  0
ARC
  5
13E
100
AcDbEntity
  8
Blade
  6
ByLayer
 62
  256
370
   -1
100
AcDbCircle
 10
1023.730267906554
 20
89.18299566785046
 40
5
100
AcDbArc
 50
358.5203642291028
 51
90
  0
LINE
  5
13F
100
AcDbEntity
  8
Blade
  6
ByLayer
 62
  256
370
   -1
100
AcDbLine
 10
1017.997930003531
 20
99.18299566785041
 11
990.5024497907822
 21
99.18299566785166
  0
ARC
  5
140
100
AcDbEntity
  8
Blade
  6
ByLayer
 62
  256
370
   -1
100
AcDbCircle
 10
985.5023907461945
 20
87.18271225213894
 40
13.00028432407549
100
AcDbArc
 50
67.38037526298605
 51
112.619624736937
  0
LINE
  5
141
100
AcDbEntity
  8
Blade
  6
ByLayer
 62
  256
370
   -1
100
AcDbLine
 10
980.502331701624
 20
99.18299566785058
 11
965.5021545678378
 21
99.18299566785069
  0
LINE
  5
142
100
AcDbEntity
  8
Blade
  6
ByLayer
 62
  256
370
   -1
100
AcDbLine
 10
975.5405002498782
 20
109.0490348636426
 11
1018.033809650413
 21
109.0490348636494
  0
ARC
  5
143
100
AcDbEntity
  8
Blade
  6
ByLayer
 62
  256
370
   -1
100
AcDbCircle
 10
1054.385533348312
 20
982.7580788168862
 40
898.8933092211386
100
AcDbArc
 50
268.3564579236071
 51
278.9067821771814
  0
LINE
  5
144
100
AcDbEntity
  8
Blade
  6
ByLayer
 62
  256
370
   -1
100
AcDbLine
 10
1028.061859737262
 20
63.24148595004934
 11
1028.728600735153
 21
89.05388743980544
  0
LINE
  5
145
100
AcDbEntity
  8
Blade
  6
ByLayer
 62
  256
370
   -1
100
AcDbLine
 10
1174.839385751755
 20
109.6702126705553
 11
1215.57997582592
 21
77.09806972729908
  0
ARC
  5
146
100
AcDbEntity
  8
Blade
  6
ByLayer
 62
  256
370
   -1
100
AcDbCircle
 10
1054.385533348312
 20
982.7580788168862
 40
919.8933092211386
100
AcDbArc
 50
268.3601997069763
 51
280.0921402540775
  0
LINE
  5
147
100
AcDbEntity
  8
Blade
  6
ByLayer
 62
  256
370
   -1
100
AcDbLine
 10
1005.619466915266
 20
99.1829956678491
 11
995.753427719469
 21
109.0490348636459
  0
LINE
  5
148
100
AcDbEntity
  8
Blade
  6
ByLayer
 62
  256
370
   -1
100
AcDbLine
 10
965.6194669152653
 20
99.18299566784972
 11
955.7534277194754
 21
109.0490348636395
  0
LINE
  5
149
100
AcDbEntity
  8
Blade
  6
ByLayer
 62
  256
370
   -1
100
AcDbLine
 10
944.550444402827
 20
99.18299566785012
 11
954.4164835986161
 21
109.0490348636392
  0
LINE
  5
14A
100
AcDbEntity
  8
Blade
  6
ByLayer
 62
  256
370
   -1
100
AcDbLine
 10
945.619466915265
 20
99.18299566785007
 11
935.7534277194787
 21
109.0490348636362
  0
LINE
  5
14B
100
AcDbEntity
  8
Blade
  6
ByLayer
 62
  256
370
   -1
100
AcDbLine
 10
924.5504444028271
 20
99.18299566785035
 11
934.4164835986128
 21
109.049034863636
  0
LINE
  5
14C
100
AcDbEntity
  8
Blade
  6
ByLayer
 62
  256
370
   -1
100
AcDbLine
 10
925.6194669152648
 20
99.18299566785035
 11
920.5167020420525
 21
104.2857605410624
  0
LINE
  5
14D
100
AcDbEntity
  8
Blade
  6
ByLayer
 62
  256
370
   -1
100
AcDbLine
 10
984.6475985145855
 20
100.1548640685296
 11
975.7534277194726
 21
109.0490348636426
  0
LINE
  5
14E
100
AcDbEntity
  8
Blade
  6
ByLayer
 62
  256
370
   -1
100
AcDbLine
 10
985.5503568226528
 20
100.182908087676
 11
994.4164835986224
 21
109.0490348636456
  0
LINE
  5
14F
100
AcDbEntity
  8
Blade
  6
ByLayer
 62
  256
370
   -1
100
AcDbLine
 10
964.8143958990619
 20
99.44694716408506
 11
973.8429524884534
 21
108.4755037534766
  0
LINE
  5
150
100
AcDbEntity
  8
Blade
  6
ByLayer
 62
  256
370
   -1
100
AcDbLine
 10
920.5641499239671
 20
114.0490348636495
 11
1162.350238305871
 21
114.0490348636493
  0
LINE
  5
151
100
AcDbEntity
  8
Blade
  6
ByLayer
 62
  256
370
   -1
100
AcDbLine
 10
920.5041120838935
 20
101.6951451066671
 11
920.5641499239671
 21
114.0490348636495
  0
MTEXT
  5
152
100
AcDbEntity
  8
Damascus aihio 51x2.6x1000
  6
ByLayer
 62
  256
370
   -1
100
AcDbMText
 10
700
 20
270
 30
0
 40
5
 41
79.72222736509552
 71
    1
 72
    1
  1
Damascus RWL34 MART\P51*2.6*1000
  7
standard
210
0
220
0
230
1
 50
0
 73
    2
 44
1
  0
ENDBLK
  5
51
330
4F
100
AcDbEntity
  8
0
100
AcDbBlockEnd
  0
ENDSEC
  0
SECTION
  2
ENTITIES
  0
LINE
  5
153
100
AcDbEntity
  8
Damascus aihio 51x2.6x1000
  6
ByLayer
 62
  256
370
   -1
100
AcDbLine
 10
-50
 20
-140
 11
950
 21
-140
  0
LINE
  5
154
100
AcDbEntity
  8
Damascus aihio 51x2.6x1000
  6
ByLayer
 62
  256
370
   -1
100
AcDbLine
 10
-50
 20
-140
 11
-50
 21
-89
  0
LINE
  5
155
100
AcDbEntity
  8
Damascus aihio 51x2.6x1000
  6
ByLayer
 62
  256
370
   -1
100
AcDbLine
 10
-50
 20
-89
 11
950
 21
-89
  0
LINE
  5
156
100
AcDbEntity
  8
Damascus aihio 51x2.6x1000
  6
ByLayer
 62
  256
370
   -1
100
AcDbLine
 10
950
 20
-140
 11
950
 21
-90
  0
LINE
  5
157
100
AcDbEntity
  8
Blade
  6
ByLayer
 62
  256
370
   -1
100
AcDbLine
 10
146.5062280932461
 20
-137.4939661900005
 11
146.5001797028849
 21
-139.9999999999999
  0
LINE
  5
158
100
AcDbEntity
  8
Blade
  6
ByLayer
 62
  256
370
   -1
100
AcDbLine
 10
146.5481270049131
 20
-120.1339608042009
 11
146.542107740127
 21
-122.6279269942016
  0
ARC
  5
159
100
AcDbEntity
  8
Blade
  6
ByLayer
 62
  256
370
   -1
100
AcDbCircle
 10
149.0062208118629
 20
-137.4999999999999
 40
2.5
100
AcDbArc
 50
90
 51
179.8617151268078
  0
ARC
  5
15A
100
AcDbEntity
  8
Blade
  6
ByLayer
 62
  256
370
   -1
100
AcDbCircle
 10
149.0421004587438
 20
-122.6339608042009
 40
2.5
100
AcDbArc
 50
179.8617151268078
 51
270
  0
ARC
  5
15B
100
AcDbEntity
  8
Blade
  6
ByLayer
 62
  256
370
   -1
100
AcDbCircle
 10
244.0122997628778
 20
-132.4999999999999
 40
2.5
100
AcDbArc
 50
270
 51
359.7215542769069
  0
ARC
  5
15C
100
AcDbEntity
  8
Blade
  6
ByLayer
 62
  256
370
   -1
100
AcDbCircle
 10
244.0359479003291
 20
-127.6339608042009
 40
2.5
100
AcDbArc
 50
359.7215542769069
 51
90
  0
LINE
  5
15D
100
AcDbEntity
  8
Blade
  6
ByLayer
 62
  256
370
   -1
100
AcDbLine
 10
244.0122997628778
 20
-134.9999999999999
 11
226.4999435245022
 21
-134.9999999999999
  0
ARC
  5
15E
100
AcDbEntity
  8
Blade
  6
ByLayer
 62
  256
370
   -1
100
AcDbCircle
 10
221.4998844799288
 20
-147.0002834157121
 40
13.00028432407617
100
AcDbArc
 50
67.38037526281281
 51
112.619624736852
  0
LINE
  5
15F
100
AcDbEntity
  8
Blade
  6
ByLayer
 62
  256
370
   -1
100
AcDbLine
 10
216.4998254353791
 20
-135.0000000000001
 11
201.4996483014888
 21
-134.9999999999998
  0
ARC
  5
160
100
AcDbEntity
  8
Blade
  6
ByLayer
 62
  256
370
   -1
100
AcDbCircle
 10
196.4995892569718
 20
-147.0002834157119
 40
13.00028432407588
100
AcDbArc
 50
67.38037526296192
 51
112.6196247369441
  0
ARC
  5
161
100
AcDbEntity
  8
Blade
  6
ByLayer
 62
  256
370
   -1
100
AcDbCircle
 10
206.5379349390369
 20
-113.1336773884894
 40
13.00028432407549
100
AcDbArc
 50
247.3803752629235
 51
292.6196247369314
  0
LINE
  5
162
100
AcDbEntity
  8
Blade
  6
ByLayer
 62
  256
370
   -1
100
AcDbLine
 10
236.5382892066
 20
-125.1339608042008
 11
244.0359479003291
 21
-125.1339608042009
  0
ARC
  5
163
100
AcDbEntity
  8
Blade
  6
ByLayer
 62
  256
370
   -1
100
AcDbCircle
 10
231.5382301619939
 20
-113.1336773884883
 40
13.00028432407645
100
AcDbArc
 50
247.3803752629636
 51
292.6196247373399
  0
LINE
  5
164
100
AcDbEntity
  8
Blade
  6
ByLayer
 62
  256
370
   -1
100
AcDbLine
 10
211.5379939836071
 20
-125.133960804201
 11
226.5381711173991
 21
-125.1339608042008
  0
ARC
  5
165
100
AcDbEntity
  8
Blade
  6
ByLayer
 62
  256
370
   -1
100
AcDbCircle
 10
4.689792156405019
 20
-119.9999999999999
 40
20
100
AcDbArc
 50
231.3576289028314
 51
270
  0
LINE
  5
166
100
AcDbEntity
  8
Blade
  6
ByLayer
 62
  256
370
   -1
100
AcDbLine
 10
143.309762555722
 20
-120.1339608042009
 11
146.5481270049131
 21
-120.1339608042009
  0
ARC
  5
167
100
AcDbEntity
  8
Blade
  6
ByLayer
 62
  256
370
   -1
100
AcDbCircle
 10
143.309762555722
 20
-115.1339608042009
 40
5
100
AcDbArc
 50
178.5203642291027
 51
270
  0
LINE
  5
168
100
AcDbEntity
  8
Blade
  6
ByLayer
 62
  256
370
   -1
100
AcDbLine
 10
149.0421004587438
 20
-125.1339608042009
 11
176.5375806714928
 21
-125.1339608042022
  0
ARC
  5
169
100
AcDbEntity
  8
Blade
  6
ByLayer
 62
  256
370
   -1
100
AcDbCircle
 10
181.5376397160808
 20
-113.1336773884894
 40
13.00028432407549
100
AcDbArc
 50
247.380375262986
 51
292.6196247369369
  0
LINE
  5
16A
100
AcDbEntity
  8
Blade
  6
ByLayer
 62
  256
370
   -1
100
AcDbLine
 10
186.537698760651
 20
-125.133960804201
 11
201.537875894438
 21
-125.1339608042011
  0
LINE
  5
16B
100
AcDbEntity
  8
Blade
  6
ByLayer
 62
  256
370
   -1
100
AcDbLine
 10
191.4995302123971
 20
-134.9999999999931
 11
149.0062208118629
 21
-134.9999999999999
  0
ARC
  5
16C
100
AcDbEntity
  8
Blade
  6
ByLayer
 62
  256
370
   -1
100
AcDbCircle
 10
112.6544971139629
 20
-1008.709043953237
 40
898.8933092211386
100
AcDbArc
 50
88.35645792360714
 51
98.90678217718148
  0
LINE
  5
16D
100
AcDbEntity
  8
Blade
  6
ByLayer
 62
  256
370
   -1
100
AcDbLine
 10
138.9781707250131
 20
-89.19245108639981
 11
138.3114297271231
 21
-115.0048525761559
  0
LINE
  5
16E
100
AcDbEntity
  8
Blade
  6
ByLayer
 62
  256
370
   -1
100
AcDbLine
 10
-7.79935528947999
 20
-135.6211778069057
 11
-48.53994536364507
 21
-103.0490348636495
  0
ARC
  5
16F
100
AcDbEntity
  8
Blade
  6
ByLayer
 62
  256
370
   -1
100
AcDbCircle
 10
112.6544971139629
 20
-1008.709043953237
 40
919.8933092211386
100
AcDbArc
 50
88.36019970697629
 51
100.0921402540775
  0
LINE
  5
170
100
AcDbEntity
  8
Blade
  6
ByLayer
 62
  256
370
   -1
100
AcDbLine
 10
161.4205635470098
 20
-125.1339608041995
 11
171.2866027428058
 21
-134.9999999999964
  0
LINE
  5
171
100
AcDbEntity
  8
Blade
  6
ByLayer
 62
  256
370
   -1
100
AcDbLine
 10
201.4205635470098
 20
-125.1339608042002
 11
211.2866027427999
 21
-134.99999999999
  0
LINE
  5
172
100
AcDbEntity
  8
Blade
  6
ByLayer
 62
  256
370
   -1
100
AcDbLine
 10
222.4895860594479
 20
-125.1339608042006
 11
212.6235468636601
 21
-134.9999999999897
  0
LINE
  5
173
100
AcDbEntity
  8
Blade
  6
ByLayer
 62
  256
370
   -1
100
AcDbLine
 10
221.4205635470112
 20
-125.1339608042006
 11
231.2866027427972
 21
-134.9999999999867
  0
LINE
  5
174
100
AcDbEntity
  8
Blade
  6
ByLayer
 62
  256
370
   -1
100
AcDbLine
 10
242.4895860594479
 20
-125.1339608042008
 11
232.6235468636628
 21
-134.9999999999865
  0
LINE
  5
175
100
AcDbEntity
  8
Blade
  6
ByLayer
 62
  256
370
   -1
100
AcDbLine
 10
241.4205635470112
 20
-125.1339608042008
 11
246.5233284202232
 21
-130.2367256774129
  0
LINE
  5
176
100
AcDbEntity
  8
Blade
  6
ByLayer
 62
  256
370
   -1
100
AcDbLine
 10
182.3924319476901
 20
-126.10582920488
 11
191.2866027428031
 21
-134.9999999999931
  0
LINE
  5
177
100
AcDbEntity
  8
Blade
  6
ByLayer
 62
  256
370
   -1
100
AcDbLine
 10
181.4896736396231
 20
-126.1338732240265
 11
172.6235468636528
 21
-134.9999999999961
  0
LINE
  5
178
100
AcDbEntity
  8
Blade
  6
ByLayer
 62
  256
370
   -1
100
AcDbLine
 10
202.225634563214
 20
-125.3979123004356
 11
193.1970779738222
 21
-134.4264688898271
  0
LINE
  5
179
100
AcDbEntity
  8
Blade
  6
ByLayer
 62
  256
370
   -1
100
AcDbLine
 10
246.475880538309
 20
-140
 11
4.689792156405019
 21
-139.9999999999997
  0
LINE
  5
17A
100
AcDbEntity
  8
Blade
  6
ByLayer
 62
  256
370
   -1
100
AcDbLine
 10
246.5359183783821
 20
-127.6461102430176
 11
246.475880538309
 21
-140
  0
LINE
  5
17B
100
AcDbEntity
  8
Blade
  6
ByLayer
 62
  256
370
   -1
100
AcDbLine
 10
643.3846465343649
 20
-137.4939661900005
 11
643.3785981440042
 21
-139.9999999999999
  0
LINE
  5
17C
100
AcDbEntity
  8
Blade
  6
ByLayer
 62
  256
370
   -1
100
AcDbLine
 10
643.4265454460319
 20
-120.1339608042009
 11
643.4205261812472
 21
-122.6279269942016
  0
ARC
  5
17D
100
AcDbEntity
  8
Blade
  6
ByLayer
 62
  256
370
   -1
100
AcDbCircle
 10
645.8846392529822
 20
-137.4999999999999
 40
2.5
100
AcDbArc
 50
90
 51
179.8617151268078
  0
ARC
  5
17E
100
AcDbEntity
  8
Blade
  6
ByLayer
 62
  256
370
   -1
100
AcDbCircle
 10
645.920518899864
 20
-122.6339608042009
 40
2.5
100
AcDbArc
 50
179.8617151268078
 51
270
  0
ARC
  5
17F
100
AcDbEntity
  8
Blade
  6
ByLayer
 62
  256
370
   -1
100
AcDbCircle
 10
740.890718203997
 20
-132.4999999999999
 40
2.5
100
AcDbArc
 50
270
 51
359.7215542769069
  0
ARC
  5
180
100
AcDbEntity
  8
Blade
  6
ByLayer
 62
  256
370
   -1
100
AcDbCircle
 10
740.9143663414479
 20
-127.6339608042009
 40
2.5
100
AcDbArc
 50
359.7215542769069
 51
90
  0
LINE
  5
181
100
AcDbEntity
  8
Blade
  6
ByLayer
 62
  256
370
   -1
100
AcDbLine
 10
740.890718203997
 20
-134.9999999999999
 11
723.378361965621
 21
-134.9999999999999
  0
ARC
  5
182
100
AcDbEntity
  8
Blade
  6
ByLayer
 62
  256
370
   -1
100
AcDbCircle
 10
718.3783029210481
 20
-147.0002834157121
 40
13.00028432407617
100
AcDbArc
 50
67.38037526281281
 51
112.619624736852
  0
LINE
  5
183
100
AcDbEntity
  8
Blade
  6
ByLayer
 62
  256
370
   -1
100
AcDbLine
 10
713.3782438764979
 20
-135.0000000000001
 11
698.3780667426081
 21
-134.9999999999998
  0
ARC
  5
184
100
AcDbEntity
  8
Blade
  6
ByLayer
 62
  256
370
   -1
100
AcDbCircle
 10
693.378007698092
 20
-147.0002834157119
 40
13.00028432407588
100
AcDbArc
 50
67.38037526296192
 51
112.6196247369441
  0
ARC
  5
185
100
AcDbEntity
  8
Blade
  6
ByLayer
 62
  256
370
   -1
100
AcDbCircle
 10
703.416353380157
 20
-113.1336773884894
 40
13.00028432407549
100
AcDbArc
 50
247.3803752629235
 51
292.6196247369314
  0
LINE
  5
186
100
AcDbEntity
  8
Blade
  6
ByLayer
 62
  256
370
   -1
100
AcDbLine
 10
733.4167076477188
 20
-125.1339608042008
 11
740.9143663414479
 21
-125.1339608042009
  0
ARC
  5
187
100
AcDbEntity
  8
Blade
  6
ByLayer
 62
  256
370
   -1
100
AcDbCircle
 10
728.4166486031131
 20
-113.1336773884883
 40
13.00028432407645
100
AcDbArc
 50
247.3803752629636
 51
292.6196247373399
  0
LINE
  5
188
100
AcDbEntity
  8
Blade
  6
ByLayer
 62
  256
370
   -1
100
AcDbLine
 10
708.4164124247259
 20
-125.133960804201
 11
723.4165895585179
 21
-125.1339608042008
  0
ARC
  5
189
100
AcDbEntity
  8
Blade
  6
ByLayer
 62
  256
370
   -1
100
AcDbCircle
 10
501.5682105975238
 20
-119.9999999999999
 40
20
100
AcDbArc
 50
231.3576289028314
 51
270
  0
LINE
  5
18A
100
AcDbEntity
  8
Blade
  6
ByLayer
 62
  256
370
   -1
100
AcDbLine
 10
640.1881809968409
 20
-120.1339608042009
 11
643.4265454460319
 21
-120.1339608042009
  0
ARC
  5
18B
100
AcDbEntity
  8
Blade
  6
ByLayer
 62
  256
370
   -1
100
AcDbCircle
 10
640.1881809968409
 20
-115.1339608042009
 40
5
100
AcDbArc
 50
178.5203642291027
 51
270
  0
LINE
  5
18C
100
AcDbEntity
  8
Blade
  6
ByLayer
 62
  256
370
   -1
100
AcDbLine
 10
645.920518899864
 20
-125.1339608042009
 11
673.415999112613
 21
-125.1339608042022
  0
ARC
  5
18D
100
AcDbEntity
  8
Blade
  6
ByLayer
 62
  256
370
   -1
100
AcDbCircle
 10
678.4160581572
 20
-113.1336773884894
 40
13.00028432407549
100
AcDbArc
 50
247.380375262986
 51
292.6196247369369
  0
LINE
  5
18E
100
AcDbEntity
  8
Blade
  6
ByLayer
 62
  256
370
   -1
100
AcDbLine
 10
683.4161172017712
 20
-125.133960804201
 11
698.4162943355568
 21
-125.1339608042011
  0
LINE
  5
18F
100
AcDbEntity
  8
Blade
  6
ByLayer
 62
  256
370
   -1
100
AcDbLine
 10
688.3779486535168
 20
-134.9999999999931
 11
645.8846392529822
 21
-134.9999999999999
  0
ARC
  5
190
100
AcDbEntity
  8
Blade
  6
ByLayer
 62
  256
370
   -1
100
AcDbCircle
 10
609.5329155550821
 20
-1008.709043953237
 40
898.8933092211386
100
AcDbArc
 50
88.35645792360714
 51
98.90678217718148
  0
LINE
  5
191
100
AcDbEntity
  8
Blade
  6
ByLayer
 62
  256
370
   -1
100
AcDbLine
 10
635.8565891661319
 20
-89.19245108639981
 11
635.189848168242
 21
-115.0048525761559
  0
LINE
  5
192
100
AcDbEntity
  8
Blade
  6
ByLayer
 62
  256
370
   -1
100
AcDbLine
 10
489.0790631516402
 20
-135.6211778069057
 11
448.3384730774751
 21
-103.0490348636495
  0
ARC
  5
193
100
AcDbEntity
  8
Blade
  6
ByLayer
 62
  256
370
   -1
100
AcDbCircle
 10
609.5329155550821
 20
-1008.709043953237
 40
919.8933092211386
100
AcDbArc
 50
88.36019970697629
 51
100.0921402540775
  0
LINE
  5
194
100
AcDbEntity
  8
Blade
  6
ByLayer
 62
  256
370
   -1
100
AcDbLine
 10
658.2989819881291
 20
-125.1339608041995
 11
668.165021183926
 21
-134.9999999999964
  0
LINE
  5
195
100
AcDbEntity
  8
Blade
  6
ByLayer
 62
  256
370
   -1
100
AcDbLine
 10
698.2989819881291
 20
-125.1339608042002
 11
708.1650211839192
 21
-134.99999999999
  0
LINE
  5
196
100
AcDbEntity
  8
Blade
  6
ByLayer
 62
  256
370
   -1
100
AcDbLine
 10
719.3680045005681
 20
-125.1339608042006
 11
709.5019653047789
 21
-134.9999999999897
  0
LINE
  5
197
100
AcDbEntity
  8
Blade
  6
ByLayer
 62
  256
370
   -1
100
AcDbLine
 10
718.29898198813
 20
-125.1339608042006
 11
728.165021183916
 21
-134.9999999999867
  0
LINE
  5
198
100
AcDbEntity
  8
Blade
  6
ByLayer
 62
  256
370
   -1
100
AcDbLine
 10
739.3680045005681
 20
-125.1339608042008
 11
729.5019653047821
 21
-134.9999999999865
  0
LINE
  5
199
100
AcDbEntity
  8
Blade
  6
ByLayer
 62
  256
370
   -1
100
AcDbLine
 10
738.29898198813
 20
-125.1339608042008
 11
743.401746861342
 21
-130.2367256774129
  0
LINE
  5
19A
100
AcDbEntity
  8
Blade
  6
ByLayer
 62
  256
370
   -1
100
AcDbLine
 10
679.2708503888089
 20
-126.10582920488
 11
688.1650211839219
 21
-134.9999999999931
  0
LINE
  5
19B
100
AcDbEntity
  8
Blade
  6
ByLayer
 62
  256
370
   -1
100
AcDbLine
 10
678.3680920807419
 20
-126.1338732240265
 11
669.5019653047721
 21
-134.9999999999961
  0
LINE
  5
19C
100
AcDbEntity
  8
Blade
  6
ByLayer
 62
  256
370
   -1
100
AcDbLine
 10
699.1040530043329
 20
-125.3979123004356
 11
690.075496414941
 21
-134.4264688898271
  0
LINE
  5
19D
100
AcDbEntity
  8
Blade
  6
ByLayer
 62
  256
370
   -1
100
AcDbLine
 10
743.3542989794282
 20
-140
 11
501.5682105975238
 21
-139.9999999999997
  0
LINE
  5
19E
100
AcDbEntity
  8
Blade
  6
ByLayer
 62
  256
370
   -1
100
AcDbLine
 10
743.4143368195009
 20
-127.6461102430176
 11
743.3542989794282
 21
-140
  0
LINE
  5
19F
100
AcDbEntity
  8
Blade
  6
ByLayer
 62
  256
370
   -1
100
AcDbLine
 10
271.9938570053851
 20
-91.50603380999951
 11
271.9999053957458
 21
-89.00000000000011
  0
LINE
  5
1A0
100
AcDbEntity
  8
Blade
  6
ByLayer
 62
  256
370
   -1
100
AcDbLine
 10
271.9519580937181
 20
-108.8660391957991
 11
271.9579773585042
 21
-106.3720730057984
  0
ARC
  5
1A1
100
AcDbEntity
  8
Blade
  6
ByLayer
 62
  256
370
   -1
100
AcDbCircle
 10
269.4938642867678
 20
-91.50000000000011
 40
2.5
100
AcDbArc
 50
270
 51
359.8617151268077
  0
ARC
  5
1A2
100
AcDbEntity
  8
Blade
  6
ByLayer
 62
  256
370
   -1
100
AcDbCircle
 10
269.4579846398869
 20
-106.3660391957991
 40
2.5
100
AcDbArc
 50
359.8617151268077
 51
90
  0
ARC
  5
1A3
100
AcDbEntity
  8
Blade
  6
ByLayer
 62
  256
370
   -1
100
AcDbCircle
 10
174.487785335753
 20
-96.50000000000011
 40
2.5
100
AcDbArc
 50
90
 51
179.7215542769069
  0
ARC
  5
1A4
100
AcDbEntity
  8
Blade
  6
ByLayer
 62
  256
370
   -1
100
AcDbCircle
 10
174.4641371983021
 20
-101.3660391957991
 40
2.5
100
AcDbArc
 50
179.7215542769069
 51
270
  0
LINE
  5
1A5
100
AcDbEntity
  8
Blade
  6
ByLayer
 62
  256
370
   -1
100
AcDbLine
 10
174.487785335753
 20
-94.00000000000011
 11
192.000141574129
 21
-94.00000000000011
  0
ARC
  5
1A6
100
AcDbEntity
  8
Blade
  6
ByLayer
 62
  256
370
   -1
100
AcDbCircle
 10
197.0002006187019
 20
-81.99971658428791
 40
13.00028432407617
100
AcDbArc
 50
247.3803752628128
 51
292.619624736852
  0
LINE
  5
1A7
100
AcDbEntity
  8
Blade
  6
ByLayer
 62
  256
370
   -1
100
AcDbLine
 10
202.0002596632521
 20
-93.99999999999989
 11
217.0004367971419
 21
-94.0000000000002
  0
ARC
  5
1A8
100
AcDbEntity
  8
Blade
  6
ByLayer
 62
  256
370
   -1
100
AcDbCircle
 10
222.000495841658
 20
-81.99971658428808
 40
13.00028432407588
100
AcDbArc
 50
247.3803752629619
 51
292.6196247369441
  0
ARC
  5
1A9
100
AcDbEntity
  8
Blade
  6
ByLayer
 62
  256
370
   -1
100
AcDbCircle
 10
211.9621501595939
 20
-115.8663226115106
 40
13.00028432407549
100
AcDbArc
 50
67.38037526292354
 51
112.6196247369314
  0
LINE
  5
1AA
100
AcDbEntity
  8
Blade
  6
ByLayer
 62
  256
370
   -1
100
AcDbLine
 10
181.9617958920312
 20
-103.8660391957992
 11
174.4641371983021
 21
-103.8660391957991
  0
ARC
  5
1AB
100
AcDbEntity
  8
Blade
  6
ByLayer
 62
  256
370
   -1
100
AcDbCircle
 10
186.9618549366369
 20
-115.8663226115117
 40
13.00028432407645
100
AcDbArc
 50
67.38037526296354
 51
112.6196247373399
  0
LINE
  5
1AC
100
AcDbEntity
  8
Blade
  6
ByLayer
 62
  256
370
   -1
100
AcDbLine
 10
206.962091115025
 20
-103.866039195799
 11
191.961913981233
 21
-103.8660391957992
  0
ARC
  5
1AD
100
AcDbEntity
  8
Blade
  6
ByLayer
 62
  256
370
   -1
100
AcDbCircle
 10
413.8102929422262
 20
-109.0000000000001
 40
20
100
AcDbArc
 50
51.35762890283145
 51
90
  0
LINE
  5
1AE
100
AcDbEntity
  8
Blade
  6
ByLayer
 62
  256
370
   -1
100
AcDbLine
 10
275.1903225429101
 20
-108.8660391957991
 11
271.9519580937181
 21
-108.8660391957991
  0
ARC
  5
1AF
100
AcDbEntity
  8
Blade
  6
ByLayer
 62
  256
370
   -1
100
AcDbCircle
 10
275.1903225429101
 20
-113.8660391957991
 40
5
100
AcDbArc
 50
358.5203642291028
 51
90
  0
LINE
  5
1B0
100
AcDbEntity
  8
Blade
  6
ByLayer
 62
  256
370
   -1
100
AcDbLine
 10
269.4579846398869
 20
-103.8660391957991
 11
241.9625044271379
 21
-103.8660391957979
  0
ARC
  5
1B1
100
AcDbEntity
  8
Blade
  6
ByLayer
 62
  256
370
   -1
100
AcDbCircle
 10
236.96244538255
 20
-115.8663226115106
 40
13.00028432407549
100
AcDbArc
 50
67.38037526298605
 51
112.619624736937
  0
LINE
  5
1B2
100
AcDbEntity
  8
Blade
  6
ByLayer
 62
  256
370
   -1
100
AcDbLine
 10
231.9623863379802
 20
-103.8660391957989
 11
216.9622092041941
 21
-103.8660391957988
  0
LINE
  5
1B3
100
AcDbEntity
  8
Blade
  6
ByLayer
 62
  256
370
   -1
100
AcDbLine
 10
227.0005548862341
 20
-94.00000000000691
 11
269.4938642867678
 21
-94.00000000000011
  0
ARC
  5
1B4
100
AcDbEntity
  8
Blade
  6
ByLayer
 62
  256
370
   -1
100
AcDbCircle
 10
305.8455879846679
 20
779.7090439532369
 40
898.8933092211386
100
AcDbArc
 50
268.3564579236071
 51
278.9067821771814
  0
LINE
  5
1B5
100
AcDbEntity
  8
Blade
  6
ByLayer
 62
  256
370
   -1
100
AcDbLine
 10
279.5219143736181
 20
-139.8075489136002
 11
280.188655371509
 21
-113.9951474238441
  0
LINE
  5
1B6
100
AcDbEntity
  8
Blade
  6
ByLayer
 62
  256
370
   -1
100
AcDbLine
 10
426.2994403881098
 20
-93.37882219309421
 11
467.0400304622758
 21
-125.9509651363504
  0
ARC
  5
1B7
100
AcDbEntity
  8
Blade
  6
ByLayer
 62
  256
370
   -1
100
AcDbCircle
 10
305.8455879846679
 20
779.7090439532369
 40
919.8933092211386
100
AcDbArc
 50
268.3601997069763
 51
280.0921402540775
  0
LINE
  5
1B8
100
AcDbEntity
  8
Blade
  6
ByLayer
 62
  256
370
   -1
100
AcDbLine
 10
257.0795215516209
 20
-103.8660391958004
 11
247.213482355824
 21
-94.00000000000361
  0
LINE
  5
1B9
100
AcDbEntity
  8
Blade
  6
ByLayer
 62
  256
370
   -1
100
AcDbLine
 10
217.0795215516209
 20
-103.8660391957998
 11
207.2134823558308
 21
-94.00000000001
  0
LINE
  5
1BA
100
AcDbEntity
  8
Blade
  6
ByLayer
 62
  256
370
   -1
100
AcDbLine
 10
196.0104990391828
 20
-103.8660391957994
 11
205.876538234972
 21
-94.00000000001029
  0
LINE
  5
1BB
100
AcDbEntity
  8
Blade
  6
ByLayer
 62
  256
370
   -1
100
AcDbLine
 10
197.07952155162
 20
-103.8660391957995
 11
187.213482355834
 21
-94.0000000000133
  0
LINE
  5
1BC
100
AcDbEntity
  8
Blade
  6
ByLayer
 62
  256
370
   -1
100
AcDbLine
 10
176.0104990391828
 20
-103.8660391957992
 11
185.8765382349679
 21
-94.0000000000135
  0
LINE
  5
1BD
100
AcDbEntity
  8
Blade
  6
ByLayer
 62
  256
370
   -1
100
AcDbLine
 10
177.07952155162
 20
-103.8660391957992
 11
171.976756678408
 21
-98.76327432258711
  0
LINE
  5
1BE
100
AcDbEntity
  8
Blade
  6
ByLayer
 62
  256
370
   -1
100
AcDbLine
 10
236.1076531509411
 20
-102.8941707951199
 11
227.2134823558281
 21
-94.00000000000691
  0
LINE
  5
1BF
100
AcDbEntity
  8
Blade
  6
ByLayer
 62
  256
370
   -1
100
AcDbLine
 10
237.010411459009
 20
-102.8661267759735
 11
245.8765382349779
 21
-94.00000000000389
  0
LINE
  5
1C0
100
AcDbEntity
  8
Blade
  6
ByLayer
 62
  256
370
   -1
100
AcDbLine
 10
216.2744505354181
 20
-103.6020876995645
 11
225.303007124809
 21
-94.57353111017289
  0
LINE
  5
1C1
100
AcDbEntity
  8
Blade
  6
ByLayer
 62
  256
370
   -1
100
AcDbLine
 10
172.0242045603231
 20
-89
 11
413.8102929422262
 21
-89.0000000000002
  0
LINE
  5
1C2
100
AcDbEntity
  8
Blade
  6
ByLayer
 62
  256
370
   -1
100
AcDbLine
 10
171.9641667202491
 20
-101.3538897569824
 11
172.0242045603231
 21
-89
  0
MTEXT
  5
1C3
100
AcDbEntity
  8
Damascus aihio 51x2.6x1000
  6
ByLayer
 62
  256
370
   -1
100
AcDbMText
 10
-50
 20
-70
 30
0
 40
5
 41
79.72222736509552
 71
    1
 72
    1
  1
Damascus RWL34 MART\P51*2.6*1000
  7
standard
210
0
220
0
230
1
 50
0
 73
    2
 44
1
  0
ARC
  5
1C4
100
AcDbEntity
  8
Blade
  6
ByLayer
 62
  256
370
   -1
100
AcDbCircle
 10
840.1822519653007
 20
-109.3935491926084
 40
2.5
100
AcDbArc
 50
359.7215542769069
 51
90
  0
ARC
  5
1C5
100
AcDbEntity
  8
Blade
  6
ByLayer
 62
  256
370
   -1
100
AcDbCircle
 10
802.6842390040093
 20
-94.89326577689698
 40
13.00028432407549
100
AcDbArc
 50
247.3803752629235
 51
292.6196247369314
  0
LINE
  5
1C6
100
AcDbEntity
  8
Blade
  6
ByLayer
 62
  256
370
   -1
100
AcDbLine
 10
832.684593271572
 20
-106.8935491926083
 11
840.1822519653007
 21
-106.8935491926084
  0
ARC
  5
1C7
100
AcDbEntity
  8
Blade
  6
ByLayer
 62
  256
370
   -1
100
AcDbCircle
 10
827.6845342269654
 20
-94.89326577689583
 40
13.00028432407645
100
AcDbArc
 50
247.3803752629636
 51
292.6196247373399
  0
LINE
  5
1C8
100
AcDbEntity
  8
Blade
  6
ByLayer
 62
  256
370
   -1
100
AcDbLine
 10
807.6842980485782
 20
-106.8935491926086
 11
822.6844751823702
 21
-106.8935491926083
  0
ARC
  5
1C9
100
AcDbEntity
  8
Blade
  6
ByLayer
 62
  256
370
   -1
100
AcDbCircle
 10
777.6839437810528
 20
-94.89326577689698
 40
13.00028432407549
100
AcDbArc
 50
247.380375262986
 51
292.619624736937
  0
LINE
  5
1CA
100
AcDbEntity
  8
Blade
  6
ByLayer
 62
  256
370
   -1
100
AcDbLine
 10
782.684002825623
 20
-106.8935491926087
 11
797.6841799594096
 21
-106.8935491926087
  0
LINE
  5
1CB
100
AcDbEntity
  8
Blade
  6
ByLayer
 62
  256
370
   -1
100
AcDbLine
 10
670.1814100194272
 20
-108.4900414155011
 11
659.7005877736996
 21
-121.1362554548657
  0
LINE
  5
1CC
100
AcDbEntity
  8
Blade
  6
ByLayer
 62
  256
370
   -1
100
AcDbLine
 10
663.9500480588117
 20
-100.3375362891126
 11
646.7126616096717
 21
-121.1362554548656
  0
ARC
  5
1CD
100
AcDbEntity
  8
Blade
  6
ByLayer
 62
  256
370
   -1
100
AcDbCircle
 10
667.7997773665194
 20
-103.5280823642191
 40
5
100
AcDbArc
 50
90.95095151952515
 51
140.3490275159701
  0
LINE
  5
1CE
100
AcDbEntity
  8
Blade
  6
ByLayer
 62
  256
370
   -1
100
AcDbLine
 10
746.8500558811288
 20
-106.8935491926085
 11
772.6838847364653
 21
-106.8935491926096
  0
LINE
  5
1CF
100
AcDbEntity
  8
Blade
  6
ByLayer
 62
  256
370
   -1
100
AcDbLine
 10
742.8500558811289
 20
-102.8935491926085
 11
742.8500558811289
 21
-98.13616086784202
  0
ARC
  5
1D0
100
AcDbEntity
  8
Blade
  6
ByLayer
 62
  256
370
   -1
100
AcDbCircle
 10
746.8500558811289
 20
-102.8935491926085
 40
4
100
AcDbArc
 50
179.9999999999999
 51
269.9999999999976
  0
ARC
  5
1D1
100
AcDbEntity
  8
Blade
  6
ByLayer
 62
  256
370
   -1
100
AcDbCircle
 10
722.5451792294422
 20
-3401.690382176729
 40
3293.616621392926
100
AcDbArc
 50
89.73375529250018
 51
90.9109589020036
  0
ARC
  5
1D2
100
AcDbEntity
  8
Blade
  6
ByLayer
 62
  256
370
   -1
100
AcDbCircle
 10
722.5451792294422
 20
-3401.690382176729
 40
3303.616621392926
100
AcDbArc
 50
89.7692427453224
 51
90.95095151951608
  0
ARC
  5
1D3
100
AcDbEntity
  8
Blade
  6
ByLayer
 62
  256
370
   -1
100
AcDbCircle
 10
737.8500558811289
 20
-98.13616086784201
 40
2
100
AcDbArc
 50
178.979883903861
 51
0.489234200044772
  0
ARC
  5
1D4
100
AcDbEntity
  8
Blade
  6
ByLayer
 62
  256
370
   -1
100
AcDbCircle
 10
722.5451792294422
 20
-3401.690382176729
 40
3303.616621392926
100
AcDbArc
 50
89.64784319917078
 51
89.69987535858108
  0
LINE
  5
1D5
100
AcDbEntity
  8
Blade
  6
ByLayer
 62
  256
370
   -1
100
AcDbLine
 10
737.8500558811289
 20
-108.1093205560462
 11
737.8500558811289
 21
-100.1361608678424
  0
LINE
  5
1D6
100
AcDbEntity
  8
Blade
  6
ByLayer
 62
  256
370
   -1
100
AcDbLine
 10
842.6822224433537
 20
-109.4056986314252
 11
842.6252138971882
 21
-121.1362554548656
  0
LINE
  5
1D7
100
AcDbEntity
  8
Blade
  6
ByLayer
 62
  256
370
   -1
100
AcDbLine
 10
842.6252138971882
 20
-121.1362554548656
 11
646.7126616096717
 21
-121.1362554548656
  0
LINE
  5
1D8
100
AcDbEntity
  8
Blade
  6
ByLayer
 62
  256
370
   -1
100
AcDbLine
 10
837.5668676119823
 20
-106.8935491926083
 11
842.6696324851947
 21
-111.9963140658204
  0
LINE
  5
1D9
100
AcDbEntity
  8
Blade
  6
ByLayer
 62
  256
370
   -1
100
AcDbLine
 10
838.6358901244204
 20
-106.8935491926083
 11
827.3931838621628
 21
-118.1362554548656
  0
LINE
  5
1DA
100
AcDbEntity
  8
Blade
  6
ByLayer
 62
  256
370
   -1
100
AcDbLine
 10
817.5668676119823
 20
-106.8935491926082
 11
828.8095738742401
 21
-118.1362554548656
  0
LINE
  5
1DB
100
AcDbEntity
  8
Blade
  6
ByLayer
 62
  256
370
   -1
100
AcDbLine
 10
818.6358901244204
 20
-106.8935491926081
 11
807.3931838621628
 21
-118.1362554548656
  0
LINE
  5
1DC
100
AcDbEntity
  8
Blade
  6
ByLayer
 62
  256
370
   -1
100
AcDbLine
 10
797.5668676119818
 20
-106.8935491926078
 11
808.8095738742401
 21
-118.1362554548656
  0
LINE
  5
1DD
100
AcDbEntity
  8
Blade
  6
ByLayer
 62
  256
370
   -1
100
AcDbLine
 10
798.3719386281856
 20
-107.157500688843
 11
787.3931838621626
 21
-118.1362554548656
  0
LINE
  5
1DE
100
AcDbEntity
  8
Blade
  6
ByLayer
 62
  256
370
   -1
100
AcDbLine
 10
778.5387360126616
 20
-107.8654175932877
 11
788.8095738742396
 21
-118.1362554548656
  0
LINE
  5
1DF
100
AcDbEntity
  8
Blade
  6
ByLayer
 62
  256
370
   -1
100
AcDbLine
 10
777.6359777045947
 20
-107.893461612434
 11
767.3931838621628
 21
-118.1362554548656
  0
LINE
  5
1E0
100
AcDbEntity
  8
Blade
  6
ByLayer
 62
  256
370
   -1
100
AcDbLine
 10
757.5668676119814
 20
-106.8935491926072
 11
768.80957387424
 21
-118.1362554548656
  0
ARC
  5
1E1
100
AcDbEntity
  8
Blade
  6
ByLayer
 62
  256
370
   -1
100
AcDbCircle
 10
755.7637492159174
 20
-127.6547850931178
 40
2.5
100
AcDbArc
 50
90
 51
180.2784457230931
  0
ARC
  5
1E2
100
AcDbEntity
  8
Blade
  6
ByLayer
 62
  256
370
   -1
100
AcDbCircle
 10
793.2617621772088
 20
-113.1545016774064
 40
13.00028432407549
100
AcDbArc
 50
247.3803752630686
 51
292.6196247370764
  0
LINE
  5
1E3
100
AcDbEntity
  8
Blade
  6
ByLayer
 62
  256
370
   -1
100
AcDbLine
 10
763.2614079096461
 20
-125.1547850931177
 11
755.7637492159174
 21
-125.1547850931178
  0
ARC
  5
1E4
100
AcDbEntity
  8
Blade
  6
ByLayer
 62
  256
370
   -1
100
AcDbCircle
 10
768.2614669542527
 20
-113.1545016774052
 40
13.00028432407645
100
AcDbArc
 50
247.3803752626601
 51
292.6196247370365
  0
LINE
  5
1E5
100
AcDbEntity
  8
Blade
  6
ByLayer
 62
  256
370
   -1
100
AcDbLine
 10
788.2617031326399
 20
-125.154785093118
 11
773.2615259988479
 21
-125.1547850931177
  0
ARC
  5
1E6
100
AcDbEntity
  8
Blade
  6
ByLayer
 62
  256
370
   -1
100
AcDbCircle
 10
818.2620574001653
 20
-113.1545016774064
 40
13.00028432407549
100
AcDbArc
 50
247.380375263063
 51
292.619624737014
  0
LINE
  5
1E7
100
AcDbEntity
  8
Blade
  6
ByLayer
 62
  256
370
   -1
100
AcDbLine
 10
813.2619983555951
 20
-125.1547850931181
 11
798.2618212218085
 21
-125.1547850931181
  0
LINE
  5
1E8
100
AcDbEntity
  8
Blade
  6
ByLayer
 62
  256
370
   -1
100
AcDbLine
 10
925.7645911617909
 20
-126.7512773160104
 11
936.2454134075185
 21
-139.397491355375
  0
LINE
  5
1E9
100
AcDbEntity
  8
Blade
  6
ByLayer
 62
  256
370
   -1
100
AcDbLine
 10
931.9959531224064
 20
-118.598772189622
 11
949.2333395715464
 21
-139.397491355375
  0
ARC
  5
1EA
100
AcDbEntity
  8
Blade
  6
ByLayer
 62
  256
370
   -1
100
AcDbCircle
 10
928.1462238146987
 20
-121.7893182647285
 40
5
100
AcDbArc
 50
39.65097248402994
 51
89.04904848047485
  0
LINE
  5
1EB
100
AcDbEntity
  8
Blade
  6
ByLayer
 62
  256
370
   -1
100
AcDbLine
 10
849.0959453000893
 20
-125.1547850931179
 11
823.2621164447528
 21
-125.154785093119
  0
LINE
  5
1EC
100
AcDbEntity
  8
Blade
  6
ByLayer
 62
  256
370
   -1
100
AcDbLine
 10
853.0959453000892
 20
-121.1547850931179
 11
853.0959453000892
 21
-116.3973967683514
  0
ARC
  5
1ED
100
AcDbEntity
  8
Blade
  6
ByLayer
 62
  256
370
   -1
100
AcDbCircle
 10
849.0959453000892
 20
-121.1547850931179
 40
4
100
AcDbArc
 50
270.0000000000024
 51
1.017777498068325e-013
  0
ARC
  5
1EE
100
AcDbEntity
  8
Blade
  6
ByLayer
 62
  256
370
   -1
100
AcDbCircle
 10
873.4008219517764
 20
-3419.951618077238
 40
3293.616621392926
100
AcDbArc
 50
89.0890410979964
 51
90.26624470749982
  0
ARC
  5
1EF
100
AcDbEntity
  8
Blade
  6
ByLayer
 62
  256
370
   -1
100
AcDbCircle
 10
873.4008219517764
 20
-3419.951618077238
 40
3303.616621392926
100
AcDbArc
 50
89.04904848048392
 51
90.2307572546776
  0
ARC
  5
1F0
100
AcDbEntity
  8
Blade
  6
ByLayer
 62
  256
370
   -1
100
AcDbCircle
 10
858.0959453000892
 20
-116.3973967683514
 40
2
100
AcDbArc
 50
179.5107657999552
 51
1.020116096139098
  0
ARC
  5
1F1
100
AcDbEntity
  8
Blade
  6
ByLayer
 62
  256
370
   -1
100
AcDbCircle
 10
873.4008219517764
 20
-3419.951618077238
 40
3303.616621392926
100
AcDbArc
 50
90.30012464141892
 51
90.35215680082922
  0
LINE
  5
1F2
100
AcDbEntity
  8
Blade
  6
ByLayer
 62
  256
370
   -1
100
AcDbLine
 10
858.0959453000892
 20
-126.3705564565555
 11
858.0959453000892
 21
-118.3973967683518
  0
LINE
  5
1F3
100
AcDbEntity
  8
Blade
  6
ByLayer
 62
  256
370
   -1
100
AcDbLine
 10
753.2637787378644
 20
-127.6669345319345
 11
753.3207872840297
 21
-139.397491355375
  0
LINE
  5
1F4
100
AcDbEntity
  8
Blade
  6
ByLayer
 62
  256
370
   -1
100
AcDbLine
 10
753.3207872840297
 20
-139.397491355375
 11
949.2333395715464
 21
-139.397491355375
  0
LINE
  5
1F5
100
AcDbEntity
  8
Blade
  6
ByLayer
 62
  256
370
   -1
100
AcDbLine
 10
758.3791335692358
 20
-125.1547850931177
 11
753.2763686960234
 21
-130.2575499663298
  0
LINE
  5
1F6
100
AcDbEntity
  8
Blade
  6
ByLayer
 62
  256
370
   -1
100
AcDbLine
 10
757.3101110567977
 20
-125.1547850931177
 11
768.5528173190553
 21
-136.397491355375
  0
LINE
  5
1F7
100
AcDbEntity
  8
Blade
  6
ByLayer
 62
  256
370
   -1
100
AcDbLine
 10
778.3791335692358
 20
-125.1547850931175
 11
767.1364273069779
 21
-136.397491355375
  0
LINE
  5
1F8
100
AcDbEntity
  8
Blade
  6
ByLayer
 62
  256
370
   -1
100
AcDbLine
 10
777.3101110567977
 20
-125.1547850931175
 11
788.5528173190553
 21
-136.397491355375
  0
LINE
  5
1F9
100
AcDbEntity
  8
Blade
  6
ByLayer
 62
  256
370
   -1
100
AcDbLine
 10
798.3791335692363
 20
-125.1547850931171
 11
787.136427306978
 21
-136.397491355375
  0
LINE
  5
1FA
100
AcDbEntity
  8
Blade
  6
ByLayer
 62
  256
370
   -1
100
AcDbLine
 10
797.5740625530325
 20
-125.4187365893524
 11
808.5528173190554
 21
-136.397491355375
  0
LINE
  5
1FB
100
AcDbEntity
  8
Blade
  6
ByLayer
 62
  256
370
   -1
100
AcDbLine
 10
817.4072651685565
 20
-126.1266534937971
 11
807.1364273069785
 21
-136.397491355375
  0
LINE
  5
1FC
100
AcDbEntity
  8
Blade
  6
ByLayer
 62
  256
370
   -1
100
AcDbLine
 10
818.3100234766234
 20
-126.1546975129434
 11
828.5528173190553
 21
-136.397491355375
  0
LINE
  5
1FD
100
AcDbEntity
  8
Blade
  6
ByLayer
 62
  256
370
   -1
100
AcDbLine
 10
838.3791335692367
 20
-125.1547850931165
 11
827.1364273069781
 21
-136.397491355375
  0
ARC
  5
1FE
100
AcDbEntity
  8
Blade
  6
ByLayer
 62
  256
370
   -1
100
AcDbCircle
 10
755.4288228421642
 20
-101.4848299965943
 40
2.5
100
AcDbArc
 50
179.6642585021685
 51
269.9427042252616
  0
ARC
  5
1FF
100
AcDbEntity
  8
Blade
  6
ByLayer
 62
  256
370
   -1
100
AcDbCircle
 10
792.9123167746631
 20
-116.0226041657527
 40
13.00028432407549
100
AcDbArc
 50
67.32307948818514
 51
112.562328962193
  0
LINE
  5
200
100
AcDbEntity
  8
Blade
  6
ByLayer
 62
  256
370
   -1
100
AcDbLine
 10
762.9239777876894
 20
-103.9923264034141
 11
755.4263228427892
 21
-103.9848287465946
  0
ARC
  5
201
100
AcDbEntity
  8
Blade
  6
ByLayer
 62
  256
370
   -1
100
AcDbCircle
 10
767.9120340518516
 20
-115.9976038767809
 40
13.00028432407645
100
AcDbArc
 50
67.32307948822515
 51
112.5623289626015
  0
LINE
  5
202
100
AcDbEntity
  8
Blade
  6
ByLayer
 62
  256
370
   -1
100
AcDbLine
 10
787.9242605105388
 20
-104.0173266923867
 11
772.9240908768335
 21
-104.0023265190032
  0
ARC
  5
203
100
AcDbEntity
  8
Blade
  6
ByLayer
 62
  256
370
   -1
100
AcDbCircle
 10
817.9125994974752
 20
-116.0476044547256
 40
13.00028432407549
100
AcDbArc
 50
67.32307948824763
 51
112.5623289621986
  0
LINE
  5
204
100
AcDbEntity
  8
Blade
  6
ByLayer
 62
  256
370
   -1
100
AcDbLine
 10
812.9245432333495
 20
-104.0423269813595
 11
797.9243735996497
 21
-104.0273268079757
  0
LINE
  5
205
100
AcDbEntity
  8
Blade
  6
ByLayer
 62
  256
370
   -1
100
AcDbLine
 10
925.4286762800867
 20
-102.5583381213936
 11
935.9221394962824
 21
-89.92261122476
  0
LINE
  5
206
100
AcDbEntity
  8
Blade
  6
ByLayer
 62
  256
370
   -1
100
AcDbLine
 10
931.6518826219337
 20
-110.7170705319333
 11
948.9100591663488
 21
-89.93559914767705
  0
ARC
  5
207
100
AcDbEntity
  8
Blade
  6
ByLayer
 62
  256
370
   -1
100
AcDbCircle
 10
927.8053457843678
 20
-107.5226763237541
 40
5
100
AcDbArc
 50
270.8936557447868
 51
320.2917317412317
  0
LINE
  5
208
100
AcDbEntity
  8
Blade
  6
ByLayer
 62
  256
370
   -1
100
AcDbLine
 10
848.7584722608747
 20
-104.0781609193457
 11
822.9246563224494
 21
-104.0523270969477
  0
LINE
  5
209
100
AcDbEntity
  8
Blade
  6
ByLayer
 62
  256
370
   -1
100
AcDbLine
 10
852.7544702618751
 20
-108.0821589183462
 11
852.7497128747397
 21
-112.8395448644191
  0
ARC
  5
20A
100
AcDbEntity
  8
Blade
  6
ByLayer
 62
  256
370
   -1
100
AcDbCircle
 10
848.7544722618745
 20
-108.0781589193462
 40
4
100
AcDbArc
 50
359.9427042252615
 51
89.94270422525915
  0
ARC
  5
20B
100
AcDbEntity
  8
Blade
  6
ByLayer
 62
  256
370
   -1
100
AcDbCircle
 10
876.3581327694117
 20
3190.692719796195
 40
3293.616621392926
100
AcDbArc
 50
269.6764595177618
 51
270.8536631272652
  0
ARC
  5
20C
100
AcDbEntity
  8
Blade
  6
ByLayer
 62
  256
370
   -1
100
AcDbCircle
 10
876.3581327694117
 20
3190.692719796195
 40
3303.616621392926
100
AcDbArc
 50
269.711946970584
 51
270.8936557447777
  0
ARC
  5
20D
100
AcDbEntity
  8
Blade
  6
ByLayer
 62
  256
370
   -1
100
AcDbCircle
 10
857.7497103747403
 20
-112.8445448631691
 40
2
100
AcDbArc
 50
358.9225881291225
 51
180.4319384253064
  0
ARC
  5
20E
100
AcDbEntity
  8
Blade
  6
ByLayer
 62
  256
370
   -1
100
AcDbCircle
 10
876.3581327694117
 20
3190.692719796195
 40
3303.616621392926
100
AcDbArc
 50
269.5905474244324
 51
269.6425795838427
  0
LINE
  5
20F
100
AcDbEntity
  8
Blade
  6
ByLayer
 62
  256
370
   -1
100
AcDbLine
 10
857.7596835319353
 20
-102.8713901615436
 11
857.7517103742402
 21
-110.8445458631684
  0
LINE
  5
210
100
AcDbEntity
  8
Blade
  6
ByLayer
 62
  256
370
   -1
100
AcDbLine
 10
752.9288657635318
 20
-101.4701805939992
 11
752.9976048350837
 21
-89.73968664436765
  0
LINE
  5
211
100
AcDbEntity
  8
Blade
  6
ByLayer
 62
  256
370
   -1
100
AcDbLine
 10
752.9976048350837
 20
-89.73968664436765
 11
948.9100591663488
 21
-89.93559914767705
  0
LINE
  5
212
100
AcDbEntity
  8
Blade
  6
ByLayer
 62
  256
370
   -1
100
AcDbLine
 10
758.0417058884157
 20
-103.9874441302942
 11
752.9440463301826
 21
-98.87957904486639
  0
LINE
  5
213
100
AcDbEntity
  8
Blade
  6
ByLayer
 62
  256
370
   -1
100
AcDbLine
 10
756.9726839104887
 20
-103.986375108049
 11
768.2266272548461
 21
-92.75491717059505
  0
LINE
  5
214
100
AcDbEntity
  8
Blade
  6
ByLayer
 62
  256
370
   -1
100
AcDbLine
 10
778.0416958884182
 20
-104.0074441252944
 11
766.8102379509636
 21
-92.75350078093707
  0
LINE
  5
215
100
AcDbEntity
  8
Blade
  6
ByLayer
 62
  256
370
   -1
100
AcDbLine
 10
776.9726739104913
 20
-104.0063751030492
 11
788.2266172548486
 21
-92.77491716559506
  0
LINE
  5
216
100
AcDbEntity
  8
Blade
  6
ByLayer
 62
  256
370
   -1
100
AcDbLine
 10
798.0416858884212
 20
-104.0274441202948
 11
786.8102279509662
 21
-92.77350077593707
  0
LINE
  5
217
100
AcDbEntity
  8
Blade
  6
ByLayer
 62
  256
370
   -1
100
AcDbLine
 10
797.2368792261831
 20
-103.7626876852203
 11
808.2266072548514
 21
-92.79491716059505
  0
LINE
  5
218
100
AcDbEntity
  8
Blade
  6
ByLayer
 62
  256
370
   -1
100
AcDbLine
 10
817.0707798418357
 20
-103.0746043323912
 11
806.8102179509692
 21
-92.79350077093707
  0
LINE
  5
219
100
AcDbEntity
  8
Blade
  6
ByLayer
 62
  256
370
   -1
100
AcDbLine
 10
817.9735657425358
 20
-103.0474630853493
 11
828.2265972548537
 21
-92.81491715559505
  0
LINE
  5
21A
100
AcDbEntity
  8
Blade
  6
ByLayer
 62
  256
370
   -1
100
AcDbLine
 10
838.0416658884267
 20
-104.0674441102954
 11
826.8102079509714
 21
-92.81350076593708
  0
ENDSEC
  0
SECTION
  2
OBJECTS
  0
DICTIONARY
  5
C
330
0
100
AcDbDictionary
281
    1
  3
ACAD_GROUP
350
D
  0
DICTIONARY
  5
D
330
C
100
AcDbDictionary
281
    1
  0
ENDSEC
  0
EOF
